<svg xmlns="http://www.w3.org/2000/svg" viewBox="0 0 121.20076 77.02935"><defs><style>.cls-1{fill:#fff;}</style></defs><title>gPlus</title><g id="Layer_2" data-name="Layer 2"><g id="Layer_1-2" data-name="Layer 1"><path class="cls-1" d="M110.17605,21.82533V32.85087h11.02471V43.87559H110.17605V54.90028H99.1505V43.87559H88.12578V32.85087H99.1505V21.82533Zm0,0"/><path class="cls-1" d="M10.95028,65.92585C-3.75044,51.22426-3.75044,25.50133,11.56169,10.8006,22.58641-.2241,38.51333-2.67563,52.60012,2.83715L58.11206,5.9026l6.12672,4.28659L54.436,19.98941l-3.67265-2.45067c-8.574-5.51278-20.82491-4.28745-28.78755,3.676-9.1888,9.18882-9.80018,25.72631,0,35.52566,9.188,9.79938,25.72546,9.79938,34.30032,0,2.4507-2.45066,4.90137-6.12669,5.51195-9.79935V45.71567H39.73866V33.46479h34.9109l.61476,3.06211v8.574c-.61476,7.96348-3.676,15.92693-9.18878,21.43886-14.70074,14.0868-40.42367,14.0868-55.12526-.61392Zm0,0"/></g></g></svg>