<svg xmlns="http://www.w3.org/2000/svg" viewBox="0 0 111.46729 111.47113"><defs><style>.cls-1{fill:#fff;}</style></defs><title>iGram</title><g id="Layer_2" data-name="Layer 2"><g id="Layer_1-2" data-name="Layer 1"><path class="cls-1" d="M89.9231,0H21.54077A21.55889,21.55889,0,0,0,0,21.54077V89.927a21.55961,21.55961,0,0,0,21.54077,21.54413H89.927A21.563,21.563,0,0,0,111.46729,89.927V21.54077A21.56315,21.56315,0,0,0,89.9231,0Zm6.18909,12.84521,2.45959-.00952v18.894l-18.83386.06317-.0636-18.89746ZM39.82849,44.29071a19.58787,19.58787,0,1,1-3.70984,11.43555A19.61017,19.61017,0,0,1,39.82849,44.29071ZM100.59961,89.927a10.6844,10.6844,0,0,1-10.68225,10.67279H21.53687A10.67989,10.67989,0,0,1,10.85449,89.927V44.29407H27.4939A30.47831,30.47831,0,1,0,86.22034,55.73a30.06267,30.06267,0,0,0-2.2677-11.436h16.647Z"/></g></g></svg>