<svg xmlns="http://www.w3.org/2000/svg" viewBox="0 0 117.61139 95.54907"><defs><style>.cls-1{fill:#fff;}</style></defs><title>twitterHover</title><g id="Layer_2" data-name="Layer 2"><g id="Layer_1-2" data-name="Layer 1"><path class="cls-1" d="M117.61139,11.31781a48.33989,48.33989,0,0,1-13.85632,3.7984A24.19059,24.19059,0,0,0,114.36469,1.76428,48.88313,48.88313,0,0,1,99.03888,7.6189a24.15194,24.15194,0,0,0-41.122,22.002A68.48928,68.48928,0,0,1,8.18115,4.41144,24.16466,24.16466,0,0,0,15.6546,36.61536,24.08247,24.08247,0,0,1,4.72723,33.58923v.3067A24.15257,24.15257,0,0,0,24.08264,57.55029a24.85689,24.85689,0,0,1-10.903.41681A24.17047,24.17047,0,0,0,35.72009,74.72461,48.41594,48.41594,0,0,1,5.757,85.05,49.58048,49.58048,0,0,1,0,84.70789,68.26791,68.26791,0,0,0,36.98193,95.54907c44.38208,0,68.64795-36.74982,68.64795-68.64752l-.07269-3.12567A48.72149,48.72149,0,0,0,117.61139,11.31781Z"/></g></g></svg>