<svg xmlns="http://www.w3.org/2000/svg" xmlns:xlink="http://www.w3.org/1999/xlink" viewBox="0 0 121.03772 85.13027"><defs><style>.cls-1{fill:#fff;}.cls-2{fill:#420000;fill-rule:evenodd;opacity:0.12;}.cls-3{fill:url(#linear-gradient);}</style><linearGradient id="linear-gradient" x1="60.51887" x2="60.51887" y2="85.13024" gradientUnits="userSpaceOnUse"><stop offset="0" stop-color="#e52d27"/><stop offset="1" stop-color="#bf171d"/></linearGradient></defs><title>yTube</title><g id="Layer_2" data-name="Layer 2"><g id="Layer_1-2" data-name="Layer 1"><path id="Triangle" class="cls-1" d="M48.01763,58.265,80.72253,41.32,48.01763,24.25662Z"/><path id="The_Sharpness" data-name="The Sharpness" class="cls-2" d="M48.01763,24.25662l28.681,19.15192L80.72253,41.32Z"/><g id="Lozenge"><path class="cls-3" d="M119.829,18.36513s-1.18268-8.34081-4.81169-12.01385c-4.60258-4.82085-9.76175-4.84471-12.12756-5.12693C85.95217,0,60.54525,0,60.54525,0h-.05267S35.086,0,18.148,1.22435c-2.366.28222-7.52329.30609-12.12756,5.12693-3.629,3.673-4.8099,12.01385-4.8099,12.01385A183.0384,183.0384,0,0,0,0,37.95472v9.18265A183.03736,183.03736,0,0,0,1.21053,66.72678s1.18088,8.34087,4.8099,12.01391c4.60427,4.82085,10.65232,4.66845,13.34606,5.17371,9.68325.92848,41.15248,1.21587,41.15248,1.21587s25.43319-.03835,42.37076-1.26264c2.36581-.28222,7.525-.30609,12.12756-5.12693,3.629-3.673,4.81169-12.01391,4.81169-12.01391a183.30525,183.30525,0,0,0,1.20874-19.58942V37.95472A183.3063,183.3063,0,0,0,119.829,18.36513ZM48.02317,58.265l-.0055-34.00833L80.72259,41.32Z"/></g></g></g></svg>