<svg xmlns="http://www.w3.org/2000/svg" viewBox="0 0 121.03772 85.13038"><defs><style>.cls-1{fill-rule:evenodd;opacity:0.12;}.cls-2{fill:#fff;}</style></defs><title>yTubeHover</title><g id="Layer_2" data-name="Layer 2"><g id="Layer_1-2" data-name="Layer 1"><path id="The_Sharpness" data-name="The Sharpness" class="cls-1" d="M48.01758,24.25667l28.681,19.15194,4.02389-2.08849Z"/><g id="Lozenge"><path class="cls-2" d="M119.8291,18.36519s-1.18279-8.34081-4.81181-12.01385c-4.60247-4.82085-9.76175-4.84477-12.12756-5.12693C85.95217,0,60.54525,0,60.54525,0h-.05278S35.086,0,18.148,1.2244c-2.366.28217-7.52329.30609-12.12756,5.12693-3.629,3.673-4.81,12.01385-4.81,12.01385A183.05651,183.05651,0,0,0,0,37.95477v9.18265A183.05443,183.05443,0,0,0,1.21042,66.7269s1.181,8.34093,4.81,12.014c4.60427,4.82085,10.65232,4.66839,13.34606,5.17365C29.04963,84.843,60.519,85.13038,60.519,85.13038s25.43319-.0383,42.37076-1.26264c2.36581-.28222,7.52509-.306,12.12756-5.12688,3.629-3.673,4.81181-12.014,4.81181-12.014a183.32237,183.32237,0,0,0,1.20862-19.58948V37.95477A183.32445,183.32445,0,0,0,119.8291,18.36519Zm-71.806,39.89989-.00562-34.00839L80.72259,41.3201Z"/></g></g></g></svg>