<?xml version="1.0" encoding="utf-8"?>
<!-- Generator: Adobe Illustrator 21.0.0, SVG Export Plug-In . SVG Version: 6.00 Build 0)  -->
<svg version="1.1" id="Layer_1" xmlns="http://www.w3.org/2000/svg" xmlns:xlink="http://www.w3.org/1999/xlink" x="0px" y="0px"
	 viewBox="0 0 751.4660645 179.4380188" enable-background="new 0 0 751.4660645 179.4380188" xml:space="preserve">
<polygon fill="none" points="36.717804,-0.0007324 36.717804,36.7192078 -0.0022583,36.7192078 -0.0022583,-0.0007324 
	36.717804,-0.0007324 "/>
<polygon fill="none" points="-0.0022583,179.4389954 -0.0022583,142.7189941 36.717804,142.7189941 36.717804,179.4389954 
	-0.0022583,179.4389954 "/>
<polygon fill="#FDDD10" points="88.8113098,42.315094 140.1150055,60.0870972 129.8540039,113.4029846 88.8113098,148.947998 
	47.7684021,113.4029846 37.5075989,60.0870972 88.8113098,42.315094 "/>
<radialGradient id="SVGID_1_" cx="88.8113022" cy="95.631546" r="52.3197556" gradientUnits="userSpaceOnUse">
	<stop  offset="0" style="stop-color:#FDDD10"/>
	<stop  offset="1" style="stop-color:#827300"/>
</radialGradient>
<path fill="url(#SVGID_1_)" d="M140.1150055,60.0870972L88.8111877,42.315094L37.5075989,60.0870972L47.76828,113.4029846
	l41.0429077,35.5450134l41.0428162-35.5450134L140.1150055,60.0870972L140.1150055,60.0870972z M100.8379974,89.9989319
	l25.9290009,2.6665649l-25.9290009,2.6669922L117.1100006,115.125l-22.7122192-13.3519897l-5.5865936,31.7679749
	l-5.5866699-31.7679749L60.5124817,115.125L76.783783,95.332489l-25.9284973-2.6669922l25.9284973-2.6665649L60.5124817,70.2061768
	l22.7120361,13.3517151l5.5866699-31.7679138l5.5865936,31.7679138l22.7122192-13.3517151L100.8379974,89.9989319
	L100.8379974,89.9989319z"/>
<polygon fill="none" stroke="#575454" stroke-width="0.888604" stroke-linecap="round" stroke-linejoin="round" stroke-miterlimit="10" points="
	88.8111877,39.6289978 142.6990051,58.2963867 131.9219971,114.2990112 88.8111877,151.6340027 45.7006836,114.2990112 
	34.9229736,58.2963867 88.8111877,39.6289978 "/>
<path fill="none" stroke="#000000" stroke-width="3.55442" stroke-linecap="round" stroke-linejoin="round" stroke-miterlimit="10" d="
	M88.8111877,46.4339905l47.3398132,16.3991089l-9.4680023,49.1968994l-37.8718109,32.7989807L50.939209,112.0299988
	l-9.4681091-49.1968994L88.8111877,46.4339905L88.8111877,46.4339905z M61.2016907,106.1049805l-10.2624817,5.9250183
	l8.0534668,6.9750061 M50.939209,112.0299988l-2.2574158-11.7290039 M55.1217957,58.1044006l-13.6506958,4.7286987
	l2.4416809,12.6873169 M41.4710999,62.8330994l8.1582947,4.7926025 M81.269989,138.2979736l7.5411987,6.5310059l8.9024963-7.6809998
	 M88.8111877,137.1479797v7.6809998 M127.8239899,106.1049805l-1.1409912,5.9250183l-7.8200073-4.5059814 M121.1109924,116.8560181
	l5.5720062-4.8260193 M127.8239899,59.9474182l8.3270111,2.8856812l-1.9689941,10.2344055 M126.6829987,68.2945862
	l9.4680023-5.4614868 M97.7136841,49.5136719l-8.9024963-3.0796814l-10.4776001,3.622406 M88.8111877,46.4339905v8.2064209"/>
<path fill="none" stroke="#FFFFFF" stroke-width="1.45153" stroke-linecap="round" stroke-linejoin="round" stroke-miterlimit="10" d="
	M88.8111877,46.4339905l47.3398132,16.3991089l-9.4680023,49.1968994l-37.8718109,32.7989807L50.939209,112.0299988
	l-9.4681091-49.1968994L88.8111877,46.4339905L88.8111877,46.4339905z M61.2016907,106.1049805l-10.2624817,5.9250183
	l8.0534668,6.9750061 M50.939209,112.0299988l-2.2574158-11.7290039 M55.1217957,58.1044006l-13.6506958,4.7286987
	l2.4416809,12.6873169 M41.4710999,62.8330994l8.1582947,4.7926025 M81.269989,138.2979736l7.5411987,6.5310059l8.9024963-7.6809998
	 M88.8111877,137.1479797v7.6809998 M127.8239899,106.1049805l-1.1409912,5.9250183l-7.8200073-4.5059814 M121.1109924,116.8560181
	l5.5720062-4.8260193 M127.8239899,59.9474182l8.3270111,2.8856812l-1.9689941,10.2344055 M126.6829987,68.2945862
	l9.4680023-5.4614868 M97.7136841,49.5136719l-8.9024963-3.0796814l-10.4776001,3.622406 M88.8111877,46.4339905v8.2064209"/>
<path fill="none" stroke="#000000" stroke-width="3.55442" stroke-linecap="round" stroke-linejoin="round" stroke-miterlimit="10" d="
	M94.22789,87.2223816l-5.4167023,3.1600342v7.4354858 M88.8111877,90.3824158l-5.8375854-3.3786316"/>
<path fill="none" stroke="#FFFFFF" stroke-width="1.45153" stroke-linecap="round" stroke-linejoin="round" stroke-miterlimit="10" d="
	M94.22789,87.2223816l-5.4167023,3.1600342v7.4354858 M88.8111877,90.3824158l-5.8375854-3.3786316"/>
<polygon fill="none" points="751.3896484,36.7192078 751.3896484,-0.0007324 714.6695557,-0.0007324 714.6695557,36.7192078 
	751.3896484,36.7192078 "/>
<polygon fill="none" points="751.3896484,142.7189941 751.3896484,179.4389954 714.6695557,179.4389954 714.6695557,142.7189941 
	751.3896484,142.7189941 "/>
<g>
	<path fill="#706B6B" d="M444.2253418,101.3959961c0-8.360199-6.0039673-12.7681885-10.7159729-15.2762146l-5.0159912-2.6599731
		c-3.7999878-1.9759827-6.9160156-5.1679993-6.9160156-8.6640015c0-3.8000183,2.7360229-7.0680237,7.7519836-7.0680237
		c5.4720459,0,8.7399902,5.5480042,10.0320435,9.4240112c0.68396,0.7600098,2.5839844,0.6839905,2.9639893-0.2280273
		c0-5.0919495-0.7600098-9.1959839-1.3680115-10.8679504c-0.9120178-0.1520386-1.5959778-0.3040161-2.5839844-0.6080322
		c-3.0400085-0.9119873-6.1560059-1.2160034-8.6640015-1.2160034c-11.0200195,0-17.7080078,5.9280396-17.6319885,14.5160217
		c0,7.5239868,6.0039978,12.0839844,11.4759827,14.8200073c4.5599976,2.2799988,10.335968,5.9279785,10.335968,12.084198
		c0,3.7999878-2.5839844,7.6759949-8.2079773,7.6759949c-6.4599915,0-11.5520325-6.9920044-13.071991-11.9320068
		c-0.6080017-0.8359985-2.3560181-0.7600098-2.8880005,0.2279968c0,5.1679993,0.9880066,10.6400146,2.4320068,12.3120117
		c1.5960083,0.9119873,5.928009,2.88797,12.9199829,2.88797
		C436.5493774,116.8239746,444.2253418,110.7440186,444.2253418,101.3959961L444.2253418,101.3959961z M483.6693726,91.5158081
		c3.1920166,0,3.1920166,0.0759888,3.1920166,2.2039795v10.9442139c0,7.0679932-0.3800049,7.8280029-3.8760071,8.2839661
		l-1.6719971,0.2280273c-0.6080017,0.4560242-0.6080017,2.20401,0,2.6600037
		c3.6479797-0.1520081,7.3719788-0.2279968,11.1719666-0.2279968c3.4960327,0,7.2200317,0.0759888,11.0200195,0.2279968
		c0.6079712-0.4559937,0.6079712-2.2039795,0-2.6600037l-1.8240051-0.3040161
		c-3.4960022-0.6079712-3.9519958-1.1399841-3.9519958-8.2079773V76.3918152c0-7.0680237,0.4559937-7.7520142,3.9519958-8.2840271
		l1.519989-0.2279968c0.6080322-0.4559937,0.6080322-2.2039795,0-2.6600037
		c-3.4959717,0.1520081-6.9919739,0.2279968-10.7160034,0.2279968c-3.6479797,0-7.3719788-0.0759888-11.5519714-0.2279968
		c-0.6080017,0.4560242-0.6080017,2.20401,0,2.6600037l2.052002,0.3039856
		c3.4960022,0.5320129,3.8760071,1.1400146,3.8760071,8.2080383v8.815979c0,2.20401,0,2.2799988-3.1920166,2.2799988h-15.8080139
		c-3.1159668,0-3.1919861-0.0759888-3.1919861-2.2799988v-8.815979c0-7.0680237,0.4559937-7.8280029,3.723999-8.2840271
		l1.5960083-0.2279968c0.6080017-0.4559937,0.6080017-2.2039795,0-2.6600037
		c-3.3439941,0.1520081-7.1440125,0.2279968-10.5639954,0.2279968c-3.6480103,0-7.6000061-0.0759888-11.3240051-0.2279968
		c-0.6080322,0.4560242-0.6080322,2.20401,0,2.6600037l1.8240051,0.2279968
		c3.4960022,0.4560242,3.8760071,1.2160034,3.8760071,8.2840271v28.2721863c0,7.0679932-0.3800049,7.8280029-3.8760071,8.2839661
		l-1.8240051,0.2280273c-0.6080322,0.4560242-0.6080322,2.20401,0,2.6600037
		c3.8760071-0.1520081,7.6759949-0.2279968,11.3240051-0.2279968c3.4199829,0,7.2200012,0.0759888,11.552002,0.2279968
		c0.6080017-0.4559937,0.6080017-2.2039795,0-2.6600037l-2.4320374-0.3040161
		c-3.4199829-0.4559631-3.8759766-1.1399841-3.8759766-8.2079773V93.7197876c0-2.1279907,0.0760193-2.2039795,3.1919861-2.2039795
		H483.6693726L483.6693726,91.5158081z M526.852417,71.9078064c0-2.8120117,0-2.9639893,2.5079956-2.9639893h6.0799561
		c3.723999,0,6.0040283,0.9119873,7.447998,2.3559875c0.9879761,1.0639648,2.052002,3.3439636,2.8880005,6.0039978
		c0.7600098,0.6839905,2.5079956,0.5319824,2.8120117-0.3039856c-0.3800049-5.0920105-0.9119873-10.5640259-0.9879761-11.7800293
		c-0.9880371,0.1520081-5.3200073,0.2279968-10.184021,0.2279968h-16.1119995
		c-3.6480103,0-7.3720093-0.0759888-10.9440002-0.2279968c-0.7600098,0.4560242-0.8360291,2.20401-0.1520081,2.6600037
		l1.8999634,0.3800354c3.4200439,0.6839905,3.8760376,1.1399841,3.8760376,8.0559998v28.348175
		c0,6.9919739-0.4559937,7.447998-3.8760376,7.980011l-3.5719604,0.5319824c-0.6080017,0.3800049-0.6080017,2.20401,0,2.6600037
		c5.7000122-0.1520081,9.4240112-0.2279968,13.0720215-0.2279968h9.8799438c6.2320557,0,13.5280762,0.0759888,17.5560303,0.2279968
		c1.0640259-2.052002,2.8880005-8.2080078,3.1920166-12.1600037c-0.3040161-0.9119873-2.2040405-1.2160034-2.8120117-0.3799744
		c-4.1799927,8.5879822-6.7639771,8.815979-13.3760376,8.815979c-5.5479736,0-6.9919434-0.6080017-7.9799194-1.9759827
		c-0.9120483-1.2919922-1.2160034-3.7240295-1.2160034-7.2200317v-9.0441895c0-2.2799988,0.0759888-2.3559875,2.1279907-2.3559875
		h5.2439575c3.9520264,0,4.8640137,0.6079712,5.6240234,4.256012l0.3799438,1.8999939
		c0.5320435,0.6839905,2.4320679,0.6079712,2.8120728-0.0760193c-0.1520386-2.4319763-0.2280273-5.1679993-0.2280273-8.0559998
		s0.0759888-5.6239929,0.2280273-8.0559692c-0.3800049-0.6840515-2.2800293-0.6840515-2.8120728-0.0760498l-0.3799438,1.9000244
		c-0.7600098,3.6479797-1.6719971,4.1799927-5.6240234,4.1799927h-5.2439575c-2.052002,0-2.1279907-0.1519775-2.1279907-2.2799988
		V71.9078064L526.852417,71.9078064z M572.2533569,76.5437927c0-7.1439819,0.4559937-7.6759949,3.9520874-8.2839661
		l2.1279297-0.3800354c0.6080322-0.4559937,0.6080322-2.2039795,0-2.6600037
		c-4.1040039,0.1520081-7.9039917,0.2279968-11.4760132,0.2279968c-3.6480103,0-7.447998-0.0759888-11.5519409-0.2279968
		c-0.6080322,0.4560242-0.6080322,2.20401,0,2.6600037l2.1279907,0.3800354
		c3.4959717,0.6079712,3.9519653,1.1399841,3.9519653,8.2839661v27.9682007c0,7.1439819-0.4559937,7.6759949-3.9519653,8.2839966
		l-2.1279907,0.3800049c-0.6080322,0.4560242-0.6080322,2.20401,0,2.6600037
		c4.1039429-0.1520081,7.9039307-0.2279968,11.5519409-0.2279968c3.5720215,0,7.2960205,0.0759888,11.4000244,0.2279968
		c0.6080322-0.4559937,0.684021-2.2039795,0.0759888-2.6600037l-2.1279297-0.3800049
		c-3.4960938-0.6080017-3.9520874-1.1400146-3.9520874-8.2839966V76.5437927L572.2533569,76.5437927z M600.9804077,76.3918152
		c0-7.0680237,0.4559937-7.6760254,3.8759766-8.2080383l1.9760742-0.3039856c0.6079102-0.4559937,0.6079102-2.2039795,0-2.6600037
		c-3.8001709,0.1520081-7.6000977,0.2279968-11.2481079,0.2279968c-3.6478882,0-7.4480591-0.0759888-11.3999023-0.2279968
		c-0.9121094,0.4560242-0.9121094,2.20401-0.1520996,2.6600037l2.2040405,0.3039856
		c3.4199829,0.4560242,3.8759766,1.1400146,3.8759766,8.2080383v28.2721863c0,7.0679932-0.4559937,7.6760254-3.8759766,8.1319885
		l-2.8880005,0.3800049c-0.6080322,0.4560242-0.4559937,2.20401,0.2280273,2.6600037
		c4.7119751-0.1520081,8.5119629-0.2279968,12.0079346-0.2279968h10.184021c6.2320557,0,13.5280151,0.0759888,17.5560303,0.2279968
		c1.0639648-2.052002,2.8880005-8.3599854,3.2680054-12.3120117c-0.5320435-0.9119873-2.2799683-1.2159729-2.8880005-0.4559937
		c-4.4840088,8.8160095-6.6119995,9.0440063-13.5280762,9.0440063c-5.5479736,0-6.9159546-0.6080017-7.9039307-1.8999939
		c-0.9880371-1.2160034-1.2919922-3.6479797-1.2919922-7.2200012V76.3918152L600.9804077,76.3918152z M635.385376,104.6640015
		c0,6.9919739-0.4559937,7.6000061-3.8759766,8.1319885l-2.3560181,0.3800049c-0.6080322,0.3800049-0.6080322,2.20401,0,2.6600037
		c4.3319702-0.1520081,8.2080078-0.2279968,11.8560181-0.2279968c2.7359619,0,6.5359497,0.4559937,10.1079712,0.4559937
		c7.8280029,0,14.0599976-0.9880066,19.2280273-3.571991c8.7399902-4.3320007,13.6040039-12.5401917,13.6040039-22.7242126
		c0-9.5-5.4720459-18.4679871-15.4281006-22.0400085c-5.2438965-1.8999939-11.4759521-2.5079956-17.7079468-2.5079956
		c-8.0559692,0-13.9839478,0.3040161-20.367981,0.6839905c-0.9119873,0.0760193-0.9119873,2.2799988-0.1519775,2.6600342
		l1.4439697,0.1519775c3.4960327,0.3800049,3.6480103,1.8240356,3.6480103,9.0440063V104.6640015L635.385376,104.6640015z
		 M646.2533569,74.1118164c0-2.3560181,0.0760498-3.8000183,0.5320435-4.40802s1.8999634-0.9880066,3.9519653-0.9880066
		c13.7559814,0,20.9760742,8.1319885,20.9760742,21.8119812c0,10.3362122-4.4841309,22.0402222-17.6320801,22.0402222
		c-2.7359619,0-4.9400635-0.6839905-6.3079834-2.20401c-1.367981-1.5959778-1.5200195-4.3320007-1.5200195-8.5119934V74.1118164
		L646.2533569,74.1118164z M696.5025635,75.783783c0,2.2799988-0.1519775,3.3439941-1.368042,3.5720215l-1.2159424,0.2279968
		c-0.2280273,0.3800049-0.2280273,1.3680115,0.0759888,1.519989c1.367981-0.0759888,2.5079956-0.0759888,4.40802-0.0759888
		c2.052002,0,3.7999268,0,5.4719849,0.0759888c0.3040161-0.0759888,0.3799438-1.2919922,0.0759888-1.519989l-1.2159424-0.2279968
		c-1.2919922-0.2280273-1.368042-1.0639954-1.368042-3.3439941v-7.6000061c0-0.8359985,0-0.9120178,0.6079712-0.9120178h0.9879761
		c1.9760132,0,2.5839844,0.9880066,2.9641113,2.8120117c0.1518555,0.5320129,1.2919922,0.5320129,1.4438477-0.1519775
		c-0.0759277-1.7480164,0.0760498-4.2560425,0.3800659-5.6240234c-0.1519775-0.3800049-0.9120483-0.3800049-1.1399536,0
		c-0.9120483,0.9119873-1.2160645,0.9119873-2.2800293,0.9119873h-9.6519775c-1.5200195,0-1.6719971-0.0759888-2.355957-0.9119873
		c-0.1520996-0.3800049-0.9880981-0.3800049-1.1401367,0c-0.3039551,1.0639954-0.6079102,2.5839844-1.0639648,5.3959961
		c0.0760498,0.6080322,1.2920532,0.7600098,1.5200195,0.2280273c0.684082-1.8999939,1.7479858-2.6600342,3.4199219-2.6600342
		h0.6080322c0.8360596,0,0.8360596,0.0760193,0.8360596,0.9120178V75.783783L696.5025635,75.783783z M727.2825928,77.4558105
		c0,1.2160034,0,1.5959778-0.9120483,1.8240051l-1.1399536,0.3039856c-0.3040771,0.1520081-0.2280273,1.3680115,0,1.519989
		c1.1399536-0.0759888,2.2039795-0.0759888,4.1799316-0.0759888c2.5080566,0,3.5720215,0,4.6359863,0.0759888
		c0.4560547-0.1519775,0.4560547-1.367981,0-1.519989l-1.1399536-0.3039856
		c-0.7600098-0.2280273-0.9120483-0.4560242-1.0639038-2.20401c-0.1520996-2.1280212-0.2280884-6.0800171-0.2280884-8.2080078
		c0-1.1400146,0.1519775-1.5959778,1.4439697-1.8240051l0.7600708-0.1520081
		c0.3799438-0.1519775,0.3799438-1.4440002-0.0760498-1.519989c-0.9119873,0.0759888-2.7360229,0.0759888-3.7999268,0.0759888
		c-0.6081543,0-1.2919922,0-3.6480713-0.0759888c-0.5319824,1.8240051-1.0639648,3.0400085-1.7479858,4.4840088
		l-1.2919922,2.8119812c-0.4559937,0.7600098-0.7600098,0.9120178-0.9120483,0.9120178
		c-0.2279053,0-0.5319824-0.3800049-0.9119873-1.1400146l-1.4439697-2.8119812
		c-0.7600098-1.4440308-1.7479248-3.4200134-1.7479248-4.256012c-2.736084,0.0759888-3.7241211,0.0759888-5.0161133,0.0759888
		c-0.9119873,0-1.7479858-0.0759888-3.039978-0.0759888c-0.6079712,0.0759888-0.684021,1.2920227-0.0759888,1.519989
		l0.6079102,0.1520081c1.2160645,0.1520081,1.8240967,0.6839905,1.8240967,2.1279907
		c0,2.3560181-0.3800049,5.7000122-0.684082,8.5120239c-0.0759277,1.0639954-0.4559326,1.5960083-1.8999023,1.8239746
		l-0.4560547,0.0760193c-0.1519775,0.3040161-0.1519775,1.3680115,0.0760498,1.519989
		c0.8359985-0.0759888,2.2799072-0.0759888,3.5718994-0.0759888c1.7480469,0,2.8120728,0,3.5720825,0.0759888
		c0.1519775-0.3800049,0.1519775-1.2919922,0-1.519989l-0.684021-0.0760193
		c-1.2160034-0.1519775-1.4439697-0.5319824-1.5200195-2.2039795c0-1.1399841-0.0760498-3.2680054,0-4.6360168
		c0.1520386-2.7359924,0.2280273-3.7999878,0.3040161-3.9519958c0.1520386,0.0759888,0.9879761,1.8240356,1.7479858,3.571991
		l1.7480469,4.1800232c0.4559937,1.1400146,1.4439697,3.3439941,1.7479858,4.5599976
		c0.684021,0.4560242,1.4440308,0.2279968,1.9000244,0.0759888c0.5319824-1.6719971,1.0639038-2.8119812,2.1279907-5.3200073
		l1.4439697-3.3439941c0.68396-1.5959778,1.368042-3.2680054,1.4440308-3.2680054
		c0.1519775,0.0760193,0.1519775,0.3800354,0.1519775,0.8359985L727.2825928,77.4558105L727.2825928,77.4558105z"/>
	<path fill="#706B6B" d="M444.2253418,101.3959961c0-8.360199-6.0039673-12.7681885-10.7159729-15.2762146l-5.0159912-2.6599731
		c-3.7999878-1.9759827-6.9160156-5.1679993-6.9160156-8.6640015c0-3.8000183,2.7360229-7.0680237,7.7519836-7.0680237
		c5.4720459,0,8.7399902,5.5480042,10.0320435,9.4240112c0.68396,0.7600098,2.5839844,0.6839905,2.9639893-0.2280273
		c0-5.0919495-0.7600098-9.1959839-1.3680115-10.8679504c-0.9120178-0.1520386-1.5959778-0.3040161-2.5839844-0.6080322
		c-3.0400085-0.9119873-6.1560059-1.2160034-8.6640015-1.2160034c-11.0200195,0-17.7080078,5.9280396-17.6319885,14.5160217
		c0,7.5239868,6.0039978,12.0839844,11.4759827,14.8200073c4.5599976,2.2799988,10.335968,5.9279785,10.335968,12.084198
		c0,3.7999878-2.5839844,7.6759949-8.2079773,7.6759949c-6.4599915,0-11.5520325-6.9920044-13.071991-11.9320068
		c-0.6080017-0.8359985-2.3560181-0.7600098-2.8880005,0.2279968c0,5.1679993,0.9880066,10.6400146,2.4320068,12.3120117
		c1.5960083,0.9119873,5.928009,2.88797,12.9199829,2.88797
		C436.5493774,116.8239746,444.2253418,110.7440186,444.2253418,101.3959961L444.2253418,101.3959961z M483.6693726,91.5158081
		c3.1920166,0,3.1920166,0.0759888,3.1920166,2.2039795v10.9442139c0,7.0679932-0.3800049,7.8280029-3.8760071,8.2839661
		l-1.6719971,0.2280273c-0.6080017,0.4560242-0.6080017,2.20401,0,2.6600037
		c3.6479797-0.1520081,7.3719788-0.2279968,11.1719666-0.2279968c3.4960327,0,7.2200317,0.0759888,11.0200195,0.2279968
		c0.6079712-0.4559937,0.6079712-2.2039795,0-2.6600037l-1.8240051-0.3040161
		c-3.4960022-0.6079712-3.9519958-1.1399841-3.9519958-8.2079773V76.3918152c0-7.0680237,0.4559937-7.7520142,3.9519958-8.2840271
		l1.519989-0.2279968c0.6080322-0.4559937,0.6080322-2.2039795,0-2.6600037
		c-3.4959717,0.1520081-6.9919739,0.2279968-10.7160034,0.2279968c-3.6479797,0-7.3719788-0.0759888-11.5519714-0.2279968
		c-0.6080017,0.4560242-0.6080017,2.20401,0,2.6600037l2.052002,0.3039856
		c3.4960022,0.5320129,3.8760071,1.1400146,3.8760071,8.2080383v8.815979c0,2.20401,0,2.2799988-3.1920166,2.2799988h-15.8080139
		c-3.1159668,0-3.1919861-0.0759888-3.1919861-2.2799988v-8.815979c0-7.0680237,0.4559937-7.8280029,3.723999-8.2840271
		l1.5960083-0.2279968c0.6080017-0.4559937,0.6080017-2.2039795,0-2.6600037
		c-3.3439941,0.1520081-7.1440125,0.2279968-10.5639954,0.2279968c-3.6480103,0-7.6000061-0.0759888-11.3240051-0.2279968
		c-0.6080322,0.4560242-0.6080322,2.20401,0,2.6600037l1.8240051,0.2279968
		c3.4960022,0.4560242,3.8760071,1.2160034,3.8760071,8.2840271v28.2721863c0,7.0679932-0.3800049,7.8280029-3.8760071,8.2839661
		l-1.8240051,0.2280273c-0.6080322,0.4560242-0.6080322,2.20401,0,2.6600037
		c3.8760071-0.1520081,7.6759949-0.2279968,11.3240051-0.2279968c3.4199829,0,7.2200012,0.0759888,11.552002,0.2279968
		c0.6080017-0.4559937,0.6080017-2.2039795,0-2.6600037l-2.4320374-0.3040161
		c-3.4199829-0.4559631-3.8759766-1.1399841-3.8759766-8.2079773V93.7197876c0-2.1279907,0.0760193-2.2039795,3.1919861-2.2039795
		H483.6693726L483.6693726,91.5158081z M526.852417,71.9078064c0-2.8120117,0-2.9639893,2.5079956-2.9639893h6.0799561
		c3.723999,0,6.0040283,0.9119873,7.447998,2.3559875c0.9879761,1.0639648,2.052002,3.3439636,2.8880005,6.0039978
		c0.7600098,0.6839905,2.5079956,0.5319824,2.8120117-0.3039856c-0.3800049-5.0920105-0.9119873-10.5640259-0.9879761-11.7800293
		c-0.9880371,0.1520081-5.3200073,0.2279968-10.184021,0.2279968h-16.1119995
		c-3.6480103,0-7.3720093-0.0759888-10.9440002-0.2279968c-0.7600098,0.4560242-0.8360291,2.20401-0.1520081,2.6600037
		l1.8999634,0.3800354c3.4200439,0.6839905,3.8760376,1.1399841,3.8760376,8.0559998v28.348175
		c0,6.9919739-0.4559937,7.447998-3.8760376,7.980011l-3.5719604,0.5319824c-0.6080017,0.3800049-0.6080017,2.20401,0,2.6600037
		c5.7000122-0.1520081,9.4240112-0.2279968,13.0720215-0.2279968h9.8799438c6.2320557,0,13.5280762,0.0759888,17.5560303,0.2279968
		c1.0640259-2.052002,2.8880005-8.2080078,3.1920166-12.1600037c-0.3040161-0.9119873-2.2040405-1.2160034-2.8120117-0.3799744
		c-4.1799927,8.5879822-6.7639771,8.815979-13.3760376,8.815979c-5.5479736,0-6.9919434-0.6080017-7.9799194-1.9759827
		c-0.9120483-1.2919922-1.2160034-3.7240295-1.2160034-7.2200317v-9.0441895c0-2.2799988,0.0759888-2.3559875,2.1279907-2.3559875
		h5.2439575c3.9520264,0,4.8640137,0.6079712,5.6240234,4.256012l0.3799438,1.8999939
		c0.5320435,0.6839905,2.4320679,0.6079712,2.8120728-0.0760193c-0.1520386-2.4319763-0.2280273-5.1679993-0.2280273-8.0559998
		s0.0759888-5.6239929,0.2280273-8.0559692c-0.3800049-0.6840515-2.2800293-0.6840515-2.8120728-0.0760498l-0.3799438,1.9000244
		c-0.7600098,3.6479797-1.6719971,4.1799927-5.6240234,4.1799927h-5.2439575c-2.052002,0-2.1279907-0.1519775-2.1279907-2.2799988
		V71.9078064L526.852417,71.9078064z M572.2533569,76.5437927c0-7.1439819,0.4559937-7.6759949,3.9520874-8.2839661
		l2.1279297-0.3800354c0.6080322-0.4559937,0.6080322-2.2039795,0-2.6600037
		c-4.1040039,0.1520081-7.9039917,0.2279968-11.4760132,0.2279968c-3.6480103,0-7.447998-0.0759888-11.5519409-0.2279968
		c-0.6080322,0.4560242-0.6080322,2.20401,0,2.6600037l2.1279907,0.3800354
		c3.4959717,0.6079712,3.9519653,1.1399841,3.9519653,8.2839661v27.9682007c0,7.1439819-0.4559937,7.6759949-3.9519653,8.2839966
		l-2.1279907,0.3800049c-0.6080322,0.4560242-0.6080322,2.20401,0,2.6600037
		c4.1039429-0.1520081,7.9039307-0.2279968,11.5519409-0.2279968c3.5720215,0,7.2960205,0.0759888,11.4000244,0.2279968
		c0.6080322-0.4559937,0.684021-2.2039795,0.0759888-2.6600037l-2.1279297-0.3800049
		c-3.4960938-0.6080017-3.9520874-1.1400146-3.9520874-8.2839966V76.5437927L572.2533569,76.5437927z M600.9804077,76.3918152
		c0-7.0680237,0.4559937-7.6760254,3.8759766-8.2080383l1.9760742-0.3039856c0.6079102-0.4559937,0.6079102-2.2039795,0-2.6600037
		c-3.8001709,0.1520081-7.6000977,0.2279968-11.2481079,0.2279968c-3.6478882,0-7.4480591-0.0759888-11.3999023-0.2279968
		c-0.9121094,0.4560242-0.9121094,2.20401-0.1520996,2.6600037l2.2040405,0.3039856
		c3.4199829,0.4560242,3.8759766,1.1400146,3.8759766,8.2080383v28.2721863c0,7.0679932-0.4559937,7.6760254-3.8759766,8.1319885
		l-2.8880005,0.3800049c-0.6080322,0.4560242-0.4559937,2.20401,0.2280273,2.6600037
		c4.7119751-0.1520081,8.5119629-0.2279968,12.0079346-0.2279968h10.184021c6.2320557,0,13.5280151,0.0759888,17.5560303,0.2279968
		c1.0639648-2.052002,2.8880005-8.3599854,3.2680054-12.3120117c-0.5320435-0.9119873-2.2799683-1.2159729-2.8880005-0.4559937
		c-4.4840088,8.8160095-6.6119995,9.0440063-13.5280762,9.0440063c-5.5479736,0-6.9159546-0.6080017-7.9039307-1.8999939
		c-0.9880371-1.2160034-1.2919922-3.6479797-1.2919922-7.2200012V76.3918152L600.9804077,76.3918152z M635.385376,104.6640015
		c0,6.9919739-0.4559937,7.6000061-3.8759766,8.1319885l-2.3560181,0.3800049c-0.6080322,0.3800049-0.6080322,2.20401,0,2.6600037
		c4.3319702-0.1520081,8.2080078-0.2279968,11.8560181-0.2279968c2.7359619,0,6.5359497,0.4559937,10.1079712,0.4559937
		c7.8280029,0,14.0599976-0.9880066,19.2280273-3.571991c8.7399902-4.3320007,13.6040039-12.5401917,13.6040039-22.7242126
		c0-9.5-5.4720459-18.4679871-15.4281006-22.0400085c-5.2438965-1.8999939-11.4759521-2.5079956-17.7079468-2.5079956
		c-8.0559692,0-13.9839478,0.3040161-20.367981,0.6839905c-0.9119873,0.0760193-0.9119873,2.2799988-0.1519775,2.6600342
		l1.4439697,0.1519775c3.4960327,0.3800049,3.6480103,1.8240356,3.6480103,9.0440063V104.6640015L635.385376,104.6640015z
		 M646.2533569,74.1118164c0-2.3560181,0.0760498-3.8000183,0.5320435-4.40802s1.8999634-0.9880066,3.9519653-0.9880066
		c13.7559814,0,20.9760742,8.1319885,20.9760742,21.8119812c0,10.3362122-4.4841309,22.0402222-17.6320801,22.0402222
		c-2.7359619,0-4.9400635-0.6839905-6.3079834-2.20401c-1.367981-1.5959778-1.5200195-4.3320007-1.5200195-8.5119934V74.1118164
		L646.2533569,74.1118164z M696.5025635,75.783783c0,2.2799988-0.1519775,3.3439941-1.368042,3.5720215l-1.2159424,0.2279968
		c-0.2280273,0.3800049-0.2280273,1.3680115,0.0759888,1.519989c1.367981-0.0759888,2.5079956-0.0759888,4.40802-0.0759888
		c2.052002,0,3.7999268,0,5.4719849,0.0759888c0.3040161-0.0759888,0.3799438-1.2919922,0.0759888-1.519989l-1.2159424-0.2279968
		c-1.2919922-0.2280273-1.368042-1.0639954-1.368042-3.3439941v-7.6000061c0-0.8359985,0-0.9120178,0.6079712-0.9120178h0.9879761
		c1.9760132,0,2.5839844,0.9880066,2.9641113,2.8120117c0.1518555,0.5320129,1.2919922,0.5320129,1.4438477-0.1519775
		c-0.0759277-1.7480164,0.0760498-4.2560425,0.3800659-5.6240234c-0.1519775-0.3800049-0.9120483-0.3800049-1.1399536,0
		c-0.9120483,0.9119873-1.2160645,0.9119873-2.2800293,0.9119873h-9.6519775c-1.5200195,0-1.6719971-0.0759888-2.355957-0.9119873
		c-0.1520996-0.3800049-0.9880981-0.3800049-1.1401367,0c-0.3039551,1.0639954-0.6079102,2.5839844-1.0639648,5.3959961
		c0.0760498,0.6080322,1.2920532,0.7600098,1.5200195,0.2280273c0.684082-1.8999939,1.7479858-2.6600342,3.4199219-2.6600342
		h0.6080322c0.8360596,0,0.8360596,0.0760193,0.8360596,0.9120178V75.783783L696.5025635,75.783783z M727.2825928,77.4558105
		c0,1.2160034,0,1.5959778-0.9120483,1.8240051l-1.1399536,0.3039856c-0.3040771,0.1520081-0.2280273,1.3680115,0,1.519989
		c1.1399536-0.0759888,2.2039795-0.0759888,4.1799316-0.0759888c2.5080566,0,3.5720215,0,4.6359863,0.0759888
		c0.4560547-0.1519775,0.4560547-1.367981,0-1.519989l-1.1399536-0.3039856
		c-0.7600098-0.2280273-0.9120483-0.4560242-1.0639038-2.20401c-0.1520996-2.1280212-0.2280884-6.0800171-0.2280884-8.2080078
		c0-1.1400146,0.1519775-1.5959778,1.4439697-1.8240051l0.7600708-0.1520081
		c0.3799438-0.1519775,0.3799438-1.4440002-0.0760498-1.519989c-0.9119873,0.0759888-2.7360229,0.0759888-3.7999268,0.0759888
		c-0.6081543,0-1.2919922,0-3.6480713-0.0759888c-0.5319824,1.8240051-1.0639648,3.0400085-1.7479858,4.4840088
		l-1.2919922,2.8119812c-0.4559937,0.7600098-0.7600098,0.9120178-0.9120483,0.9120178
		c-0.2279053,0-0.5319824-0.3800049-0.9119873-1.1400146l-1.4439697-2.8119812
		c-0.7600098-1.4440308-1.7479248-3.4200134-1.7479248-4.256012c-2.736084,0.0759888-3.7241211,0.0759888-5.0161133,0.0759888
		c-0.9119873,0-1.7479858-0.0759888-3.039978-0.0759888c-0.6079712,0.0759888-0.684021,1.2920227-0.0759888,1.519989
		l0.6079102,0.1520081c1.2160645,0.1520081,1.8240967,0.6839905,1.8240967,2.1279907
		c0,2.3560181-0.3800049,5.7000122-0.684082,8.5120239c-0.0759277,1.0639954-0.4559326,1.5960083-1.8999023,1.8239746
		l-0.4560547,0.0760193c-0.1519775,0.3040161-0.1519775,1.3680115,0.0760498,1.519989
		c0.8359985-0.0759888,2.2799072-0.0759888,3.5718994-0.0759888c1.7480469,0,2.8120728,0,3.5720825,0.0759888
		c0.1519775-0.3800049,0.1519775-1.2919922,0-1.519989l-0.684021-0.0760193
		c-1.2160034-0.1519775-1.4439697-0.5319824-1.5200195-2.2039795c0-1.1399841-0.0760498-3.2680054,0-4.6360168
		c0.1520386-2.7359924,0.2280273-3.7999878,0.3040161-3.9519958c0.1520386,0.0759888,0.9879761,1.8240356,1.7479858,3.571991
		l1.7480469,4.1800232c0.4559937,1.1400146,1.4439697,3.3439941,1.7479858,4.5599976
		c0.684021,0.4560242,1.4440308,0.2279968,1.9000244,0.0759888c0.5319824-1.6719971,1.0639038-2.8119812,2.1279907-5.3200073
		l1.4439697-3.3439941c0.68396-1.5959778,1.368042-3.2680054,1.4440308-3.2680054
		c0.1519775,0.0760193,0.1519775,0.3800354,0.1519775,0.8359985L727.2825928,77.4558105L727.2825928,77.4558105z"/>
	<g>
		<linearGradient id="SVGID_2_" gradientUnits="userSpaceOnUse" x1="354.701416" y1="116.8237839" x2="354.701416" y2="64.231781">
			<stop  offset="0" style="stop-color:#131D20"/>
			<stop  offset="0.0237569" style="stop-color:#131D20"/>
			<stop  offset="0.1677377" style="stop-color:#252D2F"/>
			<stop  offset="0.7414711" style="stop-color:#535354"/>
			<stop  offset="1" style="stop-color:#645F5F"/>
		</linearGradient>
		<path fill="url(#SVGID_2_)" d="M322.9374084,87.4117813V72.591774c0-3.647995,0.1519775-3.8759918,3.2680054-3.8759918
			c5.9279785,0,9.9559937,4.4079971,9.9559937,11.2480011c0,4.4840012-1.4440002,6.9160004-2.7359924,8.2080002
			c-1.4440002,1.4440002-3.0400085,2.1279984-5.776001,2.1279984
			C323.1654053,90.2997818,322.9374084,90.0717773,322.9374084,87.4117813 M307.2814026,65.9037781
			c-0.9119873,0.3800049-0.9119873,2.2799988-0.1519775,2.6600037l2.0519714,0.3039932
			c3.1920166,0.4560089,3.3440247,1.2920074,3.3440247,8.8920135v26.9039917c0,6.9920044-0.4560242,7.5240021-3.8760071,8.1320038
			l-2.052002,0.3799973c-0.6080017,0.3799973-0.6080017,2.2040024,0,2.659996
			c3.9519958-0.1519928,7.29599-0.2279968,11.0959778-0.2279968c3.6480103,0,7.1440125,0.076004,11.1719971,0.2279968
			c0.5320129-0.4559937,0.5320129-2.2799988,0-2.659996l-2.052002-0.3799973
			c-3.4199829-0.6080017-3.8759766-1.1399994-3.8759766-8.1320038v-9.3479996c0-1.5199966,0.1519775-1.6720047,2.8120117-1.6720047
			c1.8999939,0,3.1159668,0.6080017,4.0279846,2.6600037c1.7480164,4.0279999,3.4960022,7.7519989,5.928009,11.7799988
			c3.3439941,5.4720001,7.7519836,7.9800034,14.7440186,7.9800034c2.3559875,0,4.7879639-0.1520004,6.0039673-0.6839981
			c0.3800049-0.4560013,0.3800049-1.5960007-0.3039856-1.9759979c-1.1400146-0.076004-3.1159973-0.5320053-5.0920105-2.128006
			c-3.6479797-3.1159973-6.7639771-8.8159943-11.7799988-19c-0.3800049-0.8359985-0.3800049-1.2919922,0.3800049-1.6719971
			c3.4960022-1.7480011,8.0559998-4.6360016,8.0559998-11.4000092c0-4.8639908-2.2800293-8.6639862-6.6879883-11.2479935
			c-2.8880005-1.7479935-8.4360352-2.7360001-14.8959961-2.7360001
			C318.9093933,65.21978,312.9814148,65.5237808,307.2814026,65.9037781 M364.0454102,70.9957809
			c-5.2440186,4.3320007-9.1973572,10.8679962-9.1973572,20.1399994c0,9.423996,4.181366,15.7320023,9.6533813,19.9120026
			c5.3946533,4.0279999,12.9959717,5.776001,20.4426575,5.776001c5.9279785,0,11.3239746-1.6720047,15.4279785-2.8120041
			c1.0653381-1.7480011,2.3559875-6.3079987,2.8893127-11.9319992c-0.4559631-0.9120026-2.2799683-1.1399994-2.8893127-0.5319977
			c-2.052002,5.1679993-6.3079834,11.7799988-15.5039978,11.7799988c-9.1199951,0-17.8586731-8.1320038-17.8586731-23.2560043
			s9.0426941-22.3439941,17.4786682-22.3439941c7.3733521,0,12.2360229,3.7999954,14.2880249,10.8680038
			c0.5319824,0.6839981,2.5839844,0.3799896,2.8893127-0.5320053c-0.6839905-4.4079971-0.9119873-10.487999-0.9119873-11.8559952
			c-2.2800293-0.1520081-7.905365-1.9760056-15.6573486-1.9760056
			C377.1920471,64.231781,369.4400635,66.5117798,364.0454102,70.9957809"/>
		<linearGradient id="SVGID_3_" gradientUnits="userSpaceOnUse" x1="217.556076" y1="116.8237839" x2="217.556076" y2="64.231781">
			<stop  offset="0" style="stop-color:#575454"/>
			<stop  offset="0.0043636" style="stop-color:#575454"/>
			<stop  offset="0.3002784" style="stop-color:#656060"/>
			<stop  offset="0.6194659" style="stop-color:#6E6868"/>
			<stop  offset="0.976243" style="stop-color:#706B6B"/>
			<stop  offset="1" style="stop-color:#706B6B"/>
		</linearGradient>
		<path fill="url(#SVGID_3_)" d="M216.5920868,65.9037781c-0.8373413,0.5320053-0.8373413,2.2040024-0.1533356,2.5840073
			l2.3559875,0.3039932c3.1920013,0.3800049,3.3439941,1.2919998,3.3439941,8.9680099v26.9039917
			c0,7.0680008-0.4559937,7.5999985-3.8759918,8.2080002l-2.1266632,0.3799973
			c-0.837326,0.3800049-0.6840057,2.128006,0.1506653,2.5839996c4.1040039-0.1519928,7.7519989-0.2279968,11.4000092-0.2279968
			c3.647995,0,7.3733368,0.076004,11.6279907,0.2279968c0.8359985-0.4559937,0.8359985-2.2039948,0-2.5839996l-2.4306641-0.3799973
			c-3.4199982-0.5319977-3.8759918-1.1399994-3.8759918-8.2080002V72.591774c0-3.0399933,0.15065-3.8759918,2.9639893-3.8759918
			c6.8399963,0,9.7266541,6.0799942,9.7266541,11.7039948c0,5.6240082-1.2906494,10.1080017-7.5999908,12.0839996
			c-0.5306549,0.4560089-0.3800049,1.6720047,0.2280121,2.052002c0.8373108,0.076004,1.5213165,0.076004,2.4333191,0.076004
			c4.0266724,0,16.5666809-1.8240051,16.5666809-14.288002c0-7.3720016-4.6360168-11.4000015-9.2706757-13.1480026
			c-3.1920013-1.2160034-7.4493408-1.9759979-13.9080048-1.9759979
			C227.5360718,65.21978,221.608078,65.5237808,216.5920868,65.9037781 M180.1414032,78.7477798
			c0,7.5240021,6.0053253,12.0839996,11.4773407,14.8199997c4.5599976,2.2800064,10.334671,5.9280014,10.334671,12.0839996
			c0,3.8000031-2.5826569,7.6760025-8.2080078,7.6760025c-6.4586639,0-11.552002-6.9920044-13.0706635-11.9319992
			c-0.6093292-0.8360062-2.3573303-0.7600021-2.8893433,0.2279968c0,5.1679993,0.9880066,10.6399994,2.4333344,12.3120041
			c1.5960083,0.9120026,5.9279938,2.8880005,12.9186859,2.8880005c11.4773254,0,19.1519928-6.0800018,19.1519928-15.4280014
			c0-8.3600006-6.0040131-12.7680054-10.7160034-15.276001l-5.0159912-2.6600037
			c-3.7986603-1.9759903-6.9160156-5.1679993-6.9160156-8.6640015c0-3.7999954,2.7360077-7.0679932,7.7520142-7.0679932
			c5.4719849,0,8.7399902,5.5479965,10.0319977,9.4240036c0.6839905,0.7599945,2.5839844,0.6839981,2.9639893-0.2280121
			c0-5.0919952-0.758667-9.1959915-1.3679962-10.8679962c-0.9120026-0.1520004-1.595993-0.3040009-2.5826569-0.6079941
			c-3.0413513-0.9120102-6.1560059-1.2160034-8.6640015-1.2160034
			C186.7534027,64.231781,180.0654144,70.1597824,180.1414032,78.7477798"/>
		
			<linearGradient id="SVGID_4_" gradientUnits="userSpaceOnUse" x1="277.6291199" y1="115.8357773" x2="277.6291199" y2="64.231781">
			<stop  offset="0" style="stop-color:#000000"/>
			<stop  offset="0.102136" style="stop-color:#000000"/>
			<stop  offset="0.2697589" style="stop-color:#0E171A"/>
			<stop  offset="0.4813125" style="stop-color:#1F272A"/>
			<stop  offset="0.7084355" style="stop-color:#283033"/>
			<stop  offset="0.976243" style="stop-color:#2B3336"/>
			<stop  offset="1" style="stop-color:#2B3336"/>
		</linearGradient>
		<path fill="url(#SVGID_4_)" d="M269.3120728,92.1237793l1.8999939-5.7000046
			c1.1400146-3.4959869,2.6600037-7.5999908,3.2680054-9.3479919c0.6839905,1.5960007,2.052002,5.6999969,3.1159973,8.9680023
			l1.9759827,6.1559982c0.6093445,1.9759979,0.2280273,2.2040024-1.519989,2.2040024h-7.1439819
			C269.0080872,94.4037857,268.6280823,94.1757812,269.3120728,92.1237793 M273.1880798,68.7917786
			c0.2279968,2.2040024-1.0640259,4.864006-2.8120117,9.6520004l-6.9160156,18.5440063
			c-2.0519714,5.4720001-3.4959717,9.1199951-4.7879639,12.159996c-1.2920227,2.9639969-2.8120117,3.5719986-4.6360168,3.7999954
			l-2.052002,0.2280045c-0.5319977,0.6080017-0.6079865,2.2040024,0.2280121,2.659996
			c3.4959869,0,5.2440033-0.2279968,7.8279877-0.2279968c3.1920166,0.076004,5.928009,0.076004,8.5880127,0.2279968
			c0.7600098-0.3799973,0.6079712-2.1279984,0.1533203-2.659996l-2.281311-0.3799973
			c-2.1280212-0.3800049-3.1160278-0.8359985-3.1160278-1.2920074c0-0.6079941,0.0759888-1.2159958,0.5320129-2.7359924
			l2.9639893-8.8160019c0.4560242-1.4440002,0.6839905-1.5199966,2.5080261-1.5199966h9.0439758
			c2.6600037,0,3.2680054,0.1519928,3.6480103,1.3679962l2.052002,6.5359955
			c0.9119873,2.8120041,1.4440002,4.6360016,1.4440002,5.1679993c0,0.4560089-0.3040161,0.9880066-2.052002,1.2920074
			l-2.4320068,0.3799973c-0.8359985,0.6080017-0.6839905,2.2040024,0.1520081,2.659996
			c3.497345-0.1519928,6.4599915-0.2279968,10.2599792-0.2279968c3.9520264,0,8.0560303,0.076004,11.7053528,0.2279968
			c0.6839905-0.4559937,0.5306702-2.2799988,0.0746765-2.659996l-2.8880005-0.4560013
			c-2.8120117-0.4560013-3.4960327-2.2039948-5.0920105-6.7639999l-10.3359985-29.7919998
			c-1.8999939-5.3959961-2.8120117-8.2080002-3.4200134-10.4120026c-0.3039856-1.1399918-0.7600098-1.5199966-1.7479858-1.5199966
			C279.6480713,64.231781,276.8360901,67.95578,273.1880798,68.7917786"/>
	</g>
</g>
</svg>
