<?xml version="1.0" encoding="utf-8"?>
<!-- Generator: Adobe Illustrator 21.0.0, SVG Export Plug-In . SVG Version: 6.00 Build 0)  -->
<svg version="1.1" id="Layer_1" xmlns="http://www.w3.org/2000/svg" xmlns:xlink="http://www.w3.org/1999/xlink" x="0px" y="0px"
	 viewBox="0 0 668.6392822 178.2182465" enable-background="new 0 0 668.6392822 178.2182465" xml:space="preserve">
<polygon fill="none" points="0,36.7199097 0,0 36.7200623,0 36.7200623,36.7199097 0,36.7199097 "/>
<polygon fill="none" points="0,141.0912323 0,177.8112335 36.7200623,177.8112335 36.7200623,141.0912323 0,141.0912323 "/>
<linearGradient id="SVGID_1_" gradientUnits="userSpaceOnUse" x1="378.2852783" y1="89.8192902" x2="596.5792847" y2="89.8192902">
	<stop  offset="0" style="stop-color:#575454"/>
	<stop  offset="0.0043636" style="stop-color:#575454"/>
	<stop  offset="0.3002784" style="stop-color:#656060"/>
	<stop  offset="0.6194659" style="stop-color:#6E6868"/>
	<stop  offset="0.976243" style="stop-color:#706B6B"/>
	<stop  offset="1" style="stop-color:#706B6B"/>
</linearGradient>
<path fill="url(#SVGID_1_)" d="M412.7892456,100.6872101c0-8.3598938-6.0039673-12.7678833-10.7159729-15.2758789
	l-5.0159912-2.6600037c-3.8000183-1.9760132-6.9160461-5.1679688-6.9160461-8.6640015
	c0-3.8000183,2.7360229-7.0679932,7.7520142-7.0679932c5.4720154,0,8.7399902,5.5480042,10.0319824,9.4240112
	c0.684021,0.7599792,2.5840454,0.6839905,2.9640503-0.2280273c0-5.09198-0.7600098-9.1959839-1.3680115-10.867981
	c-0.9120178-0.1520081-1.5960388-0.3039856-2.5840454-0.6080017c-3.0399475-0.9120178-6.1559448-1.2160034-8.6639709-1.2160034
	c-11.0200195,0-17.7079773,5.9279785-17.6319885,14.5159912c0,7.5239868,6.0039978,12.0840149,11.4759827,14.8200073
	c4.5600281,2.2799988,10.3359985,5.9279785,10.3359985,12.0838928c0,3.7999878-2.5839844,7.6760254-8.2079773,7.6760254
	c-6.4599915,0-11.5520325-6.9920349-13.071991-11.9320374c-0.6080017-0.835907-2.3560181-0.7598572-2.8880005,0.2280273
	c0,5.1679993,0.9879761,10.6400146,2.4319458,12.3119812c1.5960388,0.9120178,5.9280396,2.888031,12.9200439,2.888031
	C405.1132812,116.1152496,412.7892456,110.0352325,412.7892456,100.6872101L412.7892456,100.6872101z M422.6392822,103.9552155
	c0,7.0679932-0.4560547,7.6000366-3.8760071,8.2080078l-2.1280212,0.3800049
	c-0.8359985,0.3800049-0.6839905,2.1279907,0.1520081,2.5840149c4.1039734-0.1520081,7.7520142-0.2280273,11.3999939-0.2280273
	c3.6480103,0,7.3720093,0.0760193,11.6280212,0.2280273c0.835968-0.4560242,0.835968-2.20401,0-2.5840149l-2.4320374-0.3800049
	c-3.4199829-0.5319824-3.8759766-1.1400146-3.8759766-8.2080078V71.883316c0-3.039978,0.1520081-3.8760071,2.9639893-3.8760071
	c6.8400269,0,9.7280273,6.0800171,9.7280273,11.70401c0,5.6240234-1.2920227,10.1080017-7.6000061,12.0839844
	c-0.5320129,0.4560242-0.3800049,1.6720276,0.2279968,2.0520325c0.8359985,0.0759888,1.5199585,0.0759888,2.4320068,0.0759888
	c4.0279846,0,16.5679932-1.8240051,16.5679932-14.2879944c0-7.3720093-4.6360168-11.3999939-9.2720032-13.1480103
	c-3.1919861-1.2159729-7.447998-1.9759827-13.9079895-1.9759827c-6.6119995,0-12.5400085,0.3039856-17.5559998,0.6839905
	c-0.8359985,0.5319824-0.8359985,2.20401-0.1520081,2.5839844l2.355957,0.3040161
	c3.1920166,0.3800049,3.3440552,1.2919922,3.3440552,8.9679871V103.9552155L422.6392822,103.9552155z M478.9322815,97.7233429
	c2.6599426,0,3.2679749,0.1519775,3.6479797,1.367981l2.052002,6.5358887
	c0.9119873,2.8120117,1.4439697,4.6360474,1.4439697,5.1679993c0,0.4560242-0.3039551,0.9880066-2.0519714,1.2919922
	l-2.4320374,0.3800049c-0.835968,0.6080017-0.68396,2.20401,0.1520386,2.6600342
	c3.4960022-0.1520081,6.4599915-0.2280273,10.2600098-0.2280273c3.9519653,0,8.0559692,0.0760193,11.7040405,0.2280273
	c0.68396-0.4560242,0.5319824-2.2799988,0.0759277-2.6600342l-2.88797-0.4559937
	c-2.8120422-0.4559631-3.4960022-2.20401-5.0920105-6.7640076l-10.3359985-29.7918701
	c-1.9000244-5.3960266-2.8119812-8.2079773-3.4199829-10.4119873c-0.3040161-1.1400146-0.7600098-1.5200195-1.7480469-1.5200195
	c-0.1519775,0-2.9639282,3.7240295-6.611969,4.5599976c0.2279968,2.2039795-1.0639954,4.8639832-2.8119812,9.6520081
	l-6.9160156,18.5439758c-2.052002,5.4718933-3.4960022,9.1199341-4.7879944,12.1599121
	c-1.2919922,2.9640198-2.8120422,3.571991-4.6360168,3.8000183l-2.052002,0.2279663
	c-0.5319824,0.6080017-0.6079712,2.20401,0.2280273,2.6600342c3.4960022,0,5.2439575-0.2280273,7.8279419-0.2280273
	c3.1920776,0.0760193,5.9280396,0.0760193,8.5880432,0.2280273c0.7600403-0.3800049,0.6080017-2.1280212,0.1520081-2.6600342
	l-2.2800293-0.3800049c-2.1279907-0.3799744-3.1159668-0.835968-3.1159668-1.2919922
	c0-0.6080017,0.0759888-1.2159729,0.5319824-2.7359619l2.9639893-8.8159485
	c0.4560242-1.4439697,0.684021-1.5199585,2.5080566-1.5199585H478.9322815L478.9322815,97.7233429z M471.4082642,93.6953278
	c-1.8999939,0-2.2799988-0.2279968-1.5960083-2.2799988l1.9000244-5.6999817
	c1.1399536-3.4960022,2.6599731-7.6000366,3.2679749-9.3480225c0.684021,1.5960083,2.0519714,5.7000122,3.1159973,8.9680176
	l1.9760132,6.1560059c0.6079712,1.9759827,0.2279663,2.2039795-1.519989,2.2039795H471.4082642L471.4082642,93.6953278z
	 M532.0252686,63.5233307c-7.9039917,0-15.6560059,2.2799988-21.052002,6.7639771
	c-5.2440186,4.3320007-9.1959839,10.868042-9.1959839,20.1400146c0,9.4239807,4.1799622,15.7319031,9.6519775,19.9119263
	c5.3959961,4.0279541,12.9960327,5.776001,20.4440308,5.776001c5.9279785,0,11.3239746-1.6719971,15.4279785-2.8120117
	c1.0640259-1.7479858,2.3560181-6.3079834,2.8880005-11.9320068c-0.4559937-0.9120178-2.2799683-1.1398926-2.8880005-0.5319824
	c-2.052002,5.1679993-6.3079834,11.7799988-15.5040283,11.7799988c-9.1199951,0-17.8599854-8.132019-17.8599854-23.2559204
	c0-15.1239929,9.0440063-22.3439941,17.4800415-22.3439941c7.3719482,0,12.2359619,3.8000183,14.2879639,10.8680115
	c0.5319824,0.6839905,2.5839844,0.3800049,2.8880005-0.5320129c-0.68396-4.40802-0.9119873-10.4880371-0.9119873-11.8560181
	C545.4012451,65.3473358,539.7772827,63.5233307,532.0252686,63.5233307L532.0252686,63.5233307z M571.1952515,71.1993256
	c0-2.8119812,0-2.9639893,2.5079956-2.9639893h6.0800171c3.723999,0,6.0040283,0.9119873,7.447937,2.3559875
	c0.9880371,1.0639954,2.052063,3.3439941,2.8880615,6.0040283c0.7600098,0.6839905,2.5079956,0.5319824,2.8120117-0.3040161
	c-0.3800049-5.0920105-0.9119873-10.5640259-0.9880371-11.7799988c-0.987915,0.1520081-5.3199463,0.2279968-10.18396,0.2279968
	h-16.1119995c-3.6480103,0-7.3720093-0.0759888-10.9440308-0.2279968c-0.7600098,0.4559937-0.8359985,2.2039795-0.1519775,2.6599731
	l1.9000244,0.3800354c3.4199829,0.6839905,3.8759766,1.1399841,3.8759766,8.0559692v28.3479004
	c0,6.9920044-0.4559937,7.4480286-3.8759766,7.980011l-3.5720215,0.5319824c-0.6080322,0.3800354-0.6080322,2.20401,0,2.6600342
	c5.7000122-0.1520081,9.4240112-0.2280273,13.0720215-0.2280273h9.8799438c6.2319946,0,13.5280151,0.0760193,17.5560303,0.2280273
	c1.0640259-2.0520325,2.8880005-8.2080078,3.1920166-12.1600342c-0.3040161-0.9119873-2.2040405-1.2160034-2.8120728-0.3799744
	c-4.1799316,8.5879822-6.763916,8.8160095-13.3759155,8.8160095c-5.5480347,0-6.9920044-0.6080322-7.9800415-1.9760132
	c-0.9119873-1.2919922-1.2160034-3.723999-1.2160034-7.2200012v-9.0438843c0-2.2799988,0.0759888-2.3560181,2.1279907-2.3560181
	h5.2440186c3.9520264,0,4.8640137,0.6080017,5.6240234,4.256012l0.3800049,1.8999939
	c0.5319824,0.6839905,2.4320068,0.6079712,2.8119507-0.0760193c-0.1520386-2.4319763-0.2279663-5.1679993-0.2279663-8.0559998
	s0.0759277-5.6239624,0.2279663-8.0559998c-0.3799438-0.6839905-2.2799683-0.6839905-2.8119507-0.0759888l-0.3800049,1.8999939
	c-0.7600098,3.6480103-1.6719971,4.1800232-5.6240234,4.1800232h-5.2440186c-2.052002,0-2.1279907-0.1520081-2.1279907-2.2799988
	V71.1993256L571.1952515,71.1993256z"/>
<linearGradient id="SVGID_2_" gradientUnits="userSpaceOnUse" x1="198.4451904" y1="115.127243" x2="198.4451904" y2="64.5113373">
	<stop  offset="0" style="stop-color:#000000"/>
	<stop  offset="0.102136" style="stop-color:#000000"/>
	<stop  offset="0.2697589" style="stop-color:#0E171A"/>
	<stop  offset="0.4813125" style="stop-color:#1F272A"/>
	<stop  offset="0.7084355" style="stop-color:#283033"/>
	<stop  offset="0.976243" style="stop-color:#2B3336"/>
	<stop  offset="1" style="stop-color:#2B3336"/>
</linearGradient>
<path fill="url(#SVGID_2_)" d="M184.1312714,103.9552155c0,7.0679932-0.4560242,7.6000366-3.8760071,8.2080078l-2.1279907,0.3800049
	c-0.8359985,0.3800049-0.6840057,2.1279907,0.1519928,2.5840149c4.1039886-0.1520081,7.7519989-0.2280273,11.3999786-0.2280273
	c3.6480255,0,7.3720245,0.0760193,11.6280212,0.2280273c0.8359833-0.4560242,0.8359833-2.20401,0-2.5840149l-2.4319916-0.3800049
	c-3.4200134-0.5319824-3.8760223-1.1400146-3.8760223-8.2080078V71.883316c0-3.039978,0.1520081-3.8760071,2.9640045-3.8760071
	c6.8400116,0,9.7279968,6.0800171,9.7279968,11.70401c0,5.6240234-1.2919922,10.1080017-7.5999908,12.0839844
	c-0.5320129,0.4560242-0.3800049,1.6720276,0.2280121,2.0520325c0.8359833,0.0759888,1.5199738,0.0759888,2.4319916,0.0759888
	c4.0279999,0,16.5680084-1.8240051,16.5680084-14.2879944c0-7.3720093-4.6360168-11.3999939-9.2720032-13.1480103
	c-3.1920166-1.2159729-7.447998-1.9759827-13.90802-1.9759827c-6.6119995,0-12.539978,0.3039856-17.5559845,0.6839905
	c-0.8359985,0.5319824-0.8359985,2.20401-0.1519928,2.5839844l2.3559723,0.3040161
	c3.1920166,0.3800049,3.3440247,1.2919922,3.3440247,8.9679871V103.9552155L184.1312714,103.9552155z"/>
<linearGradient id="SVGID_3_" gradientUnits="userSpaceOnUse" x1="297.8248291" y1="116.1152496" x2="297.8248291" y2="64.5114288">
	<stop  offset="0" style="stop-color:#131D20"/>
	<stop  offset="0.0237569" style="stop-color:#131D20"/>
	<stop  offset="0.1677377" style="stop-color:#252D2F"/>
	<stop  offset="0.7414711" style="stop-color:#535354"/>
	<stop  offset="1" style="stop-color:#645F5F"/>
</linearGradient>
<path fill="url(#SVGID_3_)" d="M374.8282776,102.9672089c-0.3040161-0.9119873-2.20401-1.2160034-2.8120117-0.3799744
	c-4.1799927,8.5879822-6.7640076,8.8160095-13.3760071,8.8160095c-5.5480042,0-6.9920044-0.6080322-7.9799805-1.9760132
	c-0.9120178-1.2919922-1.2160339-3.723999-1.2160339-7.2200012v-9.0440063c0-2.2799988,0.0760193-2.3559875,2.1280212-2.3559875
	h5.243988c3.9519958,0,4.8640137,0.6079712,5.6239929,4.2559814l0.3800354,1.9000244
	c0.5319519,0.6839905,2.4319763,0.6079712,2.8119507-0.0760193c-0.1519775-2.4319763-0.2279663-5.1679993-0.2279663-8.0557861
	c0-2.8880005,0.0759888-5.6239929,0.2279663-8.0560303c-0.3799744-0.6839905-2.2799988-0.6839905-2.8119507-0.0759888
	l-0.3800354,1.9000244c-0.7599792,3.6479797-1.6719971,4.1799927-5.6239929,4.1799927h-5.243988
	c-2.052002,0-2.1280212-0.1520081-2.1280212-2.2799988V71.1994476c0-2.8120117,0-2.9640198,2.5080261-2.9640198h6.0799866
	c3.7239685,0,6.0039978,0.9119873,7.447998,2.3559875c0.9880066,1.0639954,2.052002,3.3439941,2.8880005,6.0039978
	c0.7600098,0.684021,2.5080261,0.5320129,2.8119812-0.3039856c-0.3800049-5.09198-0.9119568-10.5639954-0.9879761-11.7799988
	c-0.9880371,0.1520081-5.3200073,0.2279968-10.1839905,0.2279968h-16.1119995
	c-3.6480103,0-7.3720398-0.0759888-10.9440308-0.2279968c-0.7599792,0.4559937-0.835968,2.20401-0.1519775,2.6599731
	l1.8999939,0.3800354c3.4199829,0.6839905,3.8760071,1.1399841,3.8760071,8.0559998v28.3477783
	c0,6.9920044-0.4560242,7.4480286-3.8760071,7.980011l-3.571991,0.5319824c-0.6080017,0.3800354-0.6080017,2.20401,0,2.6600342
	c5.6999817-0.1520081,9.4240112-0.2280273,13.071991-0.2280273h9.8800049c6.2319946,0,13.5280151,0.0760193,17.5559998,0.2280273
	C372.7002563,113.0752106,374.5242615,106.9192352,374.8282776,102.9672089L374.8282776,102.9672089z M328.6212769,114.6712189
	c0.3800049-0.4559937,0.3800049-1.5960083-0.3040161-1.9759827c-1.1399841-0.0759888-3.1159973-0.5320129-5.09198-2.1279907
	c-3.6480103-3.1160278-6.7640076-8.81604-11.7799988-19c-0.3800354-0.8360291-0.3800354-1.2920227,0.3799744-1.6719971
	c3.4960022-1.7478333,8.0559998-4.6358337,8.0559998-11.3998413c0-4.8639832-2.2799988-8.6640015-6.6879883-11.2479858
	c-2.8880005-1.7479858-8.4360046-2.7359924-14.8959961-2.7359924c-7.2200012,0-13.1480408,0.3039856-18.8479919,0.6839905
	c-0.9120178,0.3800049-0.9120178,2.2799988-0.1520081,2.6600037l2.052002,0.3039856
	c3.1919861,0.4560242,3.3439941,1.2919922,3.3439941,8.8920288v26.9037781c0,6.9920044-0.4559937,7.5240173-3.8760071,8.1319885
	l-2.052002,0.3800049c-0.6080017,0.3800354-0.6080017,2.20401,0,2.6600342
	c3.9519958-0.1520081,7.2960205-0.2280273,11.0960083-0.2280273c3.6480103,0,7.1440125,0.0760193,11.1719971,0.2280273
	c0.5320129-0.4560242,0.5320129-2.2799988,0-2.6600342l-2.052002-0.3800049
	c-3.4199829-0.6079712-3.8760071-1.1399841-3.8760071-8.1319885v-9.3479919c0-1.519989,0.1520081-1.6719971,2.8120117-1.6719971
	c1.8999939,0,3.1159973,0.6080017,4.0280151,2.6600037c1.7479858,4.0280151,3.4959717,7.7519836,5.9279785,11.7799988
	c3.3439941,5.4720154,7.7520142,7.9799805,14.7440186,7.9799805
	C324.9732361,115.3552094,327.4052734,115.2032318,328.6212769,114.6712189L328.6212769,114.6712189z M308.3292542,79.2554474
	c0,4.4839783-1.4440002,6.9159851-2.7359924,8.2079773c-1.4440002,1.4440002-3.0400085,2.1280212-5.776001,2.1280212
	c-4.4839783,0-4.7120056-0.2279968-4.7120056-2.8880005V71.8834381c0-3.6480103,0.1520081-3.8760071,3.2680054-3.8760071
	C304.3012695,68.007431,308.3292542,72.4154205,308.3292542,79.2554474L308.3292542,79.2554474z M274.2592773,67.0954132
	c0.6080017-0.6079712,0.4559937-2.1279907,0-2.5839844c-2.8880005,0.1520081-5.7000122,0.2279968-8.5120239,0.2279968
	c-3.1159973,0-6.0799866-0.0759888-10.1839905-0.2279968c-0.4559937,0.4559937-0.6080017,1.9760132,0,2.5839844l2.0519714,0.3800049
	c2.0520325,0.3800049,3.7240295,0.8359985,4.40802,2.4320068c0.8359985,1.9760132,1.1400146,7.7520142,1.1400146,13.90802v9.1957703
	c0,10.4120178-2.9639893,18.9240112-12.6920166,18.9240112c-11.552002,0-12.539978-9.8039856-12.539978-18.6959839V75.6834564
	c0-7.0680237,0.4559937-7.6760254,3.8759766-8.2840271l1.8240051-0.3040161c0.6080017-0.4559631,0.6080017-2.1279907,0-2.5839844
	c-3.647995,0.1520081-7.371994,0.2279968-11.095993,0.2279968c-3.647995,0-7.447998-0.0759888-11.095993-0.2279968
	c-0.8360138,0.4559937-0.7600098,2.1280212-0.1520081,2.5839844l1.8999939,0.3800049
	c3.4200134,0.6839905,3.8759918,1.1400146,3.8759918,8.2080383v18.9997864c0,8.2839661,1.6720123,13.9079895,5.6240234,17.1759949
	c4.1039886,3.3439941,9.2719879,4.256012,15.0479889,4.256012c6.1560059,0,11.70401-1.9000244,15.0480042-5.4720154
	c4.1799622-4.6359863,4.8640137-11.1720276,4.8640137-18.3160095v-8.5117798c0-6.1560059,0.3039551-11.9320068,1.1399841-13.90802
	c0.6839905-1.5960083,2.1279602-2.052002,4.1040039-2.5079956L274.2592773,67.0954132L274.2592773,67.0954132z"/>
<polygon fill="none" points="668.7192383,36.7199097 668.7192383,0 631.9992676,0 631.9992676,36.7199097 668.7192383,36.7199097 
	"/>
<polygon fill="none" points="668.7192383,141.0912323 668.7192383,177.8112335 631.9992676,177.8112335 631.9992676,141.0912323 
	668.7192383,141.0912323 "/>
<path fill="#706B6B" d="M629.9862671,80.5887299c-0.2990112,0-0.6160278-0.0679932-0.9180298-0.2695007
	c-0.3039551-1.2157898-1.2919922-3.4199219-1.7479858-4.559906l-1.7479858-4.1799927
	c-0.7600098-1.7479248-1.5960083-3.4960022-1.7479858-3.5720215c-0.0759888,0.1520081-0.1520386,1.2160339-0.3040161,3.9520264
	c-0.0759888,1.367981,0,3.4958801,0,4.6360168c0.0759277,1.6719971,0.3040161,2.052063,1.5200195,2.204071l0.68396,0.0759888
	c0.1520386,0.2280273,0.1520386,1.139801,0,1.5198975c-0.7600098-0.0760803-1.8239746-0.0760803-3.5719604-0.0760803
	c-1.2919922,0-2.7360229,0-3.5720825,0.0760803c-0.2279053-0.1520691-0.2279053-1.2158813-0.0759277-1.5198975l0.4560547-0.0759888
	c1.4439697-0.2279968,1.8239136-0.7601013,1.8999634-1.8240967c0.303894-2.8118896,0.684021-6.1560974,0.684021-8.5119934
	c0-1.4440002-0.6080322-1.9761047-1.8240967-2.1281128l-0.6080322-0.1520081
	c-0.6079102-0.2279663-0.5319824-1.4437866,0.0760498-1.5198669c1.2919922,0,2.1280518,0.0760803,3.0400391,0.0760803
	c1.2919922,0,2.2799683,0,5.0159912-0.0760803c0,0.8360901,0.987915,2.8119812,1.7479858,4.2559814l1.4440308,2.8119812
	c0.3800049,0.7600098,0.68396,1.1400146,0.9119873,1.1400146c0.1519775,0,0.4559937-0.1519775,0.9119873-0.9119873
	l1.2919922-2.8120117c0.684021-1.4440002,1.2159424-2.6600952,1.7480469-4.4839783
	c2.355957,0.0760803,3.039978,0.0760803,3.6479492,0.0760803c1.0640259,0,2.8879395,0,3.8000488-0.0760803
	c0.4559326,0.0760803,0.4559326,1.3678894,0.0759888,1.5198669l-0.7600098,0.1520081
	c-1.2919922,0.2281189-1.4440308,0.6841125-1.4440308,1.8240967c0,2.1281128,0.0760498,6.0801086,0.2280273,8.2080078
	c0.1519775,1.7479858,0.3039551,1.9760132,1.0639648,2.2041016l1.1400146,0.3039856
	c0.4559937,0.1520386,0.4559937,1.3678284,0,1.5198975c-1.0639648-0.0760803-2.1279907-0.0760803-4.6359863-0.0760803
	c-1.9759521,0-3.0400391,0-4.1799927,0.0760803c-0.2280884-0.1520691-0.3040161-1.3678589,0-1.5198975l1.1399536-0.3039856
	c0.9120483-0.2280884,0.9120483-0.6080933,0.9120483-1.8240967l-0.1519775-7.4479065c0-0.4560852,0-0.7600708-0.1520386-0.8360901
	c-0.0760498,0-0.7600098,1.6720886-1.4439697,3.2679749l-1.4440308,3.3439331
	c-1.0640259,2.5081177-1.5960083,3.6481934-2.1279907,5.3200684
	C630.7132568,80.4801178,630.3642578,80.5887299,629.9862671,80.5887299 M612.880249,80.3953094
	c-1.6719971-0.0760803-3.4200439-0.0760803-5.4720459-0.0760803c-1.9000244,0-3.039917,0-4.407959,0.0760803
	c-0.3039551-0.1520691-0.3039551-1.1398621-0.0760498-1.5198975l1.2160645-0.2279968
	c1.2160645-0.2280884,1.3679199-1.2920837,1.3679199-3.5721741v-7.3719177c0-0.8360291,0-0.9120178-0.8359375-0.9120178h-0.6079102
	c-1.6721191,0-2.736084,0.7600403-3.4200439,2.6600952c-0.0960693,0.2224426-0.3640137,0.3252258-0.6490479,0.3252258
	c-0.3969727,0-0.8270264-0.1994019-0.8709717-0.5532837c0.4560547-2.8121338,0.7600098-4.3319397,1.0640869-5.3960266
	c0.0759277-0.1900024,0.322937-0.2849731,0.5698853-0.2849731c0.2470093,0,0.4940186,0.0949707,0.5700073,0.2849731
	c0.684021,0.8360291,0.8360596,0.9121094,2.355957,0.9121094h9.6519775c1.0640869,0,1.368042,0,2.2800903-0.9121094
	c0.1140747-0.1900024,0.3610229-0.2849731,0.5980225-0.2849731c0.2379761,0,0.4660034,0.0949707,0.5419922,0.2849731
	c-0.3040161,1.368103-0.4559937,3.8760071-0.3799438,5.6240845c-0.0810547,0.3635254-0.44104,0.5338135-0.7830811,0.5338135
	c-0.302002,0-0.5899658-0.1325684-0.6610107-0.3817749c-0.3800049-1.8241272-0.9880371-2.8121338-2.9639893-2.8121338h-0.9879761
	c-0.6080322,0-0.6080322,0.0759888-0.6080322,0.9120178v7.5999146c0,2.2801208,0.0759888,3.1160889,1.368042,3.3441772
	l1.2159424,0.2279968C613.2602539,79.1034393,613.1843262,80.3192291,612.880249,80.3953094"/>
<path fill="#706B6B" d="M605.5081787,75.0753326c0,2.2799988-0.1518555,3.3439941-1.3679199,3.571991l-1.2160645,0.2280273
	c-0.2279053,0.3799744-0.2279053,1.367981,0.0760498,1.5199585c1.368042-0.0759888,2.5079346-0.0759888,4.407959-0.0759888
	c2.052002,0,3.8000488,0,5.4720459,0.0759888c0.3040771-0.0759888,0.3800049-1.2919922,0.0759888-1.5199585l-1.2159424-0.2280273
	c-1.2920532-0.2279968-1.368042-1.0639648-1.368042-3.3439636v-7.6000366c0-0.8360291,0-0.9120178,0.6080322-0.9120178h0.9879761
	c1.9759521,0,2.5839844,0.9880066,2.9639893,2.8120422c0.1520996,0.5319824,1.2919922,0.5319824,1.4440918-0.1520386
	c-0.0760498-1.7479858,0.0759277-4.2559814,0.3799438-5.6239929c-0.1520386-0.3799744-0.9120483-0.3799744-1.1400146,0
	c-0.9120483,0.9120178-1.2160034,0.9120178-2.2800903,0.9120178h-9.6519775c-1.5198975,0-1.671936-0.0759888-2.355957-0.9120178
	c-0.1519775-0.3799744-0.9880371-0.3799744-1.1398926,0c-0.3040771,1.0639954-0.6080322,2.5840149-1.0640869,5.3960266
	c0.0759888,0.6080017,1.2919922,0.7599792,1.5200195,0.2279663c0.68396-1.8999634,1.7479248-2.6600037,3.4200439-2.6600037
	h0.6079102c0.8359375,0,0.8359375,0.0759888,0.8359375,0.9120178V75.0753326L605.5081787,75.0753326z M636.288269,76.7473297
	c0,1.2160034,0,1.5960083-0.9120483,1.8240051l-1.1399536,0.3040161c-0.3040161,0.1519775-0.2280884,1.367981,0,1.5199585
	c1.1399536-0.0759888,2.2040405-0.0759888,4.1799927-0.0759888c2.5079956,0,3.5720215,0,4.6359863,0.0759888
	c0.4559937-0.1519775,0.4559937-1.367981,0-1.5199585l-1.1400146-0.3040161
	c-0.7600098-0.2279968-0.9119873-0.4560242-1.0639648-2.20401c-0.1519775-2.1279907-0.2280273-6.0800171-0.2280273-8.2080078
	c0-1.1399841,0.1520386-1.5959778,1.4440308-1.8239746l0.7600098-0.1520081
	c0.3799438-0.1520081,0.3799438-1.4440002-0.0759888-1.519989c-0.9121094,0.0759888-2.7360229,0.0759888-3.8000488,0.0759888
	c-0.6079712,0-1.2919922,0-3.6479492-0.0759888c-0.5321045,1.8239746-1.0640259,3.039978-1.7480469,4.4839783l-1.2919922,2.8120117
	c-0.4559937,0.7600098-0.7600098,0.9119873-0.9119873,0.9119873c-0.2280273,0-0.5319824-0.3800049-0.9119873-1.1400146
	l-1.4440308-2.8119812c-0.7600708-1.4440002-1.7479858-3.4200134-1.7479858-4.2559814
	c-2.7360229,0.0759888-3.723999,0.0759888-5.0159912,0.0759888c-0.9119873,0-1.7480469-0.0759888-3.0400391-0.0759888
	c-0.6080322,0.0759888-0.68396,1.2919922-0.0760498,1.519989l0.6080322,0.1520081
	c1.2160645,0.1519775,1.8240967,0.6839905,1.8240967,2.1279907c0,2.3560181-0.380127,5.7000122-0.684021,8.5119934
	c-0.0760498,1.0639954-0.4559937,1.5960083-1.8999634,1.8240051l-0.4560547,0.0760193
	c-0.1519775,0.3039856-0.1519775,1.367981,0.0759277,1.5199585c0.8360596-0.0759888,2.2800903-0.0759888,3.5720825-0.0759888
	c1.7479858,0,2.8119507,0,3.5719604,0.0759888c0.1520386-0.3799744,0.1520386-1.2919922,0-1.5199585l-0.68396-0.0760193
	c-1.2160034-0.1520081-1.4440918-0.5319824-1.5200195-2.2039795c0-1.1400146-0.0759888-3.2680359,0-4.6360168
	c0.1519775-2.7359924,0.2280273-3.8000183,0.3040161-3.9520264c0.1519775,0.0760193,0.9879761,1.8240356,1.7479858,3.5720215
	l1.7479858,4.1799927c0.4559937,1.1399841,1.4440308,3.3439941,1.7479858,4.5599976
	c0.684021,0.4559937,1.4440308,0.2279968,1.9000244,0.0759888c0.5319824-1.6719666,1.0639648-2.8119507,2.1279907-5.3199768
	l1.4440308-3.3440247c0.68396-1.5959778,1.3679199-3.2679749,1.4439697-3.2679749
	c0.1520386,0.0760193,0.1520386,0.3800049,0.1520386,0.8359985L636.288269,76.7473297L636.288269,76.7473297z"/>
<g>
	<g>
		<g>
			<defs>
				<rect id="SVGID_4_" x="38.07547" y="38.0046082" width="101.7082672" height="101.5306244"/>
			</defs>
			<clipPath id="SVGID_5_">
				<use xlink:href="#SVGID_4_"  overflow="visible"/>
			</clipPath>
			<g clip-path="url(#SVGID_5_)">
				<defs>
					<path id="SVGID_6_" d="M42.6517296,130.532608V47.0056076c0-4.147995,4.1469994-4.147995,4.1469994-4.147995h84.262001
						c4.1480103,0,4.1480103,4.147995,4.1480103,4.147995v83.5270004c0,4.1490021-4.1480103,4.1490021-4.1480103,4.1490021
						h-84.262001C42.6517296,134.6816101,42.6517296,130.532608,42.6517296,130.532608 M42.223732,38.0046082
						c0,0-4.1480026,0-4.1480026,4.1470032v93.2359924c0,0,0,4.1480103,4.1480026,4.1480103h93.4119949
						c0,0,4.147995,0,4.147995-4.1480103V42.1516113c0,0,0-4.1470032-4.147995-4.1470032H42.223732z"/>
				</defs>
				<clipPath id="SVGID_7_">
					<use xlink:href="#SVGID_6_"  overflow="visible"/>
				</clipPath>
				
					<linearGradient id="SVGID_8_" gradientUnits="userSpaceOnUse" x1="32.3524017" y1="484.3572388" x2="33.3524017" y2="484.3572388" gradientTransform="matrix(0 -101.5310822 -101.5310822 0 49266.2460938 3424.3098145)">
					<stop  offset="0" style="stop-color:#71973E"/>
					<stop  offset="1" style="stop-color:#FDDD11"/>
				</linearGradient>
				
					<rect x="38.0757256" y="38.0046158" clip-path="url(#SVGID_7_)" fill="url(#SVGID_8_)" width="101.7080078" height="101.5309982"/>
			</g>
			<g clip-path="url(#SVGID_5_)">
				<defs>
					<path id="SVGID_9_" d="M87.8467255,90.6396103c1.3450012-1.651001,2.8170013-3.1279984,4.4060059-4.5089951
						c0.7229996-0.6300049,1.5659943-1.1210022,2.3399963-1.6950073c2.6070023-1.9400024,4.8040009-4.2299957,6.253006-7.1869965
						c1.0399933-2.125,1-4.3219986,0.598999-6.5680008c-0.1730042-0.9769974-0.314003-1.9599991-0.4690018-2.939003
						c0.0909958-0.0299988,0.1839981-0.0589981,0.276001-0.0879974c0.9840012,2.5739975,2.0769958,5.112999,2.9319992,7.7300034
						c1.4960022,4.5659943,2.2969971,9.2649918,2.012001,14.0909958c-0.2919998,4.8809967-1.7160034,9.3249969-5.3540039,12.8110046
						c-2.9820023,2.8579941-6.6809921,4.2099915-10.6489944,4.9980011
						c-0.5370026,0.1069946-1.0790024,0.4169922-1.5140076,0.7659912c-1.6309967,1.302002-3.2039948,2.678009-4.8289948,3.9900055
						c-0.4449997,0.3589935-1.0599976,0.8300018-1.5769958,0.3180008c-0.3910065-0.3850021-0.739006-1.076004-0.6980057-1.5960007
						c0.5320053-6.6760025-1.6809998-12.5110016-5.3499985-17.9199982
						c-0.1430054-0.2100067-0.2789993-0.4240036-0.3630066-0.6690063c3.1560059,3.4609985,5.3660049,7.4450073,6.5610046,12.0149994
						c0.8679962-2.0909958,1.173996-4.2319946,0.8199997-6.4469986c-0.6460037-4.0259933-3.2910004-6.4540024-6.6940002-8.234993
						c-1.010994-0.5300064-2.0909958-0.9290009-3.2979965-1.4580078c0.2659988,1.1269989,0.6369934,2.0680008,0.6849976,3.0240021
						c0.1190033,2.3460007,0.0970001,4.6990051,0.1150055,7.0500031c0.0169983,2.2039948,0.3559952,4.3309937,1.970993,5.9629974
						c0.8110046,0.8190002,1.852005,1.4080048,2.8070068,2.1150055c-0.2420044-0.0630035-0.5350037-0.114006-0.8090057-0.2180023
						c-3.121994-1.1900024-4.5039978-3.6780014-4.8560028-6.802002c-0.2169952-1.923996-0.1329956-3.8800049-0.272995-5.8150024
						c-0.0780029-1.0820007-0.2660065-2.1669998-0.5360031-3.2189941c-0.4749985-1.8430023-1.5889969-3.1950073-3.3830032-3.9320068
						c-0.4839935-0.1989975-0.9639969-0.4079971-1.3949966-0.8159943c1.6620026,0.2979965,3.3440018,0.5169983,4.9840012,0.909996
						c3.2229996,0.7710037,6.1640015,2.1409988,8.6869965,4.348999c4.2210083,3.6969986,4.3760071,10.151001,2.3530045,13.9769974
						c-0.3920059,0.7430038-0.4430008,1.401001-0.2470016,2.1790009c0.1780014,0.7020035,0.2290039,1.4329987,0.3630066,2.3359985
						c8.2329941-5.6339951,13.2089996-13.4149933,16.2269974-22.6519928
						c0.1989975,1.1679993-1.651001,6.3309937-3.6440048,10.173996c-1.6779938,3.2300034-3.7910004,6.1580048-6.3089981,8.8509979
						c1.3639984,0.0270081,4.4420013-0.9909973,6.1790009-1.9349976c4.9729996-2.7039948,7.4519958-7.0309982,8.1500015-12.5019989
						c0.6179962-4.8410034-0.0859985-9.5719986-1.3199997-14.2480011c-0.0279999-0.1100006-0.0860062-0.211998-0.1640015-0.3990021
						c-0.1070023,0.1320038-0.1969986,0.2000046-0.2310028,0.2900009c-1.0999985,2.9280014-3.0250015,5.2549973-5.435997,7.1660004
						c-1.576004,1.2490005-3.3390045,2.2630005-4.9400024,3.4840012c-3.7440033,2.8560028-7.4400024,7.3769989-6.336998,13.1750031
						c0.2029953,1.0619965,0.5960007,2.0879974,0.8499985,2.9550018
						C84.2647324,99.6486053,85.0157318,94.1176147,87.8467255,90.6396103 M60.1137314,88.4506073
						c0,15.5510025,12.6059952,28.1549988,28.1559982,28.1549988s28.1569977-12.6039963,28.1569977-28.1549988
						s-12.6069946-28.1569977-28.1569977-28.1569977S60.1137314,72.8996124,60.1137314,88.4506073 M84.0587311,121.3336105
						h9.4819946l-4.7409973,8.8380051L84.0587311,121.3336105z M68.4297333,114.6046143l8.2099991,4.7409973l-8.5240021,5.2829971
						L68.4297333,114.6046143z M100.9607315,119.3456116l8.2109985-4.7409973l0.3120041,10.0239944L100.9607315,119.3456116z
						 M58.2567291,100.9616089l4.7410011,8.2120056l-10.0249977,0.3119965L58.2567291,100.9616089z M114.6017303,109.1736145
						l4.7419968-8.2120056l5.2830048,8.5240021L114.6017303,109.1736145z M47.4307327,88.8026123l8.8379974-4.7420044v9.4820023
						L47.4307327,88.8026123z M121.3317337,84.0606079l8.8380051,4.7420044l-8.8380051,4.7399979V84.0606079z
						 M52.9727325,68.1176071l10.0249977,0.3130035l-4.7410011,8.211998L52.9727325,68.1176071z M114.6017303,68.4306107
						l10.0250015-0.3130035l-5.2830048,8.5250015L114.6017303,68.4306107z M58.3807297,88.4506073
						c0-16.5069962,13.3819962-29.8889999,29.8889999-29.8889999s29.8889999,13.3820038,29.8889999,29.8889999
						s-13.3819962,29.8880005-29.8889999,29.8880005S58.3807297,104.9576111,58.3807297,88.4506073 M68.1157303,52.9746094
						l8.5240021,5.2829971l-8.2099991,4.7420044L68.1157303,52.9746094z M100.9587326,58.2576065l8.5250015-5.2829971
						L109.17173,62.9996109L100.9587326,58.2576065z M88.7997284,47.4326096l4.7409973,8.8379974h-9.4819946L88.7997284,47.4326096z
						 M47.7167282,44.7426071c-1.1499977,0.2160034-3.2469978,1.0050049-3.2469978,3.8990021v80.2370071
						c0,0,0,3.9829865,3.9840012,3.9829865h80.9419861c0,0,2.8730164-0.0079956,3.7350159-2.4599915V49.2296066
						c0-4.4869995-3.9030151-4.4869995-3.9030151-4.4869995H47.7167282z"/>
				</defs>
				<clipPath id="SVGID_10_">
					<use xlink:href="#SVGID_9_"  overflow="visible"/>
				</clipPath>
				
					<linearGradient id="SVGID_11_" gradientUnits="userSpaceOnUse" x1="32.8627281" y1="484.3496399" x2="33.8627167" y2="484.3496399" gradientTransform="matrix(0 -88.1199951 -88.1199951 0 42769.6875 3028.7250977)">
					<stop  offset="0" style="stop-color:#FDDD10"/>
					<stop  offset="0.5508693" style="stop-color:#B5CB37"/>
					<stop  offset="1" style="stop-color:#6FBE46"/>
				</linearGradient>
				
					<rect x="44.4697227" y="44.7426071" clip-path="url(#SVGID_10_)" fill="url(#SVGID_11_)" width="88.6610107" height="88.1190033"/>
			</g>
			<g clip-path="url(#SVGID_5_)">
				<defs>
					<path id="SVGID_12_" d="M80.4457321,80.4586105c-0.3310013,1.7020035-0.8880005,3.3579941-1.2979965,5.0479965
						c-0.07901,0.3220062-0.1420059,0.6450043-0.1970062,0.9680023c0.3800049,0.2409973,0.7539978,0.4949951,1.1200027,0.7669983
						l0.0690002,0.0490036c0.3769989,0.2809982,0.7479935,0.5749969,1.1079941,0.8909988l0.2260056,0.2200012l0.1610031,0.0800018
						l0.026001,0.0159912l0.1489944,0.0850067l0.0230026,0.0149994l0.1660004,0.1069946l0.0179977,0.0130005l0.1829987,0.1350098
						l0.0089951,0.0059967l0.2000046,0.1669998l0.0020065,0.0019989c0.7309952,0.6419983,1.5659943,1.7809982,2.0709991,3.7910004
						l0.0999908,0.159996c0.2850037-3.0589981-0.0079956-6.1499939-0.7329941-9.2639923
						c-0.284996-1.2200012-0.6709976-2.4179993-0.9749985-3.6330032c1.8969955,3.7929993,2.8929977,7.7739944,2.927002,11.9749985
						c0.0789948-0.2559967,0.173996-0.5029984,0.2689972-0.7519989l0.095993-0.2689972
						c0.1060028-0.2610016,0.2290039-0.5130005,0.352005-0.7649994l0.1190033-0.2550049
						c0.1279984-0.2470016,0.2719955-0.4819946,0.4169922-0.7169952l0.1440048-0.2450027
						c0.2020035-0.3089981,0.4189987-0.6060028,0.6489944-0.890007c0.1330032-0.1639938,0.2750092-0.3199921,0.4110031-0.4809952
						c0.2410049-2.7170029-0.5709991-5.2259979-1.9719925-7.6059952c-1.477005-2.5070038-3.4150085-4.6300049-5.5980072-6.5370026
						c-0.427002-0.3720016-0.8710022-0.7249985-1.3199997-1.0719986l-0.2009964-0.1389999
						C80.9487305,74.8306122,80.9957275,77.6176071,80.4457321,80.4586105"/>
				</defs>
				<clipPath id="SVGID_13_">
					<use xlink:href="#SVGID_12_"  overflow="visible"/>
				</clipPath>
			</g>
			<g clip-path="url(#SVGID_5_)">
				<defs>
					<path id="SVGID_14_" d="M73.9367294,91.0716095c0.1180038,2.3460007,0.0960007,4.6990051,0.114006,7.0500031
						c0.0169983,2.2039948,0.3559952,4.3309937,1.9720001,5.9629974c0.7749939,0.7819977,1.7589951,1.3590012,2.6769943,2.0250015
						c0.9319992,0.3680038,1.9990005,0.5920029,2.8190002,0.2109985c-0.5039978-4.8730011-2.4609985-9.3030014-5.2939987-13.4789963
						c-0.1430054-0.2100067-0.2789993-0.4240036-0.3630066-0.6690063c3.1570053,3.4620056,5.3660049,7.4450073,6.5610046,12.0149994
						c0.8679962-2.0899963,1.1750031-4.2309952,0.8199997-6.4469986c-0.6460037-4.0259933-3.2910004-6.4540024-6.6930008-8.234993
						c-1.0110016-0.5300064-2.0919952-0.928009-3.298996-1.4570007
						C73.5167313,89.1746063,73.8877258,90.1156082,73.9367294,91.0716095"/>
				</defs>
				<clipPath id="SVGID_15_">
					<use xlink:href="#SVGID_14_"  overflow="visible"/>
				</clipPath>
				
					<linearGradient id="SVGID_16_" gradientUnits="userSpaceOnUse" x1="16.3632755" y1="497.4628601" x2="17.3632755" y2="497.4628601" gradientTransform="matrix(13.2705536 13.2705536 13.2705536 -13.2705536 -6747.5830078 6474.5830078)">
					<stop  offset="0" style="stop-color:#71973E"/>
					<stop  offset="0.3969957" style="stop-color:#70953E"/>
					<stop  offset="0.5607854" style="stop-color:#6F9140"/>
					<stop  offset="0.681594" style="stop-color:#6D8944"/>
					<stop  offset="0.7813216" style="stop-color:#697E49"/>
					<stop  offset="0.8680165" style="stop-color:#63714F"/>
					<stop  offset="0.9443529" style="stop-color:#5D6253"/>
					<stop  offset="1" style="stop-color:#575454"/>
				</linearGradient>
				<polygon clip-path="url(#SVGID_15_)" fill="url(#SVGID_16_)" points="78.4242249,82.8751144 92.9242249,97.3751144 
					78.4242249,111.8751144 63.9242249,97.3751144 				"/>
			</g>
			<g clip-path="url(#SVGID_5_)">
				<defs>
					<path id="SVGID_17_" d="M102.6047287,76.7276077c-1.0999985,2.9290009-3.0239944,5.2549973-5.435997,7.1660004
						c-1.576004,1.2490005-3.3390045,2.2630005-4.9400024,3.4850006c-3.7429962,2.8550034-7.4389954,7.3759995-6.336998,13.1740036
						c0.1959991,1.026001,0.5669937,2.0149994,0.8209991,2.8649979c0.3600006,0.8519974,0.7970047,1.7139969,1.2770004,2.3600006
						c5.746994-5.215004,9.4990005-11.7659988,11.9540024-19.2809982c0.1989975,1.1679993-1.651001,6.3309937-3.6440048,10.173996
						c-1.6779938,3.2310028-3.7910004,6.1589966-6.3079987,8.8509979c1.362999,0.0270081,4.4410019-0.9909973,6.1780014-1.9349976
						c4.9729996-2.7039948,7.4519958-7.0309982,8.1500015-12.5009995c0.6179962-4.8420029-0.0859985-9.572998-1.3199997-14.2490005
						c-0.0279999-0.1100006-0.0860062-0.2109985-0.1640015-0.3990021
						C102.7287292,76.5696106,102.6387329,76.6376114,102.6047287,76.7276077"/>
				</defs>
				<clipPath id="SVGID_18_">
					<use xlink:href="#SVGID_17_"  overflow="visible"/>
				</clipPath>
				
					<linearGradient id="SVGID_19_" gradientUnits="userSpaceOnUse" x1="36.8192482" y1="492.088623" x2="37.8192482" y2="492.088623" gradientTransform="matrix(22.0922546 -22.0922546 -22.0922546 -22.0922546 10142.0185547 11786.6464844)">
					<stop  offset="0" style="stop-color:#575454"/>
					<stop  offset="0.0556465" style="stop-color:#5D6253"/>
					<stop  offset="0.1319831" style="stop-color:#63714F"/>
					<stop  offset="0.2186778" style="stop-color:#697E49"/>
					<stop  offset="0.3184056" style="stop-color:#6D8944"/>
					<stop  offset="0.4392145" style="stop-color:#6F9140"/>
					<stop  offset="0.6030044" style="stop-color:#70953E"/>
					<stop  offset="1" style="stop-color:#71973E"/>
				</linearGradient>
				<polygon clip-path="url(#SVGID_18_)" fill="url(#SVGID_19_)" points="70.1197281,91.1076126 94.8637238,66.3636093 
					119.6077271,91.1076126 94.8637314,115.8516083 				"/>
			</g>
			<g clip-path="url(#SVGID_5_)">
				<defs>
					<rect id="SVGID_20_" x="34.0737305" y="33.95961" width="110" height="110"/>
				</defs>
				<clipPath id="SVGID_21_">
					<use xlink:href="#SVGID_20_"  overflow="visible"/>
				</clipPath>
				<path clip-path="url(#SVGID_21_)" fill="#FFFFFF" d="M89.6353302,86.0731125
					c-0.1750031-2.2990036-1.0180054-4.4379959-2.3269958-6.4570007c-1.5230026-2.3479996-3.4970093-4.276001-5.7109985-5.9580002
					c-0.9630051-0.7299957-1.9990082-1.362999-3.1070099-2.1110001c0.314003,0.7080002,0.6090088,1.2470016,0.7900085,1.8209991
					c0.1839905,0.5800018,0.3049927,1.1900024,0.3639984,1.7960052c0.2419968,2.4959946-0.3550034,4.8709946-1.1390076,7.2039948
					c-0.3589935,1.0670013-0.6889954,2.137001-0.8909912,3.2350006c0.461998,0.2410049,0.9140015,0.5009995,1.3559952,0.7809982
					c0.0559998-0.3239975,0.1189957-0.6470032,0.1969986-0.9680023c0.4100037-1.6879959,0.9670029-3.3439941,1.2969971-5.0449982
					c0.5540009-2.8589935,0.5040054-5.6639938-1.3149948-8.1789932c0.5360031,0.4039993,1.0540009,0.8259964,1.5569992,1.2649994
					c2.1819992,1.9049988,4.1179962,4.026001,5.5940018,6.5329971c1.4000015,2.3779984,2.2109985,4.8860016,1.9720001,7.5999985
					C88.714325,87.0681152,89.168335,86.5631104,89.6353302,86.0731125 M85.7983322,92.0231094L85.81633,91.973114
					c-0.0319977-4.2020035-1.0279999-8.1840057-2.9250031-11.977005c0.3040009,1.2140045,0.689003,2.4089966,0.9730072,3.6289978
					c0.7259979,3.1160049,1.0299988,6.2100067,0.7419968,9.2720032c0.1790009,0.2819977,0.3509979,0.5680008,0.5039978,0.8630066
					C85.3143311,93.1251068,85.5473328,92.548111,85.7983322,92.0231094"/>
			</g>
		</g>
	</g>
</g>
</svg>
