<?xml version="1.0" encoding="utf-8"?>
<!-- Generator: Adobe Illustrator 21.0.0, SVG Export Plug-In . SVG Version: 6.00 Build 0)  -->
<svg version="1.1" xmlns="http://www.w3.org/2000/svg" xmlns:xlink="http://www.w3.org/1999/xlink" x="0px" y="0px"
	 viewBox="0 0 216.037735 216.037735" style="enable-background:new 0 0 216.037735 216.037735;" xml:space="preserve">
<style type="text/css">
	.st0{fill:url(#SVGID_1_);}
	.st1{fill:url(#SVGID_2_);}
	.st2{fill:#575454;}
	.st3{fill:url(#SVGID_3_);}
	.st4{fill:#FFFFFF;}
	.st5{fill:#8AA65A;}
	.st6{fill:url(#SVGID_4_);}
	.st7{fill:none;}
	.st8{fill:#BFCAA2;}
	.st9{fill:none;stroke:#FFFFFF;stroke-width:3.484;stroke-miterlimit:10;}
	.st10{fill:url(#SVGID_5_);}
	.st11{fill:#A71E27;}
	.st12{fill:url(#SVGID_6_);}
	.st13{fill:url(#SVGID_7_);}
	.st14{fill:url(#SVGID_8_);}
	.st15{fill:none;stroke:#FFFFFF;stroke-width:3.04688;stroke-linejoin:round;}
	.st16{fill:#93A7D6;}
	.st17{fill:#B3C0E2;}
	.st18{fill:url(#SVGID_9_);}
	.st19{fill:#8C8585;}
	.st20{fill:url(#SVGID_10_);}
	.st21{fill:url(#SVGID_11_);}
	.st22{fill:#888181;}
	.st23{fill:url(#SVGID_12_);}
	.st24{fill:#A3A7D4;}
	.st25{fill:none;stroke:#000000;stroke-width:2.0312495;stroke-linecap:round;stroke-linejoin:round;}
	.st26{fill:#7591CA;}
	.st27{fill:#D6DCF0;stroke:#FFFFFF;stroke-width:3.04688;stroke-linejoin:round;}
	.st28{fill:#D6DCF0;}
	.st29{fill:url(#SVGID_13_);}
	.st30{fill:#2E2C2D;}
	.st31{fill:#5D6AB2;}
	.st32{fill:none;stroke:#2E2C2D;stroke-width:2.03125;stroke-linejoin:round;}
	.st33{clip-path:url(#SVGID_15_);}
	.st34{clip-path:url(#SVGID_19_);}
	.st35{clip-path:url(#SVGID_23_);}
	.st36{clip-path:url(#SVGID_27_);}
	.st37{clip-path:url(#SVGID_31_);}
</style>
<metadata><?xpacket begin="﻿" id="W5M0MpCehiHzreSzNTczkc9d"?>
<x:xmpmeta xmlns:x="adobe:ns:meta/" x:xmptk="Adobe XMP Core 5.6-c137 79.159768, 2016/08/11-13:24:42        ">
   <rdf:RDF xmlns:rdf="http://www.w3.org/1999/02/22-rdf-syntax-ns#">
      <rdf:Description rdf:about=""
            xmlns:xmp="http://ns.adobe.com/xap/1.0/"
            xmlns:xmpGImg="http://ns.adobe.com/xap/1.0/g/img/"
            xmlns:xmpTPg="http://ns.adobe.com/xap/1.0/t/pg/"
            xmlns:stDim="http://ns.adobe.com/xap/1.0/sType/Dimensions#"
            xmlns:xmpG="http://ns.adobe.com/xap/1.0/g/"
            xmlns:dc="http://purl.org/dc/elements/1.1/"
            xmlns:xmpMM="http://ns.adobe.com/xap/1.0/mm/"
            xmlns:stEvt="http://ns.adobe.com/xap/1.0/sType/ResourceEvent#"
            xmlns:stRef="http://ns.adobe.com/xap/1.0/sType/ResourceRef#"
            xmlns:pdfx="http://ns.adobe.com/pdfx/1.3/"
            xmlns:pdf="http://ns.adobe.com/pdf/1.3/">
         <xmp:CreatorTool>Adobe Illustrator CC 2017 (Macintosh)</xmp:CreatorTool>
         <xmp:CreateDate>2017-01-04T19:46:44-08:00</xmp:CreateDate>
         <xmp:MetadataDate>2017-01-04T19:46:44-08:00</xmp:MetadataDate>
         <xmp:ModifyDate>2017-01-04T19:46:44-08:00</xmp:ModifyDate>
         <xmp:Thumbnails>
            <rdf:Alt>
               <rdf:li rdf:parseType="Resource">
                  <xmpGImg:width>256</xmpGImg:width>
                  <xmpGImg:height>40</xmpGImg:height>
                  <xmpGImg:format>JPEG</xmpGImg:format>
                  <xmpGImg:image>/9j/4AAQSkZJRgABAgEASABIAAD/7QAsUGhvdG9zaG9wIDMuMAA4QklNA+0AAAAAABAASAAAAAEA&#xA;AQBIAAAAAQAB/+4ADkFkb2JlAGTAAAAAAf/bAIQABgQEBAUEBgUFBgkGBQYJCwgGBggLDAoKCwoK&#xA;DBAMDAwMDAwQDA4PEA8ODBMTFBQTExwbGxscHx8fHx8fHx8fHwEHBwcNDA0YEBAYGhURFRofHx8f&#xA;Hx8fHx8fHx8fHx8fHx8fHx8fHx8fHx8fHx8fHx8fHx8fHx8fHx8fHx8fHx8f/8AAEQgAKAEAAwER&#xA;AAIRAQMRAf/EAaIAAAAHAQEBAQEAAAAAAAAAAAQFAwIGAQAHCAkKCwEAAgIDAQEBAQEAAAAAAAAA&#xA;AQACAwQFBgcICQoLEAACAQMDAgQCBgcDBAIGAnMBAgMRBAAFIRIxQVEGE2EicYEUMpGhBxWxQiPB&#xA;UtHhMxZi8CRygvElQzRTkqKyY3PCNUQnk6OzNhdUZHTD0uIIJoMJChgZhJRFRqS0VtNVKBry4/PE&#xA;1OT0ZXWFlaW1xdXl9WZ2hpamtsbW5vY3R1dnd4eXp7fH1+f3OEhYaHiImKi4yNjo+Ck5SVlpeYmZ&#xA;qbnJ2en5KjpKWmp6ipqqusra6voRAAICAQIDBQUEBQYECAMDbQEAAhEDBCESMUEFURNhIgZxgZEy&#xA;obHwFMHR4SNCFVJicvEzJDRDghaSUyWiY7LCB3PSNeJEgxdUkwgJChgZJjZFGidkdFU38qOzwygp&#xA;0+PzhJSktMTU5PRldYWVpbXF1eX1RlZmdoaWprbG1ub2R1dnd4eXp7fH1+f3OEhYaHiImKi4yNjo&#xA;+DlJWWl5iZmpucnZ6fkqOkpaanqKmqq6ytrq+v/aAAwDAQACEQMRAD8A9U4q7FXlA/PSzP5nf4b4&#xA;Q/oHn9TGo1bn9brTly5cPS5/B0/yq0zG8f1V0d3/ACOfy3ib8fOvL9fV6vmS6R2KuxV2KvP/AM6f&#xA;zPfyD5ZiuLCKK68w6nOlro1nOGMbyEgyPIFZG4Ih3oepXxwE0LZRiZEAcymf5XefIvOvlODVHRIN&#xA;TgZrXV7SMkrDdxUEgWpJ4Ns6bn4SMQbFrOBiSDzDLcLF2KuxV2Kpemu6a+uyaGstdRitxdPFTYRF&#xA;uFa+Nabe+R4xddW04ZcHH/DdJhkmp2KuxV2KsX/MDzdP5b0b17OKOfUJWAgilrwChgHZuJU7cqCn&#xA;c+FcydLgGSVHk15J8I2T7S9Qi1Cwhu4xxEg+JDQlXGzKabfCwIyiceE0zBsIrIpdirsVad0jRndg&#xA;qICzMdgANyTiArAfJH5rWXmbzLqWk8EiijJbSZBUNNEmzluX7R+2AB9n5VzO1GiOOAl82jHnEpEM&#xA;/wAwW92KuxV2KvMvzh/N6XyQ1hZaZBDd6pct608U/IqlsKivwMh5u32fkdspy5eHYO07O7P8ezI1&#xA;Efez7QdbsNc0az1ewfnaXsSyxE9RXqreDKagjxyyMrFuvy4jjkYnmEfkmt2KpZ5h1dNN09pAQJ5P&#xA;ghHuerf7HNd2prPAxEj6zsP1/BtxQ4j5POH0bTEQO+m2QrGZwvpW/P0h1k405cfemcmMOuMOMcXD&#xA;V8+jsvze9cR+Zej+XtXTUtPWQkevH8Ey+46H/ZZ1nZes8fECfqGx/Hm63LDhPkmebFqdiq2WWKGJ&#xA;5ZXWOKNS8kjkKqqoqSSdgAMVfDf5lfmJN55/Mm61yJidI0mOWPRom6enGCFkp4yyHmfoHbK8m4rv&#xA;cnSGp8X80E/Zt9qc/kp+Zb+UPzGj+vy8ND8yxwRajyNEinKhY5/AcZKqx/lYntjjFCu5dVLinxfz&#xA;gD9m/wBr7NyxxnYq7FXYq820+1B88J5nZiGvdWvNIJ34mCG2McYp/wAZ7Vt/fMUD18XnTtpy/c+H&#xA;3QEviT+ovScynUuxV2KrJpooIXmmdY4o1LySMQFVVFSST0AGEC1eH+d9YfV2vL1tkJVIUNKpErji&#xA;pp335Hc7k9s3Wnx8AAcOcrLO/KeqCz1A2shC214RQmgCz0AU9vtgcfnxp3zCzwsX1DbjlWzOMwW9&#xA;2KuxV55+a+tajcJa+StCo+ta8GEm/ER2i19RmPYPxI+QbvTM3RxjE+JL6Y/e05iT6RzLz3UPyp82&#xA;+SoI/M1re29w+mOk0ixcwygEAmjAcl3ow8M2MNbjzHgIO7iywSh6geT3Lyzr9pr+h2mrWu0dylXj&#xA;rUo42dD0+y22abNiOORiXOhMSFhM8qZOxVBa3rFjo2k3eq3z+naWcbSyt3oOijxLHYDxyMpULbMW&#xA;MzkIjmXyV5j1K6143/m2/t47q6vLz0kgleUJFEighEEZQmisq1LdjsScwbv1F6mI8OQwxJiBG9q3&#xA;+dvTPyN83Q6ZrM3lKZmSwvwt5pCyNUxPLEsrQFtuqt/wQ/ystwzqXD3uv7QwHJjGX+IbS+Bq3u2Z&#xA;bonEhQWJoBuSfDFXk3mTzE+sawRb1eFW9G0QV+LelQPFznGdoZTqMu3LkPx5uRA8ISmSFJdZdzG5&#xA;tPggW7CkoWjQL6taf3YlXag3XcZtxiqIhe3Bw377/W45n67Tby15ifR9YAuKpCzejdof2aGlSB3Q&#xA;/wAc1WhnLS5qly5H9bkTPEHrIIIBBqDuDnYuO7FXlP56ebdMTTk8lLq6afquuIeSBfVkMA5EIyAg&#xA;rHOY2R33ooIALMowHkygaILwjy75b8paZBaaLqc5upVUajrMMRVGl/agsoH5BmeQJ6b9OJJbpvld&#xA;2Q5YhwQn8I/bf+9UdQ8v+XTay+WDeKss/K/sJpVCubdT6kUbULEXHovvFTap3rsW6tBiJCA+H2k/&#xA;cX0r+UHm+y1jy9Fpv6QF5fafDEwWUol39UlWtubmFSxSVV+B+oYjlX4ssDiSNm2fYUKdzOlvby3D&#xA;q7JCjSMsaNI5CipCIgZmbwVRU4q8R1v8zPOk76voq6HJZ6rqJT6nbSzcBFZhGeSSVqP6czQ+mrRj&#xA;4QTy5fayu6JbxHigK5g18+X6WIab5k88S6QmhXVuqWWoTRxaEkiusttMr+tJcXQClxDcpdSFX32Q&#xA;d2Fa69A+BcuUrzzA7pD5Db7me+VPzC81WWs2GmappM5sbY/oa+RWea6iu1cuJ0giV2lt1j4I0vHw&#xA;Zfh5ZaObhSFRHnv+PteyZNqdirAPzT8yva28Wj2rlZpystywJH7tWqsZNDs5HxU3p23zP0WGzxFo&#xA;zZKFPMfMkk0vl65ksWBlg9KW6Qn94tu78A6qOnCZQrdfte2Z2L05N+R+9x5/Tt0ZN5b1T9P6bbPC&#xA;xjuZqpOUPFomQD1HX7VKVBX3K165XlhwE2zhLiD1nSL1rq1pKa3EPwTHpU9n6D7Q322BqO2anJGi&#xA;5UTaOyDJCaxqtlpGl3OpX0gjtbSNpZWPgo6DxJOwHjk4QMpADmUE0LeFeVvLn5j+b/MUn5gafew6&#xA;S0ryJaS3AMgaL7HprGFNUXhxJNKkHNpqTixgY+o/S42LikTLvZxrmva/5h8ua35a0/TZbjXrYw2F&#xA;7cELBalpAfVmT1H5en8DUG5oVPfMSEBjMZ2K/HNtkeIGKU+QbPXvy88xweW9cuY7rTNeUyWV1GCq&#xA;peR8VeM1p9oMo6b/AA++TyyOYGXMx+78fpYxAga6F69mA3uxV4N+eXmyfXfMlh+X2jzID6sbajI7&#xA;hI/Xf+7jdvCNTzbruR3GYmeVmg9B2VgGOBzS+DEbXy/cQaRe6POI5Z7TUHSSaJvUSqRp9hgQKNXu&#xA;K/LKuH0fFty5gcwkORh+kpfqmhavFb3PmSxnhhXRDYof3qrcCQwRlHjj7hSP6Vo1Iyiefu+5ydNl&#xA;jQxkfVxe76i+kvy6852vm/yra6vFRbino30I/wB13CAcx8jUMvsRmfjnxC3m9ZpjhyGPTp7nmv8A&#xA;zkh+djeRTpGh2EYmvdRdbnU4zt/uOVijorfsvMQyhu3E+2DLHiiY97iEpFY63BFJb39myXVpPGJr&#xA;aRgeMkMyfCdiCp4tvQ1VvcZzAxnDk5XTEzTGPzpdxoqJaWYVAFUBJhQDYdJszvzw/mfajjCGfU5t&#xA;V1KS4uWjhQgPMYlKxxQwoFJCksTRU7tUn55R4UtVmAiKJ2U5QGeflH5/OutfaNcrwmsv31ivX/RK&#xA;hAhbuYyQKnrXOx1OiGCMeH6aprwZuO7Zz5g1zT9B0O/1vUWKWOnQSXNwVFW4RKWIUEirGlAPHMJy&#xA;H51ea/zB1zzH57ufONy/G/muBPBHWqRRxkCKEf5KIoX3+nFFr9U83yXFxb6rCRHqEk/1qZBUqjxE&#xA;LGADX4aZXGJBLmZssTjjX1fxfDYfYqnzhNcXdxr8zIupwTia2hFeNXCpQVNSFSPGQPF+Oicc4+FI&#xA;k+ocvPi2PyATHyD+bWp+WfzPi84kH0LiUx6naISQ9nJRXj7cigVWWv7SjLHCt+gtleW19ZwXtrIJ&#xA;bW6jSaCUVAaORQysK0O4OKVbFWBfmH5LvbyYa3oaltZdfqMkdQEMN0j2sku+/KNZg/Wnw5TmiSNn&#xA;N0OWEZev6efxG4/V8Uz8xeSNOuYry+tIiNQGmyWdnEPsB1Q+i/jyXZevTJTj6SGnDlrIJHv3/Sh/&#xA;Jnl2Sa4h83ajE9tq2owyvNZuDWITSl4ga0PJIOMZFO2OIbWerLVkCfDE3GO3y/azLLHGQes6ra6R&#xA;pV1qV0aQWsZkfcCtOgFSBUnbfJ44GUgB1QTQt8/a1qst3dXWqXzUaQtLK1KADsBU9hsor4DN/jgI&#xA;gRDrpkyNljvk7zLZWnmp7zVQw02/jktL6NQCPQmUJRgFPIKADstSRk9VhlKAEeYNoxTAlvyTfyB5&#xA;istG82XEEbg6RfStAkxHCihz6Eh5/EoodwTtXetMrzYZSxC/qCYZAJ7ci9sh1GHTrhbuR1SElYrg&#xA;kgAq7BVO5XdWbb6QBU5qTDiFObdMszEbXhH/ADkJ52aS6i8p2bkRw8bjUyKjk7DlFEfEKp5n5jwz&#xA;ddmafbjPwcPU5P4UT+Vf5xeXNK8swaLrzvayWPJYLhY3lR42YuKiMMwZa06eGQ12ikZGcd7Tgziq&#xA;KC8l/ncmnaxrMGpR3N3odzey3Gm3B3uIkkoeBRytVrv1FN6VyB0MpixtVfHZJ1AiUt/Mfz/H5q1a&#xA;1ewR4bCwVhbM9FkZ3ILueJPH7IA37V75m6TS+FE3zLjZ83GduQe0fl95o/xH5bhu5D/pkJ9C8HjI&#xA;gHxDp9oEN+GafVYPDnXTo52HJxxtv8w/ONv5Q8p3utSAPNGvp2cJrR7iTaNTTtXdvYHMPJPhFudo&#xA;9Oc2QR+fufLOk+ZdHibStSvoBPrz6k99d6mZeUhJc/3q9hXiwHj8QPUZryS9ZPDI3EH0cNUyz8rf&#xA;MflCG1vo9e1CO3vPVeR5pjtI7E1ZT35gL0GxFT1GXQAIdbr8OUZLiCYkCq3qujGvMPmbR3u/MaWj&#xA;+tp936EYjBC+o0M4ZGjPxgcIl4chUd+hyGTns5ejwTEYmWxsn3X+3dP/AMpPzG03RPzENrZwm08u&#xA;68Ybd7bkziK4ICxyDluPjYq2/Q17DJYZ0WHaGjM8NnecPufTN7pGk3zK97ZQXToKI00SSEA9gWBp&#xA;mc8owjzBYfmJba9PB5YtYIvL4sx9XRUs0VbksWcoGHPme3L4KnfBSdlFYPzXE9mfS/cBwWVxYc/T&#xA;+sty+ucaDn9W48fq1By640uzeh6L+ZN8og124NvE1rKGaSLTZVNyJx6RaOON6Vi34hmG3WuEbckE&#xA;BlXlLy/e6TaSjUZra7vpJCfrNvbRWtIuK0jIjC1owJqfHJGRPMrQ6J1NDDPC8MyLLDKpSSNwGVlY&#xA;UKsDsQR1GRViHm/yPYP5fuU8t6Jpsess0It5DaWlFUzJ6pPqxsm0XLqD7b4qxmfyX5jh9eJfL+nX&#xA;RtxGUuIrTTEW4rLZcxGkgUoVjS7+3T7QoSaUUqX+C/Mz+YEr5fs00VtUq/8AomkBhp5PSgV2oo6k&#xA;MZD2AxVkfln8sbPT5521eLTtUhkjiWGM6fboY3QHm3ILU8613xVnQAAAAoBsAMUOxV2KuxV2KuxV&#xA;zKrAqwBB6g9MVUvqtr/vlP8AgR/TDxFWIa7befYdbvLvRobe40qG2iFrp0qQVmnd6SsrExOPTT4q&#xA;NIoPQeIeIrsqWOgeb57+w1O61COziZYpdQ0UQpIgZoYxLCslWoFlVyCCeuNldmWiCAGojUEdDxGN&#xA;lV+BVjwQOeTxqzeJAJ/HDZVIPMNjr76pov6HCRWCzu+sUSAloUUMsf71Wb4yOPwUO/UdceIqxUx/&#xA;nDJpq8bO1h1H61NKeX1Vovqr27PFBtU845v3YanWhJK8jjZTsnfl7y35wiv7O/1TVlltmiVr7S3g&#xA;iJEzREMFkTYBZDX4dsbKNmYKiIKIoUeAFMFqp3Nra3ULQXUKTwtTlFKodTQ1FVYEdcBFpjIg2GPe&#xA;ZfLFv+h5v0FpNj+lOcPo87e348fWT1OXNaU9Pl7+G+R8OPcGzx5/zj82EQ+XPzCSC6EuiWcty9iY&#xA;7UiDSxEl290R6p25nhbnko3U9xXHw49wT48/5x+aYWfkXzHqMMrXiW+kzGOExRfVdPljEptnSbj6&#xA;MfMgTlXXk3THw49wXx5/zj82Y6F5V0+wsbVbu2s7jUrehe+jtYoizg1DgKPhPTocIhHuYnNM9T83&#xA;/9k=</xmpGImg:image>
               </rdf:li>
            </rdf:Alt>
         </xmp:Thumbnails>
         <xmpTPg:NPages>1</xmpTPg:NPages>
         <xmpTPg:HasVisibleTransparency>False</xmpTPg:HasVisibleTransparency>
         <xmpTPg:HasVisibleOverprint>True</xmpTPg:HasVisibleOverprint>
         <xmpTPg:MaxPageSize rdf:parseType="Resource">
            <stDim:w>76.213312</stDim:w>
            <stDim:h>76.213312</stDim:h>
            <stDim:unit>Millimeters</stDim:unit>
         </xmpTPg:MaxPageSize>
         <xmpTPg:PlateNames>
            <rdf:Seq>
               <rdf:li>Cyan</rdf:li>
               <rdf:li>Magenta</rdf:li>
               <rdf:li>Yellow</rdf:li>
               <rdf:li>Black</rdf:li>
               <rdf:li>R=0 G=0 B=0</rdf:li>
            </rdf:Seq>
         </xmpTPg:PlateNames>
         <xmpTPg:SwatchGroups>
            <rdf:Seq>
               <rdf:li rdf:parseType="Resource">
                  <xmpG:groupName>Default Swatch Group</xmpG:groupName>
                  <xmpG:groupType>0</xmpG:groupType>
                  <xmpG:Colorants>
                     <rdf:Seq>
                        <rdf:li rdf:parseType="Resource">
                           <xmpG:swatchName>C=62 M=57 Y=55 K=32</xmpG:swatchName>
                           <xmpG:mode>CMYK</xmpG:mode>
                           <xmpG:type>PROCESS</xmpG:type>
                           <xmpG:cyan>62.000000</xmpG:cyan>
                           <xmpG:magenta>56.999999</xmpG:magenta>
                           <xmpG:yellow>55.000001</xmpG:yellow>
                           <xmpG:black>31.999999</xmpG:black>
                        </rdf:li>
                        <rdf:li rdf:parseType="Resource">
                           <xmpG:swatchName>R=0 G=0 B=0</xmpG:swatchName>
                           <xmpG:type>SPOT</xmpG:type>
                           <xmpG:tint>100.000000</xmpG:tint>
                           <xmpG:mode>RGB</xmpG:mode>
                           <xmpG:red>0</xmpG:red>
                           <xmpG:green>0</xmpG:green>
                           <xmpG:blue>0</xmpG:blue>
                        </rdf:li>
                        <rdf:li rdf:parseType="Resource">
                           <xmpG:swatchName>R=0 G=0 B=0</xmpG:swatchName>
                           <xmpG:type>SPOT</xmpG:type>
                           <xmpG:tint>80.000000</xmpG:tint>
                           <xmpG:mode>RGB</xmpG:mode>
                           <xmpG:red>0</xmpG:red>
                           <xmpG:green>0</xmpG:green>
                           <xmpG:blue>0</xmpG:blue>
                        </rdf:li>
                        <rdf:li rdf:parseType="Resource">
                           <xmpG:swatchName>C=23 M=100 Y=94 K=17</xmpG:swatchName>
                           <xmpG:mode>CMYK</xmpG:mode>
                           <xmpG:type>PROCESS</xmpG:type>
                           <xmpG:cyan>23.000000</xmpG:cyan>
                           <xmpG:magenta>100.000000</xmpG:magenta>
                           <xmpG:yellow>94.000000</xmpG:yellow>
                           <xmpG:black>17.000000</xmpG:black>
                        </rdf:li>
                        <rdf:li rdf:parseType="Resource">
                           <xmpG:swatchName>aRed</xmpG:swatchName>
                           <xmpG:type>PROCESS</xmpG:type>
                           <xmpG:tint>100.000000</xmpG:tint>
                           <xmpG:mode>CMYK</xmpG:mode>
                           <xmpG:cyan>23.000000</xmpG:cyan>
                           <xmpG:magenta>100.000000</xmpG:magenta>
                           <xmpG:yellow>94.000000</xmpG:yellow>
                           <xmpG:black>17.000000</xmpG:black>
                        </rdf:li>
                        <rdf:li rdf:parseType="Resource">
                           <xmpG:swatchName>aRed</xmpG:swatchName>
                           <xmpG:type>PROCESS</xmpG:type>
                           <xmpG:tint>80.000000</xmpG:tint>
                           <xmpG:mode>CMYK</xmpG:mode>
                           <xmpG:cyan>23.000000</xmpG:cyan>
                           <xmpG:magenta>100.000000</xmpG:magenta>
                           <xmpG:yellow>94.000000</xmpG:yellow>
                           <xmpG:black>17.000000</xmpG:black>
                        </rdf:li>
                        <rdf:li rdf:parseType="Resource">
                           <xmpG:swatchName>sBlue</xmpG:swatchName>
                           <xmpG:type>PROCESS</xmpG:type>
                           <xmpG:tint>100.000000</xmpG:tint>
                           <xmpG:mode>CMYK</xmpG:mode>
                           <xmpG:cyan>88.999999</xmpG:cyan>
                           <xmpG:magenta>76.999998</xmpG:magenta>
                           <xmpG:yellow>0.000000</xmpG:yellow>
                           <xmpG:black>0.000000</xmpG:black>
                        </rdf:li>
                        <rdf:li rdf:parseType="Resource">
                           <xmpG:swatchName>pBlue</xmpG:swatchName>
                           <xmpG:type>PROCESS</xmpG:type>
                           <xmpG:tint>100.000000</xmpG:tint>
                           <xmpG:mode>CMYK</xmpG:mode>
                           <xmpG:cyan>69.999999</xmpG:cyan>
                           <xmpG:magenta>47.000000</xmpG:magenta>
                           <xmpG:yellow>0.000000</xmpG:yellow>
                           <xmpG:black>0.000000</xmpG:black>
                        </rdf:li>
                        <rdf:li rdf:parseType="Resource">
                           <xmpG:swatchName>pBlue</xmpG:swatchName>
                           <xmpG:type>PROCESS</xmpG:type>
                           <xmpG:tint>60.000000</xmpG:tint>
                           <xmpG:mode>CMYK</xmpG:mode>
                           <xmpG:cyan>69.999999</xmpG:cyan>
                           <xmpG:magenta>47.000000</xmpG:magenta>
                           <xmpG:yellow>0.000000</xmpG:yellow>
                           <xmpG:black>0.000000</xmpG:black>
                        </rdf:li>
                        <rdf:li rdf:parseType="Resource">
                           <xmpG:swatchName>pBlue</xmpG:swatchName>
                           <xmpG:type>PROCESS</xmpG:type>
                           <xmpG:tint>40.000000</xmpG:tint>
                           <xmpG:mode>CMYK</xmpG:mode>
                           <xmpG:cyan>69.999999</xmpG:cyan>
                           <xmpG:magenta>47.000000</xmpG:magenta>
                           <xmpG:yellow>0.000000</xmpG:yellow>
                           <xmpG:black>0.000000</xmpG:black>
                        </rdf:li>
                        <rdf:li rdf:parseType="Resource">
                           <xmpG:swatchName>pBlue</xmpG:swatchName>
                           <xmpG:type>PROCESS</xmpG:type>
                           <xmpG:tint>0.000000</xmpG:tint>
                           <xmpG:mode>CMYK</xmpG:mode>
                           <xmpG:cyan>69.999999</xmpG:cyan>
                           <xmpG:magenta>47.000000</xmpG:magenta>
                           <xmpG:yellow>0.000000</xmpG:yellow>
                           <xmpG:black>0.000000</xmpG:black>
                        </rdf:li>
                        <rdf:li rdf:parseType="Resource">
                           <xmpG:swatchName>pBlue</xmpG:swatchName>
                           <xmpG:type>PROCESS</xmpG:type>
                           <xmpG:tint>20.000000</xmpG:tint>
                           <xmpG:mode>CMYK</xmpG:mode>
                           <xmpG:cyan>69.999999</xmpG:cyan>
                           <xmpG:magenta>47.000000</xmpG:magenta>
                           <xmpG:yellow>0.000000</xmpG:yellow>
                           <xmpG:black>0.000000</xmpG:black>
                        </rdf:li>
                        <rdf:li rdf:parseType="Resource">
                           <xmpG:swatchName>aRed2</xmpG:swatchName>
                           <xmpG:type>PROCESS</xmpG:type>
                           <xmpG:tint>100.000000</xmpG:tint>
                           <xmpG:mode>CMYK</xmpG:mode>
                           <xmpG:cyan>23.000000</xmpG:cyan>
                           <xmpG:magenta>100.000000</xmpG:magenta>
                           <xmpG:yellow>94.000000</xmpG:yellow>
                           <xmpG:black>31.000000</xmpG:black>
                        </rdf:li>
                     </rdf:Seq>
                  </xmpG:Colorants>
               </rdf:li>
            </rdf:Seq>
         </xmpTPg:SwatchGroups>
         <dc:format>image/svg+xml</dc:format>
         <dc:title>
            <rdf:Alt>
               <rdf:li xml:lang="x-default">catalysts</rdf:li>
            </rdf:Alt>
         </dc:title>
         <xmpMM:DocumentID>xmp.did:c1689a97-df17-498c-9372-b7f1a66e1052</xmpMM:DocumentID>
         <xmpMM:InstanceID>xmp.iid:c1689a97-df17-498c-9372-b7f1a66e1052</xmpMM:InstanceID>
         <xmpMM:OriginalDocumentID>xmp.did:fea52983-50db-483e-81a2-59a51ad093a2</xmpMM:OriginalDocumentID>
         <xmpMM:RenditionClass>proof:pdf</xmpMM:RenditionClass>
         <xmpMM:History>
            <rdf:Seq>
               <rdf:li rdf:parseType="Resource">
                  <stEvt:action>converted</stEvt:action>
                  <stEvt:parameters>from application/postscript to application/vnd.adobe.illustrator</stEvt:parameters>
               </rdf:li>
               <rdf:li rdf:parseType="Resource">
                  <stEvt:action>saved</stEvt:action>
                  <stEvt:instanceID>xmp.iid:fea52983-50db-483e-81a2-59a51ad093a2</stEvt:instanceID>
                  <stEvt:when>2017-01-04T18:23:12-08:00</stEvt:when>
                  <stEvt:softwareAgent>Adobe Illustrator CC 2017 (Macintosh)</stEvt:softwareAgent>
                  <stEvt:changed>/</stEvt:changed>
               </rdf:li>
               <rdf:li rdf:parseType="Resource">
                  <stEvt:action>saved</stEvt:action>
                  <stEvt:instanceID>xmp.iid:c1689a97-df17-498c-9372-b7f1a66e1052</stEvt:instanceID>
                  <stEvt:when>2017-01-04T19:46:44-08:00</stEvt:when>
                  <stEvt:softwareAgent>Adobe Illustrator CC 2017 (Macintosh)</stEvt:softwareAgent>
                  <stEvt:changed>/</stEvt:changed>
               </rdf:li>
            </rdf:Seq>
         </xmpMM:History>
         <xmpMM:DerivedFrom rdf:parseType="Resource">
            <stRef:instanceID>uuid:f406d694-e99f-de42-90aa-886afca6bc6d</stRef:instanceID>
            <stRef:documentID>xmp.did:fea52983-50db-483e-81a2-59a51ad093a2</stRef:documentID>
            <stRef:originalDocumentID>xmp.did:fea52983-50db-483e-81a2-59a51ad093a2</stRef:originalDocumentID>
            <stRef:renditionClass>proof:pdf</stRef:renditionClass>
         </xmpMM:DerivedFrom>
         <pdfx:CreatorVersion>21.0.0</pdfx:CreatorVersion>
         <pdf:Producer>Adobe PDF library 15.00</pdf:Producer>
      </rdf:Description>
   </rdf:RDF>
</x:xmpmeta>
                                                                                                    
                                                                                                    
                                                                                                    
                                                                                                    
                                                                                                    
                                                                                                    
                                                                                                    
                                                                                                    
                                                                                                    
                                                                                                    
                                                                                                    
                                                                                                    
                                                                                                    
                                                                                                    
                                                                                                    
                                                                                                    
                                                                                                    
                                                                                                    
                                                                                                    
                                                                                                    
                           
<?xpacket end="w"?>
	</metadata>
<g id="Layer_1">
	<g>
		<linearGradient id="SVGID_1_" gradientUnits="userSpaceOnUse" x1="66.7458725" y1="81.3316956" x2="105.028038" y2="81.3316956">
			<stop  offset="0" style="stop-color:#93A7D6"/>
			<stop  offset="0.3221283" style="stop-color:#98ABD8"/>
			<stop  offset="0.7414151" style="stop-color:#A7B6DE"/>
			<stop  offset="1" style="stop-color:#B3C0E2"/>
		</linearGradient>
		<polygon class="st0" points="66.7458725,98.4780579 84.5720444,130.4914246 105.028038,95.0611877 105.028038,32.1719666 		"/>
		
			<linearGradient id="SVGID_2_" gradientUnits="userSpaceOnUse" x1="27.7478237" y1="138.8414307" x2="80.3551254" y2="138.8414307">
			<stop  offset="0" style="stop-color:#93A7D6"/>
			<stop  offset="0.3221283" style="stop-color:#98ABD8"/>
			<stop  offset="0.7414151" style="stop-color:#A7B6DE"/>
			<stop  offset="1" style="stop-color:#B3C0E2"/>
		</linearGradient>
		<path class="st1" d="M27.7478237,166.023468c1.6863403,2.9210205,1.3796387,2.3900146,3.0656128,5.30896h30.1782246
			l19.3634644-33.5379639l-18.15448-31.4440308L27.7478237,166.023468z"/>
	</g>
	<path class="st2" d="M176.990921,195.5207367l0.9410095-7.0600128l2.9629974,7.0600128h0.9579926l2.9640045-7.0600128
		l0.9400024,7.0600128h2.7299957l-1.8970032-11.8310089h-2.2700043l-2.9459991,7.0769958l-2.9449921-7.0769958h-2.2709961
		l-1.8970032,11.8310089H176.990921z M172.4319305,185.9937286v-2.3040009h-7.875v2.3040009h2.572998v9.5270081h2.7299957
		v-9.5270081H172.4319305z"/>
	<path class="st2" d="M159.1562347,188.1411285v-3.9909973h-13.6300049v3.9909973h4.451004v16.4839935h4.7279968v-16.4839935
		H159.1562347z M142.1432343,185.7161255c-2.3950043-1.7809906-4.6660004-2.026001-6.0780029-2.026001
		c-1.904007,0-3.6230011,0.3990021-5.0659943,1.8720093c-1.2280121,1.2590027-1.7799988,2.7939911-1.7799988,4.6049957
		c0,0.9819946,0.1529999,2.4250031,1.2279968,3.5610046c0.7980042,0.8589935,1.9029999,1.2890015,2.8549957,1.6269989
		l1.6880035,0.5829926c0.5829926,0.2149963,1.8419952,0.6750031,2.3950043,1.1360016
		c0.4289856,0.3679962,0.7059937,0.7980042,0.7059937,1.4730072c0,0.7679901-0.3379974,1.3199921-0.7369995,1.6579895
		c-0.6750031,0.5830078-1.5350037,0.7060089-2.1490021,0.7060089c-0.9519958,0-1.7799988-0.2460022-2.5789948-0.7369995
		c-0.552002-0.3370056-1.3809967-1.0429993-1.9029999-1.5650024l-2.4560089,3.3759918
		c0.7680054,0.7680054,1.9650116,1.7200012,3.0090027,2.2410126c1.2890015,0.644989,2.5780029,0.8600006,4.052002,0.8600006
		c1.3509979,0,3.9909973-0.1840057,5.802002-2.0880127c1.0740051-1.1049957,1.8110046-2.946991,1.8110046-5.0649872
		c0-1.1970062-0.3070068-2.6700134-1.5040131-3.8059998c-0.7979889-0.7680054-1.9029999-1.2280121-2.7939911-1.5660095
		l-1.5350037-0.5829926c-1.3809967-0.5220032-2.0870056-0.7060089-2.5780029-1.1670074
		c-0.3069916-0.276001-0.4609985-0.6439972-0.4609985-1.1349945c0-0.5220032,0.2149963-0.9830017,0.5220032-1.2900085
		c0.5529938-0.6139984,1.3509979-0.7059937,1.9960022-0.7059937c0.5829926,0,1.9029999,0.0919952,3.4380035,1.473999
		L142.1432343,185.7161255z M114.167244,188.0491333c1.8730011,0,3.5,0.7669983,4.5130005,1.7489929
		c0.9209976,0.9210052,1.7809982,2.4869995,1.7809982,4.6049957c0,2.3640137-0.9830017,3.8070068-1.7809982,4.5740051
		c-0.9820023,0.9819946-2.4560013,1.75-4.5430069,1.75c-1.5969925,0-3.0699997-0.4299927-4.3899994-1.6889954
		c-1.2589951-1.227005-1.8729935-2.7320099-1.8729935-4.6040039c0-2.2720032,0.9209976-3.776001,1.810997-4.6360016
		C110.7912445,188.6931305,112.3872375,188.0491333,114.167244,188.0491333 M114.1982422,183.6901245
		c-4.0830002,0-6.6310043,1.6269989-8.012001,3.0080109c-1.8420029,1.8419952-3.1620026,4.8190002-3.1620026,7.7659912
		c0,3.0090027,1.2280045,5.7720032,3.1920013,7.6139984c1.5350037,1.4730072,4.1450043,3.0080109,7.9820023,3.0080109
		c3.4379959,0,6.0169983-1.1670074,7.9199982-3.0080109c2.2110062-2.1490021,3.1930008-4.9429932,3.1930008-7.6750031
		c0-3.1619873-1.2589951-5.8629913-3.1930008-7.7359924C120.0622406,184.6721344,117.391243,183.6901245,114.1982422,183.6901245
		 M88.2982407,188.0491333c1.8720016,0,3.4990005,0.7669983,4.512001,1.7489929
		c0.9209976,0.9210052,1.7809982,2.4869995,1.7809982,4.6049957c0,2.3640137-0.9820023,3.8070068-1.7809982,4.5740051
		c-0.9820023,0.9819946-2.4560013,1.75-4.5429993,1.75c-1.5960007,0-3.0699997-0.4299927-4.3899994-1.6889954
		c-1.2590027-1.227005-1.8730011-2.7320099-1.8730011-4.6040039c0-2.2720032,0.9209976-3.776001,1.8119965-4.6360016
		C84.9212418,188.6931305,86.5172424,188.0491333,88.2982407,188.0491333 M88.3282394,183.6901245
		c-4.0830002,0-6.6309967,1.6269989-8.012001,3.0080109c-1.8419952,1.8419952-3.1619949,4.8190002-3.1619949,7.7659912
		c0,3.0090027,1.2279968,5.7720032,3.1929932,7.6139984c1.5350037,1.4730072,4.1440048,3.0080109,7.9810028,3.0080109
		c3.439003,0,6.0169983-1.1670074,7.9210052-3.0080109c2.2099991-2.1490021,3.1919937-4.9429932,3.1919937-7.6750031
		c0-3.1619873-1.2579956-5.8629913-3.1919937-7.7359924C94.1922379,184.6721344,91.5212402,183.6901245,88.3282394,183.6901245
		 M63.7512398,195.9691315h1.2899971c0.951004,0,2.5480042,0,3.3759995,0.7669983
		c0.3070068,0.276001,0.6450043,0.8289948,0.6450043,1.6580048c0,0.7369995-0.2460022,1.3199921-0.6750031,1.7189941
		c-0.8600006,0.7980042-2.3030014,0.8289948-3.5,0.8289948h-1.1359978V195.9691315z M63.7512398,187.8341217h0.7370033
		c0.859993,0,1.7799988,0,2.4559937,0.5220032c0.3680038,0.276001,0.7980042,0.8280029,0.7980042,1.7190094
		c0,0.8899994-0.3990021,1.5039978-0.8290024,1.8109894c-0.6749954,0.4910126-1.75,0.5830078-2.3939972,0.5830078h-0.7680016
		V187.8341217z M59.0852432,184.1501312v20.4749908h7.7049942c1.2590027,0,3.715004-0.121994,5.4029999-1.7489929
		c0.7980042-0.7980042,1.5970001-2.0879974,1.5970001-4.1450043c0-1.8109894-0.6449966-2.9769897-1.3199997-3.6529999
		c-0.7369995-0.7359924-1.8419952-1.2269897-2.8249969-1.3809967c0.4919968-0.2149963,1.197998-0.6450043,1.7190018-1.5039978
		c0.5529938-0.8899994,0.6759949-1.8110046,0.6759949-2.6090088c0-0.8909912-0.1539993-2.6099854-1.473999-3.8679962
		c-1.5960007-1.5049896-4.112999-1.5659943-5.2180023-1.5659943H59.0852432z"/>
	
		<linearGradient id="SVGID_3_" gradientUnits="userSpaceOnUse" x1="108.1226349" y1="174.5505219" x2="108.1226349" y2="16.2495251">
		<stop  offset="0" style="stop-color:#71973E"/>
		<stop  offset="0.2543815" style="stop-color:#99A839"/>
		<stop  offset="0.6024826" style="stop-color:#CDC22C"/>
		<stop  offset="0.8613473" style="stop-color:#EFD51D"/>
		<stop  offset="1" style="stop-color:#FDDD11"/>
	</linearGradient>
	<path class="st3" d="M104.7036438,16.2495251L16.7246399,168.6285248c1.8810005,3.2570038,1.5390015,2.6650085,3.4190006,5.9219971
		h175.9579926c1.8799896-3.2569885,1.5379944-2.6649933,3.4189911-5.9219971L111.5416412,16.2495251H104.7036438z"/>
	<path class="st4" d="M132.3230286,141.9887238l-45.193985,0.7880096c-3.512001,0.0619965-5.7730026-3.7020111-4.0699997-6.7730103
		l16.5270004-29.8359909l-0.3379974-19.3469925c-0.0410004-2.3660126,1.8439941-4.3170013,4.2099991-4.3590088l10.1650009-0.177002
		c2.3669968-0.0410004,4.3179932,1.8430023,4.3600006,4.2089996l0.3289948,18.8700027l17.8419952,29.7129898
		C137.963028,138.086731,135.8350372,141.9267273,132.3230286,141.9887238 M142.1930389,137.7887268l-20.9529953-34.8709946
		l-0.2900009-16.5909958c1.8680038-0.2830048,3.302002-1.9049988,3.2679977-3.8430023l-0.0069962-0.3809967
		c-0.0370026-2.1100006-1.7929993-3.8059998-3.9029999-3.7690125l-23.3929977,0.4080048
		c-2.1100006,0.0370026-3.8059998,1.7929993-3.7690048,3.9029999l0.0060043,0.3809967
		c0.0329971,1.8460083,1.3799973,3.3740082,3.1299973,3.70401l0.2980042,17.0859909l-19.461998,35.1090012
		c-2.0870056,3.7649994,0.6849976,8.3769989,4.9889984,8.302002l55.3899765-0.9670105
		C141.8010254,146.1847229,144.4100342,141.4787292,142.1930389,137.7887268"/>
	<path class="st5" d="M118.3121414,105.3641281l-0.3290024-18.8699875
		c-0.0419998-2.3660126-1.9930038-4.2510071-4.3600006-4.2100067l-10.1650009,0.1779938
		c-2.3659973,0.0410004-4.2509995,1.9930115-4.2099991,4.3590088l0.3379974,19.3469925l-9.3999939,16.9690018
		c1.3119965-0.1139984,2.6399994-0.1819992,3.9809952-0.1829987c15.9660034-0.0090027,21.1679993,4.2190018,37.533989,4.7070007
		L118.3121414,105.3641281z"/>
	<radialGradient id="SVGID_4_" cx="116.9026566" cy="118.4852676" r="2.9455998" gradientUnits="userSpaceOnUse">
		<stop  offset="0" style="stop-color:#FFFFFF"/>
		<stop  offset="0.02" style="stop-color:#FFFFFF"/>
		<stop  offset="0.98" style="stop-color:#71973E"/>
		<stop  offset="1" style="stop-color:#71973E"/>
	</radialGradient>
	<path class="st6" d="M116.8516388,115.5405273c-1.6269989,0.0279999-2.9219971,1.3700027-2.8939972,2.9960022
		c0.0289993,1.6269989,1.3690033,2.9230042,2.9970016,2.8939972c1.6259995-0.0289993,2.9219971-1.3689957,2.8929977-2.996994
		c-0.0270004-1.6080017-1.3399963-2.8940048-2.9430008-2.8940048
		C116.8876419,115.5395279,116.8696442,115.5395279,116.8516388,115.5405273"/>
	<path class="st7" d="M104.0356445,114.2365265c-1.3010025,0.0230026-2.3370056,1.0960007-2.3150024,2.3970032
		c0.0230026,1.302002,1.0970001,2.3389969,2.3980026,2.3150024c1.3009949-0.0220032,2.336998-1.0950012,2.3149948-2.3970032
		c-0.022995-1.2870026-1.0739975-2.3160019-2.3559952-2.3160019
		C104.0636444,114.235527,104.0496445,114.235527,104.0356445,114.2365265"/>
	<path class="st8" d="M131.7011414,127.6608276c-16.3669968-0.4869995-21.5679932-4.7159958-37.5339966-4.7069931
		c-1.3409958,0.0009995-2.6689987,0.0690002-3.9809952,0.1829987L83.0591507,136.00383
		c-1.7030029,3.0709991,0.5579987,6.8349915,4.0699997,6.772995l45.193985-0.7890015
		c3.5110016-0.0609894,5.6399994-3.901001,3.8309937-6.9109955L131.7011414,127.6608276z"/>
	<path class="st9" d="M201.0247345,167.7532349L113.0507431,15.3832378l-0.5029984-0.8710022h-1.0060043h-6.8389969h-1.0050049
		l-0.5029984,0.8710022l-87.973999,152.3699951l-0.503006,0.8710022l0.503006,0.8709869l1.8110037,3.1380005l1.6080017,2.7840118
		l0.5029907,0.8709869h1.0050049h175.9489899h1.0059967l0.503006-0.8709869l2.0720062-3.5900116l1.3470001-2.3320007
		l0.5029907-0.8709869L201.0247345,167.7532349z M201.0247345,167.7532349L113.0507431,15.3832378l-0.5029984-0.8710022h-1.0060043
		h-6.8389969h-1.0050049l-0.5029984,0.8710022l-87.973999,152.3699951l-0.503006,0.8710022l0.503006,0.8709869l1.8110037,3.1380005
		l1.6080017,2.7840118l0.5029907,0.8709869h1.0050049h175.9489899h1.0059967l0.503006-0.8709869l2.0720062-3.5900116
		l1.3470001-2.3320007l0.5029907-0.8709869L201.0247345,167.7532349z M201.0247345,167.7532349L113.0507431,15.3832378
		l-0.5029984-0.8710022h-1.0060043h-6.8389969h-1.0050049l-0.5029984,0.8710022l-87.973999,152.3699951l-0.503006,0.8710022
		l0.503006,0.8709869l1.8110037,3.1380005l1.6080017,2.7840118l0.5029907,0.8709869h1.0050049h175.9489899h1.0059967
		l0.503006-0.8709869l2.0720062-3.5900116l1.3470001-2.3320007l0.5029907-0.8709869L201.0247345,167.7532349z"/>
	
		<linearGradient id="SVGID_5_" gradientUnits="userSpaceOnUse" x1="161.0646362" y1="156.4185333" x2="199.5206299" y2="156.4185333">
		<stop  offset="0" style="stop-color:#567EBF"/>
		<stop  offset="1" style="stop-color:#3753A4"/>
	</linearGradient>
	<path class="st10" d="M161.0646362,174.5505219h35.0370026c1.8799896-3.2569885,1.5379944-2.6649933,3.4189911-5.9219971
		l-17.5189972-30.3419952L161.0646362,174.5505219z"/>
	<polygon class="st4" points="180.5667419,135.8006287 158.1937408,174.5506287 161.0647278,174.5506287 182.0017395,138.2866211 	
		"/>
	<path d="M34.2432442,138.2867279l-17.5180016,30.3419952c1.8799992,3.2570038,1.5380001,2.6650085,3.4189987,5.9219971h35.0370026
		L34.2432442,138.2867279z"/>
	<polygon class="st4" points="34.2433434,138.2868195 55.1813431,174.550827 58.051342,174.550827 35.6783409,135.800827 	"/>
	<polygon class="st11" points="129.4419403,47.2524261 111.5419464,16.2494335 104.7029419,16.2494335 86.802948,47.2524261 	"/>
	<polygon class="st4" points="85.3678436,49.7387238 130.8778229,49.7387238 129.4418335,47.2527313 86.8028412,47.2527313 	"/>
	<path class="st2" d="M134.6309204,144.4867249l-45.193985,0.7880096c-3.512001,0.0619965-5.7730026-3.7020111-4.0699997-6.7730103
		l16.5270004-29.8359909l-0.3379974-19.3470001c-0.0410004-2.3660049,1.8439941-4.3169937,4.2099991-4.3590012l10.1650009-0.177002
		c2.3669968-0.0410004,4.3179932,1.8430023,4.3600006,4.2089996l0.3289948,18.8700027l17.8419952,29.7129898
		C140.2709198,140.5847321,138.1429291,144.4247284,134.6309204,144.4867249 M144.5009308,140.2867279l-20.9529953-34.8709946
		l-0.2900009-16.5910034c1.8680038-0.2829971,3.302002-1.9049911,3.2679977-3.8429947l-0.0069962-0.3809967
		c-0.0370026-2.1100006-1.7929993-3.8059998-3.9029999-3.7690125l-23.3929977,0.4080048
		c-2.1100006,0.0370026-3.8059998,1.7929993-3.7690048,3.9029999l0.0060043,0.3809967
		c0.0329971,1.8460083,1.3809967,3.3740005,3.1299973,3.7040024l0.2980042,17.0859985l-19.461998,35.1090012
		c-2.0870056,3.7649994,0.6849976,8.3769989,4.9889984,8.302002l55.3899765-0.9670105
		C144.1089172,148.682724,146.717926,143.9767303,144.5009308,140.2867279"/>
	<rect x="68.5040436" y="73.2985229" class="st7" width="85.9166031" height="77.680809"/>
	<path class="st4" d="M132.3230286,141.9887238l-45.193985,0.7880096c-3.512001,0.0619965-5.7730026-3.7020111-4.0699997-6.7730103
		l16.5270004-29.8359909l-0.3379974-19.3469925c-0.0410004-2.3660126,1.8439941-4.3170013,4.2099991-4.3590088l10.1650009-0.177002
		c2.3669968-0.0410004,4.3179932,1.8430023,4.3600006,4.2089996l0.3289948,18.8700027l17.8419952,29.7129898
		C137.963028,138.086731,135.8350372,141.9267273,132.3230286,141.9887238 M142.1930389,137.7887268l-20.9529953-34.8709946
		l-0.2900009-16.5909958c1.8680038-0.2830048,3.302002-1.9049988,3.2679977-3.8430023l-0.0069962-0.3809967
		c-0.0370026-2.1100006-1.7929993-3.8059998-3.9029999-3.7690125l-23.3929977,0.4080048
		c-2.1100006,0.0370026-3.8059998,1.7929993-3.7690048,3.9029999l0.0060043,0.3809967
		c0.0329971,1.8460083,1.3799973,3.3740082,3.1299973,3.70401l0.2980042,17.0859909l-19.461998,35.1090012
		c-2.0870056,3.7649994,0.6849976,8.3769989,4.9889984,8.302002l55.3899765-0.9670105
		C141.8010254,146.1847229,144.4100342,141.4787292,142.1930389,137.7887268"/>
	<path class="st5" d="M93.9764404,122.9588318c-1.276001,0.0070038-2.5410004,0.0700073-3.7900009,0.1780014l-7.128006,12.8660049
		c-1.3429947,2.423996-0.2009964,5.2479858,2.0580063,6.3149872c-0.4530029-1.1839905-0.451004-2.5529938,0.25-3.8170013
		L93.9764404,122.9588318z"/>
	<rect x="0.1226415" y="-0.0754717" class="st7" width="23.0400009" height="23.0399933"/>
	<rect x="193.0826416" y="-0.0754717" class="st7" width="23.0399933" height="23.0399933"/>
	<rect x="0.1226415" y="192.8845215" class="st7" width="23.0400009" height="23.0400009"/>
	<rect x="193.0826416" y="192.8845215" class="st7" width="23.0399933" height="23.0400009"/>
	<radialGradient id="SVGID_6_" cx="110.8401566" cy="109.1727676" r="2.326756" gradientUnits="userSpaceOnUse">
		<stop  offset="0" style="stop-color:#FFFFFF"/>
		<stop  offset="0.02" style="stop-color:#FFFFFF"/>
		<stop  offset="0.98" style="stop-color:#71973E"/>
		<stop  offset="1" style="stop-color:#71973E"/>
	</radialGradient>
	<path class="st12" d="M110.7998581,106.8466873c-1.2851868,0.0221176-2.3081131,1.0821762-2.2859955,2.3665695
		c0.0229034,1.2851791,1.0813904,2.3089066,2.3673553,2.2859955c1.2843933-0.0229034,2.3081131-1.0813828,2.2852097-2.3673553
		c-0.0213318-1.2701721-1.0584793-2.2859955-2.324707-2.2859955
		C110.8282928,106.8459015,110.8140793,106.8459015,110.7998581,106.8466873"/>
	<radialGradient id="SVGID_7_" cx="106.477417" cy="116.4730453" r="2.4578388" gradientUnits="userSpaceOnUse">
		<stop  offset="0" style="stop-color:#FFFFFF"/>
		<stop  offset="0.02" style="stop-color:#FFFFFF"/>
		<stop  offset="0.98" style="stop-color:#71973E"/>
		<stop  offset="1" style="stop-color:#71973E"/>
	</radialGradient>
	<path class="st13" d="M106.434845,114.0159302c-1.3575821,0.0233612-2.4381409,1.1431427-2.4147797,2.4998932
		c0.0242004,1.3575821,1.1423111,2.4389877,2.5007324,2.4147797c1.3567505-0.0241928,2.4381409-1.1423035,2.4139481-2.5007248
		c-0.0225296-1.3417282-1.1181107-2.4147873-2.4556732-2.4147873
		C106.4648895,114.0150909,106.4498749,114.0150909,106.434845,114.0159302"/>
</g>
<g id="Layer_2">
</g>
<g id="Layer_3">
</g>
</svg>
