<?xml version="1.0" encoding="utf-8"?>
<!-- Generator: Adobe Illustrator 21.0.0, SVG Export Plug-In . SVG Version: 6.00 Build 0)  -->
<svg version="1.1" xmlns="http://www.w3.org/2000/svg" xmlns:xlink="http://www.w3.org/1999/xlink" x="0px" y="0px"
	 viewBox="0 0 216.037735 216.037735" style="enable-background:new 0 0 216.037735 216.037735;" xml:space="preserve">
<style type="text/css">
	.st0{fill:url(#SVGID_1_);}
	.st1{fill:url(#SVGID_2_);}
	.st2{fill:#575454;}
	.st3{fill:url(#SVGID_3_);}
	.st4{fill:#FFFFFF;}
	.st5{fill:#8AA65A;}
	.st6{fill:url(#SVGID_4_);}
	.st7{fill:none;}
	.st8{fill:#BFCAA2;}
	.st9{fill:none;stroke:#FFFFFF;stroke-width:3.484;stroke-miterlimit:10;}
	.st10{fill:url(#SVGID_5_);}
	.st11{fill:#A71E27;}
	.st12{fill:url(#SVGID_6_);}
	.st13{fill:url(#SVGID_7_);}
	.st14{fill:url(#SVGID_8_);}
	.st15{fill:none;stroke:#FFFFFF;stroke-width:3.04688;stroke-linejoin:round;}
	.st16{fill:#93A7D6;}
	.st17{fill:#B3C0E2;}
	.st18{fill:url(#SVGID_9_);}
	.st19{fill:#8C8585;}
	.st20{fill:url(#SVGID_10_);}
	.st21{fill:url(#SVGID_11_);}
	.st22{fill:#888181;}
	.st23{fill:url(#SVGID_12_);}
	.st24{fill:#A3A7D4;}
	.st25{fill:none;stroke:#000000;stroke-width:2.0312495;stroke-linecap:round;stroke-linejoin:round;}
	.st26{fill:#7591CA;}
	.st27{fill:#D6DCF0;stroke:#FFFFFF;stroke-width:3.04688;stroke-linejoin:round;}
	.st28{fill:#D6DCF0;}
	.st29{fill:url(#SVGID_13_);}
	.st30{fill:#2E2C2D;}
	.st31{fill:#5D6AB2;}
	.st32{fill:none;stroke:#2E2C2D;stroke-width:2.03125;stroke-linejoin:round;}
	.st33{clip-path:url(#SVGID_15_);}
	.st34{clip-path:url(#SVGID_19_);}
	.st35{clip-path:url(#SVGID_23_);}
	.st36{clip-path:url(#SVGID_27_);}
	.st37{clip-path:url(#SVGID_31_);}
</style>
<metadata><?xpacket begin="﻿" id="W5M0MpCehiHzreSzNTczkc9d"?>
<x:xmpmeta xmlns:x="adobe:ns:meta/" x:xmptk="Adobe XMP Core 5.6-c137 79.159768, 2016/08/11-13:24:42        ">
   <rdf:RDF xmlns:rdf="http://www.w3.org/1999/02/22-rdf-syntax-ns#">
      <rdf:Description rdf:about=""
            xmlns:xmp="http://ns.adobe.com/xap/1.0/"
            xmlns:xmpGImg="http://ns.adobe.com/xap/1.0/g/img/"
            xmlns:xmpTPg="http://ns.adobe.com/xap/1.0/t/pg/"
            xmlns:stDim="http://ns.adobe.com/xap/1.0/sType/Dimensions#"
            xmlns:xmpG="http://ns.adobe.com/xap/1.0/g/"
            xmlns:dc="http://purl.org/dc/elements/1.1/"
            xmlns:xmpMM="http://ns.adobe.com/xap/1.0/mm/"
            xmlns:stEvt="http://ns.adobe.com/xap/1.0/sType/ResourceEvent#"
            xmlns:stRef="http://ns.adobe.com/xap/1.0/sType/ResourceRef#">
         <xmp:CreatorTool>Adobe Illustrator CC 2017 (Macintosh)</xmp:CreatorTool>
         <xmp:CreateDate>2017-01-04T18:23:56-08:00</xmp:CreateDate>
         <xmp:MetadataDate>2017-01-04T18:23:56-08:00</xmp:MetadataDate>
         <xmp:ModifyDate>2017-01-04T18:23:56-08:00</xmp:ModifyDate>
         <xmp:Thumbnails>
            <rdf:Alt>
               <rdf:li rdf:parseType="Resource">
                  <xmpGImg:width>256</xmpGImg:width>
                  <xmpGImg:height>40</xmpGImg:height>
                  <xmpGImg:format>JPEG</xmpGImg:format>
                  <xmpGImg:image>/9j/4AAQSkZJRgABAgEASABIAAD/7QAsUGhvdG9zaG9wIDMuMAA4QklNA+0AAAAAABAASAAAAAEA&#xA;AQBIAAAAAQAB/+4ADkFkb2JlAGTAAAAAAf/bAIQABgQEBAUEBgUFBgkGBQYJCwgGBggLDAoKCwoK&#xA;DBAMDAwMDAwQDA4PEA8ODBMTFBQTExwbGxscHx8fHx8fHx8fHwEHBwcNDA0YEBAYGhURFRofHx8f&#xA;Hx8fHx8fHx8fHx8fHx8fHx8fHx8fHx8fHx8fHx8fHx8fHx8fHx8fHx8fHx8f/8AAEQgAKAEAAwER&#xA;AAIRAQMRAf/EAaIAAAAHAQEBAQEAAAAAAAAAAAQFAwIGAQAHCAkKCwEAAgIDAQEBAQEAAAAAAAAA&#xA;AQACAwQFBgcICQoLEAACAQMDAgQCBgcDBAIGAnMBAgMRBAAFIRIxQVEGE2EicYEUMpGhBxWxQiPB&#xA;UtHhMxZi8CRygvElQzRTkqKyY3PCNUQnk6OzNhdUZHTD0uIIJoMJChgZhJRFRqS0VtNVKBry4/PE&#xA;1OT0ZXWFlaW1xdXl9WZ2hpamtsbW5vY3R1dnd4eXp7fH1+f3OEhYaHiImKi4yNjo+Ck5SVlpeYmZ&#xA;qbnJ2en5KjpKWmp6ipqqusra6voRAAICAQIDBQUEBQYECAMDbQEAAhEDBCESMUEFURNhIgZxgZEy&#xA;obHwFMHR4SNCFVJicvEzJDRDghaSUyWiY7LCB3PSNeJEgxdUkwgJChgZJjZFGidkdFU38qOzwygp&#xA;0+PzhJSktMTU5PRldYWVpbXF1eX1RlZmdoaWprbG1ub2R1dnd4eXp7fH1+f3OEhYaHiImKi4yNjo&#xA;+DlJWWl5iZmpucnZ6fkqOkpaanqKmqq6ytrq+v/aAAwDAQACEQMRAD8A9U4q7FXk4/PSzP5nf4b4&#xA;Q/oHn9TGo/Fz+t1py5cuHpc/g6f5VaZjeP6q6O7/AJHP5bxN+PnXl+vq9YzJdI7FXYq7FXn/AOdP&#xA;5nv5B8sxXFhFFdeYdTnS10aznDGN5CQZHkCsjcEQ70PUr44CaFsoxMiAOZTP8rvPkXnXynBqjokG&#xA;pwM1rq9pGSVhu4qCQLUk8G2dNz8JGINi1nAxJB5hluFi7FXYq7FUvTXdNfXZNDWWuoxW4unipsIi&#xA;3CtfGtNvfI8YuuracMuDj/hukwyTU7FXYq7FWL/mB5un8t6N69nFHPqErAQRS14BQwDs3EqduVBT&#xA;ufCuZOlwDJKjya8k+EbJ9peoRahYQ3cY4iQfEhoSrjZlNNvhYEZROPCaZg2EVkUuxV2KtO6Rozuw&#xA;VEBZmOwAG5JxAVgPkj81rLzN5l1LSeCRRRktpMgqGmiTZy3L9o/bAA+z8q5najRHHAS+bRjziUiG&#xA;f5gt7sVdirsVeZfnD+b0vkhrCy0yCG71S5b1p4p+RVLYVFfgZDzdvs/I7ZTly8Owdp2d2f49mRqI&#xA;+9n2g63Ya5o1nq9g/O0vYlliJ6ivVW8GU1BHjlkZWLdflxHHIxPMI/JNbsVSPzfry6PpLyIwF3P+&#xA;7thtXkerU/yRv92YWv1Pg4yR9R5JAeYQ6DCkayy2NqA0X1gAxwc/SHWThTlx96ZzMsWrMeIcXDV/&#xA;Bz46qX84/MvWPLuqjUdOSRiPrEfwTj/KH7X+yzouzNb4+IE/UNj+PNw8sOEpnmxa3YqtllihieWV&#xA;1jijUvJI5CqqqKkknYADFXw3+ZX5iTeefzJutciYnSNJjlj0aJunpxghZKeMsh5n6B2yvJuK73J0&#xA;hqfF/NBP2bfanP5KfmW/lD8xo/r8vDQ/MscEWo8jRIpyoWOfwHGSqsf5WJ7Y4xQruXVS4p8X84A/&#xA;Zv8Aa+zcscZ2KuxV2KvNtPtQfPCeZ2Yhr3VrzSCd+JghtjHGKf8AGe1bf3zFA9fF507acv3Ph90B&#xA;L4k/qL0nMp1LsVdiqyaaKCF5pnWOKNS8kjEBVVRUkk9ABhAtXh/nfWH1dry9bZCVSFDSqRK44qad&#xA;9+R3O5PbN1p8fAAHDnKyzvynqgs9QNrIQtteEUJoAs9AFPb7YHH58ad8ws8LF9Q245VszjMFvdir&#xA;sVeefmvrWo3CWvkrQqPrWvBhJvxEdotfUZj2D8SPkG70zN0cYxPiS+mP3tOYk+kcy891D8qfNvkq&#xA;CPzNa3tvcPpjpNIsXMMoBAJowHJd6MPDNjDW48x4CDu4ssEoeoHk9y8s6/aa/odpq1rtHcpV461K&#xA;ONnQ9PsttmmzYjjkYlzoTEhYTPKmTsVQWt6xY6NpN3qt8/p2lnG0srd6Doo8Sx2A8cjKVC2zFjM5&#xA;CI5l8leY9SuteN/5tv7eO6ury89JIJXlCRRIoIRBGUJorKtS3Y7EnMG79RepiPDkMMSYgRvat/nb&#xA;0z8jfN0OmazN5SmZksL8LeaQsjVMTyxLK0Bbbqrf8EP8rLcM6lw97r+0MByYxl/iG0vgat7tmW6J&#xA;pmVVLMaKBUk9ABirxnzNr0nmDXma3q9sh9CyjFfiFacgPFz/AAzk9fnObJty5D8ebKKGFujayzGJ&#xA;2sxwgW6CkoWjQKZa0P7v1V2oN13zYHHURC9uDhv33+thx+sFl3lnUXsL4c6rE59O4Q9qGm/upznt&#xA;FqZaPU1PYcpfr/HR2U4ccdnoQNRUdM711zsVeU/np5t0xNOTyUurpp+q64h5IF9WQwDkQjICCsc5&#xA;jZHfeiggAsyjAeTKBogvCPLvlvylpkFpoupzm6lVRqOswxFUaX9qCygfkGZ5Anpv04klum+V3ZDl&#xA;iHBCfwj9t/71R1Dy/wCXTay+WDeKss/K/sJpVCubdT6kUbULEXHovvFTap3rsW6tBiJCA+H2k/cX&#xA;0r+UHm+y1jy9Fpv6QF5fafDEwWUol39UlWtubmFSxSVV+B+oYjlX4ssDiSNm2fYUKdzOlvby3Dq7&#xA;JCjSMsaNI5CipCIgZmbwVRU4q8R1v8zPOk76voq6HJZ6rqJT6nbSzcBFZhGeSSVqP6czQ+mrRj4Q&#xA;Ty5fayu6JbxHigK5g18+X6WIab5k88S6QmhXVuqWWoTRxaEkiusttMr+tJcXQClxDcpdSFX32Qd2&#xA;Fa69A+BcuUrzzA7pD5Db7me+VPzC81WWs2GmappM5sbY/oa+RWea6iu1cuJ0giV2lt1j4I0vHwZf&#xA;h5ZaObhSFRHnv+PteyZNqdirAPzT8yva28Wj2rlZpystywJH7tWqsZNDs5HxU3p23zP0WGzxFozZ&#xA;KFPMfMkk0vl65ksWBlg9KW6Qn94tu78A6qOnCZQrdfte2Z2L05N+R+9x5/Tt0ZN5b1T9P6bbPCxj&#xA;uZqpOUPFomQD1HX7VKVBX3K165XlhwE2zhLiD1nSL1rq1pKa3EPwTHpU9n6D7Q322BqO2anJGi5U&#xA;TaOyDJCaxqtlpGl3OpX0gjtbSNpZWPgo6DxJOwHjk4QMpADmUE0LeFeVvLn5j+b/ADFJ+YGn3sOk&#xA;tK8iWktwDIGi+x6axhTVF4cSTSpBzaak4sYGPqP0uNi4pEy72ca5r2v+YfLmt+WtP02W4162MNhe&#xA;3BCwWpaQH1Zk9R+Xp/A1BuaFT3zEhAYzGdivxzbZHiBilPkGz178vPMcHlvXLmO60zXlMlldRgqq&#xA;XkfFXjNafaDKOm/w++TyyOYGXMx+78fpYxAga6F69mA3uxV4N+eXmyfXfMlh+X2jzID6sbajI7hI&#xA;/Xf+7jdvCNTzbruR3GYmeVmg9B2VgGOBzS+DEbXy/cQaRe6POI5Z7TUHSSaJvUSqRp9hgQKNXuK/&#xA;LKuH0fFty5gcwkORh+kpfqmhavFb3PmSxnhhXRDYof3qrcCQwRlHjj7hSP6Vo1Iyiefu+5ydNljQ&#xA;xkfVxe76i+kvy6852vm/yra6vFRbino30I/3XcIBzHyNQy+xGZ+OfELeb1mmOHIY9Onueaf85Jfn&#xA;U3kf9EaDYxie81Jhc6pGdv8AccrFHjVv2XmIZQ3bifbBkjxAjvcQlLNGvoFMF/ZMl1aXEQltZGB4&#xA;yQzJ8JoCCp4tvQ1U+4zlJk4ctkXTKIT+11S+9NEWG0VVAVQI5tgNh0ny2XbMR/B/sv2N0cAKYRXJ&#xA;rPe30iJGo9SVo0KRxxxoFoqkufsp3Ykt881c4z7Q1UYxjwmVD4d5/Hk5QkMUCT0R/wCVH5iP5jn1&#xA;DS7teFzakz2aj/llLBQhIG5jJAqetc9J1Ggjp4REfpAA+Tp8WfxCb5s28wa5p+g6Hf63qLFLHToJ&#xA;Lm4KircIlLEKCRVjSgHjmI3vzq81/mDrnmPz3c+cbl+N/NcCeCOtUijjIEUI/wAlEUL7/Tii1+qe&#xA;b5Li4t9VhIj1CSf61MgqVR4iFjABr8NMrjEglzM2WJxxr6v4vhsPsVT5wmuLu41+ZkXU4JxNbQiv&#xA;GrhUoKmpCpHjIHi/HROOcfCkSfUOXnxbH5AJj5B/NrU/LP5nxecSD6FxKY9TtEJIezkorx9uRQKr&#xA;LX9pRljhW/QWyvLa+s4L21kEtrdRpNBKKgNHIoZWFaHcHFKtirAvzD8l3t5MNb0NS2suv1GSOoCG&#xA;G6R7WSXfflGswfrT4cpzRJGzm6HLCMvX9PP4jcfq+KZ+YvJGnXMV5fWkRGoDTZLOziH2A6ofRfx5&#xA;LsvXpkpx9JDThy1kEj37/pQ/kzy7JNcQ+btRie21bUYZXms3BrEJpS8QNaHkkHGMinbHENrPVlqy&#xA;BPhibjHb5ftZlljjIPWdVtdI0q61K6NILWMyPuBWnQCpAqTtvk8cDKQA6oJoW+fta1WW7urrVL5q&#xA;NIWllalAB2Aqew2UV8Bm/wAcBECIddMmRssd8neZbK081PeaqGGm38clpfRqAR6EyhKMAp5BQAdl&#xA;qSMnqsMpQAjzBtGKYEt+Sb+QPMVlo3my4gjcHSL6VoEmI4UUOfQkPP4lFDuCdq71plebDKWIX9QT&#xA;DIBPbkXtkOow6dcLdyOqQkrFcEkAFXYKp3K7qzbfSAKnNSYcQpzbplmYja8I/wCchPOzSXUXlOzc&#xA;iOHjcamRUcnYcooj4hVPM/MeGbrszT7cZ+Dh6nJ/Cifyr/OLy5pXlmDRded7WSx5LBcLG8qPGzFx&#xA;URhmDLWnTwyGu0UjIzjvacGcVRQXkv8AO5NO1jWYNSjubvQ7m9luNNuDvcRJJQ8CjlarXfqKb0rk&#xA;DoZTFjaq+OyTqBEpb+Y/n+PzVq1q9gjw2FgrC2Z6LIzuQXc8SeP2QBv2r3zN0ml8KJvmXGz5uM7c&#xA;g9o/L7zR/iPy3DdyH/TIT6F4PGRAPiHT7QIb8M0+qweHOunRzsOTjjbf5h+cbfyh5TvdakAeaNfT&#xA;s4TWj3Em0amnau7ewOYeSfCLc7R6c5sgj8/c+WdJ8y6PE2lalfQCfXn1J7671My8pCS5/vV7CvFg&#xA;PH4geozXkl6yeGRuIPo4apln5W+Y/KENrfR69qEdveeq8jzTHaR2JqynvzAXoNiKnqMugAQ63X4c&#xA;oyXEExIFVvVdGNeYfM2jvd+Y0tH9bT7v0IxGCF9RoZwyNGfjA4RLw5Co79DkMnPZy9HgmIxMtjZP&#xA;uv8Abun/AOUn5jabon5iG1s4TaeXdeMNu9tyZxFcEBY5By3HxsVbfoa9hksM6LDtDRmeGzvOH3Pp&#xA;m90jSb5le9soLp0FEaaJJCAewLA0zOeUYTr9j+Ytrr08Hli2hh8vizH1dFWzRVuSxZygYc+Z7cvg&#xA;qd8FBIUkj/NkT2Z4H0A4LKwsOfp/WW5fXONBz+rceP1ag5dcHCFb0TSPzMvkEGvXTW8TWsoZpItN&#xA;lU3InHpFo443pWKp4hmG3WuEbbhTTKPKegXuk2ko1Ga3u76SQkXNvbRWtIuK0jIjArRgTU+OTMie&#xA;ZRQTqaGGeF4ZkWWGVSkkbgMrKwoVYHYgjqMirEPN/kewfy/cp5b0TTY9ZZoRbyG0tKKpmT1SfVjZ&#xA;NouXUH23xVjM/kvzHD68S+X9OujbiMpcRWmmItxWWy5iNJApQrGl39un2hQk0opUv8F+Zn8wJXy/&#xA;ZporapV/9E0gMNPJ6UCu1FHUhjIewGKsj8s/ljZ6fPO2rxadqkMkcSwxnT7dDG6A825BannWu+Ks&#xA;6AAAAFANgBih2KuxV2KuxV2KuZVYFWAIPUHpiql9Vtf98p/wI/ph4irENdtvPsOt3l3o0NvcaVDb&#xA;RC106VIKzTu9JWViYnHpp8VGkUHoPEPEV2VLHQPN89/YandahHZxMsUuoaKIUkQM0MYlhWSrUCyq&#xA;5BBPXGyuzLRBADURqCOh4jGyq/Aqx4IHPJ41ZvEgE/jhsqkHmGx199U0X9DhIrBZ3fWKJAS0KKGW&#xA;P96rN8ZHH4KHfqOuPEVYqY/zhk01eNnaw6j9amlPL6q0X1V7dnig2qecc37sNTrQkleRxsp2Tvy9&#xA;5b84RX9nf6pqyy2zRK19pbwREiZoiGCyJsAshr8O2NlGzMFREFEUKPACmC1U7m1tbqFoLqFJ4Wpy&#xA;ilUOpoaiqsCOuAi0xkQbDHvMvli3/Q836C0mx/SnOH0edvb8ePrJ6nLmtKeny9/DfI+HHuDZ48/5&#xA;x+bCIfLn5hJBdCXRLOW5exMdqRBpYiS7e6I9U7czwtzyUbqe4rj4ce4J8ef84/NMLPyL5j1GGVrx&#xA;LfSZjHCYovqunyxiU2zpNx9GPmQJyrrybpj4ce4L48/5x+bMdC8q6fYWNqt3bWdxqVvQvfR2sURZ&#xA;wahwFHwnp0OEQj3MTmmep+b/AP/Z</xmpGImg:image>
               </rdf:li>
            </rdf:Alt>
         </xmp:Thumbnails>
         <xmpTPg:MaxPageSize rdf:parseType="Resource">
            <stDim:w>76.213312</stDim:w>
            <stDim:h>76.213312</stDim:h>
            <stDim:unit>Millimeters</stDim:unit>
         </xmpTPg:MaxPageSize>
         <xmpTPg:NPages>1</xmpTPg:NPages>
         <xmpTPg:HasVisibleTransparency>False</xmpTPg:HasVisibleTransparency>
         <xmpTPg:HasVisibleOverprint>True</xmpTPg:HasVisibleOverprint>
         <xmpTPg:PlateNames>
            <rdf:Seq>
               <rdf:li>Cyan</rdf:li>
               <rdf:li>Magenta</rdf:li>
               <rdf:li>Yellow</rdf:li>
               <rdf:li>Black</rdf:li>
               <rdf:li>R=0 G=0 B=0</rdf:li>
            </rdf:Seq>
         </xmpTPg:PlateNames>
         <xmpTPg:SwatchGroups>
            <rdf:Seq>
               <rdf:li rdf:parseType="Resource">
                  <xmpG:groupName>Default Swatch Group</xmpG:groupName>
                  <xmpG:groupType>0</xmpG:groupType>
                  <xmpG:Colorants>
                     <rdf:Seq>
                        <rdf:li rdf:parseType="Resource">
                           <xmpG:swatchName>C=62 M=57 Y=55 K=32</xmpG:swatchName>
                           <xmpG:mode>CMYK</xmpG:mode>
                           <xmpG:type>PROCESS</xmpG:type>
                           <xmpG:cyan>62.000000</xmpG:cyan>
                           <xmpG:magenta>56.999999</xmpG:magenta>
                           <xmpG:yellow>55.000001</xmpG:yellow>
                           <xmpG:black>31.999999</xmpG:black>
                        </rdf:li>
                        <rdf:li rdf:parseType="Resource">
                           <xmpG:swatchName>R=0 G=0 B=0</xmpG:swatchName>
                           <xmpG:type>SPOT</xmpG:type>
                           <xmpG:tint>100.000000</xmpG:tint>
                           <xmpG:mode>RGB</xmpG:mode>
                           <xmpG:red>0</xmpG:red>
                           <xmpG:green>0</xmpG:green>
                           <xmpG:blue>0</xmpG:blue>
                        </rdf:li>
                        <rdf:li rdf:parseType="Resource">
                           <xmpG:swatchName>R=0 G=0 B=0</xmpG:swatchName>
                           <xmpG:type>SPOT</xmpG:type>
                           <xmpG:tint>80.000000</xmpG:tint>
                           <xmpG:mode>RGB</xmpG:mode>
                           <xmpG:red>0</xmpG:red>
                           <xmpG:green>0</xmpG:green>
                           <xmpG:blue>0</xmpG:blue>
                        </rdf:li>
                        <rdf:li rdf:parseType="Resource">
                           <xmpG:swatchName>C=23 M=100 Y=94 K=17</xmpG:swatchName>
                           <xmpG:mode>CMYK</xmpG:mode>
                           <xmpG:type>PROCESS</xmpG:type>
                           <xmpG:cyan>23.000000</xmpG:cyan>
                           <xmpG:magenta>100.000000</xmpG:magenta>
                           <xmpG:yellow>94.000000</xmpG:yellow>
                           <xmpG:black>17.000000</xmpG:black>
                        </rdf:li>
                        <rdf:li rdf:parseType="Resource">
                           <xmpG:swatchName>aRed</xmpG:swatchName>
                           <xmpG:type>PROCESS</xmpG:type>
                           <xmpG:tint>100.000000</xmpG:tint>
                           <xmpG:mode>CMYK</xmpG:mode>
                           <xmpG:cyan>23.000000</xmpG:cyan>
                           <xmpG:magenta>100.000000</xmpG:magenta>
                           <xmpG:yellow>94.000000</xmpG:yellow>
                           <xmpG:black>17.000000</xmpG:black>
                        </rdf:li>
                        <rdf:li rdf:parseType="Resource">
                           <xmpG:swatchName>aRed</xmpG:swatchName>
                           <xmpG:type>PROCESS</xmpG:type>
                           <xmpG:tint>80.000000</xmpG:tint>
                           <xmpG:mode>CMYK</xmpG:mode>
                           <xmpG:cyan>23.000000</xmpG:cyan>
                           <xmpG:magenta>100.000000</xmpG:magenta>
                           <xmpG:yellow>94.000000</xmpG:yellow>
                           <xmpG:black>17.000000</xmpG:black>
                        </rdf:li>
                        <rdf:li rdf:parseType="Resource">
                           <xmpG:swatchName>sBlue</xmpG:swatchName>
                           <xmpG:type>PROCESS</xmpG:type>
                           <xmpG:tint>100.000000</xmpG:tint>
                           <xmpG:mode>CMYK</xmpG:mode>
                           <xmpG:cyan>88.999999</xmpG:cyan>
                           <xmpG:magenta>76.999998</xmpG:magenta>
                           <xmpG:yellow>0.000000</xmpG:yellow>
                           <xmpG:black>0.000000</xmpG:black>
                        </rdf:li>
                        <rdf:li rdf:parseType="Resource">
                           <xmpG:swatchName>pBlue</xmpG:swatchName>
                           <xmpG:type>PROCESS</xmpG:type>
                           <xmpG:tint>100.000000</xmpG:tint>
                           <xmpG:mode>CMYK</xmpG:mode>
                           <xmpG:cyan>69.999999</xmpG:cyan>
                           <xmpG:magenta>47.000000</xmpG:magenta>
                           <xmpG:yellow>0.000000</xmpG:yellow>
                           <xmpG:black>0.000000</xmpG:black>
                        </rdf:li>
                        <rdf:li rdf:parseType="Resource">
                           <xmpG:swatchName>pBlue</xmpG:swatchName>
                           <xmpG:type>PROCESS</xmpG:type>
                           <xmpG:tint>60.000000</xmpG:tint>
                           <xmpG:mode>CMYK</xmpG:mode>
                           <xmpG:cyan>69.999999</xmpG:cyan>
                           <xmpG:magenta>47.000000</xmpG:magenta>
                           <xmpG:yellow>0.000000</xmpG:yellow>
                           <xmpG:black>0.000000</xmpG:black>
                        </rdf:li>
                        <rdf:li rdf:parseType="Resource">
                           <xmpG:swatchName>pBlue</xmpG:swatchName>
                           <xmpG:type>PROCESS</xmpG:type>
                           <xmpG:tint>40.000000</xmpG:tint>
                           <xmpG:mode>CMYK</xmpG:mode>
                           <xmpG:cyan>69.999999</xmpG:cyan>
                           <xmpG:magenta>47.000000</xmpG:magenta>
                           <xmpG:yellow>0.000000</xmpG:yellow>
                           <xmpG:black>0.000000</xmpG:black>
                        </rdf:li>
                        <rdf:li rdf:parseType="Resource">
                           <xmpG:swatchName>pBlue</xmpG:swatchName>
                           <xmpG:type>PROCESS</xmpG:type>
                           <xmpG:tint>0.000000</xmpG:tint>
                           <xmpG:mode>CMYK</xmpG:mode>
                           <xmpG:cyan>69.999999</xmpG:cyan>
                           <xmpG:magenta>47.000000</xmpG:magenta>
                           <xmpG:yellow>0.000000</xmpG:yellow>
                           <xmpG:black>0.000000</xmpG:black>
                        </rdf:li>
                        <rdf:li rdf:parseType="Resource">
                           <xmpG:swatchName>pBlue</xmpG:swatchName>
                           <xmpG:type>PROCESS</xmpG:type>
                           <xmpG:tint>20.000000</xmpG:tint>
                           <xmpG:mode>CMYK</xmpG:mode>
                           <xmpG:cyan>69.999999</xmpG:cyan>
                           <xmpG:magenta>47.000000</xmpG:magenta>
                           <xmpG:yellow>0.000000</xmpG:yellow>
                           <xmpG:black>0.000000</xmpG:black>
                        </rdf:li>
                        <rdf:li rdf:parseType="Resource">
                           <xmpG:swatchName>aRed2</xmpG:swatchName>
                           <xmpG:type>PROCESS</xmpG:type>
                           <xmpG:tint>100.000000</xmpG:tint>
                           <xmpG:mode>CMYK</xmpG:mode>
                           <xmpG:cyan>23.000000</xmpG:cyan>
                           <xmpG:magenta>100.000000</xmpG:magenta>
                           <xmpG:yellow>94.000000</xmpG:yellow>
                           <xmpG:black>31.000000</xmpG:black>
                        </rdf:li>
                     </rdf:Seq>
                  </xmpG:Colorants>
               </rdf:li>
            </rdf:Seq>
         </xmpTPg:SwatchGroups>
         <dc:format>image/svg+xml</dc:format>
         <xmpMM:History>
            <rdf:Seq>
               <rdf:li rdf:parseType="Resource">
                  <stEvt:action>converted</stEvt:action>
                  <stEvt:parameters>from application/postscript to application/vnd.adobe.illustrator</stEvt:parameters>
               </rdf:li>
               <rdf:li rdf:parseType="Resource">
                  <stEvt:action>saved</stEvt:action>
                  <stEvt:instanceID>xmp.iid:fea52983-50db-483e-81a2-59a51ad093a2</stEvt:instanceID>
                  <stEvt:when>2017-01-04T18:23:12-08:00</stEvt:when>
                  <stEvt:softwareAgent>Adobe Illustrator CC 2017 (Macintosh)</stEvt:softwareAgent>
                  <stEvt:changed>/</stEvt:changed>
               </rdf:li>
               <rdf:li rdf:parseType="Resource">
                  <stEvt:action>saved</stEvt:action>
                  <stEvt:instanceID>xmp.iid:b9891d45-aa16-49bd-ac5f-dd4f7c18a263</stEvt:instanceID>
                  <stEvt:when>2017-01-04T18:23:56-08:00</stEvt:when>
                  <stEvt:softwareAgent>Adobe Illustrator CC 2017 (Macintosh)</stEvt:softwareAgent>
                  <stEvt:changed>/</stEvt:changed>
               </rdf:li>
            </rdf:Seq>
         </xmpMM:History>
         <xmpMM:DerivedFrom rdf:parseType="Resource">
            <stRef:instanceID>xmp.iid:fea52983-50db-483e-81a2-59a51ad093a2</stRef:instanceID>
            <stRef:documentID>xmp.did:fea52983-50db-483e-81a2-59a51ad093a2</stRef:documentID>
            <stRef:originalDocumentID>xmp.did:fea52983-50db-483e-81a2-59a51ad093a2</stRef:originalDocumentID>
            <stRef:renditionClass>proof:pdf</stRef:renditionClass>
         </xmpMM:DerivedFrom>
         <xmpMM:DocumentID>xmp.did:b9891d45-aa16-49bd-ac5f-dd4f7c18a263</xmpMM:DocumentID>
         <xmpMM:InstanceID>xmp.iid:b9891d45-aa16-49bd-ac5f-dd4f7c18a263</xmpMM:InstanceID>
         <xmpMM:OriginalDocumentID>xmp.did:fea52983-50db-483e-81a2-59a51ad093a2</xmpMM:OriginalDocumentID>
         <xmpMM:RenditionClass>proof:pdf</xmpMM:RenditionClass>
      </rdf:Description>
   </rdf:RDF>
</x:xmpmeta>
                                                                                                    
                                                                                                    
                                                                                                    
                                                                                                    
                                                                                                    
                                                                                                    
                                                                                                    
                                                                                                    
                                                                                                    
                                                                                                    
                                                                                                    
                                                                                                    
                                                                                                    
                                                                                                    
                                                                                                    
                                                                                                    
                                                                                                    
                                                                                                    
                                                                                                    
                                                                                                    
                           
<?xpacket end="w"?>
	</metadata>
<g id="Layer_1">
</g>
<g id="Layer_2">
	<linearGradient id="SVGID_1_" gradientUnits="userSpaceOnUse" x1="16.7263203" y1="95.3986664" x2="199.5174561" y2="95.3986664">
		<stop  offset="0" style="stop-color:#3753A4"/>
		<stop  offset="0.2009116" style="stop-color:#3956A6"/>
		<stop  offset="0.4629166" style="stop-color:#3F5FAC"/>
		<stop  offset="0.757443" style="stop-color:#4A6EB5"/>
		<stop  offset="1" style="stop-color:#567EBF"/>
	</linearGradient>
	<path class="st0" d="M199.5174561,168.6275177L111.541275,16.2481899c-3.7618103,0-3.0778503,0-6.8386459,0L16.7263203,168.6275177
		c1.8805046,3.257431,1.5386238,2.6652374,3.4190369,5.9216309H196.097641
		C197.9780273,171.2927551,197.6360474,171.8849487,199.5174561,168.6275177L199.5174561,168.6275177z M199.5174561,168.6275177
		L111.541275,16.2481899c-3.7618103,0-3.0778503,0-6.8386459,0L16.7263203,168.6275177
		c1.8805046,3.257431,1.5386238,2.6652374,3.4190369,5.9216309H196.097641
		C197.9780273,171.2927551,197.6360474,171.8849487,199.5174561,168.6275177L199.5174561,168.6275177z M199.5174561,168.6275177
		L111.541275,16.2481899c-3.7618103,0-3.0778503,0-6.8386459,0L16.7263203,168.6275177
		c1.8805046,3.257431,1.5386238,2.6652374,3.4190369,5.9216309H196.097641
		C197.9780273,171.2927551,197.6360474,171.8849487,199.5174561,168.6275177L199.5174561,168.6275177z"/>
	<path class="st9" d="M201.0247345,167.7532349L113.0507431,15.3832378l-0.5029984-0.8710022h-1.0060043h-6.8389969h-1.0050049
		l-0.5029984,0.8710022l-87.973999,152.3699951l-0.503006,0.8710022l0.503006,0.8709869l1.8110037,3.1380005l1.6080017,2.7840118
		l0.5029907,0.8709869h1.0050049h175.9489899h1.0059967l0.503006-0.8709869l2.0720062-3.5900116l1.3470001-2.3320007
		l0.5029907-0.8709869L201.0247345,167.7532349z M201.0247345,167.7532349L113.0507431,15.3832378l-0.5029984-0.8710022h-1.0060043
		h-6.8389969h-1.0050049l-0.5029984,0.8710022l-87.973999,152.3699951l-0.503006,0.8710022l0.503006,0.8709869l1.8110037,3.1380005
		l1.6080017,2.7840118l0.5029907,0.8709869h1.0050049h175.9489899h1.0059967l0.503006-0.8709869l2.0720062-3.5900116
		l1.3470001-2.3320007l0.5029907-0.8709869L201.0247345,167.7532349z M201.0247345,167.7532349L113.0507431,15.3832378
		l-0.5029984-0.8710022h-1.0060043h-6.8389969h-1.0050049l-0.5029984,0.8710022l-87.973999,152.3699951l-0.503006,0.8710022
		l0.503006,0.8709869l1.8110037,3.1380005l1.6080017,2.7840118l0.5029907,0.8709869h1.0050049h175.9489899h1.0059967
		l0.503006-0.8709869l2.0720062-3.5900116l1.3470001-2.3320007l0.5029907-0.8709869L201.0247345,167.7532349z"/>
</g>
<g id="Layer_3">
	<path class="st30" d="M156.7629089,106.056839c-2.6603699-3.4030304-6.4893341-6.0166779-10.7332611-6.9487076
		c-1.8451691-0.4052124-4.2292023-0.7060394-5.8926392,0.411705c-0.2295074,0.154335-0.4287109,0.3567505-0.6297455,0.5543976
		c-3.3865204,3.6113968-5.4492493,8.2307587-8.7256012,11.9394913c-1.6937103,1.917717-3.6233292,3.5076904-6.2377853,3.7885971
		c-0.5902939,0.0624161-1.1860657,0.0908813-1.7690048,0.2111206c-0.1331024,0.0275421-0.7399063,0.2414627-0.7940598,0.2184906
		c-0.0449905-0.0183487-0.294693-0.8647461-0.2836685-0.8363113c-0.3947449-1.040062-0.9391098-1.9929657-1.6101685-2.8705368
		c-0.3139572,0.5581436-0.3754578,0.9106293,0.0532379,1.6707382c0.6068115,1.0740433,1.0098114,2.2270584,1.2411423,3.4415741
		c-0.0064316-0.0302887,0.0936279,0.8473129,0.1340103,0.8730316c0.0495911,0.032135,0.6839371-0.072525,0.8207169-0.0771255
		c0.5948486-0.0174484,1.1860504,0.058754,1.7781677,0.0982208c2.6236267,0.1790161,4.7992935-1.0520248,6.801445-2.6465607
		c3.8693695-3.0835648,6.7032318-7.2742691,10.6644135-10.2430573c-0.02388,0.0164948-0.0495758,0.0284576-0.0734558,0.04496
		c-0.0697632,0.05233-0.1331024,0.0991745-0.1918488,0.1422882c-0.3561707,0.2644119-0.5810852,0.4305649-0.492981,0.3653717
		c-0.1395264,0.1037445-0.2790527,0.2074585-0.4185791,0.3102951c0.3616791-0.2671509,0.7261353-0.5526505,1.1025085-0.817955
		c0.1670685-0.1239395,0.3341522-0.2469559,0.5003052-0.3708649c0.0312042-0.0229416,0.0605927-0.0440674,0.0908966-0.067009
		c0.2753906-0.2038116,0.5498657-0.4075928,0.8243408-0.6113739c-0.1560364,0.1165695-0.3130188,0.2322464-0.4700012,0.3488388
		c0.0761871-0.0569534,0.1514587-0.11203,0.216629-0.1606598c0.5379486-0.3993301,0.3993378-0.2956161,0,0
		c-0.2175598,0.1615601-0.5287628,0.391983-1.0052032,0.7454224c-0.0293579,0.0220184-0.0532227,0.0486374-0.0826111,0.0706863
		c0.2331696-0.1597443,0.4644928-0.3249817,0.7178802-0.4369812c1.8323212-0.8115158,4.1273193-0.1018906,5.8742676,0.6178131
		c4.0180817,1.6551361,7.3348236,4.8938522,9.3636017,8.7072449c3.8840637,7.3017578,2.5144043,15.7996979-0.2138977,23.2464905
		c-0.1716614,0.4663696-0.374527,0.924469-0.5654755,1.3861847c1.9828796-2.9890137,3.1891174-6.5774536,3.8317261-10.1741791
		C161.9826508,121.1799698,161.8559723,112.5727921,156.7629089,106.056839L156.7629089,106.056839z M141.5066528,105.6868668
		c0.0569153-0.0422211,0.0908813-0.067009,0.1560669-0.1156464c0.2625427-0.1946182,0.5260162-0.3901672,0.7885742-0.5847626
		c-0.111084,0.0825882-0.2295074,0.1697998-0.3543396,0.2625351c-0.0293884,0.022049-0.0596924,0.04496-0.0908966,0.067009
		C141.8362122,105.442688,141.6673126,105.5675507,141.5066528,105.6868668L141.5066528,105.6868668L141.5066528,105.6868668z
		 M141.5066528,105.6868668h-0.0009003c-0.0725403,0.0541534-0.1450348,0.1083374-0.2175751,0.1624908
		c0.0082703-0.0064163,0.0183716-0.0137558,0.0266266-0.0202026
		C141.3744812,105.7850876,141.4414825,105.7355576,141.5066528,105.6868668L141.5066528,105.6868668z M141.2881775,105.8493576
		c-0.2735596,0.2028809-0.4186096,0.3102951-0.4663544,0.3451691
		C140.9769745,106.0798111,141.1330414,105.9641037,141.2881775,105.8493576L141.2881775,105.8493576z M139.4429932,100.1301498
		c0.0202026-0.0202866,0.0431519-0.0361099,0.06427-0.0559158c0.0238647-0.0262527,0.0431366-0.0568466,0.0670166-0.082901
		C139.5201263,100.0489578,139.4907379,100.0797195,139.4429932,100.1301498L139.4429932,100.1301498z M139.4429932,100.1301498
		l-0.0009003,0.0010071C138.8334351,100.7738266,138.4561462,101.1724243,139.4429932,100.1301498L139.4429932,100.1301498z
		 M139.4420929,100.1311569c0.1918488-0.2033615,0.398407-0.4213715,0.5966949-0.6303101
		c0.2047119-0.2158279,0.4094238-0.4319077,0.6132355-0.647934c-0.4030151,0.4264984-0.8069458,0.8528366-1.2108612,1.2792511
		C139.4411621,100.132164,139.4420929,100.1316071,139.4420929,100.1311569L139.4420929,100.1311569z M138.4965515,101.1291962
		c0.3148651-0.3322296,0.6297302-0.6646576,0.9446106-0.9970322
		C139.1161804,100.4584045,138.8059082,100.8027344,138.4965515,101.1291962L138.4965515,101.1291962z M140.0387878,99.5008469
		c-0.1542358,0.1634979-0.3093872,0.3267975-0.4645081,0.4904861c0.2864075-0.3018341,0.493866-0.5212479,0.6673737-0.704216
		C140.1764679,99.3553314,140.1094666,99.4264908,140.0387878,99.5008469L140.0387878,99.5008469z M140.2416534,99.287117
		 M89.7027359,72.4517822c-2.3015289,1.0012589-4.5184937,2.1952972-6.5359879,3.5489044
		c-3.8739624,2.599678-7.0818024,6.2042313-8.7322922,10.6071167c-1.6098175,4.2932053-1.8699646,9.5125961,0.0213089,13.7681808
		c0.968399,2.1787033,2.3731232,3.588707,4.7527542,3.9651184c2.5288162,0.3993301,5.107666,0.4360275,7.6565781,0.6279068
		c2.4922791,0.1882019,5.0127335,0.4406204,7.4282684,1.109848c0.9962997,0.2763367,1.989212,0.6352692,2.869133,1.1878967
		c1.1508865,0.723381,1.8213043,1.7579803,2.6222534,2.8219376c0.1688232,0.2239761,0.4612961,0.5094833,0.6661072,0.7766037
		c0.3676529-0.2790604,0.7906647-0.5829086,0.9169006-0.8491364c0.1460495-0.3084488-0.4280701-0.985939-0.6440659-1.4100571
		c-0.6040649-1.1860504-1.0848007-2.3216171-2.0926743-3.2341003c-0.7704849-0.6976852-1.6860046-1.2227707-2.6194305-1.6680145
		c-2.2621384-1.0795364-4.7006989-1.7649307-7.1222992-2.3829422c-2.4770432-0.6318512-5.010437-1.1156998-7.4311981-1.9484558
		c-2.2784042-0.7836609-3.4168091-2.415802-3.9921188-4.730072c-1.1235428-4.5191498,0.0388336-9.6138458,2.3698196-13.5626297
		C82.1148224,77.2185974,85.6787796,74.3489227,89.7027359,72.4517822L89.7027359,72.4517822z M81.5057297,162.7047882
		c3.3983383,2.184845,7.0715256,3.949234,11.1044998,4.5422668c4.9254379,0.7242737,10.0346451-0.358963,14.1694107-3.1597748
		c1.7414551-1.1796417,3.4167862-2.6777954,4.5413513-4.4724731c1.380661-2.2013855,1.2099228-4.0942993,0.1652527-6.3893127
		c-2.1490555-4.722168-5.4033661-9.5683136-5.9771042-14.8265839c-0.1138382-1.0382996-0.0605927-2.072876,0.2854919-3.0643311
		c0.3515854-1.0088501,0.8922806-1.9341888,1.1539307-2.9724884c-0.0468292-0.0082245-0.0936432-0.0100555-0.1395493-0.0183105
		c-0.9427795-0.1726074-1.8644638-0.462677-2.7438965-0.8409119c-0.4121857,1.1190338-1.2328644,1.9828796-1.8067932,3.0092163
		c-0.512619,0.9170837-0.7452469,1.9259338-0.8140106,2.967865c-0.3474579,5.2785339,2.0158463,10.616684,3.3120499,15.6399841
		c0.6306763,2.4409637,0.4700394,4.3347931-1.2714233,6.2635498c-1.4199677,1.5725098-3.3293915,2.7567444-5.2493973,3.6159668
		c-4.5585251,2.0398102-9.7782593,2.2197266-14.5030289,0.6508789
		C82.9598465,163.3942108,82.2369232,163.0417023,81.5057297,162.7047882L81.5057297,162.7047882z M98.5749207,120.283989
		c0.126976,4.4119339,3.1975784,8.4226608,7.4207458,9.7023697c1.6569977,0.5011902,3.393837,0.5489502,5.0517578,0.2147827
		c-0.7793808,0.0890656-1.5661163,0.1221008-2.3583374,0.0275421c-4.3806992-0.5269318-8.1011658-3.9446411-8.9924545-8.2665939
		c-0.8749542-4.2429733,1.0717621-8.794426,4.7797623-11.0490265c1.2025604-0.7316742,2.5373306-1.1649551,3.9014816-1.365097
		c-1.0786514,0.0597076-2.1517868,0.2855377-3.1771927,0.6848373
		C101.1574402,111.8090439,98.4501648,115.9529037,98.5749207,120.283989L98.5749207,120.283989z"/>
	<path class="st31" d="M157.5358582,114.5299835c-2.0287781-3.8133926-5.34552-7.0521088-9.3636017-8.7072449
		c-1.7469482-0.7197037-4.0419464-1.4293289-5.8742676-0.6178131c-0.2533875,0.1119995-0.4847107,0.2772369-0.7178802,0.4369812
		c-3.9611816,2.9687881-6.7950439,7.1594925-10.6644135,10.2421036c-2.0021515,1.5954895-4.1778183,2.8265305-6.801445,2.6475143
		c-0.5921173-0.0403976-1.1833191-0.1156693-1.7781677-0.0982208c-0.1367798,0.0046005-0.7711258,0.1083374-0.8207169,0.0771255
		c-0.0403824-0.0257187-0.1404419-0.9033203-0.1340103-0.8730316c-0.1936951-1.0198898-0.541626-1.9828873-0.9960327-2.9054794
		c-0.284584,0.4075928-0.3543396,0.7582855-0.0982208,1.4835129c0.418602,1.1869736,0.6196365,2.4161682,0.6361618,3.6784134
		c0-0.0311813-0.0559998,0.8675232-0.0192719,0.9005814c0.0440674,0.0403671,0.7004242,0.0477371,0.8381271,0.0679016
		c0.6003799,0.0881424,1.1814728,0.2690048,1.7689896,0.4140091c2.6043701,0.6444626,5.0095215-0.2074509,7.3036041-1.4550171
		c4.4348755-2.4124985,8.0242462-6.1212234,12.5307007-8.4024429c-0.0266266,0.0128555-0.0550537,0.0192719-0.0816956,0.032135
		c-0.1321869,0.0660858-0.264389,0.1321716-0.3965759,0.1982651c0.0633392-0.0311813,0.1221008-0.0605698,0.1936951-0.0963745
		c-0.1477966,0.0734253-0.2653046,0.1322021-0.3543396,0.1771698c-0.032135,0.0156021-0.0633545,0.0312042-0.0954742,0.0477371
		c-0.1230164,0.0615158-0.1762543,0.0881348-0.1377106,0.0688553c-0.1542206,0.0771027-0.3093567,0.1542282-0.4635773,0.2313538
		c0.4103241-0.2047348,0.828949-0.4278183,1.2539825-0.6270065c0.5361023-0.2680511,1.0712891-0.535202,1.6064911-0.8032532
		c-0.4764404,0.2386932-0.9528656,0.4764252-1.4302216,0.7151184c-0.0330658,0.0165253-0.0615082,0.039444-0.094574,0.0559998
		c0.2625427-0.1184235,0.5242004-0.2441788,0.7977448-0.3111954c1.9856415-0.4911575,4.1658783,0.6287994,5.7935028,1.6615524
		c3.7445068,2.3739777,6.5031128,6.2166977,7.8663483,10.4073715c1.3880157,4.2714691,1.1943054,8.6145172,0.12117,12.8024445
		C160.2164154,128.9811401,161.1123962,121.2533951,157.5358582,114.5299835L157.5358582,114.5299835z M144.8637848,110.6514282
		c-0.1165924,0.0578232-0.3066101,0.1532974-0.6490326,0.324028
		C144.4855652,110.8405304,144.7233276,110.7212143,144.8637848,110.6514282L144.8637848,110.6514282z M142.6587524,111.7539673
		c-0.1000671,0.0495605-0.1624756,0.0807343-0.1854401,0.0926971c0.0458984-0.0229416,0.0917969-0.0459137,0.1377106-0.0688553
		C142.6266174,111.7695389,142.6413116,111.7621994,142.6587524,111.7539673L142.6587524,111.7539673z M142.6587524,111.7539673
		c0.0137787-0.0074005,0.0312195-0.0165558,0.0477448-0.0238953c0.0532379-0.0275421,0.1073914-0.0541534,0.1606445-0.0807953
		C142.7872772,111.6896744,142.7193298,111.7236557,142.6587524,111.7539673L142.6587524,111.7539673z M141.5066528,105.6868668
		c0.02388-0.0165024,0.0495758-0.0284653,0.0734558-0.04496c0.0293884-0.022049,0.0532532-0.0486679,0.0826111-0.0706863
		C141.5975342,105.6198578,141.5635681,105.6446457,141.5066528,105.6868668L141.5066528,105.6868668z M141.5066528,105.6868668
		c0.1606598-0.1193161,0.3295593-0.2441788,0.4994049-0.3708649c-0.166153,0.123909-0.3332367,0.2469254-0.5003052,0.3708649
		H141.5066528L141.5066528,105.6868668z M141.2881775,105.8484573c0.0725403-0.0532532,0.1450348-0.1074371,0.2175751-0.1615906
		c-0.3763733,0.2653046-0.7408295,0.5508041-1.1025085,0.817955c0.1395264-0.1028366,0.2790527-0.2065506,0.4185791-0.3102951
		C140.8695679,106.1596527,141.0146179,106.0522385,141.2881775,105.8484573L141.2881775,105.8484573z M141.2881775,105.8484573
		c-0.1551361,0.1156464-0.311203,0.2313538-0.4663544,0.3460693c-0.0881042,0.0651932,0.1368103-0.1009598,0.492981-0.3653717
		C141.3065491,105.8356018,141.2964478,105.8429413,141.2881775,105.8484573L141.2881775,105.8484573z M141.5066528,105.6868668
		c-0.0651703,0.0486908-0.1321716,0.0982208-0.1918488,0.1422882
		C141.3735504,105.7860413,141.4368896,105.7383041,141.5066528,105.6868668L141.5066528,105.6868668L141.5066528,105.6868668z
		 M142.0060577,105.3160019c0.0312042-0.022049,0.0605927-0.04496,0.0908966-0.067009
		C142.0666504,105.2719345,142.037262,105.2930603,142.0060577,105.3160019L142.0060577,105.3160019z M142.0969543,105.2489929
		c0.1248322-0.0927353,0.2432556-0.1799469,0.3543396-0.2625351c0.1569824-0.1165924,0.3130188-0.2322693,0.4700012-0.3488388
		C142.6468201,104.8414001,142.372345,105.0451813,142.0969543,105.2489929L142.0969543,105.2489929z M142.4512939,104.9864578
		c-0.262558,0.1945953-0.5260315,0.3901443-0.7885742,0.5847626c0.4764404-0.3534393,0.7876434-0.5838623,1.0052032-0.7454224
		C142.6027527,104.8744278,142.5274811,104.9295044,142.4512939,104.9864578L142.4512939,104.9864578z M142.667923,104.825798
		 M88.6618195,72.9970016c-3.5872803,1.8907776-6.7479477,4.5619812-8.8260269,8.0828857
		c-2.330986,3.9487-3.4933624,9.0434799-2.3698196,13.5626297c0.5753098,2.31427,1.713829,3.9464111,3.9920197,4.730072
		c2.4208603,0.83284,4.9542542,1.3166046,7.4312973,1.9484558c2.4215012,0.6180115,4.8600769,1.3034058,7.1222992,2.3829422
		c0.9334259,0.4452438,1.8488617,0.9703293,2.6194305,1.6680145c1.0078735,0.9124832,1.4886093,2.0480499,2.0926743,3.2341003
		c0.1058426,0.208374,0.2974243,0.4773788,0.4485245,0.73349c0.39888-0.2028809,0.8292313-0.4195251,0.9921799-0.6499481
		c0.2014008-0.2836533-0.2553864-1.0657806-0.3971252-1.5312271c-0.3969498-1.2989731-0.6788635-2.5244675-1.5298538-3.6196671
		c-0.6504974-0.837204-1.4773331-1.5273285-2.3362045-2.1404114c-2.0821152-1.4851379-4.4110031-2.6063614-6.7345505-3.6561966
		c-2.3769684-1.0737076-4.836853-2.0087738-7.1218338-3.2745209c-2.1504135-1.1910934-3.0052719-3.0327835-3.1731796-5.4599838
		c-0.3283539-4.73983,1.7422791-9.6533203,4.7841568-13.2079926C86.5566483,74.7467804,87.5806046,73.8344955,88.6618195,72.9970016
		L88.6618195,72.9970016z M78.009697,160.7696075c1.7793655,1.1842346,3.6665878,2.1977081,5.7228165,2.880722
		c4.7247696,1.5688477,9.9445038,1.3889313,14.5030289-0.6508789c1.9200058-0.8592224,3.8294296-2.0443726,5.2493973-3.6159668
		c1.7414627-1.9287567,1.9020996-3.8225861,1.2714233-6.2644348c-1.2962036-5.0224152-3.6595078-10.3605652-3.3120499-15.6390991
		c0.0688477-1.0419312,0.3013916-2.051712,0.8138962-2.967865c0.461113-0.8252869,1.0366974-1.5734711,1.4764252-2.4051514
		c-0.0192719-0.0064392-0.0394745-0.0110321-0.0587616-0.0183716c-0.9161606-0.3405609-1.791008-0.7949982-2.6077423-1.3310852
		c-0.6127625,1.0511017-1.5901718,1.7735443-2.3489914,2.7034912c-0.6772919,0.83078-1.0897446,1.8038635-1.3434906,2.8384247
		c-1.2844696,5.2427368,0.1443863,11.024292,0.5571365,16.3009491c0.2005005,2.5657959-0.2962341,4.4394531-2.3877182,6.068924
		c-1.7051926,1.3283081-3.8335724,2.1802216-5.9151306,2.7034912
		C85.7756271,162.3412628,81.7298965,162.067688,78.009697,160.7696075L78.009697,160.7696075z M114.4256592,128.8819733
		L114.4256592,128.8819733C114.4238281,128.8838196,114.4265823,128.8801575,114.4256592,128.8819733L114.4256592,128.8819733z
		 M105.9773026,109.5865479c-4.341774,0.8675156-7.7963867,4.5514526-8.4382401,8.925705
		c-0.6538925,4.4550476,1.7206879,9.0294495,5.7374954,11.0628204c2.7117691,1.3742523,5.8953934,1.4357452,8.6723404,0.381897
		c-1.9204483,0.5636292-3.9905472,0.6233063-5.9532318,0.0293884c-4.2231674-1.2797089-7.2937698-5.2913589-7.4207458-9.7023697
		c-0.1247559-4.3310852,2.5825195-8.4749451,6.6257629-10.0511856c1.5027618-0.5866089,3.1092606-0.7894669,4.6827164-0.6545181
		C108.6018753,109.3515244,107.279953,109.3258362,105.9773026,109.5865479L105.9773026,109.5865479z"/>
	<path class="st4" d="M143.4399872,111.3628769c-4.5523834,2.276619-8.1582947,6.0284882-12.6252747,8.4584427
		c-2.2940826,1.2484665-4.699234,2.0994797-7.3036041,1.4559402c-0.5875168-0.1459274-1.1686096-0.3267899-1.7689896-0.414032
		c-0.1377029-0.0201721-0.7940598-0.0275116-0.8381271-0.0679092c-0.0367279-0.0330276,0.0192719-0.9326553,0.0192719-0.901474
		c-0.0165253-1.2613525-0.2175598-2.4905396-0.6361618-3.6784134c-0.3773117-1.0685806-0.0908813-1.3191757,0.6343307-2.1453705
		c0.9023972-1.0263367,1.7194138-2.1407776,2.4960327-3.2634811c1.4926758-2.1563797,2.8017426-4.4523392,3.8317337-6.8657303
		c2.0673447-4.8429184,2.9137344-10.1216736,2.6814804-15.3713455c-0.2184753-4.9203262-1.2255249-10.1445694-4.2797165-14.1420975
		c-2.9118958-3.8112488-7.3908157-5.7845764-12.027626-6.5210953c-5.1619339-0.8200455-10.8232269-0.47966-15.8937912,0.7714005
		c-4.6214981,1.1404266-8.9550934,3.4769974-12.0739059,7.1222c-3.0417099,3.5546875-5.1123428,8.4680939-4.7840729,13.2080078
		c0.1680908,2.4272003,1.022934,4.2689743,3.1732635,5.4600067c2.2848969,1.2656403,4.7447662,2.2008133,7.1217422,3.2745743
		c2.3236389,1.0498428,4.6523285,2.1708145,6.7344589,3.6562271c0.8589554,0.6127472,1.6857147,1.3028183,2.3362961,2.1400223
		c0.8510818,1.0951996,1.1329956,2.320694,1.5297623,3.6205902c0.1418304,0.4645233,0.5986176,1.2466507,0.3972168,1.5312271
		c-0.258049,0.3635483-1.1962509,0.698616-1.5965042,0.9896088c-0.8917313,0.6490555-1.4920273,1.5486755-2.2939758,2.2417679
		c-0.6074524,0.5241623-1.6162338,0.0348816-2.3930511-0.0899811c-1.444458-0.2312927-2.900238-0.3956299-4.3607712-0.4837646
		c-10.1456375-0.6123047-20.5825806,3.0358276-27.7028465,10.42939c-3.5588188,3.6958694-5.567688,8.4006195-5.0975647,13.5772247
		c0.4657097,5.1260986,2.9746742,10.003418,5.8776741,14.1665497c2.7601471,3.9575043,6.052742,7.6185303,10.3446732,9.9364471
		c4.4695511,2.4124908,9.7461319,3.1569977,14.6878967,1.9149475c2.0815735-0.5232697,4.2100372-1.3751831,5.9151306-2.7034912
		c2.0915833-1.6285553,2.5882111-3.5031281,2.3877182-6.0679932c-0.4126511-5.2775879-1.8415909-11.0591431-0.5570374-16.3018799
		c0.2536316-1.0345612,0.6659164-2.0076447,1.3434906-2.8384247c0.7587357-0.9289856,1.7362976-1.6515045,2.3488083-2.7034912
		c0.8167191,0.536087,1.6908493,0.9905243,2.6079254,1.3320007c0.4158707,0.1542206,0.8436661,0.2910309,1.2751083,0.3956299
		c0.2864151,0.0697937,0.9951096,0.0624542,1.2649994,0.2093048c0.4764481,0.2607422,0.4792099,0.8932343,0.6352692,1.3834381
		c0.3295593,1.0346069,0.7858124,2.0462341,1.2291946,3.0367584c1.6689148,3.7289276,3.8675461,7.2393341,6.6233749,10.2623444
		c2.7723541,3.04039,6.1092758,5.497879,9.7721176,7.3613892c3.8436432,1.9562988,8.1334686,3.5013123,12.4967194,3.4471283
		c7.513855-0.0945587,12.9438019-5.5667419,16.4955444-11.687973c4.0621643-6.9997711,6.9437408-15.2957306,4.3338776-23.3199692
		c-1.3623047-4.191597-4.1209106-8.0334244-7.8654175-10.4082947c-1.6276245-1.032753-3.8078613-2.15271-5.7935028-1.6615524
		c-0.7490845,0.1854095-1.444931,0.6269836-2.1334229,0.9703369c0.9537964-0.4764557,1.907608-0.9529114,2.8604736-1.4302597
		C144.3937683,110.8864517,143.9173431,111.1251068,143.4399872,111.3628769
		C139.6045532,113.2805634,148.3953247,108.8861084,143.4399872,111.3628769L143.4399872,111.3628769z M115.7815475,127.4811325
		c-3.2010651,3.3066177-8.4024506,4.1722946-12.5049896,2.0948563c-4.0169067-2.0333633-6.3914795-6.6086884-5.7375793-11.063736
		c0.6419373-4.3733597,4.0964661-8.0581894,8.438324-8.925705c4.401825-0.8794556,9.0854492,1.1823807,11.3474045,5.0737915
		C119.7307739,118.8014221,118.8981476,124.2644348,115.7815475,127.4811325
		C112.6061783,130.7611084,115.9238358,127.3342209,115.7815475,127.4811325L115.7815475,127.4811325z"/>
	<path class="st2" d="M87.0623932,184.5399933H75.8071747v20.2929993h4.6824036v-8.4589844h6.085907v-3.9519958h-6.085907
		v-3.9299927h6.5728149V184.5399933L87.0623932,184.5399933z M108.0259857,204.8329926h4.8650055l-8.003006-20.2929993h-4.2870026
		l-8.1856995,20.2929993h4.8650055l1.5537109-3.8340149h7.6689758L108.0259857,204.8329926L108.0259857,204.8329926z
		 M100.2049866,197.4120026l2.5240021-6.815979l2.4940033,6.815979H100.2049866L100.2049866,197.4120026z M125.1019897,204.8329926
		v-13.1429749l11.0189972,13.1429749h4.0740051v-20.2929993h-4.6820068v13.0830078l-11.0189972-13.0830078h-4.0739899v20.2929993
		H125.1019897L125.1019897,204.8329926z"/>
	<path class="st2" d="M151.9059906,185.173996v-2.3039856h-7.875v2.3039856h2.5720062v9.5270081h2.7299805v-9.5270081H151.9059906
		L151.9059906,185.173996z M156.4649811,194.701004l0.9400024-7.0599976l2.9640045,7.0599976h0.9579926l2.9640198-7.0599976
		l0.9399872,7.0599976h2.7299957l-1.8970032-11.8309937h-2.269989l-2.9459991,7.0770264l-2.9460144-7.0770264h-2.269989
		l-1.8969879,11.8309937H156.4649811L156.4649811,194.701004z"/>
</g>
</svg>
