<?xml version="1.0" encoding="utf-8"?>
<!-- Generator: Adobe Illustrator 21.0.0, SVG Export Plug-In . SVG Version: 6.00 Build 0)  -->
<svg version="1.1" xmlns="http://www.w3.org/2000/svg" xmlns:xlink="http://www.w3.org/1999/xlink" x="0px" y="0px"
	 viewBox="0 0 216.037735 216.037735" style="enable-background:new 0 0 216.037735 216.037735;" xml:space="preserve">
<style type="text/css">
	.st0{fill:url(#SVGID_1_);}
	.st1{fill:url(#SVGID_2_);}
	.st2{fill:#575454;}
	.st3{fill:url(#SVGID_3_);}
	.st4{fill:#FFFFFF;}
	.st5{fill:#8AA65A;}
	.st6{fill:url(#SVGID_4_);}
	.st7{fill:none;}
	.st8{fill:#BFCAA2;}
	.st9{fill:none;stroke:#FFFFFF;stroke-width:3.484;stroke-miterlimit:10;}
	.st10{fill:url(#SVGID_5_);}
	.st11{fill:#A71E27;}
	.st12{fill:url(#SVGID_6_);}
	.st13{fill:url(#SVGID_7_);}
	.st14{fill:url(#SVGID_8_);}
	.st15{fill:none;stroke:#FFFFFF;stroke-width:3.04688;stroke-linejoin:round;}
	.st16{fill:#93A7D6;}
	.st17{fill:#B3C0E2;}
	.st18{fill:url(#SVGID_9_);}
	.st19{fill:#8C8585;}
	.st20{fill:url(#SVGID_10_);}
	.st21{fill:url(#SVGID_11_);}
	.st22{fill:#888181;}
	.st23{fill:url(#SVGID_12_);}
	.st24{fill:#A3A7D4;}
	.st25{fill:none;stroke:#000000;stroke-width:2.0312495;stroke-linecap:round;stroke-linejoin:round;}
	.st26{fill:#7591CA;}
	.st27{fill:#D6DCF0;stroke:#FFFFFF;stroke-width:3.04688;stroke-linejoin:round;}
	.st28{fill:#D6DCF0;}
	.st29{fill:url(#SVGID_13_);}
	.st30{fill:#2E2C2D;}
	.st31{fill:#5D6AB2;}
	.st32{fill:none;stroke:#2E2C2D;stroke-width:2.03125;stroke-linejoin:round;}
	.st33{fill:url(#SVGID_14_);}
	.st34{fill:url(#SVGID_15_);}
	.st35{fill:url(#SVGID_16_);}
	.st36{fill:url(#SVGID_17_);}
	.st37{fill:url(#SVGID_18_);}
</style>
<metadata><?xpacket begin="﻿" id="W5M0MpCehiHzreSzNTczkc9d"?>
<x:xmpmeta xmlns:x="adobe:ns:meta/" x:xmptk="Adobe XMP Core 5.6-c137 79.159768, 2016/08/11-13:24:42        ">
   <rdf:RDF xmlns:rdf="http://www.w3.org/1999/02/22-rdf-syntax-ns#">
      <rdf:Description rdf:about=""
            xmlns:xmp="http://ns.adobe.com/xap/1.0/"
            xmlns:xmpGImg="http://ns.adobe.com/xap/1.0/g/img/"
            xmlns:xmpTPg="http://ns.adobe.com/xap/1.0/t/pg/"
            xmlns:stDim="http://ns.adobe.com/xap/1.0/sType/Dimensions#"
            xmlns:xmpG="http://ns.adobe.com/xap/1.0/g/"
            xmlns:dc="http://purl.org/dc/elements/1.1/"
            xmlns:xmpMM="http://ns.adobe.com/xap/1.0/mm/"
            xmlns:stEvt="http://ns.adobe.com/xap/1.0/sType/ResourceEvent#"
            xmlns:stRef="http://ns.adobe.com/xap/1.0/sType/ResourceRef#"
            xmlns:pdfx="http://ns.adobe.com/pdfx/1.3/"
            xmlns:pdf="http://ns.adobe.com/pdf/1.3/">
         <xmp:CreatorTool>Adobe Illustrator CC 2017 (Macintosh)</xmp:CreatorTool>
         <xmp:CreateDate>2017-01-06T15:06:45-08:00</xmp:CreateDate>
         <xmp:MetadataDate>2017-01-06T15:06:45-08:00</xmp:MetadataDate>
         <xmp:ModifyDate>2017-01-06T15:06:45-08:00</xmp:ModifyDate>
         <xmp:Thumbnails>
            <rdf:Alt>
               <rdf:li rdf:parseType="Resource">
                  <xmpGImg:width>256</xmpGImg:width>
                  <xmpGImg:height>40</xmpGImg:height>
                  <xmpGImg:format>JPEG</xmpGImg:format>
                  <xmpGImg:image>/9j/4AAQSkZJRgABAgEASABIAAD/7QAsUGhvdG9zaG9wIDMuMAA4QklNA+0AAAAAABAASAAAAAEA&#xA;AQBIAAAAAQAB/+4ADkFkb2JlAGTAAAAAAf/bAIQABgQEBAUEBgUFBgkGBQYJCwgGBggLDAoKCwoK&#xA;DBAMDAwMDAwQDA4PEA8ODBMTFBQTExwbGxscHx8fHx8fHx8fHwEHBwcNDA0YEBAYGhURFRofHx8f&#xA;Hx8fHx8fHx8fHx8fHx8fHx8fHx8fHx8fHx8fHx8fHx8fHx8fHx8fHx8fHx8f/8AAEQgAKAEAAwER&#xA;AAIRAQMRAf/EAaIAAAAHAQEBAQEAAAAAAAAAAAQFAwIGAQAHCAkKCwEAAgIDAQEBAQEAAAAAAAAA&#xA;AQACAwQFBgcICQoLEAACAQMDAgQCBgcDBAIGAnMBAgMRBAAFIRIxQVEGE2EicYEUMpGhBxWxQiPB&#xA;UtHhMxZi8CRygvElQzRTkqKyY3PCNUQnk6OzNhdUZHTD0uIIJoMJChgZhJRFRqS0VtNVKBry4/PE&#xA;1OT0ZXWFlaW1xdXl9WZ2hpamtsbW5vY3R1dnd4eXp7fH1+f3OEhYaHiImKi4yNjo+Ck5SVlpeYmZ&#xA;qbnJ2en5KjpKWmp6ipqqusra6voRAAICAQIDBQUEBQYECAMDbQEAAhEDBCESMUEFURNhIgZxgZEy&#xA;obHwFMHR4SNCFVJicvEzJDRDghaSUyWiY7LCB3PSNeJEgxdUkwgJChgZJjZFGidkdFU38qOzwygp&#xA;0+PzhJSktMTU5PRldYWVpbXF1eX1RlZmdoaWprbG1ub2R1dnd4eXp7fH1+f3OEhYaHiImKi4yNjo&#xA;+DlJWWl5iZmpucnZ6fkqOkpaanqKmqq6ytrq+v/aAAwDAQACEQMRAD8A9U4q7FXlA/PSzP5nf4b4&#xA;Q/oHn9TGo1bn9brTly5cPS5/B0/yq0zG8f1V0d3/ACOfy3ib8fOvL9fV6vmS6R2KuxV2KvP/AM6f&#xA;zPfyD5ZiuLCKK68w6nOlro1nOGMbyEgyPIFZG4Ih3oepXxwE0LZRiZEAcymf5XefIvOvlODVHRIN&#xA;TgZrXV7SMkrDdxUEgWpJ4Ns6bn4SMQbFrOBiSDzDLcLF2KuxV2Kpemu6a+uyaGstdRitxdPFTYRF&#xA;uFa+Nabe+R4xddW04ZcHH/DdJhkmp2KuxV2KsX/MDzdP5b0b17OKOfUJWAgilrwChgHZuJU7cqCn&#xA;c+FcydLgGSVHk15J8I2T7S9Qi1Cwhu4xxEg+JDQlXGzKabfCwIyiceE0zBsIrIpdirsVad0jRndg&#xA;qICzMdgANyTiArAfJH5rWXmbzLqWk8EiijJbSZBUNNEmzluX7R+2AB9n5VzO1GiOOAl82jHnEpEM&#xA;/wAwW92KuxV2KvMvzh/N6XyQ1hZaZBDd6pct608U/IqlsKivwMh5u32fkdspy5eHYO07O7P8ezI1&#xA;Efez7QdbsNc0az1ewfnaXsSyxE9RXqreDKagjxyyMrFuvy4jjkYnmEfkmt2KpZ5h1dNN09pAQJ5P&#xA;ghHuerf7HNd2prPAxEj6zsP1/BtxQ4j5POH0bTEQO+m2QrGZwvpW/P0h1k405cfemcmMOuMOMcXD&#xA;V8+jsvze9cR+Zej+XtXTUtPWQkevH8Ey+46H/ZZ1nZes8fECfqGx/Hm63LDhPkmebFqdiq2WWKGJ&#xA;5ZXWOKNS8kjkKqqoqSSdgAMVfDf5lfmJN55/Mm61yJidI0mOWPRom6enGCFkp4yyHmfoHbK8m4rv&#xA;cnSGp8X80E/Zt9qc/kp+Zb+UPzGj+vy8ND8yxwRajyNEinKhY5/AcZKqx/lYntjjFCu5dVLinxfz&#xA;gD9m/wBr7NyxxnYq7FXYq820+1B88J5nZiGvdWvNIJ34mCG2McYp/wAZ7Vt/fMUD18XnTtpy/c+H&#xA;3QEviT+ovScynUuxV2KrJpooIXmmdY4o1LySMQFVVFSST0AGEC1eH+d9YfV2vL1tkJVIUNKpErji&#xA;pp335Hc7k9s3Wnx8AAcOcrLO/KeqCz1A2shC214RQmgCz0AU9vtgcfnxp3zCzwsX1DbjlWzOMwW9&#xA;2KuxV55+a+tajcJa+StCo+ta8GEm/ER2i19RmPYPxI+QbvTM3RxjE+JL6Y/e05iT6RzLz3UPyp82&#xA;+SoI/M1re29w+mOk0ixcwygEAmjAcl3ow8M2MNbjzHgIO7iywSh6geT3Lyzr9pr+h2mrWu0dylXj&#xA;rUo42dD0+y22abNiOORiXOhMSFhM8qZOxVBa3rFjo2k3eq3z+naWcbSyt3oOijxLHYDxyMpULbMW&#xA;MzkIjmXyX5h1G5183/m2/t47q6vLwRJBK8oSKJFBCIIyhNFZVqW7HYk5gk36i9VCPhyGGJMQI3tW&#xA;/wA7emfkd5uh0vWpvKUzMlhfhbzSFkapieWMStAW26q3/BD/ACstwzqXD3uu7RwHJjGX+IbS+Bq3&#xA;uuZbonEhQWJoBuSfDFXk3mTzE+sawRb1eFW9G0QV+LelQPFznGdoZTqMu3LkPx5uRA8ISmSFJdZd&#xA;zG5tPggW7CkoWjQL6taf3YlXag3XcZtxiqIhe3Bw377/AFuOZ+u028teYn0fWALiqQs3o3aH9mhp&#xA;Ugd0P8c1WhnLS5qly5H9bkTPEHrIIIBBqDuDnYuO7FXlP56ebdMTTk8lLq6afquuIeSBfVkMA5EI&#xA;yAgrHOY2R33ooIALMowHkygaILwjy75b8paZBaaLqc5upVUajrMMRVGl/agsoH5BmeQJ6b9OJJbp&#xA;vld2Q5YhwQn8I/bf+9UdQ8v+XTay+WDeKss/K/sJpVCubdT6kUbULEXHovvFTap3rsW6tBiJCA+H&#xA;2k/cX0r+UHm+y1jy9Fpv6QF5fafDEwWUol39UlWtubmFSxSVV+B+oYjlX4ssDiSNm2fYUKdzOlvb&#xA;y3Dq7JCjSMsaNI5CipCIgZmbwVRU4q8R1v8AMzzpO+r6KuhyWeq6iU+p20s3ARWYRnkklaj+nM0P&#xA;pq0Y+EE8uX2sruiW8R4oCuYNfPl+liGm+ZPPEukJoV1bqllqE0cWhJIrrLbTK/rSXF0ApcQ3KXUh&#xA;V99kHdhWuvQPgXLlK88wO6Q+Q2+5nvlT8wvNVlrNhpmqaTObG2P6GvkVnmuortXLidIIldpbdY+C&#xA;NLx8GX4eWWjm4UhUR57/AI+17Jk2p2KsA/NPzK9rbxaPauVmnKy3LAkfu1aqxk0OzkfFTenbfM/R&#xA;YbPEWjNkoU8x8ySTS+XrmSxYGWD0pbpCf3i27vwDqo6cJlCt1+17ZnYvTk35H73Hn9O3Rk3lvVP0&#xA;/pts8LGO5mqk5Q8WiZAPUdftUpUFfcrXrleWHATbOEuIPWdIvWurWkprcQ/BMelT2foPtDfbYGo7&#xA;ZqckaLlRNo7IMkJrGq2WkaXc6lfSCO1tI2llY+CjoPEk7AeOThAykAOZQTQt4V5W8ufmP5v8xSfm&#xA;Bp97DpLSvIlpLcAyBovsemsYU1ReHEk0qQc2mpOLGBj6j9LjYuKRMu9nGua9r/mHy5rflrT9NluN&#xA;etjDYXtwQsFqWkB9WZPUfl6fwNQbmhU98xIQGMxnYr8c22R4gYpT5Bs9e/LzzHB5b1y5jutM15TJ&#xA;ZXUYKql5HxV4zWn2gyjpv8Pvk8sjmBlzMfu/H6WMQIGuhevZgN7sVeDfnp5tm1zzHYfl/pMyD97G&#xA;2ouzBU9Z/wC7jZj2jU82HiR3GYmedmg9B2Vpxjgc0vgxC10Ka30e80mYRyy2uoOjyxtzWqRp9kg0&#xA;+Kvff5ZTXo+Lfky3mEh1h+koDVdE1aKC48xWM0cI0b6iB+8VZw/oIVdF6/CVHz3pWhwSG9+77m/T&#xA;5YkCB/i4v90X0l+XXnO183+VbXV4qLcU9G+hH+67hAOY+RqGX2IzPxz4hbzes0xw5DHp09zzX/nJ&#xA;D87G8inSNDsIxNe6i63Opxnb/ccrFHRW/ZeYhlDduJ9sGWPFEx73EJSKx1uCKS3v7NkurSeMTW0j&#xA;A8ZIZk+E7EFTxbehqre4zmBjOHJyumJmmMfnS7jRUS0swqAKoCTCgGw6TZnfnh/M+1HGEM+pzarq&#xA;UlxctHChAeYxKVjihhQKSFJYmip3apPzyjwparMBEUTspygM8/KPz+dda+0a5XhNZfvrFev+iVCB&#xA;C3cxkgVPWudjqdEMEY8P01TXgzcd2znzBrmn6Dod/reosUsdOgkubgqKtwiUsQoJFWNKAeOYTkPz&#xA;q81/mDrnmPz3c+cbl+N/NcCeCOtUijjIEUI/yURQvv8ATii1+qeb5Li4t9VhIj1CSf61MgqVR4iF&#xA;jABr8NMrjEglzM2WJxxr6v4vhsPsVT5wmuLu41+ZkXU4JxNbQivGrhUoKmpCpHjIHi/HROOcfCkS&#xA;fUOXnxbH5AJj5B/NrU/LP5nxecSD6FxKY9TtEJIezkorx9uRQKrLX9pRljhW/QWyvLa+s4L21kEt&#xA;rdRpNBKKgNHIoZWFaHcHFKtirAvzD8l3t5MNb0NS2suv1GSOoCGG6R7WSXfflGswfrT4cpzRJGzm&#xA;6HLCMvX9PP4jcfq+KZ+YvJGnXMV5fWkRGoDTZLOziH2A6ofRfx5LsvXpkpx9JDThy1kEj37/AKUP&#xA;5M8uyTXEPm7UYnttW1GGV5rNwaxCaUvEDWh5JBxjIp2xxDaz1ZasgT4Ym4x2+X7WZZY4yD1nVbXS&#xA;NKutSujSC1jMj7gVp0AqQKk7b5PHAykAOqCaFvn7WtVlu7q61S+ajSFpZWpQAdgKnsNlFfAZv8cB&#xA;ECIddMmRssd8neZbK081PeaqGGm38clpfRqAR6EyhKMAp5BQAdlqSMnqsMpQAjzBtGKYEt+Sb+QP&#xA;MVlo3my4gjcHSL6VoEmI4UUOfQkPP4lFDuCdq71plebDKWIX9QTDIBPbkXtkOow6dcLdyOqQkrFc&#xA;EkAFXYKp3K7qzbfSAKnNSYcQpzbplmYja8I/5yE87NJdReU7NyI4eNxqZFRydhyiiPiFU8z8x4Zu&#xA;uzNPtxn4OHqcn8KJ/Kv84vLmleWYNF153tZLHksFwsbyo8bMXFRGGYMtadPDIa7RSMjOO9pwZxVF&#xA;BeS/zuTTtY1mDUo7m70O5vZbjTbg73ESSUPAo5Wq136im9K5A6GUxY2qvjsk6gRKW/mP5/j81ata&#xA;vYI8NhYKwtmeiyM7kF3PEnj9kAb9q98zdJpfCib5lxs+bjO3IPaPy+80f4j8tw3ch/0yE+heDxkQ&#xA;D4h0+0CG/DNPqsHhzrp0c7Dk4423+YfnG38oeU73WpAHmjX07OE1o9xJtGpp2ru3sDmHknwi3O0e&#xA;nObII/P3PmjQfMPleNNB1HUIjceZp9XkvL/UTNyYAvsZlK9CxDAV2ILV3K5g29Rlw5PVEbQ4aATf&#xA;8vde8rwW17DrN9HDfJPI000rCkjs27IT1DcR08KnqMlEAhw9XjyCdgExIFVvXklOr+YdDdvM5t2M&#xA;2nTpaQ+iGCmWWKcENEfjA4RIy8hUb13BwT5uRpcMwI3sbkfcD+3dkH5afmHoeg/ma1npMZtvLGvC&#xA;3he35mQRXLIODjkFK0kYow3617AZPFOj5NWt0c8mC5bzhfyfR97pGk3zK97ZQXToKI00SSEA9gWB&#xA;pma8uwjzBYfmJba9PB5YtYIvL4sx9XRUs0VbksWcoGHPme3L4KnfBSdlFYPzXE9mfS/cBwWVxYc/&#xA;T+sty+ucaDn9W48fq1By640uzeh6L+ZN8og124NvE1rKGaSLTZVNyJx6RaOON6Vi34hmG3WuEbck&#xA;EBlXlLy/e6TaSjUZra7vpJCfrNvbRWtIuK0jIjC1owJqfHJGRPMrQ6J1NDDPC8MyLLDKpSSNwGVl&#xA;YUKsDsQR1GRViHm/yPYP5fuU8t6Jpsess0It5DaWlFUzJ6pPqxsm0XLqD7b4qxmfyX5jh9eJfL+n&#xA;XRtxGUuIrTTEW4rLZcxGkgUoVjS7+3T7QoSaUUqX+C/Mz+YEr5fs00VtUq/+iaQGGnk9KBXaijqQ&#xA;xkPYDFWR+Wfyxs9PnnbV4tO1SGSOJYYzp9uhjdAebcgtTzrXfFWdAAAACgGwAxQ7FXYq7FXYq7FX&#xA;MqsCrAEHqD0xVS+q2v8AvlP+BH9MPEVYhrtt59h1u8u9Ght7jSobaIWunSpBWad3pKysTE49NPio&#xA;0ig9B4h4iuypY6B5vnv7DU7rUI7OJlil1DRRCkiBmhjEsKyVagWVXIIJ642V2ZaIIAaiNQR0PEY2&#xA;VX4FWPBA55PGrN4kAn8cNlUg8w2Ovvqmi/ocJFYLO76xRICWhRQyx/vVZvjI4/BQ79R1x4irFTH+&#xA;cMmmrxs7WHUfrU0p5fVWi+qvbs8UG1Tzjm/dhqdaEkryONlOyd+XvLfnCK/s7/VNWWW2aJWvtLeC&#xA;IkTNEQwWRNgFkNfh2xso2ZgqIgoihR4AUwWqnc2trdQtBdQpPC1OUUqh1NDUVVgR1wEWmMiDYY95&#xA;l8sW/wCh5v0FpNj+lOcPo87e348fWT1OXNaU9Pl7+G+R8OPcGzx5/wA4/NhEPlz8wkguhLolnLcv&#xA;YmO1Ig0sRJdvdEeqduZ4W55KN1PcVx8OPcE+PP8AnH5phZ+RfMeowyteJb6TMY4TFF9V0+WMSm2d&#xA;JuPox8yBOVdeTdMfDj3BfHn/ADj82Y6F5V0+wsbVbu2s7jUrehe+jtYoizg1DgKPhPTocIhHuYnN&#xA;M9T83//Z</xmpGImg:image>
               </rdf:li>
            </rdf:Alt>
         </xmp:Thumbnails>
         <xmpTPg:NPages>1</xmpTPg:NPages>
         <xmpTPg:HasVisibleTransparency>False</xmpTPg:HasVisibleTransparency>
         <xmpTPg:HasVisibleOverprint>True</xmpTPg:HasVisibleOverprint>
         <xmpTPg:MaxPageSize rdf:parseType="Resource">
            <stDim:w>76.213312</stDim:w>
            <stDim:h>76.213312</stDim:h>
            <stDim:unit>Millimeters</stDim:unit>
         </xmpTPg:MaxPageSize>
         <xmpTPg:PlateNames>
            <rdf:Seq>
               <rdf:li>Cyan</rdf:li>
               <rdf:li>Magenta</rdf:li>
               <rdf:li>Yellow</rdf:li>
               <rdf:li>Black</rdf:li>
               <rdf:li>R=0 G=0 B=0</rdf:li>
            </rdf:Seq>
         </xmpTPg:PlateNames>
         <xmpTPg:SwatchGroups>
            <rdf:Seq>
               <rdf:li rdf:parseType="Resource">
                  <xmpG:groupName>Default Swatch Group</xmpG:groupName>
                  <xmpG:groupType>0</xmpG:groupType>
                  <xmpG:Colorants>
                     <rdf:Seq>
                        <rdf:li rdf:parseType="Resource">
                           <xmpG:swatchName>C=62 M=57 Y=55 K=32</xmpG:swatchName>
                           <xmpG:mode>CMYK</xmpG:mode>
                           <xmpG:type>PROCESS</xmpG:type>
                           <xmpG:cyan>62.000000</xmpG:cyan>
                           <xmpG:magenta>56.999999</xmpG:magenta>
                           <xmpG:yellow>55.000001</xmpG:yellow>
                           <xmpG:black>31.999999</xmpG:black>
                        </rdf:li>
                        <rdf:li rdf:parseType="Resource">
                           <xmpG:swatchName>R=0 G=0 B=0</xmpG:swatchName>
                           <xmpG:type>SPOT</xmpG:type>
                           <xmpG:tint>100.000000</xmpG:tint>
                           <xmpG:mode>RGB</xmpG:mode>
                           <xmpG:red>0</xmpG:red>
                           <xmpG:green>0</xmpG:green>
                           <xmpG:blue>0</xmpG:blue>
                        </rdf:li>
                        <rdf:li rdf:parseType="Resource">
                           <xmpG:swatchName>R=0 G=0 B=0</xmpG:swatchName>
                           <xmpG:type>SPOT</xmpG:type>
                           <xmpG:tint>80.000000</xmpG:tint>
                           <xmpG:mode>RGB</xmpG:mode>
                           <xmpG:red>0</xmpG:red>
                           <xmpG:green>0</xmpG:green>
                           <xmpG:blue>0</xmpG:blue>
                        </rdf:li>
                        <rdf:li rdf:parseType="Resource">
                           <xmpG:swatchName>C=23 M=100 Y=94 K=17</xmpG:swatchName>
                           <xmpG:mode>CMYK</xmpG:mode>
                           <xmpG:type>PROCESS</xmpG:type>
                           <xmpG:cyan>23.000000</xmpG:cyan>
                           <xmpG:magenta>100.000000</xmpG:magenta>
                           <xmpG:yellow>94.000000</xmpG:yellow>
                           <xmpG:black>17.000000</xmpG:black>
                        </rdf:li>
                        <rdf:li rdf:parseType="Resource">
                           <xmpG:swatchName>aRed</xmpG:swatchName>
                           <xmpG:type>PROCESS</xmpG:type>
                           <xmpG:tint>100.000000</xmpG:tint>
                           <xmpG:mode>CMYK</xmpG:mode>
                           <xmpG:cyan>23.000000</xmpG:cyan>
                           <xmpG:magenta>100.000000</xmpG:magenta>
                           <xmpG:yellow>94.000000</xmpG:yellow>
                           <xmpG:black>17.000000</xmpG:black>
                        </rdf:li>
                        <rdf:li rdf:parseType="Resource">
                           <xmpG:swatchName>aRed</xmpG:swatchName>
                           <xmpG:type>PROCESS</xmpG:type>
                           <xmpG:tint>20.000000</xmpG:tint>
                           <xmpG:mode>CMYK</xmpG:mode>
                           <xmpG:cyan>23.000000</xmpG:cyan>
                           <xmpG:magenta>100.000000</xmpG:magenta>
                           <xmpG:yellow>94.000000</xmpG:yellow>
                           <xmpG:black>17.000000</xmpG:black>
                        </rdf:li>
                        <rdf:li rdf:parseType="Resource">
                           <xmpG:swatchName>aRed</xmpG:swatchName>
                           <xmpG:type>PROCESS</xmpG:type>
                           <xmpG:tint>10.000000</xmpG:tint>
                           <xmpG:mode>CMYK</xmpG:mode>
                           <xmpG:cyan>23.000000</xmpG:cyan>
                           <xmpG:magenta>100.000000</xmpG:magenta>
                           <xmpG:yellow>94.000000</xmpG:yellow>
                           <xmpG:black>17.000000</xmpG:black>
                        </rdf:li>
                        <rdf:li rdf:parseType="Resource">
                           <xmpG:swatchName>aRed</xmpG:swatchName>
                           <xmpG:type>PROCESS</xmpG:type>
                           <xmpG:tint>80.000000</xmpG:tint>
                           <xmpG:mode>CMYK</xmpG:mode>
                           <xmpG:cyan>23.000000</xmpG:cyan>
                           <xmpG:magenta>100.000000</xmpG:magenta>
                           <xmpG:yellow>94.000000</xmpG:yellow>
                           <xmpG:black>17.000000</xmpG:black>
                        </rdf:li>
                        <rdf:li rdf:parseType="Resource">
                           <xmpG:swatchName>sBlue</xmpG:swatchName>
                           <xmpG:type>PROCESS</xmpG:type>
                           <xmpG:tint>100.000000</xmpG:tint>
                           <xmpG:mode>CMYK</xmpG:mode>
                           <xmpG:cyan>88.999999</xmpG:cyan>
                           <xmpG:magenta>76.999998</xmpG:magenta>
                           <xmpG:yellow>0.000000</xmpG:yellow>
                           <xmpG:black>0.000000</xmpG:black>
                        </rdf:li>
                        <rdf:li rdf:parseType="Resource">
                           <xmpG:swatchName>pBlue</xmpG:swatchName>
                           <xmpG:type>PROCESS</xmpG:type>
                           <xmpG:tint>100.000000</xmpG:tint>
                           <xmpG:mode>CMYK</xmpG:mode>
                           <xmpG:cyan>69.999999</xmpG:cyan>
                           <xmpG:magenta>47.000000</xmpG:magenta>
                           <xmpG:yellow>0.000000</xmpG:yellow>
                           <xmpG:black>0.000000</xmpG:black>
                        </rdf:li>
                        <rdf:li rdf:parseType="Resource">
                           <xmpG:swatchName>pBlue</xmpG:swatchName>
                           <xmpG:type>PROCESS</xmpG:type>
                           <xmpG:tint>60.000000</xmpG:tint>
                           <xmpG:mode>CMYK</xmpG:mode>
                           <xmpG:cyan>69.999999</xmpG:cyan>
                           <xmpG:magenta>47.000000</xmpG:magenta>
                           <xmpG:yellow>0.000000</xmpG:yellow>
                           <xmpG:black>0.000000</xmpG:black>
                        </rdf:li>
                        <rdf:li rdf:parseType="Resource">
                           <xmpG:swatchName>pBlue</xmpG:swatchName>
                           <xmpG:type>PROCESS</xmpG:type>
                           <xmpG:tint>40.000000</xmpG:tint>
                           <xmpG:mode>CMYK</xmpG:mode>
                           <xmpG:cyan>69.999999</xmpG:cyan>
                           <xmpG:magenta>47.000000</xmpG:magenta>
                           <xmpG:yellow>0.000000</xmpG:yellow>
                           <xmpG:black>0.000000</xmpG:black>
                        </rdf:li>
                        <rdf:li rdf:parseType="Resource">
                           <xmpG:swatchName>pBlue</xmpG:swatchName>
                           <xmpG:type>PROCESS</xmpG:type>
                           <xmpG:tint>0.000000</xmpG:tint>
                           <xmpG:mode>CMYK</xmpG:mode>
                           <xmpG:cyan>69.999999</xmpG:cyan>
                           <xmpG:magenta>47.000000</xmpG:magenta>
                           <xmpG:yellow>0.000000</xmpG:yellow>
                           <xmpG:black>0.000000</xmpG:black>
                        </rdf:li>
                        <rdf:li rdf:parseType="Resource">
                           <xmpG:swatchName>pBlue</xmpG:swatchName>
                           <xmpG:type>PROCESS</xmpG:type>
                           <xmpG:tint>20.000000</xmpG:tint>
                           <xmpG:mode>CMYK</xmpG:mode>
                           <xmpG:cyan>69.999999</xmpG:cyan>
                           <xmpG:magenta>47.000000</xmpG:magenta>
                           <xmpG:yellow>0.000000</xmpG:yellow>
                           <xmpG:black>0.000000</xmpG:black>
                        </rdf:li>
                        <rdf:li rdf:parseType="Resource">
                           <xmpG:swatchName>aRed2</xmpG:swatchName>
                           <xmpG:type>PROCESS</xmpG:type>
                           <xmpG:tint>100.000000</xmpG:tint>
                           <xmpG:mode>CMYK</xmpG:mode>
                           <xmpG:cyan>23.000000</xmpG:cyan>
                           <xmpG:magenta>100.000000</xmpG:magenta>
                           <xmpG:yellow>94.000000</xmpG:yellow>
                           <xmpG:black>31.000000</xmpG:black>
                        </rdf:li>
                     </rdf:Seq>
                  </xmpG:Colorants>
               </rdf:li>
            </rdf:Seq>
         </xmpTPg:SwatchGroups>
         <dc:format>image/svg+xml</dc:format>
         <dc:title>
            <rdf:Alt>
               <rdf:li xml:lang="x-default">catalysts</rdf:li>
            </rdf:Alt>
         </dc:title>
         <xmpMM:DocumentID>xmp.did:516945b3-1cd7-4766-8734-7ae49c391f50</xmpMM:DocumentID>
         <xmpMM:InstanceID>xmp.iid:516945b3-1cd7-4766-8734-7ae49c391f50</xmpMM:InstanceID>
         <xmpMM:OriginalDocumentID>xmp.did:fea52983-50db-483e-81a2-59a51ad093a2</xmpMM:OriginalDocumentID>
         <xmpMM:RenditionClass>proof:pdf</xmpMM:RenditionClass>
         <xmpMM:History>
            <rdf:Seq>
               <rdf:li rdf:parseType="Resource">
                  <stEvt:action>converted</stEvt:action>
                  <stEvt:parameters>from application/postscript to application/vnd.adobe.illustrator</stEvt:parameters>
               </rdf:li>
               <rdf:li rdf:parseType="Resource">
                  <stEvt:action>saved</stEvt:action>
                  <stEvt:instanceID>xmp.iid:fea52983-50db-483e-81a2-59a51ad093a2</stEvt:instanceID>
                  <stEvt:when>2017-01-04T18:23:12-08:00</stEvt:when>
                  <stEvt:softwareAgent>Adobe Illustrator CC 2017 (Macintosh)</stEvt:softwareAgent>
                  <stEvt:changed>/</stEvt:changed>
               </rdf:li>
               <rdf:li rdf:parseType="Resource">
                  <stEvt:action>saved</stEvt:action>
                  <stEvt:instanceID>xmp.iid:516945b3-1cd7-4766-8734-7ae49c391f50</stEvt:instanceID>
                  <stEvt:when>2017-01-06T15:06:45-08:00</stEvt:when>
                  <stEvt:softwareAgent>Adobe Illustrator CC 2017 (Macintosh)</stEvt:softwareAgent>
                  <stEvt:changed>/</stEvt:changed>
               </rdf:li>
            </rdf:Seq>
         </xmpMM:History>
         <xmpMM:DerivedFrom rdf:parseType="Resource">
            <stRef:instanceID>uuid:cf52b82b-f746-2a49-8da2-84560a418852</stRef:instanceID>
            <stRef:documentID>xmp.did:fea52983-50db-483e-81a2-59a51ad093a2</stRef:documentID>
            <stRef:originalDocumentID>xmp.did:fea52983-50db-483e-81a2-59a51ad093a2</stRef:originalDocumentID>
            <stRef:renditionClass>proof:pdf</stRef:renditionClass>
         </xmpMM:DerivedFrom>
         <pdfx:CreatorVersion>21.0.0</pdfx:CreatorVersion>
         <pdf:Producer>Adobe PDF library 15.00</pdf:Producer>
      </rdf:Description>
   </rdf:RDF>
</x:xmpmeta>
                                                                                                    
                                                                                                    
                                                                                                    
                                                                                                    
                                                                                                    
                                                                                                    
                                                                                                    
                                                                                                    
                                                                                                    
                                                                                                    
                                                                                                    
                                                                                                    
                                                                                                    
                                                                                                    
                                                                                                    
                                                                                                    
                                                                                                    
                                                                                                    
                                                                                                    
                                                                                                    
                           
<?xpacket end="w"?>
	</metadata>
<g id="Layer_1">
</g>
<g id="Layer_2">
	<path class="st9" d="M201.0247345,167.7532349L113.0507431,15.3832378l-0.5029984-0.8710022h-1.0060043h-6.8389969h-1.0050049
		l-0.5029984,0.8710022l-87.973999,152.3699951l-0.503006,0.8710022l0.503006,0.8709869l1.8110037,3.1380005l1.6080017,2.7840118
		l0.5029907,0.8709869h1.0050049h175.9489899h1.0059967l0.503006-0.8709869l2.0720062-3.5900116l1.3470001-2.3320007
		l0.5029907-0.8709869L201.0247345,167.7532349z M201.0247345,167.7532349L113.0507431,15.3832378l-0.5029984-0.8710022h-1.0060043
		h-6.8389969h-1.0050049l-0.5029984,0.8710022l-87.973999,152.3699951l-0.503006,0.8710022l0.503006,0.8709869l1.8110037,3.1380005
		l1.6080017,2.7840118l0.5029907,0.8709869h1.0050049h175.9489899h1.0059967l0.503006-0.8709869l2.0720062-3.5900116
		l1.3470001-2.3320007l0.5029907-0.8709869L201.0247345,167.7532349z M201.0247345,167.7532349L113.0507431,15.3832378
		l-0.5029984-0.8710022h-1.0060043h-6.8389969h-1.0050049l-0.5029984,0.8710022l-87.973999,152.3699951l-0.503006,0.8710022
		l0.503006,0.8709869l1.8110037,3.1380005l1.6080017,2.7840118l0.5029907,0.8709869h1.0050049h175.9489899h1.0059967
		l0.503006-0.8709869l2.0720062-3.5900116l1.3470001-2.3320007l0.5029907-0.8709869L201.0247345,167.7532349z"/>
	<radialGradient id="SVGID_1_" cx="108.1218872" cy="95.3986664" r="85.4925385" gradientUnits="userSpaceOnUse">
		<stop  offset="0" style="stop-color:#B54D41"/>
		<stop  offset="0.4870711" style="stop-color:#9E2D2A"/>
		<stop  offset="0.8629006" style="stop-color:#91171E"/>
	</radialGradient>
	<path class="st0" d="M199.5174561,168.6275177L111.541275,16.2481899c-3.7618103,0-3.0778503,0-6.8386459,0L16.7263203,168.6275177
		c1.8805046,3.257431,1.5386238,2.6652374,3.4190369,5.9216309H196.097641
		C197.9780273,171.2927551,197.6360474,171.8849487,199.5174561,168.6275177L199.5174561,168.6275177z M199.5174561,168.6275177
		L111.541275,16.2481899c-3.7618103,0-3.0778503,0-6.8386459,0L16.7263203,168.6275177
		c1.8805046,3.257431,1.5386238,2.6652374,3.4190369,5.9216309H196.097641
		C197.9780273,171.2927551,197.6360474,171.8849487,199.5174561,168.6275177L199.5174561,168.6275177z M199.5174561,168.6275177
		L111.541275,16.2481899c-3.7618103,0-3.0778503,0-6.8386459,0L16.7263203,168.6275177
		c1.8805046,3.257431,1.5386238,2.6652374,3.4190369,5.9216309H196.097641
		C197.9780273,171.2927551,197.6360474,171.8849487,199.5174561,168.6275177L199.5174561,168.6275177z"/>
</g>
<g id="Layer_3">
	<g>
		<polygon class="st2" points="77.8116608,192.5588226 69.7132721,192.5588226 69.7132721,184.8298187 65.030899,184.8298187 
			65.030899,205.1227875 69.7132721,205.1227875 69.7132721,196.5118256 77.8116608,196.5118256 77.8116608,205.1227875 
			82.4940338,205.1227875 82.4940338,184.8298187 77.8116608,184.8298187 		"/>
		<path class="st2" d="M113.030899,184.8298187l-8.1860352,20.2929688h4.8647461l1.5541992-3.8339844h7.6679688l1.5239258,3.8339844
			h4.8649902l-8.0029297-20.2929688H113.030899z M112.634903,197.701828l2.5239258-6.815979l2.4938965,6.815979H112.634903z"/>
		<polygon class="st2" points="89.2467194,205.1227875 100.7147369,205.1227875 100.7147369,201.1708221 93.9288483,201.1708221 
			93.9288483,196.6638031 100.379776,196.6638031 100.379776,192.7118378 93.9288483,192.7118378 93.9288483,188.7818451 
			100.7147369,188.7818451 100.7147369,184.8298187 89.2467194,184.8298187 		"/>
		<polygon class="st2" points="126.6898346,188.7818451 131.1026764,188.7818451 131.1026764,205.1227875 135.7848053,205.1227875 
			135.7848053,188.7818451 140.1966705,188.7818451 140.1966705,184.8298187 126.6898346,184.8298187 		"/>
		<polygon class="st2" points="166.1537018,183.1598358 163.8836823,183.1598358 160.9376373,190.2368622 157.9918365,183.1598358 
			155.721817,183.1598358 153.8248444,194.9908295 156.5548248,194.9908295 157.4947662,187.9308319 160.4586334,194.9908295 
			161.4166412,194.9908295 164.3807526,187.9308319 165.320694,194.9908295 168.0506744,194.9908295 		"/>
		<polygon class="st2" points="144.1207428,185.4637909 146.6927643,185.4637909 146.6927643,194.9908295 149.4227448,194.9908295 
			149.4227448,185.4637909 151.9957428,185.4637909 151.9957428,183.1598358 144.1207428,183.1598358 		"/>
	</g>
	<path class="st4" d="M129.5189819,146.1000214c0-5.3850098-2.0879974-10.2700195-5.4779968-13.934021V71.2026062h-0.0279999
		c0.0070038-0.1865082,0.0279999-0.3701172,0.0279999-0.558609c0-8.3197784-6.7449951-15.0648956-15.0639954-15.0648956
		c-8.3209991,0-15.0652161,6.7451172-15.0652161,15.0648956c0,0.1884918,0.0212097,0.3721008,0.0282135,0.558609h-0.0282135
		v60.9633942c-3.3897858,3.6640015-5.4780731,8.5490112-5.4780731,13.934021
		c0,11.3450012,9.1972809,20.5419922,20.5432892,20.5419922
		C120.321991,166.6420135,129.5189819,157.4450226,129.5189819,146.1000214L129.5189819,146.1000214z M128.1009827,146.1000214
		c0,10.5620117-8.5619965,19.125-19.1239929,19.125c-10.5628967,0-19.125412-8.5629883-19.125412-19.125
		c0-5.1900024,2.0744171-9.8900146,5.4297028-13.335022v-5.95401h4.6457062v-1.6380005h-4.6457062v-3.8179626h7.7637024v-2.0220337
		h-7.7637024v-3.8179932h4.6457062v-1.6380005h-4.6457062v-3.8179932h7.7637024v-2.0220032h-7.7637024v-3.8179932h4.6457062
		v-1.6374817h-4.6457062v-3.8178101h7.7637024v-2.0220032h-7.7637024v-3.8179016h4.6457062v-1.6382141h-4.6457062v-3.8178101
		h7.7637024V85.445816h-7.7637024v-3.8179321h4.6457062v-1.6376801h-4.6457062v-3.8177948h7.7637024v-2.0220184h-7.7637024
		v-2.9477844h0.0282135c-0.0074921-0.1865082-0.0282135-0.3701172-0.0282135-0.558609
		c0-7.5634003,6.1317139-13.6952972,13.6957092-13.6952972c7.5629883,0,13.6950073,6.131897,13.6950073,13.6952972
		c0,0.1884918-0.0210114,0.3721008-0.029007,0.558609h0.029007v61.5623932
		C126.0269775,136.2100067,128.1009827,140.9100189,128.1009827,146.1000214L128.1009827,146.1000214z"/>
	<path class="st4" d="M129.5189819,146.1000214c0-5.3850098-2.0879974-10.2700195-5.4779968-13.934021V71.2026062h-0.0279999
		c0.0070038-0.1865082,0.0279999-0.3701172,0.0279999-0.558609c0-8.3197784-6.7449951-15.0648956-15.0639954-15.0648956
		c-8.3209991,0-15.0652161,6.7451172-15.0652161,15.0648956c0,0.1884918,0.0212097,0.3721008,0.0282135,0.558609h-0.0282135
		v60.9633942c-3.3897858,3.6640015-5.4780731,8.5490112-5.4780731,13.934021
		c0,11.3450012,9.1972809,20.5419922,20.5432892,20.5419922
		C120.321991,166.6420135,129.5189819,157.4450226,129.5189819,146.1000214L129.5189819,146.1000214z M128.1009827,146.1000214
		c0,10.5620117-8.5619965,19.125-19.1239929,19.125c-10.5628967,0-19.125412-8.5629883-19.125412-19.125
		c0-5.1900024,2.0744171-9.8900146,5.4297028-13.335022v-5.95401h4.6457062v-1.6380005h-4.6457062v-3.8179626h7.7637024v-2.0220337
		h-7.7637024v-3.8179932h4.6457062v-1.6380005h-4.6457062v-3.8179932h7.7637024v-2.0220032h-7.7637024v-3.8179932h4.6457062
		v-1.6374817h-4.6457062v-3.8178101h7.7637024v-2.0220032h-7.7637024v-3.8179016h4.6457062v-1.6382141h-4.6457062v-3.8178101
		h7.7637024V85.445816h-7.7637024v-3.8179321h4.6457062v-1.6376801h-4.6457062v-3.8177948h7.7637024v-2.0220184h-7.7637024
		v-2.9477844h0.0282135c-0.0074921-0.1865082-0.0282135-0.3701172-0.0282135-0.558609
		c0-7.5634003,6.1317139-13.6952972,13.6957092-13.6952972c7.5629883,0,13.6950073,6.131897,13.6950073,13.6952972
		c0,0.1884918-0.0210114,0.3721008-0.029007,0.558609h0.029007v61.5623932
		C126.0269775,136.2100067,128.1009827,140.9100189,128.1009827,146.1000214L128.1009827,146.1000214z"/>
	<path class="st32" d="M129.5189819,146.1000214c0-5.3850098-2.0879974-10.2700195-5.4779968-13.934021V71.2026062h-0.0279999
		c0.0070038-0.1865082,0.0279999-0.3701172,0.0279999-0.558609c0-8.3197784-6.7449951-15.0648956-15.0639954-15.0648956
		c-8.3209991,0-15.0652161,6.7451172-15.0652161,15.0648956c0,0.1884918,0.0212097,0.3721008,0.0282135,0.558609h-0.0282135
		v60.9633942c-3.3897858,3.6640015-5.4780731,8.5490112-5.4780731,13.934021
		c0,11.3450012,9.1972809,20.5419922,20.5432892,20.5419922
		C120.321991,166.6420135,129.5189819,157.4450226,129.5189819,146.1000214L129.5189819,146.1000214z M128.1009827,146.1000214
		c0,10.5620117-8.5619965,19.125-19.1239929,19.125c-10.5628967,0-19.125412-8.5629883-19.125412-19.125
		c0-5.1900024,2.0744171-9.8900146,5.4297028-13.335022v-5.95401h4.6457062v-1.6380005h-4.6457062v-3.8179626h7.7637024v-2.0220337
		h-7.7637024v-3.8179932h4.6457062v-1.6380005h-4.6457062v-3.8179932h7.7637024v-2.0220032h-7.7637024v-3.8179932h4.6457062
		v-1.6374817h-4.6457062v-3.8178101h7.7637024v-2.0220032h-7.7637024v-3.8179016h4.6457062v-1.6382141h-4.6457062v-3.8178101
		h7.7637024V85.445816h-7.7637024v-3.8179321h4.6457062v-1.6376801h-4.6457062v-3.8177948h7.7637024v-2.0220184h-7.7637024
		v-2.9477844h0.0282135c-0.0074921-0.1865082-0.0282135-0.3701172-0.0282135-0.558609
		c0-7.5634003,6.1317139-13.6952972,13.6957092-13.6952972c7.5629883,0,13.6950073,6.131897,13.6950073,13.6952972
		c0,0.1884918-0.0210114,0.3721008-0.029007,0.558609h0.029007v61.5623932
		C126.0269775,136.2100067,128.1009827,140.9100189,128.1009827,146.1000214L128.1009827,146.1000214z"/>
	<path class="st4" d="M47.4506721,149.9300079h-5.9518738l9.2516785-12.4259949l9.2517242,12.4259949h-6.203125
		c0.0003357,0.8080139,0.0003357,1.3989868,0.0003357,2.5750122c-0.0003357,3.6180115-2.15242,6.7779846-3.4124146,11.2649841
		h-6.4795074c1.2351074-5.375,3.5430298-9.4980164,3.5431824-11.2649841
		C47.4505196,151.3289948,47.4505196,150.7370148,47.4506721,149.9300079L47.4506721,149.9300079z"/>
	<linearGradient id="SVGID_2_" gradientUnits="userSpaceOnUse" x1="50.7504997" y1="163.7700043" x2="50.7504997" y2="137.5040131">
		<stop  offset="0" style="stop-color:#C37362"/>
		<stop  offset="0.0336577" style="stop-color:#C77B69"/>
		<stop  offset="0.1624568" style="stop-color:#D29686"/>
		<stop  offset="0.2986215" style="stop-color:#DCAFA1"/>
		<stop  offset="0.4422696" style="stop-color:#E4C3B8"/>
		<stop  offset="0.5968196" style="stop-color:#EAD3CA"/>
		<stop  offset="0.7699332" style="stop-color:#EEDCD5"/>
		<stop  offset="1" style="stop-color:#F0DFD8"/>
	</linearGradient>
	<path class="st1" d="M47.4506721,149.9300079h-5.9518738l9.2516785-12.4259949l9.2517242,12.4259949h-6.203125
		c0.0003357,0.8080139,0.0003357,1.3989868,0.0003357,2.5750122c-0.0003357,3.6180115-2.15242,6.7779846-3.4124146,11.2649841
		h-6.4795074c1.2351074-5.375,3.5430298-9.4980164,3.5431824-11.2649841
		C47.4505196,151.3289948,47.4505196,150.7370148,47.4506721,149.9300079L47.4506721,149.9300079z"/>
	<linearGradient id="SVGID_3_" gradientUnits="userSpaceOnUse" x1="74.1707916" y1="168.8379974" x2="74.1707916" y2="111.2450104">
		<stop  offset="0" style="stop-color:#C37362"/>
		<stop  offset="0.0336577" style="stop-color:#C77B69"/>
		<stop  offset="0.1624568" style="stop-color:#D29686"/>
		<stop  offset="0.2986215" style="stop-color:#DCAFA1"/>
		<stop  offset="0.4422696" style="stop-color:#E4C3B8"/>
		<stop  offset="0.5968196" style="stop-color:#EAD3CA"/>
		<stop  offset="0.7699332" style="stop-color:#EEDCD5"/>
		<stop  offset="1" style="stop-color:#F0DFD8"/>
	</linearGradient>
	<path class="st3" d="M84.3479004,124.9139862l-10.1772156-13.6689758l-10.1769981,13.6689758h6.5471001
		c0,0.888031,0,1.539032,0,2.8320312c0.0003052,2.6860046-4.8721008,10.2720032-4.737793,19.6730042
		c0,6.6449585,1.9198914,10.809967,3.5822906,14.5700073c1.6623993,3.7599487,1.2285004,6.8489685,1.2285004,6.8489685h6.9837036
		c0,0,0.4996948-5.0580139-1.1625977-8.8179932c-1.6624146-3.7599792-3.6485138-5.9560242-3.6485138-12.6009827
		c-0.1342926-9.401001,4.7380981-13.9899902,4.7378082-19.6730042c0-1.2929993,0-1.9440002,0.0002899-2.8320312H84.3479004
		L84.3479004,124.9139862z"/>
	<linearGradient id="SVGID_4_" gradientUnits="userSpaceOnUse" x1="108.976387" y1="161.3790131" x2="108.976387" y2="59.4387054">
		<stop  offset="0" style="stop-color:#F0DFD8"/>
		<stop  offset="0.300732" style="stop-color:#CB9384"/>
		<stop  offset="0.6404291" style="stop-color:#AA5446"/>
		<stop  offset="0.8818848" style="stop-color:#972B27"/>
		<stop  offset="1" style="stop-color:#91171E"/>
	</linearGradient>
	<path class="st6" d="M124.2559814,146.0990143c0-4.0050354-1.5529938-7.6390076-4.0739899-10.3630066V71.2026062h-0.029007
		c0.0100098-0.1865082,0.029007-0.3701172,0.029007-0.5587769c0-6.1885376-5.0169983-11.2051239-11.2050018-11.2051239
		c-6.1889954,0-11.2055969,5.0165863-11.2055969,11.2051239c0,0.1886597,0.0188904,0.3722687,0.0280914,0.5587769h-0.0280914
		v2.0121918h7.1635895v3.8926239h-7.1635895v2.1249847h3.3795929v3.1528931h-3.3795929v2.125h7.1635895v3.8924866h-7.1635895
		v2.1250305h3.3795929v3.1533813h-3.3795929v2.125h7.1635895v3.8925171h-7.1635895v2.1249695h3.3795929v3.1533203h-3.3795929v2.125
		h7.1635895v3.8919983h-7.1635895v2.1250305h3.3795929v3.1529846h-3.3795929v2.125h7.1635895v3.8929749h-7.1635895v2.1250305
		h3.3795929v3.1529846h-3.3795929v8.1679993c-2.5213013,2.723999-4.0746002,6.3579712-4.0746002,10.3630066
		c0,8.4389954,6.8412018,15.2799988,15.2801971,15.2799988
		C117.4149933,161.3790131,124.2559814,154.5380096,124.2559814,146.0990143L124.2559814,146.0990143z"/>
	<linearGradient id="SVGID_5_" gradientUnits="userSpaceOnUse" x1="165.492981" y1="163.7700043" x2="165.492981" y2="137.5040131">
		<stop  offset="0" style="stop-color:#C37362"/>
		<stop  offset="0.0336577" style="stop-color:#C77B69"/>
		<stop  offset="0.1624568" style="stop-color:#D29686"/>
		<stop  offset="0.2986215" style="stop-color:#DCAFA1"/>
		<stop  offset="0.4422696" style="stop-color:#E4C3B8"/>
		<stop  offset="0.5968196" style="stop-color:#EAD3CA"/>
		<stop  offset="0.7699332" style="stop-color:#EEDCD5"/>
		<stop  offset="1" style="stop-color:#F0DFD8"/>
	</linearGradient>
	<path class="st10" d="M168.7929993,149.9300079h5.9519806l-9.2519989-12.4259949l-9.2519989,12.4259949h6.2030182
		c0,0.8080139,0,1.3989868,0,2.5750122c0,3.6180115,2.1519775,6.7779846,3.4120026,11.2649841h6.4799805
		c-1.2350006-5.375-3.542984-9.4980164-3.542984-11.2649841
		C168.7929993,151.3289948,168.7929993,150.7370148,168.7929993,149.9300079L168.7929993,149.9300079z"/>
	
		<linearGradient id="SVGID_6_" gradientUnits="userSpaceOnUse" x1="142.0729828" y1="168.8379974" x2="142.0729828" y2="111.2450104">
		<stop  offset="0" style="stop-color:#C37362"/>
		<stop  offset="0.0336577" style="stop-color:#C77B69"/>
		<stop  offset="0.1624568" style="stop-color:#D29686"/>
		<stop  offset="0.2986215" style="stop-color:#DCAFA1"/>
		<stop  offset="0.4422696" style="stop-color:#E4C3B8"/>
		<stop  offset="0.5968196" style="stop-color:#EAD3CA"/>
		<stop  offset="0.7699332" style="stop-color:#EEDCD5"/>
		<stop  offset="1" style="stop-color:#F0DFD8"/>
	</linearGradient>
	<path class="st12" d="M131.8959808,124.9139862l10.177002-13.6689758l10.177002,13.6689758h-6.5469971
		c0,0.888031,0,1.539032,0,2.8320312c-0.0010071,2.6860046,4.871994,10.2720032,4.7370148,19.6730042
		c0,6.6449585-1.9190216,10.809967-3.582016,14.5700073c-1.6620026,3.7599487-1.2279968,6.8489685-1.2279968,6.8489685h-6.9840088
		c0,0-0.5-5.0580139,1.1630096-8.8179932c1.6619873-3.7599792,3.647995-5.9560242,3.647995-12.6009827
		c0.1340027-9.401001-4.7379913-13.9899902-4.7379913-19.6730042c0-1.2929993,0-1.9440002,0-2.8320312H131.8959808
		L131.8959808,124.9139862z"/>
	<path class="st4" d="M129.5189819,146.1000214c0-5.3850098-2.0879974-10.2700195-5.4779968-13.934021V71.2026062h-0.0279999
		c0.0070038-0.1865082,0.0279999-0.3701172,0.0279999-0.558609c0-8.3197784-6.7449951-15.0648956-15.0639954-15.0648956
		c-8.3209991,0-15.0652161,6.7451172-15.0652161,15.0648956c0,0.1884918,0.0212097,0.3721008,0.0282135,0.558609h-0.0282135
		v60.9633942c-3.3897858,3.6640015-5.4780731,8.5490112-5.4780731,13.934021
		c0,11.3450012,9.1972809,20.5419922,20.5432892,20.5419922
		C120.321991,166.6420135,129.5189819,157.4450226,129.5189819,146.1000214L129.5189819,146.1000214z M128.1009827,146.1000214
		c0,10.5620117-8.5619965,19.125-19.1239929,19.125c-10.5628967,0-19.125412-8.5629883-19.125412-19.125
		c0-5.1900024,2.0744171-9.8900146,5.4297028-13.335022v-5.95401h4.6457062v-1.6380005h-4.6457062v-3.8179626h7.7637024v-2.0220337
		h-7.7637024v-3.8179932h4.6457062v-1.6380005h-4.6457062v-3.8179932h7.7637024v-2.0220032h-7.7637024v-3.8179932h4.6457062
		v-1.6374817h-4.6457062v-3.8178101h7.7637024v-2.0220032h-7.7637024v-3.8179016h4.6457062v-1.6382141h-4.6457062v-3.8178101
		h7.7637024V85.445816h-7.7637024v-3.8179321h4.6457062v-1.6376801h-4.6457062v-3.8177948h7.7637024v-2.0220184h-7.7637024
		v-2.9477844h0.0282135c-0.0074921-0.1865082-0.0282135-0.3701172-0.0282135-0.558609
		c0-7.5634003,6.1317139-13.6952972,13.6957092-13.6952972c7.5629883,0,13.6950073,6.131897,13.6950073,13.6952972
		c0,0.1884918-0.0210114,0.3721008-0.029007,0.558609h0.029007v61.5623932
		C126.0269775,136.2100067,128.1009827,140.9100189,128.1009827,146.1000214L128.1009827,146.1000214z"/>
</g>
<g id="Layer_4">
</g>
<g id="Layer_5">
</g>
<g id="Layer_6">
</g>
</svg>
