<?xml version="1.0" encoding="utf-8"?>
<!-- Generator: Adobe Illustrator 21.0.0, SVG Export Plug-In . SVG Version: 6.00 Build 0)  -->
<svg version="1.1" xmlns="http://www.w3.org/2000/svg" xmlns:xlink="http://www.w3.org/1999/xlink" x="0px" y="0px"
	 viewBox="0 0 216.037735 216.037735" style="enable-background:new 0 0 216.037735 216.037735;" xml:space="preserve">
<style type="text/css">
	.st0{fill:url(#SVGID_1_);}
	.st1{fill:url(#SVGID_2_);}
	.st2{fill:#575454;}
	.st3{fill:url(#SVGID_3_);}
	.st4{fill:#FFFFFF;}
	.st5{fill:#8AA65A;}
	.st6{fill:url(#SVGID_4_);}
	.st7{fill:none;}
	.st8{fill:#BFCAA2;}
	.st9{fill:none;stroke:#FFFFFF;stroke-width:3.484;stroke-miterlimit:10;}
	.st10{fill:url(#SVGID_5_);}
	.st11{fill:#A71E27;}
	.st12{fill:url(#SVGID_6_);}
	.st13{fill:url(#SVGID_7_);}
	.st14{fill:url(#SVGID_8_);}
	.st15{fill:none;stroke:#FFFFFF;stroke-width:3.04688;stroke-linejoin:round;}
	.st16{fill:#93A7D6;}
	.st17{fill:#B3C0E2;}
	.st18{fill:url(#SVGID_9_);}
	.st19{fill:#8C8585;}
	.st20{fill:url(#SVGID_10_);}
	.st21{fill:url(#SVGID_11_);}
	.st22{fill:#888181;}
	.st23{fill:url(#SVGID_12_);}
	.st24{fill:#A3A7D4;}
	.st25{fill:none;stroke:#000000;stroke-width:2.0312495;stroke-linecap:round;stroke-linejoin:round;}
	.st26{fill:#7591CA;}
	.st27{fill:#D6DCF0;stroke:#FFFFFF;stroke-width:3.04688;stroke-linejoin:round;}
	.st28{fill:#D6DCF0;}
	.st29{fill:url(#SVGID_13_);}
	.st30{fill:#2E2C2D;}
	.st31{fill:#5D6AB2;}
	.st32{fill:none;stroke:#2E2C2D;stroke-width:2.03125;stroke-linejoin:round;}
	.st33{clip-path:url(#SVGID_15_);}
	.st34{clip-path:url(#SVGID_19_);}
	.st35{clip-path:url(#SVGID_23_);}
	.st36{clip-path:url(#SVGID_27_);}
	.st37{clip-path:url(#SVGID_31_);}
</style>
<metadata><?xpacket begin="﻿" id="W5M0MpCehiHzreSzNTczkc9d"?>
<x:xmpmeta xmlns:x="adobe:ns:meta/" x:xmptk="Adobe XMP Core 5.6-c137 79.159768, 2016/08/11-13:24:42        ">
   <rdf:RDF xmlns:rdf="http://www.w3.org/1999/02/22-rdf-syntax-ns#">
      <rdf:Description rdf:about=""
            xmlns:xmp="http://ns.adobe.com/xap/1.0/"
            xmlns:xmpGImg="http://ns.adobe.com/xap/1.0/g/img/"
            xmlns:xmpTPg="http://ns.adobe.com/xap/1.0/t/pg/"
            xmlns:stDim="http://ns.adobe.com/xap/1.0/sType/Dimensions#"
            xmlns:xmpG="http://ns.adobe.com/xap/1.0/g/"
            xmlns:dc="http://purl.org/dc/elements/1.1/"
            xmlns:xmpMM="http://ns.adobe.com/xap/1.0/mm/"
            xmlns:stEvt="http://ns.adobe.com/xap/1.0/sType/ResourceEvent#"
            xmlns:stRef="http://ns.adobe.com/xap/1.0/sType/ResourceRef#">
         <xmp:CreatorTool>Adobe Illustrator CC 2017 (Macintosh)</xmp:CreatorTool>
         <xmp:CreateDate>2017-01-04T18:23:56-08:00</xmp:CreateDate>
         <xmp:MetadataDate>2017-01-04T18:23:56-08:00</xmp:MetadataDate>
         <xmp:ModifyDate>2017-01-04T18:23:56-08:00</xmp:ModifyDate>
         <xmp:Thumbnails>
            <rdf:Alt>
               <rdf:li rdf:parseType="Resource">
                  <xmpGImg:width>256</xmpGImg:width>
                  <xmpGImg:height>40</xmpGImg:height>
                  <xmpGImg:format>JPEG</xmpGImg:format>
                  <xmpGImg:image>/9j/4AAQSkZJRgABAgEASABIAAD/7QAsUGhvdG9zaG9wIDMuMAA4QklNA+0AAAAAABAASAAAAAEA&#xA;AQBIAAAAAQAB/+4ADkFkb2JlAGTAAAAAAf/bAIQABgQEBAUEBgUFBgkGBQYJCwgGBggLDAoKCwoK&#xA;DBAMDAwMDAwQDA4PEA8ODBMTFBQTExwbGxscHx8fHx8fHx8fHwEHBwcNDA0YEBAYGhURFRofHx8f&#xA;Hx8fHx8fHx8fHx8fHx8fHx8fHx8fHx8fHx8fHx8fHx8fHx8fHx8fHx8fHx8f/8AAEQgAKAEAAwER&#xA;AAIRAQMRAf/EAaIAAAAHAQEBAQEAAAAAAAAAAAQFAwIGAQAHCAkKCwEAAgIDAQEBAQEAAAAAAAAA&#xA;AQACAwQFBgcICQoLEAACAQMDAgQCBgcDBAIGAnMBAgMRBAAFIRIxQVEGE2EicYEUMpGhBxWxQiPB&#xA;UtHhMxZi8CRygvElQzRTkqKyY3PCNUQnk6OzNhdUZHTD0uIIJoMJChgZhJRFRqS0VtNVKBry4/PE&#xA;1OT0ZXWFlaW1xdXl9WZ2hpamtsbW5vY3R1dnd4eXp7fH1+f3OEhYaHiImKi4yNjo+Ck5SVlpeYmZ&#xA;qbnJ2en5KjpKWmp6ipqqusra6voRAAICAQIDBQUEBQYECAMDbQEAAhEDBCESMUEFURNhIgZxgZEy&#xA;obHwFMHR4SNCFVJicvEzJDRDghaSUyWiY7LCB3PSNeJEgxdUkwgJChgZJjZFGidkdFU38qOzwygp&#xA;0+PzhJSktMTU5PRldYWVpbXF1eX1RlZmdoaWprbG1ub2R1dnd4eXp7fH1+f3OEhYaHiImKi4yNjo&#xA;+DlJWWl5iZmpucnZ6fkqOkpaanqKmqq6ytrq+v/aAAwDAQACEQMRAD8A9U4q7FXk4/PSzP5nf4b4&#xA;Q/oHn9TGo/Fz+t1py5cuHpc/g6f5VaZjeP6q6O7/AJHP5bxN+PnXl+vq9YzJdI7FXYq7FXn/AOdP&#xA;5nv5B8sxXFhFFdeYdTnS10aznDGN5CQZHkCsjcEQ70PUr44CaFsoxMiAOZTP8rvPkXnXynBqjokG&#xA;pwM1rq9pGSVhu4qCQLUk8G2dNz8JGINi1nAxJB5hluFi7FXYq7FUvTXdNfXZNDWWuoxW4unipsIi&#xA;3CtfGtNvfI8YuuracMuDj/hukwyTU7FXYq7FWL/mB5un8t6N69nFHPqErAQRS14BQwDs3EqduVBT&#xA;ufCuZOlwDJKjya8k+EbJ9peoRahYQ3cY4iQfEhoSrjZlNNvhYEZROPCaZg2EVkUuxV2KtO6Rozuw&#xA;VEBZmOwAG5JxAVgPkj81rLzN5l1LSeCRRRktpMgqGmiTZy3L9o/bAA+z8q5najRHHAS+bRjziUiG&#xA;f5gt7sVdirsVeZfnD+b0vkhrCy0yCG71S5b1p4p+RVLYVFfgZDzdvs/I7ZTly8Owdp2d2f49mRqI&#xA;+9n2g63Ya5o1nq9g/O0vYlliJ6ivVW8GU1BHjlkZWLdflxHHIxPMI/JNbsVSPzfry6PpLyIwF3P+&#xA;7thtXkerU/yRv92YWv1Pg4yR9R5JAeYQ6DCkayy2NqA0X1gAxwc/SHWThTlx96ZzMsWrMeIcXDV/&#xA;Bz46qX84/MvWPLuqjUdOSRiPrEfwTj/KH7X+yzouzNb4+IE/UNj+PNw8sOEpnmxa3YqtllihieWV&#xA;1jijUvJI5CqqqKkknYADFXw3+ZX5iTeefzJutciYnSNJjlj0aJunpxghZKeMsh5n6B2yvJuK73J0&#xA;hqfF/NBP2bfanP5KfmW/lD8xo/r8vDQ/MscEWo8jRIpyoWOfwHGSqsf5WJ7Y4xQruXVS4p8X84A/&#xA;Zv8Aa+zcscZ2KuxV2KvNtPtQfPCeZ2Yhr3VrzSCd+JghtjHGKf8AGe1bf3zFA9fF507acv3Ph90B&#xA;L4k/qL0nMp1LsVdiqyaaKCF5pnWOKNS8kjEBVVRUkk9ABhAtXh/nfWH1dry9bZCVSFDSqRK44qad&#xA;9+R3O5PbN1p8fAAHDnKyzvynqgs9QNrIQtteEUJoAs9AFPb7YHH58ad8ws8LF9Q245VszjMFvdir&#xA;sVeefmvrWo3CWvkrQqPrWvBhJvxEdotfUZj2D8SPkG70zN0cYxPiS+mP3tOYk+kcy891D8qfNvkq&#xA;CPzNa3tvcPpjpNIsXMMoBAJowHJd6MPDNjDW48x4CDu4ssEoeoHk9y8s6/aa/odpq1rtHcpV461K&#xA;ONnQ9PsttmmzYjjkYlzoTEhYTPKmTsVQWt6xY6NpN3qt8/p2lnG0srd6Doo8Sx2A8cjKVC2zFjM5&#xA;CI5l8leY9SuteN/5tv7eO6ury89JIJXlCRRIoIRBGUJorKtS3Y7EnMG79RepiPDkMMSYgRvat/nb&#xA;0z8jfN0OmazN5SmZksL8LeaQsjVMTyxLK0Bbbqrf8EP8rLcM6lw97r+0MByYxl/iG0vgat7tmW6J&#xA;pmVVLMaKBUk9ABirxnzNr0nmDXma3q9sh9CyjFfiFacgPFz/AAzk9fnObJty5D8ebKKGFujayzGJ&#xA;2sxwgW6CkoWjQKZa0P7v1V2oN13zYHHURC9uDhv33+thx+sFl3lnUXsL4c6rE59O4Q9qGm/upznt&#xA;FqZaPU1PYcpfr/HR2U4ccdnoQNRUdM711zsVeU/np5t0xNOTyUurpp+q64h5IF9WQwDkQjICCsc5&#xA;jZHfeiggAsyjAeTKBogvCPLvlvylpkFpoupzm6lVRqOswxFUaX9qCygfkGZ5Anpv04klum+V3ZDl&#xA;iHBCfwj9t/71R1Dy/wCXTay+WDeKss/K/sJpVCubdT6kUbULEXHovvFTap3rsW6tBiJCA+H2k/cX&#xA;0r+UHm+y1jy9Fpv6QF5fafDEwWUol39UlWtubmFSxSVV+B+oYjlX4ssDiSNm2fYUKdzOlvby3Dq7&#xA;JCjSMsaNI5CipCIgZmbwVRU4q8R1v8zPOk76voq6HJZ6rqJT6nbSzcBFZhGeSSVqP6czQ+mrRj4Q&#xA;Ty5fayu6JbxHigK5g18+X6WIab5k88S6QmhXVuqWWoTRxaEkiusttMr+tJcXQClxDcpdSFX32Qd2&#xA;Fa69A+BcuUrzzA7pD5Db7me+VPzC81WWs2GmappM5sbY/oa+RWea6iu1cuJ0giV2lt1j4I0vHwZf&#xA;h5ZaObhSFRHnv+PteyZNqdirAPzT8yva28Wj2rlZpystywJH7tWqsZNDs5HxU3p23zP0WGzxFozZ&#xA;KFPMfMkk0vl65ksWBlg9KW6Qn94tu78A6qOnCZQrdfte2Z2L05N+R+9x5/Tt0ZN5b1T9P6bbPCxj&#xA;uZqpOUPFomQD1HX7VKVBX3K165XlhwE2zhLiD1nSL1rq1pKa3EPwTHpU9n6D7Q322BqO2anJGi5U&#xA;TaOyDJCaxqtlpGl3OpX0gjtbSNpZWPgo6DxJOwHjk4QMpADmUE0LeFeVvLn5j+b/ADFJ+YGn3sOk&#xA;tK8iWktwDIGi+x6axhTVF4cSTSpBzaak4sYGPqP0uNi4pEy72ca5r2v+YfLmt+WtP02W4162MNhe&#xA;3BCwWpaQH1Zk9R+Xp/A1BuaFT3zEhAYzGdivxzbZHiBilPkGz178vPMcHlvXLmO60zXlMlldRgqq&#xA;XkfFXjNafaDKOm/w++TyyOYGXMx+78fpYxAga6F69mA3uxV4N+eXmyfXfMlh+X2jzID6sbajI7hI&#xA;/Xf+7jdvCNTzbruR3GYmeVmg9B2VgGOBzS+DEbXy/cQaRe6POI5Z7TUHSSaJvUSqRp9hgQKNXuK/&#xA;LKuH0fFty5gcwkORh+kpfqmhavFb3PmSxnhhXRDYof3qrcCQwRlHjj7hSP6Vo1Iyiefu+5ydNljQ&#xA;xkfVxe76i+kvy6852vm/yra6vFRbino30I/3XcIBzHyNQy+xGZ+OfELeb1mmOHIY9Onueaf85Jfn&#xA;U3kf9EaDYxie81Jhc6pGdv8AccrFHjVv2XmIZQ3bifbBkjxAjvcQlLNGvoFMF/ZMl1aXEQltZGB4&#xA;yQzJ8JoCCp4tvQ1U+4zlJk4ctkXTKIT+11S+9NEWG0VVAVQI5tgNh0ny2XbMR/B/sv2N0cAKYRXJ&#xA;rPe30iJGo9SVo0KRxxxoFoqkufsp3Ykt881c4z7Q1UYxjwmVD4d5/Hk5QkMUCT0R/wCVH5iP5jn1&#xA;DS7teFzakz2aj/llLBQhIG5jJAqetc9J1Ggjp4REfpAA+Tp8WfxCb5s28wa5p+g6Hf63qLFLHToJ&#xA;Lm4KircIlLEKCRVjSgHjmI3vzq81/mDrnmPz3c+cbl+N/NcCeCOtUijjIEUI/wAlEUL7/Tii1+qe&#xA;b5Li4t9VhIj1CSf61MgqVR4iFjABr8NMrjEglzM2WJxxr6v4vhsPsVT5wmuLu41+ZkXU4JxNbQiv&#xA;GrhUoKmpCpHjIHi/HROOcfCkSfUOXnxbH5AJj5B/NrU/LP5nxecSD6FxKY9TtEJIezkorx9uRQKr&#xA;LX9pRljhW/QWyvLa+s4L21kEtrdRpNBKKgNHIoZWFaHcHFKtirAvzD8l3t5MNb0NS2suv1GSOoCG&#xA;G6R7WSXfflGswfrT4cpzRJGzm6HLCMvX9PP4jcfq+KZ+YvJGnXMV5fWkRGoDTZLOziH2A6ofRfx5&#xA;LsvXpkpx9JDThy1kEj37/pQ/kzy7JNcQ+btRie21bUYZXms3BrEJpS8QNaHkkHGMinbHENrPVlqy&#xA;BPhibjHb5ftZlljjIPWdVtdI0q61K6NILWMyPuBWnQCpAqTtvk8cDKQA6oJoW+fta1WW7urrVL5q&#xA;NIWllalAB2Aqew2UV8Bm/wAcBECIddMmRssd8neZbK081PeaqGGm38clpfRqAR6EyhKMAp5BQAdl&#xA;qSMnqsMpQAjzBtGKYEt+Sb+QPMVlo3my4gjcHSL6VoEmI4UUOfQkPP4lFDuCdq71plebDKWIX9QT&#xA;DIBPbkXtkOow6dcLdyOqQkrFcEkAFXYKp3K7qzbfSAKnNSYcQpzbplmYja8I/wCchPOzSXUXlOzc&#xA;iOHjcamRUcnYcooj4hVPM/MeGbrszT7cZ+Dh6nJ/Cifyr/OLy5pXlmDRded7WSx5LBcLG8qPGzFx&#xA;URhmDLWnTwyGu0UjIzjvacGcVRQXkv8AO5NO1jWYNSjubvQ7m9luNNuDvcRJJQ8CjlarXfqKb0rk&#xA;DoZTFjaq+OyTqBEpb+Y/n+PzVq1q9gjw2FgrC2Z6LIzuQXc8SeP2QBv2r3zN0ml8KJvmXGz5uM7c&#xA;g9o/L7zR/iPy3DdyH/TIT6F4PGRAPiHT7QIb8M0+qweHOunRzsOTjjbf5h+cbfyh5TvdakAeaNfT&#xA;s4TWj3Em0amnau7ewOYeSfCLc7R6c5sgj8/c+WdJ8y6PE2lalfQCfXn1J7671My8pCS5/vV7CvFg&#xA;PH4geozXkl6yeGRuIPo4apln5W+Y/KENrfR69qEdveeq8jzTHaR2JqynvzAXoNiKnqMugAQ63X4c&#xA;oyXEExIFVvVdGNeYfM2jvd+Y0tH9bT7v0IxGCF9RoZwyNGfjA4RLw5Co79DkMnPZy9HgmIxMtjZP&#xA;uv8Abun/AOUn5jabon5iG1s4TaeXdeMNu9tyZxFcEBY5By3HxsVbfoa9hksM6LDtDRmeGzvOH3Pp&#xA;m90jSb5le9soLp0FEaaJJCAewLA0zOeUYTr9j+Ytrr08Hli2hh8vizH1dFWzRVuSxZygYc+Z7cvg&#xA;qd8FBIUkj/NkT2Z4H0A4LKwsOfp/WW5fXONBz+rceP1ag5dcHCFb0TSPzMvkEGvXTW8TWsoZpItN&#xA;lU3InHpFo443pWKp4hmG3WuEbbhTTKPKegXuk2ko1Ga3u76SQkXNvbRWtIuK0jIjArRgTU+OTMie&#xA;ZRQTqaGGeF4ZkWWGVSkkbgMrKwoVYHYgjqMirEPN/kewfy/cp5b0TTY9ZZoRbyG0tKKpmT1SfVjZ&#xA;NouXUH23xVjM/kvzHD68S+X9OujbiMpcRWmmItxWWy5iNJApQrGl39un2hQk0opUv8F+Zn8wJXy/&#xA;ZporapV/9E0gMNPJ6UCu1FHUhjIewGKsj8s/ljZ6fPO2rxadqkMkcSwxnT7dDG6A825BannWu+Ks&#xA;6AAAAFANgBih2KuxV2KuxV2KuZVYFWAIPUHpiql9Vtf98p/wI/ph4irENdtvPsOt3l3o0NvcaVDb&#xA;RC106VIKzTu9JWViYnHpp8VGkUHoPEPEV2VLHQPN89/YandahHZxMsUuoaKIUkQM0MYlhWSrUCyq&#xA;5BBPXGyuzLRBADURqCOh4jGyq/Aqx4IHPJ41ZvEgE/jhsqkHmGx199U0X9DhIrBZ3fWKJAS0KKGW&#xA;P96rN8ZHH4KHfqOuPEVYqY/zhk01eNnaw6j9amlPL6q0X1V7dnig2qecc37sNTrQkleRxsp2Tvy9&#xA;5b84RX9nf6pqyy2zRK19pbwREiZoiGCyJsAshr8O2NlGzMFREFEUKPACmC1U7m1tbqFoLqFJ4Wpy&#xA;ilUOpoaiqsCOuAi0xkQbDHvMvli3/Q836C0mx/SnOH0edvb8ePrJ6nLmtKeny9/DfI+HHuDZ48/5&#xA;x+bCIfLn5hJBdCXRLOW5exMdqRBpYiS7e6I9U7czwtzyUbqe4rj4ce4J8ef84/NMLPyL5j1GGVrx&#xA;LfSZjHCYovqunyxiU2zpNx9GPmQJyrrybpj4ce4L48/5x+bMdC8q6fYWNqt3bWdxqVvQvfR2sURZ&#xA;wahwFHwnp0OEQj3MTmmep+b/AP/Z</xmpGImg:image>
               </rdf:li>
            </rdf:Alt>
         </xmp:Thumbnails>
         <xmpTPg:MaxPageSize rdf:parseType="Resource">
            <stDim:w>76.213312</stDim:w>
            <stDim:h>76.213312</stDim:h>
            <stDim:unit>Millimeters</stDim:unit>
         </xmpTPg:MaxPageSize>
         <xmpTPg:NPages>1</xmpTPg:NPages>
         <xmpTPg:HasVisibleTransparency>False</xmpTPg:HasVisibleTransparency>
         <xmpTPg:HasVisibleOverprint>True</xmpTPg:HasVisibleOverprint>
         <xmpTPg:PlateNames>
            <rdf:Seq>
               <rdf:li>Cyan</rdf:li>
               <rdf:li>Magenta</rdf:li>
               <rdf:li>Yellow</rdf:li>
               <rdf:li>Black</rdf:li>
               <rdf:li>R=0 G=0 B=0</rdf:li>
            </rdf:Seq>
         </xmpTPg:PlateNames>
         <xmpTPg:SwatchGroups>
            <rdf:Seq>
               <rdf:li rdf:parseType="Resource">
                  <xmpG:groupName>Default Swatch Group</xmpG:groupName>
                  <xmpG:groupType>0</xmpG:groupType>
                  <xmpG:Colorants>
                     <rdf:Seq>
                        <rdf:li rdf:parseType="Resource">
                           <xmpG:swatchName>C=62 M=57 Y=55 K=32</xmpG:swatchName>
                           <xmpG:mode>CMYK</xmpG:mode>
                           <xmpG:type>PROCESS</xmpG:type>
                           <xmpG:cyan>62.000000</xmpG:cyan>
                           <xmpG:magenta>56.999999</xmpG:magenta>
                           <xmpG:yellow>55.000001</xmpG:yellow>
                           <xmpG:black>31.999999</xmpG:black>
                        </rdf:li>
                        <rdf:li rdf:parseType="Resource">
                           <xmpG:swatchName>R=0 G=0 B=0</xmpG:swatchName>
                           <xmpG:type>SPOT</xmpG:type>
                           <xmpG:tint>100.000000</xmpG:tint>
                           <xmpG:mode>RGB</xmpG:mode>
                           <xmpG:red>0</xmpG:red>
                           <xmpG:green>0</xmpG:green>
                           <xmpG:blue>0</xmpG:blue>
                        </rdf:li>
                        <rdf:li rdf:parseType="Resource">
                           <xmpG:swatchName>R=0 G=0 B=0</xmpG:swatchName>
                           <xmpG:type>SPOT</xmpG:type>
                           <xmpG:tint>80.000000</xmpG:tint>
                           <xmpG:mode>RGB</xmpG:mode>
                           <xmpG:red>0</xmpG:red>
                           <xmpG:green>0</xmpG:green>
                           <xmpG:blue>0</xmpG:blue>
                        </rdf:li>
                        <rdf:li rdf:parseType="Resource">
                           <xmpG:swatchName>C=23 M=100 Y=94 K=17</xmpG:swatchName>
                           <xmpG:mode>CMYK</xmpG:mode>
                           <xmpG:type>PROCESS</xmpG:type>
                           <xmpG:cyan>23.000000</xmpG:cyan>
                           <xmpG:magenta>100.000000</xmpG:magenta>
                           <xmpG:yellow>94.000000</xmpG:yellow>
                           <xmpG:black>17.000000</xmpG:black>
                        </rdf:li>
                        <rdf:li rdf:parseType="Resource">
                           <xmpG:swatchName>aRed</xmpG:swatchName>
                           <xmpG:type>PROCESS</xmpG:type>
                           <xmpG:tint>100.000000</xmpG:tint>
                           <xmpG:mode>CMYK</xmpG:mode>
                           <xmpG:cyan>23.000000</xmpG:cyan>
                           <xmpG:magenta>100.000000</xmpG:magenta>
                           <xmpG:yellow>94.000000</xmpG:yellow>
                           <xmpG:black>17.000000</xmpG:black>
                        </rdf:li>
                        <rdf:li rdf:parseType="Resource">
                           <xmpG:swatchName>aRed</xmpG:swatchName>
                           <xmpG:type>PROCESS</xmpG:type>
                           <xmpG:tint>80.000000</xmpG:tint>
                           <xmpG:mode>CMYK</xmpG:mode>
                           <xmpG:cyan>23.000000</xmpG:cyan>
                           <xmpG:magenta>100.000000</xmpG:magenta>
                           <xmpG:yellow>94.000000</xmpG:yellow>
                           <xmpG:black>17.000000</xmpG:black>
                        </rdf:li>
                        <rdf:li rdf:parseType="Resource">
                           <xmpG:swatchName>sBlue</xmpG:swatchName>
                           <xmpG:type>PROCESS</xmpG:type>
                           <xmpG:tint>100.000000</xmpG:tint>
                           <xmpG:mode>CMYK</xmpG:mode>
                           <xmpG:cyan>88.999999</xmpG:cyan>
                           <xmpG:magenta>76.999998</xmpG:magenta>
                           <xmpG:yellow>0.000000</xmpG:yellow>
                           <xmpG:black>0.000000</xmpG:black>
                        </rdf:li>
                        <rdf:li rdf:parseType="Resource">
                           <xmpG:swatchName>pBlue</xmpG:swatchName>
                           <xmpG:type>PROCESS</xmpG:type>
                           <xmpG:tint>100.000000</xmpG:tint>
                           <xmpG:mode>CMYK</xmpG:mode>
                           <xmpG:cyan>69.999999</xmpG:cyan>
                           <xmpG:magenta>47.000000</xmpG:magenta>
                           <xmpG:yellow>0.000000</xmpG:yellow>
                           <xmpG:black>0.000000</xmpG:black>
                        </rdf:li>
                        <rdf:li rdf:parseType="Resource">
                           <xmpG:swatchName>pBlue</xmpG:swatchName>
                           <xmpG:type>PROCESS</xmpG:type>
                           <xmpG:tint>60.000000</xmpG:tint>
                           <xmpG:mode>CMYK</xmpG:mode>
                           <xmpG:cyan>69.999999</xmpG:cyan>
                           <xmpG:magenta>47.000000</xmpG:magenta>
                           <xmpG:yellow>0.000000</xmpG:yellow>
                           <xmpG:black>0.000000</xmpG:black>
                        </rdf:li>
                        <rdf:li rdf:parseType="Resource">
                           <xmpG:swatchName>pBlue</xmpG:swatchName>
                           <xmpG:type>PROCESS</xmpG:type>
                           <xmpG:tint>40.000000</xmpG:tint>
                           <xmpG:mode>CMYK</xmpG:mode>
                           <xmpG:cyan>69.999999</xmpG:cyan>
                           <xmpG:magenta>47.000000</xmpG:magenta>
                           <xmpG:yellow>0.000000</xmpG:yellow>
                           <xmpG:black>0.000000</xmpG:black>
                        </rdf:li>
                        <rdf:li rdf:parseType="Resource">
                           <xmpG:swatchName>pBlue</xmpG:swatchName>
                           <xmpG:type>PROCESS</xmpG:type>
                           <xmpG:tint>0.000000</xmpG:tint>
                           <xmpG:mode>CMYK</xmpG:mode>
                           <xmpG:cyan>69.999999</xmpG:cyan>
                           <xmpG:magenta>47.000000</xmpG:magenta>
                           <xmpG:yellow>0.000000</xmpG:yellow>
                           <xmpG:black>0.000000</xmpG:black>
                        </rdf:li>
                        <rdf:li rdf:parseType="Resource">
                           <xmpG:swatchName>pBlue</xmpG:swatchName>
                           <xmpG:type>PROCESS</xmpG:type>
                           <xmpG:tint>20.000000</xmpG:tint>
                           <xmpG:mode>CMYK</xmpG:mode>
                           <xmpG:cyan>69.999999</xmpG:cyan>
                           <xmpG:magenta>47.000000</xmpG:magenta>
                           <xmpG:yellow>0.000000</xmpG:yellow>
                           <xmpG:black>0.000000</xmpG:black>
                        </rdf:li>
                        <rdf:li rdf:parseType="Resource">
                           <xmpG:swatchName>aRed2</xmpG:swatchName>
                           <xmpG:type>PROCESS</xmpG:type>
                           <xmpG:tint>100.000000</xmpG:tint>
                           <xmpG:mode>CMYK</xmpG:mode>
                           <xmpG:cyan>23.000000</xmpG:cyan>
                           <xmpG:magenta>100.000000</xmpG:magenta>
                           <xmpG:yellow>94.000000</xmpG:yellow>
                           <xmpG:black>31.000000</xmpG:black>
                        </rdf:li>
                     </rdf:Seq>
                  </xmpG:Colorants>
               </rdf:li>
            </rdf:Seq>
         </xmpTPg:SwatchGroups>
         <dc:format>image/svg+xml</dc:format>
         <xmpMM:History>
            <rdf:Seq>
               <rdf:li rdf:parseType="Resource">
                  <stEvt:action>converted</stEvt:action>
                  <stEvt:parameters>from application/postscript to application/vnd.adobe.illustrator</stEvt:parameters>
               </rdf:li>
               <rdf:li rdf:parseType="Resource">
                  <stEvt:action>saved</stEvt:action>
                  <stEvt:instanceID>xmp.iid:fea52983-50db-483e-81a2-59a51ad093a2</stEvt:instanceID>
                  <stEvt:when>2017-01-04T18:23:12-08:00</stEvt:when>
                  <stEvt:softwareAgent>Adobe Illustrator CC 2017 (Macintosh)</stEvt:softwareAgent>
                  <stEvt:changed>/</stEvt:changed>
               </rdf:li>
               <rdf:li rdf:parseType="Resource">
                  <stEvt:action>saved</stEvt:action>
                  <stEvt:instanceID>xmp.iid:b9891d45-aa16-49bd-ac5f-dd4f7c18a263</stEvt:instanceID>
                  <stEvt:when>2017-01-04T18:23:56-08:00</stEvt:when>
                  <stEvt:softwareAgent>Adobe Illustrator CC 2017 (Macintosh)</stEvt:softwareAgent>
                  <stEvt:changed>/</stEvt:changed>
               </rdf:li>
            </rdf:Seq>
         </xmpMM:History>
         <xmpMM:DerivedFrom rdf:parseType="Resource">
            <stRef:instanceID>xmp.iid:fea52983-50db-483e-81a2-59a51ad093a2</stRef:instanceID>
            <stRef:documentID>xmp.did:fea52983-50db-483e-81a2-59a51ad093a2</stRef:documentID>
            <stRef:originalDocumentID>xmp.did:fea52983-50db-483e-81a2-59a51ad093a2</stRef:originalDocumentID>
            <stRef:renditionClass>proof:pdf</stRef:renditionClass>
         </xmpMM:DerivedFrom>
         <xmpMM:DocumentID>xmp.did:b9891d45-aa16-49bd-ac5f-dd4f7c18a263</xmpMM:DocumentID>
         <xmpMM:InstanceID>xmp.iid:b9891d45-aa16-49bd-ac5f-dd4f7c18a263</xmpMM:InstanceID>
         <xmpMM:OriginalDocumentID>xmp.did:fea52983-50db-483e-81a2-59a51ad093a2</xmpMM:OriginalDocumentID>
         <xmpMM:RenditionClass>proof:pdf</xmpMM:RenditionClass>
      </rdf:Description>
   </rdf:RDF>
</x:xmpmeta>
                                                                                                    
                                                                                                    
                                                                                                    
                                                                                                    
                                                                                                    
                                                                                                    
                                                                                                    
                                                                                                    
                                                                                                    
                                                                                                    
                                                                                                    
                                                                                                    
                                                                                                    
                                                                                                    
                                                                                                    
                                                                                                    
                                                                                                    
                                                                                                    
                                                                                                    
                                                                                                    
                           
<?xpacket end="w"?>
	</metadata>
<g id="Layer_1">
	<g>
		<path class="st2" d="M85.2436905,184.3737946v20.2929993h4.6823883v-7.1210022h2.8626099
			c1.4311981,0,3.561203-0.1520081,5.1722107-1.7940063c0.7599792-0.789978,1.7329865-2.2189941,1.7329865-4.7769775
			c0-1.401001-0.2429962-3.4089966-1.9759979-4.9290161c-1.6119995-1.4290161-3.5589905-1.6719971-5.3251038-1.6719971H85.2436905
			L85.2436905,184.3737946z M89.9260788,188.2038116h1.5836182c0.9135895,0,1.9185028,0.0909729,2.6192017,0.7609863
			c0.4570007,0.427002,0.7610016,1.1269836,0.7610016,1.980011c0,0.8829956-0.3350067,1.5829773-0.7610016,2.0090027
			c-0.7616119,0.7309875-1.8883057,0.7619934-2.5279083,0.7619934h-1.6749115V188.2038116L89.9260788,188.2038116z
			 M114.2738876,192.6178131c-1.2489929-1.7020264-3.1059875-1.9760132-4.2630005-1.9760132
			c-1.8879852,0-3.5299988,0.6690063-4.7159882,1.855011c-1.2470093,1.2460022-2.0980072,3.1940002-2.0980072,5.4769897
			c0,1.79599,0.5469971,3.5619812,1.9759979,5.0819702c1.4899902,1.5810242,3.1329956,2.0670166,5.0820007,2.0670166
			c1.1259918,0,2.8310089-0.2739868,4.0189972-2.0969849v1.6409912h4.378006v-13.5680237h-4.378006V192.6178131
			L114.2738876,192.6178131z M111.1068954,194.4117889c0.7919922,0,1.7659912,0.3040161,2.4360046,0.9440002
			c0.6390076,0.6090393,1.0039978,1.5220032,1.0039978,2.4960022c0,1.1569824-0.4869995,2.0100098-1.0650177,2.5580139
			c-0.5789948,0.5779724-1.4009857,0.9440002-2.2839813,0.9440002c-1.0350037,0-1.9790039-0.427002-2.5879974-1.0660095
			c-0.3950195-0.4259949-0.9130096-1.2179871-0.9130096-2.4360046s0.5480042-2.0090027,1.0050049-2.4660034
			C109.2798843,194.807785,110.1628952,194.4117889,111.1068954,194.4117889L111.1068954,194.4117889z"/>
		<path class="st2" d="M131.7828979,185.0057831v-2.3039551h-7.8750076v2.3039551h2.5720062v9.5270081h2.7300034v-9.5270081
			H131.7828979L131.7828979,185.0057831z M136.3419037,194.5327911l0.9399872-7.0589905l2.9640198,7.0589905h0.9580078
			l2.9629974-7.0589905l0.940979,7.0589905h2.7299957l-1.8969879-11.8309631h-2.2710114l-2.9449768,7.0769653l-2.9460144-7.0769653
			h-2.269989l-1.8970184,11.8309631H136.3419037L136.3419037,194.5327911z"/>
	</g>
</g>
<g id="Layer_2">
	<linearGradient id="SVGID_1_" gradientUnits="userSpaceOnUse" x1="16.7263203" y1="95.3986664" x2="199.5174561" y2="95.3986664">
		<stop  offset="0" style="stop-color:#3753A4"/>
		<stop  offset="0.2009116" style="stop-color:#3956A6"/>
		<stop  offset="0.4629166" style="stop-color:#3F5FAC"/>
		<stop  offset="0.757443" style="stop-color:#4A6EB5"/>
		<stop  offset="1" style="stop-color:#567EBF"/>
	</linearGradient>
	<path class="st0" d="M199.5174561,168.6275177L111.541275,16.2481899c-3.7618103,0-3.0778503,0-6.8386459,0L16.7263203,168.6275177
		c1.8805046,3.257431,1.5386238,2.6652374,3.4190369,5.9216309H196.097641
		C197.9780273,171.2927551,197.6360474,171.8849487,199.5174561,168.6275177L199.5174561,168.6275177z M199.5174561,168.6275177
		L111.541275,16.2481899c-3.7618103,0-3.0778503,0-6.8386459,0L16.7263203,168.6275177
		c1.8805046,3.257431,1.5386238,2.6652374,3.4190369,5.9216309H196.097641
		C197.9780273,171.2927551,197.6360474,171.8849487,199.5174561,168.6275177L199.5174561,168.6275177z M199.5174561,168.6275177
		L111.541275,16.2481899c-3.7618103,0-3.0778503,0-6.8386459,0L16.7263203,168.6275177
		c1.8805046,3.257431,1.5386238,2.6652374,3.4190369,5.9216309H196.097641
		C197.9780273,171.2927551,197.6360474,171.8849487,199.5174561,168.6275177L199.5174561,168.6275177z"/>
	<path class="st9" d="M201.0247345,167.7532349L113.0507431,15.3832378l-0.5029984-0.8710022h-1.0060043h-6.8389969h-1.0050049
		l-0.5029984,0.8710022l-87.973999,152.3699951l-0.503006,0.8710022l0.503006,0.8709869l1.8110037,3.1380005l1.6080017,2.7840118
		l0.5029907,0.8709869h1.0050049h175.9489899h1.0059967l0.503006-0.8709869l2.0720062-3.5900116l1.3470001-2.3320007
		l0.5029907-0.8709869L201.0247345,167.7532349z M201.0247345,167.7532349L113.0507431,15.3832378l-0.5029984-0.8710022h-1.0060043
		h-6.8389969h-1.0050049l-0.5029984,0.8710022l-87.973999,152.3699951l-0.503006,0.8710022l0.503006,0.8709869l1.8110037,3.1380005
		l1.6080017,2.7840118l0.5029907,0.8709869h1.0050049h175.9489899h1.0059967l0.503006-0.8709869l2.0720062-3.5900116
		l1.3470001-2.3320007l0.5029907-0.8709869L201.0247345,167.7532349z M201.0247345,167.7532349L113.0507431,15.3832378
		l-0.5029984-0.8710022h-1.0060043h-6.8389969h-1.0050049l-0.5029984,0.8710022l-87.973999,152.3699951l-0.503006,0.8710022
		l0.503006,0.8709869l1.8110037,3.1380005l1.6080017,2.7840118l0.5029907,0.8709869h1.0050049h175.9489899h1.0059967
		l0.503006-0.8709869l2.0720062-3.5900116l1.3470001-2.3320007l0.5029907-0.8709869L201.0247345,167.7532349z"/>
	<path class="st15" d="M82.2490005,128.5669098L64.4227982,96.5535431l38.282196-66.3061066v62.8892021L82.2490005,128.5669098
		L82.2490005,128.5669098z"/>
	<path class="st7" d="M82.2490005,128.5669098L64.4227982,96.5535431l38.282196-66.3061066v62.8892021L82.2490005,128.5669098
		L82.2490005,128.5669098z"/>
	<g>
		<polygon class="st16" points="64.4228287,96.5535278 82.2490005,128.5668945 102.7049942,93.1366577 102.7049942,30.2474365 		"/>
	</g>
	<polygon class="st15" points="133.9947815,128.5669098 113.5387878,93.1366425 113.5387878,30.2474403 151.8209839,96.5535431 
		133.9947815,128.5669098 	"/>
	<polygon class="st7" points="133.9947815,128.5669098 113.5387878,93.1366425 113.5387878,30.2474403 151.8209839,96.5535431 
		133.9947815,128.5669098 	"/>
	<polygon class="st17" points="151.8209534,96.5535278 133.9947815,128.5668945 113.5387878,93.1366577 113.5387878,30.2474365 	"/>
	<path class="st24" d="M119.4399948,143.5289612c-1.7519989-3.9350281-5.5149994-6.2640381-9.5359955-6.5110168l0.871994,1.6779785
		c3.0850067,0.5020142,5.8840027,2.3930054,7.2510071,5.4630127c1.2019958,2.7009888,0.9940033,5.6300049-0.2070007,8.0949707
		l0.3209839,0.6159973l0.507019,0.9760437C120.5089951,150.8209534,120.9950027,147.019928,119.4399948,143.5289612
		L119.4399948,143.5289612z M105.7610092,140.2489319c1.2039795-0.5360107,2.4629822-0.7290039,3.6959839-0.6799927
		L81.5145035,85.7908401l21.2674866,56.7501144C103.5699997,141.5919189,104.5569992,140.7859192,105.7610092,140.2489319
		L105.7610092,140.2489319z M100.5880051,141.1659241c-2.5066223,3.1520081-3.2942047,7.5079956-1.5419159,11.4430237
		c1.5539093,3.4909973,4.7039032,5.6739807,8.1968994,6.3150024l-0.6300049-1.6800232
		c-2.6349792-0.7569885-4.9509888-2.5629883-6.1529846-5.2639771c-1.3672028-3.0700378-0.8990021-6.4150391,0.7919922-9.0440063
		L100.5880051,141.1659241L100.5880051,141.1659241z M115.3409958,145.0699463
		c-1.5249939-3.4259949-5.5399933-4.9670105-8.9660034-3.4420166c-3.427002,1.5260315-4.9680023,5.5400085-3.4420013,8.9670105
		c1.5250092,3.4259949,5.5399933,4.9670105,8.9660034,3.440979
		C115.3259964,152.5109253,116.8669968,148.4969482,115.3409958,145.0699463L115.3409958,145.0699463z M112.5129929,155.4149475
		c-1.526001,0.6789856-3.1459961,0.848999-4.6809845,0.6029663l1.2879944,3.4380188l6.2619934,2.4030151l2.404007-6.2610168
		l-1.6930084-3.2579956C115.2490005,153.6459351,114.0389938,154.7359619,112.5129929,155.4149475L112.5129929,155.4149475z"/>
	<path class="st25" d="M119.4399948,143.5289612c-1.7519989-3.9350281-5.5149994-6.2640381-9.5359955-6.5110168l0.871994,1.6779785
		c3.0850067,0.5020142,5.8840027,2.3930054,7.25,5.4620056c1.2030029,2.7010193,0.9950104,5.631012-0.2059937,8.0959778
		l0.3209839,0.6159973l0.507019,0.9760437C120.5089951,150.8209534,120.9940109,147.019928,119.4399948,143.5289612
		L119.4399948,143.5289612z M105.7610092,140.2489319c1.2039795-0.5360107,2.4629822-0.730011,3.6959839-0.6799927
		L81.5145035,85.7907486l21.2674866,56.750206C103.5699997,141.5919189,104.5569992,140.7849426,105.7610092,140.2489319
		L105.7610092,140.2489319z M100.5880051,141.1649475c-2.5066986,3.1529846-3.2942047,7.5089722-1.5420227,11.4440002
		c1.5540161,3.4909973,4.70401,5.6739807,8.1970062,6.3150024l-0.6300049-1.6809998
		c-2.6349792-0.756012-4.9509888-2.5620117-6.1539764-5.2630005c-1.3663177-3.0700378-0.8990021-6.4150391,0.7919769-9.0440063
		L100.5880051,141.1649475L100.5880051,141.1649475z M115.3409958,145.0699463
		c-1.526001-3.427002-5.5399933-4.9680176-8.9660034-3.4420166c-3.427002,1.5260315-4.9680023,5.5400085-3.4429932,8.9660034
		c1.526001,3.427002,5.5409851,4.9680176,8.9669952,3.4419861
		C115.3259964,152.5109253,116.8669968,148.4959412,115.3409958,145.0699463L115.3409958,145.0699463z M112.5129929,155.4149475
		c-1.526001,0.6789856-3.1459961,0.848999-4.6809845,0.6029663l1.2879944,3.4380188l6.2619934,2.4030151l2.404007-6.2610168
		l-1.6930084-3.2579956C115.2490005,153.644928,114.0389938,154.7359619,112.5129929,155.4149475L112.5129929,155.4149475z"/>
	<path class="st24" d="M119.4399948,143.5289612c-1.7519989-3.9350281-5.5149994-6.2640381-9.5359955-6.5110168l0.871994,1.6779785
		c3.0850067,0.5020142,5.8840027,2.3930054,7.25,5.4620056c1.2030029,2.7010193,0.9950104,5.631012-0.2059937,8.0950012
		l0.3209839,0.6169739l0.507019,0.9760437C120.5089951,150.8209534,120.9940109,147.019928,119.4399948,143.5289612
		L119.4399948,143.5289612z M100.5880051,141.1649475c-2.5069122,3.1529846-3.2942047,7.5089722-1.5422058,11.4440002
		c1.5541992,3.4909973,4.7041931,5.6739807,8.1971893,6.3150024l-0.6300049-1.6800232
		c-2.6349792-0.7569885-4.9509888-2.5629883-6.1539764-5.2639771c-1.3662109-3.0700378-0.8980103-6.4150391,0.7919769-9.0440063
		L100.5880051,141.1649475L100.5880051,141.1649475z"/>
	<path class="st25" d="M119.4399948,143.5289612c-1.7519989-3.9350281-5.5160065-6.2640381-9.5359955-6.5110168l0.8709869,1.6779785
		c3.0860138,0.5020142,5.8850098,2.3930054,7.2510071,5.4620056c1.2030029,2.7010193,0.9950104,5.631012-0.2059937,8.0950012
		l0.3209839,0.6169739l0.507019,0.9760437C120.5089951,150.8209534,120.9940109,147.0189209,119.4399948,143.5289612
		L119.4399948,143.5289612z M100.5880051,141.1649475c-2.5069122,3.1529846-3.2942047,7.5089722-1.5423126,11.4440002
		c1.554306,3.4909973,4.7033081,5.6729736,8.1972961,6.3150024l-0.6300049-1.6809998
		c-2.6349792-0.756012-4.9509888-2.5620117-6.1539764-5.2630005c-1.3663177-3.0700378-0.8990021-6.4150391,0.7919769-9.0440063
		L100.5880051,141.1649475L100.5880051,141.1649475z"/>
	<path class="st24" d="M119.4399948,143.5289612c-1.7519989-3.9350281-5.5149994-6.2640381-9.5359955-6.5110168l0.871994,1.6779785
		c3.0850067,0.5020142,5.8840027,2.3930054,7.2510071,5.4630127c1.2019958,2.7009888,0.9940033,5.6300049-0.2070007,8.0949707
		l0.3209839,0.6159973l0.507019,0.9760437C120.5089951,150.8209534,120.9950027,147.019928,119.4399948,143.5289612
		L119.4399948,143.5289612z M105.7610092,140.2489319c1.2039795-0.5360107,2.4629822-0.7290039,3.6959839-0.6799927
		L81.5145035,85.7908401l21.2674866,56.7501144C103.5699997,141.5919189,104.5569992,140.7859192,105.7610092,140.2489319
		L105.7610092,140.2489319z M100.5880051,141.1659241c-2.5066223,3.1520081-3.2942047,7.5079956-1.5419159,11.4430237
		c1.5539093,3.4909973,4.7039032,5.6739807,8.1968994,6.3150024l-0.6300049-1.6800232
		c-2.6349792-0.7569885-4.9509888-2.5629883-6.1529846-5.2639771c-1.3672028-3.0700378-0.8990021-6.4150391,0.7919922-9.0440063
		L100.5880051,141.1659241L100.5880051,141.1659241z M115.3409958,145.0699463
		c-1.5249939-3.4259949-5.5399933-4.9670105-8.9660034-3.4420166c-3.427002,1.5260315-4.9680023,5.5400085-3.4420013,8.9670105
		c1.5250092,3.4259949,5.5399933,4.9670105,8.9660034,3.440979
		C115.3259964,152.5109253,116.8669968,148.4969482,115.3409958,145.0699463L115.3409958,145.0699463z M112.5129929,155.4149475
		c-1.526001,0.6789856-3.1459961,0.848999-4.6809845,0.6029663l1.2879944,3.4380188l6.2619934,2.4030151l2.404007-6.2610168
		l-1.6930084-3.2579956C115.2490005,153.6459351,114.0389938,154.7359619,112.5129929,155.4149475L112.5129929,155.4149475z"/>
	<path class="st24" d="M119.4399948,143.5289612c-1.7519989-3.9350281-5.5149994-6.2640381-9.5359955-6.5110168l0.871994,1.6779785
		c3.0850067,0.5020142,5.8840027,2.3930054,7.25,5.4620056c1.2030029,2.7010193,0.9950104,5.631012-0.2059937,8.0950012
		l0.3209839,0.6169739l0.507019,0.9760437C120.5089951,150.8209534,120.9940109,147.019928,119.4399948,143.5289612
		L119.4399948,143.5289612z M100.5880051,141.1649475c-2.5069122,3.1529846-3.2942047,7.5089722-1.5422058,11.4440002
		c1.5541992,3.4909973,4.7041931,5.6739807,8.1971893,6.3150024l-0.6300049-1.6800232
		c-2.6349792-0.7569885-4.9509888-2.5629883-6.1539764-5.2639771c-1.3662109-3.0700378-0.8980103-6.4150391,0.7919769-9.0440063
		L100.5880051,141.1649475L100.5880051,141.1649475z"/>
	<path class="st4" d="M115.3409958,145.0699463c-1.526001-3.427002-5.5399933-4.9680176-8.9669952-3.4420166
		c-3.4260101,1.5249939-4.9670105,5.5400085-3.4410095,8.9660034c1.5250092,3.427002,5.5399933,4.9680176,8.9660034,3.4419861
		C115.3250046,152.5109253,116.8659897,148.4959412,115.3409958,145.0699463L115.3409958,145.0699463z M105.7610092,140.2489319
		c1.2039795-0.5360107,2.4629822-0.730011,3.6959839-0.6799927L81.5143967,85.7907486l21.2675934,56.750206
		C103.5699997,141.5909424,104.5569992,140.7849426,105.7610092,140.2489319L105.7610092,140.2489319z M107.8320084,156.0179138
		l1.2879944,3.4380188l6.2619934,2.4030151l2.404007-6.2610168l-1.6930084-3.2579956
		c-0.8439941,1.3049927-2.0540009,2.394989-3.5800018,3.0750122
		C110.9869919,156.0939331,109.3669968,156.2639465,107.8320084,156.0179138L107.8320084,156.0179138z"/>
	<path class="st15" d="M58.6685867,169.4079132H28.4904099c-1.6860046-2.9189758-1.379303-2.38797-3.0656128-5.3089905
		l34.4528046-59.6730042l18.1544952,31.4440308L58.6685867,169.4079132L58.6685867,169.4079132z"/>
	<path class="st7" d="M58.6685867,169.4079132H28.4904099c-1.6860046-2.9189758-1.379303-2.38797-3.0656128-5.3089905
		l34.4528046-59.6730042l18.1544952,31.4440308L58.6685867,169.4079132L58.6685867,169.4079132z"/>
	<path class="st26" d="M25.4247799,164.098938c1.6863403,2.9210205,1.3796387,2.3900146,3.0656128,5.30896h30.1782246
		l19.3634644-33.5379639l-18.15448-31.4440308L25.4247799,164.098938z"/>
	<path class="st27" d="M157.5751953,169.4079132l-19.3635101-33.5379639l18.1544952-31.4440308l34.4528046,59.6730042
		c-1.6863098,2.9210205-1.3796082,2.3900146-3.0656128,5.3089905H157.5751953L157.5751953,169.4079132z"/>
	<path class="st28" d="M157.5751953,169.4079132l-19.3635101-33.5379639l18.1544952-31.4440308l34.4528046,59.6730042
		c-1.6863098,2.9210205-1.3796082,2.3900146-3.0656128,5.3089905H157.5751953L157.5751953,169.4079132z"/>
	<g>
		<path class="st28" d="M190.8190002,164.098938c-1.6863403,2.9210205-1.3796387,2.3900146-3.0656128,5.30896h-30.1782227
			l-19.3634644-33.5379639l18.15448-31.4440308L190.8190002,164.098938z"/>
	</g>
</g>
<g id="Layer_3">
</g>
</svg>
