<?xml version="1.0" encoding="utf-8"?>
<!-- Generator: Adobe Illustrator 21.0.0, SVG Export Plug-In . SVG Version: 6.00 Build 0)  -->
<svg version="1.1" xmlns="http://www.w3.org/2000/svg" xmlns:xlink="http://www.w3.org/1999/xlink" x="0px" y="0px"
	 viewBox="0 0 216.037735 216.037735" style="enable-background:new 0 0 216.037735 216.037735;" xml:space="preserve">
<style type="text/css">
	.st0{fill:url(#SVGID_1_);}
	.st1{fill:url(#SVGID_2_);}
	.st2{fill:#575454;}
	.st3{fill:url(#SVGID_3_);}
	.st4{fill:#FFFFFF;}
	.st5{fill:#8AA65A;}
	.st6{fill:url(#SVGID_4_);}
	.st7{fill:none;}
	.st8{fill:#BFCAA2;}
	.st9{fill:none;stroke:#FFFFFF;stroke-width:3.484;stroke-miterlimit:10;}
	.st10{fill:url(#SVGID_5_);}
	.st11{fill:#A71E27;}
	.st12{fill:url(#SVGID_6_);}
	.st13{fill:url(#SVGID_7_);}
	.st14{fill:url(#SVGID_8_);}
	.st15{fill:none;stroke:#FFFFFF;stroke-width:3.04688;stroke-linejoin:round;}
	.st16{fill:#93A7D6;}
	.st17{fill:#B3C0E2;}
	.st18{fill:url(#SVGID_9_);}
	.st19{fill:#8C8585;}
	.st20{fill:url(#SVGID_10_);}
	.st21{fill:url(#SVGID_11_);}
	.st22{fill:#888181;}
	.st23{fill:url(#SVGID_12_);}
	.st24{fill:#A3A7D4;}
	.st25{fill:none;stroke:#000000;stroke-width:2.0312495;stroke-linecap:round;stroke-linejoin:round;}
	.st26{fill:#7591CA;}
	.st27{fill:#D6DCF0;stroke:#FFFFFF;stroke-width:3.04688;stroke-linejoin:round;}
	.st28{fill:#D6DCF0;}
	.st29{fill:url(#SVGID_13_);}
	.st30{fill:#2E2C2D;}
	.st31{fill:#5D6AB2;}
	.st32{fill:none;stroke:#2E2C2D;stroke-width:2.03125;stroke-linejoin:round;}
	.st33{clip-path:url(#SVGID_15_);}
	.st34{clip-path:url(#SVGID_19_);}
	.st35{clip-path:url(#SVGID_23_);}
	.st36{clip-path:url(#SVGID_27_);}
	.st37{clip-path:url(#SVGID_31_);}
</style>
<metadata><?xpacket begin="﻿" id="W5M0MpCehiHzreSzNTczkc9d"?>
<x:xmpmeta xmlns:x="adobe:ns:meta/" x:xmptk="Adobe XMP Core 5.6-c137 79.159768, 2016/08/11-13:24:42        ">
   <rdf:RDF xmlns:rdf="http://www.w3.org/1999/02/22-rdf-syntax-ns#">
      <rdf:Description rdf:about=""
            xmlns:xmp="http://ns.adobe.com/xap/1.0/"
            xmlns:xmpGImg="http://ns.adobe.com/xap/1.0/g/img/"
            xmlns:xmpTPg="http://ns.adobe.com/xap/1.0/t/pg/"
            xmlns:stDim="http://ns.adobe.com/xap/1.0/sType/Dimensions#"
            xmlns:xmpG="http://ns.adobe.com/xap/1.0/g/"
            xmlns:dc="http://purl.org/dc/elements/1.1/"
            xmlns:xmpMM="http://ns.adobe.com/xap/1.0/mm/"
            xmlns:stEvt="http://ns.adobe.com/xap/1.0/sType/ResourceEvent#"
            xmlns:stRef="http://ns.adobe.com/xap/1.0/sType/ResourceRef#">
         <xmp:CreatorTool>Adobe Illustrator CC 2017 (Macintosh)</xmp:CreatorTool>
         <xmp:CreateDate>2017-01-04T18:23:56-08:00</xmp:CreateDate>
         <xmp:MetadataDate>2017-01-04T18:23:56-08:00</xmp:MetadataDate>
         <xmp:ModifyDate>2017-01-04T18:23:56-08:00</xmp:ModifyDate>
         <xmp:Thumbnails>
            <rdf:Alt>
               <rdf:li rdf:parseType="Resource">
                  <xmpGImg:width>256</xmpGImg:width>
                  <xmpGImg:height>40</xmpGImg:height>
                  <xmpGImg:format>JPEG</xmpGImg:format>
                  <xmpGImg:image>/9j/4AAQSkZJRgABAgEASABIAAD/7QAsUGhvdG9zaG9wIDMuMAA4QklNA+0AAAAAABAASAAAAAEA&#xA;AQBIAAAAAQAB/+4ADkFkb2JlAGTAAAAAAf/bAIQABgQEBAUEBgUFBgkGBQYJCwgGBggLDAoKCwoK&#xA;DBAMDAwMDAwQDA4PEA8ODBMTFBQTExwbGxscHx8fHx8fHx8fHwEHBwcNDA0YEBAYGhURFRofHx8f&#xA;Hx8fHx8fHx8fHx8fHx8fHx8fHx8fHx8fHx8fHx8fHx8fHx8fHx8fHx8fHx8f/8AAEQgAKAEAAwER&#xA;AAIRAQMRAf/EAaIAAAAHAQEBAQEAAAAAAAAAAAQFAwIGAQAHCAkKCwEAAgIDAQEBAQEAAAAAAAAA&#xA;AQACAwQFBgcICQoLEAACAQMDAgQCBgcDBAIGAnMBAgMRBAAFIRIxQVEGE2EicYEUMpGhBxWxQiPB&#xA;UtHhMxZi8CRygvElQzRTkqKyY3PCNUQnk6OzNhdUZHTD0uIIJoMJChgZhJRFRqS0VtNVKBry4/PE&#xA;1OT0ZXWFlaW1xdXl9WZ2hpamtsbW5vY3R1dnd4eXp7fH1+f3OEhYaHiImKi4yNjo+Ck5SVlpeYmZ&#xA;qbnJ2en5KjpKWmp6ipqqusra6voRAAICAQIDBQUEBQYECAMDbQEAAhEDBCESMUEFURNhIgZxgZEy&#xA;obHwFMHR4SNCFVJicvEzJDRDghaSUyWiY7LCB3PSNeJEgxdUkwgJChgZJjZFGidkdFU38qOzwygp&#xA;0+PzhJSktMTU5PRldYWVpbXF1eX1RlZmdoaWprbG1ub2R1dnd4eXp7fH1+f3OEhYaHiImKi4yNjo&#xA;+DlJWWl5iZmpucnZ6fkqOkpaanqKmqq6ytrq+v/aAAwDAQACEQMRAD8A9U4q7FXk4/PSzP5nf4b4&#xA;Q/oHn9TGo/Fz+t1py5cuHpc/g6f5VaZjeP6q6O7/AJHP5bxN+PnXl+vq9YzJdI7FXYq7FXn/AOdP&#xA;5nv5B8sxXFhFFdeYdTnS10aznDGN5CQZHkCsjcEQ70PUr44CaFsoxMiAOZTP8rvPkXnXynBqjokG&#xA;pwM1rq9pGSVhu4qCQLUk8G2dNz8JGINi1nAxJB5hluFi7FXYq7FUvTXdNfXZNDWWuoxW4unipsIi&#xA;3CtfGtNvfI8YuuracMuDj/hukwyTU7FXYq7FWL/mB5un8t6N69nFHPqErAQRS14BQwDs3EqduVBT&#xA;ufCuZOlwDJKjya8k+EbJ9peoRahYQ3cY4iQfEhoSrjZlNNvhYEZROPCaZg2EVkUuxV2KtO6Rozuw&#xA;VEBZmOwAG5JxAVgPkj81rLzN5l1LSeCRRRktpMgqGmiTZy3L9o/bAA+z8q5najRHHAS+bRjziUiG&#xA;f5gt7sVdirsVeZfnD+b0vkhrCy0yCG71S5b1p4p+RVLYVFfgZDzdvs/I7ZTly8Owdp2d2f49mRqI&#xA;+9n2g63Ya5o1nq9g/O0vYlliJ6ivVW8GU1BHjlkZWLdflxHHIxPMI/JNbsVSPzfry6PpLyIwF3P+&#xA;7thtXkerU/yRv92YWv1Pg4yR9R5JAeYQ6DCkayy2NqA0X1gAxwc/SHWThTlx96ZzMsWrMeIcXDV/&#xA;Bz46qX84/MvWPLuqjUdOSRiPrEfwTj/KH7X+yzouzNb4+IE/UNj+PNw8sOEpnmxa3YqtllihieWV&#xA;1jijUvJI5CqqqKkknYADFXw3+ZX5iTeefzJutciYnSNJjlj0aJunpxghZKeMsh5n6B2yvJuK73J0&#xA;hqfF/NBP2bfanP5KfmW/lD8xo/r8vDQ/MscEWo8jRIpyoWOfwHGSqsf5WJ7Y4xQruXVS4p8X84A/&#xA;Zv8Aa+zcscZ2KuxV2KvNtPtQfPCeZ2Yhr3VrzSCd+JghtjHGKf8AGe1bf3zFA9fF507acv3Ph90B&#xA;L4k/qL0nMp1LsVdiqyaaKCF5pnWOKNS8kjEBVVRUkk9ABhAtXh/nfWH1dry9bZCVSFDSqRK44qad&#xA;9+R3O5PbN1p8fAAHDnKyzvynqgs9QNrIQtteEUJoAs9AFPb7YHH58ad8ws8LF9Q245VszjMFvdir&#xA;sVeefmvrWo3CWvkrQqPrWvBhJvxEdotfUZj2D8SPkG70zN0cYxPiS+mP3tOYk+kcy891D8qfNvkq&#xA;CPzNa3tvcPpjpNIsXMMoBAJowHJd6MPDNjDW48x4CDu4ssEoeoHk9y8s6/aa/odpq1rtHcpV461K&#xA;ONnQ9PsttmmzYjjkYlzoTEhYTPKmTsVQWt6xY6NpN3qt8/p2lnG0srd6Doo8Sx2A8cjKVC2zFjM5&#xA;CI5l8leY9SuteN/5tv7eO6ury89JIJXlCRRIoIRBGUJorKtS3Y7EnMG79RepiPDkMMSYgRvat/nb&#xA;0z8jfN0OmazN5SmZksL8LeaQsjVMTyxLK0Bbbqrf8EP8rLcM6lw97r+0MByYxl/iG0vgat7tmW6J&#xA;pmVVLMaKBUk9ABirxnzNr0nmDXma3q9sh9CyjFfiFacgPFz/AAzk9fnObJty5D8ebKKGFujayzGJ&#xA;2sxwgW6CkoWjQKZa0P7v1V2oN13zYHHURC9uDhv33+thx+sFl3lnUXsL4c6rE59O4Q9qGm/upznt&#xA;FqZaPU1PYcpfr/HR2U4ccdnoQNRUdM711zsVeU/np5t0xNOTyUurpp+q64h5IF9WQwDkQjICCsc5&#xA;jZHfeiggAsyjAeTKBogvCPLvlvylpkFpoupzm6lVRqOswxFUaX9qCygfkGZ5Anpv04klum+V3ZDl&#xA;iHBCfwj9t/71R1Dy/wCXTay+WDeKss/K/sJpVCubdT6kUbULEXHovvFTap3rsW6tBiJCA+H2k/cX&#xA;0r+UHm+y1jy9Fpv6QF5fafDEwWUol39UlWtubmFSxSVV+B+oYjlX4ssDiSNm2fYUKdzOlvby3Dq7&#xA;JCjSMsaNI5CipCIgZmbwVRU4q8R1v8zPOk76voq6HJZ6rqJT6nbSzcBFZhGeSSVqP6czQ+mrRj4Q&#xA;Ty5fayu6JbxHigK5g18+X6WIab5k88S6QmhXVuqWWoTRxaEkiusttMr+tJcXQClxDcpdSFX32Qd2&#xA;Fa69A+BcuUrzzA7pD5Db7me+VPzC81WWs2GmappM5sbY/oa+RWea6iu1cuJ0giV2lt1j4I0vHwZf&#xA;h5ZaObhSFRHnv+PteyZNqdirAPzT8yva28Wj2rlZpystywJH7tWqsZNDs5HxU3p23zP0WGzxFozZ&#xA;KFPMfMkk0vl65ksWBlg9KW6Qn94tu78A6qOnCZQrdfte2Z2L05N+R+9x5/Tt0ZN5b1T9P6bbPCxj&#xA;uZqpOUPFomQD1HX7VKVBX3K165XlhwE2zhLiD1nSL1rq1pKa3EPwTHpU9n6D7Q322BqO2anJGi5U&#xA;TaOyDJCaxqtlpGl3OpX0gjtbSNpZWPgo6DxJOwHjk4QMpADmUE0LeFeVvLn5j+b/ADFJ+YGn3sOk&#xA;tK8iWktwDIGi+x6axhTVF4cSTSpBzaak4sYGPqP0uNi4pEy72ca5r2v+YfLmt+WtP02W4162MNhe&#xA;3BCwWpaQH1Zk9R+Xp/A1BuaFT3zEhAYzGdivxzbZHiBilPkGz178vPMcHlvXLmO60zXlMlldRgqq&#xA;XkfFXjNafaDKOm/w++TyyOYGXMx+78fpYxAga6F69mA3uxV4N+eXmyfXfMlh+X2jzID6sbajI7hI&#xA;/Xf+7jdvCNTzbruR3GYmeVmg9B2VgGOBzS+DEbXy/cQaRe6POI5Z7TUHSSaJvUSqRp9hgQKNXuK/&#xA;LKuH0fFty5gcwkORh+kpfqmhavFb3PmSxnhhXRDYof3qrcCQwRlHjj7hSP6Vo1Iyiefu+5ydNljQ&#xA;xkfVxe76i+kvy6852vm/yra6vFRbino30I/3XcIBzHyNQy+xGZ+OfELeb1mmOHIY9Onueaf85Jfn&#xA;U3kf9EaDYxie81Jhc6pGdv8AccrFHjVv2XmIZQ3bifbBkjxAjvcQlLNGvoFMF/ZMl1aXEQltZGB4&#xA;yQzJ8JoCCp4tvQ1U+4zlJk4ctkXTKIT+11S+9NEWG0VVAVQI5tgNh0ny2XbMR/B/sv2N0cAKYRXJ&#xA;rPe30iJGo9SVo0KRxxxoFoqkufsp3Ykt881c4z7Q1UYxjwmVD4d5/Hk5QkMUCT0R/wCVH5iP5jn1&#xA;DS7teFzakz2aj/llLBQhIG5jJAqetc9J1Ggjp4REfpAA+Tp8WfxCb5s28wa5p+g6Hf63qLFLHToJ&#xA;Lm4KircIlLEKCRVjSgHjmI3vzq81/mDrnmPz3c+cbl+N/NcCeCOtUijjIEUI/wAlEUL7/Tii1+qe&#xA;b5Li4t9VhIj1CSf61MgqVR4iFjABr8NMrjEglzM2WJxxr6v4vhsPsVT5wmuLu41+ZkXU4JxNbQiv&#xA;GrhUoKmpCpHjIHi/HROOcfCkSfUOXnxbH5AJj5B/NrU/LP5nxecSD6FxKY9TtEJIezkorx9uRQKr&#xA;LX9pRljhW/QWyvLa+s4L21kEtrdRpNBKKgNHIoZWFaHcHFKtirAvzD8l3t5MNb0NS2suv1GSOoCG&#xA;G6R7WSXfflGswfrT4cpzRJGzm6HLCMvX9PP4jcfq+KZ+YvJGnXMV5fWkRGoDTZLOziH2A6ofRfx5&#xA;LsvXpkpx9JDThy1kEj37/pQ/kzy7JNcQ+btRie21bUYZXms3BrEJpS8QNaHkkHGMinbHENrPVlqy&#xA;BPhibjHb5ftZlljjIPWdVtdI0q61K6NILWMyPuBWnQCpAqTtvk8cDKQA6oJoW+fta1WW7urrVL5q&#xA;NIWllalAB2Aqew2UV8Bm/wAcBECIddMmRssd8neZbK081PeaqGGm38clpfRqAR6EyhKMAp5BQAdl&#xA;qSMnqsMpQAjzBtGKYEt+Sb+QPMVlo3my4gjcHSL6VoEmI4UUOfQkPP4lFDuCdq71plebDKWIX9QT&#xA;DIBPbkXtkOow6dcLdyOqQkrFcEkAFXYKp3K7qzbfSAKnNSYcQpzbplmYja8I/wCchPOzSXUXlOzc&#xA;iOHjcamRUcnYcooj4hVPM/MeGbrszT7cZ+Dh6nJ/Cifyr/OLy5pXlmDRded7WSx5LBcLG8qPGzFx&#xA;URhmDLWnTwyGu0UjIzjvacGcVRQXkv8AO5NO1jWYNSjubvQ7m9luNNuDvcRJJQ8CjlarXfqKb0rk&#xA;DoZTFjaq+OyTqBEpb+Y/n+PzVq1q9gjw2FgrC2Z6LIzuQXc8SeP2QBv2r3zN0ml8KJvmXGz5uM7c&#xA;g9o/L7zR/iPy3DdyH/TIT6F4PGRAPiHT7QIb8M0+qweHOunRzsOTjjbf5h+cbfyh5TvdakAeaNfT&#xA;s4TWj3Em0amnau7ewOYeSfCLc7R6c5sgj8/c+WdJ8y6PE2lalfQCfXn1J7671My8pCS5/vV7CvFg&#xA;PH4geozXkl6yeGRuIPo4apln5W+Y/KENrfR69qEdveeq8jzTHaR2JqynvzAXoNiKnqMugAQ63X4c&#xA;oyXEExIFVvVdGNeYfM2jvd+Y0tH9bT7v0IxGCF9RoZwyNGfjA4RLw5Co79DkMnPZy9HgmIxMtjZP&#xA;uv8Abun/AOUn5jabon5iG1s4TaeXdeMNu9tyZxFcEBY5By3HxsVbfoa9hksM6LDtDRmeGzvOH3Pp&#xA;m90jSb5le9soLp0FEaaJJCAewLA0zOeUYTr9j+Ytrr08Hli2hh8vizH1dFWzRVuSxZygYc+Z7cvg&#xA;qd8FBIUkj/NkT2Z4H0A4LKwsOfp/WW5fXONBz+rceP1ag5dcHCFb0TSPzMvkEGvXTW8TWsoZpItN&#xA;lU3InHpFo443pWKp4hmG3WuEbbhTTKPKegXuk2ko1Ga3u76SQkXNvbRWtIuK0jIjArRgTU+OTMie&#xA;ZRQTqaGGeF4ZkWWGVSkkbgMrKwoVYHYgjqMirEPN/kewfy/cp5b0TTY9ZZoRbyG0tKKpmT1SfVjZ&#xA;NouXUH23xVjM/kvzHD68S+X9OujbiMpcRWmmItxWWy5iNJApQrGl39un2hQk0opUv8F+Zn8wJXy/&#xA;ZporapV/9E0gMNPJ6UCu1FHUhjIewGKsj8s/ljZ6fPO2rxadqkMkcSwxnT7dDG6A825BannWu+Ks&#xA;6AAAAFANgBih2KuxV2KuxV2KuZVYFWAIPUHpiql9Vtf98p/wI/ph4irENdtvPsOt3l3o0NvcaVDb&#xA;RC106VIKzTu9JWViYnHpp8VGkUHoPEPEV2VLHQPN89/YandahHZxMsUuoaKIUkQM0MYlhWSrUCyq&#xA;5BBPXGyuzLRBADURqCOh4jGyq/Aqx4IHPJ41ZvEgE/jhsqkHmGx199U0X9DhIrBZ3fWKJAS0KKGW&#xA;P96rN8ZHH4KHfqOuPEVYqY/zhk01eNnaw6j9amlPL6q0X1V7dnig2qecc37sNTrQkleRxsp2Tvy9&#xA;5b84RX9nf6pqyy2zRK19pbwREiZoiGCyJsAshr8O2NlGzMFREFEUKPACmC1U7m1tbqFoLqFJ4Wpy&#xA;ilUOpoaiqsCOuAi0xkQbDHvMvli3/Q836C0mx/SnOH0edvb8ePrJ6nLmtKeny9/DfI+HHuDZ48/5&#xA;x+bCIfLn5hJBdCXRLOW5exMdqRBpYiS7e6I9U7czwtzyUbqe4rj4ce4J8ef84/NMLPyL5j1GGVrx&#xA;LfSZjHCYovqunyxiU2zpNx9GPmQJyrrybpj4ce4L48/5x+bMdC8q6fYWNqt3bWdxqVvQvfR2sURZ&#xA;wahwFHwnp0OEQj3MTmmep+b/AP/Z</xmpGImg:image>
               </rdf:li>
            </rdf:Alt>
         </xmp:Thumbnails>
         <xmpTPg:MaxPageSize rdf:parseType="Resource">
            <stDim:w>76.213312</stDim:w>
            <stDim:h>76.213312</stDim:h>
            <stDim:unit>Millimeters</stDim:unit>
         </xmpTPg:MaxPageSize>
         <xmpTPg:NPages>1</xmpTPg:NPages>
         <xmpTPg:HasVisibleTransparency>False</xmpTPg:HasVisibleTransparency>
         <xmpTPg:HasVisibleOverprint>True</xmpTPg:HasVisibleOverprint>
         <xmpTPg:PlateNames>
            <rdf:Seq>
               <rdf:li>Cyan</rdf:li>
               <rdf:li>Magenta</rdf:li>
               <rdf:li>Yellow</rdf:li>
               <rdf:li>Black</rdf:li>
               <rdf:li>R=0 G=0 B=0</rdf:li>
            </rdf:Seq>
         </xmpTPg:PlateNames>
         <xmpTPg:SwatchGroups>
            <rdf:Seq>
               <rdf:li rdf:parseType="Resource">
                  <xmpG:groupName>Default Swatch Group</xmpG:groupName>
                  <xmpG:groupType>0</xmpG:groupType>
                  <xmpG:Colorants>
                     <rdf:Seq>
                        <rdf:li rdf:parseType="Resource">
                           <xmpG:swatchName>C=62 M=57 Y=55 K=32</xmpG:swatchName>
                           <xmpG:mode>CMYK</xmpG:mode>
                           <xmpG:type>PROCESS</xmpG:type>
                           <xmpG:cyan>62.000000</xmpG:cyan>
                           <xmpG:magenta>56.999999</xmpG:magenta>
                           <xmpG:yellow>55.000001</xmpG:yellow>
                           <xmpG:black>31.999999</xmpG:black>
                        </rdf:li>
                        <rdf:li rdf:parseType="Resource">
                           <xmpG:swatchName>R=0 G=0 B=0</xmpG:swatchName>
                           <xmpG:type>SPOT</xmpG:type>
                           <xmpG:tint>100.000000</xmpG:tint>
                           <xmpG:mode>RGB</xmpG:mode>
                           <xmpG:red>0</xmpG:red>
                           <xmpG:green>0</xmpG:green>
                           <xmpG:blue>0</xmpG:blue>
                        </rdf:li>
                        <rdf:li rdf:parseType="Resource">
                           <xmpG:swatchName>R=0 G=0 B=0</xmpG:swatchName>
                           <xmpG:type>SPOT</xmpG:type>
                           <xmpG:tint>80.000000</xmpG:tint>
                           <xmpG:mode>RGB</xmpG:mode>
                           <xmpG:red>0</xmpG:red>
                           <xmpG:green>0</xmpG:green>
                           <xmpG:blue>0</xmpG:blue>
                        </rdf:li>
                        <rdf:li rdf:parseType="Resource">
                           <xmpG:swatchName>C=23 M=100 Y=94 K=17</xmpG:swatchName>
                           <xmpG:mode>CMYK</xmpG:mode>
                           <xmpG:type>PROCESS</xmpG:type>
                           <xmpG:cyan>23.000000</xmpG:cyan>
                           <xmpG:magenta>100.000000</xmpG:magenta>
                           <xmpG:yellow>94.000000</xmpG:yellow>
                           <xmpG:black>17.000000</xmpG:black>
                        </rdf:li>
                        <rdf:li rdf:parseType="Resource">
                           <xmpG:swatchName>aRed</xmpG:swatchName>
                           <xmpG:type>PROCESS</xmpG:type>
                           <xmpG:tint>100.000000</xmpG:tint>
                           <xmpG:mode>CMYK</xmpG:mode>
                           <xmpG:cyan>23.000000</xmpG:cyan>
                           <xmpG:magenta>100.000000</xmpG:magenta>
                           <xmpG:yellow>94.000000</xmpG:yellow>
                           <xmpG:black>17.000000</xmpG:black>
                        </rdf:li>
                        <rdf:li rdf:parseType="Resource">
                           <xmpG:swatchName>aRed</xmpG:swatchName>
                           <xmpG:type>PROCESS</xmpG:type>
                           <xmpG:tint>80.000000</xmpG:tint>
                           <xmpG:mode>CMYK</xmpG:mode>
                           <xmpG:cyan>23.000000</xmpG:cyan>
                           <xmpG:magenta>100.000000</xmpG:magenta>
                           <xmpG:yellow>94.000000</xmpG:yellow>
                           <xmpG:black>17.000000</xmpG:black>
                        </rdf:li>
                        <rdf:li rdf:parseType="Resource">
                           <xmpG:swatchName>sBlue</xmpG:swatchName>
                           <xmpG:type>PROCESS</xmpG:type>
                           <xmpG:tint>100.000000</xmpG:tint>
                           <xmpG:mode>CMYK</xmpG:mode>
                           <xmpG:cyan>88.999999</xmpG:cyan>
                           <xmpG:magenta>76.999998</xmpG:magenta>
                           <xmpG:yellow>0.000000</xmpG:yellow>
                           <xmpG:black>0.000000</xmpG:black>
                        </rdf:li>
                        <rdf:li rdf:parseType="Resource">
                           <xmpG:swatchName>pBlue</xmpG:swatchName>
                           <xmpG:type>PROCESS</xmpG:type>
                           <xmpG:tint>100.000000</xmpG:tint>
                           <xmpG:mode>CMYK</xmpG:mode>
                           <xmpG:cyan>69.999999</xmpG:cyan>
                           <xmpG:magenta>47.000000</xmpG:magenta>
                           <xmpG:yellow>0.000000</xmpG:yellow>
                           <xmpG:black>0.000000</xmpG:black>
                        </rdf:li>
                        <rdf:li rdf:parseType="Resource">
                           <xmpG:swatchName>pBlue</xmpG:swatchName>
                           <xmpG:type>PROCESS</xmpG:type>
                           <xmpG:tint>60.000000</xmpG:tint>
                           <xmpG:mode>CMYK</xmpG:mode>
                           <xmpG:cyan>69.999999</xmpG:cyan>
                           <xmpG:magenta>47.000000</xmpG:magenta>
                           <xmpG:yellow>0.000000</xmpG:yellow>
                           <xmpG:black>0.000000</xmpG:black>
                        </rdf:li>
                        <rdf:li rdf:parseType="Resource">
                           <xmpG:swatchName>pBlue</xmpG:swatchName>
                           <xmpG:type>PROCESS</xmpG:type>
                           <xmpG:tint>40.000000</xmpG:tint>
                           <xmpG:mode>CMYK</xmpG:mode>
                           <xmpG:cyan>69.999999</xmpG:cyan>
                           <xmpG:magenta>47.000000</xmpG:magenta>
                           <xmpG:yellow>0.000000</xmpG:yellow>
                           <xmpG:black>0.000000</xmpG:black>
                        </rdf:li>
                        <rdf:li rdf:parseType="Resource">
                           <xmpG:swatchName>pBlue</xmpG:swatchName>
                           <xmpG:type>PROCESS</xmpG:type>
                           <xmpG:tint>0.000000</xmpG:tint>
                           <xmpG:mode>CMYK</xmpG:mode>
                           <xmpG:cyan>69.999999</xmpG:cyan>
                           <xmpG:magenta>47.000000</xmpG:magenta>
                           <xmpG:yellow>0.000000</xmpG:yellow>
                           <xmpG:black>0.000000</xmpG:black>
                        </rdf:li>
                        <rdf:li rdf:parseType="Resource">
                           <xmpG:swatchName>pBlue</xmpG:swatchName>
                           <xmpG:type>PROCESS</xmpG:type>
                           <xmpG:tint>20.000000</xmpG:tint>
                           <xmpG:mode>CMYK</xmpG:mode>
                           <xmpG:cyan>69.999999</xmpG:cyan>
                           <xmpG:magenta>47.000000</xmpG:magenta>
                           <xmpG:yellow>0.000000</xmpG:yellow>
                           <xmpG:black>0.000000</xmpG:black>
                        </rdf:li>
                        <rdf:li rdf:parseType="Resource">
                           <xmpG:swatchName>aRed2</xmpG:swatchName>
                           <xmpG:type>PROCESS</xmpG:type>
                           <xmpG:tint>100.000000</xmpG:tint>
                           <xmpG:mode>CMYK</xmpG:mode>
                           <xmpG:cyan>23.000000</xmpG:cyan>
                           <xmpG:magenta>100.000000</xmpG:magenta>
                           <xmpG:yellow>94.000000</xmpG:yellow>
                           <xmpG:black>31.000000</xmpG:black>
                        </rdf:li>
                     </rdf:Seq>
                  </xmpG:Colorants>
               </rdf:li>
            </rdf:Seq>
         </xmpTPg:SwatchGroups>
         <dc:format>image/svg+xml</dc:format>
         <xmpMM:History>
            <rdf:Seq>
               <rdf:li rdf:parseType="Resource">
                  <stEvt:action>converted</stEvt:action>
                  <stEvt:parameters>from application/postscript to application/vnd.adobe.illustrator</stEvt:parameters>
               </rdf:li>
               <rdf:li rdf:parseType="Resource">
                  <stEvt:action>saved</stEvt:action>
                  <stEvt:instanceID>xmp.iid:fea52983-50db-483e-81a2-59a51ad093a2</stEvt:instanceID>
                  <stEvt:when>2017-01-04T18:23:12-08:00</stEvt:when>
                  <stEvt:softwareAgent>Adobe Illustrator CC 2017 (Macintosh)</stEvt:softwareAgent>
                  <stEvt:changed>/</stEvt:changed>
               </rdf:li>
               <rdf:li rdf:parseType="Resource">
                  <stEvt:action>saved</stEvt:action>
                  <stEvt:instanceID>xmp.iid:b9891d45-aa16-49bd-ac5f-dd4f7c18a263</stEvt:instanceID>
                  <stEvt:when>2017-01-04T18:23:56-08:00</stEvt:when>
                  <stEvt:softwareAgent>Adobe Illustrator CC 2017 (Macintosh)</stEvt:softwareAgent>
                  <stEvt:changed>/</stEvt:changed>
               </rdf:li>
            </rdf:Seq>
         </xmpMM:History>
         <xmpMM:DerivedFrom rdf:parseType="Resource">
            <stRef:instanceID>xmp.iid:fea52983-50db-483e-81a2-59a51ad093a2</stRef:instanceID>
            <stRef:documentID>xmp.did:fea52983-50db-483e-81a2-59a51ad093a2</stRef:documentID>
            <stRef:originalDocumentID>xmp.did:fea52983-50db-483e-81a2-59a51ad093a2</stRef:originalDocumentID>
            <stRef:renditionClass>proof:pdf</stRef:renditionClass>
         </xmpMM:DerivedFrom>
         <xmpMM:DocumentID>xmp.did:b9891d45-aa16-49bd-ac5f-dd4f7c18a263</xmpMM:DocumentID>
         <xmpMM:InstanceID>xmp.iid:b9891d45-aa16-49bd-ac5f-dd4f7c18a263</xmpMM:InstanceID>
         <xmpMM:OriginalDocumentID>xmp.did:fea52983-50db-483e-81a2-59a51ad093a2</xmpMM:OriginalDocumentID>
         <xmpMM:RenditionClass>proof:pdf</xmpMM:RenditionClass>
      </rdf:Description>
   </rdf:RDF>
</x:xmpmeta>
                                                                                                    
                                                                                                    
                                                                                                    
                                                                                                    
                                                                                                    
                                                                                                    
                                                                                                    
                                                                                                    
                                                                                                    
                                                                                                    
                                                                                                    
                                                                                                    
                                                                                                    
                                                                                                    
                                                                                                    
                                                                                                    
                                                                                                    
                                                                                                    
                                                                                                    
                                                                                                    
                           
<?xpacket end="w"?>
	</metadata>
<g id="Layer_1">
</g>
<g id="Layer_2">
	<path class="st9" d="M201.0247345,167.7532349L113.0507431,15.3832378l-0.5029984-0.8710022h-1.0060043h-6.8389969h-1.0050049
		l-0.5029984,0.8710022l-87.973999,152.3699951l-0.503006,0.8710022l0.503006,0.8709869l1.8110037,3.1380005l1.6080017,2.7840118
		l0.5029907,0.8709869h1.0050049h175.9489899h1.0059967l0.503006-0.8709869l2.0720062-3.5900116l1.3470001-2.3320007
		l0.5029907-0.8709869L201.0247345,167.7532349z M201.0247345,167.7532349L113.0507431,15.3832378l-0.5029984-0.8710022h-1.0060043
		h-6.8389969h-1.0050049l-0.5029984,0.8710022l-87.973999,152.3699951l-0.503006,0.8710022l0.503006,0.8709869l1.8110037,3.1380005
		l1.6080017,2.7840118l0.5029907,0.8709869h1.0050049h175.9489899h1.0059967l0.503006-0.8709869l2.0720062-3.5900116
		l1.3470001-2.3320007l0.5029907-0.8709869L201.0247345,167.7532349z M201.0247345,167.7532349L113.0507431,15.3832378
		l-0.5029984-0.8710022h-1.0060043h-6.8389969h-1.0050049l-0.5029984,0.8710022l-87.973999,152.3699951l-0.503006,0.8710022
		l0.503006,0.8709869l1.8110037,3.1380005l1.6080017,2.7840118l0.5029907,0.8709869h1.0050049h175.9489899h1.0059967
		l0.503006-0.8709869l2.0720062-3.5900116l1.3470001-2.3320007l0.5029907-0.8709869L201.0247345,167.7532349z"/>
	<radialGradient id="SVGID_1_" cx="108.1218872" cy="95.3986664" r="85.4925385" gradientUnits="userSpaceOnUse">
		<stop  offset="0" style="stop-color:#333333"/>
		<stop  offset="0.4870711" style="stop-color:#141414"/>
		<stop  offset="0.8629006" style="stop-color:#000000"/>
	</radialGradient>
	<path class="st0" d="M199.5174561,168.6275177L111.541275,16.2481899c-3.7618103,0-3.0778503,0-6.8386459,0L16.7263203,168.6275177
		c1.8805046,3.257431,1.5386238,2.6652374,3.4190369,5.9216309H196.097641
		C197.9780273,171.2927551,197.6360474,171.8849487,199.5174561,168.6275177L199.5174561,168.6275177z M199.5174561,168.6275177
		L111.541275,16.2481899c-3.7618103,0-3.0778503,0-6.8386459,0L16.7263203,168.6275177
		c1.8805046,3.257431,1.5386238,2.6652374,3.4190369,5.9216309H196.097641
		C197.9780273,171.2927551,197.6360474,171.8849487,199.5174561,168.6275177L199.5174561,168.6275177z M199.5174561,168.6275177
		L111.541275,16.2481899c-3.7618103,0-3.0778503,0-6.8386459,0L16.7263203,168.6275177
		c1.8805046,3.257431,1.5386238,2.6652374,3.4190369,5.9216309H196.097641
		C197.9780273,171.2927551,197.6360474,171.8849487,199.5174561,168.6275177L199.5174561,168.6275177z"/>
	<path class="st19" d="M69.0829086,147.0049286c6.5473785,0.1463013,15.2560272-41.6834488,21.6446381-41.4867554
		c8.9124374,0.2723999,15.0686188,41.1669769,21.6449509,41.4564972
		c7.8363571,0.3440094,11.0715561-44.5434113,21.4621887-44.6362305
		c7.8292542-0.0706253,14.3470917,46.1746674,21.6447449,47.236908c3.8747864,0.5649567,7.6850128-24.758873,12.0420227-36.4911957
		l-2.9103851-5.0409698c-3.5751801,10.2504044-6.8366241,20.9688416-10.2453461,21.2694702
		c-5.4485168,0.4812164-13.8235626-42.5515289-21.6447754-41.9735184
		c-6.9062119,0.5105591-13.625824,39.7168655-21.46315,39.3718185
		c-6.5753479-0.2884979-12.7316513-39.1132736-21.6440582-38.8243484
		c-5.2733841,0.1712036-15.0966644,36.2227097-21.6445465,36.2227097c-4.2357445,0-9.0800858-11.7726746-13.5984001-20.1396484
		l-2.4569244,4.2561417C56.8150215,115.2803116,61.9757156,146.8455811,69.0829086,147.0049286L69.0829086,147.0049286z"/>
	<path class="st4" d="M171.1812592,119.54776c-0.7075958,0.6365967-1.3935699,1.0249329-2.0346527,0.9883575
		c-3.77388-0.2148895-10.2735443-16.3879089-13.6287994-16.6027908
		c-3.3542633-0.2148285-8.1763458,17.6771622-12.1600647,17.6852875
		c-3.9837646,0.0080032-6.2898865-16.7723007-11.3217468-17.2040405c-5.0318604-0.4318085-8.17733,17.1959152-12.1600647,17.2040405
		c-3.9837112,0.0080032-9.4352417-24.8834991-11.9512024-25.0988159
		c-2.5159607-0.2145767-9.2251663,25.520462-12.9986725,25.0906906c-3.7741241-0.4297104-6.2902069-15.0452042-12.160553-15.0552368
		c-5.8705902-0.0091171-8.3864899,13.5511551-12.1605453,13.9828949
		c-3.7737579,0.4327927-9.4345741-13.5430908-12.5795517-13.9728622
		c-3.1449814-0.4297104-9.4348183,13.3262329-12.5795517,13.1103592c-0.1397667-0.0090485-0.2839088-0.0625534-0.4277992-0.1119995
		l-1.6108513,2.790329c0.7162666,0.7354126,1.4000282,1.2266998,2.0386505,1.27005
		c3.1447334,0.2149429,9.4345703-13.5400162,12.5795517-13.1103058c3.1449776,0.4297714,8.8057938,14.4056549,12.5795517,13.9728622
		c3.7740555-0.4317398,6.2899551-13.992012,12.1605453-13.9829559c5.8703461,0.0100937,8.3864288,14.6246033,12.160553,15.0552979
		c3.7735062,0.4297714,10.4827118-17.4097595,12.9986725-17.194931c2.5159607,0.2158737,7.9674911,17.210083,11.9512024,17.2030563
		c3.9827347-0.0081253,7.1282043-17.6368332,12.1600647-17.2040405c5.0318604,0.4317398,7.3379822,17.2110672,11.3217468,17.2040405
		c3.9837189-0.0081253,8.8058014-15.2681503,12.1600647-15.0533295c3.3552551,0.2148895,9.8549194,13.7549591,13.6287994,13.9708328
		c1.0574951,0.0595398,2.2303925-0.9939575,3.4310455-2.5181732L171.1812592,119.54776z"/>
	
		<linearGradient id="SVGID_2_" gradientUnits="userSpaceOnUse" x1="108.6488419" y1="167.7855377" x2="108.6488419" y2="29.7105904">
		<stop  offset="0" style="stop-color:#A71E27"/>
		<stop  offset="0.4355421" style="stop-color:#AC3230"/>
		<stop  offset="1" style="stop-color:#B54D41"/>
	</linearGradient>
	<path class="st1" d="M82.605217,164.2554016c7.0480652,0,20.1322632-113.3491669,27.9706192-113.3491669
		c7.8393784,0,17.7447357,116.6832123,24.7922058,116.8789368c5.7097931,0.1593781,13.4200287-53.3401184,21.2049255-73.5629807
		l-1.1863403-2.0540466c-7.3773499,22.1931381-14.5993347,62.4683762-20.0185852,62.3180771
		c-7.0474701-0.1967316-13.3332672-124.7756348-24.7922058-124.7756348c-10.065773,0-22.6369019,121.244812-27.9706192,121.244812
		c-4.3263168,0-13.4149704-41.5190811-20.5565529-60.1837082l-1.3239517,2.29319
		C68.0271912,108.4436798,78.0061188,164.2554016,82.605217,164.2554016L82.605217,164.2554016z"/>
	<g>
		<path class="st2" d="M56.9311218,184.3737946v20.2930298h4.6824036v-7.1210327H64.47612
			c1.4313049,0,3.5608063-0.1519775,5.1723022-1.7929993c0.7601013-0.7909851,1.7330933-2.2200012,1.7330933-4.7779846
			c0-1.3999939-0.2431946-3.4089966-1.9763947-4.9290161c-1.6115112-1.4289856-3.558609-1.6719971-5.3249054-1.6719971H56.9311218
			L56.9311218,184.3737946z M61.6135254,188.2037811h1.5835876c0.91362,0,1.9185028,0.0920105,2.6190033,0.7620239
			c0.4568024,0.4259949,0.7612915,1.1260071,0.7612915,1.9790039c0,0.8829956-0.3349762,1.5830078-0.7612915,2.0100098
			c-0.7613983,0.7309875-1.888092,0.7610168-2.5276947,0.7610168h-1.6748962V188.2037811L61.6135254,188.2037811z
			 M93.4490204,184.3737946h-4.6823883v11.8980103c0,0.8829956-0.0609131,2.3739929-1.0656128,3.4079895
			c-0.8220062,0.8829956-1.9485016,1.0650024-2.8313141,1.0650024c-0.8829803,0-2.0093842-0.1820068-2.8313904-1.0650024
			c-1.0046997-1.0339966-1.0655975-2.5249939-1.0655975-3.4079895v-11.8980103h-4.6824036v12.019989
			c0,1.9470215,0.2433014,4.3510132,2.25,6.4190063c1.9459991,2.006012,4.1982117,2.3099976,6.3293915,2.3099976
			c2.1311188,0,4.3834076-0.3039856,6.3293152-2.3099976c2.0066986-2.0679932,2.25-4.4719849,2.25-6.4190063V184.3737946
			L93.4490204,184.3737946z M100.149704,184.3737946v20.2930298h10.9820099v-3.9520264h-6.298996v-16.3410034H100.149704
			L100.149704,184.3737946z M128.9157104,185.9237823c-2.371994-1.76297-4.6230011-2.0059814-6.0240021-2.0059814
			c-1.8889923,0-3.5919952,0.3950195-5.0209961,1.8540039c-1.2159882,1.2469788-1.7630005,2.7670288-1.7630005,4.5629883
			c0,0.973999,0.1519928,2.4049988,1.2160034,3.5310364c0.7910004,0.8519592,1.8850098,1.2789612,2.8280182,1.6129761
			l1.673996,0.57901c0.5779877,0.2129822,1.8269958,0.6689758,2.3749847,1.1260071
			c0.427002,0.3649597,0.701004,0.7909851,0.701004,1.460968c0,0.7610168-0.3350067,1.309021-0.7310028,1.6440125
			c-0.6699982,0.5779724-1.522995,0.6999817-2.1320038,0.6999817c-0.943985,0-1.7660065-0.243988-2.5559845-0.730957
			c-0.5480042-0.335022-1.3680115-1.0350037-1.8850098-1.5520325l-2.4340057,3.3470154
			c0.7610016,0.7599792,1.9470215,1.7019958,2.9810028,2.2189941c1.2770081,0.6390076,2.5540009,0.8509827,4.0160065,0.8509827
			c1.3399963,0,3.957016-0.1819763,5.7509918-2.0669861c1.0639954-1.0940247,1.7940063-2.9189758,1.7940063-5.019989
			c0-1.1869812-0.3040009-2.6480103-1.4899902-3.7740173c-0.7900085-0.7610168-1.8850098-1.2179871-2.7670135-1.5529785
			l-1.5220032-0.5780029c-1.3699951-0.5169983-2.0709839-0.7000122-2.5579987-1.1570129
			c-0.3050079-0.2729797-0.4570007-0.6390076-0.4570007-1.1259766c0-0.5170288,0.2130127-0.9740295,0.5180054-1.2780151
			c0.5480042-0.6090088,1.3399963-0.7000122,1.9799957-0.7000122c0.5780029,0,1.8869934,0.0910034,3.4080048,1.4609985
			L128.9157104,185.9237823L128.9157104,185.9237823z M146.8317261,184.3737946h-11.4689941v20.2930298h11.4689941v-3.9520264
			h-6.7860107v-4.5069885h6.451004v-3.9530334h-6.451004v-3.9289551h6.7860107V184.3737946L146.8317261,184.3737946z"/>
		<path class="st2" d="M160.0927124,185.0077972v-2.3039856h-7.875v2.3039856h2.572998v9.5270081h2.7300262v-9.5270081H160.0927124
			L160.0927124,185.0077972z M164.6517181,194.5348053l0.9410095-7.0599976l2.9629974,7.0599976h0.9580078l2.9639893-7.0599976
			l0.9399872,7.0599976h2.7300262l-1.8970032-11.8309937h-2.2700195l-2.9459839,7.0769653l-2.9450073-7.0769653h-2.2710114
			l-1.8970032,11.8309937H164.6517181L164.6517181,194.5348053z"/>
	</g>
</g>
<g id="Layer_3">
</g>
</svg>
