<?xml version="1.0" encoding="utf-8"?>
<!-- Generator: Adobe Illustrator 22.0.1, SVG Export Plug-In . SVG Version: 6.00 Build 0)  -->
<svg version="1.1" id="Layer_1" xmlns="http://www.w3.org/2000/svg" xmlns:xlink="http://www.w3.org/1999/xlink" x="0px" y="0px"
	 viewBox="0 0 165.8 43.2" style="enable-background:new 0 0 165.8 43.2;" xml:space="preserve">
<style type="text/css">
	.st0{fill:#FFFFFF;}
	.st1{fill:none;stroke:#FFFFFF;stroke-width:0.2804;stroke-linecap:round;stroke-linejoin:round;}
	.st2{fill:url(#SVGID_1_);}
	.st3{fill:url(#SVGID_2_);}
	.st4{fill:url(#SVGID_3_);}
</style>
<g id="Layer_1_1_">
	<g>
		<path class="st0" d="M53.1,28.6c0,2.8,0,3.1,1.6,3.3l0.9,0.1c0.1,0.1,0.1,0.5,0,0.6c-1.5,0-2.3-0.1-3.4-0.1s-2,0-3.6,0.1
			c-0.1-0.1-0.2-0.5,0-0.6l1-0.1c1.5-0.1,1.6-0.5,1.6-3.3V16.9c0-0.9,0-0.9-0.7-0.9h-1.5c-1.2,0-2.6,0-3.2,0.6
			c-0.6,0.5-0.9,1.2-1.2,1.8c-0.2,0.1-0.5,0-0.6-0.2c0.4-1.2,0.9-2.9,1-3.9c0.1,0,0.4-0.1,0.5,0c0.1,0.9,1.1,0.9,2.2,0.9h10.7
			c1.4,0,1.7,0,2-0.7c0.1,0,0.4,0,0.4,0.1c-0.3,1.1-0.4,3.2-0.4,3.9c-0.1,0.2-0.5,0.2-0.6,0c-0.1-0.6-0.2-1.6-0.6-1.9
			c-0.6-0.4-1.6-0.6-3.1-0.6h-1.9c-0.7,0-0.7,0-0.7,0.9v11.8H53.1z"/>
		<path class="st0" d="M63.3,21.1c0-2.3,0-2.7-1.4-2.9h-0.3c-0.1-0.1-0.1-0.5,0-0.5c1,0,1.7,0.1,2.7,0.1h4.3c1.5,0,2.8,0,3.1-0.1
			c0.1,0.4,0.3,2,0.3,3c-0.1,0.1-0.4,0.2-0.5,0c-0.3-1.1-0.5-1.8-1.7-2.1c-0.4-0.1-1.2-0.1-2.2-0.1h-1.6c-0.6,0-0.6,0-0.6,0.9v4.5
			c0,0.6,0.1,0.6,0.7,0.6h1.3c1,0,1.7,0,1.9-0.1c0.3-0.1,0.4-0.2,0.5-0.7l0.2-1c0.1-0.1,0.5-0.1,0.6,0c0,0.5-0.1,1.4-0.1,2.2
			s0.1,1.7,0.1,2.1c-0.1,0.1-0.4,0.1-0.6,0l-0.2-0.9c-0.1-0.4-0.2-0.7-0.7-0.9c-0.2,0-0.7,0-1.7,0H66c-0.6,0-0.7,0-0.7,0.6v3.2
			c0,1.2,0.1,1.9,0.4,2.3c0.3,0.3,0.7,0.5,2.8,0.5c1.7,0,2.5-0.1,2.9-0.3c0.4-0.2,1.1-1.1,1.6-2.2c0.1-0.1,0.4,0,0.5,0.1
			c-0.1,0.7-0.7,2.6-1.1,3.1c-2,0-4-0.1-6.1-0.1h-2c-1,0-1.7,0-3.1,0.1c-0.1-0.1-0.2-0.4,0-0.5l0.7-0.1c1.3-0.1,1.4-0.4,1.4-2.8
			V21.1z"/>
		<path class="st0" d="M76.9,19.3c1.7-1.3,3.7-1.9,6.2-1.9c1.3,0,3,0.2,4,0.5c0.3,0.1,0.4,0.1,0.6,0.1c0,0.5,0.1,1.9,0.3,3.3
			c-0.1,0.1-0.4,0.2-0.6,0c-0.3-1.5-1.4-3.3-4.7-3.3c-3.5,0-6.4,2.2-6.4,6.8c0,4.7,3,7.4,6.7,7.4c3,0,4.3-1.9,4.8-3.2
			c0.1-0.1,0.5-0.1,0.6,0.1c-0.1,1.2-0.7,2.7-1.1,3.1c-0.3,0-0.5,0.1-0.7,0.2c-0.5,0.2-2.1,0.5-3.6,0.5c-2,0-4-0.4-5.6-1.5
			c-1.8-1.3-3.2-3.3-3.2-6.2C74.1,22.7,75.2,20.5,76.9,19.3z"/>
		<path class="st0" d="M94.3,25.3c-1.1,0-1.2,0-1.2,0.7v3.2c0,2.3,0.1,2.7,1.4,2.8l0.6,0.1c0.1,0.1,0.1,0.5,0,0.5
			c-1.3,0-2-0.1-2.9-0.1c-1,0-1.7,0-2.7,0.1c-0.1-0.1-0.2-0.4,0-0.5L90,32c1.3-0.2,1.3-0.4,1.3-2.8v-8.1c0-2.3-0.1-2.8-1.4-2.9h-0.6
			c-0.1-0.1-0.1-0.5,0-0.5c1.1,0,1.9,0.1,2.9,0.1c0.9,0,1.7,0,2.7-0.1c0.1,0.1,0.2,0.4,0,0.5h-0.4c-1.3,0.1-1.4,0.4-1.4,2.9v2.6
			c0,0.7,0,0.7,1.2,0.7h6.5c1.1,0,1.2,0,1.2-0.7v-2.6c0-2.3,0-2.7-1.4-2.9h-0.4c-0.1-0.1-0.1-0.5,0-0.5c1.1,0,1.8,0.1,2.8,0.1
			c0.9,0,1.7,0,2.7-0.1c0.1,0.1,0.2,0.4,0,0.5h-0.4c-1.3,0.1-1.4,0.4-1.4,2.9v8.1c0,2.3,0,2.7,1.4,2.8l0.5,0.1
			c0.1,0.1,0.1,0.5,0,0.5c-1.1,0-1.9-0.1-2.8-0.1c-1,0-1.7,0-2.8,0.1c-0.1-0.1-0.2-0.4,0-0.5l0.4-0.1c1.4-0.2,1.4-0.4,1.4-2.8v-3.2
			c0-0.6,0-0.7-1.2-0.7C100.7,25.3,94.3,25.3,94.3,25.3z"/>
		<path class="st0" d="M116.7,25.5c0.6,1.3,1.2,2.5,1.8,3.6l0,0c0.7-1.3,1.4-2.6,2-3.9l2.5-5c1.2-2.3,1.9-3.8,2-5
			c0.9,0.1,1.5,0.1,2,0.1c0.6,0,1.5,0,2.3-0.1c0.1,0.1,0.1,0.5,0,0.6h-0.5c-1.7,0.1-1.9,0.6-1.8,2.5c0,2.8,0.1,7.6,0.3,11.4
			c0.1,1.3,0,2,1.3,2.1l0.9,0.1c0.1,0.1,0.1,0.5,0,0.6c-1.1,0-2.1-0.1-3.1-0.1s-2.1,0-3.2,0.1c-0.2-0.1-0.2-0.5,0-0.6l0.7-0.1
			c1.3-0.1,1.3-0.5,1.3-2.2l-0.1-10.8l0,0c-0.2,0.3-1.2,2.3-1.7,3.4l-2.3,4.6c-1.2,2.3-2.3,4.8-2.9,6c0,0.1-0.1,0.1-0.2,0.1
			c0,0-0.2,0-0.2-0.1c-0.4-1.4-1.7-3.9-2.3-5.2l-2.3-5c-0.5-1.2-1.1-2.6-1.7-3.7l0,0c-0.1,1.6-0.2,3.1-0.2,4.7
			c-0.1,1.6-0.2,3.9-0.2,6.2c0,1.9,0.1,2.3,1.2,2.5l1,0.1c0.2,0.1,0.1,0.5,0,0.6c-0.9,0-1.9-0.1-2.9-0.1c-0.9,0-1.8,0-2.7,0.1
			c-0.1-0.1-0.2-0.5,0-0.6l0.5-0.1c1.1-0.1,1.5-0.3,1.6-2.1c0.1-1.7,0.3-3.2,0.4-5.8c0.1-2.1,0.2-4.4,0.3-5.9c0-1.6-0.1-2-1.8-2.2
			h-0.4c-0.1-0.1-0.1-0.5,0.1-0.6c0.7,0,1.4,0.1,2.1,0.1c0.6,0,1.3,0,2.2-0.1c-0.1,1.1,0.5,2.7,1.4,4.3L116.7,25.5z"/>
		<path class="st0" d="M133.1,21.1c0-2.3,0-2.8-1.4-2.9h-0.5c-0.1-0.1-0.1-0.5,0-0.5c1.2,0,1.9,0.1,2.9,0.1s1.7,0,2.8-0.1
			c0.1,0.1,0.2,0.4,0,0.5h-0.5c-1.4,0.1-1.4,0.5-1.4,2.9v8c0,2.3,0,2.7,1.4,2.9l0.5,0.1c0.1,0.1,0.1,0.5,0,0.5
			c-1.2,0-1.9-0.1-2.8-0.1c-1,0-1.7,0-2.9,0.1c-0.1-0.1-0.2-0.4,0-0.5l0.5-0.1c1.4-0.1,1.4-0.4,1.4-2.9V21.1z"/>
		<path class="st0" d="M142.2,32.9c-1.9,0-3.1-0.6-3.5-0.9c-0.3-0.5-0.5-2.1-0.6-3.2c0.1-0.1,0.4-0.2,0.5-0.1
			c0.3,1.2,1.3,3.4,3.9,3.4c1.9,0,2.9-1.3,2.9-2.6c0-1-0.2-2.1-1.9-3.2l-2.1-1.4c-1.2-0.7-2.5-2-2.5-3.8c0-2.1,1.7-3.8,4.7-3.8
			c0.7,0,1.5,0.1,2.1,0.3c0.3,0.1,0.6,0.1,0.7,0.1c0.2,0.5,0.4,1.8,0.4,2.8c-0.1,0.1-0.4,0.2-0.5,0.1c-0.3-1.1-1-2.6-3.1-2.6
			c-2.2,0-2.7,1.5-2.7,2.6c0,1.3,1.1,2.2,1.9,2.8l1.8,1.2c1.4,0.9,2.9,2.2,2.9,4.4C147.1,31.2,145.2,32.9,142.2,32.9z"/>
		<path class="st0" d="M156.4,29.2c0,2.3,0,2.7,1.4,2.8l0.7,0.1c0.1,0.1,0.1,0.5,0,0.5c-1.3,0-2-0.1-3-0.1s-1.7,0-3.2,0.1
			c-0.1-0.1-0.2-0.4,0-0.5l0.9-0.1c1.3-0.1,1.4-0.4,1.4-2.8V19c0-0.7,0-0.7-0.6-0.7h-1.3c-1,0-2.2,0-2.8,0.5c-0.5,0.5-0.7,1-1.1,1.6
			c-0.2,0.1-0.5,0-0.6-0.1c0.3-1.1,0.7-2.5,0.9-3.4c0.1,0,0.3-0.1,0.4,0c0.1,0.7,0.9,0.7,1.9,0.7h9.2c1.3,0,1.4,0,1.8-0.6
			c0.1,0,0.3,0,0.4,0.1c-0.2,1-0.4,2.8-0.3,3.4c-0.1,0.2-0.4,0.2-0.6,0c-0.1-0.5-0.2-1.4-0.5-1.6c-0.5-0.4-1.4-0.5-2.7-0.5h-1.6
			c-0.6,0-0.6,0-0.6,0.7L156.4,29.2L156.4,29.2z"/>
	</g>
	<path class="st0" d="M21.6,26.6c-1.4,0-2.6-1.2-2.6-2.6l0,0c0-1.4,1.2-2.6,2.6-2.6s2.6,1.2,2.6,2.6l0,0
		C24.2,25.4,23,26.6,21.6,26.6L21.6,26.6 M29.7,12.3c0,4.5-3.6,8.1-8.1,8.1s-8.1-3.6-8.1-8.1c0-3.7,2.6-6.8,6-7.8
		c-4.5,1-7.8,4.9-7.8,9.6c0,1.8,0.5,3.5,1.3,4.9c-1.7,0-3.4,0.4-5,1.3c-4.2,2.3-5.9,7.1-4.5,11.5c-0.9-3.4,0.6-7.1,3.8-9
		c3.9-2.2,8.8-1,11.1,3s0.9,8.7-3,11c-3.3,1.8-7.2,1.3-9.8-1.3c3.1,3.3,8.2,4.3,12.3,1.9c1.6-0.9,2.8-2.1,3.6-3.6
		c0.9,1.5,2,2.7,3.6,3.6c4.2,2.3,9.2,1.5,12.3-1.9c-2.6,2.5-6.5,3.1-9.8,1.3c-3.9-2.2-5.2-7.1-3-11s7.2-5.1,11.1-3
		c3.3,1.8,4.7,5.6,3.8,9.1c1.4-4.3-0.4-9.2-4.5-11.5c-1.6-0.9-3.3-1.3-5-1.3c0.9-1.5,1.3-3.1,1.3-4.9c0-4.7-3.3-8.6-7.8-9.6
		C27.2,5.4,29.7,8.6,29.7,12.3"/>
	<path class="st1" d="M24.2,24c0,1.4-1.2,2.6-2.6,2.6s-2.6-1.2-2.6-2.6l0,0c0-1.4,1.2-2.6,2.6-2.6C23,21.5,24.2,22.7,24.2,24
		L24.2,24z M35.2,20.3c-1.6-0.9-3.3-1.3-5-1.3c0.9-1.5,1.3-3.1,1.3-4.9c0-4.7-3.3-8.6-7.8-9.6c3.4,1,6,4.1,6,7.8
		c0,4.5-3.6,8.1-8.1,8.1s-8.1-3.6-8.1-8.1c0-3.7,2.6-6.8,6-7.8c-4.5,1-7.8,4.9-7.8,9.6c0,1.8,0.5,3.5,1.3,4.9c-1.7,0-3.4,0.4-5,1.3
		C3.7,22.7,2,27.5,3.4,31.8c-0.7-3.4,0.7-7.1,3.9-9c3.9-2.2,8.8-1,11.1,3c2.2,3.8,0.9,8.7-3,11c-3.3,1.8-7.2,1.3-9.8-1.3
		c3.1,3.3,8.2,4.3,12.3,1.9c1.6-0.9,2.8-2.1,3.6-3.6c0.9,1.5,2,2.7,3.6,3.6c4.2,2.3,9.2,1.5,12.3-1.9c-2.6,2.5-6.5,3.1-9.8,1.3
		c-3.9-2.2-5.2-7.1-3-11s7.2-5.1,11.1-3c3.3,1.8,4.7,5.6,3.8,9.1C41,27.6,39.3,22.8,35.2,20.3z"/>
	
		<radialGradient id="SVGID_1_" cx="1839.6442" cy="-2808.6152" r="21.3087" gradientTransform="matrix(0.3033 0 0 -0.3011 -546.632 -815.9891)" gradientUnits="userSpaceOnUse">
		<stop  offset="2.000000e-02" style="stop-color:#B3C0E2"/>
		<stop  offset="0.8" style="stop-color:#7591CA"/>
		<stop  offset="0.98" style="stop-color:#567EBF"/>
	</radialGradient>
	<ellipse class="st2" cx="11.4" cy="29.8" rx="6.5" ry="6.4"/>
	
		<radialGradient id="SVGID_2_" cx="1907.0325" cy="-2808.6152" r="21.3258" gradientTransform="matrix(0.3033 0 0 -0.3011 -546.632 -815.9891)" gradientUnits="userSpaceOnUse">
		<stop  offset="2.000000e-02" style="stop-color:#C4E1AF"/>
		<stop  offset="0.8" style="stop-color:#8CC866"/>
		<stop  offset="0.98" style="stop-color:#6FBE46"/>
	</radialGradient>
	<ellipse class="st3" cx="31.9" cy="29.8" rx="6.5" ry="6.4"/>
	
		<radialGradient id="SVGID_3_" cx="1873.3638" cy="-2750.8569" r="21.3027" gradientTransform="matrix(0.3033 0 0 -0.3011 -546.632 -815.9891)" gradientUnits="userSpaceOnUse">
		<stop  offset="2.000000e-02" style="stop-color:#FFEEAC"/>
		<stop  offset="0.8" style="stop-color:#FEE258"/>
		<stop  offset="0.98" style="stop-color:#FDDD10"/>
	</radialGradient>
	<ellipse class="st4" cx="21.6" cy="12.4" rx="6.5" ry="6.4"/>
</g>
</svg>
