<?xml version="1.0" encoding="utf-8"?>
<!-- Generator: Adobe Illustrator 22.0.1, SVG Export Plug-In . SVG Version: 6.00 Build 0)  -->
<svg version="1.1" id="Layer_1" xmlns="http://www.w3.org/2000/svg" xmlns:xlink="http://www.w3.org/1999/xlink" x="0px" y="0px"
	 viewBox="0 0 175.7893982 167.8719788" style="enable-background:new 0 0 175.7893982 167.8719788;" xml:space="preserve">
<style type="text/css">
	.st0{fill:#FFFFFF;}
	.st1{fill:url(#SVGID_1_);}
	.st2{fill:url(#SVGID_2_);}
	.st3{fill:url(#SVGID_3_);}
</style>
<path class="st0" d="M167.0747681,101.7953339c-3.6112061-9.4980621-10.4552612-17.5323029-19.2711945-22.622673
	c-6.3479767-3.6659775-13.5182953-5.7009811-20.8220596-5.9200363c3.4611893-6.4349365,5.2844467-13.6636009,5.2844467-20.9945641
	c0.0003662-10.1807365-3.534317-20.1256523-9.9531174-28.0026493c-6.3271027-7.7643471-15.1704941-13.2122879-24.9015274-15.3401432
	c-0.4302673-0.0942764-0.8578491,0.1722298-0.9629211,0.600441c-0.1048889,0.4282112,0.1507339,0.8620415,0.5761795,0.9777231
	c15.1280441,4.1113977,25.6937408,17.9696159,25.6937408,33.7006874c0,19.2553177-15.621994,34.9206505-34.8239746,34.9206505
	c-19.201622,0-34.8232536-15.6653328-34.8232536-34.9206505c0-15.7311611,10.5660477-29.5893784,25.6946297-33.7006874
	c0.4254456-0.1156816,0.6810684-0.5494232,0.5761795-0.9777231c-0.1048889-0.4282112-0.5323029-0.6955194-0.9629211-0.600441
	c-9.7312088,2.1278553-18.5747795,7.5757074-24.901886,15.3401423c-6.4186172,7.8768158-9.9536591,17.8217316-9.9536591,28.0026474
	c0,7.3310547,1.8234444,14.5597076,5.2846298,20.9945679c-7.3026886,0.2193222-14.4739075,2.2542419-20.8222427,5.9199448
	c-8.8159218,5.0900116-15.6598063,13.1241684-19.2711926,22.622406c-3.559834,9.3623123-3.8554168,19.745697-0.8325191,29.2375107
	c0.1337876,0.4202728,0.578856,0.6571655,1.0014482,0.5337372c0.4234838-0.1232758,0.6712599-0.561554,0.5586996-0.9877167
	c-4.0040102-15.1590881,2.7132225-31.2393417,16.3349915-39.1045685c8.0774117-4.6642075,17.4827156-5.9113846,26.4829063-3.5121155
	c8.9996567,2.399086,16.5172997,8.1569672,21.1681328,16.2129745c9.6002731,16.6318207,3.846138,37.9956436-12.8268929,47.6232071
	c-13.6219444,7.8649597-30.9052258,5.6430054-42.0296173-5.4046783c-0.3127079-0.3105621-0.8161068-0.3152008-1.1347008-0.0101624
	c-0.3184166,0.3048553-0.3355408,0.808075-0.0387096,1.1341553c6.7077789,7.3642426,15.8469334,12.299942,25.7338734,13.8979187
	c2.3293381,0.3765564,4.6761589,0.562439,7.0192375,0.562439c7.746151-0.000351,15.4375381-2.0341187,22.2061462-5.9425049
	c6.3478012-3.665802,11.6955795-8.8592682,15.5374374-15.0745392c3.8411407,6.2150879,9.1885605,11.4085693,15.5368958,15.0745392
	c6.7689667,3.9085693,14.4592819,5.9425049,22.2059708,5.9425049c2.3425446,0,4.6904297-0.1860504,7.0192413-0.562439
	c9.8869324-1.5979767,19.0260925-6.5336761,25.7338715-13.8979187c0.2968292-0.3260803,0.2797089-0.8292999-0.0387115-1.1341553
	c-0.3184204-0.3048706-0.8218231-0.3003998-1.1347046,0.0101624c-11.1242065,11.0473328-28.4069519,13.269455-42.0287247,5.4046783
	c-16.6740952-9.6282806-22.4282379-30.9919205-12.826889-47.6232071
	c4.6504745-8.0560074,12.1677628-13.8138885,21.1672363-16.2129745c9.0001907-2.3991776,18.4056778-1.1520081,26.4829178,3.5121155
	c13.6217651,7.8646851,20.3389893,23.9454803,16.3349915,39.1054535c-0.1125641,0.4261627,0.1352081,0.8644562,0.5586853,0.9877167
	c0.4231262,0.1234436,0.8674927-0.1134491,1.0014496-0.5337219
	C170.930191,121.5412064,170.634613,111.1576462,167.0747681,101.7953339z M98.3769073,96.2103043v0.0206909
	c-0.0024948,2.7858276-1.0897522,5.4039688-3.0610733,7.3720856c-1.9691849,1.9656143-4.5844727,3.0475082-7.3661957,3.0475082
	c-0.0032043,0-0.0069504,0-0.0101624,0c-5.7495041-0.0051727-10.4235229-4.6884689-10.4190598-10.4402847V96.190506
	c0.0053482-5.7476273,4.6824036-10.4195938,10.4283295-10.4195938c0.003212,0,0.0067825,0,0.0099945,0
	C93.7085953,85.7762604,98.3822556,90.4590225,98.3769073,96.2103043z"/>
<radialGradient id="SVGID_1_" cx="-222.7489166" cy="27.5274792" r="30.1664562" gradientTransform="matrix(0.941734 0 0 -0.9418468 252.8114319 147.5957489)" gradientUnits="userSpaceOnUse">
	<stop  offset="0.02" style="stop-color:#B3C0E2"/>
	<stop  offset="0.8" style="stop-color:#7591CA"/>
	<stop  offset="0.98" style="stop-color:#567EBF"/>
</radialGradient>
<ellipse class="st1" cx="43.0412064" cy="121.6690903" rx="28.4087753" ry="28.4121799"/>
<radialGradient id="SVGID_2_" cx="-127.3760529" cy="27.5274792" r="30.16646" gradientTransform="matrix(0.941734 0 0 -0.9418468 252.8114319 147.5957489)" gradientUnits="userSpaceOnUse">
	<stop  offset="0.02" style="stop-color:#C4E1AF"/>
	<stop  offset="0.8" style="stop-color:#8CC866"/>
	<stop  offset="0.98" style="stop-color:#6FBE46"/>
</radialGradient>
<ellipse class="st2" cx="132.8570709" cy="121.6690903" rx="28.408783" ry="28.4121799"/>
<radialGradient id="SVGID_3_" cx="-175.0620575" cy="109.2235336" r="30.1666431" gradientTransform="matrix(0.941734 0 0 -0.9418468 252.8114319 147.5957489)" gradientUnits="userSpaceOnUse">
	<stop  offset="0.02" style="stop-color:#FFEEAC"/>
	<stop  offset="0.8" style="stop-color:#FEE258"/>
	<stop  offset="0.98" style="stop-color:#FDDD10"/>
</radialGradient>
<ellipse class="st3" cx="87.9495392" cy="44.7239189" rx="28.4089508" ry="28.4123573"/>
</svg>
