<?xml version="1.0" encoding="utf-8"?>
<!-- Generator: Adobe Illustrator 22.0.1, SVG Export Plug-In . SVG Version: 6.00 Build 0)  -->
<svg version="1.1" id="Layer_1" xmlns="http://www.w3.org/2000/svg" xmlns:xlink="http://www.w3.org/1999/xlink" x="0px" y="0px"
	 viewBox="0 0 52 52" style="enable-background:new 0 0 52 52;" xml:space="preserve">
<style type="text/css">
	.st0{fill:#FFFFFF;}
	.st1{fill:url(#SVGID_1_);}
	.st2{fill:url(#SVGID_2_);}
	.st3{fill:url(#SVGID_3_);}
</style>
<g>
	<path class="st0" d="M50.11586,30.9822922c-1.099865-2.8928223-3.1843567-5.3398094-5.8694229-6.8901825
		c-1.933403-1.1165466-4.1172676-1.7363472-6.341774-1.8030663c1.0541763-1.9598866,1.6094856-4.16152,1.6094856-6.39431
		c0.0001106-3.1007452-1.0764465-6.1296673-3.0314217-8.5287628c-1.9270439-2.3647857-4.6204739-4.0240641-7.5842533-4.6721449
		c-0.1310463-0.0287137-0.2612743,0.0524561-0.2932758,0.1828763c-0.0319462,0.1304202,0.045908,0.2625518,0.1754875,0.2977848
		c4.6075439,1.252208,7.8255386,5.4730024,7.8255386,10.2642126c0,5.8645897-4.7579899,10.6357765-10.6063328,10.6357765
		c-5.8482361,0-10.6061134-4.7711868-10.6061134-10.6357765c0-4.7912369,3.2180996-9.0120325,7.8258095-10.2642136
		c0.1295776-0.035233,0.2074318-0.1673377,0.1754875-0.297785c-0.0319462-0.1304202-0.1621246-0.2118342-0.2932777-0.1828761
		c-2.9638329,0.6480806-5.6573181,2.3073318-7.584363,4.6721449c-1.9549179,2.3990407-3.0315847,5.4279618-3.0315847,8.5287628
		c0,2.2328176,0.5553665,4.4344473,1.609539,6.394311c-2.2241793,0.0667992-4.4083157,0.6865749-6.3418274,1.8030376
		c-2.6850638,1.5502644-4.7695045,3.9972267-5.8694239,6.8901024c-1.084218,2.8514767-1.1742437,6.0139446-0.2535602,8.9048634
		c0.0407476,0.1280022,0.1763021,0.2001534,0.3050109,0.1625595c0.1289803-0.0375443,0.2044455-0.171032,0.170163-0.300827
		C0.88625,35.1317787,2.9321165,30.2342186,7.0808964,27.838707c2.4601364-1.4205761,5.324708-1.8004303,8.0658951-1.069685
		c2.741024,0.73069,5.0306702,2.4843674,6.4471741,4.9379845c2.923954,5.0655499,1.1714172,11.5723248-3.9066849,14.504591
		c-4.1488333,2.3954315-9.4127989,1.718689-12.8009529-1.6461029c-0.0952411-0.0945854-0.2485614-0.0960007-0.3455954-0.0030937
		c-0.0969801,0.0928497-0.1021957,0.2461166-0.0117898,0.3454285c2.0429869,2.2429276,4.826498,3.7461929,7.8377619,4.2328873
		c0.709446,0.1146889,1.4242163,0.1713028,2.1378479,0.1713028c2.3592443-0.0001068,4.701808-0.6195297,6.7633219-1.809906
		c1.9333496-1.1164932,3.5621204-2.6982689,4.732235-4.5912514c1.1698952,1.8929291,2.7985592,3.4747047,4.7320709,4.5912514
		c2.0616207,1.1904297,4.4038601,1.809906,6.7632694,1.809906c0.7134666,0,1.4285622-0.0566635,2.1378479-0.1713028
		c3.011261-0.4866943,5.7947731-1.9899597,7.8377609-4.2328873c0.0904045-0.0993118,0.0851898-0.2525787-0.0117912-0.3454285
		c-0.096981-0.0928535-0.2503014-0.0914917-0.3455963,0.0030937c-3.3880959,3.3646851-8.6519012,4.0414772-12.8006821,1.6461029
		c-5.0784264-2.9324837-6.8309631-9.4392052-3.906683-14.504591c1.4163952-2.4536171,3.7059345-4.2072945,6.4469013-4.9379845
		c2.741188-0.7307167,5.6058159-0.3508663,8.0658989,1.069685c4.1487808,2.3953457,6.1946411,7.2930717,4.9751472,11.9103432
		c-0.0342865,0.1297951,0.0411797,0.2632866,0.1701584,0.300827c0.1288719,0.0375977,0.2642097-0.0345535,0.3050117-0.1625557
		C51.2901077,36.9962883,51.2000809,33.8337708,50.11586,30.9822922z M29.192564,29.2812614v0.0063019
		c-0.0007591,0.8484783-0.3319054,1.6458855-0.9323101,2.2453156c-0.5997543,0.5986671-1.3962917,0.9281769-2.2435207,0.9281769
		c-0.0009766,0-0.0021172,0-0.0030956,0c-1.7511253-0.0015755-3.1746902-1.4279652-3.1733322-3.1797943v-0.006031
		c0.0016289-1.7505531,1.4261208-3.1734924,3.1761551-3.1734924c0.0009785,0,0.0020657,0,0.0030441,0
		C27.7707367,26.1033669,29.1941929,27.5295944,29.192564,29.2812614z"/>
	
		<radialGradient id="SVGID_1_" cx="-219.1621552" cy="697.4100342" r="9.1877918" gradientTransform="matrix(0.941734 0 0 0.9418468 218.7314453 -619.8181152)" gradientUnits="userSpaceOnUse">
		<stop  offset="0.02" style="stop-color:#B3C0E2"/>
		<stop  offset="0.8" style="stop-color:#7591CA"/>
		<stop  offset="0.98" style="stop-color:#567EBF"/>
	</radialGradient>
	<ellipse class="st1" cx="12.3389788" cy="37.0352402" rx="8.6524563" ry="8.6534929"/>
	
		<radialGradient id="SVGID_2_" cx="-190.1144714" cy="697.4100342" r="9.1877937" gradientTransform="matrix(0.941734 0 0 0.9418468 218.7314453 -619.8181152)" gradientUnits="userSpaceOnUse">
		<stop  offset="0.02" style="stop-color:#C4E1AF"/>
		<stop  offset="0.8" style="stop-color:#8CC866"/>
		<stop  offset="0.98" style="stop-color:#6FBE46"/>
	</radialGradient>
	<ellipse class="st2" cx="39.6941833" cy="37.0352402" rx="8.6524582" ry="8.6534929"/>
	
		<radialGradient id="SVGID_3_" cx="-204.6381836" cy="672.527832" r="9.187849" gradientTransform="matrix(0.941734 0 0 0.9418468 218.7314453 -619.8181152)" gradientUnits="userSpaceOnUse">
		<stop  offset="0.02" style="stop-color:#FFEEAC"/>
		<stop  offset="0.8" style="stop-color:#FEE258"/>
		<stop  offset="0.98" style="stop-color:#FDDD10"/>
	</radialGradient>
	<ellipse class="st3" cx="26.0167027" cy="13.6000614" rx="8.6525097" ry="8.6535473"/>
</g>
</svg>
