<?xml version="1.0" encoding="utf-8"?>
<!-- Generator: Adobe Illustrator 22.0.1, SVG Export Plug-In . SVG Version: 6.00 Build 0)  -->
<svg version="1.1" id="Layer_1" xmlns="http://www.w3.org/2000/svg" xmlns:xlink="http://www.w3.org/1999/xlink" x="0px" y="0px"
	 viewBox="0 0 550.1730347 156.7129974" style="enable-background:new 0 0 550.1730347 156.7129974;" xml:space="preserve">
<style type="text/css">
	.st0{fill:#FFFFFF;}
	.st1{fill:none;stroke:#FFFFFF;stroke-width:0.8853528;stroke-linecap:round;stroke-linejoin:round;}
	.st2{fill:url(#SVGID_1_);}
	.st3{fill:url(#SVGID_2_);}
	.st4{fill:url(#SVGID_3_);}
</style>
<g id="Layer_1_1_">
	<g>
		<path class="st0" d="M180.9898376,101.2428589c0,8.6786652,0.1658478,9.9188232,4.9814758,10.3322067l2.6568451,0.2470398
			c0.4982147,0.3314362,0.3317261,1.8186646-0.1657867,2.0669327c-4.7326508-0.165123-7.5560608-0.2482681-10.8770599-0.2482681
			c-3.3209229,0-6.2272186,0.0831451-11.5410614,0.2482681c-0.4982147-0.2482681-0.6640625-1.6535492,0-2.0669327
			l2.9892731-0.2470398c4.732666-0.4133835,5.1479034-1.6535416,5.1479034-10.3322067V64.2986908
			c0-2.5622673,0-2.645443-2.4909821-2.645443h-4.566803c-3.569809,0-8.1366119,0.166317-10.2123566,2.0669327
			c-1.9928436,1.8186302-2.8227844,3.6360741-3.7362366,5.7030067c-0.6640778,0.4953308-1.826355,0.0819473-2.1587067-0.5785065
			c1.3287811-3.7192535,2.5739594-9.008873,3.1551361-12.3147392c0.2493744-0.166317,1.3287659-0.2482643,1.5775299,0
			c0.4981995,2.6442146,3.2380219,2.561039,7.0572205,2.561039h33.6268311c4.4832001,0,5.2303162-0.1650887,6.4760437-2.3139687
			c0.4152527-0.165123,1.3281555-0.0819473,1.4946442,0.2482643c-0.9134674,3.3890381-1.4946442,10.0839081-1.2458801,12.5630341
			c-0.3317261,0.6604233-1.7433929,0.6604233-2.1586456,0.1650848c-0.2487488-2.0657043-0.8299255-5.1244965-2.0758057-6.0332146
			c-1.9091797-1.4052849-5.0643768-2.0669327-9.6311035-2.0669327h-5.8949432c-2.4910583,0-2.4075317,0.0831757-2.4075317,2.8105278
			V101.2428589z"/>
		<path class="st0" d="M213.4126892,77.229805c0-7.4250259-0.1431885-8.4964142-4.3752594-8.9953995l-1.1474609-0.1431198
			c-0.4299927-0.2861633-0.2869415-1.5715942,0.1437378-1.7856064c3.0838928,0.1430817,5.5220337,0.2140121,8.4627228,0.2140121
			h13.4835815c4.5901794,0,8.8215332,0,9.6827698-0.2140121c0.4299927,1.2144699,0.8601227,6.354866,1.1476135,9.4956436
			c-0.2874908,0.429245-1.4351044,0.5711365-1.7932281,0.1430817c-1.0757294-3.3560181-1.721344-5.8546524-5.4508362-6.782959
			c-1.5062866-0.3571243-3.8013763-0.4280548-6.9570007-0.4280548h-5.1639099c-2.1519012,0-2.1519012,0.1430817-2.1519012,2.8557663
			V85.868103c0,1.9996567,0.2154846,1.9996567,2.3668213,1.9996567h4.1601868c3.0120087,0,5.2357941-0.1430817,6.0957642-0.4292831
			c0.8613739-0.2849731,1.3632355-0.7130356,1.721344-2.498642l0.5737457-2.9267273
			c0.3588104-0.4280624,1.5781555-0.4280624,1.865097,0.0709229c0,1.7134933-0.2869415,4.4983292-0.2869415,7.2110138
			c0,2.5708313,0.2869415,5.2835159,0.2869415,6.8538895c-0.2869415,0.500206-1.5062866,0.500206-1.865097,0.0709229
			l-0.64505-2.7836075c-0.2868042-1.2854385-0.7886658-2.3555908-2.2237854-2.7126846
			c-1.0037231-0.2862015-2.7250671-0.357132-5.5220184-0.357132h-4.1601868c-2.1513367,0-2.3668213,0.0709305-2.3668213,1.9274979
			v10.0667801c0,3.7840729,0.2154846,6.210556,1.3630981,7.4250641c0.860672,0.8561096,2.3669586,1.6412964,8.6783447,1.6412964
			c5.5220184,0,7.6021881-0.2849731,9.1803436-1.0701599c1.2906647-0.7142563,3.226944-3.2128983,5.092041-6.9260406
			c0.5018616-0.3571243,1.5055847-0.1418533,1.7930908,0.5002136c-0.5024261,2.4986725-2.2950897,7.9962006-3.2275085,9.9236984
			c-6.4552612-0.1430817-12.8379669-0.2140121-19.2212219-0.2140121h-6.4552765
			c-3.0837402,0-5.5220184,0.0709305-9.7539368,0.2140121c-0.43013-0.2140121-0.5738831-1.3563232-0.1431885-1.7843781
			l2.3662567-0.2140503c4.0883179-0.3571243,4.4471283-1.4285126,4.4471283-8.924469V77.229805z"/>
		<path class="st0" d="M256.3327332,71.4460754c5.2357788-4.069046,11.9059753-6.0687027,19.3649597-6.0687027
			c3.8732605,0,9.3234253,0.7864151,12.6947937,1.7147217c0.8606873,0.2140121,1.3625488,0.355896,2.0081482,0.284935
			c0.0718689,1.6425629,0.4301147,6.1396637,1.0038757,10.494873c-0.3582458,0.5002136-1.4344177,0.5711441-1.9364319,0.1430817
			c-1.075592-4.855423-4.3032227-10.4239044-14.7029114-10.4239044c-10.9734497,0-20.2968292,6.9248123-20.2968292,21.7039642
			c0,14.9931717,9.5390167,23.2743378,21.3012543,23.2743378c9.2515259,0,13.3398132-5.9965439,14.9891663-10.2086716
			c0.5025635-0.3571243,1.5782776-0.2140045,1.8650818,0.2849731c-0.5018616,3.71315-2.3669434,8.4242554-3.4425659,9.7818146
			c-0.8606567,0.1418839-1.721344,0.4280853-2.5101318,0.713028c-1.5781555,0.5711746-6.7420654,1.6425629-11.3320923,1.6425629
			c-6.4545898,0-12.6229248-1.2854385-17.8587036-4.7833023c-5.7376556-3.9271545-10.1840668-10.423912-10.1840668-19.6333542
			C247.2962799,82.4411621,250.8825836,75.6582031,256.3327332,71.4460754z"/>
		<path class="st0" d="M311.06427,90.5804443c-3.4425659,0-3.5863037,0.1431198-3.5863037,2.2846298v10.0668106
			c0,7.4959564,0.3586731,8.4951859,4.3751221,8.924469l2.0800171,0.2140503
			c0.4299927,0.284935,0.2869263,1.5703659-0.1437378,1.7843781c-3.8725586-0.1430817-6.3114014-0.2140121-9.1083374-0.2140121
			c-3.0838928,0-5.5221558,0.1430817-8.3196716,0.2140121c-0.4299927-0.2140121-0.573761-1.3563232-0.1431885-1.7843781
			l1.2194824-0.2140503c4.0162964-0.7142563,4.1594849-1.4285126,4.1594849-8.924469V77.229805
			c0-7.4971848-0.5018616-8.7104568-4.2313538-8.9953995l-1.8651123-0.1431198
			c-0.4299927-0.2861633-0.2869263-1.5715942,0.1437378-1.7856064c3.5144653,0.0721588,5.9527283,0.2140121,9.0366211,0.2140121
			c2.796936,0,5.2357788-0.0709305,8.319519-0.2140121c0.4306946,0.2140121,0.5737305,1.4994431,0.1437378,1.7856064
			l-1.3625183,0.1431198c-4.1600647,0.4280548-4.3038025,1.4982147-4.3038025,8.9953995v8.2102432
			c0,2.2136612,0.1437378,2.2846298,3.5863037,2.2846298h20.5119019c3.4425659,0,3.5863037-0.0709686,3.5863037-2.2846298V77.229805
			c0-7.4971848-0.1437378-8.5673447-4.3751221-8.9953995l-1.3625183-0.1431198
			c-0.4299927-0.2861633-0.2875061-1.5715942,0.1437378-1.7856064c3.2988281,0.1430817,5.7376404,0.2140121,8.6777954,0.2140121
			c2.7975159,0,5.2363586-0.0709305,8.4627075-0.2140121c0.4312439,0.2140121,0.573761,1.4994431,0.1437683,1.7856064
			l-1.5062866,0.1431198c-4.1589355,0.4280548-4.3026733,1.4982147-4.3026733,8.9953995v25.7020798
			c0,7.4959564,0.1437378,8.4242554,4.3026733,8.924469l1.721344,0.2140503
			c0.4299927,0.284935,0.2875061,1.5703659-0.1424866,1.7843781c-3.442688-0.1430817-5.8815308-0.2140121-8.6790466-0.2140121
			c-2.940155,0-5.5227356,0.0709305-8.6777954,0.2140121c-0.4312439-0.2140121-0.5737305-1.3563232-0.1437378-1.7843781
			l1.3625183-0.2140503c4.3751221-0.7142563,4.3751221-1.4285126,4.3751221-8.924469V92.8650742
			c0-2.14151-0.1437378-2.2846298-3.5863037-2.2846298H311.06427z"/>
		<path class="st0" d="M381.7261047,91.5735703c1.9093323,3.8843384,3.7362366,7.6855316,5.7290955,11.3228378h0.1659241
			c2.242157-3.8843765,4.3174133-8.1820984,6.3925171-12.3979111l7.8054504-15.7856903
			c3.7362366-7.5216751,6.1443481-12.0676651,6.3101196-15.8688622c2.8222351,0.247036,4.5668945,0.247036,6.2267456,0.247036
			c2.076355,0,4.8161926-0.0819473,7.3901978-0.247036c0.4975281,0.3302116,0.4975281,1.7354927,0.0822754,2.0657043
			l-1.7434082,0.1650887c-5.2302856,0.496563-5.894989,2.0669327-5.8114624,7.8518906
			c0.1659241,8.7618332,0.2481689,24.0509567,0.9129028,35.953537c0.2494507,4.132637,0.1659241,6.3634262,4.0679321,6.6949005
			l2.6575623,0.2470398c0.4976501,0.4965591,0.4152527,1.7354889-0.165802,2.0669327
			c-3.4045105-0.165123-6.809021-0.2482681-9.7982788-0.2482681c-2.9057617,0-6.6419983,0.0831451-10.0465088,0.2482681
			c-0.5811768-0.4133911-0.6634521-1.5703735-0.1659241-2.0669327l2.4082336-0.2470398
			c4.0679321-0.4133835,4.0679321-1.7367172,4.0679321-7.0263443l-0.2481689-34.4651108h-0.1670532
			c-0.5811768,0.9099503-3.7363892,7.5216751-5.3962402,10.7443619l-7.3900757,14.4648438
			c-3.7362366,7.2733765-7.4724731,15.0420914-8.9665527,18.8432922c-0.1659241,0.2482605-0.4987793,0.3314362-0.8305054,0.3314362
			c-0.1659241,0-0.5811768-0.0831757-0.7471008-0.3314362c-1.4116516-4.3797073-5.3973694-12.4798584-7.3065491-16.5293198
			l-7.4724731-15.9520416c-1.7435303-3.8012009-3.486908-8.0989227-5.3138123-11.9013519h-0.1659241
			c-0.3317261,5.1245346-0.5810547,9.9175949-0.8305054,14.7118835c-0.2494507,5.0413589-0.5811768,12.3979111-0.5811768,19.423027
			c0,6.116394,0.4989014,7.4384613,3.7362366,7.6867599l3.1551819,0.2470398
			c0.5810547,0.4965591,0.4987793,1.8186646-0.0836487,2.0669327c-2.8220825-0.165123-6.0606689-0.2482681-9.2158508-0.2482681
			c-2.656311,0-5.6455688,0.0831451-8.4689026,0.2482681c-0.4975281-0.4133911-0.6634521-1.6535492-0.165802-2.0669327
			l1.8269043-0.2470398c3.4867859-0.4965591,4.6491394-0.9918976,5.1479187-6.7780762
			c0.4976501-5.4547119,0.9129028-10.0007324,1.4116821-18.1828308c0.4141235-6.859993,0.7471008-13.8851089,0.9128723-18.4311295
			c0.165802-5.2064476-0.4987488-6.4466057-5.5631409-7.1082916l-1.3281555-0.1650887
			c-0.4153748-0.4953346-0.3316956-1.7354927,0.3317261-2.0657043c2.4916382,0.1650887,4.4832153,0.247036,6.5595703,0.247036
			c1.9093323,0,4.1514893,0,6.8912964-0.247036c-0.3316956,3.2226906,1.7435303,8.347187,4.3174438,13.6368065
			L381.7261047,91.5735703z"/>
		<path class="st0" d="M433.3062439,77.3728867c0-7.5681076-0.1437378-8.7825775-4.3750916-9.1384811l-1.7925415-0.1431198
			c-0.4312439-0.2861633-0.2876282-1.5715942,0.1436157-1.7856064c3.5851746,0.1430817,6.0240173,0.2140121,9.0365906,0.2140121
			c2.8688354,0,5.3063965-0.0709305,8.8927002-0.2140121c0.4312439,0.2140121,0.5738831,1.4994431,0.1437683,1.7856064
			l-1.7925415,0.1431198c-4.232605,0.3559036-4.3750916,1.5703735-4.3750916,9.1384811v25.4158859
			c0,7.5681381,0.1424866,8.5673676,4.3750916,9.0675812l1.7925415,0.2140503
			c0.4301147,0.284935,0.2874756,1.5703659-0.1437683,1.7843781c-3.5863037-0.1430817-6.0238647-0.2140121-8.8927002-0.2140121
			c-3.0125732,0-5.451416,0.0709305-9.0365906,0.2140121c-0.4312439-0.2140121-0.5748596-1.3563232-0.1436157-1.7843781
			l1.7925415-0.2140503c4.2313538-0.5002136,4.3750916-1.4994431,4.3750916-9.0675812V77.3728867z"/>
		<path class="st0" d="M462.2562866,114.7830887c-6.0251465,0-9.8252563-1.856575-11.1878052-2.6417618
			c-0.8612061-1.5703659-1.7937622-6.6398697-1.9375305-9.9946213c0.3586731-0.5002518,1.434967-0.6433334,1.7212219-0.2152786
			c1.0762939,3.6422195,4.0164185,10.6379547,12.3366699,10.6379547c6.0238647,0,8.965271-3.9259262,8.965271-8.2102432
			c0-3.1407394-0.6463013-6.6398392-5.8813782-9.9946213l-6.8139648-4.426178
			c-3.5851746-2.3567505-7.7452087-6.4257889-7.7452087-12.2804794c0-6.7829208,5.3074951-12.2804871,14.6303406-12.2804871
			c2.2239075,0,4.8052368,0.4292908,6.6701965,0.9283066c0.9325562,0.2861633,1.9362793,0.4292831,2.5101318,0.4292831
			c0.6461792,1.7134552,1.2912292,5.7115707,1.2912292,8.7092285c-0.2862244,0.4292831-1.4338379,0.6432953-1.792511,0.2140121
			c-0.9325562-3.4269409-2.8688354-8.0671234-9.7540894-8.0671234c-7.0288696,0-8.5351562,4.6401825-8.5351562,7.9252701
			c0,4.1411667,3.4425659,7.138855,6.0963135,8.7813797l5.737793,3.5700302
			c4.5188599,2.7836456,8.9651489,6.9248123,8.9651489,13.7077713
			C477.532959,109.4286423,471.5803833,114.7830887,462.2562866,114.7830887z"/>
		<path class="st0" d="M506.7484741,102.9318848c0,7.4959564,0.1437378,8.5673447,4.303772,8.924469l2.295105,0.2140503
			c0.4301147,0.284935,0.286377,1.5703659-0.1437378,1.7843781c-4.0888977-0.1430817-6.5264587-0.2140121-9.3952942-0.2140121
			c-2.8688049,0-5.3788147,0.0709305-9.9689941,0.2140121c-0.4312439-0.2140121-0.5750122-1.4272842,0-1.7843781
			l2.5813293-0.2140503c4.0875854-0.3571243,4.4464111-1.4285126,4.4464111-8.924469V71.0180206
			c0-2.2136993,0-2.2846298-2.1513367-2.2846298h-3.9451294c-3.0838928,0-7.0277405,0.1430817-8.8215332,1.7856445
			c-1.7212219,1.5703735-2.437561,3.1407394-3.2276306,4.9251556c-0.5737305,0.4292831-1.5774536,0.0721588-1.8638306-0.4990158
			c1.1476135-3.2128983,2.2226562-7.7821579,2.7252197-10.6379547c0.2149048-0.1430893,1.1474609-0.2140121,1.3625183,0
			c0.4299927,2.2846222,2.7975159,2.212471,6.0963135,2.212471h29.0472107c3.8726807,0,4.5175781-0.1418533,5.5938721-1.9984283
			c0.3588257-0.1430817,1.147644-0.0709305,1.2913818,0.2140121c-0.7888184,2.9267273-1.2913818,8.7104568-1.0762939,10.8519974
			c-0.2862549,0.5711441-1.5062866,0.5711441-1.8651123,0.1430893c-0.2149048-1.7843857-0.7162476-4.4261398-1.7925415-5.2113266
			c-1.6500244-1.2145081-4.3751221-1.7856445-8.3201904-1.7856445h-5.0914917c-2.1513367,0-2.0800171,0.0709305-2.0800171,2.4277115
			V102.9318848z"/>
	</g>
	<path class="st0" d="M81.8768005,94.761795c-4.4575119-0.0041428-8.0679626-3.604599-8.0632629-8.041893
		c0-0.0053024,0-0.0100021,0-0.0147095c0.0041428-4.4373322,3.620491-8.0313263,8.0780792-8.0271835
		c4.4575806,0.0046997,8.0674057,3.6045914,8.0638962,8.041893v0.01474c-0.0041428,4.434906-3.6175461,8.0265503-8.0715485,8.027153
		C81.8815765,94.761795,81.8791885,94.761795,81.8768005,94.761795 M107.4320145,49.5461349
		c0,14.1039581-11.4554291,25.5372772-25.5865173,25.5372772c-14.1317215,0-25.5871468-11.4333191-25.5871468-25.5372772
		c0-11.786026,8.0029716-21.7017937,18.8791924-24.6444569c-14.048336,3.0574951-24.567215,15.5060825-24.567215,30.4073734
		c0,5.6745453,1.5321884,10.9886932,4.1966171,15.5702744c-5.3176994-0.0058975-10.7076225,1.3302841-15.6443939,4.1675873
		c-12.9633312,7.4500504-18.5342751,22.7429657-14.1695538,36.3822632
		c-2.8792114-10.8473663,1.7463379-22.7047119,12.000246-28.5977249c12.269989-7.0519943,27.9445686-2.8926468,35.0104256,9.2897415
		s2.8467102,27.7744598-9.423275,34.8264236c-10.2539101,5.8936462-22.8818703,3.9520721-30.8794384-3.9526367
		c9.6836109,10.5812073,25.7734356,13.4255371,38.7368317,5.974884c4.9367065-2.8366699,8.7938766-6.8158035,11.4477081-11.4026718
		c2.6538315,4.5868683,6.5109329,8.5660019,11.4477081,11.4026718c12.9633331,7.4506531,29.053154,4.6063232,38.7368393-5.974884
		c-7.9981995,7.9047089-20.6255341,9.846283-30.8794403,3.9532318c-12.269989-7.0525589-16.4892044-22.6446304-9.4233475-34.8270187
		c7.0658646-12.1817932,22.7404404-16.3417358,35.0098648-9.2897415
		c10.2539062,5.893013,14.8794556,17.7503586,12.000885,28.5977249
		c4.3646393-13.6392975-1.2062988-28.9322128-14.1701889-36.3822632c-4.9362106-2.8373032-10.3266983-4.1734848-15.643837-4.1675873
		c2.6638718-4.5815811,4.1966858-9.896328,4.1966858-15.5702744c0-14.9012909-10.5195084-27.3498783-24.5672073-30.4073734
		C99.4296722,27.8443413,107.4320145,37.7601089,107.4320145,49.5461349"/>
	<path class="st1" d="M89.9550934,86.734848c-0.0041428,4.4373016-3.6211243,8.0307007-8.0780792,8.0265961
		c-4.4575806-0.0041428-8.0674057-3.604599-8.0638275-8.041893c0-0.0047073,0-0.0094452,0-0.0147095
		c0.0041428-4.4373322,3.6210556-8.0307312,8.0786362-8.0265884c4.4575882,0.0041046,8.0674057,3.6045914,8.0632706,8.0412979
		V86.734848z M124.567955,75.0465317c-4.936142-2.8372726-10.326622-4.1734543-15.6443939-4.1669617
		c2.6644974-4.5815735,4.1966858-9.8963242,4.1966858-15.5702744c0.0006332-14.9013214-10.5189438-27.3498764-24.5666504-30.4074059
		c10.8762207,2.9421005,18.8785629,12.8578339,18.8785629,24.6444893c0,14.103363-11.4553604,25.5366821-25.5870819,25.5366821
		c-14.1311569,0-25.5865173-11.4333191-25.5865173-25.5366821c0-11.7866554,8.0023422-21.7023888,18.8791199-24.6444893
		c-14.0482635,3.0575294-24.5672112,15.5060844-24.5672112,30.4074059c0,5.6739502,1.5321846,10.9887009,4.1966858,15.5702744
		c-5.3176994-0.0064926-10.7076225,1.329689-15.6443939,4.1669617
		c-12.9639626,7.4500809-18.5342751,22.7435532-14.1701851,36.3822937
		C22.073925,100.581459,26.6995449,88.7247162,36.9534531,82.831665c12.269989-7.0519638,27.9445648-2.8926163,35.0104294,9.2891769
		c7.0652237,12.182991,2.8467102,27.7750549-9.4233475,34.8270187c-10.2539101,5.8930054-22.8823624,3.9520416-30.8800011-3.9532318
		c9.6836128,10.5817719,25.7735062,13.4261322,38.7374001,5.9754944c4.9362106-2.8372803,8.7938766-6.8158493,11.4477081-11.4032822
		c2.6532669,4.5874329,6.5110016,8.5660019,11.4471436,11.4032822c12.9639587,7.4506378,29.0537872,4.6062775,38.7373962-5.9754944
		c-7.9975662,7.9052734-20.6255264,9.8462372-30.8794403,3.9532318
		c-12.269989-7.0519638-16.4891357-22.6446304-9.4232712-34.8270187
		c7.0652237-12.1817932,22.7397995-16.3411407,35.0098648-9.2891769
		c10.2544708,5.8930511,14.8794556,17.749794,12.0008087,28.5977249
		C143.1022339,97.7900848,137.5319214,82.4972076,124.567955,75.0465317z"/>
	
		<radialGradient id="SVGID_1_" cx="54.6725349" cy="756.1922607" r="21.3258057" gradientTransform="matrix(0.9564663 0 0 0.9521146 -2.6517839 -615.0681763)" gradientUnits="userSpaceOnUse">
		<stop  offset="0.02" style="stop-color:#B3C0E2"/>
		<stop  offset="0.8" style="stop-color:#7591CA"/>
		<stop  offset="0.98" style="stop-color:#567EBF"/>
	</radialGradient>
	<ellipse class="st2" cx="49.6406555" cy="104.9135056" rx="20.3974094" ry="20.3046169"/>
	
		<radialGradient id="SVGID_2_" cx="122.0952225" cy="756.1922607" r="21.3258057" gradientTransform="matrix(0.9564663 0 0 0.9521146 -2.6517839 -615.0681763)" gradientUnits="userSpaceOnUse">
		<stop  offset="0.02" style="stop-color:#C4E1AF"/>
		<stop  offset="0.8" style="stop-color:#8CC866"/>
		<stop  offset="0.98" style="stop-color:#6FBE46"/>
	</radialGradient>
	<ellipse class="st3" cx="114.1281815" cy="104.9135056" rx="20.3974094" ry="20.3046169"/>
	
		<radialGradient id="SVGID_3_" cx="88.3842087" cy="698.4382324" r="21.3259525" gradientTransform="matrix(0.9564663 0 0 0.9521146 -2.6517839 -615.0681763)" gradientUnits="userSpaceOnUse">
		<stop  offset="0.02" style="stop-color:#FFEEAC"/>
		<stop  offset="0.8" style="stop-color:#FEE258"/>
		<stop  offset="0.98" style="stop-color:#FDDD10"/>
	</radialGradient>
	<ellipse class="st4" cx="81.8847351" cy="49.9250221" rx="20.3975487" ry="20.3047581"/>
</g>
</svg>
