<?xml version="1.0" encoding="utf-8"?>
<!-- Generator: Adobe Illustrator 22.0.1, SVG Export Plug-In . SVG Version: 6.00 Build 0)  -->
<svg version="1.1" id="Layer_1" xmlns="http://www.w3.org/2000/svg" xmlns:xlink="http://www.w3.org/1999/xlink" x="0px" y="0px"
	 viewBox="0 0 550.1730347 156.7129974" style="enable-background:new 0 0 550.1730347 156.7129974;" xml:space="preserve">
<style type="text/css">
	.st0{fill:url(#SVGID_1_);}
	.st1{fill:url(#SVGID_2_);}
	.st2{fill:url(#SVGID_3_);}
	.st3{fill:url(#SVGID_4_);}
	.st4{fill:url(#SVGID_5_);}
	.st5{fill:url(#SVGID_6_);}
	.st6{fill:url(#SVGID_7_);}
	.st7{fill:url(#SVGID_8_);}
	.st8{fill:url(#SVGID_9_);}
	.st9{fill:url(#SVGID_10_);}
	.st10{fill:url(#SVGID_11_);}
	.st11{fill:url(#SVGID_12_);}
</style>
<g>
	
		<linearGradient id="SVGID_1_" gradientUnits="userSpaceOnUse" x1="177.9591217" y1="44.039856" x2="177.9591217" y2="101.6710052" gradientTransform="matrix(1 0 0 -1 0 158)">
		<stop  offset="0" style="stop-color:#000000"/>
		<stop  offset="0.05" style="stop-color:#000000"/>
		<stop  offset="0.2348465" style="stop-color:#0F181B"/>
		<stop  offset="0.4511293" style="stop-color:#20282B"/>
		<stop  offset="0.6885366" style="stop-color:#283033"/>
		<stop  offset="0.98508" style="stop-color:#2B3336"/>
		<stop  offset="1" style="stop-color:#2B3336"/>
	</linearGradient>
	<path class="st0" d="M181.230545,101.2886658c0,8.6960144,0.1654358,9.938652,4.9687195,10.3528671l2.6501007,0.247551
		c0.496933,0.3320999,0.3308868,1.8222885-0.1654358,2.0710602c-4.7205658-0.1654358-7.5367126-0.2487717-10.8491974-0.2487717
		c-3.3124695,0-6.2113495,0.0833359-11.5115509,0.2487717c-0.496933-0.2487717-0.662384-1.6568527,0-2.0710602l2.9815826-0.247551
		c4.7205658-0.4142151,5.1347809-1.6568527,5.1347809-10.3528671V64.2705383c0-2.5673866,0-2.6507187-2.4846649-2.6507187
		h-4.5551147c-3.5606384,0-8.1157532,0.1666641-10.186203,2.071064c-1.9877319,1.8222923-2.8155518,3.6433601-3.7266998,5.7144203
		c-0.6623688,0.4963226-1.8216705,0.0821075-2.1531677-0.5796509c1.3253632-3.7266922,2.5673828-9.0268974,3.1470337-12.3393745
		c0.2487793-0.1666679,1.3253632-0.2487755,1.5735168,0c0.496933,2.6494904,3.2297668,2.5661583,7.0391693,2.5661583h33.5408325
		c4.4717712,0,5.2168732-0.1654396,6.4595032-2.3186111c0.4142151-0.1654396,1.3247528-0.0821075,1.490799,0.2487717
		c-0.9111481,3.3958092-1.490799,10.1040955-1.24263,12.58815c-0.3308868,0.6617584-1.7389679,0.6617584-2.153183,0.1654358
		c-0.2481537-2.0698395-0.8278046-5.1347656-2.0704498-6.0452995c-1.9043884-1.4080772-5.0514374-2.071064-9.6065521-2.071064
		h-5.8798523c-2.4846649,0-2.4013367,0.0833321-2.4013367,2.8161545V101.2886658z"/>
	
		<linearGradient id="SVGID_2_" gradientUnits="userSpaceOnUse" x1="225.9958038" y1="44.0741653" x2="225.9958038" y2="91.7184448" gradientTransform="matrix(1 0 0 -1 0 158)">
		<stop  offset="0" style="stop-color:#000000"/>
		<stop  offset="0.05" style="stop-color:#000000"/>
		<stop  offset="0.2348465" style="stop-color:#0F181B"/>
		<stop  offset="0.4511293" style="stop-color:#20282B"/>
		<stop  offset="0.6885366" style="stop-color:#283033"/>
		<stop  offset="0.98508" style="stop-color:#2B3336"/>
		<stop  offset="1" style="stop-color:#2B3336"/>
	</linearGradient>
	<path class="st1" d="M213.5704041,77.2275543c0-7.4398956-0.1427765-8.5134201-4.3639526-9.0134201l-1.1445923-0.1433792
		c-0.4289246-0.2867584-0.2861481-1.5747452,0.1433716-1.7891998c3.0759735,0.1433792,5.5079346,0.2144547,8.4411316,0.2144547
		h13.4490509c4.5783997,0,8.7989502,0,9.65802-0.2144547c0.4289093,1.2169037,0.8578339,6.3675995,1.1445923,9.5146408
		c-0.2867584,0.4301376-1.431366,0.5722961-1.7885895,0.1433792c-1.0729065-3.3627243-1.7169037-5.8663788-5.4368439-6.796524
		c-1.5024414-0.3578415-3.7916412-0.4289169-6.9393005-0.4289169h-5.1506958c-2.1464233,0-2.1464233,0.1433792-2.1464233,2.861496
		v14.3075027c0,2.0036621,0.2150726,2.0036621,2.3608856,2.0036621h4.1494751c3.0042725,0,5.2223969-0.1433792,6.0802307-0.4301453
		c0.8590698-0.2855377,1.3596802-0.7144547,1.7169037-2.5036545l0.5722961-2.932579
		c0.3578491-0.4289169,1.5741272-0.4289169,1.8602753,0.0710754c0,1.7169037-0.2861481,4.5073242-0.2861481,7.225441
		c0,2.5759659,0.2861481,5.2940826,0.2861481,6.8675995c-0.2861481,0.5012207-1.5024261,0.5012207-1.8602753,0.0710754
		l-0.6433716-2.7891922c-0.2861481-1.2879791-0.7867584-2.3602829-2.2181244-2.7181168
		c-1.0012207-0.2867661-2.7181244-0.3578415-5.5079346-0.3578415h-4.1494751c-2.145813,0-2.3608856,0.0710754-2.3608856,1.9313583
		v10.086937c0,3.7916412,0.2150726,6.2229996,1.3596649,7.4399033c0.8584442,0.8578339,2.3608856,1.6445923,8.656189,1.6445923
		c5.5079346,0,7.5826721-0.2855377,9.1567993-1.0722961c1.2873688-0.715683,3.2187347-3.2193375,5.07901-6.9399033
		c0.5006104-0.3578415,1.5018311-0.1421509,1.7885895,0.5012207c-0.5012207,2.5036621-2.2891998,8.0121994-3.2193451,9.9435654
		c-6.4386749-0.1433868-12.8050537-0.2144623-19.1720428-0.2144623h-6.4386749
		c-3.0759583,0-5.5079346,0.0710754-9.7291107,0.2144623c-0.4289093-0.2144623-0.5722961-1.3590622-0.1427612-1.7879791
		l2.3602753-0.2144623c4.0777893-0.3578415,4.4356384-1.4313583,4.4356384-8.942337V77.2275543z"/>
	
		<linearGradient id="SVGID_3_" gradientUnits="userSpaceOnUse" x1="269.9732056" y1="43.1440277" x2="269.9732056" y2="92.6485901" gradientTransform="matrix(1 0 0 -1 0 158)">
		<stop  offset="0" style="stop-color:#000000"/>
		<stop  offset="0.05" style="stop-color:#000000"/>
		<stop  offset="0.2348465" style="stop-color:#0F181B"/>
		<stop  offset="0.4511293" style="stop-color:#20282B"/>
		<stop  offset="0.6885366" style="stop-color:#283033"/>
		<stop  offset="0.98508" style="stop-color:#2B3336"/>
		<stop  offset="1" style="stop-color:#2B3336"/>
	</linearGradient>
	<path class="st2" d="M256.3807678,71.432251c5.2223816-4.077179,11.8755188-6.0808411,19.3154297-6.0808411
		c3.8633423,0,9.2995605,0.7879868,12.6622925,1.7181244c0.858429,0.2144623,1.3590393,0.3566208,2.0030518,0.2855377
		c0.0716858,1.6458282,0.4289246,6.1519241,1.0012207,10.5158615c-0.3572388,0.5012207-1.4307556,0.5722961-1.931366,0.1433792
		c-1.0729065-4.8651581-4.2922668-10.4447784-14.6653442-10.4447784c-10.9454041,0-20.2449646,6.9386749-20.2449646,21.7473984
		c0,15.0231781,9.5146484,23.3209152,21.2467957,23.3209152c9.2278748,0,13.3056641-6.0085373,14.9508667-10.2290955
		c0.5012207-0.3578415,1.5741577-0.2144547,1.8602905,0.2855377c-0.5006104,3.7205658-2.3609009,8.4411163-3.4338074,9.8014069
		c-0.858429,0.1421509-1.7168884,0.4289169-2.5036621,0.7144547c-1.5741272,0.5722961-6.724823,1.6458206-11.3032227,1.6458206
		c-6.4380493,0-12.5906067-1.2879791-17.8129883-4.7928619c-5.7229919-3.9350204-10.15802-10.4447784-10.15802-19.6726532
		C247.3673401,82.4493332,250.944519,75.6528091,256.3807678,71.432251z"/>
	
		<linearGradient id="SVGID_4_" gradientUnits="userSpaceOnUse" x1="321.1663208" y1="44.0741653" x2="321.1663208" y2="91.7184448" gradientTransform="matrix(1 0 0 -1 0 158)">
		<stop  offset="0" style="stop-color:#000000"/>
		<stop  offset="0.05" style="stop-color:#000000"/>
		<stop  offset="0.2348465" style="stop-color:#0F181B"/>
		<stop  offset="0.4511293" style="stop-color:#20282B"/>
		<stop  offset="0.6885366" style="stop-color:#283033"/>
		<stop  offset="0.98508" style="stop-color:#2B3336"/>
		<stop  offset="1" style="stop-color:#2B3336"/>
	</linearGradient>
	<path class="st3" d="M310.97229,90.6049118c-3.4337769,0-3.577179,0.1433868-3.577179,2.2891998v10.0869446
		c0,7.5109787,0.3578491,8.5121918,4.3639526,8.942337l2.0747375,0.2144623
		c0.4289246,0.2855377,0.2861328,1.5735168-0.1433716,1.7879791c-3.8627319-0.1433868-6.2953186-0.2144623-9.0851135-0.2144623
		c-3.0759583,0-5.5079346,0.1433792-8.2983704,0.2144623c-0.428894-0.2144623-0.5722961-1.3590622-0.1427612-1.7879791
		l1.2163086-0.2144623c4.006073-0.715683,4.1488647-1.4313583,4.1488647-8.942337V77.2275543
		c0-7.5121994-0.5006104-8.7278824-4.2205811-9.0134201l-1.86026-0.1433792
		c-0.4289246-0.2867584-0.2861633-1.5747452,0.1433716-1.7891998c3.5054932,0.0723038,5.9374695,0.2144547,9.0134277,0.2144547
		c2.7897949,0,5.2223816-0.0710754,8.2983398-0.2144547c0.4295349,0.2144547,0.5722961,1.5024414,0.1433716,1.7891998
		l-1.3590393,0.1433792c-4.1494751,0.4289246-4.2928772,1.5012207-4.2928772,9.0134201v8.2266617
		c0,2.2181168,0.1434021,2.2891998,3.577179,2.2891998h20.4594116c3.4338074,0,3.5772095-0.0710831,3.5772095-2.2891998v-8.2266617
		c0-7.5121994-0.1434021-8.5844955-4.3639526-9.0134201l-1.3590698-0.1433792
		c-0.4289246-0.2867584-0.2867432-1.5747452,0.1434021-1.7891998c3.2904053,0.1433792,5.7229919,0.2144547,8.6555786,0.2144547
		c2.7904053,0,5.2229919-0.0710754,8.4411011-0.2144547c0.4301453,0.2144547,0.5722961,1.5024414,0.1433716,1.7891998
		l-1.5024414,0.1433792c-4.1482544,0.4289246-4.291626,1.5012207-4.291626,9.0134201v25.7535019
		c0,7.5109787,0.1433716,8.4411163,4.291626,8.942337l1.7169189,0.2144623
		c0.4289246,0.2855377,0.2867737,1.5735168-0.1421509,1.7879791c-3.4338074-0.1433868-5.866394-0.2144623-8.6567993-0.2144623
		c-2.9325867,0-5.5085449,0.0710754-8.6555786,0.2144623c-0.4301453-0.2144623-0.5723267-1.3590622-0.1434021-1.7879791
		l1.3590698-0.2144623c4.3639526-0.715683,4.3639526-1.4313583,4.3639526-8.942337V92.8941116
		c0-2.145813-0.1434021-2.2891998-3.5772095-2.2891998H310.97229z"/>
	
		<linearGradient id="SVGID_5_" gradientUnits="userSpaceOnUse" x1="386.5597534" y1="43.4602051" x2="386.5597534" y2="99.1951065" gradientTransform="matrix(1 0 0 -1 0 158)">
		<stop  offset="0" style="stop-color:#000000"/>
		<stop  offset="0.05" style="stop-color:#000000"/>
		<stop  offset="0.2348465" style="stop-color:#0F181B"/>
		<stop  offset="0.4511293" style="stop-color:#20282B"/>
		<stop  offset="0.6885366" style="stop-color:#283033"/>
		<stop  offset="0.98508" style="stop-color:#2B3336"/>
		<stop  offset="1" style="stop-color:#2B3336"/>
	</linearGradient>
	<path class="st4" d="M381.4534302,91.6000061c1.9043884,3.892128,3.7266846,7.7009277,5.7144165,11.3455124h0.1654358
		c2.2365112-3.8921356,4.306366-8.1984787,6.3761902-12.4227142l7.7854919-15.8172913
		c3.7266846-7.5367126,6.1286316-12.0918274,6.2940674-15.9006233c2.8149414,0.2475471,4.5551147,0.2475471,6.2107544,0.2475471
		c2.0710449,0,4.8038635-0.0821075,7.3712463-0.2475471c0.4963379,0.3308792,0.4963379,1.7389565,0.0821228,2.0698357
		l-1.7389526,0.1654434c-5.2168884,0.4975433-5.8798828,2.071064-5.7965393,7.8675919
		c0.1654358,8.7793503,0.2475586,24.0990982,0.9105225,36.0254822c0.2487793,4.1409073,0.1654663,6.3761826,4.0575867,6.7082901
		l2.6507263,0.247551c0.4963074,0.4975433,0.4142151,1.7389526-0.1654663,2.0710602
		c-3.3957825-0.1654358-6.7915955-0.2487717-9.7731934-0.2487717c-2.8982849,0-6.6249695,0.0833359-10.0207825,0.2487717
		c-0.5796509-0.4142151-0.6617432-1.5735168-0.1654358-2.0710602l2.401947-0.247551
		c4.0575562-0.4142151,4.0575562-1.740181,4.0575562-7.04039l-0.2475281-34.5340805h-0.1666565
		c-0.5796509,0.9117584-3.7267151,7.5367126-5.3823242,10.7658615l-7.3712769,14.4937744
		c-3.7266846,7.2879333-7.4533691,15.072197-8.943573,18.8809967c-0.1654358,0.2487717-0.4975281,0.3320999-0.8284302,0.3320999
		c-0.1654358,0-0.5796509-0.0833282-0.7450867-0.3320999c-1.4080811-4.3884506-5.3835449-12.5048218-7.2879333-16.5623856
		l-7.4533691-15.983963c-1.7389832-3.8087921-3.4779358-8.1151352-5.3002319-11.9251633h-0.1654358
		c-0.3308716,5.1347733-0.5796509,9.9374313-0.8284302,14.7413254c-0.2487488,5.0514297-0.5796509,12.4227066-0.5796509,19.4618759
		c0,6.1286316,0.4975586,7.4533768,3.7266846,7.7021484l3.1470642,0.247551
		c0.5796509,0.4975433,0.4975281,1.8222885-0.0833435,2.0710602c-2.8149414-0.1654358-6.0452881-0.2487717-9.1923523-0.2487717
		c-2.6494751,0-5.631073,0.0833359-8.4472351,0.2487717c-0.4963074-0.4142151-0.6617432-1.6568527-0.1654358-2.0710602
		l1.8222961-0.247551c3.4779053-0.4975433,4.637207-0.993866,5.1347656-6.7916183
		c0.4963074-5.4656525,0.9105225-10.0207672,1.4080811-18.2192383c0.4129944-6.8737259,0.7450867-13.9128952,0.9105225-18.4680099
		c0.1654358-5.216877-0.4975281-6.4595146-5.5489807-7.1224976l-1.3247375-0.1654434
		c-0.4142151-0.4963188-0.3308716-1.7389565,0.3308716-2.0698357c2.4852905,0.1654396,4.4717712,0.2475471,6.5428467,0.2475471
		c1.9043884,0,4.1408997,0,6.8737183-0.2475471c-0.3308716,3.2291412,1.7389832,8.3639107,4.306366,13.6641197
		L381.4534302,91.6000061z"/>
	
		<linearGradient id="SVGID_6_" gradientUnits="userSpaceOnUse" x1="435.8345337" y1="44.0741653" x2="435.8345337" y2="91.7184448" gradientTransform="matrix(1 0 0 -1 0 158)">
		<stop  offset="0" style="stop-color:#000000"/>
		<stop  offset="0.05" style="stop-color:#000000"/>
		<stop  offset="0.2348465" style="stop-color:#0F181B"/>
		<stop  offset="0.4511293" style="stop-color:#20282B"/>
		<stop  offset="0.6885366" style="stop-color:#283033"/>
		<stop  offset="0.98508" style="stop-color:#2B3336"/>
		<stop  offset="1" style="stop-color:#2B3336"/>
	</linearGradient>
	<path class="st5" d="M432.9016113,77.3709335c0-7.5832748-0.1434021-8.8001785-4.3639526-9.1567993l-1.7879639-0.1433792
		c-0.4301453-0.2867584-0.2867737-1.5747452,0.1433716-1.7891998c3.5759583,0.1433792,6.0085449,0.2144547,9.0134277,0.2144547
		c2.8614807,0,5.2928467-0.0710754,8.8700256-0.2144547c0.4301453,0.2144547,0.5722961,1.5024414,0.1433716,1.7891998
		l-1.7879639,0.1433792c-4.2218018,0.3566208-4.3639526,1.5735245-4.3639526,9.1567993v25.4667358
		c0,7.5832825,0.1421509,8.5845032,4.3639526,9.0857239l1.7879639,0.2144623
		c0.4289246,0.2855377,0.2867737,1.5735168-0.1433716,1.7879791c-3.577179-0.1433868-6.0085449-0.2144623-8.8700256-0.2144623
		c-3.0048828,0-5.4374695,0.0710754-9.0134277,0.2144623c-0.4301453-0.2144623-0.5735168-1.3590622-0.1433716-1.7879791
		l1.7879639-0.2144623c4.2205505-0.5012207,4.3639526-1.5024414,4.3639526-9.0857239V77.3709335z"/>
	
		<linearGradient id="SVGID_7_" gradientUnits="userSpaceOnUse" x1="462.8505249" y1="43.1440277" x2="462.8505249" y2="92.6485901" gradientTransform="matrix(1 0 0 -1 0 158)">
		<stop  offset="0" style="stop-color:#000000"/>
		<stop  offset="0.05" style="stop-color:#000000"/>
		<stop  offset="0.2348465" style="stop-color:#0F181B"/>
		<stop  offset="0.4511293" style="stop-color:#20282B"/>
		<stop  offset="0.6885366" style="stop-color:#283033"/>
		<stop  offset="0.98508" style="stop-color:#2B3336"/>
		<stop  offset="1" style="stop-color:#2B3336"/>
	</linearGradient>
	<path class="st6" d="M461.7776184,114.8559723c-6.0097656,0-9.8001709-1.8602829-11.1592102-2.6470413
		c-0.8590698-1.5735168-1.7892151-6.6531372-1.9325867-10.0146332c0.3578186-0.5012283,1.4313354-0.6446075,1.7168884-0.2156906
		c1.0735168,3.6494904,4.0061035,10.6592407,12.3050537,10.6592407c6.0085449,0,8.9423523-3.9337921,8.9423523-8.2266541
		c0-3.1470413-0.6446228-6.6531448-5.866394-10.0146408l-6.7965088-4.4350204
		c-3.5759583-2.361496-7.7254333-6.4386749-7.7254333-12.3050613c0-6.7965164,5.2940674-12.3050613,14.5930176-12.3050613
		c2.2181396,0,4.7928772,0.4301453,6.6531372,0.9301453c0.9301453,0.2867584,1.931366,0.4301376,2.5036621,0.4301376
		c0.6446228,1.7169037,1.2879944,5.7230072,1.2879944,8.7266617c-0.285553,0.4301453-1.4301453,0.6445999-1.7879944,0.2144547
		c-0.9301147-3.4337997-2.8614807-8.0832748-9.7290955-8.0832748c-7.0109558,0-8.5133972,4.6494751-8.5133972,7.941124
		c0,4.1494751,3.4337769,7.1531372,6.0808411,8.7989578l5.7229919,3.577179
		c4.5073242,2.7891998,8.9423218,6.9386749,8.9423218,13.735199
		C477.0152588,109.4908142,471.0778198,114.8559723,461.7776184,114.8559723z"/>
	
		<linearGradient id="SVGID_8_" gradientUnits="userSpaceOnUse" x1="503.330658" y1="44.0741653" x2="503.330658" y2="93.856369" gradientTransform="matrix(1 0 0 -1 0 158)">
		<stop  offset="0" style="stop-color:#000000"/>
		<stop  offset="0.05" style="stop-color:#000000"/>
		<stop  offset="0.2348465" style="stop-color:#0F181B"/>
		<stop  offset="0.4511293" style="stop-color:#20282B"/>
		<stop  offset="0.6885366" style="stop-color:#283033"/>
		<stop  offset="0.98508" style="stop-color:#2B3336"/>
		<stop  offset="1" style="stop-color:#2B3336"/>
	</linearGradient>
	<path class="st7" d="M506.1560059,102.9810562c0,7.5109787,0.1433716,8.5844955,4.2928467,8.942337l2.2891846,0.2144623
		c0.4289551,0.2855377,0.2855835,1.5735168-0.1433716,1.7879791c-4.0783997-0.1433868-6.5097351-0.2144623-9.3712463-0.2144623
		s-5.3651428,0.0710754-9.9435425,0.2144623c-0.4301453-0.2144623-0.5735474-1.4301376,0-1.7879791l2.5747375-0.2144623
		c4.077179-0.3578415,4.4349976-1.4313583,4.4349976-8.942337V71.003334c0-2.2181244,0-2.2891998-2.145813-2.2891998h-3.9350281
		c-3.0759583,0-7.0097351,0.1433792-8.7989502,1.7891998c-1.7168884,1.5735245-2.431366,3.1470413-3.2193298,4.9350204
		c-0.5722961,0.4301453-1.5735168,0.0723038-1.8590698-0.5c1.1445923-3.2193375,2.2168884-7.7977371,2.7181091-10.6592407
		c0.2144775-0.1433792,1.1446228-0.2144547,1.3590698,0c0.4289246,2.2891998,2.7904358,2.2168961,6.0808411,2.2168961h28.9728394
		c3.8627319,0,4.5061035-0.1421509,5.5795898-2.0024338c0.3578491-0.1433792,1.1446533-0.0710831,1.2880249,0.2144547
		c-0.7867432,2.932579-1.2880249,8.7278824-1.0735474,10.873703c-0.2855225,0.5722961-1.5024414,0.5722961-1.8602905,0.1433792
		c-0.2144165-1.7879791-0.7144165-4.4350128-1.7879639-5.2217789c-1.645813-1.2169037-4.3639526-1.7891998-8.2989502-1.7891998
		h-5.0783997c-2.145813,0-2.0747375,0.0710754-2.0747375,2.432579V102.9810562z"/>
</g>
<g>
	<radialGradient id="SVGID_9_" cx="82.3399963" cy="79.0240021" r="56.6859169" gradientUnits="userSpaceOnUse">
		<stop  offset="0" style="stop-color:#2B3336"/>
		<stop  offset="0.0149171" style="stop-color:#2B3336"/>
		<stop  offset="0.0176609" style="stop-color:#2B3336"/>
		<stop  offset="0.2171578" style="stop-color:#181C1E"/>
		<stop  offset="0.4287815" style="stop-color:#0B0C0D"/>
		<stop  offset="0.6609074" style="stop-color:#030303"/>
		<stop  offset="0.95" style="stop-color:#000000"/>
		<stop  offset="1" style="stop-color:#000000"/>
	</radialGradient>
	<path class="st8" d="M138.8972015,90.7086105c-2.5794373-6.7843323-7.4680634-12.5230713-13.7651443-16.15905
		c-4.5342712-2.6185532-9.6559296-4.0721283-14.8729019-4.2285995c2.4722748-4.5963821,3.7746048-9.7597122,3.7746048-14.9961166
		c0.0002594-7.2719536-2.5245132-14.3754654-7.1093674-20.0018921c-4.5193634-5.5459614-10.8360748-9.4373474-17.7868118-10.9572449
		c-0.3073273-0.0673389-0.6127472,0.1230221-0.6877975,0.4288864c-0.0749207,0.3058662,0.107666,0.6157436,0.4115601,0.6983738
		c10.8057404,2.9367123,18.3526688,12.8354397,18.3526688,24.0719204c0,13.7537956-11.1585693,24.9433212-24.8742676,24.9433212
		c-13.7154465,0-24.8737526-11.1895256-24.8737526-24.9433212c0-11.2365456,7.5471764-21.1352711,18.3533058-24.0719204
		c0.3038864-0.0826302,0.4864807-0.3924446,0.4115524-0.6983738c-0.0749207-0.3058643-0.3802109-0.4967995-0.6877975-0.4288864
		c-6.9508591,1.5198975-13.2677002,5.4112186-17.7870598,10.9572449
		c-4.5847282,5.6263008-7.1097565,12.7298088-7.1097565,20.0018921c0,5.2364693,1.3024597,10.3997955,3.7747383,14.9961166
		c-5.2162094,0.156662-10.3385086,1.6101761-14.8730316,4.2285309c-6.2970886,3.6357269-11.1855774,9.3744049-13.7651386,16.1588669
		c-2.5427399,6.6873627-2.75387,14.1040649-0.5946579,20.883934c0.0955639,0.3002014,0.4134693,0.4694061,0.7153206,0.3812332
		c0.3024883-0.0880432,0.4794712-0.4011078,0.3990707-0.7055054c-2.8600063-10.827919,1.9380169-22.3138199,11.6678524-27.9318314
		c5.769577-3.3315811,12.4876518-4.2224197,18.9163628-2.5086594c6.4283257,1.7136383,11.798069,5.8264084,15.1200905,11.5806961
		c6.857338,11.8798752,2.7472458,27.1397476-9.1620636,34.0165787c-9.7299614,5.6178284-22.075161,4.0307159-30.0211563-3.8604813
		c-0.223362-0.2218323-0.5829315-0.2251511-0.8105011-0.0072632c-0.227438,0.2177505-0.2396698,0.5771942-0.0276489,0.8101196
		c4.7912712,5.26017,11.3192368,8.7856674,18.3813362,9.9270706c1.6638145,0.2689819,3.3401184,0.4017487,5.0137444,0.4017487
		c5.5329628-0.0002594,11.0268097-1.4529419,15.8615341-4.2446442c4.5341415-2.6184311,8.353981-6.3280563,11.0981674-10.7675247
		c2.7436752,4.4393463,6.5632629,8.1489716,11.0977859,10.7675247c4.8349762,2.7918396,10.3280563,4.2446442,15.8614044,4.2446442
		c1.6732483,0,3.3503113-0.1328888,5.0137405-0.4017487c7.0621033-1.1414032,13.590065-4.6669006,18.3813324-9.9270706
		c0.2120361-0.2329254,0.1997986-0.5923691-0.0276489-0.8101196c-0.2274323-0.2177582-0.5870056-0.2145691-0.8105011,0.0072632
		c-7.9458618,7.8909531-20.2906799,9.4781876-30.0205154,3.8604813
		c-11.9100723-6.8773422-16.0201645-22.137085-9.1620636-34.0165787c3.3217697-5.7542877,8.6912613-9.8670578,15.1194611-11.5806961
		c6.4287033-1.7136993,13.146904-0.8228607,18.9163589,2.5086594c9.7298279,5.61763,14.5278625,17.1039124,11.6678467,27.9324646
		c-0.0803986,0.3044052,0.0965881,0.6174622,0.3990784,0.705513c0.3022308,0.0881729,0.6196289-0.0810394,0.7153168-0.3812332
		C141.651062,104.8128052,141.4399414,97.3959808,138.8972015,90.7086105z M89.8272934,86.7193069v0.0147781
		c-0.0017853,1.9898758-0.7783966,3.8599777-2.1864853,5.26577c-1.4065552,1.4040146-3.2746201,2.176796-5.2615662,2.176796
		c-0.0022888,0-0.0049667,0-0.0072632,0c-4.106781-0.0036926-7.4453659-3.3489075-7.4421844-7.4573441V86.705162
		c0.0038223-4.1054459,3.344574-7.4425659,7.4488144-7.4425659c0.0022888,0,0.004837,0,0.0071335,0
		C86.4927826,79.2664185,89.8311157,82.6112442,89.8272934,86.7193069z"/>
	
		<radialGradient id="SVGID_10_" cx="-314.2750549" cy="109.0093384" r="21.547472" gradientTransform="matrix(0.941734 0 0 0.9418468 346.2652893 2.234051)" gradientUnits="userSpaceOnUse">
		<stop  offset="0.02" style="stop-color:#BBCBE6"/>
		<stop  offset="0.8" style="stop-color:#7898CC"/>
		<stop  offset="0.98" style="stop-color:#567EBF"/>
	</radialGradient>
	<ellipse class="st9" cx="50.3017921" cy="104.9041519" rx="20.2919846" ry="20.2944164"/>
	
		<radialGradient id="SVGID_11_" cx="-246.1515808" cy="109.0093384" r="21.547472" gradientTransform="matrix(0.941734 0 0 0.9418468 346.2652893 2.234051)" gradientUnits="userSpaceOnUse">
		<stop  offset="0.02" style="stop-color:#C5E5B5"/>
		<stop  offset="0.8" style="stop-color:#8BCB6B"/>
		<stop  offset="0.98" style="stop-color:#6FBE46"/>
	</radialGradient>
	<ellipse class="st10" cx="114.455986" cy="104.9041519" rx="20.2919846" ry="20.2944164"/>
	
		<radialGradient id="SVGID_12_" cx="-280.2130127" cy="50.655014" r="21.5476055" gradientTransform="matrix(0.941734 0 0 0.9418468 346.2652893 2.234051)" gradientUnits="userSpaceOnUse">
		<stop  offset="0.02" style="stop-color:#FEF19F"/>
		<stop  offset="0.8" style="stop-color:#FEE440"/>
		<stop  offset="0.98" style="stop-color:#FDDD10"/>
	</radialGradient>
	<ellipse class="st11" cx="82.3791733" cy="49.9433136" rx="20.2921104" ry="20.2945423"/>
</g>
</svg>
