<?xml version="1.0" encoding="utf-8"?>
<!-- Generator: Adobe Illustrator 22.0.1, SVG Export Plug-In . SVG Version: 6.00 Build 0)  -->
<svg version="1.1" id="Layer_1" xmlns="http://www.w3.org/2000/svg" xmlns:xlink="http://www.w3.org/1999/xlink" x="0px" y="0px"
	 viewBox="0 0 331.2950134 284.5350037" style="enable-background:new 0 0 331.2950134 284.5350037;" xml:space="preserve">
<style type="text/css">
	.st0{fill:none;}
	.st1{fill:url(#SVGID_1_);}
	.st2{fill:url(#SVGID_2_);}
	.st3{fill:url(#SVGID_3_);}
	.st4{fill:url(#SVGID_4_);}
	.st5{fill:url(#SVGID_5_);}
	.st6{fill:url(#SVGID_6_);}
	.st7{fill:url(#SVGID_7_);}
	.st8{fill:url(#SVGID_8_);}
	.st9{fill:url(#SVGID_9_);}
	.st10{fill:url(#SVGID_10_);}
	.st11{fill:url(#SVGID_11_);}
	.st12{fill:url(#SVGID_12_);}
</style>
<rect class="st0" width="18.2849998" height="18.2850037"/>
<rect x="313.0100098" class="st0" width="18.2850037" height="18.2850037"/>
<rect y="266.25" class="st0" width="18.2849998" height="18.2850037"/>
<rect x="313.0100098" y="266.25" class="st0" width="18.2850037" height="18.2850037"/>
<g>
	
		<linearGradient id="SVGID_1_" gradientUnits="userSpaceOnUse" x1="37.418457" y1="19.4601135" x2="37.418457" y2="65.3852539" gradientTransform="matrix(1 0 0 -1 0 286)">
		<stop  offset="0" style="stop-color:#000000"/>
		<stop  offset="0.05" style="stop-color:#000000"/>
		<stop  offset="0.2348465" style="stop-color:#0F181B"/>
		<stop  offset="0.4511293" style="stop-color:#20282B"/>
		<stop  offset="0.6885366" style="stop-color:#283033"/>
		<stop  offset="0.98508" style="stop-color:#2B3336"/>
		<stop  offset="1" style="stop-color:#2B3336"/>
	</linearGradient>
	<path class="st1" d="M40.0253906,256.4422302c0,6.9296875,0.1318359,7.9199219,3.9594727,8.25l2.1118164,0.1972656
		c0.3959961,0.2646484,0.2636719,1.4521484-0.1318359,1.6503906c-3.7617188-0.1318359-6.0058594-0.1982422-8.6455078-0.1982422
		s-4.949707,0.0664062-9.1733398,0.1982422c-0.3959961-0.1982422-0.527832-1.3203125,0-1.6503906l2.3759766-0.1972656
		c3.7617188-0.3300781,4.0917969-1.3203125,4.0917969-8.25v-29.4990234c0-2.0458984,0-2.1123047-1.9799805-2.1123047h-3.6298828
		c-2.8374023,0-6.4672852,0.1328125-8.1171875,1.6503906c-1.5839844,1.4521484-2.2436523,2.9033203-2.9697266,4.5537109
		c-0.527832,0.3955078-1.4516602,0.0654297-1.7158203-0.4619141c1.0561523-2.9697266,2.0458984-7.1933594,2.5078125-9.8330078
		c0.1982422-0.1328125,1.0561523-0.1982422,1.2539062,0c0.3959961,2.1113281,2.5737305,2.0449219,5.609375,2.0449219H52.300293
		c3.5634766,0,4.1572266-0.1318359,5.1474609-1.8476562c0.3300781-0.1318359,1.0556641-0.0654297,1.1879883,0.1982422
		c-0.7260742,2.7060547-1.1879883,8.0517578-0.9902344,10.03125c-0.2636719,0.5273438-1.3857422,0.5273438-1.7158203,0.1318359
		c-0.1977539-1.6494141-0.659668-4.0917969-1.6499023-4.8173828c-1.5175781-1.1220703-4.0253906-1.6503906-7.6552734-1.6503906
		h-4.6855469c-1.9799805,0-1.9135742,0.0664062-1.9135742,2.2441406V256.4422302z"/>
	
		<linearGradient id="SVGID_2_" gradientUnits="userSpaceOnUse" x1="75.6979446" y1="19.4874573" x2="75.6979446" y2="57.4542542" gradientTransform="matrix(1 0 0 -1 0 286)">
		<stop  offset="0" style="stop-color:#000000"/>
		<stop  offset="0.05" style="stop-color:#000000"/>
		<stop  offset="0.2348465" style="stop-color:#0F181B"/>
		<stop  offset="0.4511293" style="stop-color:#20282B"/>
		<stop  offset="0.6885366" style="stop-color:#283033"/>
		<stop  offset="0.98508" style="stop-color:#2B3336"/>
		<stop  offset="1" style="stop-color:#2B3336"/>
	</linearGradient>
	<path class="st2" d="M65.7963867,237.2684021c0-5.9287109-0.1137695-6.7841797-3.4775391-7.1826172l-0.9121094-0.1142578
		c-0.3417969-0.2285156-0.2280273-1.2548828,0.1142578-1.4257812c2.4511719,0.1142578,4.3891602,0.1708984,6.7265625,0.1708984
		h10.7172852c3.6484375,0,7.0117188,0,7.6962891-0.1708984c0.3417969,0.9697266,0.6835938,5.0742188,0.9121094,7.5820312
		c-0.2285156,0.3427734-1.140625,0.4560547-1.425293,0.1142578c-0.8549805-2.6796875-1.3681641-4.6748047-4.3325195-5.4160156
		c-1.1972656-0.2851562-3.0214844-0.3417969-5.5297852-0.3417969h-4.1044922c-1.7104492,0-1.7104492,0.1142578-1.7104492,2.2802734
		v11.4013672c0,1.5966797,0.1713867,1.5966797,1.8813477,1.5966797h3.3066406c2.394043,0,4.1616211-0.1142578,4.8452148-0.3427734
		c0.6845703-0.2275391,1.0834961-0.5693359,1.3681641-1.9951172l0.4560547-2.3369141
		c0.2851562-0.3417969,1.2543945-0.3417969,1.4824219,0.0566406c0,1.3681641-0.2280273,3.5917969-0.2280273,5.7578125
		c0,2.0527344,0.2280273,4.21875,0.2280273,5.4726562c-0.2280273,0.3994141-1.1972656,0.3994141-1.4824219,0.0566406
		l-0.5126953-2.2226562c-0.2280273-1.0263672-0.6269531-1.8808594-1.7675781-2.1660156
		c-0.7978516-0.2285156-2.1660156-0.2851562-4.3891602-0.2851562h-3.3066406c-1.7099609,0-1.8813477,0.0566406-1.8813477,1.5390625
		v8.0380859c0,3.0214844,0.1713867,4.9589844,1.0834961,5.9287109c0.684082,0.6835938,1.8813477,1.3105469,6.8979492,1.3105469
		c4.3891602,0,6.0424805-0.2275391,7.296875-0.8544922c1.0258789-0.5703125,2.5649414-2.5654297,4.0473633-5.5302734
		c0.3989258-0.2851562,1.1967773-0.1132812,1.425293,0.3994141c-0.3994141,1.9951172-1.8242188,6.3847656-2.5654297,7.9238281
		c-5.1308594-0.1142578-10.2041016-0.1708984-15.277832-0.1708984h-5.1308594c-2.4511719,0-4.3891602,0.0566406-7.7529297,0.1708984
		c-0.3417969-0.1708984-0.4560547-1.0830078-0.1137695-1.4248047l1.8808594-0.1708984
		c3.2495117-0.2851562,3.534668-1.140625,3.534668-7.1259766V237.2684021z"/>
	
		<linearGradient id="SVGID_3_" gradientUnits="userSpaceOnUse" x1="110.7426758" y1="18.7462463" x2="110.7426758" y2="58.1954651" gradientTransform="matrix(1 0 0 -1 0 286)">
		<stop  offset="0" style="stop-color:#000000"/>
		<stop  offset="0.05" style="stop-color:#000000"/>
		<stop  offset="0.2348465" style="stop-color:#0F181B"/>
		<stop  offset="0.4511293" style="stop-color:#20282B"/>
		<stop  offset="0.6885366" style="stop-color:#283033"/>
		<stop  offset="0.98508" style="stop-color:#2B3336"/>
		<stop  offset="1" style="stop-color:#2B3336"/>
	</linearGradient>
	<path class="st3" d="M99.9111328,232.650238c4.1616211-3.2490234,9.4633789-4.8457031,15.3920898-4.8457031
		c3.0786133,0,7.4106445,0.6279297,10.090332,1.3691406c0.684082,0.1708984,1.0830078,0.2841797,1.5961914,0.2275391
		c0.0571289,1.3115234,0.3417969,4.9023438,0.7978516,8.3798828c-0.284668,0.3994141-1.1401367,0.4560547-1.5390625,0.1142578
		c-0.8549805-3.8769531-3.4204102-8.3232422-11.6865234-8.3232422c-8.722168,0-16.1328125,5.5292969-16.1328125,17.3300781
		c0,11.9716797,7.5820312,18.5839844,16.9311523,18.5839844c7.3535156,0,10.6030273-4.7880859,11.9140625-8.1513672
		c0.3994141-0.2851562,1.2543945-0.1708984,1.4824219,0.2275391c-0.3989258,2.9648438-1.8813477,6.7265625-2.7363281,7.8105469
		c-0.684082,0.1132812-1.3681641,0.3417969-1.9951172,0.5693359c-1.2543945,0.4560547-5.3588867,1.3115234-9.0073242,1.3115234
		c-5.1303711,0-10.0332031-1.0263672-14.1948242-3.8193359c-4.5605469-3.1357422-8.0947266-8.3232422-8.0947266-15.6767578
		C92.7285156,241.4295349,95.5791016,236.0135193,99.9111328,232.650238z"/>
	
		<linearGradient id="SVGID_4_" gradientUnits="userSpaceOnUse" x1="151.5374603" y1="19.4874573" x2="151.5374603" y2="57.4542542" gradientTransform="matrix(1 0 0 -1 0 286)">
		<stop  offset="0" style="stop-color:#000000"/>
		<stop  offset="0.05" style="stop-color:#000000"/>
		<stop  offset="0.2348465" style="stop-color:#0F181B"/>
		<stop  offset="0.4511293" style="stop-color:#20282B"/>
		<stop  offset="0.6885366" style="stop-color:#283033"/>
		<stop  offset="0.98508" style="stop-color:#2B3336"/>
		<stop  offset="1" style="stop-color:#2B3336"/>
	</linearGradient>
	<path class="st4" d="M143.4140625,247.9285583c-2.7363281,0-2.8505859,0.1142578-2.8505859,1.8242188v8.0380859
		c0,5.9853516,0.2851562,6.7832031,3.4775391,7.1259766l1.6533203,0.1708984
		c0.3417969,0.2275391,0.2280273,1.2539062-0.1142578,1.4248047c-3.078125-0.1142578-5.0166016-0.1708984-7.2397461-0.1708984
		c-2.4511719,0-4.3891602,0.1142578-6.612793,0.1708984c-0.3417969-0.1708984-0.4560547-1.0830078-0.1137695-1.4248047
		l0.9692383-0.1708984c3.1923828-0.5703125,3.3061523-1.140625,3.3061523-7.1259766v-20.5224609
		c0-5.9863281-0.3989258-6.9550781-3.3632812-7.1826172l-1.4824219-0.1142578
		c-0.3417969-0.2285156-0.2280273-1.2548828,0.1142578-1.4257812c2.793457,0.0576172,4.7314453,0.1708984,7.1826172,0.1708984
		c2.2231445,0,4.1616211-0.0566406,6.612793-0.1708984c0.3422852,0.1708984,0.4560547,1.1972656,0.1142578,1.4257812
		l-1.0830078,0.1142578c-3.3066406,0.3417969-3.4208984,1.1962891-3.4208984,7.1826172v6.5556641
		c0,1.7675781,0.1142578,1.8242188,2.8505859,1.8242188h16.3037109c2.7363281,0,2.8505859-0.0566406,2.8505859-1.8242188v-6.5556641
		c0-5.9863281-0.1142578-6.8408203-3.4775391-7.1826172l-1.0830078-0.1142578
		c-0.3417969-0.2285156-0.2285156-1.2548828,0.1142578-1.4257812c2.6220703,0.1142578,4.5605469,0.1708984,6.8974609,0.1708984
		c2.2236328,0,4.1621094-0.0566406,6.7265625-0.1708984c0.3427734,0.1708984,0.4560547,1.1972656,0.1142578,1.4257812
		l-1.1972656,0.1142578c-3.3056641,0.3417969-3.4199219,1.1962891-3.4199219,7.1826172v20.5224609
		c0,5.9853516,0.1142578,6.7265625,3.4199219,7.1259766l1.3681641,0.1708984
		c0.3417969,0.2275391,0.2285156,1.2539062-0.1132812,1.4248047c-2.7363281-0.1142578-4.6748047-0.1708984-6.8984375-0.1708984
		c-2.3369141,0-4.3896484,0.0566406-6.8974609,0.1708984c-0.3427734-0.1708984-0.4560547-1.0830078-0.1142578-1.4248047
		l1.0830078-0.1708984c3.4775391-0.5703125,3.4775391-1.140625,3.4775391-7.1259766v-8.0380859
		c0-1.7099609-0.1142578-1.8242188-2.8505859-1.8242188H143.4140625z"/>
	
		<linearGradient id="SVGID_5_" gradientUnits="userSpaceOnUse" x1="203.6482239" y1="18.9981995" x2="203.6482239" y2="63.412262" gradientTransform="matrix(1 0 0 -1 0 286)">
		<stop  offset="0" style="stop-color:#000000"/>
		<stop  offset="0.05" style="stop-color:#000000"/>
		<stop  offset="0.2348465" style="stop-color:#0F181B"/>
		<stop  offset="0.4511293" style="stop-color:#20282B"/>
		<stop  offset="0.6885366" style="stop-color:#283033"/>
		<stop  offset="0.98508" style="stop-color:#2B3336"/>
		<stop  offset="1" style="stop-color:#2B3336"/>
	</linearGradient>
	<path class="st5" d="M199.5791016,248.7215271c1.5175781,3.1015625,2.9697266,6.1367188,4.5537109,9.0410156h0.1318359
		c1.7822266-3.1015625,3.4316406-6.5332031,5.0810547-9.8994141l6.2041016-12.6044922
		c2.9697266-6.0058594,4.8837891-9.6357422,5.015625-12.6708984c2.2431641,0.1972656,3.6298828,0.1972656,4.9492188,0.1972656
		c1.6503906,0,3.828125-0.0654297,5.8740234-0.1972656c0.3955078,0.2636719,0.3955078,1.3857422,0.0654297,1.6494141
		l-1.3857422,0.1318359c-4.1572266,0.3964844-4.6855469,1.6503906-4.6191406,6.2695312
		c0.1318359,6.9960938,0.1972656,19.2041016,0.7255859,28.7080078c0.1982422,3.2998047,0.1318359,5.0810547,3.2333984,5.3457031
		l2.1123047,0.1972656c0.3955078,0.3964844,0.3300781,1.3857422-0.1318359,1.6503906
		c-2.7060547-0.1318359-5.4121094-0.1982422-7.7880859-0.1982422c-2.3095703,0-5.2792969,0.0664062-7.9853516,0.1982422
		c-0.4619141-0.3300781-0.5273438-1.2539062-0.1318359-1.6503906l1.9140625-0.1972656
		c3.2333984-0.3300781,3.2333984-1.3867188,3.2333984-5.6103516l-0.1972656-27.5195312h-0.1328125
		c-0.4619141,0.7265625-2.9697266,6.0058594-4.2890625,8.5791016l-5.8740234,11.5498047
		c-2.9697266,5.8076172-5.9394531,12.0107422-7.1269531,15.0458984c-0.1318359,0.1982422-0.3964844,0.2646484-0.6601562,0.2646484
		c-0.1318359,0-0.4619141-0.0664062-0.59375-0.2646484c-1.1220703-3.4970703-4.2900391-9.9648438-5.8076172-13.1982422
		l-5.9394531-12.7373047c-1.3857422-3.0351562-2.7714844-6.4667969-4.2236328-9.5029297h-0.1318359
		c-0.2636719,4.0917969-0.4619141,7.9189453-0.6601562,11.7470703c-0.1982422,4.0253906-0.4619141,9.8994141-0.4619141,15.5087891
		c0,4.8837891,0.3964844,5.9394531,2.9697266,6.1376953l2.5078125,0.1972656
		c0.4619141,0.3964844,0.3964844,1.4521484-0.0664062,1.6503906c-2.2431641-0.1318359-4.8173828-0.1982422-7.3251953-0.1982422
		c-2.1113281,0-4.4873047,0.0664062-6.7314453,0.1982422c-0.3955078-0.3300781-0.5273438-1.3203125-0.1318359-1.6503906
		l1.4521484-0.1972656c2.7714844-0.3964844,3.6953125-0.7919922,4.0917969-5.4121094
		c0.3955078-4.3554688,0.7255859-7.9853516,1.1220703-14.5185547c0.3291016-5.4775391,0.59375-11.0869141,0.7255859-14.7167969
		c0.1318359-4.1572266-0.3964844-5.1474609-4.421875-5.6757812l-1.0556641-0.1318359
		c-0.3300781-0.3955078-0.2636719-1.3857422,0.2636719-1.6494141c1.9804688,0.1318359,3.5634766,0.1972656,5.2138672,0.1972656
		c1.5175781,0,3.2998047,0,5.4775391-0.1972656c-0.2636719,2.5732422,1.3857422,6.6650391,3.4316406,10.8886719
		L199.5791016,248.7215271z"/>
	
		<linearGradient id="SVGID_6_" gradientUnits="userSpaceOnUse" x1="242.9143372" y1="19.4874573" x2="242.9143372" y2="57.4542542" gradientTransform="matrix(1 0 0 -1 0 286)">
		<stop  offset="0" style="stop-color:#000000"/>
		<stop  offset="0.05" style="stop-color:#000000"/>
		<stop  offset="0.2348465" style="stop-color:#0F181B"/>
		<stop  offset="0.4511293" style="stop-color:#20282B"/>
		<stop  offset="0.6885366" style="stop-color:#283033"/>
		<stop  offset="0.98508" style="stop-color:#2B3336"/>
		<stop  offset="1" style="stop-color:#2B3336"/>
	</linearGradient>
	<path class="st6" d="M240.5771484,237.3826599c0-6.0429688-0.1142578-7.0126953-3.4775391-7.296875l-1.4248047-0.1142578
		c-0.3427734-0.2285156-0.2285156-1.2548828,0.1142578-1.4257812c2.8496094,0.1142578,4.7880859,0.1708984,7.1826172,0.1708984
		c2.2802734,0,4.2177734-0.0566406,7.0683594-0.1708984c0.3427734,0.1708984,0.4560547,1.1972656,0.1142578,1.4257812
		l-1.4248047,0.1142578c-3.3642578,0.2841797-3.4775391,1.2539062-3.4775391,7.296875v20.2939453
		c0,6.0429688,0.1132812,6.8408203,3.4775391,7.2402344l1.4248047,0.1708984
		c0.3417969,0.2275391,0.2285156,1.2539062-0.1142578,1.4248047c-2.8505859-0.1142578-4.7880859-0.1708984-7.0683594-0.1708984
		c-2.3945312,0-4.3330078,0.0566406-7.1826172,0.1708984c-0.3427734-0.1708984-0.4570312-1.0830078-0.1142578-1.4248047
		l1.4248047-0.1708984c3.3632812-0.3994141,3.4775391-1.1972656,3.4775391-7.2402344V237.3826599z"/>
	
		<linearGradient id="SVGID_7_" gradientUnits="userSpaceOnUse" x1="264.4428711" y1="18.7462463" x2="264.4428711" y2="58.1954651" gradientTransform="matrix(1 0 0 -1 0 286)">
		<stop  offset="0" style="stop-color:#000000"/>
		<stop  offset="0.05" style="stop-color:#000000"/>
		<stop  offset="0.2348465" style="stop-color:#0F181B"/>
		<stop  offset="0.4511293" style="stop-color:#20282B"/>
		<stop  offset="0.6885366" style="stop-color:#283033"/>
		<stop  offset="0.98508" style="stop-color:#2B3336"/>
		<stop  offset="1" style="stop-color:#2B3336"/>
	</linearGradient>
	<path class="st7" d="M263.5878906,267.2537537c-4.7890625,0-7.8095703-1.4824219-8.8925781-2.109375
		c-0.6845703-1.2539062-1.4257812-5.3017578-1.5400391-7.9804688c0.2851562-0.3994141,1.140625-0.5136719,1.3681641-0.171875
		c0.8554688,2.9082031,3.1923828,8.4941406,9.8056641,8.4941406c4.7880859,0,7.1259766-3.1347656,7.1259766-6.5556641
		c0-2.5078125-0.5136719-5.3017578-4.6748047-7.9804688l-5.4160156-3.5341797
		c-2.8496094-1.8818359-6.15625-5.1308594-6.15625-9.8056641c0-5.4160156,4.21875-9.8056641,11.6289062-9.8056641
		c1.7675781,0,3.8193359,0.3427734,5.3017578,0.7412109c0.7412109,0.2285156,1.5390625,0.3427734,1.9951172,0.3427734
		c0.5136719,1.3681641,1.0263672,4.5605469,1.0263672,6.9541016c-0.2275391,0.3427734-1.1396484,0.5136719-1.4248047,0.1708984
		c-0.7412109-2.7363281-2.2802734-6.4414062-7.7529297-6.4414062c-5.5869141,0-6.7841797,3.7050781-6.7841797,6.328125
		c0,3.3066406,2.7363281,5.7001953,4.8457031,7.0117188l4.5605469,2.8505859
		c3.5917969,2.2226562,7.1259766,5.5292969,7.1259766,10.9453125
		C275.7304688,262.978363,270.9990234,267.2537537,263.5878906,267.2537537z"/>
	
		<linearGradient id="SVGID_8_" gradientUnits="userSpaceOnUse" x1="296.7006836" y1="19.4874573" x2="296.7006836" y2="59.1579247" gradientTransform="matrix(1 0 0 -1 0 286)">
		<stop  offset="0" style="stop-color:#000000"/>
		<stop  offset="0.05" style="stop-color:#000000"/>
		<stop  offset="0.2348465" style="stop-color:#0F181B"/>
		<stop  offset="0.4511293" style="stop-color:#20282B"/>
		<stop  offset="0.6885366" style="stop-color:#283033"/>
		<stop  offset="0.98508" style="stop-color:#2B3336"/>
		<stop  offset="1" style="stop-color:#2B3336"/>
	</linearGradient>
	<path class="st8" d="M298.9521484,257.790863c0,5.9853516,0.1142578,6.8408203,3.4208984,7.1259766l1.8242188,0.1708984
		c0.3417969,0.2275391,0.2275391,1.2539062-0.1142578,1.4248047c-3.25-0.1142578-5.1875-0.1708984-7.4677734-0.1708984
		s-4.2753906,0.0566406-7.9238281,0.1708984c-0.3427734-0.1708984-0.4570312-1.1396484,0-1.4248047l2.0517578-0.1708984
		c3.2490234-0.2851562,3.5341797-1.140625,3.5341797-7.1259766v-25.4824219c0-1.7675781,0-1.8242188-1.7099609-1.8242188h-3.1357422
		c-2.4511719,0-5.5859375,0.1142578-7.0117188,1.4257812c-1.3681641,1.2539062-1.9375,2.5078125-2.5654297,3.9326172
		c-0.4560547,0.3427734-1.2539062,0.0576172-1.4814453-0.3984375c0.9121094-2.5654297,1.7666016-6.2138672,2.1660156-8.4941406
		c0.1708984-0.1142578,0.9121094-0.1708984,1.0830078,0c0.3417969,1.8242188,2.2236328,1.7666016,4.8457031,1.7666016h23.0878906
		c3.078125,0,3.5908203-0.1132812,4.4462891-1.5957031c0.2851562-0.1142578,0.9121094-0.0566406,1.0263672,0.1708984
		c-0.6269531,2.3369141-1.0263672,6.9550781-0.8554688,8.6650391c-0.2275391,0.4560547-1.1972656,0.4560547-1.4824219,0.1142578
		c-0.1708984-1.4248047-0.5693359-3.5341797-1.4248047-4.1611328c-1.3115234-0.9697266-3.4775391-1.4257812-6.6132812-1.4257812
		h-4.046875c-1.7099609,0-1.6533203,0.0566406-1.6533203,1.9384766V257.790863z"/>
</g>
<radialGradient id="SVGID_9_" cx="165.2400055" cy="111.3720016" r="96.0665207" gradientUnits="userSpaceOnUse">
	<stop  offset="0" style="stop-color:#2B3336"/>
	<stop  offset="0.0149171" style="stop-color:#2B3336"/>
	<stop  offset="0.0176609" style="stop-color:#2B3336"/>
	<stop  offset="0.2171578" style="stop-color:#181C1E"/>
	<stop  offset="0.4287815" style="stop-color:#0B0C0D"/>
	<stop  offset="0.6609074" style="stop-color:#030303"/>
	<stop  offset="0.95" style="stop-color:#000000"/>
	<stop  offset="1" style="stop-color:#000000"/>
</radialGradient>
<path class="st9" d="M261.0883789,131.1740875c-4.3714294-11.4975052-12.6562347-21.2230453-23.3280029-27.3849945
	c-7.6842957-4.4376984-16.3640594-6.9011002-25.2053528-7.1662674c4.1898193-7.789566,6.3968964-16.5399399,6.3968964-25.4141541
	c0.0004272-12.3238983-4.2783356-24.3623314-12.0483704-33.8975258
	c-7.6590271-9.3988285-18.3640594-15.9936218-30.1435852-18.5694141c-0.5208282-0.1141224-1.0384369,0.2084846-1.1656189,0.7268391
	c-0.1269684,0.5183544,0.1824646,1.0435104,0.6974792,1.1835461c18.3126678,4.9768925,31.1025543,21.7524204,31.1025543,40.7950592
	c0,23.3087769-18.9105988,42.2718506-42.1548157,42.2718506c-23.2437744,0-42.1539383-18.9630737-42.1539383-42.2718506
	c0-19.0427437,12.7903214-35.8182755,31.1036301-40.7950592c0.5150146-0.1400356,0.8244476-0.6650829,0.6974792-1.1835461
	c-0.1269684-0.5183544-0.6443481-0.8419342-1.1656189-0.7268391c-11.7797394,2.5757923-22.4849854,9.1704769-30.1440201,18.5694141
	c-7.7698135,9.534977-12.0490112,21.57341-12.0490112,33.8975258c0,8.874321,2.2072983,17.6246948,6.3971024,25.4141541
	c-8.8399887,0.2654953-17.5208282,2.7287827-25.2055588,7.1661606
	c-10.6717758,6.1615143-18.9563751,15.8869476-23.3280029,27.3846741
	c-4.3092117,11.3331909-4.6670227,23.9023895-1.0077667,35.3923492c0.1619492,0.5087433,0.7007065,0.7955017,1.212265,0.6460724
	c0.5126266-0.1492157,0.812561-0.6797638,0.6763077-1.1956329c-4.8469009-18.3502502,3.2843857-37.8155823,19.7736893-47.3365173
	c9.7778015-5.64608,21.1630249-7.1557922,32.0578613-4.2514572c10.8941879,2.9041214,19.9943771,9.8741074,25.6242599,19.6259842
	c11.6212463,20.1330109,4.6557922,45.9941559-15.5270996,57.6484375
	c-16.4895172,9.5206146-37.4111252,6.8309174-50.8773193-6.5424347c-0.37854-0.3759308-0.9879074-0.381546-1.3735733-0.0122986
	c-0.3854446,0.3690338-0.4061737,0.9781799-0.0468597,1.3729248c8.1198425,8.9144745,19.1828918,14.8892059,31.1511459,16.8235626
	c2.8196945,0.4558411,5.6605453,0.6808472,8.4968643,0.6808472c9.3768082-0.0004272,18.6873093-2.4623108,26.8807907-7.1934662
	c7.684082-4.4374847,14.1576233-10.7242584,18.8082428-18.2478943c4.6497498,7.5234222,11.1228638,13.8101807,18.8075867,18.2478943
	c8.1939087,4.731369,17.5031281,7.1934662,26.8805847,7.1934662c2.8356628,0,5.6778107-0.2252197,8.4968567-0.6808472
	c11.9682617-1.9343567,23.031311-7.9090881,31.1511536-16.8235626c0.359314-0.3947449,0.3385773-1.003891-0.0468597-1.3729248
	c-0.3854523-0.3690338-0.9948273-0.3636322-1.3735809,0.0122986c-13.4659729,13.3729248-34.3869324,16.0628357-50.876236,6.5424347
	c-20.1841888-11.6551514-27.1496429-37.5160675-15.5270996-57.6484375
	c5.6294556-9.7518768,14.7292175-16.7218628,25.6231842-19.6259842c10.8948364-2.9042282,22.2802734-1.394516,32.0578613,4.2514572
	c16.4893036,9.5202942,24.6205902,28.9862671,19.7736969,47.3376007c-0.136261,0.5158691,0.1636658,1.0464172,0.6763,1.1956329
	c0.512207,0.1494293,1.0501099-0.1373291,1.2122498-0.6460876
	C265.7554016,155.0766907,265.397583,142.5072784,261.0883789,131.1740875z M177.928833,124.413353v0.0250473
	c-0.0030212,3.3722763-1.3191528,6.5415649-3.7054596,8.923996c-2.383728,2.3793945-5.5495605,3.6890411-8.9168701,3.6890411
	c-0.0038757,0-0.0084229,0-0.0122986,0c-6.9598389-0.0062561-12.6177979-5.6754456-12.6123962-12.6380844v-0.0239639
	c0.006485-6.9575653,5.6681061-12.6130371,12.6236267-12.6130371c0.0038757,0,0.008194,0,0.012085,0
	C172.2777863,111.7828293,177.9353027,117.4513626,177.928833,124.413353z"/>
<radialGradient id="SVGID_10_" cx="-243.1365509" cy="158.4924927" r="36.5168381" gradientTransform="matrix(0.941734 0 0 0.9418468 339.9143066 5.9558544)" gradientUnits="userSpaceOnUse">
	<stop  offset="0.02" style="stop-color:#D2D3D5"/>
	<stop  offset="0.8" style="stop-color:#A9ABAD"/>
	<stop  offset="0.98" style="stop-color:#95979A"/>
</radialGradient>
<ellipse class="st10" cx="110.9443436" cy="155.2315063" rx="34.3891487" ry="34.3932686"/>
<radialGradient id="SVGID_11_" cx="-127.6866226" cy="158.4924927" r="36.5168381" gradientTransform="matrix(0.941734 0 0 0.9418468 339.9143066 5.9558544)" gradientUnits="userSpaceOnUse">
	<stop  offset="0.02" style="stop-color:#E2E3E4"/>
	<stop  offset="0.8" style="stop-color:#C9CACC"/>
	<stop  offset="0.98" style="stop-color:#BCBEC0"/>
</radialGradient>
<ellipse class="st11" cx="219.6674652" cy="155.2315063" rx="34.3891487" ry="34.3932686"/>
<radialGradient id="SVGID_12_" cx="-185.4110718" cy="59.5984917" r="36.517067" gradientTransform="matrix(0.941734 0 0 0.9418468 339.9143066 5.9558544)" gradientUnits="userSpaceOnUse">
	<stop  offset="0.02" style="stop-color:#ECEDEE"/>
	<stop  offset="0.8" style="stop-color:#DDDEDF"/>
	<stop  offset="0.98" style="stop-color:#D5D7D8"/>
</radialGradient>
<ellipse class="st12" cx="165.3063812" cy="62.0885048" rx="34.3893585" ry="34.3934822"/>
</svg>
