<?xml version="1.0" encoding="utf-8"?>
<!-- Generator: Adobe Illustrator 22.0.1, SVG Export Plug-In . SVG Version: 6.00 Build 0)  -->
<svg version="1.1" id="Layer_1" xmlns="http://www.w3.org/2000/svg" xmlns:xlink="http://www.w3.org/1999/xlink" x="0px" y="0px"
	 viewBox="0 0 342 284.5350037" style="enable-background:new 0 0 342 284.5350037;" xml:space="preserve">
<style type="text/css">
	.st0{fill:#FFFFFF;}
	.st1{fill:url(#SVGID_1_);}
	.st2{fill:url(#SVGID_2_);}
	.st3{fill:url(#SVGID_3_);}
</style>
<g>
	<path class="st0" d="M40.0132103,227.0764771c0-2.1786499-0.0657883-2.2444763,1.912796-2.2444763h4.6832886
		c3.6276016,0,6.1343384,0.5279236,7.6517677,1.6501465c0.989296,0.7260284,1.451046,3.1686096,1.6490173,4.8187561
		c0.329567,0.3956451,1.4510384,0.3956451,1.7148132-0.1322784c-0.197979-1.9799194,0.2637711-7.3265686,0.989296-10.0331268
		c-0.1321907-0.2639618-0.857708-0.3298035-1.1872749-0.1975403c-0.989296,1.7159882-1.5832367,1.8476715-5.145031,1.8476715
		H25.567625c-3.0342102,0-5.2108936,0.0664368-5.6066704-2.0457764c-0.197916-0.1981049-1.055378-0.1322784-1.2532387,0
		c-0.46175,2.6401062-1.4511566,6.8645325-2.5065441,9.8344421c0.2638245,0.5284882,1.1872673,0.8582764,1.7149982,0.4620361
		c0.7255821-1.6501312,1.3851738-3.1021576,2.9682274-4.554184c1.6490173-1.5178528,5.2769299-1.6501465,8.1132145-1.6501465
		h3.6276093c1.9791794,0,1.9791794,0.0658264,1.9791794,2.1121979V256.4487c0,6.9309692-0.3301544,7.920929-4.0899467,8.2513123
		l-2.3743038,0.1975098c-0.5277214,0.3304138-0.3957787,1.4526367,0,1.6501465
		c4.2212925-0.1316528,6.5300388-0.1975098,9.1683598-0.1975098c2.6389122,0,4.8812637,0.0658569,8.6410484,0.1975098
		c0.3959694-0.1975098,0.5275536-1.3855896,0.1321907-1.6501465l-2.1107559-0.1975098
		c-3.8261986-0.3303833-3.9577827-1.320343-3.9577827-8.2513123V227.0764771L40.0132103,227.0764771z M65.9357834,257.8747559
		c0,5.9325562-0.2824707,6.7799683-3.5008392,7.0626526l-1.8633003,0.1697388
		c-0.3386192,0.3388367-0.2257576,1.2430115,0.1128616,1.4121399c3.3312492-0.1129456,5.2512779-0.1691284,7.678936-0.1691284
		h5.0816574c5.0249329,0,10.0504608,0.0561829,15.1321182,0.1691284c0.733963-1.525116,2.1451721-5.8757629,2.5405197-7.8532715
		c-0.2257309-0.508606-1.0164413-0.6783142-1.4118042-0.3956299c-1.4679413,2.9378662-2.992012,4.9154053-4.008461,5.4807434
		c-1.2422104,0.621521-2.8797455,0.8474121-7.2274399,0.8474121c-4.9687881,0-6.1542511-0.621521-6.8314896-1.2998352
		c-0.9035721-0.9603577-1.0731888-2.8811035-1.0731888-5.8757629v-7.9668274c0-1.4689331,0.1696167-1.5257111,1.8632965-1.5257111
		h3.2750931c2.2019272,0,3.5569992,0.056778,4.3476944,0.2826843c1.1287384,0.2826691,1.5240784,1.1300812,1.7498322,2.1472168
		l0.5082245,2.2034302c0.2824783,0.3388519,1.2422028,0.3388519,1.4679413-0.0567932
		c0-1.2430267-0.2257385-3.389679-0.2257385-5.4239655c0-2.146637,0.2257385-4.3506622,0.2257385-5.7066498
		c-0.2257385-0.3950348-1.185463-0.3950348-1.4679413-0.0561829l-0.4514923,2.3163757
		c-0.282486,1.4127808-0.6778259,1.7516327-1.3550644,1.9775238c-0.6778488,0.2258759-2.4276581,0.3388519-4.7991943,0.3388519
		h-3.2750931c-1.6936798,0-1.8632965,0-1.8632965-1.5818939v-11.2997589c0-2.1472321,0-2.2601929,1.6942902-2.2601929h4.0652008
		c2.4844055,0,4.2909622,0.0561676,5.4764252,0.3388519c2.9364777,0.7344666,3.4447021,2.7119751,4.2915573,5.3677979
		c0.2818756,0.3388672,1.185463,0.2258911,1.4112015-0.1129608c-0.2257385-2.4860687-0.5643616-6.5540466-0.902977-7.5150146
		c-0.6778488,0.1697388-4.009079,0.1697388-7.6228027,0.1697388H68.3634415c-2.3147736,0-4.2348175-0.0567932-6.662468-0.1697388
		c-0.3386192,0.1697388-0.4514923,1.1868591-0.1128731,1.4127502l0.9035797,0.1129761
		c3.3312263,0.3955994,3.4441032,1.2430267,3.4441032,7.1188202V257.8747559L65.9357834,257.8747559z M92.9303436,247.9304047
		c0,7.2891388,3.5002441,12.4304352,8.01754,15.5380402c4.1219482,2.768158,8.977272,3.7853088,14.0589218,3.7853088
		c3.6137314,0,7.6789322-0.8474121,8.9211349-1.2992249c0.6210938-0.2258911,1.2989273-0.4523926,1.9761658-0.5653381
		c0.8468475-1.0733032,2.3147812-4.8024292,2.7101364-7.7403259c-0.2257385-0.3956299-1.0725784-0.5085754-1.4679489-0.2259216
		c-1.298317,3.3335266-4.5166855,8.0791931-11.8008728,8.0791931c-9.2597427,0-16.7690506-6.5540771-16.7690506-18.4191589
		c0-11.6953735,7.3403091-17.1761322,15.9789505-17.1761322c8.187149,0,10.7276917,4.4068604,11.5745239,8.2489166
		c0.3953552,0.339447,1.2422028,0.2826691,1.5246811-0.1129456c-0.4514847-3.4464417-0.7339783-7.0058441-0.7907257-8.3056946
		c-0.5082169,0.0568085-0.9029617-0.0561676-1.5807877-0.2258759c-2.6534042-0.7344666-6.9449692-1.3559875-9.993721-1.3559875
		c-5.8723679,0-11.1230316,1.5818634-15.2449951,4.8024292C95.7533569,236.2911987,92.9303436,241.6589966,92.9303436,247.9304047
		L92.9303436,247.9304047z M159.6118164,248.1001129c2.7107544,0,2.8236237,0.1129761,2.8236237,1.8078156v7.9668274
		c0,5.9325562,0,6.4978943-3.4447021,7.0626526l-1.0725861,0.1697388c-0.3386383,0.3388367-0.2257385,1.2430115,0.1128845,1.4121399
		c2.484375-0.1129456,4.5172882-0.1691284,6.832077-0.1691284c2.2019043,0,4.121933,0.0561829,6.8320923,0.1691284
		c0.3385925-0.1691284,0.4514771-1.1862488,0.112854-1.4121399l-1.3550568-0.1697388
		c-3.2751007-0.3956299-3.3879852-1.1300964-3.3879852-7.0626526v-20.3404846c0-5.9325867,0.1128845-6.7799988,3.3879852-7.1188202
		l1.1854401-0.1129761c0.338623-0.2258911,0.225769-1.2430115-0.1128693-1.4127502
		c-2.5405273,0.1129456-4.460556,0.1697388-6.6624603,0.1697388c-2.3147888,0-4.2348328-0.0567932-6.832077-0.1697388
		c-0.338623,0.1697388-0.4515228,1.1868591-0.1128845,1.4127502l1.0725861,0.1129761
		c3.3318329,0.3388214,3.4447021,1.1862335,3.4447021,7.1188202v6.497879c0,1.7516174-0.1128693,1.8077698-2.8236237,1.8077698
		h-16.147934c-2.7101593,0-2.8230133-0.0561523-2.8230133-1.8077698v-6.497879c0-5.9325867,0.112854-6.7799988,3.3873444-7.1188202
		l1.0732117-0.1129761c0.3386078-0.2258911,0.2257538-1.2430115-0.1128693-1.4127502
		c-2.4282684,0.1129456-4.3476868,0.1697388-6.5496216,0.1697388c-2.4282532,0-4.3476715-0.1129761-7.1145477-0.1697388
		c-0.338623,0.1697388-0.4514923,1.1868591-0.1128845,1.4127502l1.4679413,0.1129761
		c2.9358826,0.2258759,3.3312378,1.1862335,3.3312378,7.1188202v20.3404846c0,5.9325562-0.112854,6.4978943-3.2744904,7.0626526
		l-0.9597168,0.1697388c-0.3392487,0.3388367-0.2263489,1.2430115,0.1128845,1.4121399
		c2.2019043-0.0561829,4.1213226-0.1691284,6.5495758-0.1691284c2.2019348,0,4.1213531,0.0561829,7.1707001,0.1691284
		c0.338623-0.1691284,0.4514923-1.1862488,0.1128998-1.4121399l-1.637558-0.1697388
		c-3.1616364-0.3388672-3.4441071-1.1300964-3.4441071-7.0626526v-7.9668274c0-1.6948395,0.112854-1.8078156,2.8230133-1.8078156
		H159.6118164L159.6118164,248.1001129z M192.1492004,233.4789429c-2.0449829-4.2243958-3.6940002-8.3171539-3.4296265-10.8908386
		c-2.1771851,0.197525-3.9577789,0.197525-5.4752197,0.197525c-1.6490173,0-3.2316284-0.0658417-5.2108154-0.197525
		c-0.5275421,0.2639618-0.593338,1.253952-0.2637634,1.6501617l1.055069,0.1316681
		c4.0241699,0.5278931,4.551712,1.5184937,4.4195099,5.6764526c-0.1315765,3.6306763-0.39534,9.2412872-0.7255096,14.719635
		c-0.3953552,6.534729-0.7255249,10.1648102-1.1214752,14.5215149c-0.3953552,4.6200256-1.3188629,5.0162659-4.0893555,5.4124756
		l-1.4510345,0.1975098c-0.3959656,0.3304138-0.2637787,1.3203735,0.1315765,1.6501465
		c2.2429504-0.1316528,4.6174927-0.1975098,6.7282715-0.1975098c2.5067291,0,5.0792542,0.0658569,7.321579,0.1975098
		c0.4617767-0.1975098,0.5275574-1.2539062,0.0658112-1.6501465l-2.506134-0.1975098
		c-2.572525-0.1980896-2.9684601-1.2545166-2.9684601-6.1390991c0-5.6100159,0.2637482-11.4845734,0.4617462-15.5108795
		c0.1979675-3.8287964,0.3959503-7.6569977,0.659729-11.7491302h0.1321869
		c1.4510345,3.0357361,2.8362885,6.4683075,4.220932,9.5046387l5.9369659,12.73909
		c1.5168304,3.2344818,4.6832886,9.7027435,5.8041534,13.2011566c0.1321869,0.1981201,0.4617462,0.2639465,0.5939484,0.2639465
		c0.2637634,0,0.5275421-0.0658264,0.6597137-0.2639465c1.1872864-3.0363159,4.1551514-9.2406616,7.1236267-15.049408
		l5.8705444-11.5509949c1.3194733-2.5742798,3.825592-7.8545074,4.2873535-8.5805359h0.1321869l0.1979828,27.5245667
		c0,4.2244263,0,5.2802124-3.232254,5.6105957l-1.912796,0.1975098c-0.3959503,0.3962402-0.3301849,1.3203735,0.1315918,1.6501465
		c2.7046967-0.1316528,5.6725616-0.1975098,7.9813232-0.1975098c2.374527,0,5.0792542,0.0658569,7.7833252,0.1975098
		c0.4617767-0.2639465,0.5281677-1.2539062,0.1322174-1.6501465l-2.1107788-0.1975098
		c-3.1000671-0.2645264-3.0342865-2.0463562-3.232254-5.3466492c-0.5275269-9.5052338-0.5933228-21.7164154-0.7255096-28.7126465
		c-0.0657959-4.6206512,0.4617615-5.8745575,4.6174927-6.2707825l1.3852539-0.1316681
		c0.3295593-0.2645721,0.3295593-1.3862-0.0664215-1.6501617c-2.0443573,0.1316833-4.2215118,0.197525-5.8705292,0.197525
		c-1.3188477,0-2.7041168,0-4.9470673-0.197525c-0.1315765,3.0357513-2.0443726,6.6664429-5.0128479,12.6726685
		l-6.2001343,12.6074219c-1.6490173,3.3661194-3.2980194,6.7986908-5.0792389,9.9008484h-0.1315765
		c-1.5832214-2.9040375-3.0342865-5.9403992-4.5517273-9.0425568L192.1492004,233.4789429L192.1492004,233.4789429z
		 M240.8508301,257.7618103c0,5.9893188-0.1128845,6.7799683-3.4441223,7.1755981l-1.4118042,0.1697388
		c-0.338623,0.3388367-0.2257385,1.2430115,0.112854,1.4121399c2.8236084-0.1129456,4.7430725-0.1691284,7.1145782-0.1691284
		c2.2586517,0,4.1780701,0.0561829,7.0010986,0.1691284c0.3392029-0.1691284,0.4520874-1.1862488,0.112854-1.4121399
		l-1.4112091-0.1697388c-3.3312073-0.3956299-3.4440918-1.1862793-3.4440918-7.1755981v-20.1140137
		c0-5.9893188,0.1128845-6.949707,3.4440918-7.2323456l1.4112091-0.1129761
		c0.3392334-0.2258911,0.2263489-1.2430115-0.112854-1.4127502c-2.8230286,0.1129456-4.7424469,0.1697388-7.0010986,0.1697388
		c-2.3715057,0-4.2909698-0.0567932-7.1145782-0.1697388c-0.3385925,0.1697388-0.4514771,1.1868591-0.112854,1.4127502
		l1.4118042,0.1129761c3.3312378,0.2826385,3.4441223,1.2430267,3.4441223,7.2323456V257.7618103L240.8508301,257.7618103z
		 M275.9872437,256.8014221c0-5.3677826-3.500824-8.644516-7.0578308-10.848526l-4.5172729-2.8249359
		c-2.0890503-1.2992096-4.7991943-3.6723633-4.7991943-6.9497223c0-2.5990143,1.1860657-6.2713928,6.7192383-6.2713928
		c5.4202271,0,6.9449463,3.6723785,7.678894,6.3843536c0.2818909,0.3394623,1.1854553,0.1697235,1.4112244-0.1691284
		c0-2.3731384-0.5076294-5.536911-1.0158386-6.8928986c-0.4521179,0-1.2421875-0.1135712-1.9761658-0.339447
		c-1.4685669-0.3956146-3.500885-0.7344666-5.2513123-0.7344666c-7.3403015,0-11.5183716,4.3506317-11.5183716,9.7184296
		c0,4.6327515,3.2750854,7.853302,6.098114,9.717865l5.3641357,3.5032349
		c4.1213684,2.6552124,4.6295471,5.4239807,4.6295471,7.9100647c0,3.3902893-2.3147583,6.4972839-7.0578003,6.4972839
		c-6.5496216,0-8.8643951-5.5368958-9.7112274-8.4186096c-0.2257538-0.3388672-1.0731964-0.2259216-1.3550873,0.1697083
		c0.1128693,2.6558228,0.8468781,6.6670227,1.5240784,7.9100647c1.0732117,0.621521,4.0652161,2.0904541,8.8082581,2.0904541
		C271.3009644,267.2537537,275.9872437,263.0166626,275.9872437,256.8014221L275.9872437,256.8014221z M299.3342896,232.731781
		c0-1.864563-0.0567322-1.9207306,1.6375427-1.9207306h4.0084839c3.1054993,0,5.2512207,0.4517975,6.5495911,1.4121552
		c0.8468628,0.6215363,1.2421875,2.7120056,1.4118347,4.1247711c0.2824707,0.3388672,1.2421875,0.3388672,1.467926-0.1129303
		c-0.1696167-1.6948395,0.225769-6.2714233,0.8468628-8.5883942c-0.1128845-0.2258911-0.7340393-0.2820587-1.0164795-0.1690979
		c-0.8468628,1.4689331-1.3551025,1.5819092-4.4038086,1.5819092h-22.8671875c-2.59729,0-4.4605713,0.0561371-4.7991333-1.7516327
		c-0.1696472-0.1697388-0.9036255-0.1129608-1.0732422,0c-0.3947449,2.2601624-1.242157,5.876358-2.1451416,8.4186249
		c0.2257385,0.4517822,1.016449,0.7344666,1.467926,0.3956146c0.6210938-1.412735,1.1854858-2.6558075,2.5404968-3.8988647
		c1.4118042-1.2991943,4.517334-1.4121552,6.9450073-1.4121552h3.1054688c1.6936951,0,1.6936951,0.0561676,1.6936951,1.8078003
		v25.2559052c0,5.9325562-0.2818909,6.7799683-3.5002441,7.0626526l-2.0328979,0.1697388
		c-0.4515076,0.2820435-0.3386536,1.2430115,0,1.4121399c3.6137085-0.1129456,5.5898743-0.1691284,7.8485413-0.1691284
		c2.2580261,0,4.1780701,0.0561829,7.3964233,0.1691284c0.338623-0.1691284,0.4514771-1.1862488,0.112915-1.4121399
		l-1.8065796-0.1697388c-3.275116-0.2826843-3.3880005-1.1300964-3.3880005-7.0626526V232.731781L299.3342896,232.731781z"/>
	<g>
		<path class="st0" d="M319.5252686,228.4737396c-0.1102905,0-0.3640137-0.010788-0.5295105,0.0554504
			c-0.2206116,0.0996094-0.3971252,0.353241-0.5405273,0.6736298c0,0.0549469-0.0441284,0.0657196-0.07724,0.0549469
			l-0.2095947-0.0441589c-0.0330811-0.010788-0.0330811-0.033371-0.0330811-0.0549469
			c0.0551453-0.3316803,0.2095947-1.0489655,0.2206421-1.1038971c0.0110168-0.0667419,0.0440979-0.0883179,0.0772095-0.0883179
			c0.0441284,0,0.0661926,0.010788,0.0992737,0.0441589c0.0441284,0.0328674,0.2206421,0.1098785,0.4302368,0.12117
			c0.2757874,0.0113068,0.6398315,0.0328674,1.1031494,0.0328674c0.4302368,0,0.9376831-0.0215607,1.2355347-0.0328674
			c0.1985474,0,0.3640442-0.0770111,0.4191895-0.1324615c0.0220642-0.0220795,0.0441284-0.0328674,0.0882568-0.0328674
			s0.0551453,0.0215759,0.0661926,0.0883179l0.1323547,1.125473c0,0.033371-0.0220642,0.0441437-0.0551453,0.0554504
			l-0.1765137,0.0328522c-0.0441284,0.0112915-0.0661926-0.0107727-0.0882263-0.0549316
			c-0.0551758-0.1432495-0.2868347-0.5298767-0.4854126-0.6515656c-0.1764832-0.0990906-0.4743347-0.0883026-0.5846558-0.0883026
			v1.4571381c0,0.0667572-0.0110474,1.5346832,0,1.6230011c0.0220642,0.1432495,0.0661926,0.2207794,0.1985779,0.2207794h0.2426758
			c0.0331116,0,0.0551758,0.0220795,0.0551758,0.0662384v0.2094727c0,0.0333862-0.0110474,0.0441589-0.0551758,0.0441589
			c-0.0551453,0-0.5846558-0.0107727-1.0148926-0.0107727c-0.34198,0-0.8935547,0.0107727-0.9597473,0.0107727
			c-0.0551453,0-0.0661926-0.0107727-0.0661926-0.0549316v-0.1987c0-0.0441589,0.0110474-0.0662384,0.0551758-0.0662384h0.2537231
			c0.1213379,0,0.1875305-0.0549469,0.1985474-0.1216888V228.4737396z M322.1949158,231.8521881
			c0-0.033371,0.0110168-0.0775299,0.0441284-0.0775299h0.1323547c0.1875305,0,0.3199158-0.2315674,0.3530273-0.4307861
			c0.0551453-0.4189606,0.0882568-1.5670166,0.0882568-1.7220764v-0.8831329c0-0.2207794-0.1213684-0.309082-0.3088989-0.309082
			h-0.1765137c-0.0220642,0-0.0330811-0.010788-0.0330811-0.0549469v-0.1987c0-0.0441589,0.0220642-0.0662384,0.0441284-0.0662384
			c0.0441284,0,0.3861084,0.0220795,0.6949768,0.0220795c0.4191895,0,0.8273621-0.0220795,0.9928284-0.0220795
			c0.1213684,0,0.1544495,0.010788,0.1875305,0.1103973l0.8163452,2.1636505l0.8383789-2.152359
			c0.0331116-0.0775299,0.0882568-0.0996094,0.1323853-0.0996094h1.4561768c0.0551453,0,0.0882263,0.0113068,0.0882263,0.0441589
			v0.1766205c0,0.0662384-0.0110168,0.0770264-0.0440979,0.0770264h-0.110321c-0.1654663,0-0.1875305,0.0996094-0.1875305,0.2320709
			c0,0.0883179-0.0220642,1.346756-0.0220642,1.4571533c0,0.12117,0.0220642,1.2476654,0.0220642,1.3575439
			c0,0.1766205,0.0551453,0.2983093,0.1875305,0.2983093h0.2095947c0.0441284,0,0.0441284,0.0220795,0.0441284,0.0662384v0.187912
			c0,0.0441589,0,0.0657196-0.0551758,0.0657196c-0.0772095,0-0.5625916-0.0107727-0.9597168-0.0107727
			c-0.3309631,0-0.8604736,0.0107727-0.9156189,0.0107727c-0.0441284,0-0.0551758-0.0215607-0.0551758-0.0657196v-0.1766205
			c0-0.0441589,0.0110474-0.0775299,0.0551758-0.0775299h0.2206116c0.1213684,0,0.187561-0.0883179,0.2095947-0.1987
			c0.0110474-0.0996094,0.0110474-1.2805328,0.0110474-1.3801422v-1.478714h-0.0441284l-1.2906799,3.1566467
			c-0.0331116,0.0554504-0.0882568,0.1324768-0.1434021,0.1324768c-0.07724,0-0.1434326-0.0215759-0.1765137-0.0991058
			l-1.2465515-3.1792297h-0.0661926v1.2913055c0,0.0775299-0.0110474,0.9940186,0.0110168,1.2589569
			c0.0220642,0.3090973,0.1544495,0.4965057,0.3640442,0.4965057h0.1323853c0.0330811,0,0.0441284,0.033371,0.0441284,0.0775299
			v0.1766205c0,0.0441589-0.0110474,0.0549469-0.0551758,0.0549469h-0.7059937
			c-0.1765137,0-0.6729431,0.0107727-0.7280884,0.0107727c-0.0551453-0.0107727-0.0441284,0-0.0551453-0.0657196V231.8521881z"/>
	</g>
</g>
<path class="st0" d="M261.0883789,131.1741028c-4.3714294-11.4975128-12.6562347-21.2230606-23.3280029-27.3850098
	c-7.6842957-4.4376984-16.3640594-6.9010925-25.2053528-7.1662674c4.1898193-7.789566,6.3968964-16.5399399,6.3968964-25.4141541
	c0.0004272-12.3238983-4.2783356-24.3623276-12.0483704-33.897522c-7.6590271-9.3988304-18.3640594-15.9936218-30.1435852-18.569416
	c-0.5208282-0.1141205-1.0384369,0.2084866-1.1656189,0.726841c-0.1269684,0.5183544,0.1824646,1.0435104,0.6974792,1.1835461
	c18.3126678,4.9768925,31.1025543,21.7524204,31.1025543,40.7950592c0,23.3087845-18.9105988,42.271843-42.1548157,42.271843
	c-23.2437744,0-42.1539383-18.9630661-42.1539383-42.2718468c0-19.0427475,12.7903214-35.8182755,31.1036301-40.7950592
	c0.5150146-0.1400356,0.8244476-0.6650829,0.6974792-1.1835461c-0.1269684-0.5183544-0.6443481-0.8419342-1.1656189-0.726841
	c-11.7797394,2.5757942-22.4849854,9.1704788-30.1440201,18.569418c-7.7698135,9.534977-12.0490112,21.57341-12.0490112,33.897522
	c0,8.874321,2.2072983,17.6246948,6.3971024,25.4141541c-8.8399887,0.2654953-17.5208282,2.7287827-25.2055588,7.1661606
	c-10.6717758,6.1615219-18.9563751,15.8869553-23.3280029,27.3846741
	c-4.3092117,11.3331909-4.6670227,23.9023895-1.0077667,35.3923492c0.1619492,0.5087433,0.7007065,0.7955017,1.212265,0.6460724
	c0.5126266-0.1492004,0.812561-0.6797638,0.6763077-1.1956329c-4.8469009-18.350235,3.2843857-37.815567,19.7736893-47.3365173
	c9.7778015-5.6460724,21.1630249-7.1557922,32.0578613-4.2514496c10.8941879,2.9041214,19.9943771,9.8740997,25.6242599,19.6259918
	c11.6212463,20.1329956,4.6557922,45.9941406-15.5270996,57.6484222
	c-16.4895172,9.5206146-37.4111252,6.8309174-50.8773193-6.5424194c-0.37854-0.375946-0.9879074-0.3815613-1.3735733-0.0123138
	c-0.3854446,0.3690338-0.4061737,0.9781952-0.0468597,1.3729248c8.1198425,8.9144897,19.1828918,14.8892212,31.1511459,16.8235626
	c2.8196945,0.4558411,5.6605453,0.6808472,8.4968643,0.6808472c9.3768082-0.0004272,18.6873093-2.4623108,26.8807907-7.1934662
	c7.684082-4.4374847,14.1576233-10.7242432,18.8082428-18.2478943c4.6497498,7.5234375,11.1228638,13.8101959,18.8075867,18.2478943
	c8.1939087,4.731369,17.5031281,7.1934662,26.8805847,7.1934662c2.8356628,0,5.6778107-0.2252197,8.4968567-0.6808472
	c11.9682617-1.9343414,23.031311-7.9090729,31.1511536-16.8235626c0.359314-0.3947296,0.3385773-1.003891-0.0468597-1.3729248
	c-0.3854523-0.3690338-0.9948273-0.3636322-1.3735809,0.0123138c-13.4659729,13.3729095-34.3869324,16.0628204-50.876236,6.5424194
	c-20.1841888-11.6551361-27.1496429-37.5160675-15.5270996-57.6484222
	c5.6294556-9.7518921,14.7292175-16.7218704,25.6231842-19.6259918c10.8948364-2.9042358,22.2802734-1.394516,32.0578613,4.2514496
	c16.4893036,9.5202942,24.6205902,28.9862823,19.7736969,47.3376007c-0.136261,0.5158691,0.1636658,1.0464172,0.6763,1.1956329
	c0.512207,0.1494293,1.0501099-0.1373291,1.2122498-0.6460724
	C265.7554016,155.0767059,265.397583,142.5072784,261.0883789,131.1741028z M177.928833,124.4133606v0.0250473
	c-0.0030212,3.3722687-1.3191528,6.5415573-3.7054596,8.9239883c-2.383728,2.3793945-5.5495605,3.6890411-8.9168701,3.6890411
	c-0.0038757,0-0.0084229,0-0.0122986,0c-6.9598389-0.0062561-12.6177979-5.6754456-12.6123962-12.6380768v-0.0239716
	c0.006485-6.9575653,5.6681061-12.6130371,12.6236267-12.6130371c0.0038757,0,0.008194,0,0.012085,0
	C172.2777863,111.7828293,177.9353027,117.4513702,177.928833,124.4133606z"/>
<radialGradient id="SVGID_1_" cx="-215.9133301" cy="110.4375" r="36.5168381" gradientTransform="matrix(0.941734 0 0 -0.9418468 314.2772827 259.2467041)" gradientUnits="userSpaceOnUse">
	<stop  offset="0.02" style="stop-color:#B3C0E2"/>
	<stop  offset="0.8" style="stop-color:#7591CA"/>
	<stop  offset="0.98" style="stop-color:#567EBF"/>
</radialGradient>
<ellipse class="st1" cx="110.9443436" cy="155.2315063" rx="34.3891525" ry="34.3932648"/>
<radialGradient id="SVGID_2_" cx="-100.4634094" cy="110.4375" r="36.5168343" gradientTransform="matrix(0.941734 0 0 -0.9418468 314.2772827 259.2467041)" gradientUnits="userSpaceOnUse">
	<stop  offset="0.02" style="stop-color:#C4E1AF"/>
	<stop  offset="0.8" style="stop-color:#8CC866"/>
	<stop  offset="0.98" style="stop-color:#6FBE46"/>
</radialGradient>
<ellipse class="st2" cx="219.6674652" cy="155.2315063" rx="34.3891449" ry="34.3932648"/>
<radialGradient id="SVGID_3_" cx="-158.1878662" cy="209.3314972" r="36.5170631" gradientTransform="matrix(0.941734 0 0 -0.9418468 314.2772827 259.2467041)" gradientUnits="userSpaceOnUse">
	<stop  offset="0.02" style="stop-color:#FFEEAC"/>
	<stop  offset="0.8" style="stop-color:#FEE258"/>
	<stop  offset="0.98" style="stop-color:#FDDD10"/>
</radialGradient>
<ellipse class="st3" cx="165.3063812" cy="62.0885086" rx="34.3893585" ry="34.393486"/>
</svg>
