<?xml version="1.0" encoding="utf-8"?>
<!-- Generator: Adobe Illustrator 21.0.2, SVG Export Plug-In . SVG Version: 6.00 Build 0)  -->
<svg version="1.1" id="Layer_1" xmlns="http://www.w3.org/2000/svg" xmlns:xlink="http://www.w3.org/1999/xlink" x="0px" y="0px"
	 viewBox="0 0 732 732" enable-background="new 0 0 732 732" xml:space="preserve">
<circle fill="#FFFFFF" cx="366.210144" cy="365.760376" r="366.0419922"/>
<radialGradient id="SVGID_1_" cx="366.2099304" cy="365.7602844" r="366.0418396" gradientUnits="userSpaceOnUse">
	<stop  offset="0.4507612" style="stop-color:#C6D5B2"/>
	<stop  offset="0.929268" style="stop-color:#7D9F4D"/>
	<stop  offset="1" style="stop-color:#71973E"/>
</radialGradient>
<path fill="url(#SVGID_1_)" d="M732.1948242,359.3719482C728.666748,157.2440796,561.9494629-3.7529297,359.8215332-0.2247314
	C157.6936646,3.3034058-3.3031006,170.0206299,0.2250366,372.1485596
	c3.5281982,202.1278687,170.2451782,363.1248779,372.3731079,359.5967407S735.7230225,561.4998779,732.1948242,359.3719482z
	 M334.0574341,91.3768921c11.4677734-15.9777222,31.5386963-14.8334351,40.4067383,2.7109985
	c2.7875977,5.5148926,4.7729492,11.8034668,5.4832153,17.9284668c1.8598022,16.0391235-1.6135254,30.8190308-13.538269,42.5933838
	c-10.0562744,9.9296875-23.8984375,9.1904297-32.803894-1.6831055c-6.5811768-8.0355835-9.3017578-17.4892578-9.4360352-29.7270508
	C323.6339111,112.7739868,326.7971191,101.4921875,334.0574341,91.3768921z M269.8035278,116.8927612
	c3.0354004-7.0066528,8.8512573-11.9150391,16.9636841-12.0063477c7.6359253-0.0859375,13.3278809,4.1920776,16.7260132,10.7751465
	c2.4729004,4.7905884,4.7218018,9.9821167,5.6194458,15.2426147c2.0766602,12.1665649,0.6334229,23.96698-7.4485474,33.9867554
	c-7.6696777,9.508606-19.5228882,9.7144775-27.5957642,0.6569824c-6.7478638-7.5708618-9.2229004-16.7207031-9.4915161-26.6262207
	C264.1282959,138.7832642,266.8294067,123.7577515,269.8035278,116.8927612z M226.7747803,148.1599731
	c4.6799927-9.9716187,13.9699707-12.7540894,23.0046387-6.4134521c8.9276123,6.2653198,11.5335693,15.8546143,12.7435303,28.1539307
	c-0.6954346,2.7830811-1.3032227,7.6494141-3.1256104,12.0078125c-4.0097656,9.5892334-13.8157349,11.9958496-22.2369995,5.9207153
	C226.0423584,179.8084106,220.9857788,160.4945679,226.7747803,148.1599731z M203.8605957,183.1289062
	c4.8574219-7.7087402,13.9172363-7.5372314,19.640625-0.3399048c7.3544312,9.2480469,6.4992676,26.1166382-1.7523193,34.5742188
	c-4.4758301,4.5875854-12.055603,4.4725342-16.5344238-0.1629028c-4.8207397-4.9893799-6.4377441-11.1061401-6.4746094-17.8228149
	C198.2861328,199.2071533,200.8804321,187.8583984,203.8605957,183.1289062z M366.2653198,676.1594238
	c-5.3339844-10.5420532-9.9109497-24.6779175-11.8234253-29.3803711
	c-13.9638672-34.3340454-18.2924194-72.9279175-19.8600464-109.678894
	c-4.0568848-0.0769043,0.956543,48.7553711,1.473877,53.9275513c1.8190918,18.1856079,6.5750122,34.6825562,11.8200073,52.0582275
	c3.4382935,11.3907471,7.8355713,22.5871582,13.0196533,33.3831177
	c-58.678772,1.3499756-86.9710083-25.5424194-91.3010254-116.107605
	c-4.3321533-90.6049805,96.1505127-164.3078613,96.1505127-164.3078613
	c-21.0708008,77.1080322,19.0575562,74.9503174,56.9384766,143.2527466
	C459.4147949,605.5366821,422.1088867,670.9946289,366.2653198,676.1594238z M453.9952393,270.020874
	c-5.2689209,24.1724854-48.7945557,76.2149658-91.9176636,106.9104614
	c-43.1237183,30.6955566-108.2044678,76.4088745-107.6875,136.5479126c0,0-94.0873413-183.7457886-39.8707886-251.9367676
	c58.1496582-73.1380615,100.2698364-77.1813965,175.6862793-73.0870361c2.1708374,0.1179199,4.2662964,0.2810669,6.303772,0.4786987
	c-15.3995972,14.5055542-29.5285034,30.5202026-41.8398438,47.5921631
	c-15.1655273,21.0305786-29.2626953,41.1016846-40.1776123,64.819458
	c-3.1044312,6.7456665-32.5877686,70.3739014-27.0724487,72.1567993
	c19.2103271-48.9120483,43.0067749-99.0290527,77.8370361-138.9108276c6.5-7.4429321,27.8291016-36.2519531,42.1376953-44.1256714
	C464.557373,201.2388916,458.824707,247.8630981,453.9952393,270.020874z M456.5908203,158.2509766
	c-13.2727051,13.440979-32.7027588,14.2487183-45.1791992-0.5506592
	c-9.5460815-11.3231812-12.3861084-24.7387695-13.0976562-39.4586182
	c0.1635132-18.8609619,4.6280518-36.795105,17.5393066-51.8376465c6.493042-7.5649414,14.4522705-13.0195923,24.706543-13.456665
	c15.303833-0.65271,24.3757324,8.7589722,30.3665771,21.1782837
	C483.5949707,100.3883057,477.1040039,137.4789429,456.5908203,158.2509766z"/>
</svg>
