<?xml version="1.0" encoding="utf-8"?>
<!-- Generator: Adobe Illustrator 21.1.0, SVG Export Plug-In . SVG Version: 6.00 Build 0)  -->
<svg version="1.1" id="Layer_1" xmlns="http://www.w3.org/2000/svg" xmlns:xlink="http://www.w3.org/1999/xlink" x="0px" y="0px"
	 viewBox="0 0 310.3979797 391.9220276" style="enable-background:new 0 0 310.3979797 391.9220276;" xml:space="preserve">
<style type="text/css">
	.st0{fill:url(#SVGID_1_);}
	.st1{fill:url(#SVGID_2_);}
	.st2{fill:#ffc400;}
	.st3{fill:url(#SVGID_3_);}
	.st4{fill:url(#SVGID_4_);}
	.st5{fill:url(#SVGID_5_);}
	.st6{fill:url(#SVGID_6_);}
</style>
<title>Asset 5</title>
<g id="Layer_2">
	<g id="Layer_1-2">
		
			<linearGradient id="SVGID_1_" gradientUnits="userSpaceOnUse" x1="155.1997986" y1="332.5589905" x2="155.1997986" y2="73.4355011">
			<stop  offset="0" style="stop-color:#ffc400"/>
			<stop  offset="0.0104697" style="stop-color:#71BE45"/>
			<stop  offset="0.3516008" style="stop-color:#ADCB2F"/>
			<stop  offset="0.6420007" style="stop-color:#D8D51E"/>
			<stop  offset="0.8672783" style="stop-color:#F3DB14"/>
			<stop  offset="1" style="stop-color:#ffc400"/>
		</linearGradient>
		<path class="st0" d="M221.2810059,100.0780029c-18.6871948-18.0540771-43.9612732-27.6537552-69.9220123-26.5580063
			c-50.3199997,2-91.3590012,44.5579987-91.5189972,94.9599991c-0.0683517,22.3625488,7.7507401,44.0330658,22.0820007,61.1999969
			c20.6244583,24.7538757,31.9443436,55.940155,32,88.1600037c0,0-2.1600037,14.7189941,8.3160019,14.7189941h65.9220047
			c10.7189941,0,8.3200073-14.7189941,8.3200073-14.7189941c0-31.3600159,11.5200043-62.3990021,33.3600006-89.7619934
			C260.4633789,189.6010895,256.7545166,134.1352081,221.2810059,100.0780029z M216.8010101,217.6799927
			c-23.7619934,29.7610016-36.4810028,63.6790161-36.9609985,98.2420044h-49.2810059
			c-0.5113678-35.4434814-13.1616287-69.6397552-35.8399963-96.8829956
			c-11.7821808-14.1784668-18.2096329-32.0450745-18.1600037-50.4799957c0.1600037-41.5979996,34-76.7190018,75.5189972-78.3990021
			c43.3786163-1.7858353,79.9916382,31.9317856,81.7774811,75.3104095
			c0.7775726,18.8876801-5.2770844,37.4230347-17.0544891,52.2095795H216.8010101z"/>
		
			<linearGradient id="SVGID_2_" gradientUnits="userSpaceOnUse" x1="248.9371948" y1="79.9454041" x2="248.9371948" y2="42.9801903">
			<stop  offset="0" style="stop-color:#ffc400"/>
			<stop  offset="0.0104697" style="stop-color:#71BE45"/>
			<stop  offset="0.3516008" style="stop-color:#ADCB2F"/>
			<stop  offset="0.6420007" style="stop-color:#D8D51E"/>
			<stop  offset="0.8672783" style="stop-color:#F3DB14"/>
			<stop  offset="1" style="stop-color:#ffc400"/>
		</linearGradient>
		<path class="st1" d="M264.9609985,45.4410019c-3.2015686-3.2479858-8.4299927-3.2856026-11.6779785-0.0840187
			c-0.0281982,0.0278053-0.0562134,0.0558128-0.0840149,0.0840187L232.8789978,65.762001
			c-3.2407074,3.2541656-3.2297974,8.5192947,0.0243683,11.7599945c3.2454071,3.231987,8.4933167,3.2310944,11.7376251-0.0019913
			l20.3200073-20.3209991c3.2468872-3.2045326,3.2812195-8.4344406,0.0766907-11.681324
			C265.0122986,45.4919548,264.9867249,45.4663963,264.9609985,45.4410019z"/>
		<path class="st2" d="M188.4799957,343.9219971h-66.5579987c-4.5941772-0.0082092-8.3251572,3.7094421-8.3333817,8.3036194
			c-0.0082169,4.5941772,3.7094345,8.3251648,8.3036118,8.333374c0.0099258,0.0000305,0.0198441,0.0000305,0.0297699,0h66.5579987
			c4.5941772,0.0082092,8.3251648-3.7094421,8.333374-8.3036194c0.0082245-4.5941772-3.7094269-8.3251648-8.3036041-8.333374
			C188.4998474,343.9219666,188.4899139,343.9219666,188.4799957,343.9219971z"/>
		<path class="st2" d="M175.9219971,375.2810059h-41.3629913c-4.5952759-0.0049744-8.3245239,3.716217-8.3294983,8.3114929
			c-0.0049667,4.5952759,3.716217,8.3245239,8.3114929,8.3294983c0.0059967,0,0.0120087,0,0.0180054,0h41.3629913
			c4.5952759-0.0049744,8.3164673-3.7342224,8.3114929-8.3294983
			C184.2285309,379.0042419,180.5102539,375.2859802,175.9219971,375.2810059z"/>
		
			<linearGradient id="SVGID_3_" gradientUnits="userSpaceOnUse" x1="155.1994019" y1="45.3592033" x2="155.1994019" y2="-0.0005035">
			<stop  offset="0" style="stop-color:#ffc400"/>
			<stop  offset="0.0104697" style="stop-color:#71BE45"/>
			<stop  offset="0.3516008" style="stop-color:#ADCB2F"/>
			<stop  offset="0.6420007" style="stop-color:#D8D51E"/>
			<stop  offset="0.8672783" style="stop-color:#F3DB14"/>
			<stop  offset="1" style="stop-color:#ffc400"/>
		</linearGradient>
		<path class="st3" d="M155.1990051,45.3590012c4.5904999,0.0050659,8.3159332-3.7121582,8.3209991-8.3026505
			c0-0.0057831,0-0.0115662,0-0.0173492V8.3199997c0-4.5952873-3.7252197-8.3205032-8.3205109-8.3205032
			c-4.5952759,0-8.3204956,3.7252162-8.3204956,8.3205032v28.7190018c-0.0319061,4.5631065,3.6413727,8.2880974,8.204483,8.3199997
			C155.1219788,45.359272,155.1604919,45.359272,155.1990051,45.3590012z"/>
		<linearGradient id="SVGID_4_" gradientUnits="userSpaceOnUse" x1="61.4927979" y1="80.0012741" x2="61.4927979" y2="43.0852776">
			<stop  offset="0" style="stop-color:#ffc400"/>
			<stop  offset="0.0104697" style="stop-color:#71BE45"/>
			<stop  offset="0.3516008" style="stop-color:#ADCB2F"/>
			<stop  offset="0.6420007" style="stop-color:#D8D51E"/>
			<stop  offset="0.8672783" style="stop-color:#F3DB14"/>
			<stop  offset="1" style="stop-color:#ffc400"/>
		</linearGradient>
		<path class="st4" d="M77.5199966,77.6020508c3.2479858-3.2015762,3.285614-8.4299774,0.0840378-11.6779633
			c-0.0278091-0.0282135-0.0558243-0.0562286-0.0840378-0.0840378L57.1990013,45.5200005
			c-3.2477112-3.2468834-8.5126152-3.246212-11.7594986,0.0014992c-3.2468796,3.2477112-3.246212,8.5126152,0.0014992,11.7594986
			l0,0L65.762001,77.6019974c3.2665558,3.1990356,8.4914474,3.1990356,11.7580032,0L77.5199966,77.6020508z"/>
		
			<linearGradient id="SVGID_5_" gradientUnits="userSpaceOnUse" x1="287.7185059" y1="163.5200043" x2="287.7185059" y2="146.8789978">
			<stop  offset="0" style="stop-color:#ffc400"/>
			<stop  offset="0.0104697" style="stop-color:#71BE45"/>
			<stop  offset="0.3516008" style="stop-color:#ADCB2F"/>
			<stop  offset="0.6420007" style="stop-color:#D8D51E"/>
			<stop  offset="0.8672783" style="stop-color:#F3DB14"/>
			<stop  offset="1" style="stop-color:#ffc400"/>
		</linearGradient>
		<path class="st5" d="M302.0780029,146.8789978h-28.7189941c-4.5952759,0-8.3204956,3.7252197-8.3204956,8.3204956
			c0,4.5952911,3.7252197,8.3205109,8.3204956,8.3205109h28.7189941c4.5952759,0,8.3204956-3.7252197,8.3204956-8.3205109
			C310.3984985,150.6042175,306.6732788,146.8789978,302.0780029,146.8789978z"/>
		
			<linearGradient id="SVGID_6_" gradientUnits="userSpaceOnUse" x1="22.6795006" y1="163.5200043" x2="22.6795006" y2="146.8789978">
			<stop  offset="0" style="stop-color:#ffc400"/>
			<stop  offset="0.0104697" style="stop-color:#71BE45"/>
			<stop  offset="0.3516008" style="stop-color:#ADCB2F"/>
			<stop  offset="0.6420007" style="stop-color:#D8D51E"/>
			<stop  offset="0.8672783" style="stop-color:#F3DB14"/>
			<stop  offset="1" style="stop-color:#ffc400"/>
		</linearGradient>
		<path class="st6" d="M37.0390015,146.8789978H8.3199997c-4.5952873,0-8.3205032,3.7252197-8.3205032,8.3204956
			c0,4.5952911,3.7252162,8.3205109,8.3205032,8.3205109h28.7190018c4.5952873,0,8.3205032-3.7252197,8.3205032-8.3205109
			C45.3595047,150.6042175,41.6342888,146.8789978,37.0390015,146.8789978z"/>
	</g>
</g>
</svg>
