<svg xmlns="http://www.w3.org/2000/svg" viewBox="0 0 310.39798 391.92203"><defs><style>.cls-1{fill:#ffc400;}</style></defs><title>Asset 3</title><g id="Layer_2" data-name="Layer 2"><g id="Layer_1-2" data-name="Layer 1"><path class="cls-1" d="M221.281,100.078A94.87518,94.87518,0,0,0,151.359,73.52c-50.32,2-91.359,44.558-91.519,94.96a95.04386,95.04386,0,0,0,22.082,61.2,138.09787,138.09787,0,0,1,32,88.16s-2.16,14.719,8.316,14.719H188.16c10.719,0,8.32-14.719,8.32-14.719,0-31.36,11.52-62.399,33.36-89.762a95.23155,95.23155,0,0,0-8.559-128Zm-4.48,117.602c-23.762,29.761-36.481,63.679-36.961,98.242H130.559a154.92528,154.92528,0,0,0-35.84-96.883,78.65221,78.65221,0,0,1-18.16-50.48c.16-41.598,34-76.719,75.519-78.399a78.61047,78.61047,0,0,1,64.723,127.52Zm0,0"/><path class="cls-1" d="M264.961,45.441a8.25779,8.25779,0,0,0-11.762,0l-20.32,20.321a8.31559,8.31559,0,0,0,11.762,11.758l20.32-20.321a8.26012,8.26012,0,0,0,0-11.758Zm0,0"/><path class="cls-1" d="M188.48,343.922H121.922a8.31851,8.31851,0,1,0,0,16.637H188.48a8.31851,8.31851,0,1,0,0-16.637Zm0,0"/><path class="cls-1" d="M175.922,375.281H134.559a8.3205,8.3205,0,1,0,0,16.641h41.363a8.3205,8.3205,0,0,0,0-16.641Zm0,0"/><path class="cls-1" d="M155.199,45.359a8.31183,8.31183,0,0,0,8.321-8.32V8.32a8.3205,8.3205,0,0,0-16.641,0V37.039a8.26244,8.26244,0,0,0,8.32,8.32Zm0,0"/><path class="cls-1" d="M77.52,77.60205a8.25778,8.25778,0,0,0,0-11.762L57.199,45.52A8.31522,8.31522,0,0,0,45.441,57.281l20.321,20.321a8.40236,8.40236,0,0,0,11.758,0Zm0,0"/><path class="cls-1" d="M302.078,146.879H273.359a8.3205,8.3205,0,0,0,0,16.641h28.719a8.3205,8.3205,0,0,0,0-16.641Zm0,0"/><path class="cls-1" d="M37.039,146.879H8.32a8.3205,8.3205,0,0,0,0,16.641H37.039a8.3205,8.3205,0,0,0,0-16.641Zm0,0"/></g></g></svg>