<svg xmlns="http://www.w3.org/2000/svg" xmlns:xlink="http://www.w3.org/1999/xlink" viewBox="0 0 310.399 391.9225"><defs><style>.cls-1{fill:url(#linear-gradient);}.cls-2{fill:url(#linear-gradient-2);}.cls-3{fill:#ffc400;}.cls-4{fill:url(#linear-gradient-3);}.cls-5{fill:url(#linear-gradient-4);}.cls-6{fill:url(#linear-gradient-5);}.cls-7{fill:url(#linear-gradient-6);}</style><linearGradient id="linear-gradient" x1="155.2003" y1="332.55949" x2="155.2003" y2="73.436" gradientUnits="userSpaceOnUse"><stop offset="0" stop-color="#ffc400"/><stop offset="0.01047" stop-color="#71be45"/><stop offset="0.3516" stop-color="#adcb2f"/><stop offset="0.642" stop-color="#d8d51e"/><stop offset="0.86728" stop-color="#f3db14"/><stop offset="1" stop-color="#ffc400"/></linearGradient><linearGradient id="linear-gradient-2" x1="248.9377" y1="79.94591" x2="248.9377" y2="42.98069" xlink:href="#linear-gradient"/><linearGradient id="linear-gradient-3" x1="155.1999" y1="45.35971" x2="155.1999" y2="0" xlink:href="#linear-gradient"/><linearGradient id="linear-gradient-4" x1="61.4933" y1="80.00178" x2="61.4933" y2="43.08578" xlink:href="#linear-gradient"/><linearGradient id="linear-gradient-5" x1="287.71901" y1="163.52051" x2="287.71901" y2="146.8795" xlink:href="#linear-gradient"/><linearGradient id="linear-gradient-6" x1="22.68" y1="163.52051" x2="22.68" y2="146.8795" xlink:href="#linear-gradient"/></defs><title>Asset 1</title><g id="Layer_2" data-name="Layer 2"><g id="Layer_1-2" data-name="Layer 1"><g id="Layer_2-2" data-name="Layer 2"><g id="Layer_1-2-2" data-name="Layer 1-2"><path class="cls-1" d="M221.28151,100.07851a94.8752,94.8752,0,0,0-69.922-26.558c-50.32,2-91.359,44.558-91.519,94.96a95.04386,95.04386,0,0,0,22.082,61.2,138.09787,138.09787,0,0,1,32,88.16s-2.16,14.719,8.316,14.719h65.922c10.719,0,8.32-14.719,8.32-14.719,0-31.36,11.52-62.399,33.36-89.762A95.23155,95.23155,0,0,0,221.28151,100.07851Zm-4.48,117.602c-23.762,29.761-36.481,63.679-36.961,98.242h-49.281a154.92531,154.92531,0,0,0-35.84-96.883,78.65219,78.65219,0,0,1-18.16-50.48c.16-41.598,34-76.719,75.519-78.399a78.61047,78.61047,0,0,1,64.723,127.52Z"/><path class="cls-2" d="M264.9615,45.44151a8.25779,8.25779,0,0,0-11.678-.084q-.0423.04171-.084.084l-20.32,20.321a8.31559,8.31559,0,0,0,11.762,11.758l20.32-20.321a8.26012,8.26012,0,0,0,.07669-11.68132Q265.00011,45.4796,264.9615,45.44151Z"/><path class="cls-3" d="M188.4805,343.9225h-66.558a8.31851,8.31851,0,0,0-.02977,16.637q.01489,0,.02977,0h66.558a8.31851,8.31851,0,0,0,.02977-16.637Q188.49539,343.92245,188.4805,343.9225Z"/><path class="cls-3" d="M175.9225,375.28151h-41.363a8.3205,8.3205,0,1,0-.018,16.641h41.381a8.3205,8.3205,0,0,0,0-16.641Z"/><path class="cls-4" d="M155.19951,45.3595a8.31183,8.31183,0,0,0,8.321-8.30265V8.3205a8.3205,8.3205,0,0,0-16.641,0v28.719a8.26244,8.26244,0,0,0,8.20448,8.32Q155.14173,45.35991,155.19951,45.3595Z"/><path class="cls-5" d="M77.5205,77.60255a8.25778,8.25778,0,0,0,.084-11.678q-.04171-.04232-.084-.084l-20.321-20.32a8.31522,8.31522,0,0,0-11.758,11.761h0l20.321,20.321a8.40236,8.40236,0,0,0,11.758,0Z"/><path class="cls-6" d="M302.07851,146.8795h-28.719a8.3205,8.3205,0,0,0,0,16.641h28.719a8.3205,8.3205,0,0,0,0-16.641Z"/><path class="cls-7" d="M37.03951,146.8795H8.3205a8.3205,8.3205,0,0,0,0,16.641h28.719a8.3205,8.3205,0,0,0,0-16.641Z"/></g></g></g></g></svg>