<svg xmlns="http://www.w3.org/2000/svg" viewBox="0 0 61.27087 60"><defs><style>.cls-1{fill:#231f20;}</style></defs><title>100s</title><g id="Layer_2" data-name="Layer 2"><g id="Layer_1-2" data-name="Layer 1"><path class="cls-1" d="M18.15765,26.98163a33.95977,33.95977,0,0,1,.994-6.37354l-8.42822-4.95477v2.285Z"/><path class="cls-1" d="M10.72339,31.10309l7.38861.75983c-.03223-.75709-.04614-1.47486-.04614-2.12977,0-.502.0108-1.038.032-1.5946l-7.37451.75861Z"/><path class="cls-1" d="M42.13965,21.4068a19.49562,19.49562,0,0,1,1.938-5.21655L36.94891,20.3811a34.24405,34.24405,0,0,1,1.004,6.11859Z"/><path class="cls-1" d="M29.92767,11.7738,27.85718,0,25.7533,11.96381a8.201,8.201,0,0,1,2.483-.37329A7.8917,7.8917,0,0,1,29.92767,11.7738Z"/><path class="cls-1" d="M38.08441,29.8399c0,.61518-.0119,1.27936-.04077,1.97767l3.24011-.33319c-.02154-.6175-.03143-1.20667-.03143-1.75123,0-.38842.006-.7965.01837-1.21868l-3.22009-.33124C38.0733,28.76672,38.08441,29.32422,38.08441,29.8399Z"/><polygon class="cls-1" points="0 30 3.873 30.399 3.873 29.602 0 30"/><path class="cls-1" d="M10.72339,42.06165v2.285L19.13611,39.401a36.0539,36.0539,0,0,1-.96253-6.402Z"/><path class="cls-1" d="M28.02283,17.9068c-3.10694,0-3.15918,8.24005-3.15918,10.38184v3.7453c0,2.08721.16119,9.848,3.15918,9.848,3.15484,0,3.21148-7.97431,3.21148-10.116V28.55658C31.23431,26.36041,31.23431,17.9068,28.02283,17.9068Z"/><path class="cls-1" d="M25.76672,48.11261,27.85718,60l2.079-11.822a8.42521,8.42521,0,0,1-1.97.23157A7.98738,7.98738,0,0,1,25.76672,48.11261Z"/><polygon class="cls-1" points="54.421 30.133 54.421 29.867 48.05 29.212 48.05 30.789 54.421 30.133"/><path class="cls-1" d="M37.94281,33.488a34.02131,34.02131,0,0,1-1.00275,6.12567l7.01764,4.12555a19.95331,19.95331,0,0,1-1.83215-5.16321Z"/><polygon class="cls-1" points="10.723 17.938 7.088 13.516 10.723 15.653 10.723 12.127 0.448 12.127 0.448 18.334 3.873 18.334 3.873 29.602 10.723 28.897 10.723 17.938"/><polygon class="cls-1" points="10.723 42.062 10.723 31.103 3.873 30.399 3.873 47.821 10.723 47.821 10.723 44.347 7.088 46.484 10.723 42.062"/><path class="cls-1" d="M36.68445,28.04266l1.36615.14057c-.021-.5398-.05225-1.102-.09772-1.68354Z"/><path class="cls-1" d="M36.68445,31.95734l1.25836,1.5307c.04474-.57215.07861-1.13227.10083-1.67047Z"/><path class="cls-1" d="M25.7533,11.96381c-3.57746,1.12664-5.55378,4.69567-6.60169,8.64428L23.757,23.31555Z"/><path class="cls-1" d="M19.13611,39.401c1.02862,4.03851,2.98736,7.67413,6.63061,8.71161L23.757,36.68445Z"/><path class="cls-1" d="M36.94891,20.3811c-1.10186-4.10156-3.193-7.77258-7.02124-8.6073l2.02967,11.54175Z"/><path class="cls-1" d="M19.02991,31.95734l-.91791-.09442q.02362.55481.06158,1.1361Z"/><path class="cls-1" d="M29.93616,48.178c3.831-.915,5.90912-4.50781,7.0039-8.56427l-4.98272-2.92926Z"/><path class="cls-1" d="M19.02991,28.04266l-.87226-1.061q-.03909.59289-.05975,1.15692Z"/><path class="cls-1" d="M51.42279,11.59052c-3.47931,0-5.80615,1.90417-7.34509,4.59973l4.54883-2.6742L42.13965,21.4068a36.86979,36.86979,0,0,0-.869,7.10767l6.77936.69738v-.92321c0-2.14179.05231-10.38184,3.15924-10.38184,3.21149,0,3.21149,8.45361,3.21149,10.64978v1.31067l1.29358.13306-1.29358.13305v1.63257c0,2.14172-.05664,10.116-3.21149,10.116-2.998,0-3.15924-7.76081-3.15924-9.848V30.78851l-6.7663.69587a39.78347,39.78347,0,0,0,.8418,7.09167l6.501,7.9079L43.9577,43.73926c1.48548,2.73358,3.75226,4.67029,7.19495,4.67029,8.78046,0,10.11822-12.03992,10.11822-18.56965C61.27087,23.57812,59.82416,11.59052,51.42279,11.59052Z"/></g></g></svg>