<svg xmlns="http://www.w3.org/2000/svg" viewBox="0 0 42.71 53.15314"><title>1stGen</title><g id="Layer_2" data-name="Layer 2"><g id="Layer_1-2" data-name="Layer 1"><path d="M4.95214,53.15314V10.51823H0V1.54241H14.85643V53.15314Z"/><path d="M34.00479,8.23909a3.9687,3.9687,0,0,0-2.43688-.851A1.99061,1.99061,0,0,0,29.51782,9.322c0,2.82366,5.338,3.13346,5.338,8.04593a4.73159,4.73159,0,0,1-4.9512,5.10563,4.63188,4.63188,0,0,1-2.82365-.81229V18.567a4.16467,4.16467,0,0,0,2.6305,1.04417,2.00377,2.00377,0,0,0,2.205-2.1658c0-3.13346-5.41543-3.48151-5.41543-8.20083A4.46708,4.46708,0,0,1,31.1424,4.52569a5.63489,5.63489,0,0,1,2.86239.73484Z"/><path d="M40.96924,7.38807V22.203H37.79753V7.38807H36.018V4.91247h1.77949V0h3.17171V4.91247H42.71v2.4756Z"/></g></g></svg>