<svg xmlns="http://www.w3.org/2000/svg" viewBox="0 0 56.24976 59.14898"><title>2ndGen</title><g id="Layer_2" data-name="Layer 2"><g id="Layer_1-2" data-name="Layer 1"><path d="M.774,25.48989c-.07745-.92846-.1549-1.85693-.1549-2.7854,0-9.67241,2.86285-15.9398,13.54118-15.9398,8.51158,0,13.85051,4.333,13.85051,13.15392,0,6.19042-2.631,10.60088-5.41638,15.93981L15.08879,50.25061H27.08236V59.149H0L11.99358,37.09669C14.46965,32.53133,18.261,25.6448,18.261,20.38285c0-2.55353-.69611-6.49975-4.0232-6.49975-3.94623,0-4.17858,5.64873-4.17858,8.43413,0,1.08337,0,2.08929.07745,3.17266Z"/><path d="M39.57654,28.19879V16.98114c-.03873-1.66331-.07745-3.5585-1.85694-3.5585-2.01136,0-2.01136,2.12755-2.01136,3.59723V28.19879H32.53652V10.90832h3.17172v2.01136c.88974-1.43142,1.77948-2.282,3.55849-2.282,2.97856,0,3.48152,2.35942,3.48152,4.7963V28.19879Z"/><path d="M53.03885,28.19879v-2.205c-.65739,1.47015-1.39223,2.4756-3.17171,2.4756-4.10019,0-4.13891-6.266-4.13891-9.12884,0-2.93936.07745-8.70285,4.21636-8.70285,1.62458,0,2.39815.85055,3.09426,2.24325V0h3.21091V28.19879Zm.11618-9.55434c0-1.354-.07745-5.10563-2.05009-5.10563-2.01137,0-2.08882,3.44232-2.08882,4.835v2.35943c0,1.3927.07745,4.87374,2.08882,4.87374,1.97264,0,2.05009-3.75212,2.05009-5.10562Z"/></g></g></svg>