<svg xmlns="http://www.w3.org/2000/svg" viewBox="0 0 51.99421 60"><title>3rdGen</title><g id="Layer_2" data-name="Layer 2"><g id="Layer_1-2" data-name="Layer 1"><path d="M2.16674,21.54367a20.79264,20.79264,0,0,1,1.3927-8.74347C5.49383,8.46672,9.74986,6.76469,14.31475,6.76469c8.27923,0,12.999,5.26147,12.999,13.38628,0,5.26147-1.23733,9.98174-6.42182,12.30291,5.88061,1.85693,7.9699,6.49974,7.9699,12.37988C28.86185,54.19684,23.05869,60,13.69608,60,4.64281,60,0,54.42919,0,45.60827H9.595c0,.46377-.07745,1.00592-.07745,1.46968,0,2.47655,1.16082,4.8747,3.94622,4.8747,4.0232,0,4.333-5.10705,4.333-8.04735,0-6.035-1.77949-7.42775-7.73755-7.42775V27.81106c5.33845,0,7.89245-.92846,7.89245-6.80908,0-2.32117-.54216-5.80316-3.55991-5.80316-3.32662,0-3.40407,4.48791-3.40407,6.88653H2.16674Z"/><path d="M39.92412,13.84815a2.922,2.922,0,0,0-.57994-.03872c-2.6305,0-3.17171,1.58585-3.17171,3.90655V28.19879H33.00076V10.90832h3.17171v2.16627c.96719-1.62459,1.81821-2.43688,3.75165-2.55305Z"/><path d="M48.78282,28.19879v-2.205c-.65739,1.47015-1.39223,2.4756-3.17171,2.4756-4.10018,0-4.13891-6.266-4.13891-9.12884,0-2.93936.07745-8.70285,4.21636-8.70285,1.62458,0,2.39815.85055,3.09426,2.24325V0h3.21139V28.19879Zm.11618-9.55434c0-1.354-.07745-5.10563-2.04962-5.10563-2.01184,0-2.08929,3.44232-2.08929,4.835v2.35943c0,1.3927.07745,4.87374,2.08929,4.87374,1.97217,0,2.04962-3.75212,2.04962-5.10562Z"/></g></g></svg>