<svg xmlns="http://www.w3.org/2000/svg" viewBox="0 0 50.83433 59.14898"><title>4thGen</title><g id="Layer_2" data-name="Layer 2"><g id="Layer_1-2" data-name="Layer 1"><path d="M24.83817,47.0005V59.149H14.93388V47.0005H0V39.03107L13.69656,7.53825H24.83817V38.17959h4.17858V47.0005Zm-9.90429-27.701L7.35124,38.17959h7.58264Z"/><path d="M36.63623,13.38392V28.19879H33.46452V13.38392H31.685v-2.4756h1.77949V5.99584h3.17171v4.91248H38.377v2.4756Z"/><path d="M47.66262,28.19879v-11.527c-.03873-1.354-.07746-3.24917-1.85694-3.24917-2.01184,0-2.01184,2.12755-2.01184,3.59723V28.19879H40.62213V0h3.17171V12.91968c.88974-1.43142,1.77949-2.282,3.559-2.282,2.97809,0,3.48152,2.35942,3.48152,4.7963V28.19879Z"/></g></g></svg>