<svg xmlns="http://www.w3.org/2000/svg" viewBox="0 0 49.75096 60"><title>5th</title><g id="Layer_2" data-name="Layer 2"><g id="Layer_1-2" data-name="Layer 1"><path d="M11.45236,24.79331a21.57952,21.57952,0,0,1,7.27285,1.625c6.113,2.78541,8.20225,9.13072,8.20225,15.39765C26.92746,52.80366,21.35665,60,9.90429,60A23.06829,23.06829,0,0,1,0,57.60185l1.703-8.89837a10.16647,10.16647,0,0,0,6.34437,2.4756c5.41685,0,7.9699-4.56489,7.9699-9.43958,0-6.42277-4.33253-9.13072-10.2906-9.13072a23.58287,23.58287,0,0,0-4.02367.38678L5.72665,7.53825H25.45778v8.82092H12.84459Z"/><path d="M35.55381,13.38392V28.19879H32.38209V13.38392H30.60261v-2.4756h1.77948V5.99584h3.17172v4.91248h1.74076v2.4756Z"/><path d="M46.57925,28.19879v-11.527c-.03873-1.354-.07746-3.24917-1.85694-3.24917-2.01089,0-2.01089,2.12755-2.01089,3.59723V28.19879H39.5397V0h3.17172V12.91968c.88974-1.43142,1.77948-2.282,3.558-2.282,2.979,0,3.48152,2.35942,3.48152,4.7963V28.19879Z"/></g></g></svg>