<svg xmlns="http://www.w3.org/2000/svg" viewBox="0 0 50.60198 60"><title>6thGen</title><g id="Layer_2" data-name="Layer 2"><g id="Layer_1-2" data-name="Layer 1"><path d="M11.60727,27.88851a9.16481,9.16481,0,0,1,6.42182-2.86285c8.04735,0,10.523,9.595,10.523,16.01725C28.552,50.01826,24.91562,60,14.39267,60,3.86877,60,0,51.02418,0,41.816,0,29.43612,6.34532,18.371,11.60727,7.53825h9.74938Zm2.9403,6.19042c-3.71481,0-4.48838,6.035-4.48838,8.82045,0,2.39909.851,8.2797,4.10113,8.2797,3.94622,0,4.41-6.19041,4.41-9.05327C18.5703,39.64974,17.95164,34.07893,14.54757,34.07893Z"/><path d="M36.40482,13.38392V28.19879H33.23311V13.38392H31.45362v-2.4756h1.77949V5.99584h3.17171v4.91248h1.74076v2.4756Z"/><path d="M47.43026,28.19879v-11.527c-.03872-1.354-.07745-3.24917-1.85693-3.24917-2.0109,0-2.0109,2.12755-2.0109,3.59723V28.19879H40.39072V0h3.17171V12.91968c.88975-1.43142,1.77949-2.282,3.558-2.282,2.979,0,3.48152,2.35942,3.48152,4.7963V28.19879Z"/></g></g></svg>