<svg xmlns="http://www.w3.org/2000/svg" viewBox="0 0 57.33325 60"><title>aerialSpray</title><g id="Layer_2" data-name="Layer 2"><g id="Layer_1-2" data-name="Layer 1"><path d="M32.56018,28.54773c2.27832-1.74506,3.42352-5.16138,1.74072-7.54547-1.895-2.68463-1.65863-5.45233-1.68585-8.32184-.02673-2.81946.02857-5.64026-.03491-8.45862A3.91768,3.91768,0,0,0,28.71735,0c-2.65674.25012-3.89014,1.88293-3.96918,4.41882-.09094,2.91773-.02667,5.84009-.03839,8.76044-.01081,2.67981.15381,5.24677-1.617,7.73517-1.63092,2.29169-.524,5.86072,1.66571,7.59173A6.12854,6.12854,0,0,0,32.56018,28.54773Z"/><path d="M27.28741,35.11255c-1.45813-.44428-2.7547-.8393-4.13366-1.2594-.73072,1.799-1.3667,3.36487-2.25159,5.5437,2.30023.58283,4.23853,1.07391,6.38525,1.6178Z"/><path d="M26.39594,44.52106c-1.73914-1.29932-4.43873-1.31311-6.87244-1.90851l-2.15619,5.52679c3.52606.86225,6.56879,1.60633,10.55072,2.58C27.34991,48.08588,27.5567,45.38824,26.39594,44.52106Z"/><path d="M15.8595,46.44806c.26953-1.99,1.33453-4.3587.612-5.8764-.95429-2.00446-3.30976-3.34186-5.37055-5.251-1.22442,1.29974-2.44708,2.59759-4.102,4.35431,2.68549,2.43457,5.21564,4.72821,7.74573,7.02191Q15.30206,46.57241,15.8595,46.44806Z"/><path d="M18.19525,28.94873c-1.34411,1.27741-2.68536,2.55206-4.30212,4.08856,1.64032,1.71887,3.10345,3.252,4.65039,4.873C21.64282,32.69971,21.64282,32.69971,18.19525,28.94873Z"/><path d="M0,46.22375c3.98322,3.30921,7.59021,6.30585,11.47882,9.5365a38.96669,38.96669,0,0,0,1.91034-4.37274,2.42153,2.42153,0,0,0-.33691-2.06323c-2.76618-2.42535-5.65241-4.71387-8.60608-7.13416C3.21075,43.31091,1.85046,44.54492,0,46.22375Z"/><path d="M27.20886,54.00873c-3.85705-.94257-7.41449-1.81189-11.157-2.7265-.38635.8985-.79779,1.78955-1.153,2.70239-.2807.72131-.49243,1.46954-.96759,2.91315C18.4209,57.94672,22.67834,58.94147,27.20886,60Z"/><path d="M41.38269,51.6203c-.08136-.1568-.3045-.24-.33539-.26312-3.66394.89337-7.22613,1.7619-10.87921,2.65252v5.8075c2.96954-.55975,5.63013-.92981,8.2215-1.5769C43.90125,56.86389,43.97382,56.61456,41.38269,51.6203Z"/><path d="M43.54224,50.235c.60424,1.5205,1.258,3.16577,2.28143,5.741,4.121-3.53662,7.701-6.60894,11.50958-9.87744C55.416,44.32324,54.11664,43.12,52.94073,42.03113,49.71863,44.84363,46.71277,47.46741,43.54224,50.235Z"/><path d="M36.47412,39.34967c-.92383-2.14337-1.64905-3.82587-2.35931-5.47369-4.79749,1.48217-4.81055,1.50628-3.799,7.15838C32.2804,40.497,34.20355,39.97083,36.47412,39.34967Z"/><path d="M42.55756,46.8075c2.62963-2.41425,5.18359-4.759,7.885-7.23914-1.78913-1.69415-3.07752-2.914-4.44941-4.213-1.08654,1.17047-1.991,2.22369-2.9776,3.19336C39.56189,41.94293,39.53241,42.11615,42.55756,46.8075Z"/><path d="M37.68408,42.587l-7.62024,2.04528V50.634c3.52631-.89825,6.55536-1.6698,10.00019-2.5473C39.10529,45.87109,38.38336,44.20288,37.68408,42.587Z"/><path d="M39.1579,29.06879c-3.421,3.49572-3.43372,3.72-.31446,8.91839,1.57929-1.70892,3.06244-3.3139,4.63562-5.01617-1.31036-1.24848-2.24-2.15332-3.19335-3.03253C39.934,29.614,39.52649,29.35,39.1579,29.06879Z"/></g></g></svg>