<svg xmlns="http://www.w3.org/2000/svg" viewBox="0 0 57.80624 56.03731"><title>Avian</title><g id="Layer_2" data-name="Layer 2"><g id="Layer_1-2" data-name="Layer 1"><path d="M57.80221,10.926c.12285-2.16578-2.6-3.08288-3.19144-4.54293a8.87885,8.87885,0,0,0,.73721-3.8514c-.11143-.77995-1.89723,1.02573-2.2086.66005-.35714-.41434.24571-2.2229-.41434-3.14863-.33421-.46858-1.10561,3.03719-1.68562,3.29136-.41155.19148-1.14859-.79136-1.88572-2.16282C47.92506-1.07407,48.608,3.74875,48.7193,4.663a7.52947,7.52947,0,0,0-6.15993,5.42577c-1.00568,3.04574-3.79717,9.8543-8.94,10.17709-6.18286.39149-13.07146-5.39133-16.31714-8.717-1.73139-1.77429-3.00293-6.85145-6.02862-6.46-1.37137.17717-2.4428,2.10859-4.05142,2.52005,0,0-8.22571,2.03143-7.11993,4.24282.65988,1.30571,4.25136,3.01435,6.99707,4.16286a.24612.24612,0,0,1,.1457.31145.2581.2581,0,0,1-.28852.18c-2.35709-.41426-4.7-.50285-2.35709,1.50573a33.00023,33.00023,0,0,0,4.77705,2.46565.26386.26386,0,0,1,.1457.32584.25652.25652,0,0,1-.3.16558c-1.65431-.39987-3.14863-.57992-3.06.14579.2029,1.61717,6.46293,6.38288,6.46293,6.38288-.79145.97142,2.43425,4.46568,2.94573,4.91141-.73722-.24571-1.54.03427-.49142.98284,1.55134,1.40573,1.89706,3.66,3.21428,4.97716,3.88568,3.86291,9.7114.94857,12.71424,7.46573.15424.33709.83714,1.70855,1.42857,2.90283a1.36288,1.36288,0,0,1,0,1.13709,1.315,1.315,0,0,1-.89425.6944l-3.88289.80279a1.14064,1.14064,0,0,0,.33422,2.25429l3.84-.35714a.31145.31145,0,0,1,.31154.16854.32.32,0,0,1-.03435.35714l-.31137.36569a1.1474,1.1474,0,0,0,.1457,1.60863,1.14347,1.14347,0,0,0,1.61708-.14579l1.60863-1.95138a1.29239,1.29239,0,0,1,1.26-.4371l5.65709,1.21713a1.142,1.142,0,0,0,.60285-2.20006l-5.1-1.70558a1.29418,1.29418,0,0,1-.86853-1.04859c-.12285-.91718-.28006-2.05435-.39149-2.93718a1.20215,1.20215,0,0,1,.84865-1.31714c2.59992-.78,3.98289-3.94008,5.66851-6.07143a5.23008,5.23008,0,0,1,3.08-1.90857c6.68571-1.36,8.96284-8.3143,9.66571-15.65717.41434-4.34292-1.62851-6.1057-2.69994-9.33141,1.34853-.4,2.83421-2.43146,4.90854-1.34853ZM50.43657,8.51447a.90428.90428,0,1,1,.90568-.90568.90183.90183,0,0,1-.90568.90568Z"/></g></g></svg>