<svg xmlns="http://www.w3.org/2000/svg" viewBox="0 0 52.70962 60"><title>beetle</title><g id="Layer_2" data-name="Layer 2"><g id="Layer_1-2" data-name="Layer 1"><path d="M.07292,35.15344a13.20236,13.20236,0,0,0-.021,2.44293l.57373.17652c.41785-2.96747.96423-5.88379,3.58228-7.67261a12.79247,12.79247,0,0,1,8.24926-1.8916c0,1.80456-.10449,3.403.02784,4.98163.14794,1.76654-.18311,3.01941-1.93067,3.97412a11.93988,11.93988,0,0,0-3.16968,3.0683A33.556,33.556,0,0,0,1.58341,51.40344a5.66331,5.66331,0,0,0-.14038.8526l.43213.19208a12.81386,12.81386,0,0,0,.8031-1.48981c1.51209-3.93261,3.37049-7.64624,6.73035-10.3609a30.73184,30.73184,0,0,1,3.10486-1.92529c0,3.44568-.07825,6.41077.0155,9.37042.23071,7.27912,5.24463,11.91852,12.67749,11.64008,0-.52356.00012-1.05866,0-1.59381-.00183-8.45856-.03174-16.9173.03076-25.37543.00757-1.02832-.75122-2.89453,1.11035-2.85364,1.81446.03986,1.02979,1.88867,1.038,2.92554.06555,8.40307.03357,16.80694.03723,25.21063.00024.5769.04761,1.15387.0852,2.00409,1.90821-.46759,3.62525-.79077,5.27918-1.31335a9.45328,9.45328,0,0,0,6.92273-7.61908,29.81162,29.81162,0,0,0,.41186-4.74567c.06592-2.39868.01722-4.80054.01722-7.20105l.45031-.38068a42.99127,42.99127,0,0,1,4.12232,3.26545c2.56714,2.572,4.05554,5.82342,5.32727,9.18054a6.98367,6.98367,0,0,0,.78918,1.23517q.26257-.14173.525-.28339c-.64258-1.64887-1.20471-3.33478-1.94324-4.93945-2.01611-4.38056-4.428-8.46411-8.735-11.06043a1.64006,1.64006,0,0,1-.48962-1.21161c-.04785-2.18768-.02246-4.37689-.02246-6.5838,6.46008-.7937,11.32544,2.38886,11.6062,8.33777.016.33887.354.66248.542.99323.34888-.36231.4054-.574.39807-.78333-.29419-8.38971-7.324-11.85376-14.1217-11.54285-5.9624.27277-11.92871.52021-17.89587.6037-3.43445.048-6.90345-.6026-10.3042-.31531C4.85246,26.10352,1.09818,29.8017.07292,35.15344Z"/><path d="M6.59171,14.1474A38.27346,38.27346,0,0,1,5.48661,9.373a12.61461,12.61461,0,0,0-.47973-1.35767A11.57915,11.57915,0,0,0,7.84477,17.964a8.84483,8.84483,0,0,0,2.60217,1.66583c.87183.3631,1.46216.71106,1.57935,1.74884.19775,1.74951,1.35778,2.421,3.012,2.27411a29.99041,29.99041,0,0,1,4.89465-.51617,79.76514,79.76514,0,0,0,12.7887.00274c1.60693-.12841,3.25708.38971,4.89526.50641,1.26819.0904,2.54541-.15338,2.80591-1.66235.23975-1.38947,1.02393-1.92944,2.20679-2.6023A8.92795,8.92795,0,0,0,46.268,15.79358c.9906-2.12793,1.27686-4.58624,1.82862-6.91187.05749-.24194-.11988-.53955-.18836-.81134l-.42724-.167c-.86756,4.52179-.95642,9.61536-7.40784,10.39142.51-5.17755-3.69348-8.36884-5.03711-12.76544C38.15421,4.42572,39.68009,2.69464,39.38053,0c-.41272.90674-.61743,1.40369-.86,1.88141-.9115,1.79492-3.30091,3.043-4.55066,2.47381A27.07,27.07,0,0,0,29.62431,2.6109a14.04424,14.04424,0,0,0-10.35,1.28156c-1.17285.62884-2.13086.75659-2.98047.08563a19.644,19.644,0,0,1-2.51135-2.88745c-.18323-.21637-.38171-.42-.57312-.62946.20532,2.87061,1.88635,4.358,4.40137,5.05188-1.479,4.46045-5.50562,7.66437-5.10474,12.728C9.46024,18.06287,7.53886,16.66174,6.59171,14.1474Z"/></g></g></svg>