<svg xmlns="http://www.w3.org/2000/svg" viewBox="0 0 35.02795 60"><title>cub1</title><g id="Layer_2" data-name="Layer 2"><g id="Layer_1-2" data-name="Layer 1"><polygon points="9.659 15.993 17.494 20.608 25.354 15.978 17.519 11.363 9.659 15.993"/><path d="M10.97174,60H24.05615a2.37665,2.37665,0,0,0,2.37665-2.37665v-8.547a2.37664,2.37664,0,0,0-2.37665-2.37664H10.97174a2.37668,2.37668,0,0,0-2.37665,2.37664v8.547A2.37669,2.37669,0,0,0,10.97174,60Zm13.48212-4.16168a2.97953,2.97953,0,0,1-2.97077,2.97082H17.62543a1.14459,1.14459,0,1,1,0-2.28918v-.06891h2.306a1.72789,1.72789,0,0,0,1.72284-1.72284v-.33337a1.76162,1.76162,0,0,0,2.79962.01049Zm-2.97077-7.997a2.97956,2.97956,0,0,1,2.97083,2.97076v2.48847h-.00128l.00128.02466a1.39569,1.39569,0,0,1-2.79138,0l.00122-.02466h-.00952V51.92218A1.72788,1.72788,0,0,0,19.9314,50.1994H18.53162a1.51139,1.51139,0,0,0,.08477-2.35809ZM10.797,50.81207a2.9795,2.9795,0,0,1,2.97076-2.97076h3.85767a1.14456,1.14456,0,1,1,0,2.28912v.069h-2.306a1.72783,1.72783,0,0,0-1.72278,1.72278v.33337a1.76168,1.76168,0,0,0-2.79968-.01049Zm0,2.53778h.00122L10.797,53.3252a1.39569,1.39569,0,1,1,2.79138,0l-.00128.02465h.00958v1.37836a1.72788,1.72788,0,0,0,1.72278,1.72284h1.39978a1.5114,1.5114,0,0,0-.08478,2.35809h-2.8667A2.97952,2.97952,0,0,1,10.797,55.83832Z"/><path d="M8.33411,16.606l.58538.345v-.92621a.29837.29837,0,0,1,.02485-.11731.17989.17989,0,0,1,.01587-.04517.19748.19748,0,0,1,.02825-.03039l.00208-.002a.21156.21156,0,0,1,.05176-.04041.21425.21425,0,0,1,.04626-.02307l7.14673-4.20972v-.86139L8.33411,15.34967Z"/><polygon points="25.632 16.377 17.73 21.031 17.73 30.201 25.632 25.639 25.632 16.377"/><path d="M.263,21.67419l7.8346,4.615.84521-.4981a.24446.24446,0,0,1-.02246-.11695l-.001-.00482V17.51349l-.7962-.46918Z"/><polygon points="16.235 30.153 9.365 26.105 8.334 26.713 8.334 35.882 16.235 31.32 16.235 30.153"/><path d="M18.33936,31.32727a.24158.24158,0,0,1-.02277-.11725l-.001-.00488v-.93726l-.67615.39051-.011.00378a.22622.22622,0,0,1-.05139.01862.2811.2811,0,0,1-.05347.01416l-.01209.00348a.17177.17177,0,0,1-.01965.00445c-.0069,0-.01282-.00415-.01971-.00482l-.01587-.00348a.271.271,0,0,1-.04413-.01031l-.00965-.00245-.00451-.00134a.31638.31638,0,0,1-.05347-.02l-.632-.37256v.91724a.29888.29888,0,0,1-.009.05.23621.23621,0,0,1-.00452.10174l.7948.46814Z"/><path d="M26.6496,16.63849V15.34723l-7.85706-4.62811v.83142l7.16467,4.22a.23979.23979,0,0,1,.0904.07556l.00171.00311a.27152.27152,0,0,1,.04174.07624.23992.23992,0,0,1,.01246.071.27287.27287,0,0,1,.00518.02832v.93243Z"/><polygon points="9.396 35.819 9.396 36.934 17.253 41.562 17.253 32.392 16.303 31.832 9.396 35.819"/><polygon points="25.632 35.834 18.761 31.787 17.73 32.394 17.73 41.563 25.632 37.002 25.632 35.834"/><polygon points="17.253 21.029 9.396 16.401 9.396 25.571 17.253 30.199 17.253 21.029"/><polygon points="0 19.889 1.169 20.578 7.857 16.638 7.857 15.347 0 10.719 0 19.889"/><path d="M9.3963,5.86908l7.16474,4.22a.24225.24225,0,0,1,.09033.07526l.00177.00341a.273.273,0,0,1,.04168.07624.24.24,0,0,1,.01246.071.27287.27287,0,0,1,.00518.02832v.93244l.5409-.31873V9.66577L9.3963,5.03766Z"/><polygon points="9.659 4.63 17.494 9.245 25.354 4.615 17.519 0 9.659 4.63"/><path d="M17.73047,10.92462l.58508.34461v-.92585a.30008.30008,0,0,1,.02515-.11767.17883.17883,0,0,1,.01587-.04486.19817.19817,0,0,1,.02832-.0307l.00171-.002a.21765.21765,0,0,1,.05206-.04.21448.21448,0,0,1,.04626-.02313l7.14673-4.20965V5.01392l-7.90118,4.654Z"/><polygon points="0 31.252 7.857 35.88 7.857 26.71 0 22.082 0 31.252"/><polygon points="0.263 10.311 8.098 14.926 15.957 10.296 8.123 5.682 0.263 10.311"/><polygon points="19.056 10.311 26.89 14.926 34.75 10.296 26.916 5.682 19.056 10.311"/><polygon points="35.028 10.695 27.127 15.35 27.127 16.606 33.911 20.602 35.028 19.957 35.028 10.695"/><path d="M34.75006,21.6593l-7.83459-4.615-.80689.47534v8.1496a.26635.26635,0,0,1-.009.05.23619.23619,0,0,1-.00446.10174l.7948.46814Z"/><polygon points="26.65 26.71 25.699 26.15 18.793 30.138 18.793 31.252 26.65 35.88 26.65 26.71"/><polygon points="35.028 22.058 27.127 26.712 27.127 35.882 35.028 31.32 35.028 22.058"/></g></g></svg>