<svg xmlns="http://www.w3.org/2000/svg" viewBox="0 0 35.02789 60"><title>cub2</title><g id="Layer_2" data-name="Layer 2"><g id="Layer_1-2" data-name="Layer 1"><path d="M18.79254,11.55054l7.16474,4.22a.24029.24029,0,0,1,.09039.07556l.00171.00311a.27486.27486,0,0,1,.04175.07624.24014.24014,0,0,1,.01239.071.27287.27287,0,0,1,.00518.02832v.93243l.5409-.31872V15.34723l-7.85706-4.62811Z"/><path d="M34.75006,21.6593l-7.83459-4.615-.80689.47534v8.1496a.26635.26635,0,0,1-.009.05.23619.23619,0,0,1-.00446.10174l.7948.46814Z"/><polygon points="8.334 26.713 8.334 35.882 16.235 31.32 16.235 30.153 9.365 26.105 8.334 26.713"/><path d="M8.33411,16.606l.58538.345v-.92621a.29943.29943,0,0,1,.02485-.11731.18269.18269,0,0,1,.01587-.04517.19739.19739,0,0,1,.02832-.03039l.00207-.002a.21013.21013,0,0,1,.0517-.04041.21563.21563,0,0,1,.04626-.02307l7.14673-4.20972v-.86139L8.33411,15.34967Z"/><polygon points="26.65 26.71 25.699 26.15 18.793 30.138 18.793 31.252 26.65 35.88 26.65 26.71"/><polygon points="9.659 15.993 17.494 20.608 25.354 15.978 17.519 11.363 9.659 15.993"/><polygon points="25.632 35.834 18.761 31.787 17.73 32.394 17.73 41.563 25.632 37.002 25.632 35.834"/><polygon points="17.253 32.392 16.303 31.832 9.396 35.819 9.396 36.934 17.253 41.562 17.253 32.392"/><polygon points="17.253 21.029 9.396 16.401 9.396 25.571 17.253 30.199 17.253 21.029"/><polygon points="25.632 16.377 17.73 21.031 17.73 30.201 25.632 25.639 25.632 16.377"/><path d="M18.33936,31.32727a.24227.24227,0,0,1-.02277-.11725l-.001-.00488v-.93726l-.67615.39051-.011.00378a.22518.22518,0,0,1-.05139.01862.27993.27993,0,0,1-.05347.01416l-.01209.00348a.16617.16617,0,0,1-.01965.00445c-.0069,0-.01276-.00415-.01965-.00482l-.01587-.00348a.27023.27023,0,0,1-.04419-.01031l-.00965-.00245-.00445-.00134a.31447.31447,0,0,1-.05347-.02l-.632-.37256v.91724a.29888.29888,0,0,1-.009.05.23634.23634,0,0,1-.00445.10174l.7948.46814Z"/><path d="M.263,21.67419l7.8346,4.615.84521-.4981a.24446.24446,0,0,1-.02246-.11695l-.001-.00482V17.51349l-.7962-.46918Z"/><polygon points="9.659 4.63 17.494 9.245 25.354 4.615 17.519 0 9.659 4.63"/><polygon points="19.056 10.311 26.89 14.926 34.75 10.296 26.916 5.682 19.056 10.311"/><polygon points="35.028 10.695 27.127 15.35 27.127 16.606 33.911 20.602 35.028 19.957 35.028 10.695"/><path d="M1.31085,49.07635v8.547A2.37665,2.37665,0,0,0,3.6875,60h27.653a2.37659,2.37659,0,0,0,2.37658-2.37665v-8.547a2.37654,2.37654,0,0,0-2.37658-2.37664H3.6875A2.3766,2.3766,0,0,0,1.31085,49.07635Zm5.17267,9.73279A2.97957,2.97957,0,0,1,3.5127,55.83832V53.34985H3.514L3.5127,53.3252a1.39569,1.39569,0,1,1,2.79138,0l-.00122.02465h.00952v1.37836a1.72789,1.72789,0,0,0,1.72284,1.72284H9.435a1.5114,1.5114,0,0,0-.08478,2.35809Zm10.68616-2.97082a2.97958,2.97958,0,0,1-2.97083,2.97082H10.34119a1.14459,1.14459,0,1,1,0-2.28918v-.06891h2.306a1.72619,1.72619,0,0,0,1.50256-.88446h3.02ZM12.28986,53.8855V52.81427a.79675.79675,0,0,1,.79443-.79443h9.45392a.79675.79675,0,0,1,.79443.79443V53.8855a.79675.79675,0,0,1-.79443.79443H13.08429A.79675.79675,0,0,1,12.28986,53.8855Zm8.5393,4.92364a2.97953,2.97953,0,0,1-2.97082-2.97082v-.321H20.852a1.72648,1.72648,0,0,0,1.52881.93378h1.39978a1.5114,1.5114,0,0,0-.08478,2.35809Zm10.686-2.97082a2.97948,2.97948,0,0,1-2.97077,2.97082h-3.8576a1.14459,1.14459,0,0,1,0-2.28918v-.06891h2.30591a1.72789,1.72789,0,0,0,1.72284-1.72284v-.33337a1.76162,1.76162,0,0,0,2.79962.01049Zm-2.97077-7.997a2.97947,2.97947,0,0,1,2.97077,2.97076v2.48847H31.514l.00122.02466a1.39566,1.39566,0,1,1-2.79132,0l.00128-.02466h-.00958V51.92218a1.72788,1.72788,0,0,0-1.72284-1.72278H25.593a1.51133,1.51133,0,0,0,.08471-2.35809ZM17.85834,50.81207a2.97952,2.97952,0,0,1,2.97082-2.97076h3.85767a1.14456,1.14456,0,1,1,0,2.28912v.069h-2.306a1.72619,1.72619,0,0,0-1.50263.88446H17.85834Zm-3.65949-2.97076a2.97956,2.97956,0,0,1,2.97083,2.97076v.321H14.176a1.72654,1.72654,0,0,0-1.5288-.93372H11.24738a1.51133,1.51133,0,0,0,.08471-2.35809Zm-7.71533,0h3.85767a1.14456,1.14456,0,0,1,0,2.28912v.069h-2.306a1.72784,1.72784,0,0,0-1.72284,1.72278v.33337a1.76168,1.76168,0,0,0-2.79968-.01049v-1.433A2.97956,2.97956,0,0,1,6.48352,47.84131Z"/><polygon points="35.028 22.058 27.127 26.712 27.127 35.882 35.028 31.32 35.028 22.058"/><path d="M17.73047,10.92462l.58508.34461v-.92585a.30114.30114,0,0,1,.02515-.11767.18122.18122,0,0,1,.01587-.04486.20426.20426,0,0,1,.02832-.0307l.00171-.002a.218.218,0,0,1,.05212-.04.21542.21542,0,0,1,.0462-.02313l7.14673-4.20965V5.01392l-7.90118,4.654Z"/><polygon points="0 19.889 1.169 20.578 7.857 16.638 7.857 15.347 0 10.719 0 19.889"/><polygon points="0 31.252 7.857 35.88 7.857 26.71 0 22.082 0 31.252"/><path d="M9.39636,5.86908l7.16468,4.22a.24243.24243,0,0,1,.09039.07526l.00171.00341a.27194.27194,0,0,1,.04175.07624.2402.2402,0,0,1,.01239.071.27287.27287,0,0,1,.00518.02832v.93244l.5409-.31873V9.66577l-7.857-4.62811Z"/><polygon points="0.263 10.311 8.098 14.926 15.957 10.296 8.123 5.682 0.263 10.311"/></g></g></svg>