<svg xmlns="http://www.w3.org/2000/svg" viewBox="0 0 60 60"><title>disinfection</title><g id="Layer_2" data-name="Layer 2"><g id="Layer_1-2" data-name="Layer 1"><path d="M26.94527,33.54454A2.37188,2.37188,0,0,0,24.36294,35.623a2.37188,2.37188,0,0,0,2.58233,2.07846,3.18692,3.18692,0,0,0,.56053-.05052l2.0214-2.02135.00041-.00659A2.37188,2.37188,0,0,0,26.94527,33.54454Z"/><path d="M32.83427,28.75782a1.64447,1.64447,0,1,0,0,3.27512,1.96908,1.96908,0,0,0,.31652-.027l1.47075-1.47072c.00421-.04621.00769-.09264.00769-.13986A1.72169,1.72169,0,0,0,32.83427,28.75782Z"/><path d="M33.716,24.286A1.98362,1.98362,0,0,0,35.826,22.45947a1.90972,1.90972,0,0,0-1.65867-1.78361l-2.42493,2.42489A2.11906,2.11906,0,0,0,33.716,24.286Z"/><path d="M30,0A30,30,0,1,0,60,30,30,30,0,0,0,30,0Zm0,57.3a27.17442,27.17442,0,0,1-16.55-5.59323l9.93091-9.93089c-.79369-2.32637-3.18907-3.49072-4.74941-2.87773a6.44254,6.44254,0,0,0-2.597,2.12374,1.4081,1.4081,0,0,1,.07753.45857,1.35449,1.35449,0,1,1-2.70826,0c0-.01562.004-.03011.00453-.0456L8.2932,46.54994A27.29535,27.29535,0,0,1,46.5499,8.29324L35.94524,18.89792a5.64674,5.64674,0,0,1,1.77028,1.04223c1.38553,1.19668,2.6453,3.08616,4.34581,2.39336a13.07677,13.07677,0,0,0,1.508-.74606L45.604,19.55281c-.00494-.06-.01562-.11818-.01562-.17952a2.15876,2.15876,0,0,1,2.10994-2.20443,2.03072,2.03072,0,0,1,.26966.02L51.70672,13.45A27.29533,27.29533,0,0,1,30,57.3Z"/><path d="M22.59946,33.04068a1.20692,1.20692,0,0,0,1.32265-1.03923.93187.93187,0,0,0-.366-.71445l-1.612,1.61208A1.58872,1.58872,0,0,0,22.59946,33.04068Z"/><path d="M14.75794,40.09482a1.32436,1.32436,0,0,1,.37147.05406,6.77857,6.77857,0,0,0,2.05345-1.4397A7.05451,7.05451,0,0,0,18.43712,36.406l-3.68987,3.68993Z"/><path d="M25.87456,29.51361c2.08712,0,3.779-1.29714,3.779-2.89724a2.32043,2.32043,0,0,0-.29775-1.129L25.35952,29.4836A4.9247,4.9247,0,0,0,25.87456,29.51361Z"/><path d="M32.80279,14.83848A15.584,15.584,0,0,1,33.3,11.55365,1.17044,1.17044,0,1,0,31.921,10.39814a1.14723,1.14723,0,0,0,.525.95446,27.13478,27.13478,0,0,0-.27306,2.73007c-.063,1.70056-2.26744,4.09392-5.22764,4.59779s-4.84968-.88178-5.22763-1.70055c-.2644-.57291-1.823-3.1794-2.73577-4.69412a1.55376,1.55376,0,0,0,.46842-1.10035,1.80261,1.80261,0,0,0-3.59008,0,1.72172,1.72172,0,0,0,1.795,1.63757,1.95271,1.95271,0,0,0,.4698-.05864,48.77438,48.77438,0,0,1,2.96279,4.97135c1.25961,2.58231.88174,3.96794-.50387,5.22763s-.25194,2.07844-2.14143,4.15688c-1.75716,1.93286-5.80021.43484-6.86477.01278a1.36551,1.36551,0,0,0-1.19713-.76857,1.552,1.552,0,0,0,0,3.08618,1.38857,1.38857,0,0,0,1.26632-.91828,16.50618,16.50618,0,0,1,5.158,1.42216c2.63008,1.16414,2.42629,4.21689,1.63212,6.4515l3.507-3.50692a1.02525,1.02525,0,0,1-.66727-.89763,1.2069,1.2069,0,0,1,1.32264-1.03923,1.50416,1.50416,0,0,1,.95668.32478l1.80338-1.8034c-1.84279-.193-3.26393-1.40143-3.26393-2.86723,0-1.6001,1.69193-2.89723,3.779-2.89723a3.93316,3.93316,0,0,1,3.48123,1.76821l2.38656-2.3866a1.60469,1.60469,0,0,1-.13628-.64128A1.98361,1.98361,0,0,1,33.716,20.633a2.42962,2.42962,0,0,1,.45127.04291l1.778-1.77794c-.72675-.27017-1.40754-.38314-2.00878-.59537C32.86575,17.92467,32.80279,16.476,32.80279,14.83848Z"/><path d="M13.40834,41.43485l1.33891-1.33892A1.36625,1.36625,0,0,0,13.40834,41.43485Z"/><path d="M20.83591,49.54233a2.17036,2.17036,0,0,0-.193.24314,1.48084,1.48084,0,0,0-.94074,1.363,1.54445,1.54445,0,0,0,3.08621,0c.315.09446.37794-2.11.81885-3.8105a6.08633,6.08633,0,0,1,2.77123-3.59006,5.39925,5.39925,0,0,1,6.67629,1.5116,8.50941,8.50941,0,0,1,1.6284,4.76394,2.16241,2.16241,0,0,0-.9986,1.81785,2.20469,2.20469,0,1,0,2.30789-2.16779c-.19965-.40382-.442-.85451-.73331-1.32781-1.00774-1.63757-.81885-2.58231-.37786-4.1569.44083-1.57458,2.45632-2.26741,3.779-3.33812s3.21214-2.20443,5.66854-1.07073c.89785.4144,1.54246.74429,2.02157.99653-.00292.04549-.00615.09087-.00615.13718a1.68193,1.68193,0,1,0,1.66911-1.8895,1.52142,1.52142,0,0,0-.89056.29335c-.751-.10315-1.65608-.19824-2.29018-.29335-1.2596-.189-1.82644-1.70056-1.95245-2.83425s1.07072-4.40884,2.26744-5.16465a10.069,10.069,0,0,1,3.98631-.68737.97652.97652,0,0,0,.89485.62438,1.04124,1.04124,0,0,0,0-2.07843.9836.9836,0,0,0-.925.70889c-.68573.10179-1.93643.27581-3.01143.36182-1.57459.126-2.14142-1.07071-2.58233-2.01548s-.81878-3.653,0-4.97567a7.15426,7.15426,0,0,1,2.75949-1.97143,2.05188,2.05188,0,0,0,1.42891.58577,2.21125,2.21125,0,0,0,.26966-4.38886l-2.364,2.364a2.31043,2.31043,0,0,0,.11257.57115,15.34376,15.34376,0,0,1-2.14725,1.46349l-8.94777,8.9478A1.7032,1.7032,0,0,1,33.15079,32.006L29.5272,35.62959a2.24129,2.24129,0,0,1-2.0214,2.02135l-4.12487,4.12493a4.8962,4.8962,0,0,1,.22628.96426C23.98508,45.70035,21.46579,48.84952,20.83591,49.54233ZM39.13261,26.4904a1.20862,1.20862,0,1,1-1.03923,1.19668A1.12631,1.12631,0,0,1,39.13261,26.4904Zm-1.88948,7.05414a2.02634,2.02634,0,1,1-2.236,2.01547A2.13426,2.13426,0,0,1,37.24313,33.54454Zm-5.763,5.41658a.54246.54246,0,1,1-.62988.53536A.58837.58837,0,0,1,31.48014,38.96112Z"/></g></g></svg>