<svg xmlns="http://www.w3.org/2000/svg" viewBox="0 0 56.3754 60"><title>eastCoast</title><g id="Layer_2" data-name="Layer 2"><g id="Layer_1-2" data-name="Layer 1"><path d="M40.142,21.30177c.11071,1.59387.20771,3.09663.32121,4.59813.14923,1.97405.31732,3.94666.46582,5.92075.08595,1.1424.16633,2.28575.21619,3.43011.028.64186-.012,1.28666-.01919,1.93016a.35206.35206,0,0,0,.02618.14509A8.37035,8.37035,0,0,0,42.612,40.2131c.36438.35224.49356.86743,1.0267,1.14145a3.06943,3.06943,0,0,0,1.07512.31572,14.51738,14.51738,0,0,1,2.03267.22623,3.84627,3.84627,0,0,1,1.17221.79788,8.89737,8.89737,0,0,1,.67776.65342,2.21789,2.21789,0,0,1,.23884-.4381.38184.38184,0,0,1,.28809-.123.36747.36747,0,0,1,.21041.22917c.18761.60381.4317,1.19493,1.17675,1.1692a15.79572,15.79572,0,0,1,1.6935.097c.35295.02517.72617-.39285,1.10766-.57583a3.60036,3.60036,0,0,1,2.45629-.563c.35924.0854.4736.2749.35324.58947a.75127.75127,0,0,0,.17923.85127.39188.39188,0,0,1,.04528.37007c-.25156.27023-.50482.63637-.8254.72676a4.57748,4.57748,0,0,0-2.21521,1.7574c-.47754.56782-1.08578,1.02394-1.61355,1.55207a10.82235,10.82235,0,0,0-.71442.87811l-.33025-.3705c-.279.10694-.293.69008-.74233.3783l-.42754.656.40253.029c.00165.03628.0156.07774.00237.09009-.50382.47024-.69633.45046-1.3168.17681a1.99117,1.99117,0,0,0-1.15275-.15792c-.988.21966-1.93972.61438-2.932.79818-.63551.11771-.98764.56481-1.47658.831-.6979.37991-.9198,1.03812-1.4283,1.71091a4.97619,4.97619,0,0,0,1.18407.16042,5.403,5.403,0,0,0,1.16921-.42558,1.18063,1.18063,0,0,0,.38693,1.21446c.07846.06927.104.35244.05192.388a1.65166,1.65166,0,0,1-.63921.2769c-.73341.12-1.47339.19924-2.20916.30572-.17487.02531-.34677.14628-.51383.13459a.70414.70414,0,0,0-.721.39368c-.06087.10218-.20405.15533-.35372.26234l1.08652.16879-.01171.18281a6.05534,6.05534,0,0,1-1.72717-.107c-1.70539-.62217-2.68071.04683-3.54393,1.45382-.92066.14331-1.68147.44649-1.831,1.58092l-.424-.4709a2.90539,2.90539,0,0,1-.95251.10844c-.62241-.17156-.77131-.50042-.52483-1.09336.0929-.2235.22183-.454.63263-.32723a5.6185,5.6185,0,0,0,1.47093.027c-.1589-.28288-.27684-.47814-.37955-.68112a.78694.78694,0,0,1-.14326-.39149,12.55316,12.55316,0,0,1,.28306-1.42266.87408.87408,0,0,1,.32145-.4133c.48648-.37106,1.02293-.684,1.47019-1.09542a1.15355,1.15355,0,0,0,.24992-.80322,19.99991,19.99991,0,0,1-.146-2.14514,4.84147,4.84147,0,0,1,.57095-1.48874,2.05432,2.05432,0,0,1,.42832-.6041c.30749-.2999.19155-.62835.09283-.9397A4.17606,4.17606,0,0,0,35.59024,46.423c.3806-.03084.761-.07279,1.14206-.08031.056-.00111.16782.16341.16427.24752a1.05494,1.05494,0,0,0,.56855.98775l.439-.2261-.13964.62079.46108.52753c.2175-.107.42394-.26407.76614.15606.27025.33179.9105.39479,1.403.49809.21967.04608.30745-.61079.06015-.82616-.2019-.17585-.28973-.36837-.08892-.51741.11518-.0855.37142-.0049.5564.036a1.51961,1.51961,0,0,1,.34937.178l.13539-.16155a5.47736,5.47736,0,0,1-.73582-.62735c-.32338-.38727-.5828-.82714-.888-1.23056-.34423-.45495-.71661-.8886-1.061-1.34343a3.24081,3.24081,0,0,1-.26691-.50909c-.29064-.5757-.80866-.53343-1.342-.53794-.46265-.00391-.99187.04785-1.231-.56335a4.51484,4.51484,0,0,0-.57926.37369,1.48237,1.48237,0,0,0-.236.38936l.51246.16856.12589-.13112a2.126,2.126,0,0,1,.13607.73588,9.0704,9.0704,0,0,1-.41095,1.2372l-.49291-.69124-.05505.12565a1.86915,1.86915,0,0,1-.40578-.064c-.50192-.19612-.98942-.4316-1.49752-.60873-.50309-.17539-1.02158-.31027-1.53964-.437a3.30427,3.30427,0,0,0-.66689-.0068c-.02742-.0784-.17916-.28979-.12537-.40633.10175-.22048.30239-.17659.5352-.06218a1.24249,1.24249,0,0,0,.7196.04745,3.19576,3.19576,0,0,1,1.41579.03023c.0477.01276.12069-.04111.17281-.07724.39986-.27723.6247-.075.79062.27782l.76475-.82353-5.36879-.519c.16835.21953.16835.21953-.358.69957-.661-.44013-.435-1.17479-.5332-1.78487-.47482-.01131-.95309.53125-1.30886-.13283l.40625-.55028h-.32244c-.08137-.38674.03387-.64385.51492-.67992l-.061-.118c-.26-.05147-.51809-.12354-.78065-.14879-.2803-.02695-.34064-.18263-.26729-.4032a2.15544,2.15544,0,0,1,.318-.70692c.2395-.28646.1161-.47758-.08211-.66838-.3047-.29332-.62475-.57068-.94895-.86448l.45181-1.347a2.60822,2.60822,0,0,0-.79009.01111c-1.64671.54771-2.50741-.6066-2.73723-1.77115a8.70458,8.70458,0,0,0-.53679-1.42461c-.28278-.0568-.63635.30568-.65414-.22051-.77221.14343-.90722.33013-3.45274-.64786l.925.4931c-.52768.22309-.96337.38162-1.37469.5886-.39132.1969-.75717.44441-1.27285.75251.22085-.36526.38123-.6385.54967-.90669.15368-.24471.3137-.48369-.10346-.704a8.72761,8.72761,0,0,1-.42749,1.25758,6.71863,6.71863,0,0,1-.71968.96234l-.20423-.12683.50837-1.05581c-.43171.19358-.77429.33319-1.1.50479-.06705.03532-.10381.19168-.099.28952.03117.63382-.56857,1.52241-1.16352,1.46332-.32414-.03219-.89727.21368-1.09956-.38586-.02871-.08508-.283-.11583-.43707-.13249a11.06016,11.06016,0,0,0-1.11941-.0778c-.30994-.00185-.535-.06855-.64626-.398a.49992.49992,0,0,0-.41371.00074,1.41479,1.41479,0,0,1-1.7308.17106,5.51432,5.51432,0,0,1-.93662-.91543,2.94888,2.94888,0,0,0-.38775-.28169c-.21187.206-.33313.42678-.47265.439-.332.02908-.21445-.31837-.31982-.47829a2.81225,2.81225,0,0,0-.86744-.91836c-.5113-.29034-1.047-.63908-1.72169-.19206-.20356.13487-.81705.35879-.9793-.28865a.18229.18229,0,0,0-.09689-.10644,8.26528,8.26528,0,0,0-1.27772-.48752c-.53-.11587-.72617-.27251-.73515-.83316-.00894-.55894-.01035-1.118-.01881-1.67695a.46194.46194,0,0,0-.04523-.13443c-.7909-.09721-.81777-.18569-.68837-1.02078.205-1.32316.35306-2.65507.53326-3.98219.2502-1.84276.51144-3.684.76095-5.52689.14689-1.08495.27545-2.1724.42606-3.2568a.564.564,0,0,1,.19255-.35416c3.76785-2.63789,6.85708-6.01849,10.10712-9.22265q2.52961-2.4939,5.051-4.99613c.44742-.44262.55315-.413.95127.05642a2.89839,2.89839,0,0,0,.99668.89734c.683.26375.91605.82615,1.22318,1.37173.34.60395.61206,1.26535,1.4988,1.26444a2.18478,2.18478,0,0,1,.80234.34849c.62987.30189,1.26525.59373,1.88255.91965a4.09346,4.09346,0,0,1,.65594.50666,2.91306,2.91306,0,0,0,2.75235.9596,6.47158,6.47158,0,0,1,1.89521.08256c.20623.01218.41535.00215.61853.03285.31184.04712.61427-.10237.94608.20357.2268.20913.74924.09208,1.13789.13537.09064.0101.239.06529.25143.12323a4.09378,4.09378,0,0,1,.1835,1.1826,8.00734,8.00734,0,0,1-.36544,1.55822,1.26587,1.26587,0,0,0,.24734,1.34624,1.80729,1.80729,0,0,1,.361,1.54557,5.94064,5.94064,0,0,0,.08215,1.23338,1.27346,1.27346,0,0,1-.09878.64916.95.95,0,0,0,.2027,1.324c.382.36117.6732.81646,1.02657,1.21039a4.22671,4.22671,0,0,1,.81112,1.49484c.06242.17972.35827.28315.55457.41037.23655.1533.48538.28791.719.44526.07728.052.108.18449.18718.22074.76984.35241.8534,1.13867,1.15987,1.78738a.85378.85378,0,0,0,.33789.35813,8.35116,8.35116,0,0,0,.93235.42512.45918.45918,0,0,0,.34546.03222.421.421,0,0,0,.1011-.32813C39.50337,21.69358,39.693,21.456,40.142,21.30177Z"/></g></g></svg>