<svg xmlns="http://www.w3.org/2000/svg" viewBox="0 0 59.96214 50.68538"><title>horticulture</title><g id="Layer_2" data-name="Layer 2"><g id="Layer_1-2" data-name="Layer 1"><path d="M42.61093,6.33609c-6.4066,1.68232-8.63344,7.19836-8.26346,9.50377.1174-.07107.23275-.1394.35125-.21362.56324-.34538,1.17554-.67216,1.81148-1.00906.63212-.339,1.31276-.654,1.99832-.97271.34483-.16128.70633-.30219,1.06346-.44788l.53877-.2195c.23276-.0913.37585-.12916.56693-.19586l1.08054-.35931c.37531-.1073.748-.212,1.11691-.31668.74692-.20652,1.46815-.388,2.17079-.5333,1.4031-.31927,2.72173-.55149,3.85681-.72711,2.27276-.34606,3.82155-.41166,3.82155-.41166s-.35344.15212-.97435.417c-.6231.25887-1.51148.60274-2.58137,1.01385-.53918.19585-1.11745.40893-1.7303.63362-.61393.21841-1.26259.44693-1.93161.68338-.66259.23384-1.34324.47795-2.0389.72615-.68065.22961-1.39026.50186-2.103.77521-.66355.2482-1.35334.57868-2.02974.8467-.67162.30587-1.82324.70633-2.47463.98447-.78478.32938-1.28186.50774-1.781.77207-5.58875,3.26146-8.06542,9.03485-9.57567,15.14405-.268-5.73868-1.472-11.30706-5.61485-15.41371l.01325-.007q-.84158-.78786-1.74423-1.69558c-.49271-.50775-1.01372-1.01276-1.52051-1.55153-.52045-.50706-1.03188-1.07467-1.553-1.55836-.55626-.52538-1.10514-1.04583-1.648-1.5205-.54779-.49176-1.08328-.97695-1.60552-1.44738-.52906-.47453-1.0405-.93212-1.52418-1.3688-.47946-.44159-.93691-.86063-1.35554-1.24715-.83289-.78587-1.52529-1.44478-2.0005-1.9226-.47085-.482-.73886-.75758-.73886-.75758S7.61645,4.592,9.58538,5.77873c.98173.59644,2.11093,1.314,3.2881,2.14414.59317.40415,1.19057.84725,1.80137,1.32191.30055.23919.60656.47727.9097.71809l.86174.74474c.15157.13613.26965.22319.44842.39772l.41645.40948c.27718.27171.55531.54082.811.8195.51676.5553,1.02122,1.10788,1.47772,1.66141.45868.55421.89959,1.0908,1.28774,1.62465.08228.1148.15964.21949.24192.33048,1.22514-1.98875,1.27325-7.93778-4.00839-11.93973C11.37007-.34277,3.356,1.61071,0,0,3.38856,5.18351,2.73772,8.64465,8.43061,14.33317c3.80392,3.8061,7.35691,4.04146,9.7498,3.37954,4.86792,4.68588,5.62756,11.8293,5.62975,18.66506a2.8759,2.8759,0,0,0-1.80137-.72014,4.32309,4.32309,0,0,0-4.09216,2.68853,5.56852,5.56852,0,0,0-7.46638,4.84455c-2.063-.7677-4.68055,1.60592-4.68055,3.66834a3.77606,3.77606,0,0,0,3.625,3.76975l31.92151.05658s3.40086-1.8339,3.40086-3.828A3.76075,3.76075,0,0,0,40.0979,43.1698c.01818-.14679-.36519-6.57363-5.94957-3.99226-.43407-2.01116-1.00373-3.51991-4.35867-3.51991a5.215,5.215,0,0,0-3.48834,1.21026c1.39763-7.10925,3.55722-14.536,9.85175-18.20966a.72022.72022,0,0,0,.15322-.13886c1.94541,1.56109,5.34683,2.76656,10.39517.67052,7.43057-3.08693,8.14975-6.53262,13.26068-10.029-3.71262.20829-10.37508-4.65595-17.35121-2.82478ZM25.21476,38.06433l.20884-.20925c-.10524.16333-.16989.28183-.16989.28183s-.02077-.0406-.039-.07258Z"/></g></g></svg>