<svg xmlns="http://www.w3.org/2000/svg" viewBox="0 0 92.57664 60"><title>mexico</title><g id="Layer_2" data-name="Layer 2"><g id="Layer_1-2" data-name="Layer 1"><path d="M91.32437,36.55979c-2.77926-1.31582-9.48028,1.33718-10.28043,4.4848-1.17381,4.585-4.66922,4.79034-8.33265,5.40608-3.70071.6371-6.8011.04208-8.98566-3.14248-3.4742-5.05861-6.24817-10.32268-3.67934-16.78128.49461-1.23181,1.60529-3.55838-.30538-3.94794-5.67452-1.08979-6.501-6.29057-9.1749-9.891-1.74778-2.32143-4.048-4.01106-6.47467-2.27918-3.67966,2.61091-4.5007.28433-6.29041-2.18457-2.38457-3.34794-5.63756-6.68-10.2014-4.52158-4.13235,1.95276-7.73281,1.02634-11.68075.063C11.78659,2.73393,8.22822.08623,3.8329.00205c-3.70585-.06329-5.00078,1.337-2.653,4.42167,4.31644,5.67451,5.07965,13.81776,12.19127,17.5604a2.81736,2.81736,0,0,1,1.37894,2.01605c.04225,5.63226,5.51146,5.40608,7.54342,8.83819.3947-.36867.7841-.71614,1.19486-1.06859q-5.2113-8.7884-10.42775-17.5816l.45253.06329.31068-.34747c8.94342,5.0954,13.902,14.10194,20.645,21.31878.5526.57911,1.15276,1.68979.94746,2.30553-2.32673,7.03274,3.75838,8.1643,7.56414,10.34356,4.62713,2.63212,9.76992,4.31661,14.639,6.49572,1.99517.88433,4.40078,2.0583,6.16945,1.08979C69.07371,52.578,72.15852,55.9311,76.438,60c-1.76867-5.448,8.36429-4.43757,2.11613-11.51223,9.27482,2.40577,11.61746-2.96352,13.69134-8.80125.51582-1.458.57911-2.40561-.92112-3.12673Z"/></g></g></svg>