<svg xmlns="http://www.w3.org/2000/svg" viewBox="0 0 60 55.82349"><title>patent</title><g id="Layer_2" data-name="Layer 2"><g id="Layer_1-2" data-name="Layer 1"><path d="M50.55051,55.82349H18.82585S9.98424,54.43657,9.98424,43.86131V11.87549H1.056A1.49425,1.49425,0,0,1,.01576,10.6186C-.15761,8.79827.96926,0,9.98424,0H44.83057s7.108,2.08038,7.108,8.75493v33.026H48.03782V8.92829s-.17336-5.02758-6.15445-5.02758H10.85106s3.20725,1.38692,3.20725,3.90071v37.9669s.60678,6.15446,6.32782,6.15446,7.62806-4.59417,7.628-6.32782.69346-1.73365,2.60048-1.73365H58.78645S60,43.68794,60,45.855C60,48.88889,57.74625,55.82349,50.55051,55.82349Z"/><rect x="21.85973" y="7.71474" width="18.02995" height="2.25374" rx="0.69346" ry="0.69346"/><rect x="18.0457" y="13.86919" width="25.91805" height="2.16706" rx="0.69346" ry="0.69346"/><rect x="18.0457" y="17.94326" width="25.91805" height="1.9937" rx="0.69346" ry="0.69346"/><rect x="32.00157" y="27.91174" width="11.96218" height="1.9937" rx="0.69346" ry="0.69346"/><rect x="32.00157" y="31.89913" width="11.96218" height="2.08038" rx="0.69346" ry="0.69346"/><path d="M26.92147,28.07089A1.76568,1.76568,0,0,0,24.73769,25.386a1.77,1.77,0,0,0-3.49748-.01659,1.772,1.772,0,0,0-2.22716,2.7225,1.77305,1.77305,0,0,0,.7663,3.37384,1.74189,1.74189,0,0,0,.17362-.01752,1.7713,1.7713,0,0,0,3.03363,1.80027,1.77081,1.77081,0,0,0,3.03363-1.80027,1.74219,1.74219,0,0,0,.17362.01752,1.775,1.775,0,0,0,.72762-3.39483Zm-2.331,2.37217a1.73893,1.73893,0,0,0-.17362-.01753c-.03928,0-.07517.01139-.11377.01393a1.97286,1.97286,0,0,1-1.10211.48471,1.81178,1.81178,0,0,0-.21438.23241,1.81431,1.81431,0,0,0-.21471-.23275,1.97284,1.97284,0,0,1-1.09818-.484c-.03979-.00271-.07686-.01435-.11737-.01435a1.73923,1.73923,0,0,0-.17362.01753,1.90752,1.90752,0,0,0,.07886-.22378,1.96676,1.96676,0,0,1,.56927-3.00273c.0039-.01947.01325-.03666.01651-.05638.01464.00918.03255.01282.04749.02163a1.97042,1.97042,0,0,1,.89328-.22052,1.98183,1.98183,0,0,1,1.52443,3.26058A1.89969,1.89969,0,0,0,24.59048,30.44306Z"/><path d="M24.41686,35.7565a2.65674,2.65674,0,0,1-.76764-.08692,2.42975,2.42975,0,0,0-1.31535-.00155,2.70672,2.70672,0,0,1-.77753.08847,2.77414,2.77414,0,0,1-.86488-.11579.45574.45574,0,0,0-.65206.45744v5.5961c0,.3814.25487.5134.56638.29333l1.81444-1.28182a1.0543,1.0543,0,0,1,1.13276,0l1.81444,1.28182c.31151.22007.56638.08807.56638-.29333v-5.5961a.45574.45574,0,0,0-.65205-.45744A2.77426,2.77426,0,0,1,24.41686,35.7565Z"/></g></g></svg>