<svg xmlns="http://www.w3.org/2000/svg" viewBox="0 0 64.34446 60"><title>rebrand</title><g id="Layer_2" data-name="Layer 2"><g id="Layer_1-2" data-name="Layer 1"><circle cx="32.19375" cy="14.04267" r="11.1355"/><path d="M1.13778,36.41156A17.461,17.461,0,0,0,.81148,47.8711a.3185.3185,0,0,0,.61145-.17792A13.70186,13.70186,0,0,1,18.20534,30.98969a13.542,13.542,0,0,1,8.29682,6.35461A13.69061,13.69061,0,0,1,5.00124,53.89179a.31853.31853,0,0,0-.4599.44055,17.45676,17.45676,0,0,0,10.08631,5.44721A17.23158,17.23158,0,0,0,17.37887,60a17.38008,17.38008,0,0,0,14.79351-8.23754,17.38937,17.38937,0,0,0,27.63074,2.56988.31853.31853,0,0,0-.4599-.44055A13.69046,13.69046,0,0,1,37.84267,37.3443,13.66623,13.66623,0,0,1,56.519,32.36621a13.703,13.703,0,0,1,6.40247,15.32734.31853.31853,0,0,0,.61151.17791,17.38852,17.38852,0,0,0-16.04077-22.647A17.39295,17.39295,0,0,0,35.90224.00751a.31854.31854,0,0,0-.15155.61859,13.64926,13.64926,0,1,1-7.15655,0,.31854.31854,0,0,0-.15155-.61859A17.3903,17.3903,0,0,0,16.85232,25.22443,17.38184,17.38184,0,0,0,1.13778,36.41156ZM28.106,34.21485a4.09219,4.09219,0,0,1,4.0874-4.08393h.00391a4.0922,4.0922,0,0,1,4.08337,4.09174v.00812a4.0872,4.0872,0,0,1-4.087,4.08392h-.004a4.09289,4.09289,0,0,1-4.08374-4.092Z"/><circle cx="14.592" cy="44.20116" r="11.13543"/><circle cx="49.79513" cy="44.20116" r="11.13541"/></g></g></svg>