<svg xmlns="http://www.w3.org/2000/svg" viewBox="0 0 60 59.92548"><title>rNd</title><g id="Layer_2" data-name="Layer 2"><g id="Layer_1-2" data-name="Layer 1"><path d="M4.37164,11.60413a3.37639,3.37639,0,0,0,.351.47949,4.03978,4.03978,0,0,0,.28973.287l-.20032.43811a.24993.24993,0,0,0,.36383.31231l.45056-.291a6.84267,6.84267,0,0,0,.75135.38134l-.0152.502a.24989.24989,0,0,0,.45605.148l.28882-.41931a7.07954,7.07954,0,0,0,1.0072.15173l.14948.497a.24954.24954,0,0,0,.47876-.0033l.14386-.49945a6.62494,6.62494,0,0,0,.82623-.14752l.30658.42279a.24981.24981,0,0,0,.45111-.16186l-.03113-.51374a6.3867,6.3867,0,0,0,.82648-.498l.42957.26458a.24973.24973,0,0,0,.35467-.32208l-.22015-.45514a4.45928,4.45928,0,0,0,.41095-.54089l.47595.04681a.2497.2497,0,0,0,.17877-.44439l-.33478-.26471a3.59578,3.59578,0,0,0,.17823-.89228l.4942-.13415a.24983.24983,0,0,0,.00989-.47894l-.47486-.15241c.015-.29083.03919-.67212.0539-.90423l.47912-.12885a.24984.24984,0,0,0,.00989-.479l-.4-.12677c.03619-.26667.068-.579.085-.88184l.44855-.12262a.24957.24957,0,0,0,.01-.47888l-.45405-.14655a6.54887,6.54887,0,0,0-.078-.70129l.37158-.34241a.24968.24968,0,0,0-.2135-.42889l-.395.06982a1.51531,1.51531,0,0,0-.42852-.4989l.00292-.48559a.24945.24945,0,0,0-.45819-.13819l-.27368.41742a1.1874,1.1874,0,0,0-.59271.18079l-.28979-.23633a.24968.24968,0,0,0-.395.27093l.14849.45551c-.12695.15271-.48059.57648-.623.69983L9.55585,5.059a.24973.24973,0,0,0-.43421.202l.07331.48193c-.15833.11206-.35169.24493-.48212.32654l-.277-.31446a.24962.24962,0,0,0-.43408.202l.06812.45166-.00031.0022c-.15253.06677-.455.17944-.68573.25927l-.33392-.41888a.24977.24977,0,0,0-.44342.18121l.05206.50995c-.1452.06433-.331.15119-.48151.23157L5.9306,6.86523a.24969.24969,0,0,0-.44336.18122l.05188.52093a7.74379,7.74379,0,0,0-.61255.527l-.47979-.18683a.25.25,0,0,0-.2909.381l.30036.4104a3.91222,3.91222,0,0,0-.30292.64179l-.48181.08643a.24983.24983,0,0,0-.05109.4765l.38343.15966a2.5986,2.5986,0,0,0,.07769.85791l-.36255.29706a.24992.24992,0,0,0,.18927.44043ZM7.5705,7.37079A7.24546,7.24546,0,0,0,10.07,6.00488l.04468-.033a3.89469,3.89469,0,0,0,.68664-.70678c.3042-.37439.5036-.60358.761-.60358a.60745.60745,0,0,1,.16284.02454c.605.17022.64831,1.74218.43237,3.13055-.02887.1839-.04895.3703-.06109.55432-.03333.52771-.07331,1.21912-.07331,1.51672a3.33534,3.33534,0,0,1-3.58728,2.99524,4.36469,4.36469,0,0,1-3.16919-1.28015,1.98947,1.98947,0,0,1-.53406-1.56787C4.93768,8.38324,6.78534,7.62152,7.5705,7.37079Z"/><path d="M19.40485,28.02954V34.7948H40.66907V24.16309H34.86932V32.8623H32.93683V20.29657H27.13708V32.8623H25.20386V28.02954Zm17.3977-1.93323h1.93323v6.766H36.80255ZM29.07031,22.2298H31.0036V32.8623H29.07031ZM23.27136,32.8623H21.33813V29.962h1.93323Z"/><path d="M8.84967,17.39709A8.69855,8.69855,0,1,0,.15112,8.69855,8.69854,8.69854,0,0,0,8.84967,17.39709Zm0-15.73584a7.0373,7.0373,0,1,1-7.03729,7.0373A7.04524,7.04524,0,0,1,8.84967,1.66125Z"/><path d="M9.51215,7.38208a.15109.15109,0,0,0,.06488.28259l.27557.01642a.06674.06674,0,0,1,.05255.032.06778.06778,0,0,1,.00354.06116L9.793,8.02588a.15114.15114,0,0,0,.21857.19037l.23327-.14868a.06537.06537,0,0,1,.061-.00519.06692.06692,0,0,1,.03906.04754l.05457.27118a.15108.15108,0,0,0,.28869.02552l.101-.25751a.06587.06587,0,0,1,.10571-.02435l.20361.1875a.15117.15117,0,0,0,.24854-.14936l-.06952-.26751a.066.066,0,0,1,.07092-.082l.27527.032a.15121.15121,0,0,0,.1131-.26691l-.2135-.17548a.06555.06555,0,0,1,.00958-.108l.24115-.13592a.15121.15121,0,0,0-.06488-.2826l-.27594-.01666a.06562.06562,0,0,1-.05573-.093l.11493-.25152a.15105.15105,0,0,0-.21844-.19031l-.23328.14886a.066.066,0,0,1-.1001-.04241l-.0542-.27149a.15129.15129,0,0,0-.28906-.02551l-.1015.25793a.06519.06519,0,0,1-.04651.03992.066.066,0,0,1-.05914-.01556l-.20319-.18726a.15111.15111,0,0,0-.24865.14917l.06915.2674a.06547.06547,0,0,1-.07135.08184l-.27435-.032a.1511.1511,0,0,0-.11359.26685l.21387.17608a.06564.06564,0,0,1-.00959.108Zm1.12994-.60339a.492.492,0,1,1-.49158.49212A.492.492,0,0,1,10.64209,6.77869Z"/><path d="M5.84924,10.5517a.24963.24963,0,0,0,.1073.46679l.45539.02747a.10866.10866,0,0,1,.0921.15369l-.19037.41546a.24943.24943,0,0,0,.361.31421l.38556-.24579a.10824.10824,0,0,1,.10059-.00836.10963.10963,0,0,1,.064.07843l.09.44775a.24938.24938,0,0,0,.47662.042l.1673-.425a.1086.1086,0,0,1,.17456-.04l.3363.30939a.24962.24962,0,0,0,.41065-.24616l-.11493-.44226a.10863.10863,0,0,1,.11774-.13507l.45324.05261a.24949.24949,0,0,0,.1872-.44043l-.35254-.29028a.10882.10882,0,0,1,.01562-.17835l.39795-.22381a.24957.24957,0,0,0-.10718-.46668L9.022,9.68976a.10875.10875,0,0,1-.09222-.15369l.19079-.41534a.24964.24964,0,0,0-.361-.31464l-.38586.2461a.10927.10927,0,0,1-.10108.00836.10791.10791,0,0,1-.06378-.07843l-.09021-.44776a.24958.24958,0,0,0-.47693-.042L7.475,8.91742a.10942.10942,0,0,1-.077.066.108.108,0,0,1-.09759-.02594l-.33619-.30927a.24971.24971,0,0,0-.41064.24646l.11481.44184a.10856.10856,0,0,1-.11762.135L6.0976,9.41888a.24937.24937,0,0,0-.18726.44043l.35248.29035a.10865.10865,0,0,1-.01563.17834ZM7.717,9.37286a.99512.99512,0,1,1-.99518.99506A.99494.99494,0,0,1,7.717,9.37286Z"/><path d="M6.26825,49.6922c.1358.05658.22772.11078.246.2724a.379.379,0,0,0,.46906.35413,4.67741,4.67741,0,0,1,.76233-.08039,12.41985,12.41985,0,0,0,1.99163.00043,5.24342,5.24342,0,0,1,.76239.07886c.19751.0141.39649-.02387.437-.25885.03735-.21643.15942-.30054.34368-.40528a1.39049,1.39049,0,0,0,.56665-.55871,5.60584,5.60584,0,0,0,.28479-1.07648c.00892-.03766-.01867-.084-.02935-.12634l-.06653-.026c-.13513.70422-.149,1.49749-1.15369,1.61834.07941-.80639-.57519-1.30334-.78448-1.98809.48565-.17188.72326-.44147.67657-.86115-.06421.14124-.09613.21863-.13391.293-.14191.27954-.5141.47394-.70874.38525a4.21438,4.21438,0,0,0-.67676-.27166,2.18739,2.18739,0,0,0-1.61187.19958.39306.39306,0,0,1-.46418.01337,3.0574,3.0574,0,0,1-.39111-.44971c-.02856-.03369-.05945-.06543-.08923-.098a.82734.82734,0,0,0,.68542.7868c-.23035.69464-.85742,1.19361-.795,1.98224a.95193.95193,0,0,1-.92108-.63757,5.96867,5.96867,0,0,1-.17212-.74353,1.96249,1.96249,0,0,0-.07471-.21149,1.80332,1.80332,0,0,0,.442,1.54944A1.37739,1.37739,0,0,0,6.26825,49.6922Z"/><path d="M8.69855,59.86847A8.69855,8.69855,0,1,0,0,51.16992,8.69854,8.69854,0,0,0,8.69855,59.86847Zm0-15.73584a7.03729,7.03729,0,1,1-7.0373,7.03729A7.04527,7.04527,0,0,1,8.69855,44.13263Z"/><path d="M48.81,10.24139a2.4464,2.4464,0,0,1,.03595-.35522h-.39118a.35475.35475,0,0,0-.25116.10406L46.7829,11.411a.35467.35467,0,0,0-.10413.25116V13.083a.3552.3552,0,1,0,.71039,0V11.80927l1.21271-1.21271H48.846A2.44387,2.44387,0,0,1,48.81,10.24139Z"/><path d="M4.73871,52.51782a1.566,1.566,0,0,1,.55786-1.19494,1.99219,1.99219,0,0,1,1.28473-.29462c0,.28107-.01624.53.00433.77588A.552.552,0,0,1,6.285,52.423a1.86,1.86,0,0,0-.49365.47785,5.22629,5.22629,0,0,0-.9035,1.73974.88982.88982,0,0,0-.02185.13276l.06732.0299a1.99557,1.99557,0,0,0,.12506-.232A3.64434,3.64434,0,0,1,6.10657,52.9577a4.77226,4.77226,0,0,1,.48352-.29986c0,.53662-.01221.99841.00238,1.45935A1.778,1.778,0,0,0,8.56689,55.93v-.24823c-.0003-1.31732-.00494-2.6347.00477-3.9519.00115-.16016-.117-.45081.17291-.44446.28259.00623.1604.29413.16168.45563.01019,1.30871.00519,2.61749.0058,3.92627,0,.08984.00738.17968.01324.31213.29718-.07281.56458-.12317.82221-.20453a1.47232,1.47232,0,0,0,1.07812-1.18658,4.64641,4.64641,0,0,0,.06415-.73914c.01025-.37353.00269-.74762.00269-1.12146l.07013-.05926a6.694,6.694,0,0,1,.642.50854,3.90648,3.90648,0,0,1,.82966,1.42975,1.08592,1.08592,0,0,0,.12292.19238l.08173-.04413c-.1001-.25677-.18763-.51934-.30262-.76928a3.63644,3.63644,0,0,0-1.36041-1.72254.25526.25526,0,0,1-.07623-.18872c-.00745-.3407-.00348-.68164-.00348-1.02533,1.006-.12359,1.76379.37207,1.80749,1.29853.00251.05279.05512.10315.08442.15466.05432-.0564.06317-.08936.062-.122a1.90775,1.90775,0,0,0-2.19928-1.79761c-.92859.04242-1.85779.081-2.78711.094-.53485.0075-1.07514-.09388-1.60474-.04914a1.73241,1.73241,0,0,0-1.60638,1.4823,2.05933,2.05933,0,0,0-.00324.38044Z"/><path d="M49.28448,42.04388l1.7331-1.73254L49.6507,38.94446l-1.73255,1.73327-1.824-1.82421A18.25185,18.25185,0,0,0,48.40125,29.962c0-.27546-.02881-.54261-.0412-.81519a10.05548,10.05548,0,0,0,7.77343-9.81653H54.20026a8.13085,8.13085,0,0,1-6.029,7.87616,18.3765,18.3765,0,0,0-18.1347-15.6084c-.27545,0-.5426.02887-.81519.04126a10.05482,10.05482,0,0,0-9.81652-7.77343V5.7984A8.13137,8.13137,0,0,1,27.281,11.82812,18.37569,18.37569,0,0,0,11.67267,29.962c0,.27563.02881.54339.0412.816a10.05432,10.05432,0,0,0-7.77344,9.81652H5.87292a8.13246,8.13246,0,0,1,6.02973-7.87677A18.32528,18.32528,0,0,0,38.927,46.01953l1.824,1.8241-1.73328,1.73254,1.36694,1.36688L42.118,49.2099l9.23126,9.23187a5.06753,5.06753,0,0,0,7.16712-7.166ZM30.03656,13.53137A16.44048,16.44048,0,0,1,46.27277,27.56519l-1.90485.31744A14.50628,14.50628,0,0,0,30.03656,15.46387c-.04889,0-.09723.00708-.14679.0083l-.31866-1.91663C29.7276,13.55023,29.87909,13.53137,30.03656,13.53137Zm0,3.86572A12.56534,12.56534,0,1,1,17.47162,29.962,12.58,12.58,0,0,1,30.03656,17.39709ZM13.6059,29.962A16.44032,16.44032,0,0,1,27.63971,13.72662l.31744,1.90485A14.50594,14.50594,0,0,0,15.53839,29.962c0,.04968.00708.098.0083.147l-1.91662.31909C13.62476,30.27179,13.6059,30.11957,13.6059,29.962ZM30.03656,46.39349A16.44031,16.44031,0,0,1,13.80115,32.35956l1.90484-.31732a14.48877,14.48877,0,0,0,28.8288-2.0802c0-.04889-.00653-.09723-.00757-.14679l1.91663-.31867c.0047.1565.02417.30792.02417.46546A16.44929,16.44929,0,0,1,30.03656,46.39349Zm10.5647-1.43414a18.50261,18.50261,0,0,0,4.43268-4.43262l1.51733,1.51715-4.43286,4.4328ZM54.933,57.99219a3.114,3.114,0,0,1-2.21643-.9173l-9.23126-9.23126,4.4328-4.43286,9.23126,9.23132a3.13446,3.13446,0,0,1-2.21637,5.3501Z"/><path d="M51.65161,3.48126V3.09009a.3552.3552,0,1,0-.71039,0v.39117a1.76979,1.76979,0,0,1,.71039,0Z"/><path d="M54.3891,9.99023a.35475.35475,0,0,0-.25116-.10406h-.391a2.46466,2.46466,0,0,1,.03589.35522,2.4621,2.4621,0,0,1-.03589.35517h.24395l1.21271,1.21271V13.083a.35523.35523,0,0,0,.71045,0V11.66217a.3551.3551,0,0,0-.10406-.25116Z"/><path d="M51.30115,17.39716A8.69855,8.69855,0,1,0,42.6026,8.69861,8.69854,8.69854,0,0,0,51.30115,17.39716Zm0-15.73584a7.03729,7.03729,0,1,1-7.0373,7.03729A7.04527,7.04527,0,0,1,51.30115,1.66132Z"/><path d="M49.56177,8.46545a2.47292,2.47292,0,0,1,3.46917,0,2.47665,2.47665,0,0,0,.75184-1.776,2.48683,2.48683,0,1,0-4.97278,0A2.47635,2.47635,0,0,0,49.56177,8.46545Z"/><path d="M48.34723,9.17584l.57086.38056a2.45309,2.45309,0,0,1,.21961-.52448,3.43982,3.43982,0,0,1-.88642-1.42059l-.86212-.43109V4.658l1.31677-1.31677a.35517.35517,0,0,0-.50232-.50226L46.7829,4.25977a.35438.35438,0,0,0-.10413.25109v2.889a.35529.35529,0,0,0,.19635.31775l1.49585.74786H47.01038a.355.355,0,0,0-.15888.03748l-1.42084.71039a.35526.35526,0,0,0,.31775.6355l1.34589-.673Z"/><path d="M55.20355,4.658V7.18024l-.862.43109A3.44021,3.44021,0,0,1,53.45514,9.032a2.45094,2.45094,0,0,1,.21948.52442l.57086-.38056h1.25306l1.34582.673a.35527.35527,0,0,0,.31781-.6355l-1.42084-.71039a.3549.3549,0,0,0-.15881-.03748h-1.3606l1.49573-.74786a.3554.3554,0,0,0,.19635-.31775v-2.889a.35482.35482,0,0,0-.10406-.25109L54.3891,2.83893a.35517.35517,0,0,0-.50232.50226Z"/><path d="M53.54791,11.28027a2.495,2.495,0,0,1-.47558.69574v.9599l-1.31678,1.31665a.35519.35519,0,1,0,.50232.50232l1.42078-1.42071a.35492.35492,0,0,0,.10413-.25116V11.66217a.35492.35492,0,0,0-.10413-.25116Z"/><path d="M51.65161,12.37262a.35523.35523,0,0,0,.71045,0v-.71948a1.77608,1.77608,0,1,0-2.13123,0v.71948a.3552.3552,0,0,0,.71039,0v-.39117a1.77268,1.77268,0,0,0,.71039,0Z"/><path d="M49.52039,12.93591V11.976a2.4999,2.4999,0,0,1-.47559-.69574l-.13074.13074a.35485.35485,0,0,0-.10406.25116V13.083a.35485.35485,0,0,0,.10406.25116l1.42078,1.42071a.35519.35519,0,1,0,.50232-.50232Z"/></g></g></svg>