<svg xmlns="http://www.w3.org/2000/svg" viewBox="0 0 52.06538 60"><title>wetsNile</title><g id="Layer_2" data-name="Layer 2"><g id="Layer_1-2" data-name="Layer 1"><path d="M0,45.51656c2.92815-1.2152,5.84939-2.44744,8.78669-3.64011a7.53449,7.53449,0,0,0,4.44006-4.89537c.26229-.78546.58181-1.55188.84105-2.33825a7.11211,7.11211,0,0,1,5.42064-5.18643,7.16053,7.16053,0,0,0,3.17-1.67621c-2.35928,0-4.72472-.0926-7.07362.06361a2.32963,2.32963,0,0,0-1.67713,1.34228C12.37742,34.857,7.614,35.5943,2.96279,36.54218a1.67664,1.67664,0,0,1-1.23421-.08589c1.7723-.49735,3.53045-1.05447,5.32015-1.47837,2.83906-.67245,4.85951-2.09241,5.61813-5.11311A4.1809,4.1809,0,0,1,17.078,26.54475c-2.8922-.73741-5.53551-1.30118-8.10556-2.10051-2.16563-.67355-4.10027-1.85846-4.84611-4.17687-.26887-.83575-.41311-2.17219.04581-2.66306a3.29991,3.29991,0,0,1,2.74615-.68922c5.43011,1.36319,10.80988,2.92567,16.22405,4.35505a8.33035,8.33035,0,0,0,2.27138-.03837c-.15423-.68436-.27139-1.38011-.47684-2.04873a3.37658,3.37658,0,0,0-.58634-1.0954c-2.174-2.70573-2.22618-5.31726.114-8.00174,1.17977-1.35333.77943-2.99434.28843-4.53571A24.54986,24.54986,0,0,1,23.3966,0,51.3402,51.3402,0,0,1,25.59,7.05664a6.39274,6.39274,0,0,1-1.0472,4.03937c-1.23473,1.97548-1.47015,3.60873.22815,5.39267a27.94136,27.94136,0,0,1,2.17839,2.9439l2.6689-1.04771c-.355-1.99437.01216-3.32892,2.55821-2.71319.3053.07383.94264-.65984,1.22125-1.13847A52.9962,52.9962,0,0,1,37.3872,8.2114c-1.07254,2.205-2.20024,4.3859-3.17933,6.63161a2.51662,2.51662,0,0,0,.02664,2.0018c1.15641,1.91078,1.08322,2.35765-1.04838,3.38137l.68265,2.94569a33.36337,33.36337,0,0,0,5.16941-.07842A3.27627,3.27627,0,0,0,41.33572,21.396c1.13173-3.77925,4.0231-5.00986,7.43533-5.6897a12.0446,12.0446,0,0,1,3.29433-.43658c-1.414.4011-2.81328.868-4.24522,1.18922-2.74712.61616-4.86505,1.87993-5.59352,4.83-.75737,3.067-3.41751,2.70889-5.67159,3.13348a33.9,33.9,0,0,0-3.32747.96814,17.63977,17.63977,0,0,0,2.10268,2.56559c3.55579,3.001,7.18865,5.91063,10.78652,8.862a5.26526,5.26526,0,0,1,1.35638,1.28078c.44.78891,1.12927,1.9067.86222,2.50558A3.65672,3.65672,0,0,1,45.973,42.28768a7.61917,7.61917,0,0,1-6.38877-1.85056c-1.83458-1.4517-3.54829-3.05616-5.59452-4.83685a4.939,4.939,0,0,1-.92393,5.58582,5.93721,5.93721,0,0,0-.94984,6.23067c.71981,1.99141,1.39346,3.9995,2.08749,6.00023l-.59112.18789a85.723,85.723,0,0,1-2.58562-9.03c-.2085-1.13874.70851-2.64781,1.45231-3.76073,1.33868-2.003,1.45239-3.70906-.2582-5.55491a32.71713,32.71713,0,0,0-3.2234-3.6242c.29679,1.1465.51848,2.31906.90566,3.43417.86505,2.49139.72235,4.98393-1.03172,6.86345-3.97584,4.2602-3.59968,8.97811-2.07214,13.96657A10.41418,10.41418,0,0,1,27.34867,60c-.64719-2.56408-1.26937-5.13479-1.94755-7.69064a10.952,10.952,0,0,1,2.08041-9.93657c2.68133-3.60806,2.50288-4.38621-.02693-9.62667a44.0644,44.0644,0,0,0-1.73246,4.11947A15.11172,15.11172,0,0,1,19.16729,45.416a15.02,15.02,0,0,1-1.83176.85793C15.74494,39.811,19.1967,35.17833,22.80241,30.177c-3.44542.5661-6.6654.64782-7.55,4.14513-1.55483,6.147-6.09146,8.68413-11.56511,10.30568-1.23092.36465-2.43733.812-3.655,1.22132Z"/></g></g></svg>