<?xml version="1.0" encoding="utf-8"?>
<!-- Generator: Adobe Illustrator 21.0.2, SVG Export Plug-In . SVG Version: 6.00 Build 0)  -->
<svg version="1.1" id="Layer_1" xmlns="http://www.w3.org/2000/svg" xmlns:xlink="http://www.w3.org/1999/xlink" x="0px" y="0px"
	 viewBox="0 0 224.3 242.3" style="enable-background:new 0 0 224.3 242.3;" xml:space="preserve">
<style type="text/css">
	.st0{fill:#FFFFFF;}
	.st1{fill:url(#SVGID_1_);}
	.st2{fill:#FDDD10;}
</style>
<circle class="st0" cx="111.9" cy="121.8" r="94.2"/>
<g id="Layer_1_1_">
	
		<radialGradient id="SVGID_1_" cx="111.9072" cy="669.79" r="94.1556" gradientTransform="matrix(1 0 0 1 0 -548)" gradientUnits="userSpaceOnUse">
		<stop  offset="2.000000e-02" style="stop-color:#FFEEAC"/>
		<stop  offset="0.8" style="stop-color:#FEE258"/>
		<stop  offset="0.98" style="stop-color:#FDDD10"/>
	</radialGradient>
	<path class="st1" d="M111.9,37.6l11.5,65.4l46.8-27.5l-33.5,40.7l53.4,5.5l-53.4,5.5l33.5,40.7l-46.8-27.5l-11.5,65.4l-11.5-65.4
		L53.7,168l33.5-40.7l-53.4-5.5l53.4-5.5L53.7,75.6l46.8,27.5L111.9,37.6z M111.9,27.6c-52,0-94.2,42.2-94.2,94.2
		s42.2,94.2,94.2,94.2c52,0,94.2-42.2,94.2-94.2S163.9,27.6,111.9,27.6z"/>
	<polygon class="st2" points="111.9,80.5 117.6,112.6 140.5,99.1 124.1,119.1 150.3,121.8 124.1,124.5 140.5,144.5 117.6,131 
		111.9,163.1 106.3,131 83.3,144.5 99.8,124.5 73.6,121.8 99.8,119.1 83.3,99.1 106.3,112.6 	"/>
</g>
</svg>
