<?xml version="1.0" encoding="utf-8"?>
<!-- Generator: Adobe Illustrator 21.1.0, SVG Export Plug-In . SVG Version: 6.00 Build 0)  -->
<svg version="1.1" id="Layer_1" xmlns="http://www.w3.org/2000/svg" xmlns:xlink="http://www.w3.org/1999/xlink" x="0px" y="0px"
	 viewBox="0 0 285.1870117 242.3190002" style="enable-background:new 0 0 285.1870117 242.3190002;" xml:space="preserve">
<style type="text/css">
	.st0{fill:none;}
	.st1{fill:url(#SVGID_1_);}
	.st2{fill:url(#SVGID_2_);}
	.st3{fill:url(#SVGID_3_);}
	.st4{fill:#FDDD10;}
</style>
<g id="Layer_2">
	<rect y="214.6609955" class="st0" width="27.5400009" height="27.5399933"/>
	<rect y="214.6609955" class="st0" width="27.5400009" height="27.5399933"/>
	<rect class="st0" width="27.5400009" height="27.5399933"/>
	<rect class="st0" width="27.5400009" height="27.5399933"/>
	<rect x="257.6470032" y="214.779007" class="st0" width="27.5400085" height="27.5399933"/>
	<rect x="257.6470032" y="0.1180115" class="st0" width="27.5400085" height="27.5399933"/>
</g>
<g id="Layer_1_1_">
	
		<linearGradient id="SVGID_1_" gradientUnits="userSpaceOnUse" x1="159.6182098" y1="29.3390045" x2="159.6182098" y2="61.2890015" gradientTransform="matrix(1 0 0 -1 0 244)">
		<stop  offset="0" style="stop-color:#131D20"/>
		<stop  offset="0.0237569" style="stop-color:#131D20"/>
		<stop  offset="0.1677377" style="stop-color:#252D2F"/>
		<stop  offset="0.7414711" style="stop-color:#535354"/>
		<stop  offset="1" style="stop-color:#645F5F"/>
	</linearGradient>
	<path class="st1" d="M140.3220825,196.7929993v-9.0029907c0-2.2160034,0.0919952-2.355011,1.9850006-2.355011
		c3.6009979,0,6.048996,2.6779938,6.048996,6.8330078c0,2.723999-0.8779907,4.2009888-1.6629944,4.9869995
		c-0.8769989,0.8769989-1.8470001,1.2929993-3.5090027,1.2929993
		C140.460083,198.5480042,140.3220825,198.4089966,140.3220825,196.7929993 M130.8110809,183.727005
		c-0.5540009,0.2310028-0.5540009,1.3849945-0.0930023,1.6159973l1.2470093,0.1840057
		c1.9389954,0.2769928,2.0309906,0.7849884,2.0309906,5.4019928v16.3450012c0,4.246994-0.276001,4.5709991-2.3539886,4.9400024
		l-1.2470093,0.2299957c-0.3690033,0.2319946-0.3690033,1.3399963,0,1.6170044
		c2.401001-0.0930023,4.4329987-0.1390076,6.7409973-0.1390076c2.2160034,0,4.3400116,0.0460052,6.7870026,0.1390076
		c0.322998-0.2770081,0.322998-1.3850098,0-1.6170044l-1.2460022-0.2299957
		c-2.0789948-0.3690033-2.3549957-0.6930084-2.3549957-4.9400024v-5.6790009c0-0.923996,0.0919952-1.0160065,1.7080078-1.0160065
		c1.1539917,0,1.8929901,0.3700104,2.446991,1.6160126c1.0619965,2.446991,2.1230011,4.7089996,3.6009979,7.1559906
		c2.0320129,3.3249969,4.7100067,4.8480072,8.9570007,4.8480072c1.4320068,0,2.9090118-0.0920105,3.6480103-0.4150085
		c0.2309875-0.2779999,0.2309875-0.9700012-0.1850128-1.2009888c-0.6929932-0.0460052-1.8929901-0.3230133-3.0929871-1.2920074
		c-2.2170105-1.8930054-4.1090088-5.3560028-7.1570129-11.5429993c-0.2299957-0.5079956-0.2299957-0.7850037,0.2310028-1.0160065
		c2.1240082-1.0619965,4.8939972-2.8159943,4.8939972-6.9249878c0-2.9550018-1.3849945-5.2640076-4.0629883-6.8330078
		c-1.7539978-1.0619965-5.1240082-1.6629944-9.0490112-1.6629944
		C137.8750916,183.3110046,134.2730865,183.4960022,130.8110809,183.727005 M165.2940826,186.8200073
		c-3.1860046,2.6319885-5.5859985,6.6029968-5.5859985,12.2350006c0,5.7259979,2.5390015,9.5569916,5.8639984,12.0970001
		c3.2770081,2.446991,7.8940125,3.5089874,12.4200134,3.5089874c3.6009979,0,6.8789978-1.0159912,9.371994-1.7079926
		c0.6459961-1.0619965,1.4309998-3.8320007,1.7539978-7.2490082c-0.2769928-0.5539856-1.3849945-0.6929932-1.7539978-0.3239899
		c-1.2460022,3.1399994-3.8320007,7.1569977-9.4179993,7.1569977c-5.5420074,0-10.8509979-4.9400024-10.8509979-14.128006
		c0-9.1879883,5.4949951-13.5740051,10.6190033-13.5740051c4.4789886,0,7.4329987,2.3090057,8.6799927,6.602005
		c0.3240051,0.4150085,1.5700073,0.2310028,1.7550049-0.322998c-0.4160004-2.6779938-0.5540009-6.371994-0.5540009-7.2019958
		c-1.3860016-0.0930023-4.802002-1.201004-9.5120087-1.201004
		C173.2820892,182.7109985,168.5730896,184.0960083,165.2940826,186.8200073"/>
	
		<linearGradient id="SVGID_2_" gradientUnits="userSpaceOnUse" x1="112.7967453" y1="29.9389954" x2="112.7967453" y2="61.2890015" gradientTransform="matrix(1 0 0 -1 0 244)">
		<stop  offset="0" style="stop-color:#000000"/>
		<stop  offset="0.102136" style="stop-color:#000000"/>
		<stop  offset="0.2697589" style="stop-color:#0E171A"/>
		<stop  offset="0.4813125" style="stop-color:#1F272A"/>
		<stop  offset="0.7084354" style="stop-color:#283033"/>
		<stop  offset="0.976243" style="stop-color:#2B3336"/>
		<stop  offset="1" style="stop-color:#2B3336"/>
	</linearGradient>
	<path class="st2" d="M107.7440796,199.6549988l1.1549988-3.4619904c0.6920013-2.1240082,1.6150055-4.6170044,1.9850006-5.6790009
		c0.4150009,0.9689941,1.2460022,3.4619904,1.8930054,5.447998l1.1999969,3.7399902
		c0.3690033,1.2000122,0.1389999,1.3380127-0.9229965,1.3380127h-4.340004
		C107.559082,201.0400085,107.3290787,200.9020081,107.7440796,199.6549988 M110.0990829,185.4810028
		c0.1389999,1.3390045-0.6470032,2.9550018-1.7080002,5.8639984l-4.2020035,11.2649994
		c-1.2470016,3.3249969-2.1240005,5.5400085-2.9089966,7.3880005c-0.784996,1.8000031-1.7080002,2.1699982-2.8160019,2.3090057
		l-1.2459946,0.1369934c-0.3240051,0.3699951-0.3700027,1.3399963,0.1379929,1.6170044
		c2.1240005,0,3.1850052-0.1390076,4.7560043-0.1390076c1.9379959,0.0460052,3.6009979,0.0460052,5.2169952,0.1390076
		c0.4620056-0.2320099,0.3690033-1.2929993,0.0920029-1.6170044l-1.3850021-0.2299957
		c-1.2929993-0.2310028-1.8929977-0.5080109-1.8929977-0.7850037c0-0.3699951,0.0459976-0.7389984,0.322998-1.6620026
		l1.8010025-5.3560028c0.2770004-0.8779907,0.4150009-0.9230042,1.5240021-0.9230042h5.4929962
		c1.6169968,0,1.9860001,0.0920105,2.2170029,0.8310089l1.246994,3.9700012
		c0.5540009,1.7089996,0.8770065,2.8170013,0.8770065,3.1399994c0,0.2769928-0.1850052,0.6000061-1.2470016,0.7850037
		l-1.477005,0.2299957c-0.5079956,0.3699951-0.4159927,1.3399963,0.0920029,1.6170044
		c2.1240005-0.0930023,3.9240036-0.1390076,6.2330017-0.1390076c2.401001,0,4.8939972,0.0460052,7.1100082,0.1390076
		c0.4160004-0.2770081,0.322998-1.3850098,0.0469971-1.6170044l-1.7550049-0.276001
		c-1.7089996-0.2769928-2.1240005-1.3390045-3.0940018-4.1089935l-6.2789993-18.0990143
		c-1.1539993-3.2779846-1.7080002-4.9859924-2.0770035-6.3249817c-0.1849976-0.6940002-0.461998-0.9240112-1.0619965-0.9240112
		C114.0230789,182.7109985,112.3150787,184.973999,110.0990829,185.4810028"/>
	<g>
		
			<radialGradient id="SVGID_3_" cx="142.9888306" cy="146.8923187" r="62.7704163" gradientTransform="matrix(1 0 0 -1 0 244)" gradientUnits="userSpaceOnUse">
			<stop  offset="0.51" style="stop-color:#FFEEAC"/>
			<stop  offset="0.95" style="stop-color:#FDDD10"/>
		</radialGradient>
		<path class="st3" d="M142.9900818,41.0100517l7.6671295,43.598835l31.1700745-18.3260651l-22.3322449,27.1639099
			l35.5852509,3.6609573l-35.5852509,3.6597137l22.3322449,27.1626511l-31.1700745-18.322319l-7.6671295,43.5975876
			l-7.6671448-43.5975876l-31.1700668,18.322319l22.3297348-27.1626511l-35.583992-3.6597137l35.583992-3.6609573
			l-22.3297348-27.1639099l31.1700668,18.3260651L142.9900818,41.0100517z M142.9900818,34.3372726
			c-34.6684494,0-62.7716675,28.1032257-62.7716675,62.7704163s28.1032181,62.7704086,62.7716675,62.7704086
			c34.6659241,0,62.769165-28.1032257,62.769165-62.7704086S177.6560059,34.3372726,142.9900818,34.3372726z"/>
		<polygon class="st4" points="142.9891968,69.568428 146.7527161,90.9713516 162.0544586,81.9759216 151.0915833,95.3102264 
			168.5608826,97.1075668 151.0915833,98.9036484 162.0544586,112.2392044 146.7527161,103.2437668 142.9891968,124.646698 
			139.2256775,103.2437668 123.9239349,112.2392044 134.8855591,98.9036484 117.4175034,97.1075668 134.8855591,95.3102264 
			123.9239349,81.9759216 139.2256775,90.9713516 		"/>
	</g>
</g>
</svg>
