<?xml version="1.0" encoding="utf-8"?>
<!-- Generator: Adobe Illustrator 21.1.0, SVG Export Plug-In . SVG Version: 6.00 Build 0)  -->
<svg version="1.1" id="Layer_1" xmlns="http://www.w3.org/2000/svg" xmlns:xlink="http://www.w3.org/1999/xlink" x="0px" y="0px"
	 viewBox="0 0 285.1870117 242.3190002" style="enable-background:new 0 0 285.1870117 242.3190002;" xml:space="preserve">
<style type="text/css">
	.st0{fill:none;}
	.st1{fill:url(#SVGID_1_);}
	.st2{fill:#FFFFFF;}
	.st3{fill:none;stroke:#FDDD10;stroke-width:3.5929999;stroke-linecap:round;stroke-linejoin:round;stroke-miterlimit:10;}
	.st4{fill:url(#SVGID_2_);}
	.st5{fill:url(#SVGID_3_);}
	.st6{fill:url(#SVGID_4_);}
</style>
<g id="Layer_2">
	<rect y="214.6609955" class="st0" width="27.5400009" height="27.5399933"/>
	<rect y="214.6609955" class="st0" width="27.5400009" height="27.5399933"/>
	<rect class="st0" width="27.5400009" height="27.5399933"/>
	<rect class="st0" width="27.5400009" height="27.5399933"/>
	<rect x="257.6470032" y="214.779007" class="st0" width="27.5400085" height="27.5399933"/>
	<rect x="257.6470032" y="0.1180115" class="st0" width="27.5400085" height="27.5399933"/>
	
		<radialGradient id="SVGID_1_" cx="142.9071655" cy="146.890976" r="62.7704163" gradientTransform="matrix(1 0 0 -1 0 244)" gradientUnits="userSpaceOnUse">
		<stop  offset="0.02" style="stop-color:#FFEEAC"/>
		<stop  offset="0.8" style="stop-color:#FEE258"/>
		<stop  offset="0.98" style="stop-color:#FDDD10"/>
	</radialGradient>
	<path class="st1" d="M142.9084167,34.338604c-34.6684341,0-62.7716599,28.1032295-62.7716599,62.7704124
		s28.1032257,62.7704239,62.7716599,62.7704239c34.6659393,0,62.769165-28.1032257,62.769165-62.7704239
		S177.5743561,34.338604,142.9084167,34.338604z"/>
	<path class="st2" d="M140.0303955,145.7658997c-0.0439911-2.7539978,1.0510101-4.6429901,2.3380127-6.3249969
		c0.1079865,0.0350037,0.2159882,0.0700073,0.3249969,0.105011c-0.1600037,2.7839966-0.2949982,5.5699921-0.503006,8.344986
		c-0.0339966,0.4440002-0.3779907,1.1430054-0.6109924,1.1740112c-0.3200073,0.0419922-0.8190002-0.3190002-0.9780121-0.7290039
		C140.3023987,147.5628967,140.0444031,146.6369019,140.0303955,145.7658997 M144.3603973,139.5779114
		c0.1040039-0.0350037,0.2080078-0.0690002,0.3120117-0.1030121c1.3819885,1.9470062,2.5559845,4.0430145,2.2249908,7.1830139
		c-0.0339966,0.3279877-0.0599976,0.7359924-0.1999969,0.9459839c-0.378006,0.5619965-0.8150024,1.0370026-1.2290039,1.5470123
		c-0.2659912-0.6300049-0.7189941-1.2310028-0.7669983-1.8959961
		C144.517395,144.7068939,144.4634094,142.1389008,144.3603973,139.5779114 M137.0364075,144.8199005
		c-0.7410126,2.1529999-0.4970093,3.6500092,0.7529907,5.1309967c1.6419983,1.9470062,3.5770111,2.5710144,6.3619995,2.7579956
		c0.7400055-0.2939911,2.2389984-0.6159821,3.576004-1.4789886c3.0090027-1.9420013,3.4700012-4.5679932,1.3699951-8.302002
		c-1.3239899-2.3549957-2.9199982-4.4109955-4.5149994-6.3909912c-1.2969971-1.6100006-0.8939972-1.3870087-2.2009888-0.0279999
		c-0.4910126,0.5109863-0.9550018,1.0839996-1.4120026,1.6620026
		C139.4414062,140.1079102,137.9644012,142.1239014,137.0364075,144.8199005 M127.1084061,79.1999054
		c0.0719986-0.1320038,0.1449966-0.2639923,0.2180023-0.3959961c-1.5490036-6.427002-3.4300003-12.6100006-6.5440063-17.7890015
		c-2.609993-4.3419952-9.5369949-10.9689941-11.1809921-11.0930023c0.3239975,1.2480011,0.7129974,2.6180115,1.0359955,4.0210114
		c0.7550049,3.2759857,1.413002,6.6019897,2.227005,9.844986c1.1989975,4.7779999,3.4159927,8.3360138,6.5189972,10.5299988
		C121.907402,76.1019135,124.5294037,77.5839081,127.1084061,79.1999054 M163.8713989,96.4519043
		c-2.4210052-9.3069916-6.4049988-17.04599-11.1179962-24.0629883c-2.529007-3.7660065-5.6000061-5.4660034-9.1549988-5.4750061
		c-3.3390045-0.0079956-6.3720093,1.2359924-8.8220062,4.7559967c-5.2809906,7.5870056-9.6979904,16.0279999-12.0489883,26.5140076
		c-0.3650055,1.6279907-0.4920044,3.1499939,0.060997,4.7509918c2.5069962,7.2649994,6.1759949,12.6649933,11.4189911,15.5649948
		c0.2819977,0.1559982,0.576004,0.2700043,0.9710083,0.4530029c-0.223999-1.836998-0.4260101-3.4950027-0.6719971-5.5129929
		c3.2689972,8.5519943,5.2379913,17.0109863,2.5829926,26.5569916c0.4349976-0.375,0.6399994-0.9019928,0.9329987-1.2779999
		c1.5769958-2.0240021,3.177002-4.0079956,4.7660065-6.0110016c0.493988-0.621994,0.9619904-0.5540009,1.4420013,0.0410004
		c1.447998,1.7929993,2.9109955,3.5579987,4.345993,5.3710022c0.4120026,0.5209961,0.7489929,1.1719971,1.1199951,1.7630005
		c-0.6139984-4.5460052-1.4609985-8.8860016-0.7789917-13.5c0.6620026-4.4729996,1.9899902-8.5100021,3.4949951-12.4689941
		c-0.1929932,1.6289902-0.3869934,3.2589951-0.5839996,4.9169922c0.1999969,0,0.2610016,0.0220032,0.3119965-0.0029984
		c5.3670044-2.6800003,9.1990051-7.9549942,11.8209991-15.2419968c0.5130005-1.427002,0.8570099-2.9530029,0.4630127-4.6150055
		C164.2274017,98.1369019,164.0843964,97.2749023,163.8713989,96.4519043 M177.6334076,49.8719025
		c-9.256012,5.2779999-15.1450043,15.0490112-17.9890137,29.4450073c2.723999-1.6929932,5.3070068-3.147995,7.8000031-4.8849945
		c3.1340027-2.1850128,5.4029999-5.7020111,6.6289978-10.529007c0.7310028-2.8800049,1.3700104-5.8119965,2.0210114-8.7350006
		C176.5003967,53.3459167,176.5023956,51.2799072,177.6334076,49.8719025"/>
	<path class="st3" d="M140.0303955,145.7658997c-0.0439911-2.7539978,1.0510101-4.6429901,2.3380127-6.3249969
		c0.1079865,0.0350037,0.2159882,0.0700073,0.3249969,0.105011c-0.1600037,2.7839966-0.2949982,5.5699921-0.503006,8.344986
		c-0.0339966,0.4440002-0.3779907,1.1430054-0.6109924,1.1740112c-0.3200073,0.0419922-0.8190002-0.3190002-0.9780121-0.7290039
		C140.3023987,147.5628967,140.0444031,146.6369019,140.0303955,145.7658997z M144.3603973,139.5779114
		c0.1040039-0.0350037,0.2080078-0.0690002,0.3120117-0.1030121c1.3819885,1.9470062,2.5559845,4.0430145,2.2249908,7.1830139
		c-0.0339966,0.3279877-0.0599976,0.7359924-0.1999969,0.9459839c-0.378006,0.5619965-0.8150024,1.0370026-1.2290039,1.5470123
		c-0.2659912-0.6300049-0.7189941-1.2310028-0.7669983-1.8959961
		C144.517395,144.7068939,144.4634094,142.1389008,144.3603973,139.5779114z M137.0364075,144.8199005
		c-0.7410126,2.1529999-0.4970093,3.6500092,0.7529907,5.1309967c1.6419983,1.9470062,3.5770111,2.5710144,6.3619995,2.7579956
		c0.7400055-0.2939911,2.2389984-0.6159821,3.576004-1.4789886c3.0090027-1.9420013,3.4700012-4.5679932,1.3699951-8.302002
		c-1.3239899-2.3549957-2.9199982-4.4109955-4.5149994-6.3909912c-1.2969971-1.6100006-0.8939972-1.3870087-2.2009888-0.0279999
		c-0.4910126,0.5109863-0.9550018,1.0839996-1.4120026,1.6620026
		C139.4414062,140.1079102,137.9644012,142.1239014,137.0364075,144.8199005z M127.1084061,79.1999054
		c0.0719986-0.1320038,0.1449966-0.2639923,0.2180023-0.3959961c-1.5490036-6.427002-3.4300003-12.6100006-6.5440063-17.7890015
		c-2.609993-4.3419952-9.5369949-10.9689941-11.1809921-11.0930023c0.3239975,1.2480011,0.7129974,2.6180115,1.0359955,4.0210114
		c0.7550049,3.2759857,1.413002,6.6019897,2.227005,9.844986c1.1989975,4.7779999,3.4159927,8.3360138,6.5189972,10.5299988
		C121.907402,76.1019135,124.5294037,77.5839081,127.1084061,79.1999054z M163.8713989,96.4519043
		c-2.4210052-9.3069916-6.4049988-17.04599-11.1179962-24.0629883c-2.529007-3.7660065-5.6000061-5.4660034-9.1549988-5.4750061
		c-3.3390045-0.0079956-6.3720093,1.2359924-8.8220062,4.7559967c-5.2809906,7.5870056-9.6979904,16.0279999-12.0489883,26.5140076
		c-0.3650055,1.6279907-0.4920044,3.1499939,0.060997,4.7509918c2.5069962,7.2649994,6.1759949,12.6649933,11.4189911,15.5649948
		c0.2819977,0.1559982,0.576004,0.2700043,0.9710083,0.4530029c-0.223999-1.836998-0.4260101-3.4950027-0.6719971-5.5129929
		c3.2689972,8.5519943,5.2379913,17.0109863,2.5829926,26.5569916c0.4349976-0.375,0.6399994-0.9019928,0.9329987-1.2779999
		c1.5769958-2.0240021,3.177002-4.0079956,4.7660065-6.0110016c0.493988-0.621994,0.9619904-0.5540009,1.4420013,0.0410004
		c1.447998,1.7929993,2.9109955,3.5579987,4.345993,5.3710022c0.4120026,0.5209961,0.7489929,1.1719971,1.1199951,1.7630005
		c-0.6139984-4.5460052-1.4609985-8.8860016-0.7789917-13.5c0.6620026-4.4729996,1.9899902-8.5100021,3.4949951-12.4689941
		c-0.1929932,1.6289902-0.3869934,3.2589951-0.5839996,4.9169922c0.1999969,0,0.2610016,0.0220032,0.3119965-0.0029984
		c5.3670044-2.6800003,9.1990051-7.9549942,11.8209991-15.2419968c0.5130005-1.427002,0.8570099-2.9530029,0.4630127-4.6150055
		C164.2274017,98.1369019,164.0843964,97.2749023,163.8713989,96.4519043z M177.6334076,49.8719025
		c-9.256012,5.2779999-15.1450043,15.0490112-17.9890137,29.4450073c2.723999-1.6929932,5.3070068-3.147995,7.8000031-4.8849945
		c3.1340027-2.1850128,5.4029999-5.7020111,6.6289978-10.529007c0.7310028-2.8800049,1.3700104-5.8119965,2.0210114-8.7350006
		C176.5003967,53.3459167,176.5023956,51.2799072,177.6334076,49.8719025z"/>
	<path class="st2" d="M140.0303955,145.7658997c-0.0439911-2.7539978,1.0510101-4.6429901,2.3380127-6.3249969
		c0.1079865,0.0350037,0.2159882,0.0700073,0.3249969,0.105011c-0.1600037,2.7839966-0.2949982,5.5699921-0.503006,8.344986
		c-0.0339966,0.4440002-0.3779907,1.1430054-0.6109924,1.1740112c-0.3200073,0.0419922-0.8190002-0.3190002-0.9780121-0.7290039
		C140.3023987,147.5628967,140.0444031,146.6369019,140.0303955,145.7658997 M144.3603973,139.5779114
		c0.1040039-0.0350037,0.2080078-0.0690002,0.3120117-0.1030121c1.3819885,1.9470062,2.5559845,4.0430145,2.2249908,7.1830139
		c-0.0339966,0.3279877-0.0599976,0.7359924-0.1999969,0.9459839c-0.378006,0.5619965-0.8150024,1.0370026-1.2290039,1.5470123
		c-0.2659912-0.6300049-0.7189941-1.2310028-0.7669983-1.8959961
		C144.517395,144.7068939,144.4634094,142.1389008,144.3603973,139.5779114 M137.0364075,144.8199005
		c-0.7410126,2.1529999-0.4970093,3.6500092,0.7529907,5.1309967c1.6419983,1.9470062,3.5770111,2.5710144,6.3619995,2.7579956
		c0.7400055-0.2939911,2.2389984-0.6159821,3.576004-1.4789886c3.0090027-1.9420013,3.4700012-4.5679932,1.3699951-8.302002
		c-1.3239899-2.3549957-2.9199982-4.4109955-4.5149994-6.3909912c-1.2969971-1.6100006-0.8939972-1.3870087-2.2009888-0.0279999
		c-0.4910126,0.5109863-0.9550018,1.0839996-1.4120026,1.6620026
		C139.4414062,140.1079102,137.9644012,142.1239014,137.0364075,144.8199005 M127.1084061,79.1999054
		c0.0719986-0.1320038,0.1449966-0.2639923,0.2180023-0.3959961c-1.5490036-6.427002-3.4300003-12.6100006-6.5440063-17.7890015
		c-2.609993-4.3419952-9.5369949-10.9689941-11.1809921-11.0930023c0.3239975,1.2480011,0.7129974,2.6180115,1.0359955,4.0210114
		c0.7550049,3.2759857,1.413002,6.6019897,2.227005,9.844986c1.1989975,4.7779999,3.4159927,8.3360138,6.5189972,10.5299988
		C121.907402,76.1019135,124.5294037,77.5839081,127.1084061,79.1999054 M163.8713989,96.4519043
		c-2.4210052-9.3069916-6.4049988-17.04599-11.1179962-24.0629883c-2.529007-3.7660065-5.6000061-5.4660034-9.1549988-5.4750061
		c-3.3390045-0.0079956-6.3720093,1.2359924-8.8220062,4.7559967c-5.2809906,7.5870056-9.6979904,16.0279999-12.0489883,26.5140076
		c-0.3650055,1.6279907-0.4920044,3.1499939,0.060997,4.7509918c2.5069962,7.2649994,6.1759949,12.6649933,11.4189911,15.5649948
		c0.2819977,0.1559982,0.576004,0.2700043,0.9710083,0.4530029c-0.223999-1.836998-0.4260101-3.4950027-0.6719971-5.5129929
		c3.2689972,8.5519943,5.2379913,17.0109863,2.5829926,26.5569916c0.4349976-0.375,0.6399994-0.9019928,0.9329987-1.2779999
		c1.5769958-2.0240021,3.177002-4.0079956,4.7660065-6.0110016c0.493988-0.621994,0.9619904-0.5540009,1.4420013,0.0410004
		c1.447998,1.7929993,2.9109955,3.5579987,4.345993,5.3710022c0.4120026,0.5209961,0.7489929,1.1719971,1.1199951,1.7630005
		c-0.6139984-4.5460052-1.4609985-8.8860016-0.7789917-13.5c0.6620026-4.4729996,1.9899902-8.5100021,3.4949951-12.4689941
		c-0.1929932,1.6289902-0.3869934,3.2589951-0.5839996,4.9169922c0.1999969,0,0.2610016,0.0220032,0.3119965-0.0029984
		c5.3670044-2.6800003,9.1990051-7.9549942,11.8209991-15.2419968c0.5130005-1.427002,0.8570099-2.9530029,0.4630127-4.6150055
		C164.2274017,98.1369019,164.0843964,97.2749023,163.8713989,96.4519043 M177.6334076,49.8719025
		c-9.256012,5.2779999-15.1450043,15.0490112-17.9890137,29.4450073c2.723999-1.6929932,5.3070068-3.147995,7.8000031-4.8849945
		c3.1340027-2.1850128,5.4029999-5.7020111,6.6289978-10.529007c0.7310028-2.8800049,1.3700104-5.8119965,2.0210114-8.7350006
		C176.5003967,53.3459167,176.5023956,51.2799072,177.6334076,49.8719025"/>
	
		<linearGradient id="SVGID_2_" gradientUnits="userSpaceOnUse" x1="213.8426208" y1="29.3390045" x2="213.8426208" y2="61.2890015" gradientTransform="matrix(1 0 0 -1 0 244)">
		<stop  offset="0" style="stop-color:#131D20"/>
		<stop  offset="0.0237569" style="stop-color:#131D20"/>
		<stop  offset="0.1677377" style="stop-color:#252D2F"/>
		<stop  offset="0.7414711" style="stop-color:#535354"/>
		<stop  offset="1" style="stop-color:#645F5F"/>
	</linearGradient>
	<path class="st4" d="M194.5460052,196.7920074v-9.0019989c0-2.2170105,0.0919952-2.355011,1.9850006-2.355011
		c3.6009979,0,6.0479889,2.6779938,6.0479889,6.8330078c0,2.723999-0.8769989,4.2009888-1.6619873,4.9859924
		c-0.878006,0.878006-1.8470001,1.2940063-3.5090027,1.2940063
		C194.6840057,198.5480042,194.5460052,198.4089966,194.5460052,196.7920074 M185.0350037,183.7259979
		c-0.5550079,0.2320099-0.5550079,1.3850098-0.0930023,1.6170044l1.2460022,0.1840057
		c1.9400024,0.2769928,2.0319977,0.7849884,2.0319977,5.4019928v16.3450012c0,4.246994-0.2770081,4.5699921-2.3549957,4.9400024
		l-1.2460022,0.2299957c-0.3690033,0.2319946-0.3690033,1.3399963,0,1.6170044
		c2.401001-0.0930023,4.4319916-0.1390076,6.7409973-0.1390076c2.2160034,0,4.3399963,0.0460052,6.7870026,0.1390076
		c0.322998-0.2770081,0.322998-1.3850098,0-1.6170044l-1.2470093-0.2299957
		c-2.0769958-0.3700104-2.3539886-0.6930084-2.3539886-4.9400024v-5.6790009c0-0.923996,0.0919952-1.0160065,1.7079926-1.0160065
		c1.154007,0,1.8930054,0.3700104,2.4470062,1.6160126c1.0619965,2.446991,2.1239929,4.7089996,3.6009979,7.1559906
		c2.0309906,3.3249969,4.7099915,4.8480072,8.9579926,4.8480072c1.4309998,0,2.9080048-0.0920105,3.6460114-0.4150085
		c0.2319946-0.2779999,0.2319946-0.9700012-0.1840057-1.2009888c-0.6920013-0.0460052-1.8930054-0.3230133-3.0930023-1.2920074
		c-2.2160034-1.8930054-4.1100006-5.3560028-7.1569977-11.5429993c-0.2299957-0.5079956-0.2299957-0.7850037,0.2310028-1.0160065
		c2.1239929-1.0619965,4.8939972-2.8159943,4.8939972-6.9250031c0-2.9549866-1.3849945-5.2639923-4.0630035-6.8329926
		c-1.7539978-1.0619965-5.125-1.6629944-9.0500031-1.6629944
		C192.098999,183.3110046,188.496994,183.4960022,185.0350037,183.7259979 M219.5189972,186.8200073
		c-3.1860046,2.6319885-5.5869904,6.6029968-5.5869904,12.2350006c0,5.7249908,2.5399933,9.5569916,5.8629913,12.0970001
		c3.279007,2.446991,7.8959961,3.5089874,12.4199982,3.5089874c3.602005,0,6.8800049-1.0159912,9.3730011-1.7079926
		c0.6459961-1.0619965,1.4320068-3.8320007,1.7550049-7.2490082c-0.2770081-0.5539856-1.3850098-0.6929932-1.7550049-0.3239899
		c-1.246994,3.1399994-3.8320007,7.1569977-9.4189911,7.1569977c-5.5400085,0-10.8500061-4.9400024-10.8500061-14.128006
		c0-9.1879883,5.4940033-13.5740051,10.6190033-13.5740051c4.4790039,0,7.4339905,2.3090057,8.6809998,6.602005
		c0.322998,0.4150085,1.5690002,0.2310028,1.7539978-0.322998c-0.4150085-2.6779938-0.5540009-6.371994-0.5540009-7.2019958
		c-1.3849945-0.0930023-4.802002-1.201004-9.5110016-1.201004
		C227.5070038,182.7109985,222.7969971,184.0960083,219.5189972,186.8200073"/>
	
		<linearGradient id="SVGID_3_" gradientUnits="userSpaceOnUse" x1="167.02034" y1="29.9389954" x2="167.02034" y2="61.2890015" gradientTransform="matrix(1 0 0 -1 0 244)">
		<stop  offset="0" style="stop-color:#000000"/>
		<stop  offset="0.102136" style="stop-color:#000000"/>
		<stop  offset="0.2697589" style="stop-color:#0E171A"/>
		<stop  offset="0.4813125" style="stop-color:#1F272A"/>
		<stop  offset="0.7084354" style="stop-color:#283033"/>
		<stop  offset="0.976243" style="stop-color:#2B3336"/>
		<stop  offset="1" style="stop-color:#2B3336"/>
	</linearGradient>
	<path class="st5" d="M161.9680023,199.6549988l1.1539917-3.4619904c0.6920013-2.1240082,1.6160126-4.6170044,1.9860077-5.6790009
		c0.4149933,0.9689941,1.2460022,3.4619904,1.8919983,5.447998l1.201004,3.7389984
		c0.3690033,1.201004,0.1389923,1.3390045-0.9230042,1.3390045h-4.3399963
		C161.7830048,201.0400085,161.5529938,200.9020081,161.9680023,199.6549988 M164.322998,185.4810028
		c0.1390076,1.3390045-0.6470032,2.9550018-1.7079926,5.8639984l-4.2020111,11.2649994
		c-1.246994,3.3249969-2.1239929,5.5400085-2.9089966,7.3870087c-0.7850037,1.8009949-1.7079926,2.17099-2.8159943,2.3099976
		l-1.2470093,0.1369934c-0.322998,0.3699951-0.3699951,1.3399963,0.1390076,1.6170044
		c2.1239929,0,3.1849976-0.1390076,4.7550049-0.1390076c1.9389954,0.0460052,3.6009979,0.0460052,5.2179871,0.1390076
		c0.4610138-0.2320099,0.3690033-1.2929993,0.0920105-1.6170044l-1.3860016-0.2299957
		c-1.2920074-0.2310028-1.8919983-0.5080109-1.8919983-0.7850037c0-0.3699951,0.04599-0.7389984,0.322998-1.6620026
		l1.8009949-5.3560028c0.2770081-0.8779907,0.4150085-0.9230042,1.5230103-0.9230042h5.493988
		c1.6159973,0,1.9850006,0.0920105,2.2170105,0.8300171l1.2459869,3.970993
		c0.5550079,1.7080078,0.878006,2.8170013,0.878006,3.1399994c0,0.2769928-0.1860046,0.6000061-1.246994,0.7850037
		l-1.4780121,0.2299957c-0.5069885,0.3699951-0.4149933,1.3399963,0.0930023,1.6170044
		c2.1230011-0.0930023,3.9240112-0.1390076,6.2330017-0.1390076c2.401001,0,4.8939972,0.0460052,7.1100006,0.1390076
		c0.4150085-0.2770081,0.3240051-1.3850098,0.0460052-1.6170044l-1.7550049-0.276001
		c-1.7079926-0.2769928-2.1239929-1.3390045-3.0930023-4.1089935l-6.2789917-18.0990143
		c-1.154007-3.2779999-1.7080078-4.9859924-2.0770111-6.3249817c-0.1849976-0.6940002-0.4619904-0.9240112-1.0619965-0.9240112
		C168.246994,182.7109985,166.5390015,184.973999,164.322998,185.4810028"/>
	
		<linearGradient id="SVGID_4_" gradientUnits="userSpaceOnUse" x1="92.9529419" y1="29.3390045" x2="92.9529419" y2="61.2890015" gradientTransform="matrix(1 0 0 -1 0 244)">
		<stop  offset="0" style="stop-color:#575454"/>
		<stop  offset="0.0043636" style="stop-color:#575454"/>
		<stop  offset="0.3002784" style="stop-color:#656060"/>
		<stop  offset="0.6194659" style="stop-color:#6E6868"/>
		<stop  offset="0.976243" style="stop-color:#706B6B"/>
		<stop  offset="1" style="stop-color:#706B6B"/>
	</linearGradient>
	<path class="st6" d="M70.8880005,196.7920074v-9.0019989c0-2.2170105,0.0920029-2.355011,1.9850006-2.355011
		c3.6019974,0,6.048996,2.6779938,6.048996,6.8330078c0,2.723999-0.8779984,4.2009888-1.6619949,4.9859924
		c-0.8779984,0.878006-1.8470001,1.2940063-3.5090027,1.2940063
		C71.026001,198.5480042,70.8880005,198.4089966,70.8880005,196.7920074 M61.3759995,183.7259979
		c-0.5529976,0.2320099-0.5529976,1.3850098-0.0909996,1.6170044l1.2459984,0.1840057
		c1.9400024,0.2769928,2.0309982,0.7849884,2.0309982,5.4019928v16.3450012c0,4.246994-0.2769928,4.5699921-2.3539963,4.9400024
		l-1.2459984,0.2299957c-0.3700027,0.2319946-0.3700027,1.3399963,0,1.6170044
		c2.3999977-0.0930023,4.4319954-0.1390076,6.7400017-0.1390076c2.2159958,0,4.3399963,0.0460052,6.7869949,0.1390076
		c0.3240051-0.2770081,0.3240051-1.3850098,0-1.6170044l-1.2460022-0.2299957
		c-2.0779953-0.3700104-2.3549957-0.6930084-2.3549957-4.9400024v-5.6790009c0-0.923996,0.0920029-1.0160065,1.7080002-1.0160065
		c1.1549988,0,1.8929977,0.3700104,2.4469986,1.6160126c1.0620041,2.446991,2.1240005,4.7089996,3.6019974,7.1559906
		c2.0310059,3.3249969,4.7089996,4.8480072,8.9570007,4.8480072c1.4309998,0,2.9080048-0.0920105,3.6470032-0.4150085
		c0.2310028-0.2779999,0.2310028-0.9700012-0.1839981-1.2009888c-0.6930008-0.0460052-1.8940048-0.3230133-3.0940018-1.2920074
		c-2.2160034-1.8930054-4.1090012-5.3560028-7.1559982-11.5429993c-0.2320023-0.5079956-0.2320023-0.7850037,0.2299957-1.0160065
		c2.1240005-1.0619965,4.8940048-2.8159943,4.8940048-6.9250031c0-2.9549866-1.3850021-5.2639923-4.0620041-6.8329926
		c-1.7549973-1.0619965-5.125-1.6629944-9.0499954-1.6629944C68.4410019,183.3110046,64.8399963,183.4960022,61.3759995,183.7259979
		 M104.4400024,210.7360077c-0.8320007-0.9690094-0.9240036-2.631012-0.9240036-5.1699982v-16.8530121
		c0-1.4309998,0.0459976-2.3079987,0.322998-2.6779938c0.2779999-0.3690033,1.1539993-0.6000061,2.4020004-0.6000061
		c8.3560028,0,12.7430038,4.9410095,12.7430038,13.2510071c0,6.2789917-2.7249985,13.3889923-10.711998,13.3889923
		C106.6090012,212.0749969,105.2699966,211.6600037,104.4400024,210.7360077 M93.9120026,183.7259979
		c-0.5530014,0.0469971-0.5530014,1.3850098-0.0920029,1.6170044l0.8769989,0.0919952
		c2.1240005,0.2310028,2.2170029,1.1080017,2.2170029,5.4940033v16.3450012c0,4.246994-0.2770004,4.6170044-2.3550034,4.9400024
		l-1.4309998,0.2299957c-0.3699951,0.2319946-0.3699951,1.3399963,0,1.6170044
		c2.6310043-0.0930023,4.9860001-0.1390076,7.2020035-0.1390076c1.6629944,0,3.9710007,0.2770081,6.1409988,0.2770081
		c4.7559967,0,8.5419998-0.6000061,11.6809998-2.1699982c5.3099976-2.631012,8.2649994-7.6180115,8.2649994-13.8050079
		c0-5.7709961-3.3249969-11.2189941-9.3730011-13.3890076c-3.185997-1.1549835-6.9710007-1.5239868-10.7579956-1.5239868
		C101.3919983,183.3110046,97.7910004,183.4960022,93.9120026,183.7259979 M153.7630005,183.4499969
		c-1.7539978,0-3.5090027-0.0469971-5.6790009-0.1389923c-0.5529938,0.2310028-0.5529938,1.201004-0.1840057,1.5699921
		l1.4780121,0.322998c1.1069946,0.2770081,1.4759979,0.4620056,1.4759979,0.7850037
		c0,0.2769928-0.1380005,0.7850037-0.4609985,1.6620026c-0.5540009,1.5700073-2.5390015,6.7409973-3.6940002,9.6499939
		l-1.7539978,4.3399963c-0.5540009,1.3850098-1.2930145,2.9550171-1.6620026,3.7390137l-1.5240021-3.878006l-4.0630035-10.3880005
		c-1.1080017-2.7709961-1.845993-4.7089996-1.845993-5.0789948c0-0.4150085,0.322998-0.6920013,1.1529999-0.8769989
		l1.3849945-0.2770081c0.2779999-0.4160004,0.3240051-1.2919922-0.0449982-1.5699921
		c-2.8170013,0.0919952-4.802002,0.1389923-6.9259949,0.1389923c-2.401001,0-3.9250107-0.0930023-6.279007-0.1389923
		c-0.4160004,0.2310028-0.5550003,1.0619965-0.1849976,1.5699921l1.8470001,0.4620056
		c1.4769897,0.3690033,1.7079926,0.4609985,3.4619904,4.8939972l7.480011,18.7910004
		c0.6459961,1.5700073,1.4309998,4.0169983,1.9400024,5.2630005c0.2759857,0.2319946,0.6919861,0.3699951,1.2459869,0.3699951
		c0.6920013,0,1.2470093-0.1380005,1.6160126-0.3699951c1.0619965-2.5850067,2.2619934-6.2319946,4.6169891-11.8199921
		l3.3700104-7.9869995c1.5699921-3.7400055,2.7249908-6.3250122,3.7409973-7.848999
		c0.598999-0.9690094,1.3849945-1.2920074,2.677002-1.5240021l1.2009888-0.230011
		c0.3230133-0.2769928,0.2770081-1.3849945-0.0929871-1.5699921
		C156.7189941,183.4029999,155.3339996,183.4499969,153.7630005,183.4499969 M38.3100014,199.6549988l1.1539993-3.4619904
		c0.6930008-2.1240082,1.6170006-4.6170044,1.9850006-5.6790009c0.4160004,0.9689941,1.2479973,3.4619904,1.8939972,5.447998
		l1.2010002,3.7389984c0.3689995,1.201004,0.137001,1.3390045-0.9239998,1.3390045h-4.3400002
		C38.1259995,201.0400085,37.8950005,200.9020081,38.3100014,199.6549988 M40.6650009,185.4810028
		c0.1380005,1.3390045-0.6469994,2.9550018-1.7089996,5.8639984l-4.2010002,11.2649994
		c-1.2460022,3.3249969-2.1240005,5.5400085-2.9090004,7.3870087c-0.7840004,1.8009949-1.7080002,2.17099-2.816,2.3099976
		l-1.2469997,0.1369934c-0.3230019,0.3699951-0.3690014,1.3399963,0.1389999,1.6170044
		c2.1239986,0,3.1859989-0.1390076,4.7549973-0.1390076c1.9400024,0.0460052,3.6020012,0.0460052,5.2180023,0.1390076
		c0.4609985-0.2320099,0.3689995-1.2929993,0.0919991-1.6170044l-1.3849983-0.2299957
		c-1.2930031-0.2310028-1.8930016-0.5080109-1.8930016-0.7850037c0-0.3699951,0.0460014-0.7389984,0.3240013-1.6620026
		l1.7999992-5.3560028c0.2770004-0.8779907,0.4150009-0.9230042,1.5229988-0.9230042h5.4950027
		c1.6159973,0,1.9849968,0.0920105,2.2150002,0.8300171l1.2479973,3.970993
		c0.5530014,1.7080078,0.8770027,2.8170013,0.8770027,3.1399994c0,0.2769928-0.1850014,0.6000061-1.2470016,0.7850037
		l-1.4770012,0.2299957c-0.5079994,0.3699951-0.4160004,1.3399963,0.0919991,1.6170044
		c2.1240005-0.0930023,3.9250031-0.1390076,6.2330017-0.1390076c2.401001,0,4.8950005,0.0460052,7.1100006,0.1390076
		c0.4160004-0.2770081,0.322998-1.3850098,0.0460014-1.6170044l-1.7540016-0.276001
		c-1.7080002-0.2769928-2.1240005-1.3390045-3.0929985-4.1089935l-6.2790031-18.0990143
		c-1.1549988-3.2779999-1.7089996-4.9859924-2.0789986-6.3249817c-0.1840019-0.6940002-0.4609985-0.9240112-1.0620003-0.9240112
		C44.5900002,182.7109985,42.8810005,184.973999,40.6650009,185.4810028"/>
</g>
<g id="Layer_1_1_">
</g>
</svg>
