<?xml version="1.0" encoding="utf-8"?>
<!-- Generator: Adobe Illustrator 21.0.0, SVG Export Plug-In . SVG Version: 6.00 Build 0)  -->
<svg version="1.1" id="Layer_1" xmlns="http://www.w3.org/2000/svg" xmlns:xlink="http://www.w3.org/1999/xlink" x="0px" y="0px"
	 viewBox="0 0 285.1870117 242.3190002" style="enable-background:new 0 0 285.1870117 242.3190002;" xml:space="preserve">
<style type="text/css">
	.st0{fill:url(#SVGID_1_);}
	.st1{fill:#FFFFFF;}
	.st2{fill:none;stroke:#FDDD10;stroke-width:5.3894997;stroke-linecap:round;stroke-linejoin:round;stroke-miterlimit:10;}
</style>
<radialGradient id="SVGID_1_" cx="141.9071655" cy="122.890976" r="94.1556244" gradientTransform="matrix(1 0 0 -1 0 244)" gradientUnits="userSpaceOnUse">
	<stop  offset="0.02" style="stop-color:#FFEEAC"/>
	<stop  offset="0.8" style="stop-color:#FEE258"/>
	<stop  offset="0.98" style="stop-color:#FDDD10"/>
</radialGradient>
<path class="st0" d="M141.9090424,26.9533958c-52.002655,0-94.1574936,42.1548424-94.1574936,94.1556244
	s42.1548386,94.155632,94.1574936,94.155632c51.9989014,0,94.1537476-42.1548309,94.1537476-94.155632
	S193.9079437,26.9533958,141.9090424,26.9533958z"/>
<path class="st1" d="M137.5920105,194.0943451c-0.0659943-4.1309967,1.5765076-6.9645081,3.507019-9.4875031
	c0.161972,0.0524902,0.3239746,0.1049957,0.4874878,0.1575012c-0.2400055,4.1759949-0.4424896,8.355011-0.7545013,12.5175018
	c-0.0509949,0.6660004-0.5669861,1.7145081-0.9164886,1.7610168c-0.480011,0.0629883-1.2285004-0.4785004-1.4670258-1.0935059
	C138.0000153,196.7898407,137.6130219,195.4008484,137.5920105,194.0943451 M144.0870056,184.8123627
	c0.1560059-0.0525055,0.3120117-0.1035004,0.4680176-0.1545258c2.0729828,2.920517,3.8339844,6.0645294,3.3374939,10.7745056
	c-0.0509949,0.4920044-0.0899963,1.1040039-0.3000031,1.4190216c-0.5670013,0.8429718-1.2225037,1.555481-1.8435059,2.3204956
	c-0.3989868-0.9450073-1.0784912-1.8465271-1.1504974-2.8439941
	C144.3225098,192.5058594,144.2415314,188.6538391,144.0870056,184.8123627 M133.1010284,192.6753387
	c-1.1115265,3.2295074-0.7455139,5.4750214,1.1294861,7.6965027c2.4629974,2.9205017,5.365509,3.8565216,9.5429993,4.1369934
	c1.1100006-0.4409943,3.35849-0.923996,5.3639984-2.2184906c4.513504-2.9129944,5.2050018-6.852005,2.0549927-12.4530029
	c-1.9859772-3.532486-4.3799896-6.6164856-6.7724915-9.5865021c-1.9454956-2.414978-1.3410034-2.0804901-3.3014832-0.0419769
	c-0.7365265,0.7664795-1.4325104,1.6259766-2.1180115,2.492981
	C136.7085266,185.6073608,134.4930115,188.6313477,133.1010284,192.6753387 M118.2090225,94.2453461
	c0.1080017-0.1980057,0.2174988-0.3959885,0.3270035-0.5939941c-2.3235016-9.6405029-5.1449966-18.9150009-9.8160095-26.6835022
	c-3.9149857-6.5129929-14.3054886-16.4534912-16.7714844-16.6395035c0.4859924,1.8720016,1.0694962,3.9270172,1.5539932,6.031517
	c1.1325073,4.9139786,2.1194992,9.9029846,3.3405075,14.7674789c1.7984924,7.1669998,5.1239853,12.5040207,9.7784958,15.7949982
	C110.4075165,89.5983582,114.3405228,91.8213501,118.2090225,94.2453461 M173.3535156,120.1233444
	c-3.6315155-13.9604874-9.6074982-25.568985-16.677002-36.0944824c-3.7935028-5.6490097-8.4000092-8.1990051-13.7324982-8.2125092
	c-5.0084991-0.0119934-9.5580139,1.8539886-13.2330017,7.1339951
	c-7.9214859,11.3805084-14.5469894,24.0419998-18.0734863,39.7710114c-0.5475082,2.4419861-0.7380066,4.7249908,0.0914993,7.1264954
	c3.7604904,10.8974915,9.2639923,18.9974823,17.1284866,23.3474884c0.4229889,0.2339935,0.8639984,0.4049988,1.4565125,0.6795044
	c-0.3359985-2.7554932-0.6390228-5.2425079-1.0079956-8.2694855c4.9034882,12.8279877,7.8569794,25.5164795,3.8744812,39.8354797
	c0.6524963-0.5625,0.9600067-1.3529816,1.3995056-1.9169922c2.3654938-3.0360107,4.7655029-6.0119934,7.1490021-9.01651
	c0.7409821-0.9329834,1.4429932-0.8309937,2.1630096,0.0615082c2.1719971,2.6894989,4.3664856,5.3369904,6.5189819,8.0565033
	c0.6180115,0.7814941,1.1234894,1.7579956,1.6799927,2.6445007c-0.92099-6.8190155-2.1914978-13.32901-1.1684875-20.25
	c0.9930115-6.7095032,2.9849854-12.7650146,5.2424927-18.7034912c-0.2894897,2.4434814-0.5804901,4.8884888-0.8759918,7.3754883
	c0.2999878,0,0.3914948,0.0330048,0.4679871-0.0045013c8.0505066-4.0200043,13.7985077-11.9324951,17.7315063-22.8629913
	c0.7695007-2.1405029,1.2855072-4.429512,0.694519-6.9225159
	C173.8875122,122.6508408,173.6730042,121.3578415,173.3535156,120.1233444 M193.996521,50.2533417
	c-13.8840179,7.9169998-22.7174988,22.5735168-26.9835205,44.167511c4.0859985-2.5394897,7.9605103-4.7219925,11.7000122-7.3274918
	c4.701004-3.2775192,8.1044922-8.5530167,9.9434967-15.7935104c1.0964966-4.3200073,2.0550079-8.7179947,3.0315094-13.1025009
	C192.2970123,55.4643631,192.3000031,52.3653488,193.996521,50.2533417"/>
<path class="st2" d="M137.5920105,194.0943451c-0.0659943-4.1309967,1.5765076-6.9645081,3.507019-9.4875031
	c0.161972,0.0524902,0.3239746,0.1049957,0.4874878,0.1575012c-0.2400055,4.1759949-0.4424896,8.355011-0.7545013,12.5175018
	c-0.0509949,0.6660004-0.5669861,1.7145081-0.9164886,1.7610168c-0.480011,0.0629883-1.2285004-0.4785004-1.4670258-1.0935059
	C138.0000153,196.7898407,137.6130219,195.4008484,137.5920105,194.0943451z M144.0870056,184.8123627
	c0.1560059-0.0525055,0.3120117-0.1035004,0.4680176-0.1545258c2.0729828,2.920517,3.8339844,6.0645294,3.3374939,10.7745056
	c-0.0509949,0.4920044-0.0899963,1.1040039-0.3000031,1.4190216c-0.5670013,0.8429718-1.2225037,1.555481-1.8435059,2.3204956
	c-0.3989868-0.9450073-1.0784912-1.8465271-1.1504974-2.8439941
	C144.3225098,192.5058594,144.2415314,188.6538391,144.0870056,184.8123627z M133.1010284,192.6753387
	c-1.1115265,3.2295074-0.7455139,5.4750214,1.1294861,7.6965027c2.4629974,2.9205017,5.365509,3.8565216,9.5429993,4.1369934
	c1.1100006-0.4409943,3.35849-0.923996,5.3639984-2.2184906c4.513504-2.9129944,5.2050018-6.852005,2.0549927-12.4530029
	c-1.9859772-3.532486-4.3799896-6.6164856-6.7724915-9.5865021c-1.9454956-2.414978-1.3410034-2.0804901-3.3014832-0.0419769
	c-0.7365265,0.7664795-1.4325104,1.6259766-2.1180115,2.492981
	C136.7085266,185.6073608,134.4930115,188.6313477,133.1010284,192.6753387z M118.2090225,94.2453461
	c0.1080017-0.1980057,0.2174988-0.3959885,0.3270035-0.5939941c-2.3235016-9.6405029-5.1449966-18.9150009-9.8160095-26.6835022
	c-3.9149857-6.5129929-14.3054886-16.4534912-16.7714844-16.6395035c0.4859924,1.8720016,1.0694962,3.9270172,1.5539932,6.031517
	c1.1325073,4.9139786,2.1194992,9.9029846,3.3405075,14.7674789c1.7984924,7.1669998,5.1239853,12.5040207,9.7784958,15.7949982
	C110.4075165,89.5983582,114.3405228,91.8213501,118.2090225,94.2453461z M173.3535156,120.1233444
	c-3.6315155-13.9604874-9.6074982-25.568985-16.677002-36.0944824c-3.7935028-5.6490097-8.4000092-8.1990051-13.7324982-8.2125092
	c-5.0084991-0.0119934-9.5580139,1.8539886-13.2330017,7.1339951
	c-7.9214859,11.3805084-14.5469894,24.0419998-18.0734863,39.7710114c-0.5475082,2.4419861-0.7380066,4.7249908,0.0914993,7.1264954
	c3.7604904,10.8974915,9.2639923,18.9974823,17.1284866,23.3474884c0.4229889,0.2339935,0.8639984,0.4049988,1.4565125,0.6795044
	c-0.3359985-2.7554932-0.6390228-5.2425079-1.0079956-8.2694855c4.9034882,12.8279877,7.8569794,25.5164795,3.8744812,39.8354797
	c0.6524963-0.5625,0.9600067-1.3529816,1.3995056-1.9169922c2.3654938-3.0360107,4.7655029-6.0119934,7.1490021-9.01651
	c0.7409821-0.9329834,1.4429932-0.8309937,2.1630096,0.0615082c2.1719971,2.6894989,4.3664856,5.3369904,6.5189819,8.0565033
	c0.6180115,0.7814941,1.1234894,1.7579956,1.6799927,2.6445007c-0.92099-6.8190155-2.1914978-13.32901-1.1684875-20.25
	c0.9930115-6.7095032,2.9849854-12.7650146,5.2424927-18.7034912c-0.2894897,2.4434814-0.5804901,4.8884888-0.8759918,7.3754883
	c0.2999878,0,0.3914948,0.0330048,0.4679871-0.0045013c8.0505066-4.0200043,13.7985077-11.9324951,17.7315063-22.8629913
	c0.7695007-2.1405029,1.2855072-4.429512,0.694519-6.9225159
	C173.8875122,122.6508408,173.6730042,121.3578415,173.3535156,120.1233444z M193.996521,50.2533417
	c-13.8840179,7.9169998-22.7174988,22.5735168-26.9835205,44.167511c4.0859985-2.5394897,7.9605103-4.7219925,11.7000122-7.3274918
	c4.701004-3.2775192,8.1044922-8.5530167,9.9434967-15.7935104c1.0964966-4.3200073,2.0550079-8.7179947,3.0315094-13.1025009
	C192.2970123,55.4643631,192.3000031,52.3653488,193.996521,50.2533417z"/>
<path class="st1" d="M137.5920105,194.0943451c-0.0659943-4.1309967,1.5765076-6.9645081,3.507019-9.4875031
	c0.161972,0.0524902,0.3239746,0.1049957,0.4874878,0.1575012c-0.2400055,4.1759949-0.4424896,8.355011-0.7545013,12.5175018
	c-0.0509949,0.6660004-0.5669861,1.7145081-0.9164886,1.7610168c-0.480011,0.0629883-1.2285004-0.4785004-1.4670258-1.0935059
	C138.0000153,196.7898407,137.6130219,195.4008484,137.5920105,194.0943451 M144.0870056,184.8123627
	c0.1560059-0.0525055,0.3120117-0.1035004,0.4680176-0.1545258c2.0729828,2.920517,3.8339844,6.0645294,3.3374939,10.7745056
	c-0.0509949,0.4920044-0.0899963,1.1040039-0.3000031,1.4190216c-0.5670013,0.8429718-1.2225037,1.555481-1.8435059,2.3204956
	c-0.3989868-0.9450073-1.0784912-1.8465271-1.1504974-2.8439941
	C144.3225098,192.5058594,144.2415314,188.6538391,144.0870056,184.8123627 M133.1010284,192.6753387
	c-1.1115265,3.2295074-0.7455139,5.4750214,1.1294861,7.6965027c2.4629974,2.9205017,5.365509,3.8565216,9.5429993,4.1369934
	c1.1100006-0.4409943,3.35849-0.923996,5.3639984-2.2184906c4.513504-2.9129944,5.2050018-6.852005,2.0549927-12.4530029
	c-1.9859772-3.532486-4.3799896-6.6164856-6.7724915-9.5865021c-1.9454956-2.414978-1.3410034-2.0804901-3.3014832-0.0419769
	c-0.7365265,0.7664795-1.4325104,1.6259766-2.1180115,2.492981
	C136.7085266,185.6073608,134.4930115,188.6313477,133.1010284,192.6753387 M118.2090225,94.2453461
	c0.1080017-0.1980057,0.2174988-0.3959885,0.3270035-0.5939941c-2.3235016-9.6405029-5.1449966-18.9150009-9.8160095-26.6835022
	c-3.9149857-6.5129929-14.3054886-16.4534912-16.7714844-16.6395035c0.4859924,1.8720016,1.0694962,3.9270172,1.5539932,6.031517
	c1.1325073,4.9139786,2.1194992,9.9029846,3.3405075,14.7674789c1.7984924,7.1669998,5.1239853,12.5040207,9.7784958,15.7949982
	C110.4075165,89.5983582,114.3405228,91.8213501,118.2090225,94.2453461 M173.3535156,120.1233444
	c-3.6315155-13.9604874-9.6074982-25.568985-16.677002-36.0944824c-3.7935028-5.6490097-8.4000092-8.1990051-13.7324982-8.2125092
	c-5.0084991-0.0119934-9.5580139,1.8539886-13.2330017,7.1339951
	c-7.9214859,11.3805084-14.5469894,24.0419998-18.0734863,39.7710114c-0.5475082,2.4419861-0.7380066,4.7249908,0.0914993,7.1264954
	c3.7604904,10.8974915,9.2639923,18.9974823,17.1284866,23.3474884c0.4229889,0.2339935,0.8639984,0.4049988,1.4565125,0.6795044
	c-0.3359985-2.7554932-0.6390228-5.2425079-1.0079956-8.2694855c4.9034882,12.8279877,7.8569794,25.5164795,3.8744812,39.8354797
	c0.6524963-0.5625,0.9600067-1.3529816,1.3995056-1.9169922c2.3654938-3.0360107,4.7655029-6.0119934,7.1490021-9.01651
	c0.7409821-0.9329834,1.4429932-0.8309937,2.1630096,0.0615082c2.1719971,2.6894989,4.3664856,5.3369904,6.5189819,8.0565033
	c0.6180115,0.7814941,1.1234894,1.7579956,1.6799927,2.6445007c-0.92099-6.8190155-2.1914978-13.32901-1.1684875-20.25
	c0.9930115-6.7095032,2.9849854-12.7650146,5.2424927-18.7034912c-0.2894897,2.4434814-0.5804901,4.8884888-0.8759918,7.3754883
	c0.2999878,0,0.3914948,0.0330048,0.4679871-0.0045013c8.0505066-4.0200043,13.7985077-11.9324951,17.7315063-22.8629913
	c0.7695007-2.1405029,1.2855072-4.429512,0.694519-6.9225159
	C173.8875122,122.6508408,173.6730042,121.3578415,173.3535156,120.1233444 M193.996521,50.2533417
	c-13.8840179,7.9169998-22.7174988,22.5735168-26.9835205,44.167511c4.0859985-2.5394897,7.9605103-4.7219925,11.7000122-7.3274918
	c4.701004-3.2775192,8.1044922-8.5530167,9.9434967-15.7935104c1.0964966-4.3200073,2.0550079-8.7179947,3.0315094-13.1025009
	C192.2970123,55.4643631,192.3000031,52.3653488,193.996521,50.2533417"/>
</svg>
