<?xml version="1.0" encoding="utf-8"?>
<!-- Generator: Adobe Illustrator 21.1.0, SVG Export Plug-In . SVG Version: 6.00 Build 0)  -->
<svg version="1.1" id="Layer_1" xmlns="http://www.w3.org/2000/svg" xmlns:xlink="http://www.w3.org/1999/xlink" x="0px" y="0px"
	 viewBox="0 0 120 120" style="enable-background:new 0 0 120 120;" xml:space="preserve">
<style type="text/css">
	.st0{fill:url(#SVGID_1_);}
	.st1{fill:url(#SVGID_2_);}
	.st2{fill:url(#SVGID_3_);}
	.st3{fill:#FFFFFF;}
	.st4{fill:url(#SVGID_4_);}
</style>
<g id="Layer_1_1_">
	<g>
		
			<linearGradient id="SVGID_1_" gradientUnits="userSpaceOnUse" x1="50.6469269" y1="948.6619873" x2="50.6469269" y2="930.1654663" gradientTransform="matrix(1 0 0 1 0 -836)">
			<stop  offset="0" style="stop-color:#131D20"/>
			<stop  offset="0.0237569" style="stop-color:#131D20"/>
			<stop  offset="0.1677377" style="stop-color:#252D2F"/>
			<stop  offset="0.7414711" style="stop-color:#535354"/>
			<stop  offset="1" style="stop-color:#645F5F"/>
		</linearGradient>
		<path class="st0" d="M35.8112679,94.2474747h-5.7206383c-1.3074379,0-2.669157-0.0271454-3.8408966-0.082016
			c-0.2991333,0.1097412-0.2991333,0.7906036-0.0542831,0.9540329l0.544569,0.0814209
			c1.2260208,0.190567,1.3888626,0.4360046,1.3888626,2.9688797v10.1338425c0,2.5334549-0.1628418,2.7240219-1.3888626,2.9145966
			l-0.8991566,0.1362915c-0.2177124,0.1634293-0.2177124,0.7894135,0,0.9534378
			c1.6348877-0.054863,2.9966068-0.0820084,4.2497673-0.0820084c1.3074417,0,2.6420212,0.0271454,4.331192,0.0820084
			c0.190567-0.1640244,0.190567-0.7900085,0-0.9534378l-1.0077209-0.1362915
			c-1.2260208-0.1634293-1.3894501-0.3811417-1.3894501-2.9145966v-3.6774673c0-0.7357407,0.0277328-0.8171616,0.762867-0.8171616
			h2.0974503c1.4437332,0,1.7434502,0.2177124,2.0154419,1.5251541l0.136879,0.6543121
			c0.1905708,0.2448502,0.8714294,0.2177124,1.0348587-0.0277328c-0.0548668-0.8171463-0.0820084-1.8248672-0.0820084-2.8331757
			c0-1.0348587,0.0271416-2.0425797,0.0820084-2.9146042c-0.1634293-0.2448502-0.8442879-0.2719879-1.0348587-0.0271378
			l-0.136879,0.6537247c-0.2719917,1.3351669-0.5717087,1.5257416-2.0154419,1.5257416h-2.0974503
			c-0.7351341,0-0.762867-0.0814209-0.762867-0.8171616v-4.9306259c0-1.0619965,0-1.1168747,0.8991585-1.1168747h2.1245918
			c1.3894501,0,2.2066002,0.3268661,2.6697502,0.8991623c0.2719879,0.3540039,0.4897003,1.0077286,0.7900124,2.124588
			c0.3262672,0.2177124,0.9257088,0.1905823,1.0348587-0.1091461c-0.0542831-1.8248672-0.0542831-3.786026-0.0542831-4.2497711
			C39.1070137,94.2203293,37.5541306,94.2474747,35.8112679,94.2474747 M45.3096809,94.2474747
			c-1.3080292,0-2.6697502-0.0271454-4.086338-0.082016c-0.3268623,0.1640167-0.3268623,0.7906036-0.0542831,0.9540329
			l0.7900124,0.1085663c1.2254333,0.1634216,1.3888588,0.4088593,1.3888588,2.9417343v10.1338425
			c0,2.5334549-0.1634254,2.7511673-1.3888588,2.9145966l-1.0354538,0.1362915
			c-0.2177086,0.1634293-0.1628342,0.7894135,0.0814209,0.9534378c1.6891747-0.054863,3.0514832-0.0820084,4.3046417-0.0820084
			h3.6503296c2.2331505,0,4.8480263,0.0271454,6.292347,0.0820084c0.3811455-0.7357254,1.03545-2.9966125,1.1711502-4.4126053
			c-0.1905708-0.3274536-0.8171463-0.4360123-1.0348587-0.1640167c-1.6071587,3.1600266-2.3700294,3.2414474-4.8492088,3.2414474
			c-1.9883003,0-2.4785881-0.2176971-2.832592-0.6808548c-0.3545876-0.4360046-0.4631462-1.3068466-0.4631462-2.587738v-9.5344009
			c0-2.5328751,0.1634293-2.7511673,1.3888588-2.9417343l0.7085915-0.1085663c0.2177086-0.1634293,0.2177086-0.7900162,0-0.9540329
			C47.9788437,94.2203293,46.6171188,94.2474747,45.3096809,94.2474747 M72.4213562,94.2474747
			c-1.1168671,0-2.1788635-0.0271454-3.6497421-0.082016c-0.1640167,0.1640167-0.2182922,0.7085953,0,0.9268875l0.7351456,0.1357117
			c0.735733,0.1362762,1.3351669,0.2997131,1.5794296,0.8720169c0.3003159,0.7085876,0.409462,2.7783051,0.409462,4.9849091
			v3.2957382c0,3.732338-1.0625916,6.7826462-4.5494919,6.7826462c-4.1406212,0-4.4946175-3.5134506-4.4946175-6.7006378v-6.2929382
			c0-2.5328751,0.1634254-2.7511673,1.3894501-2.9688797l0.6537209-0.1085663c0.2177124-0.1634216,0.2177124-0.7628708,0-0.9268875
			c-1.3080368,0.0548706-2.6426125,0.082016-3.9771881,0.082016c-1.3074455,0-2.6691628-0.0271454-3.9771996-0.082016
			c-0.2997169,0.1640167-0.2725754,0.7634659-0.0542755,0.9268875l0.6808624,0.1357117
			c1.2260132,0.2454376,1.388855,0.4088593,1.388855,2.9417343v6.8103638c0,2.9688797,0.5994415,4.9849167,2.0166168,6.1560669
			c1.4708786,1.1988754,3.3228836,1.5257416,5.3931923,1.5257416c2.2060089,0,4.1949005-0.6814499,5.3931961-1.9617538
			c1.4985962-1.6614456,1.7440338-4.003746,1.7440338-6.5643387v-3.0508881c0-2.206604,0.1085663-4.2763214,0.408287-4.9849091
			c0.2454376-0.5723038,0.7622757-0.7357407,1.4708633-0.8991623l0.4908829-0.1085663
			c0.2177124-0.2182922,0.1628418-0.7628708,0-0.9268875C74.4373856,94.2203293,73.4290771,94.2474747,72.4213562,94.2474747"/>
		
			<linearGradient id="SVGID_2_" gradientUnits="userSpaceOnUse" x1="76.2275391" y1="939.2366943" x2="95.9571686" y2="939.2366943" gradientTransform="matrix(1 0 0 1 0 -836)">
			<stop  offset="0" style="stop-color:#000000"/>
			<stop  offset="0.102136" style="stop-color:#000000"/>
			<stop  offset="0.2697589" style="stop-color:#0E171A"/>
			<stop  offset="0.4813125" style="stop-color:#1F272A"/>
			<stop  offset="0.7084354" style="stop-color:#283033"/>
			<stop  offset="0.976243" style="stop-color:#2B3336"/>
			<stop  offset="1" style="stop-color:#2B3336"/>
		</linearGradient>
		<path class="st1" d="M91.192215,94.2474747c-1.280304,0-2.1517334-0.0271454-2.9966125-0.082016
			c-0.2991333,0.1368866-0.2991333,0.7634659-0.0814209,0.9540329l1.0897293,0.190567
			c0.3539963,0.0542755,0.5445633,0.190567,0.5445633,0.2719879c0,0.1368866,0,0.3274536-0.2997131,0.8177414
			c-0.8442917,1.4437332-1.7428589,2.7783127-2.7511673,4.3034668c-0.8442917-1.2254257-1.8248749-2.7240372-2.5600128-4.0043335
			c-0.327446-0.5717087-0.4360123-0.8171463-0.4360123-1.0620041c0-0.190567,0.4897079-0.3268585,0.9257126-0.4088593
			l0.5994415-0.1085663c0.1911545-0.2177124,0.1911545-0.8171463-0.1091537-0.9540329
			c-0.8442917,0.0548706-1.934021,0.082016-4.1400299,0.082016c-1.6620331,0-3.3777542-0.0271454-4.2497711-0.082016
			c-0.2725754,0.1640167-0.2725754,0.7363205-0.0271378,0.9540329l0.46315,0.0814209
			c1.2254333,0.2177124,1.7977371,0.5722961,2.4237137,1.4708633c1.280899,1.82547,2.9966202,4.5223618,3.8957825,5.8563461
			c0.3539963,0.4908829,0.4908752,0.8448792,0.4908752,0.9540253c0,0.1634369-0.136879,0.4897003-0.3817291,0.8442917
			c-1.1711502,1.7428665-2.6426086,3.868042-3.4320297,4.9029083c-0.8991623,1.2260132-1.5257416,1.8797302-3.1600418,2.0974426
			l-0.6265793,0.082016c-0.2454376,0.1634293-0.1634369,0.7628708,0.1085587,0.8991547
			c0.8171539-0.054863,1.9617462-0.0820084,2.8609161-0.0820084c1.1434097,0,2.3694305,0.0271454,3.5683136,0.0820084
			c0.2991333-0.1091537,0.3268585-0.7628708,0.0814209-0.9534378l-0.7080002-0.0814209
			c-0.5723038-0.0548706-0.8714294-0.1911545-0.8714294-0.3545914c0-0.1634216,0.0542831-0.3539963,0.2448502-0.7351379
			c0.8985672-1.7163086,2.1788712-3.7866211,3.2414627-5.3395081c0.4082794,0.5180283,2.4785843,3.7052155,2.8874588,4.4403458
			c0.6808548,1.1440125,0.7900009,1.3894577,0.7900009,1.6071548c0,0.1634369-0.3268509,0.2997284-1.0083084,0.3817368
			l-0.7351303,0.0814209c-0.272583,0.1362915-0.1634369,0.8442841,0.0814209,0.9534378
			c1.470871-0.054863,2.6974716-0.0820084,4.576622-0.0820084c2.206604,0,3.0508957,0.0271454,4.2491837,0.0820084
			c0.2725754-0.1905746,0.2725754-0.7628708,0.0820084-0.9534378l-0.8442917-0.1091537
			c-1.0354538-0.1362915-1.7163086-0.5174255-2.6697464-1.9611588c-0.9805756-1.470871-2.3151627-3.5140381-4.3583298-6.6740799
			c-0.2719955-0.4082794-0.3817368-0.7080002-0.3817368-0.8442917c0-0.1356964,0.272583-0.5445709,0.545166-0.9262924
			c1.280304-1.7428665,2.4791794-3.5411835,3.7866211-4.8757629c0.4897003-0.4902878,0.9805832-0.5994492,1.5522919-0.6808548
			l1.1445999-0.1634369c0.190567-0.2454376,0.1628418-0.8171463-0.1097412-0.9540329
			C93.6165161,94.2203293,92.5002365,94.2474747,91.192215,94.2474747"/>
		<g>
			
				<radialGradient id="SVGID_3_" cx="59.9260902" cy="879.319458" r="37.0341492" gradientTransform="matrix(1 0 0 1 0 -836)" gradientUnits="userSpaceOnUse">
				<stop  offset="0.51" style="stop-color:#C4E1AF"/>
				<stop  offset="0.95" style="stop-color:#6FBE46"/>
			</radialGradient>
			<circle class="st2" cx="59.9260902" cy="43.3194771" r="37.0341492"/>
			<path class="st3" d="M44.1160431,68.8319092c-0.9204025-1.3274994-1.9169083-2.6095734-2.7482224-3.9907608
				c-5.8852501-9.7833824-6.2787781-21.6105232,0.8212776-31.085331c5.8622437-7.8210373,21.733242-11.6129665,30.433979-3.8291035
				c5.4427414,4.8704548,8.0410995,13.0631962,5.6899567,19.4039211c-2.4095612,6.4982643-9.578064,10.7226639-16.0969734,9.4866104
				c-6.56847-1.2460785-10.9450874-7.9455261-9.1980972-14.0797577c1.7416763-6.1159401,9.2146149-8.7898216,13.6183815-4.8297386
				c2.0071716,1.8042183,3.0320053,4.0491676,2.3623581,6.8133163c-0.7310104,3.0172615-3.9895859,4.8940506-6.9655418,4.0491714
				c-1.7298851-0.4926491-2.8361359-1.9045181-2.9800949-3.8078613c-0.1185837-1.5593681,0.697979-2.9252205,2.1139717-3.5352783
				c1.84375-0.7947311,3.868042,0.3292198,3.9323502,2.2189903c0.041893,1.2065506-0.6767273,1.9056969-1.7906456,2.0956802
				c-0.7982788,0.1362877-1.3428421-0.3669815-1.5652695-1.1357498c-0.1398315-0.4778976-0.0147552-0.9068336,0.4330559-1.1894417
				c0.2784805-0.1740456,0.5628586-0.1952896,0.8549118-0.0147476c0.5215645,0.3209572,0.2908707,0.7292366,0.0584106,1.1687889
				c0.69561-0.1528091,0.7575569-0.5610924,0.5852814-1.0472488c-0.1669731-0.4702339-0.525692-0.7398605-1.027195-0.7746735
				c-0.6077003-0.0418892-1.093853,0.1905746-1.4095078,0.7162628c-0.4029694,0.6672897-0.3658066,1.3611298-0.0194702,2.0295982
				c0.435421,0.8413391,1.1628952,1.2572899,2.1009903,1.2484436c1.222477-0.0135727,2.1517296-0.6012154,2.7128181-1.6590843
				c0.648407-1.2189369,0.5074005-2.4638367-0.1958847-3.6208305c-1.3959351-2.2951012-4.7170448-2.7110481-6.9348564-0.8950272
				c-1.9204445,1.572937-2.5747604,4.0963669-1.7121773,6.6080017c1.1457825,3.34235,4.6379852,5.2604408,8.293045,4.5565681
				c4.3016891-0.828949,7.2493286-4.4067116,7.3024292-8.8641586c0.0902634-7.323082-6.8457718-12.7369156-14.2939377-11.1586723
				c-8.6706352,1.8378525-13.5204353,10.2665901-11.0329971,19.171463
				c2.6532326,9.4889717,12.6242332,15.2922096,22.3657227,13.0189476
				c14.0390396-3.2768631,21.6972504-16.4987717,17.4580994-30.6617203
				c-3.4898529-11.664299-11.4589767-18.9006481-23.4843636-20.6352501
				c-9.2818756-1.3387089-17.3749084,2.2290192-23.9239044,8.8747845
				c-12.6454697,12.8336773-11.0689926,34.0052338,3.2385063,44.9444275
				c0.2719917,0.2088623,0.5593185,0.3970718,0.8389778,0.595314
				C44.0057106,68.9558105,44.0605812,68.8938599,44.1160431,68.8319092"/>
			
				<radialGradient id="SVGID_4_" cx="-3972.0244141" cy="-1103.1999512" r="0.5900512" gradientTransform="matrix(-48.6255989 0 0 -48.6255989 -193082.1875 -53602.0195312)" gradientUnits="userSpaceOnUse">
				<stop  offset="0" style="stop-color:#6FBE46"/>
				<stop  offset="0.200055" style="stop-color:#6FBE46"/>
				<stop  offset="0.2881707" style="stop-color:#72BF48"/>
				<stop  offset="0.3878073" style="stop-color:#7AC250"/>
				<stop  offset="0.4931087" style="stop-color:#87C65F"/>
				<stop  offset="0.6023054" style="stop-color:#99CD77"/>
				<stop  offset="0.7146001" style="stop-color:#AFD794"/>
				<stop  offset="0.8294369" style="stop-color:#CBE4B8"/>
				<stop  offset="0.9442174" style="stop-color:#EAF4E3"/>
				<stop  offset="1" style="stop-color:#FFFFFF"/>
			</radialGradient>
			<path class="st4" d="M44.1160431,68.8319092L43.8736115,69c-0.9140205-1.3188553-1.9148331-2.6055603-2.7585411-4.0067291
				c-2.9191628-4.8526649-4.5023575-10.2097054-4.5024261-15.5450706
				c-0.0006638-5.5138321,1.6935959-11.0037804,5.3403816-15.8692856c3.6912689-4.9120636,11.1590309-8.2150307,18.4345894-8.220747
				c4.5417519-0.000288,9.0210686,1.2976284,12.4321404,4.3486919c4.1409836,3.708828,6.6539001,9.2878151,6.6564789,14.5830688
				c0,1.7736626-0.2833099,3.5161247-0.8866119,5.1432686c-2.1778107,5.8585091-8.1072693,9.8887482-14.0636597,9.8937683
				c-0.790863,0.0000038-1.5821991-0.0714645-2.3648643-0.219883c-5.7268143-1.0905762-9.8201485-6.2004318-9.8242149-11.5940704
				c-0.0000191-0.950779,0.1278801-1.9102058,0.3973579-2.8563271c1.2191353-4.2690315,5.1278839-6.9103889,8.9597359-6.9124641
				c1.8345032-0.0008965,3.6580276,0.6109886,5.1396103,1.9441719c1.6339188,1.4650955,2.6661224,3.2603607,2.6644592,5.3855286
				c0.0000153,0.5520096-0.0691833,1.1245041-0.2126465,1.7166061c-0.65065,2.6688309-3.1482925,4.4756355-5.7873306,4.4777679
				c-0.5140648,0.0000153-1.0337601-0.0689735-1.5454826-0.2142715l-0.0002327-0.0000687
				c-1.8470268-0.5193672-3.0492363-2.0631943-3.1934509-4.0693283c-0.0081558-0.1072769-0.012207-0.213974-0.012207-0.3197861
				c-0.0032616-1.5447769,0.873455-2.8958855,2.3036156-3.508667c0.445694-0.1921616,0.9039841-0.282341,1.3473663-0.2822876
				c1.5506325-0.0057602,2.9405327,1.1181717,2.9965401,2.7621689l0.0018997,0.1092339
				c0.0173798,1.2825012-0.8611908,2.1085091-2.0377884,2.2872849c-0.1033134,0.0176468-0.2048111,0.0264587-0.3039322,0.0264549
				c-0.820118,0.003624-1.3863678-0.6140594-1.5943108-1.3710251l0.0002518,0.0008545
				c-0.042717-0.1460266-0.0661964-0.2932701-0.0662079-0.4395752c-0.0060043-0.4257393,0.2200012-0.8341751,0.624958-1.08218
				l0.001091-0.0006828c0.1806297-0.1133652,0.3846588-0.1857491,0.6003342-0.185524
				c0.1945305-0.0005608,0.3894653,0.0601044,0.5660248,0.1699982l-0.0004921-0.0003014
				c0.2900009,0.1669884,0.4642754,0.4524879,0.4559135,0.7275925c-0.0073204,0.3334351-0.1680641,0.5870056-0.2913361,0.8303452
				l-0.2607727-0.1379128l-0.0632973-0.2881241c0.4239883-0.120285,0.4136353-0.1908989,0.4346313-0.3549881
				c0.0004311-0.0769005-0.020401-0.1831818-0.0641251-0.3056259c-0.1429024-0.3723717-0.365448-0.5405846-0.7695503-0.5788918
				l-0.1162605-0.0040741c-0.45858,0.0075722-0.7681198,0.1729584-1.0199165,0.5779076l-0.0003777,0.0006371
				c-0.1735077,0.2885132-0.2477074,0.5672493-0.2482948,0.8498154c0.0000458,0.2890015,0.080307,0.5864983,0.2382317,0.891571
				c0.3946686,0.743515,0.9747658,1.080204,1.8100243,1.0893021l0.0260201-0.0001297l-0.0002632,0.0000038
				c1.127533-0.0200043,1.9298553-0.527729,2.4554825-1.502327l0.0001602-0.0003166
				c0.2631531-0.4954987,0.3818436-0.9839706,0.3822021-1.4697189c-0.0001068-0.6217804-0.1968613-1.2454147-0.5697174-1.8593483
				c-0.7485428-1.231205-2.0992355-1.8852997-3.5224457-1.8864174c-1.0327415,0.000061-2.0947952,0.3468819-2.9734306,1.0664101
				c-1.2925873,1.0604095-1.9764519,2.5609474-1.9779472,4.2053337c0.0000191,0.6759796,0.1166496,1.3761978,0.3578758,2.078598
				c0.9444618,2.7538757,3.5516243,4.5003777,6.509304,4.5021629c0.4758072-0.0000038,0.9605865-0.0453873,1.4489365-0.1394424
				c4.166893-0.8071594,7.0069962-4.250782,7.0632477-8.5779991l0.0008469-0.1377907
				c-0.0113983-6.2171822-5.2114029-10.9952774-11.3971405-10.9973297c-0.83284,0.0000114-1.6833611,0.0867424-2.5415154,0.2685585
				c-7.0007286,1.487812-11.444931,7.3283501-11.4498787,14.2326126c0.0000114,1.485199,0.206562,3.0197487,0.6398544,4.5708847
				c2.2247353,7.9635391,9.7026253,13.2968254,17.8070374,13.2962074c1.3917389-0.0000076,2.8018875-0.1571579,4.2075272-0.4851761
				c11.3008728-2.643158,18.3912888-11.764431,18.3962631-22.6193123c-0.0000153-2.4841652-0.3723831-5.0598717-1.1537476-7.6705322
				c-3.4741745-11.5753727-11.3198853-18.6978645-23.2438545-20.4278564
				c-1.2865829-0.1855545-2.5492973-0.2757435-3.7875557-0.2757521c-7.5981293,0.0011339-14.291069,3.3925095-19.8841171,9.0656147
				c-5.7027779,5.7879772-8.4833031,13.2852688-8.4837437,20.7625027
				c0.0004768,8.9402428,3.9763584,17.8418121,11.691309,23.7405167l0.0004921,0.0003738
				c0.2602043,0.1999817,0.5442696,0.3862991,0.8299065,0.5886154l-0.1705971,0.2406693l-0.2218742-0.1944122
				c0.0549736-0.0627365,0.1105385-0.1254807,0.1666946-0.1882019L44.1160431,68.8319092L43.8736115,69L44.1160431,68.8319092
				l0.2197914,0.1967621c-0.0547676,0.0611877-0.1089439,0.122345-0.1625328,0.1835022l-0.3924751,0.046257
				c-0.2736816-0.1941605-0.5642738-0.3842621-0.8480453-0.6019974l0.0004883,0.0003738
				c-7.8673553-6.0151329-11.9234352-15.0959396-11.9229488-24.2092209
				c-0.0004463-7.6223297,2.8375111-15.2743778,8.6534863-21.176609c5.6701622-5.7565155,12.5239639-9.2426243,20.3043709-9.2414989
				c1.2669029-0.0000095,2.5579529,0.0922947,3.871788,0.2817841c12.1267853,1.7392197,20.2193069,9.0894165,23.7248688,20.8426723
				c0.7971725,2.6634102,1.1785126,5.2965202,1.1784897,7.8396759c0.0049744,11.1185265-7.3029099,20.5035782-18.8521576,23.1938667
				c-1.4500885,0.3384171-2.9054871,0.5006256-4.3416214,0.500618c-8.3609543-0.000618-16.0713463-5.4947128-18.3752632-13.7273979
				c-0.4473915-1.6015282-0.6616402-3.1897697-0.6616249-4.7296906
				c-0.0049515-7.1600266,4.6467171-13.2725563,11.9175568-14.8097916c0.8983154-0.1903419,1.7900314-0.2813797,2.6638336-0.2813683
				c6.487999,0.0115852,11.9855804,5.02314,11.9871292,11.5873184l-0.000885,0.1449356
				c-0.049942,4.5875702-3.1051254,8.2994652-7.5415802,9.1502037c-0.5249863,0.1011086-1.0472336,0.1500931-1.5605545,0.1500854
				c-3.1890945,0.0017853-6.0378685-1.8962708-7.0673714-4.9006653c-0.2613564-0.7609062-0.3898163-1.5261688-0.3897972-2.2700882
				c-0.0014954-1.8093758,0.7648392-3.4928703,2.1941147-4.6617966c0.987957-0.8089027,2.1832504-1.2000046,3.3472519-1.1999435
				c1.6002274-0.0011139,3.1581497,0.7426186,4.0265732,2.1698914c0.4171829,0.6858711,0.6557007,1.4173927,0.6555939,2.1658707
				c0.0003586,0.5836105-0.1460266,1.1737061-0.4513092,1.7467995l0.0001602-0.0003166
				c-0.5965424,1.14114-1.6527252,1.8087006-2.9701538,1.8158379l-0.0002632,0.0000038l-0.0320396,0.0001602
				c-1.0129013,0.0090981-1.8667221-0.4860916-2.3339539-1.4079971c-0.19244-0.3711357-0.3043442-0.762989-0.3042984-1.1628723
				c-0.0005875-0.3902588,0.1085243-0.7839012,0.3332329-1.1548119l-0.0003777,0.0006409
				c0.3314133-0.5663528,0.8961716-0.8717499,1.5257301-0.8641815c0.0518379,0,0.1041603,0.0018387,0.1569519,0.0054703
				c0.5990562,0.0313416,1.0939522,0.4023781,1.2849274,0.9702644c0.0576363,0.1636734,0.0976219,0.3298225,0.0980568,0.5028496
				c0.0209961,0.4359856-0.3398895,0.8357697-0.8980446,0.9312439c-0.1120644,0.0246162-0.2286224-0.0182114-0.2980881-0.1095314
				c-0.069458-0.0913124-0.0796204-0.2150764-0.0259819-0.3165054c0.1343651-0.2438354,0.2302055-0.4582558,0.2228889-0.5545273
				c-0.0083656-0.070549-0.0001106-0.1059303-0.1751289-0.2251205l-0.0004959-0.0003014
				c-0.1007423-0.0615082-0.1796303-0.0813065-0.2558212-0.081871c-0.0839233,0.0002251-0.175705,0.026371-0.2876358,0.0958481
				l0.001091-0.0006828c-0.2607536,0.1721268-0.3438416,0.3454666-0.3498459,0.5832253
				c-0.0000076,0.0828667,0.0133972,0.1745453,0.0424767,0.2738953l0.0002518,0.0008545
				c0.1879196,0.6113281,0.5277824,0.9413757,1.0275459,0.9449997c0.0641708-0.0000038,0.1322975-0.0056953,0.2046852-0.0180511
				c0.9895134-0.1906548,1.5296593-0.6967163,1.547039-1.7056923l-0.0015564-0.0889664
				c-0.0440979-1.2970428-1.127594-2.1866798-2.4068871-2.19244c-0.3636513,0.0000534-0.7413788,0.073616-1.1138725,0.2341232
				c-1.2202415,0.5291023-1.9438515,1.6437302-1.9471092,2.966835c0,0.0907555,0.0034714,0.1825142,0.0105209,0.2751656
				c0.1437187,1.8006744,1.1540108,3.0805855,2.7667427,3.5465164l-0.0002327-0.0000687
				c0.4579659,0.1300201,0.9229889,0.1918335,1.3843422,0.1918488c2.3724594,0.0021324,4.6407471-1.6441727,5.2139206-4.0266953
				c0.1331787-0.5498199,0.1960373-1.0749702,0.1960526-1.5776863c-0.0016632-1.9261131-0.9177399-3.5488358-2.4689102-4.9467773
				c-1.3692474-1.2303734-3.0395699-1.7920341-4.7451553-1.7929306c-3.5652733-0.0020676-7.2555542,2.480381-8.3922958,6.4840736
				c-0.2541466,0.8923683-0.3747902,1.7967873-0.3748093,2.694725c-0.0040703,5.094593,3.9026184,9.9862785,9.3441658,11.0144081
				c0.7451897,0.141304,1.4995956,0.2095451,2.2549248,0.209549c5.691185,0.0050201,11.4339142-3.8939209,13.5104675-9.5088921
				c0.5764618-1.5546188,0.8498154-3.2271194,0.8498154-4.9381485c0.0025711-5.1087379-2.4465256-10.5552673-6.4598999-14.1433773
				c-3.2775574-2.9326706-7.6055756-4.1980953-12.0387306-4.1983929
				c-7.0990791-0.0057087-14.4358025,3.2669487-17.9624634,7.9846001
				c-3.5703697,4.765564-5.2218513,10.1219559-5.2225075,15.5154419
				c-0.0000725,5.2180328,1.5488968,10.4714661,4.4179611,15.2408791c0.8188782,1.3611603,1.8110809,2.6385956,2.7378654,3.9747391
				l-0.0226364,0.3648529L44.1160431,68.8319092z"/>
			<path class="st3" d="M44.1160431,68.8319092c-0.9204025-1.3274994-1.9169083-2.6095734-2.7482224-3.9907608
				c-5.8852501-9.7833824-6.2787781-21.6105232,0.8212776-31.085331c5.8622437-7.8210373,21.733242-11.6129665,30.433979-3.8291035
				c5.4427414,4.8704548,8.0410995,13.0631962,5.6899567,19.4039211c-2.4095612,6.4982643-9.578064,10.7226639-16.0969734,9.4866104
				c-6.56847-1.2460785-10.9450874-7.9455261-9.1980972-14.0797577c1.7416763-6.1159401,9.2146149-8.7898216,13.6183815-4.8297386
				c2.0071716,1.8042183,3.0320053,4.0491676,2.3623581,6.8133163c-0.7310104,3.0172615-3.9895859,4.8940506-6.9655418,4.0491714
				c-1.7298851-0.4926491-2.8361359-1.9045181-2.9800949-3.8078613c-0.1185837-1.5593681,0.697979-2.9252205,2.1139717-3.5352783
				c1.84375-0.7947311,3.868042,0.3292198,3.9323502,2.2189903c0.041893,1.2065506-0.6767273,1.9056969-1.7906456,2.0956802
				c-0.7982788,0.1362877-1.3428421-0.3669815-1.5652695-1.1357498c-0.1398315-0.4778976-0.0147552-0.9068336,0.4330559-1.1894417
				c0.2784805-0.1740456,0.5628586-0.1952896,0.8549118-0.0147476c0.5215645,0.3209572,0.2908707,0.7292366,0.0584106,1.1687889
				c0.69561-0.1528091,0.7575569-0.5610924,0.5852814-1.0472488c-0.1669731-0.4702339-0.525692-0.7398605-1.027195-0.7746735
				c-0.6077003-0.0418892-1.093853,0.1905746-1.4095078,0.7162628c-0.4029694,0.6672897-0.3658066,1.3611298-0.0194702,2.0295982
				c0.435421,0.8413391,1.1628952,1.2572899,2.1009903,1.2484436c1.222477-0.0135727,2.1517296-0.6012154,2.7128181-1.6590843
				c0.648407-1.2189369,0.5074005-2.4638367-0.1958847-3.6208305c-1.3959351-2.2951012-4.7170448-2.7110481-6.9348564-0.8950272
				c-1.9204445,1.572937-2.5747604,4.0963669-1.7121773,6.6080017c1.1457825,3.34235,4.6379852,5.2604408,8.293045,4.5565681
				c4.3016891-0.828949,7.2493286-4.4067116,7.3024292-8.8641586c0.0902634-7.323082-6.8457718-12.7369156-14.2939377-11.1586723
				c-8.6706352,1.8378525-13.5204353,10.2665901-11.0329971,19.171463
				c2.6532326,9.4889717,12.6242332,15.2922096,22.3657227,13.0189476
				c14.0390396-3.2768631,21.6972504-16.4987717,17.4580994-30.6617203
				c-3.4898529-11.664299-11.4589767-18.9006481-23.4843636-20.6352501
				c-9.2818756-1.3387089-17.3749084,2.2290192-23.9239044,8.8747845
				c-12.6454697,12.8336773-11.0689926,34.0052338,3.2385063,44.9444275
				c0.2719917,0.2088623,0.5593185,0.3970718,0.8389778,0.595314
				C44.0057106,68.9558105,44.0605812,68.8938599,44.1160431,68.8319092"/>
		</g>
	</g>
</g>
</svg>
