<?xml version="1.0" encoding="utf-8"?>
<!-- Generator: Adobe Illustrator 21.0.0, SVG Export Plug-In . SVG Version: 6.00 Build 0)  -->
<svg version="1.1" id="Layer_1" xmlns="http://www.w3.org/2000/svg" xmlns:xlink="http://www.w3.org/1999/xlink" x="0px" y="0px"
	 viewBox="0 0 206.6090088 242.2009888" style="enable-background:new 0 0 206.6090088 242.2009888;" xml:space="preserve">
<style type="text/css">
	.st0{fill:url(#SVGID_1_);}
	.st1{fill:#FFFFFF;}
	.st2{fill:url(#SVGID_2_);}
</style>
<radialGradient id="SVGID_1_" cx="103.1445007" cy="669.1124878" r="94.1546173" gradientTransform="matrix(1 0 0 1 0 -548)" gradientUnits="userSpaceOnUse">
	<stop  offset="0.02" style="stop-color:#C4E1AF"/>
	<stop  offset="0.8" style="stop-color:#8CC866"/>
	<stop  offset="0.98" style="stop-color:#6FBE46"/>
</radialGradient>
<circle class="st0" cx="103.1445007" cy="121.1124725" r="94.1546173"/>
<path class="st1" d="M62.9494514,185.9745941c-2.3400078-3.375-4.8735008-6.6345062-6.9870071-10.1460114
	c-14.9624977-24.8730011-15.9629974-54.9420013,2.0879974-79.0305023
	c14.9040108-19.8839951,55.2540092-29.524498,77.3745117-9.7350082
	c13.8374939,12.3825073,20.4434814,33.2115097,14.4659882,49.3320084
	c-6.1260071,16.5210114-24.3509979,27.2610016-40.9244995,24.1184998
	c-16.6994934-3.1679993-27.8264923-20.2005005-23.3849945-35.7959976
	c4.4280014-15.548996,23.4269943-22.3470078,34.6230011-12.2789993c5.1029968,4.586998,7.7084961,10.2945023,6.0059967,17.321991
	c-1.8584976,7.6710052-10.1430054,12.4425049-17.7089996,10.2945099c-4.3980026-1.2525024-7.2105026-4.8419952-7.5765076-9.681015
	c-0.3014908-3.9644928,1.7745132-7.4369965,5.3745041-8.9879913c4.6875076-2.0205002,9.8340073,0.836998,9.9974976,5.6415024
	c0.106514,3.0674973-1.7204895,4.8449936-4.5524902,5.3280106c-2.0295105,0.3464813-3.4140015-0.9330139-3.9794998-2.8875122
	c-0.3554993-1.2149963-0.0375061-2.3055038,1.1009979-3.0239944c0.7080002-0.4424973,1.4309921-0.4965057,2.1735001-0.0375061
	c1.326004,0.8160019,0.739502,1.8539963,0.1484985,2.9715042c1.7685013-0.388504,1.9260025-1.426506,1.4880066-2.6624985
	c-0.4245071-1.1955109-1.3365097-1.8809967-2.6115112-1.9695053c-1.5449982-0.1064987-2.7809906,0.4845047-3.5834961,1.8210068
	c-1.024498,1.6964951-0.9300079,3.4605026-0.0494995,5.159996c1.1070023,2.1389923,2.9565048,3.1965027,5.3414993,3.173996
	c3.1079941-0.0345001,5.4705048-1.5285034,6.8969955-4.2180023c1.6484985-3.0989914,1.2900009-6.2639923-0.4980011-9.2054977
	c-3.548996-5.8349991-11.9924927-6.8924942-17.6309967-2.2754974c-4.8824921,3.9990005-6.5459976,10.4144974-4.3529968,16.8000107
	c2.913002,8.4974976,11.7914963,13.3739929,21.0839996,11.5844879
	c10.9365005-2.1074982,18.4305038-11.2034912,18.5654984-22.5359955
	c0.2294922-18.6180038-17.4044952-32.3819885-36.3404999-28.3695068
	c-22.0439987,4.6725082-34.3740005,26.1015015-28.0500031,48.7410126
	c6.7454987,24.1245117,32.0955048,38.8785095,56.8619995,33.0990143
	c35.6924896-8.3310242,55.1625061-41.9460297,44.3850098-77.9535217
	c-8.8725128-29.6550064-29.1330109-48.0525055-59.7060013-52.4625092
	c-23.5979996-3.4034958-44.1735077,5.6669998-60.8235054,22.5630112
	c-32.149498,32.6279984-28.1414948,86.4539871,8.2334976,114.2655106c0.6914978,0.5310059,1.4219971,1.0095062,2.1329956,1.513504
	C62.6689453,186.2895813,62.8084488,186.1320801,62.9494514,185.9745941"/>
<radialGradient id="SVGID_2_" cx="-893.9891357" cy="497.7276001" r="1.4999949" gradientTransform="matrix(-48.6255989 0 0 -48.6255989 -43367.7382812 24319.3886719)" gradientUnits="userSpaceOnUse">
	<stop  offset="0" style="stop-color:#6FBE46"/>
	<stop  offset="0.200055" style="stop-color:#6FBE46"/>
	<stop  offset="0.2881707" style="stop-color:#72BF48"/>
	<stop  offset="0.3878073" style="stop-color:#7AC250"/>
	<stop  offset="0.4931087" style="stop-color:#87C65F"/>
	<stop  offset="0.6023054" style="stop-color:#99CD77"/>
	<stop  offset="0.7146001" style="stop-color:#AFD794"/>
	<stop  offset="0.8294369" style="stop-color:#CBE4B8"/>
	<stop  offset="0.9442174" style="stop-color:#EAF4E3"/>
	<stop  offset="1" style="stop-color:#FFFFFF"/>
</radialGradient>
<path class="st2" d="M62.9494514,185.9745941l-0.6163559,0.4273224c-2.3237801-3.3530273-4.8682137-6.6242981-7.013237-10.1865692
	c-7.4215965-12.3372955-11.4466667-25.9568939-11.4468498-39.5213776
	c-0.0016823-14.018219,4.3057594-27.975708,13.5772476-40.3456421c9.3845825-12.4882965,28.37043-20.8856735,46.8676071-20.9002075
	c11.5468292-0.0007324,22.9349213,3.299057,31.6071396,11.0559998
	c10.5279236,9.4292221,16.9167023,23.6130905,16.9232483,37.0755997c0,4.5093155-0.7202606,8.9392929-2.2540894,13.0761032
	c-5.5368347,14.894516-20.6117096,25.1408844-35.7550888,25.153656c-2.0106506,0-4.022522-0.1816864-6.0123596-0.559021
	c-14.5597-2.7726593-24.9664764-15.7638245-24.9768219-29.4764557c-0.0000458-2.4172363,0.3251266-4.8564529,1.0102386-7.2618561
	c3.0995026-10.8534622,13.0369949-17.5687866,22.7789917-17.5740585c4.6639938-0.0022812,9.3000565,1.55336,13.0668106,4.9428177
	c4.1540222,3.7248077,6.7782745,8.2890472,6.7740326,13.6920166c0.0000458,1.4034119-0.1758728,2.858902-0.5406113,4.3642578
	c-1.6542053,6.7851562-8.0041428,11.3787231-14.7135544,11.3841553c-1.3069382,0.0000305-2.628212-0.175354-3.9291992-0.5447693
	l-0.0005875-0.0001678c-4.6958389-1.3204346-7.7522964-5.2454071-8.1189423-10.3457489
	c-0.0207367-0.2727356-0.031044-0.5440063-0.0310364-0.8130188c-0.0082932-3.9273911,2.2206573-7.3624191,5.8566513-8.9203339
	c1.1331177-0.4885483,2.2982635-0.7178192,3.4255066-0.7176819c3.9422913-0.0146484,7.4759293,2.842804,7.6183167,7.0224609
	c-0.0000229-0.0005035,0.0048294,0.27771,0.0048294,0.27771c0.0441971,3.2605896-2.1894684,5.3606262-5.180809,5.8151398
	c-0.2626648,0.0448608-0.5207062,0.0672607-0.7727051,0.0672455c-2.0850449,0.0092163-3.5246658-1.5611572-4.0533371-3.4856415
	l0.0006409,0.0021667c-0.1086121-0.3712616-0.1682968-0.7456055-0.1683273-1.117569
	c-0.0152664-1.0823822,0.5593262-2.1207886,1.5888748-2.751297l0.0027771-0.0017395
	c0.4592285-0.2882233,0.9779358-0.4722443,1.526268-0.4716721c0.4945755-0.0014267,0.9901657,0.1528015,1.4390564,0.4321976
	l-0.0012589-0.0007629c0.7372971,0.4245377,1.1803589,1.1503906,1.1590958,1.8498077
	c-0.0186005,0.8477173-0.427269,1.4923859-0.7406769,2.1110535l-0.6629868-0.3506317l-0.1609268-0.7325287
	c1.0779419-0.3058014,1.0516281-0.485321,1.1050034-0.9024963c0.001091-0.1955109-0.0518646-0.4657211-0.1630325-0.7770233
	c-0.3633041-0.9467087-0.9291-1.3743668-1.9564896-1.471756c0.000412,0.0000381-0.2955704-0.0103531-0.2955704-0.0103531
	c-1.1658783,0.019249-1.9528503,0.4397125-2.5930023,1.4692459l-0.0009689,0.0016251
	c-0.441124,0.7335129-0.6297607,1.4421616-0.6312561,2.1605453c0.0001144,0.7347565,0.2041702,1.4910889,0.6056671,2.2667084
	c1.0033951,1.8902893,2.4782181,2.7462769,4.6017685,2.7694092l0.0661469-0.0003357l-0.0006714,0.0000153
	c2.8666153-0.0508575,4.9064026-1.3416748,6.2427521-3.8194733l0.0004196-0.0008087
	c0.669014-1.2597351,0.9707718-2.5016174,0.9716949-3.7365723c-0.0002747-1.5807953-0.5005035-3.1663055-1.4484406-4.72715
	c-1.9030838-3.130188-5.3370361-4.7931442-8.9553604-4.7959824c-2.625618,0.0001602-5.3257599,0.8819046-7.5595856,2.7112122
	c-3.2862396,2.695961-5.0248718,6.5108871-5.0286636,10.6915283c0.0000381,1.7185974,0.2965546,3.4988098,0.9098434,5.2845764
	c2.4011841,7.0013733,9.0295563,11.4416351,16.5490799,11.446167c1.2096786-0.0000153,2.4421692-0.115387,3.6837387-0.3545074
	c10.5937958-2.0521088,17.8144073-10.8070679,17.9573975-21.8084717c0-0.0002975,0.0021515-0.3503189,0.0021515-0.3503189
	c-0.0289764-15.8063965-13.249321-27.9540939-28.9757767-27.9593124c-2.1173782,0.0000229-4.2797165,0.2205276-6.4614639,0.6827774
	c-17.7984695,3.7825699-29.0972977,18.6313934-29.1098785,36.1846085c0.0000381,3.7759247,0.5251617,7.6773224,1.6267548,11.6208954
	c5.656105,20.2462921,24.6676865,33.805481,45.2721405,33.8039246c3.5382996-0.0000458,7.1234436-0.3995667,10.6970825-1.2335205
	c28.7310486-6.7198944,46.7575226-29.9095612,46.7701874-57.5067215
	c-0.0000458-6.3156738-0.9467468-12.8640747-2.9332581-19.5013504
	c-8.8326416-29.4289169-28.7794037-47.5369492-59.0945587-51.9352341c-3.2709656-0.4717484-6.4812698-0.7010422-9.6293716-0.7010651
	c-19.3172913,0.0028839-36.3332367,8.6250229-50.5528564,23.048172
	C38.200058,85.9097137,31.1309357,104.9706268,31.1298141,123.980545
	c0.0012131,22.7294312,10.1093826,45.3605347,29.7236633,60.3572388l0.0012474,0.000946
	c0.6615372,0.5084381,1.3837395,0.982132,2.1099358,1.4964905l-0.4337196,0.6118774l-0.5640907-0.4942932
	c0.1397667-0.1594849,0.2810326-0.3190002,0.4237976-0.4784546L62.9494514,185.9745941l-0.6163559,0.4273224L62.9494514,185.9745941
	l0.5587921,0.5002441c-0.1392403,0.1555481-0.2769814,0.3110504-0.4132233,0.4665222l-0.9978104,0.1175842
	c-0.6958008-0.4936066-1.434597-0.9769135-2.1560555-1.5304871l0.0012474,0.0009613
	c-20.0017548-15.2927399-30.3138123-38.3795166-30.3125839-61.5488739
	c-0.001133-19.3788071,7.2140121-38.833168,22.0003853-53.8388443
	c14.4156647-14.6352081,31.8405914-23.4981995,51.6212997-23.4953384c3.2209396-0.0000229,6.5032578,0.2346497,9.8435135,0.7164001
	c30.8308258,4.4217453,51.4050446,23.1086884,60.3174744,52.9898529c2.0267181,6.7713776,2.9962158,13.4657288,2.99617,19.9313736
	c0.0126343,28.2674484-18.5667267,52.1277542-47.929245,58.9674759c-3.6866608,0.8603668-7.3868027,1.2727661-11.0379944,1.2727356
	c-21.2566757-0.0015564-40.8593674-13.9695892-46.7167816-34.9001465
	c-1.1374435-4.0716858-1.6821365-8.1095886-1.6820984-12.0246429C69.029953,115.3959579,80.8562393,99.8556213,99.341423,95.9473953
	c2.283844-0.4839249,4.5509186-0.7153702,6.7724457-0.7153473c16.4949188,0.0294571,30.4718094,12.7707062,30.4757614,29.4592896
	l-0.002243,0.3684769c-0.1269989,11.6633148-7.8943939,21.1003418-19.1735306,23.2632294
	c-1.3347015,0.2570648-2.6624374,0.3815918-3.9674988,0.3815765c-8.1078644,0.0045319-15.3505173-4.8210297-17.9678879-12.4593201
	c-0.6644669-1.9345093-0.9910583-3.8800964-0.9910202-5.7714081c-0.0037918-4.6001053,1.944519-8.8801804,5.5782623-11.8520279
	c2.5117493-2.0565262,5.5506363-3.0508575,8.5099716-3.0506973c4.068367-0.0028381,8.0291977,1.8880081,10.2370377,5.5166702
	c1.0606384,1.7437363,1.6670303,3.6035385,1.6667557,5.5064468c0.0009232,1.4837646-0.3712387,2.9840088-1.1473846,4.4410248
	l0.0004196-0.0008087c-1.5166397,2.9011993-4.2018661,4.5983887-7.5512466,4.6165314l-0.0006714,0.0000153l-0.0814514,0.0003967
	c-2.5751801,0.0231323-4.7459106-1.2358246-5.9337845-3.5796509c-0.4892654-0.9435577-0.7737579-1.9397888-0.7736435-2.9564514
	c-0.0014954-0.9921875,0.2759171-1.9929657,0.8472061-2.9359589l-0.0009689,0.0016251
	c0.8425903-1.4398727,2.2784042-2.2163086,3.8789825-2.1970749c0.1317825,0,0.2648163,0.0046844,0.3990326,0.013916
	c1.5230179,0.0796738,2.7812271,1.0229874,3.2667542,2.466774c0.1465302,0.4161224,0.2482071,0.8385315,0.2492981,1.2784348
	c0.0533752,1.108429-0.8641129,2.1248322-2.2831573,2.367569c-0.2849121,0.0625763-0.5812531-0.0463104-0.7578506-0.2784729
	c-0.17659-0.2321625-0.2024307-0.546814-0.0660629-0.8046875c0.3416061-0.6199036,0.5852737-1.1650467,0.5666733-1.4098053
	c-0.0212631-0.1793594-0.0002823-0.26931-0.4452515-0.5723419l-0.0012589-0.0007629
	c-0.2561111-0.1563721-0.4566803-0.2067184-0.6503906-0.2081451c-0.213356,0.0005722-0.4467087,0.0670395-0.7312775,0.2436752
	l0.0027771-0.0017395c-0.662941,0.4376144-0.8741684,0.8783112-0.8894348,1.4827805
	c-0.0000305,0.2106781,0.0340576,0.4437714,0.1079788,0.6963501l0.0006409,0.0021667
	c0.4777679,1.5542297,1.3418198,2.3933258,2.6124191,2.4025421c0.1631393-0.0000153,0.3363342-0.0144806,0.5203781-0.0458832
	c2.5157166-0.484726,3.8889542-1.7713165,3.9331512-4.3365173l-0.0039597-0.226181
	c-0.1121063-3.2975693-2.8667679-5.5593567-6.1192017-5.5740051c-0.9245377,0.0001373-1.8848572,0.1871567-2.8318787,0.5952301
	c-3.1023178,1.3451767-4.9419937,4.1789703-4.9502869,7.5428009c0.0000076,0.2307434,0.0088348,0.4640198,0.0267563,0.699585
	c0.365387,4.5779724,2.9339218,7.8319855,7.0340881,9.0165558l-0.0005875-0.0001678
	c1.1643219,0.3305511,2.3465805,0.4877014,3.519516,0.4877472c6.0316772,0.0054169,11.7985077-4.1800995,13.2557297-10.2373657
	c0.3385925-1.3978424,0.4983978-2.7329712,0.4984436-4.0110626c-0.0042419-4.896904-2.3332443-9.0224609-6.2769089-12.5765533
	c-3.4811249-3.128067-7.7277145-4.556015-12.063942-4.5582962c-9.0642548-0.0052643-18.4463272,6.3060532-21.3363495,16.4849319
	c-0.6461258,2.2687302-0.9528503,4.5681-0.9528961,6.8509979c-0.0103455,12.9523468,9.9219055,25.3888397,23.7563477,28.0027313
	c1.8945465,0.3592529,3.8125305,0.5327454,5.7328491,0.5327454c14.4691238,0.0127716,29.0692673-9.8997955,34.3486557-24.1751404
	c1.4655762-3.9524231,2.160553-8.2045517,2.160553-12.5546188c0.0065155-12.9883118-6.2200012-26.8354263-16.4234619-35.9577408
	c-8.3327942-7.4559402-19.3362198-10.6731262-30.6069565-10.6738815
	c-18.0485077-0.0145111-36.7012024,8.3058014-45.6672935,20.2998276
	c-9.0772018,12.1158524-13.2758904,25.7337952-13.2775612,39.4460449
	c-0.0001831,13.2661896,3.9378777,26.6223755,11.2321129,38.7480011c2.0818863,3.4605865,4.6044388,6.7082977,6.9606743,10.1052704
	l-0.0575523,0.927597L62.9494514,185.9745941z"/>
<path class="st1" d="M62.9494514,185.9745941c-2.3400078-3.375-4.8735008-6.6345062-6.9870071-10.1460114
	c-14.9624977-24.8730011-15.9629974-54.9420013,2.0879974-79.0305023
	c14.9040108-19.8839951,55.2540092-29.524498,77.3745117-9.7350082
	c13.8374939,12.3825073,20.4434814,33.2115097,14.4659882,49.3320084
	c-6.1260071,16.5210114-24.3509979,27.2610016-40.9244995,24.1184998
	c-16.6994934-3.1679993-27.8264923-20.2005005-23.3849945-35.7959976
	c4.4280014-15.548996,23.4269943-22.3470078,34.6230011-12.2789993c5.1029968,4.586998,7.7084961,10.2945023,6.0059967,17.321991
	c-1.8584976,7.6710052-10.1430054,12.4425049-17.7089996,10.2945099c-4.3980026-1.2525024-7.2105026-4.8419952-7.5765076-9.681015
	c-0.3014908-3.9644928,1.7745132-7.4369965,5.3745041-8.9879913c4.6875076-2.0205002,9.8340073,0.836998,9.9974976,5.6415024
	c0.106514,3.0674973-1.7204895,4.8449936-4.5524902,5.3280106c-2.0295105,0.3464813-3.4140015-0.9330139-3.9794998-2.8875122
	c-0.3554993-1.2149963-0.0375061-2.3055038,1.1009979-3.0239944c0.7080002-0.4424973,1.4309921-0.4965057,2.1735001-0.0375061
	c1.326004,0.8160019,0.739502,1.8539963,0.1484985,2.9715042c1.7685013-0.388504,1.9260025-1.426506,1.4880066-2.6624985
	c-0.4245071-1.1955109-1.3365097-1.8809967-2.6115112-1.9695053c-1.5449982-0.1064987-2.7809906,0.4845047-3.5834961,1.8210068
	c-1.024498,1.6964951-0.9300079,3.4605026-0.0494995,5.159996c1.1070023,2.1389923,2.9565048,3.1965027,5.3414993,3.173996
	c3.1079941-0.0345001,5.4705048-1.5285034,6.8969955-4.2180023c1.6484985-3.0989914,1.2900009-6.2639923-0.4980011-9.2054977
	c-3.548996-5.8349991-11.9924927-6.8924942-17.6309967-2.2754974c-4.8824921,3.9990005-6.5459976,10.4144974-4.3529968,16.8000107
	c2.913002,8.4974976,11.7914963,13.3739929,21.0839996,11.5844879
	c10.9365005-2.1074982,18.4305038-11.2034912,18.5654984-22.5359955
	c0.2294922-18.6180038-17.4044952-32.3819885-36.3404999-28.3695068
	c-22.0439987,4.6725082-34.3740005,26.1015015-28.0500031,48.7410126
	c6.7454987,24.1245117,32.0955048,38.8785095,56.8619995,33.0990143
	c35.6924896-8.3310242,55.1625061-41.9460297,44.3850098-77.9535217
	c-8.8725128-29.6550064-29.1330109-48.0525055-59.7060013-52.4625092
	c-23.5979996-3.4034958-44.1735077,5.6669998-60.8235054,22.5630112
	c-32.149498,32.6279984-28.1414948,86.4539871,8.2334976,114.2655106c0.6914978,0.5310059,1.4219971,1.0095062,2.1329956,1.513504
	C62.6689453,186.2895813,62.8084488,186.1320801,62.9494514,185.9745941"/>
</svg>
