<?xml version="1.0" encoding="utf-8"?>
<!-- Generator: Adobe Illustrator 21.1.0, SVG Export Plug-In . SVG Version: 6.00 Build 0)  -->
<svg version="1.1" xmlns="http://www.w3.org/2000/svg" xmlns:xlink="http://www.w3.org/1999/xlink" x="0px" y="0px"
	 viewBox="0 0 141.7299957 141.7299957" style="enable-background:new 0 0 141.7299957 141.7299957;" xml:space="preserve">
<style type="text/css">
	.st0{fill:#FFFFFF;}
	.st1{clip-path:url(#SVGID_2_);}
	.st2{fill:url(#SVGID_3_);}
	.st3{fill:url(#SVGID_4_);}
	.st4{fill:url(#SVGID_5_);}
	.st5{fill:url(#SVGID_6_);}
</style>
<g id="Layer_1">
	<circle class="st0" cx="71.4082565" cy="71.1131058" r="62.1426888"/>
	<g>
		<defs>
			<path id="SVGID_1_" d="M71.4094849,8.3427124c-34.668457,0-62.7716675,28.1032104-62.7716675,62.7703857
				c0,34.6672363,28.1032104,62.7704468,62.7716675,62.7704468c34.6659546,0,62.769165-28.1032104,62.769165-62.7704468
				C134.1786499,36.4459229,106.0754395,8.3427124,71.4094849,8.3427124z M115.3759766,92.0859375c0,0,0,0-0.0009766,0
				c-1.8642578,0-4.1767578-0.5498047-6.8554688-1.1865234c-2.5585938-0.609375-5.4599609-1.2988281-7.9277344-1.4804688
				c-0.1621094-0.0087891-0.4306641-0.0185547-0.71875-0.0185547c-1.9082031,0-2.8203125,0.3935547-3.0195312,0.5488281
				c-0.0839844,0.0947266-0.1728516,0.1845703-0.2636719,0.2705078c-1.2919922,1.4287109-5.9316406,6.4960938-7.3330078,8.0039062
				c-0.8310547,1.0449219-1.8359375,2.1132812-3.1435547,3.34375c-0.2880859,0.2714844-0.6035156,0.5751953-0.9414062,0.9013672
				c-3.3447266,3.2246094-8.3994141,8.0966797-13.7553711,8.1074219c-0.0029297,0-0.0058594,0-0.0087891,0s-0.0058594,0-0.0087891,0
				c-5.3554688-0.0107422-10.2094727-4.6894531-13.7539062-8.1054688c-0.3388672-0.3271484-0.6547852-0.6318359-0.9438477-0.9033203
				c-1.3056641-1.2294922-2.3100586-2.296875-3.1430664-3.34375c-1.3979492-1.5039062-6.0332031-6.5673828-7.3300781-8.0009766
				c-0.0893555-0.0839844-0.175293-0.171875-0.2583008-0.2636719c-0.0043945-0.0048828-0.0092773-0.0087891-0.0141602-0.0136719
				c-0.206543-0.1572266-1.1191406-0.5449219-3.0131836-0.5449219c-0.2880859,0-0.5571289,0.0097656-0.7963867,0.0234375
				c-2.3911133,0.1767578-5.2915039,0.8662109-7.8510742,1.4755859c-2.6782227,0.6367188-4.9907227,1.1865234-6.8549805,1.1865234
				c-2.9375,0-4.4521484-1.3720703-5.2055664-2.5224609c-1.3066406-1.9970703-0.8432617-4.6640625,1.0605469-6.1025391
				c1.5224609-1.1503906,3.1098633-2.2724609,4.7182617-3.3330078c0.0366211-0.0244141,0.0732422-0.0478516,0.1108398-0.0712891
				c2.706543-1.6757812,5.7084961-2.7802734,8.6113281-3.8496094c2.8745117-1.0576172,5.5898438-2.0576172,7.5063477-3.4326172
				c1.6313477-1.1708984,2.8842773-2.9370117,4.3349609-4.9819336c1.7768555-2.503418,3.7900391-5.3413086,6.9394531-7.5078125
				c1.6738281-1.1513672,3.159668-1.9404297,4.3540039-2.574707c2.7939453-1.4833984,3.1533203-1.6738281,3.6640625-4.5986328
				l0.4262695-2.4584961c0.8793945-5.0883789,1.7885742-10.3505859,3.0380859-15.5317383
				c0.4916992-2.0366211,2.3139648-3.472168,4.4091797-3.472168s3.9174805,1.4355469,4.4086914,3.472168
				c1.25,5.1811523,2.1591797,10.4433594,3.0390625,15.5317383l0.4257812,2.4589844
				c0.5107422,2.9243164,0.8701172,3.1152344,3.6640625,4.5981445c1.1943359,0.6342773,2.6806641,1.4233398,4.3535156,2.5742188
				c3.1503906,2.1669922,5.1630859,5.0048828,6.9394531,7.5087891c1.4511719,2.0444336,2.703125,3.8105469,4.3349609,4.9814453
				c1.9160156,1.375,4.6318359,2.375,7.5058594,3.4326172c2.9033203,1.0693359,5.9052734,2.1738281,8.6123047,3.8496094
				c0.0371094,0.0234375,0.0732422,0.046875,0.1103516,0.0712891c1.6064453,1.0595703,3.1943359,2.1806641,4.7177734,3.3320312
				c1.9042969,1.4384766,2.3681641,4.1064453,1.0615234,6.1035156
				C119.8271484,90.7138672,118.3125,92.0859375,115.3759766,92.0859375z"/>
		</defs>
		<clipPath id="SVGID_2_">
			<use xlink:href="#SVGID_1_"  style="overflow:visible;"/>
		</clipPath>
		<g class="st1">
			<radialGradient id="SVGID_3_" cx="71.4082336" cy="71.1131287" r="62.7704163" gradientUnits="userSpaceOnUse">
				<stop  offset="0.1279447" style="stop-color:#FFFAE7"/>
				<stop  offset="0.4688638" style="stop-color:#FFF9E5"/>
				<stop  offset="0.6302803" style="stop-color:#FFF8DF"/>
				<stop  offset="0.753925" style="stop-color:#FFF6D5"/>
				<stop  offset="0.8583471" style="stop-color:#FFF3C7"/>
				<stop  offset="0.9497229" style="stop-color:#FFF0B4"/>
				<stop  offset="0.98" style="stop-color:#FFEEAC"/>
			</radialGradient>
			<path class="st2" d="M71.4094849,8.3427124c-34.668457,0-62.7716675,28.1032104-62.7716675,62.7703857
				c0,34.6672363,28.1032104,62.7704468,62.7716675,62.7704468c34.6659546,0,62.769165-28.1032104,62.769165-62.7704468
				C134.1786499,36.4459229,106.0754395,8.3427124,71.4094849,8.3427124z M107.7797852,99.2735596L78.6668091,82.1585693
				l-7.1610107,40.7210083l-7.1610107-40.7210083L35.2318115,99.2735596l20.8569946-25.3709717l-33.2360229-3.4180298
				l33.2360229-3.4190063L35.2318115,41.6945801l29.1129761,17.1149902l7.1610107-40.7210083l7.1610107,40.7210083
				l29.1129761-17.1149902L86.9227905,67.0655518l33.2360229,3.4190063l-33.2360229,3.4180298L107.7797852,99.2735596z"/>
			<radialGradient id="SVGID_4_" cx="71.4082336" cy="71.1131287" r="62.7704163" gradientUnits="userSpaceOnUse">
				<stop  offset="0.1279447" style="stop-color:#FFFAE7"/>
				<stop  offset="0.2624334" style="stop-color:#FFF9E4"/>
				<stop  offset="0.3788504" style="stop-color:#FFF7DC"/>
				<stop  offset="0.4885552" style="stop-color:#FFF4CE"/>
				<stop  offset="0.5941883" style="stop-color:#FFF1BA"/>
				<stop  offset="0.6969358" style="stop-color:#FFECA0"/>
				<stop  offset="0.7975063" style="stop-color:#FFE781"/>
				<stop  offset="0.8944098" style="stop-color:#FEE255"/>
				<stop  offset="0.98" style="stop-color:#FDDD10"/>
			</radialGradient>
			<path class="st3" d="M71.4094849,8.3427124c-34.668457,0-62.7716675,28.1032104-62.7716675,62.7703857
				c0,34.6672363,28.1032104,62.7704468,62.7716675,62.7704468c34.6659546,0,62.769165-28.1032104,62.769165-62.7704468
				C134.1786499,36.4459229,106.0754395,8.3427124,71.4094849,8.3427124z M113.3463745,103.6915894L79.7657471,83.9501343
				l-8.2599487,46.9700317l-8.2599487-46.9700317l-33.5806274,19.7414551l24.0576782-29.2644043l-38.3363647-3.9425049
				l38.3363647-3.9437256L29.6652222,37.2765503l33.5806274,19.7414551l8.2599487-46.9700317l8.2599487,46.9700317
				l33.5806274-19.7414551L89.2886963,66.5409546l38.3363647,3.9437256l-38.3363647,3.9425049L113.3463745,103.6915894z"/>
		</g>
	</g>
</g>
<g id="Layer_2_copy_2">
	<linearGradient id="SVGID_5_" gradientUnits="userSpaceOnUse" x1="24.0291882" y1="71.112793" x2="118.7864075" y2="71.112793">
		<stop  offset="0" style="stop-color:#FDDD10"/>
		<stop  offset="0.0662209" style="stop-color:#FEDF36"/>
		<stop  offset="0.1879268" style="stop-color:#FEE35E"/>
		<stop  offset="0.3039606" style="stop-color:#FEE675"/>
		<stop  offset="0.4108766" style="stop-color:#FFE781"/>
		<stop  offset="0.5" style="stop-color:#FFE885"/>
		<stop  offset="1" style="stop-color:#FDDD10"/>
	</linearGradient>
	<path class="st4" d="M117.9912109,85.4833984c-1.4804688-1.1191406-3.0234375-2.2089844-4.5859375-3.2392578
		c-0.0166016-0.0107422-0.0322266-0.0214844-0.0488281-0.03125c-2.4882812-1.5410156-5.3681641-2.6005859-8.1523438-3.6259766
		c-3.0410156-1.1191406-5.9130859-2.1767578-8.109375-3.7529297c-1.9755859-1.4179688-3.4082031-3.4365234-4.9238281-5.5742188
		c-1.7353516-2.4458008-3.5292969-4.9746094-6.3085938-6.8867188c-1.5537109-1.0688477-2.9101562-1.7885742-4.1064453-2.4233398
		c-3.0048828-1.5952148-4.2480469-2.2553711-4.9726562-6.4018555l-0.4267578-2.4633789
		c-0.8720703-5.0483398-1.7744141-10.2685547-3.0048828-15.3686523c-0.2158203-0.8984375-1.0195312-1.53125-1.9438477-1.53125
		c-0.9238281,0-1.7275391,0.6328125-1.9443359,1.53125c-1.2299805,5.1000977-2.1323242,10.3203125-3.0043945,15.3686523
		l-0.4272461,2.4628906c-0.7241211,4.1464844-1.9677734,4.8071289-4.9726562,6.4023438
		c-1.1962891,0.6347656-2.5522461,1.3544922-4.105957,2.4233398c-2.7788086,1.9121094-4.5732422,4.440918-6.3085938,6.8867188
		c-1.5161133,2.1376953-2.9487305,4.15625-4.9243164,5.5742188c-2.1962891,1.5761719-5.0683594,2.6337891-8.1088867,3.7529297
		c-2.784668,1.0253906-5.6640625,2.0849609-8.2016602,3.6572266c-1.5634766,1.03125-3.1064453,2.1210938-4.5859375,3.2392578
		c-0.8398438,0.6347656-1.0439453,1.8105469-0.4677734,2.6914062c1.4057617,2.1464844,4.3964844,1.4355469,9.3525391,0.2578125
		c2.6518555-0.6308594,5.6577148-1.3457031,8.2939453-1.5400391c2.5668945-0.1484375,4.6889648,0.2978516,5.6918945,1.2070312
		c0.0415039,0.0400391,0.0854492,0.078125,0.1235352,0.1210938c0.0649414,0.0761719,0.1347656,0.1464844,0.2089844,0.2109375
		c1.1625977,1.2880859,6.1254883,6.7099609,7.456543,8.1396484c0.7661133,0.9716797,1.7080078,1.9755859,2.9560547,3.1494141
		c0.2954102,0.2783203,0.6186523,0.5898438,0.965332,0.9238281c3.0517578,2.9423828,7.6640625,7.3876953,12.0068359,7.3964844
		c4.3354492-0.0087891,8.9487305-4.4550781,12.0004883-7.3974609c0.3457031-0.3339844,0.6689453-0.6445312,0.9628906-0.921875
		c1.25-1.1767578,2.1923828-2.1796875,2.9570312-3.1513672c1.3378906-1.4365234,6.3271484-6.8867188,7.4677734-8.1513672
		c0.0683594-0.0595703,0.1337891-0.1240234,0.1943359-0.1943359c0.0380859-0.0439453,0.0810547-0.0810547,0.1445312-0.1445312
		c0.984375-0.8896484,3.109375-1.3330078,5.6396484-1.1904297c2.6708984,0.1972656,5.6757812,0.9121094,8.328125,1.5429688
		c4.9560547,1.1777344,7.9482422,1.8886719,9.3535156-0.2578125
		C119.0361328,87.2939453,118.8310547,86.1171875,117.9912109,85.4833984z M117.6230469,87.6269531
		c-1.0205078,1.5595703-3.7519531,0.9091797-8.2851562-0.1669922c-2.6884766-0.6396484-5.7353516-1.3642578-8.4853516-1.5673828
		c-1.3476562-0.0732422-4.6855469-0.0898438-6.3837891,1.4462891c-0.109375,0.1054688-0.1748047,0.1660156-0.2333984,0.234375
		c-0.046875,0.0546875-0.0986328,0.1035156-0.1552734,0.1455078c-1.234375,1.3730469-6.3046875,6.9111328-7.5380859,8.2333984
		c-0.6855469,0.8837891-1.609375,1.8720703-2.8515625,3.0410156c-0.2978516,0.2802734-0.6230469,0.59375-0.9726562,0.9296875
		c-2.9365234,2.8320312-7.375,7.1103516-11.3081055,7.1181641c-3.9365234-0.0078125-8.3745117-4.2851562-11.3110352-7.1162109
		c-0.3496094-0.3369141-0.6757812-0.6513672-0.9741211-0.9316406c-1.2402344-1.1669922-2.1645508-2.1552734-2.9086914-3.1083984
		c-1.1972656-1.2773438-6.421875-6.9853516-7.4946289-8.1757812c-0.0517578-0.0410156-0.0996094-0.0869141-0.1430664-0.1376953
		c-0.0600586-0.0703125-0.1274414-0.1318359-0.1933594-0.1953125c-1.7368164-1.5732422-5.0795898-1.5576172-6.4389648-1.4824219
		c-2.7329102,0.2021484-5.7802734,0.9267578-8.4682617,1.5664062c-4.5307617,1.0761719-7.2626953,1.7275391-8.2851562,0.1669922
		c-0.2880859-0.4404297-0.1855469-1.0283203,0.2338867-1.3457031c1.4628906-1.1054688,2.9882812-2.1826172,4.5341797-3.203125
		c2.4267578-1.5029297,5.2583008-2.5449219,7.9960938-3.5527344c3.1064453-1.1435547,6.0405273-2.2236328,8.3466797-3.8789062
		c2.1113281-1.515625,3.5908203-3.6005859,5.1572266-5.8081055c1.6845703-2.3745117,3.4267578-4.8300781,6.0595703-6.6411133
		c1.5068359-1.0366211,2.8354492-1.7421875,4.0078125-2.3647461c3.0180664-1.6020508,4.6806641-2.484375,5.4892578-7.112793
		l0.4272461-2.4648438c0.8696289-5.0327148,1.7685547-10.2363281,2.9912109-15.3046875
		c0.1083984-0.4492188,0.5102539-0.765625,0.972168-0.765625s0.8637695,0.3164062,0.972168,0.765625
		c1.2226562,5.0683594,2.1220703,10.2719727,2.9912109,15.3046875l0.4277344,2.4648438
		c0.8076172,4.628418,2.4707031,5.5107422,5.4882812,7.1132812c1.1728516,0.6220703,2.5019531,1.3276367,4.0078125,2.3642578
		c2.6328125,1.8110352,4.375,4.2666016,6.0595703,6.6411133c1.5664062,2.2075195,3.0458984,4.2924805,5.1572266,5.8081055
		c2.3066406,1.6552734,5.2402344,2.7353516,8.3466797,3.8789062c2.7382812,1.0078125,5.5693359,2.0498047,7.9716797,3.5371094
		c0.0078125,0.0058594,0.0166016,0.0107422,0.0244141,0.015625c1.5449219,1.0195312,3.0703125,2.0966797,4.5341797,3.203125
		C117.8085938,86.5986328,117.9111328,87.1865234,117.6230469,87.6269531z"/>
	<linearGradient id="SVGID_6_" gradientUnits="userSpaceOnUse" x1="26.0292683" y1="71.1127548" x2="116.7858505" y2="71.1127548">
		<stop  offset="0" style="stop-color:#FFE885"/>
		<stop  offset="0.0662209" style="stop-color:#FEE574"/>
		<stop  offset="0.1879268" style="stop-color:#FEE151"/>
		<stop  offset="0.3039606" style="stop-color:#FEDF34"/>
		<stop  offset="0.4108766" style="stop-color:#FDDD1C"/>
		<stop  offset="0.5" style="stop-color:#FDDD10"/>
		<stop  offset="1" style="stop-color:#FFE885"/>
	</linearGradient>
	<path class="st5" d="M112.3036728,83.9132767c-4.9402466-3.0584641-11.8247375-4.1884308-16.3748245-7.4541702
		c-4.6044769-3.3049393-6.3433304-9.0964127-11.2006607-12.4383011c-5.4348907-3.7391853-8.694809-3.1432495-9.9148178-10.1294098
		c-1.0344467-5.9245148-1.9951324-11.8587837-3.4057617-17.7069511V36.184021l-0.0000458,0.0001869l-0.0000534-0.0001869v0.0004234
		c-1.4106293,5.8481674-2.371315,11.7824364-3.4057617,17.7069511c-1.2200089,6.9861603-4.4799271,6.3902245-9.914814,10.1294098
		c-4.8573341,3.3418884-6.5961838,9.1333618-11.2006645,12.4383011c-4.5500832,3.2657394-11.4345741,4.3957062-16.3748207,7.4541702
		c-1.5276356,1.0074768-3.0216961,2.0626068-4.4821796,3.1653824c1.1102753,1.6972046,9.2297802-1.6934586,15.8597317-2.1830368
		c1.9097328-0.1084213,5.2407455-0.0054398,7.1277809,1.7007675c0.109169,0.1057968,0.2215309,0.20784,0.3215065,0.3250732
		c0.0016899-0.0050659,0.0037537-0.0099411,0.0052528-0.015007c0.0030022,0.0033798,0.0067558,0.0060043,0.0097542,0.0093842
		c0.7287407,0.8180237,6.3521461,6.9617691,7.6509361,8.3539734c0.7514381,0.9626541,1.6820145,1.9373093,2.8059845,2.9952545
		c2.6866798,2.528923,7.6218147,7.7677002,11.5972939,7.7764206l0,0h0.0000534h0.0000458l0,0
		c3.9754791-0.0087204,8.910614-5.2474976,11.5972977-7.7764206c1.12397-1.0579453,2.0545425-2.0326004,2.8059769-2.9952545
		c1.2987976-1.3922043,6.9221954-7.5359497,7.6509399-8.3539734c0.0029984-0.0033798,0.006752-0.0060043,0.009758-0.0093842
		c0.0014954,0.0050659,0.0035629,0.0099411,0.005249,0.015007c0.0999756-0.1172333,0.2123413-0.2192764,0.3215103-0.3250732
		c1.8870316-1.7062073,5.2180481-1.8091888,7.1277771-1.7007675c6.6299515,0.4895782,14.7494583,3.8802414,15.8597336,2.1830368
		C115.3253632,85.9758835,113.8313065,84.9207535,112.3036728,83.9132767z M61.2119827,90.4794464
		c-0.9403267-0.6632767-1.8722153-1.3379974-2.7960396-2.0241547c-0.4601288-0.8930588-0.3924103-1.8367691,0.2031479-2.8313065
		C59.0595245,86.27845,61.6297226,90.0099411,61.2119827,90.4794464z M84.3991699,88.4552917
		c-0.9238205,0.6861572-1.8557053,1.360878-2.7960358,2.0241547c-0.4177399-0.4695053,2.1524582-4.2009964,2.5928955-4.8554611
		C84.7915878,86.6185226,84.8592987,87.562233,84.3991699,88.4552917z"/>
</g>
</svg>
