<?xml version="1.0" encoding="utf-8"?>
<!-- Generator: Adobe Illustrator 21.1.0, SVG Export Plug-In . SVG Version: 6.00 Build 0)  -->
<svg version="1.1" id="Layer_2" xmlns="http://www.w3.org/2000/svg" xmlns:xlink="http://www.w3.org/1999/xlink" x="0px" y="0px"
	 viewBox="0 0 222.199295 242.201004" style="enable-background:new 0 0 222.199295 242.201004;" xml:space="preserve">
<style type="text/css">
	.st0{fill:none;}
	.st1{fill:url(#SVGID_1_);}
	.st2{fill:url(#SVGID_2_);}
	.st3{fill:url(#SVGID_3_);}
	.st4{fill:url(#SVGID_4_);}
	.st5{fill:url(#SVGID_5_);}
	.st6{clip-path:url(#SVGID_7_);}
	.st7{fill:url(#SVGID_8_);}
	.st8{fill:url(#SVGID_9_);}
	.st9{fill:none;stroke:#FFFFFF;stroke-width:0.7499828;stroke-linecap:round;stroke-linejoin:round;stroke-miterlimit:10;}
	.st10{fill:none;stroke:url(#SVGID_10_);stroke-width:3.9999082;stroke-linecap:round;stroke-linejoin:round;stroke-miterlimit:10;}
	.st11{fill:none;stroke:#FFFFFF;stroke-width:1.9999541;stroke-linecap:round;stroke-linejoin:round;stroke-miterlimit:10;}
	.st12{fill:url(#SVGID_11_);}
	.st13{display:none;fill:url(#SVGID_12_);}
</style>
<rect x="194.7597961" y="214.7789917" class="st0" width="27.5399933" height="27.5400085"/>
<rect x="194.7597961" y="0.1180115" class="st0" width="27.5399933" height="27.5399933"/>
<rect x="194.7597961" y="0.1180115" class="st0" width="27.5399933" height="27.5399933"/>
<rect x="194.7597961" y="0.1180115" class="st0" width="27.5399933" height="27.5399933"/>
<rect x="194.7597961" y="0.1180115" class="st0" width="27.5399933" height="27.5399933"/>
<rect y="214.6609955" class="st0" width="27.5400009" height="27.5399933"/>
<rect y="214.6609955" class="st0" width="27.5400009" height="27.5399933"/>
<rect class="st0" width="27.5400009" height="27.5399933"/>
<rect class="st0" width="27.5400009" height="27.5399933"/>
<g>
	
		<linearGradient id="SVGID_1_" gradientUnits="userSpaceOnUse" x1="37.7564468" y1="29.3397064" x2="37.7564468" y2="61.2890015" gradientTransform="matrix(1 0 0 -1 0 244)">
		<stop  offset="0" style="stop-color:#575454"/>
		<stop  offset="0.0043636" style="stop-color:#575454"/>
		<stop  offset="0.3002784" style="stop-color:#656060"/>
		<stop  offset="0.6194659" style="stop-color:#6E6868"/>
		<stop  offset="0.976243" style="stop-color:#706B6B"/>
		<stop  offset="1" style="stop-color:#706B6B"/>
	</linearGradient>
	<path class="st1" d="M36.6024208,214.6602936c-4.2476234,0-6.8790646-1.2006683-7.8492393-1.7545624
		c-0.8768883-1.0156403-1.4770279-4.3401337-1.4770279-7.4795837c0.323391-0.6001434,1.3852959-0.6464081,1.7545547-0.138382
		c0.9235306,3.0010834,4.0167389,7.2487183,7.9409714,7.2487183c3.4165993,0,4.9861374-2.3547058,4.9861374-4.663147
		c0-3.7399902-3.5083313-5.9559174-6.2789268-7.341217c-3.3240929-1.6620483-6.9715748-4.432251-6.9715748-9.0028687
		c-0.045866-5.2170258,4.0167408-8.8182526,10.711565-8.8182526c1.523674,0,3.4166031,0.1846313,5.262886,0.7385101
		c0.6001396,0.1846313,1.0160408,0.2771454,1.5703163,0.3696442c0.3692551,1.0156555,0.8310204,3.508728,0.8310204,6.6019287
		c-0.2308807,0.5542755-1.3852959,0.6005402-1.8011971,0.1387634c-0.7843781-2.3546906-2.7698174-5.7250366-6.0939064-5.7250366
		c-3.0473442,0-4.7093887,1.9850464-4.7093887,4.2934875c0,2.1238098,1.8929291,4.0630035,4.2009773,5.2636719l3.0473442,1.6157837
		c2.8623276,1.5236664,6.5098076,4.2013702,6.5098076,9.280014
		C48.2367401,210.9665527,43.5739975,214.6602936,36.6024208,214.6602936z"/>
	
		<linearGradient id="SVGID_2_" gradientUnits="userSpaceOnUse" x1="68.7130203" y1="29.9402313" x2="68.7130203" y2="60.688858" gradientTransform="matrix(1 0 0 -1 0 244)">
		<stop  offset="0" style="stop-color:#575454"/>
		<stop  offset="0.0043636" style="stop-color:#575454"/>
		<stop  offset="0.3002784" style="stop-color:#656060"/>
		<stop  offset="0.6194659" style="stop-color:#6E6868"/>
		<stop  offset="0.976243" style="stop-color:#706B6B"/>
		<stop  offset="1" style="stop-color:#706B6B"/>
	</linearGradient>
	<path class="st2" d="M63.8885803,199.2855835c-1.8929291,0-1.9395714,0.0462646-1.9395714,1.3390503v6.6481781
		c0,4.2938843,0.277523,4.7093964,2.3546944,4.9865265l1.4778061,0.1846313c0.3692551,0.2771301,0.3692551,1.3390503,0,1.615799
		c-2.631443-0.0921326-4.9402733-0.138382-7.018219-0.138382c-2.2155418,0-4.5243721,0.0462494-6.8790665,0.138382
		c-0.3692551-0.2767487-0.3692551-1.3386688,0-1.615799l1.108551-0.1383667
		c2.1238098-0.2771454,2.3546944-0.7389069,2.3546944-5.0327911v-17.1747284c0-4.293869-0.2308846-4.7556458-2.3546944-5.0323944
		l-1.108551-0.1387634c-0.3692551-0.2767487-0.3692551-1.3386536,0-1.6157837
		c2.262188,0.0924988,4.6635246,0.1383667,6.8790665,0.1383667c2.0779457,0,4.386776-0.0458679,6.4180756-0.1383667
		c0.3692551,0.2771301,0.3692551,1.339035,0,1.6157837l-0.9693985,0.1387634
		c-1.9854355,0.2767487-2.2629585,0.7385254-2.2629585,5.0323944v5.3553925c0,1.3390503,0.0466423,1.3852997,1.9395714,1.3852997
		h9.6030121c1.938797,0,1.938797-0.0462494,1.938797-1.3852997v-5.3553925c0-4.293869-0.2301025-4.6631317-2.35392-4.9861298
		l-1.2469177-0.1850281c-0.3692551-0.2767487-0.3692551-1.3386536,0-1.6157837
		c2.5389328,0.0924988,4.8018951,0.1383667,7.0174408,0.1383667c2.2629623,0,4.385994-0.0458679,6.5098038-0.1383667
		c0.3700333,0.2771301,0.3700333,1.339035,0,1.6157837l-0.9227524,0.1387634
		c-2.1238098,0.3230133-2.4013367,0.7385254-2.4013367,5.0323944v17.1747284c0,4.2938843,0.2775269,4.6172791,2.4013367,4.9865265
		l1.1077728,0.1846313c0.3692551,0.2771301,0.3692551,1.3390503,0,1.615799
		c-2.3088303-0.0921326-4.5710144-0.138382-6.6948242-0.138382c-2.3080521,0-4.5702362,0.0462494-6.7865601,0.138382
		c-0.3692551-0.2767487-0.3692551-1.3386688,0-1.615799l1.016037-0.1383667
		c2.1238174-0.2771454,2.35392-0.7389069,2.35392-5.0327911v-6.6481781c0-1.2927856,0-1.3390503-1.938797-1.3390503H63.8885803z"/>
</g>
<linearGradient id="SVGID_3_" gradientUnits="userSpaceOnUse" x1="134.7911072" y1="29.8014832" x2="134.7911072" y2="60.688858" gradientTransform="matrix(1 0 0 -1 0 244)">
	<stop  offset="0" style="stop-color:#131D20"/>
	<stop  offset="0.0237569" style="stop-color:#131D20"/>
	<stop  offset="0.1677377" style="stop-color:#252D2F"/>
	<stop  offset="0.7414711" style="stop-color:#535354"/>
	<stop  offset="1" style="stop-color:#645F5F"/>
</linearGradient>
<path class="st3" d="M123.3102112,190.9291077c0-4.6168823-0.0925064-5.1248932-2.0320816-5.4016418l-1.2461472-0.1850281
	c-0.4617615-0.230484-0.4617615-1.384903,0.092514-1.6157837c3.4624634-0.2308807,7.0633011-0.4155121,11.449295-0.4155121
	c3.9250183,0,7.2949677,0.6001434,9.04953,1.6620483c2.6780853,1.5699158,4.0626068,3.8783569,4.0626068,6.8331909
	c0,4.1088562-2.7698212,5.8634186-4.893631,6.9253235c-0.4617767,0.2308807-0.4617767,0.5080261-0.2308807,1.0156555
	c3.0473328,6.1867981,4.9402618,9.6492615,7.1565857,11.5421906c1.2002869,0.9697876,2.4005585,1.246933,3.0932007,1.2928009
	c0.4151306,0.2308807,0.4151306,0.9235229,0.1842499,1.2006683c-0.7385101,0.322998-2.2155457,0.4154968-3.6474915,0.4154968
	c-4.2468414,0-6.9249268-1.5236664-8.9562225-4.8477631c-1.4778137-2.4471893-2.5397186-4.7093811-3.6016235-7.156189
	c-0.5534973-1.246933-1.2927856-1.6161804-2.4472046-1.6161804c-1.6154022,0-1.7079163,0.0924988-1.7079163,1.0156403v5.6787872
	c0,4.2476196,0.2767487,4.5710144,2.3547058,4.9402771l1.2469177,0.2308807c0.3226166,0.2308807,0.3226166,1.3390503,0,1.615799
	c-2.4472046-0.0921326-4.5710144-0.138382-6.7873306-0.138382c-2.3080521,0-4.3401337,0.0462494-6.7406921,0.138382
	c-0.3692627-0.2767487-0.3692627-1.3849182,0-1.615799l1.2469177-0.2308807
	c2.0771713-0.3692627,2.3546982-0.6926575,2.3546982-4.9402771V190.9291077z M129.6349945,196.7925262
	c0,1.6157837,0.138382,1.7545471,2.8623352,1.7545471c1.6620483,0,2.6322174-0.4155121,3.5091095-1.2927856
	c0.7851562-0.7847748,1.6620483-2.2621918,1.6620483-4.986145c0-4.1555023-2.4472046-6.8331909-6.0480499-6.8331909
	c-1.8929291,0-1.9854431,0.1383667-1.9854431,2.3546906V196.7925262z"/>
<linearGradient id="SVGID_4_" gradientUnits="userSpaceOnUse" x1="164.3766479" y1="29.3397064" x2="164.3766479" y2="61.2890015" gradientTransform="matrix(1 0 0 -1 0 244)">
	<stop  offset="0" style="stop-color:#131D20"/>
	<stop  offset="0.0237569" style="stop-color:#131D20"/>
	<stop  offset="0.1677377" style="stop-color:#252D2F"/>
	<stop  offset="0.7414711" style="stop-color:#535354"/>
	<stop  offset="1" style="stop-color:#645F5F"/>
</linearGradient>
<path class="st4" d="M177.5583496,183.9112854c0,0.8310089,0.138382,4.5247498,0.5534973,7.2024536
	c-0.1842346,0.5538788-1.4311523,0.7389069-1.7545471,0.3233948c-1.2461395-4.2938843-4.2009888-6.6023254-8.6794891-6.6023254
	c-5.1245117,0-10.6190491,4.3860016-10.6190491,13.5735016c0,9.1878967,5.3095245,14.1281738,10.8499298,14.1281738
	c5.5862885,0,8.1718597-4.0167389,9.4187775-7.156601c0.3692627-0.3692474,1.4770355-0.230484,1.7537842,0.3233948
	c-0.3226166,3.4165955-1.1077728,6.1868134-1.7537842,7.2487183c-2.4930573,0.6922607-5.771286,1.7082977-9.3729095,1.7082977
	c-4.5243683,0-9.1412506-1.0619049-12.4194794-3.5091095c-3.3240814-2.5393219-5.8630219-6.3714447-5.8630219-12.0964813
	c0-5.6325226,2.4005585-9.6030121,5.5862732-12.234848c3.2782288-2.7239532,7.9868469-4.1088562,12.7887421-4.1088562
	C172.7564545,182.7109985,176.1730652,183.8191528,177.5583496,183.9112854z"/>
<linearGradient id="SVGID_5_" gradientUnits="userSpaceOnUse" x1="102.738121" y1="29.9402313" x2="102.738121" y2="61.2890015" gradientTransform="matrix(1 0 0 -1 0 244)">
	<stop  offset="0" style="stop-color:#000000"/>
	<stop  offset="0.102136" style="stop-color:#000000"/>
	<stop  offset="0.2697589" style="stop-color:#0E171A"/>
	<stop  offset="0.4813125" style="stop-color:#1F272A"/>
	<stop  offset="0.7084354" style="stop-color:#283033"/>
	<stop  offset="0.976243" style="stop-color:#2B3336"/>
	<stop  offset="1" style="stop-color:#2B3336"/>
</linearGradient>
<path class="st5" d="M97.7319641,203.4869537c-1.1077728,0-1.2461472,0.0462646-1.523674,0.9235382l-1.800415,5.3557739
	c-0.2767487,0.9231567-0.3233948,1.2928009-0.3233948,1.6620483c0,0.2771454,0.6001434,0.553894,1.8929291,0.7847748
	l1.3852997,0.2308807c0.2767487,0.322998,0.3692551,1.384903-0.0925064,1.615799
	c-1.6154099-0.0921326-3.2782288-0.0921326-5.2170258-0.138382c-1.5695343,0-2.6314392,0.138382-4.755249,0.138382
	c-0.5084152-0.2767487-0.4617691-1.2465363-0.1383743-1.615799l1.2461395-0.1383667
	c1.108551-0.1387634,2.0313034-0.5080261,2.8164597-2.3084412c0.7851639-1.8470764,1.6620483-4.0630035,2.9089737-7.387085
	l4.2009811-11.2654572c1.0619049-2.9085846,1.8470612-4.524765,1.7086868-5.8634186
	c2.215538-0.5080109,3.9242325-2.7702026,4.0167389-2.7702026c0.6001434,0,0.8768921,0.2308807,1.0619049,0.9231415
	c0.3692551,1.3390503,0.9227524,3.047348,2.0771713,6.3255768l6.278923,18.0982513
	c0.9693985,2.7702179,1.3852997,3.8321228,3.0932083,4.1088715l1.7545547,0.2771301
	c0.2775269,0.2308807,0.3692551,1.3390503-0.0458679,1.615799c-2.2163162-0.0921326-4.7093887-0.138382-7.1099472-0.138382
	c-2.3088303,0-4.1092453,0.0462494-6.2330551,0.138382c-0.507637-0.2767487-0.6001434-1.2465363-0.092514-1.615799
	l1.4778061-0.2308807c1.0619049-0.1846313,1.2461472-0.5076294,1.2461472-0.7847748
	c0-0.3233948-0.3226166-1.4311523-0.8768921-3.1394653l-1.2469177-3.970871
	c-0.2308807-0.7385101-0.6001434-0.8310242-2.2155457-0.8310242H97.7319641z M102.9956284,201.0401459
	c1.0619049,0,1.2927856-0.138382,0.9227524-1.3390503l-1.2002792-3.7395935
	c-0.6460037-1.9850464-1.4770279-4.4785156-1.8929291-5.4479065c-0.3692551,1.0619049-1.2927856,3.5549774-1.9854355,5.6787872
	l-1.1536407,3.4628601c-0.4158936,1.246521-0.1850128,1.384903,0.9693985,1.384903H102.9956284z"/>
<g>
	<g>
		<defs>
			<path id="SVGID_6_" d="M103.179306,33.7006035c-34.6676636,0-62.7702255,28.1025658-62.7702255,62.7689476
				c0,34.6664352,28.102562,62.7690048,62.7702255,62.7690048c34.6651611,0,62.7677307-28.1025696,62.7677307-62.7690048
				C165.9470367,61.8031693,137.8444672,33.7006035,103.179306,33.7006035z M147.1447906,117.4419098h-0.0009766
				c-1.864212,0-4.1766663-0.5497894-6.8553162-1.1865005c-2.5585327-0.6093597-5.4598389-1.2987976-7.9275513-1.4804306
				c-0.1621094-0.0087891-0.4306488-0.0185547-0.7187347-0.0185547c-1.9081573,0-2.8202515,0.3935471-3.019455,0.5488129
				c-0.0839844,0.0947266-0.1728516,0.1845703-0.2636719,0.2705002c-1.2919617,1.4286804-5.9315033,6.4959488-7.33284,8.0037231
				c-0.8310318,1.044899-1.8358917,2.1132355-3.1434784,3.3436737c-0.2880783,0.2714844-0.6035004,0.5751877-0.9413834,0.9013519
				c-3.3446503,3.2245255-8.3992233,8.096489-13.7550583,8.1072311c-0.0029297,0-0.0058594,0-0.0087891,0s-0.0058594,0-0.0087891,0
				c-5.3553467-0.0107422-10.2092361-4.6893463-13.7535934-8.105278c-0.3388596-0.3271408-0.6547699-0.6318207-0.9438248-0.9033051
				c-1.3056335-1.2294617-2.3100052-2.2968216-3.1429901-3.3436737c-1.3979187-1.5038681-6.0330658-6.5672302-7.3299103-8.0007935
				c-0.0893555-0.0839767-0.175293-0.1718674-0.2582932-0.2636642c-0.0043945-0.0048828-0.0092773-0.0087891-0.0141602-0.0136719
				c-0.206543-0.1572189-1.1191177-0.5449066-3.0131149-0.5449066c-0.2880859,0-0.5571213,0.0097656-0.7963715,0.0234375
				c-2.3910599,0.1767502-5.2913818,0.866188-7.8508911,1.4755478c-2.6781654,0.6367111-4.990612,1.1865005-6.8548279,1.1865005
				c-2.9374313,0-4.4520454-1.3720398-5.2054443-2.5224075c-1.3066101-1.9970245-0.8432426-4.6639557,1.0605202-6.1023941
				c1.5224266-1.1503677,3.1097946-2.2724075,4.7181549-3.3329315c0.0366211-0.0244141,0.0732422-0.0478516,0.110836-0.0712891
				c2.7064819-1.6757431,5.7083664-2.7802124,8.6111298-3.8495178c2.8744507-1.0575943,5.5897141-2.0575714,7.5061798-3.4325409
				c1.6313095-1.1708755,2.8842087-2.9369431,4.3348618-4.9818192c1.7768097-2.5033646,3.7899475-5.3411865,6.9392929-7.5076447
				c1.67379-1.1513367,3.1595917-1.9403839,4.3539047-2.574646c2.7938766-1.4833603,3.153244-1.67379,3.6639786-4.598526
				l0.4262543-2.4584427c0.8793793-5.0882568,1.7885361-10.3503418,3.0380173-15.5313797
				c0.4916916-2.0365715,2.3139114-3.4720879,4.4090805-3.4720879s3.9173889,1.4355164,4.4085922,3.4720879
				c1.2499695,5.1810379,2.1591263,10.4431229,3.0389938,15.5313797l0.425766,2.458931
				c0.5107346,2.9242477,0.8701019,3.1151657,3.6639786,4.5980377c1.194313,0.6342621,2.680603,1.4233093,4.3534164,2.5741577
				c3.150322,2.1669464,5.1629715,5.0047684,6.9392929,7.5086212c1.4511414,2.0443878,2.7030716,3.8104553,4.3348618,4.9813309
				c1.9159698,1.3749695,4.6317291,2.3749466,7.5056915,3.4325409c2.9032593,1.0693054,5.9051361,2.1737747,8.6121063,3.8495178
				c0.0371094,0.0234375,0.0732422,0.046875,0.1103516,0.0712891c1.6063995,1.0595474,3.1942596,2.1806107,4.7176666,3.331955
				c1.9042511,1.4384384,2.368103,4.1063461,1.0614929,6.1033707
				C151.5958557,116.06987,150.0812531,117.4419098,147.1447906,117.4419098z"/>
		</defs>
		<clipPath id="SVGID_7_">
			<use xlink:href="#SVGID_6_"  style="overflow:visible;"/>
		</clipPath>
		<g class="st6">
			
				<radialGradient id="SVGID_8_" cx="103.1780548" cy="147.530426" r="62.7689781" gradientTransform="matrix(1 0 0 -1 0 244)" gradientUnits="userSpaceOnUse">
				<stop  offset="0.1279447" style="stop-color:#FFFAE7"/>
				<stop  offset="0.4688638" style="stop-color:#FFF9E5"/>
				<stop  offset="0.6302803" style="stop-color:#FFF8DF"/>
				<stop  offset="0.753925" style="stop-color:#FFF6D5"/>
				<stop  offset="0.8583471" style="stop-color:#FFF3C7"/>
				<stop  offset="0.9497229" style="stop-color:#FFF0B4"/>
				<stop  offset="0.98" style="stop-color:#FFEEAC"/>
			</radialGradient>
			<path class="st7" d="M103.179306,33.7006035c-34.6676636,0-62.7702255,28.1025658-62.7702255,62.7689476
				c0,34.6664352,28.102562,62.7690048,62.7702255,62.7690048c34.6651611,0,62.7677307-28.1025696,62.7677307-62.7690048
				C165.9470367,61.8031693,137.8444672,33.7006035,103.179306,33.7006035z M139.5487671,124.629364l-29.1123047-17.1145935
				l-7.1608429,40.7200775l-7.1608505-40.7200775L67.0024643,124.629364l20.856514-25.3703842l-33.23526-3.4179535
				l33.23526-3.4189301l-20.856514-25.3703918L96.114769,84.1663055l7.1608505-40.7200737l7.1608429,40.7200737
				l29.1123047-17.1146011l-20.856514,25.3703918l33.2352676,3.4189301l-33.2352676,3.4179535L139.5487671,124.629364z"/>
			
				<radialGradient id="SVGID_9_" cx="103.1780548" cy="147.530426" r="62.7689781" gradientTransform="matrix(1 0 0 -1 0 244)" gradientUnits="userSpaceOnUse">
				<stop  offset="0.1279447" style="stop-color:#FFFAE7"/>
				<stop  offset="0.2624334" style="stop-color:#FFF9E4"/>
				<stop  offset="0.3788504" style="stop-color:#FFF7DC"/>
				<stop  offset="0.4885552" style="stop-color:#FFF4CE"/>
				<stop  offset="0.5941883" style="stop-color:#FFF1BA"/>
				<stop  offset="0.6969358" style="stop-color:#FFECA0"/>
				<stop  offset="0.7975063" style="stop-color:#FFE781"/>
				<stop  offset="0.8944098" style="stop-color:#FEE255"/>
				<stop  offset="0.98" style="stop-color:#FDDD10"/>
			</radialGradient>
			<path class="st8" d="M103.179306,33.7006035c-34.6676636,0-62.7702255,28.1025658-62.7702255,62.7689476
				c0,34.6664352,28.102562,62.7690048,62.7702255,62.7690048c34.6651611,0,62.7677307-28.1025696,62.7677307-62.7690048
				C165.9470367,61.8031693,137.8444672,33.7006035,103.179306,33.7006035z M145.1152344,129.047287l-33.5798569-19.7409973
				l-8.259758,46.9689636l-8.259758-46.9689636L61.4360008,129.047287l24.0571251-29.2637253l-38.3354836-3.9424133
				l38.3354836-3.943634L61.4360008,62.6337776l33.5798607,19.7410011l8.259758-46.9689522l8.259758,46.9689522
				l33.5798569-19.7410011l-24.0571289,29.2637367l38.335495,3.943634l-38.335495,3.9424133L145.1152344,129.047287z"/>
		</g>
	</g>
</g>
<path class="st9" d="M145.7587738,109.797226c-5.1438293-3.1845016-12.3120117-4.3610382-17.0496063-7.7613449
	c-4.7942276-3.4411392-6.6047287-9.4712677-11.6622314-12.950882c-5.6588516-3.8932648-9.0531158-3.2727737-10.3233948-10.5468216
	c-1.0770798-6.168663-2.0773468-12.3474731-3.5461121-18.4366417c0,0,0-0.0002937,0-0.0004387l-0.0000458,0.0001945
	l-0.0000534-0.0001945c0,0.000145,0,0.0002937,0,0.0002937c-1.4687653,6.0893135-2.4690323,12.2681236-3.5461121,18.4367867
	c-1.2702789,7.2740479-4.6645355,6.6535568-10.3233948,10.5468216c-5.0574951,3.4796143-6.8680038,9.5097427-11.6622314,12.950882
	c-4.737587,3.4003067-11.905777,4.5768433-17.0496063,7.7613449c-1.5905914,1.048996-3.1462173,2.1476059-4.6668854,3.2958221
	c1.1560287,1.7671432,9.6101303-1.7632446,16.5132904-2.272995c1.9884338-0.1128922,5.4567108-0.0056686,7.4215088,1.7708588
	c0.1136703,0.1101532,0.2306595,0.2164001,0.3347626,0.3384628c0.0017548-0.0052719,0.0039062-0.0103455,0.0054626-0.015625
	c0.0031281,0.0035172,0.0070343,0.0062561,0.0101624,0.0097656c0.7587662,0.851738,6.6139069,7.2486649,7.9662247,8.6982422
	c0.782402,1.0023193,1.7513199,2.0171432,2.921608,3.1186752c2.7974014,2.6331482,7.9359055,8.0877991,12.0752106,8.0968933l0,0
	h0.0000534h0.0000458l0,0c4.1393127-0.0090942,9.2778168-5.4637451,12.0752106-8.0968933
	c1.1702881-1.101532,2.1392059-2.1163559,2.9216156-3.1186752c1.3523102-1.4495773,7.2074509-7.8465042,7.9662247-8.6982422
	c0.0031204-0.0035095,0.0070267-0.0062485,0.0101547-0.0097656c0.001564,0.0052795,0.0037079,0.0103531,0.0054703,0.015625
	c0.1040955-0.1220627,0.2210846-0.2283096,0.3347549-0.3384628c1.964798-1.7765274,5.433075-1.8837509,7.4215088-1.7708588
	c6.9031677,0.5097504,15.3572693,4.0401382,16.5132904,2.272995
	C148.9049988,111.9448318,147.3493652,110.8462219,145.7587738,109.797226z M92.5616608,116.6339798
	c-0.9790802-0.6906052-1.9493713-1.3931351-2.9112625-2.1075668c-0.4790955-0.929863-0.4085846-1.9124603,0.2115173-2.9479828
	C90.3204956,112.2598648,92.9966049,116.1451263,92.5616608,116.6339798z M116.7043686,114.526413
	c-0.9618988,0.7144318-1.9321823,1.4169617-2.9112625,2.1075668c-0.4349518-0.4888535,2.2411575-4.374115,2.6997375-5.0555496
	C117.1129532,112.6139526,117.1834564,113.59655,116.7043686,114.526413z"/>
<linearGradient id="SVGID_10_" gradientUnits="userSpaceOnUse" x1="55.8001785" y1="147.5307922" x2="150.5545807" y2="147.5307922" gradientTransform="matrix(1 0 0 -1 0 244)">
	<stop  offset="0" style="stop-color:#FDDD10"/>
	<stop  offset="0.0662209" style="stop-color:#FEDF36"/>
	<stop  offset="0.1879268" style="stop-color:#FEE35E"/>
	<stop  offset="0.3039606" style="stop-color:#FEE675"/>
	<stop  offset="0.4108766" style="stop-color:#FFE781"/>
	<stop  offset="0.5" style="stop-color:#FFE885"/>
	<stop  offset="1" style="stop-color:#FDDD10"/>
</linearGradient>
<path class="st10" d="M144.0725555,109.2694321c-4.9401398-3.0583878-11.8244629-4.1883316-16.3744431-7.4539948
	c-4.6043777-3.304863-6.3431854-9.0962067-11.2004089-12.4380188c-5.4347687-3.7390976-8.6946106-3.1431732-9.9145889-10.1291733
	c-1.0344238-5.9243774-1.9950867-11.8585129-3.4056854-17.7065506V61.541275l-0.0000458,0.0001869L103.17733,61.541275v0.0004196
	c-1.4105988,5.8480377-2.371254,11.7821732-3.4056778,17.7065506c-1.219986,6.9860001-4.4798279,6.3900757-9.9145889,10.1291733
	c-4.8572311,3.3418121-6.5960388,9.1331558-11.2004089,12.4380188c-4.5499802,3.2656631-11.4343185,4.395607-16.3744469,7.4539948
	c-1.5275993,1.0074615-3.0216255,2.062561-4.4820747,3.1653061c1.1102486,1.6971741,9.2295685-1.6934128,15.8593674-2.1829834
	c1.9096832-0.1084137,5.2406235-0.0054398,7.1276169,1.700737c0.109169,0.1057892,0.2215195,0.2078323,0.3215027,0.3250656
	c0.0016861-0.0050659,0.003746-0.0099411,0.005249-0.015007c0.0029984,0.0033722,0.006752,0.0060043,0.0097504,0.0093765
	c0.7287292,0.8180084,6.352005,6.9616165,7.6507645,8.3537903c0.7514191,0.9626236,1.6819763,1.9372635,2.8059158,2.9951782
	c2.6866226,2.5288696,7.6216431,7.7675171,11.5970306,7.7762451l0,0h0.0000534h0.0000458l0,0
	c3.9753876-0.008728,8.910408-5.2473755,11.5970306-7.7762451c1.1239395-1.0579147,2.0544968-2.0325546,2.8059158-2.9951782
	c1.2987595-1.3921738,6.9220352-7.5357819,7.6507645-8.3537903c0.0029984-0.0033722,0.006752-0.0060043,0.0097504-0.0093765
	c0.001503,0.0050659,0.0035629,0.0099411,0.0052567,0.015007c0.0999756-0.1172333,0.2123337-0.2192764,0.3214951-0.3250656
	c1.8869934-1.7061768,5.217926-1.8091507,7.1276245-1.700737c6.6297913,0.4895706,14.749115,3.8801575,15.8593597,2.1829834
	C147.0941772,111.3319931,145.6001587,110.2768936,144.0725555,109.2694321z M92.9820404,115.8354568
	c-0.9403076-0.6632614-1.8721771-1.3379669-2.7959747-2.0241089c-0.4601212-0.8930435-0.3924026-1.8367233,0.2031403-2.8312378
	C90.829628,111.634552,93.399765,115.3659592,92.9820404,115.8354568z M116.1686935,113.811348
	c-0.9237976,0.686142-1.8556671,1.3608475-2.7959747,2.0241089c-0.4177246-0.4694977,2.1524124-4.2009048,2.5928345-4.8553467
	C116.5611038,111.9746246,116.6288147,112.9183044,116.1686935,113.811348z"/>
<path class="st11" d="M144.0725555,109.2694321c-4.9401398-3.0583878-11.8244629-4.1883316-16.3744431-7.4539948
	c-4.6043777-3.304863-6.3431854-9.0962067-11.2004089-12.4380188c-5.4347687-3.7390976-8.6946106-3.1431732-9.9145889-10.1291733
	c-1.0344238-5.9243774-1.9950867-11.8585129-3.4056854-17.7065506V61.541275l-0.0000458,0.0001869L103.17733,61.541275v0.0004196
	c-1.4105988,5.8480377-2.371254,11.7821732-3.4056778,17.7065506c-1.219986,6.9860001-4.4798279,6.3900757-9.9145889,10.1291733
	c-4.8572311,3.3418121-6.5960388,9.1331558-11.2004089,12.4380188c-4.5499802,3.2656631-11.4343185,4.395607-16.3744469,7.4539948
	c-1.5275993,1.0074615-3.0216255,2.062561-4.4820747,3.1653061c1.1102486,1.6971741,9.2295685-1.6934128,15.8593674-2.1829834
	c1.9096832-0.1084137,5.2406235-0.0054398,7.1276169,1.700737c0.109169,0.1057892,0.2215195,0.2078323,0.3215027,0.3250656
	c0.0016861-0.0050659,0.003746-0.0099411,0.005249-0.015007c0.0029984,0.0033722,0.006752,0.0060043,0.0097504,0.0093765
	c0.7287292,0.8180084,6.352005,6.9616165,7.6507645,8.3537903c0.7514191,0.9626236,1.6819763,1.9372635,2.8059158,2.9951782
	c2.6866226,2.5288696,7.6216431,7.7675171,11.5970306,7.7762451l0,0h0.0000534h0.0000458l0,0
	c3.9753876-0.008728,8.910408-5.2473755,11.5970306-7.7762451c1.1239395-1.0579147,2.0544968-2.0325546,2.8059158-2.9951782
	c1.2987595-1.3921738,6.9220352-7.5357819,7.6507645-8.3537903c0.0029984-0.0033722,0.006752-0.0060043,0.0097504-0.0093765
	c0.001503,0.0050659,0.0035629,0.0099411,0.0052567,0.015007c0.0999756-0.1172333,0.2123337-0.2192764,0.3214951-0.3250656
	c1.8869934-1.7061768,5.217926-1.8091507,7.1276245-1.700737c6.6297913,0.4895706,14.749115,3.8801575,15.8593597,2.1829834
	C147.0941772,111.3319931,145.6001587,110.2768936,144.0725555,109.2694321z M92.9820404,115.8354568
	c-0.9403076-0.6632614-1.8721771-1.3379669-2.7959747-2.0241089c-0.4601212-0.8930435-0.3924026-1.8367233,0.2031403-2.8312378
	C90.829628,111.634552,93.399765,115.3659592,92.9820404,115.8354568z M116.1686935,113.811348
	c-0.9237976,0.686142-1.8556671,1.3608475-2.7959747,2.0241089c-0.4177246-0.4694977,2.1524124-4.2009048,2.5928345-4.8553467
	C116.5611038,111.9746246,116.6288147,112.9183044,116.1686935,113.811348z"/>
<linearGradient id="SVGID_11_" gradientUnits="userSpaceOnUse" x1="57.8001328" y1="147.5307922" x2="148.5546265" y2="147.5307922" gradientTransform="matrix(1 0 0 -1 0 244)">
	<stop  offset="0" style="stop-color:#FFF5D4"/>
	<stop  offset="0.5" style="stop-color:#FDDD10"/>
	<stop  offset="1" style="stop-color:#FFF5D4"/>
</linearGradient>
<path class="st12" d="M144.0725555,109.2694321c-4.9401398-3.0583878-11.8244629-4.1883316-16.3744431-7.4539948
	c-4.6043777-3.304863-6.3431854-9.0962067-11.2004089-12.4380188c-5.4347687-3.7390976-8.6946106-3.1431732-9.9145889-10.1291733
	c-1.0344238-5.9243774-1.9950867-11.8585129-3.4056854-17.7065506V61.541275l-0.0000458,0.0001869L103.17733,61.541275v0.0004196
	c-1.4105988,5.8480377-2.371254,11.7821732-3.4056778,17.7065506c-1.219986,6.9860001-4.4798279,6.3900757-9.9145889,10.1291733
	c-4.8572311,3.3418121-6.5960388,9.1331558-11.2004089,12.4380188c-4.5499802,3.2656631-11.4343185,4.395607-16.3744469,7.4539948
	c-1.5275993,1.0074615-3.0216255,2.062561-4.4820747,3.1653061c1.1102486,1.6971741,9.2295685-1.6934128,15.8593674-2.1829834
	c1.9096832-0.1084137,5.2406235-0.0054398,7.1276169,1.700737c0.109169,0.1057892,0.2215195,0.2078323,0.3215027,0.3250656
	c0.0016861-0.0050659,0.003746-0.0099411,0.005249-0.015007c0.0029984,0.0033722,0.006752,0.0060043,0.0097504,0.0093765
	c0.7287292,0.8180084,6.352005,6.9616165,7.6507645,8.3537903c0.7514191,0.9626236,1.6819763,1.9372635,2.8059158,2.9951782
	c2.6866226,2.5288696,7.6216431,7.7675171,11.5970306,7.7762451l0,0h0.0000534h0.0000458l0,0
	c3.9753876-0.008728,8.910408-5.2473755,11.5970306-7.7762451c1.1239395-1.0579147,2.0544968-2.0325546,2.8059158-2.9951782
	c1.2987595-1.3921738,6.9220352-7.5357819,7.6507645-8.3537903c0.0029984-0.0033722,0.006752-0.0060043,0.0097504-0.0093765
	c0.001503,0.0050659,0.0035629,0.0099411,0.0052567,0.015007c0.0999756-0.1172333,0.2123337-0.2192764,0.3214951-0.3250656
	c1.8869934-1.7061768,5.217926-1.8091507,7.1276245-1.700737c6.6297913,0.4895706,14.749115,3.8801575,15.8593597,2.1829834
	C147.0941772,111.3319931,145.6001587,110.2768936,144.0725555,109.2694321z M92.9820404,115.8354568
	c-0.9403076-0.6632614-1.8721771-1.3379669-2.7959747-2.0241089c-0.4601212-0.8930435-0.3924026-1.8367233,0.2031403-2.8312378
	C90.829628,111.634552,93.399765,115.3659592,92.9820404,115.8354568z M116.1686935,113.811348
	c-0.9237976,0.686142-1.8556671,1.3608475-2.7959747,2.0241089c-0.4177246-0.4694977,2.1524124-4.2009048,2.5928345-4.8553467
	C116.5611038,111.9746246,116.6288147,112.9183044,116.1686935,113.811348z"/>
<linearGradient id="SVGID_12_" gradientUnits="userSpaceOnUse" x1="57.8001328" y1="147.5307922" x2="148.5546265" y2="147.5307922" gradientTransform="matrix(1 0 0 -1 0 244)">
	<stop  offset="0" style="stop-color:#575454;stop-opacity:0.2"/>
	<stop  offset="0.5004233" style="stop-color:#575454;stop-opacity:0.6"/>
	<stop  offset="0.9995573" style="stop-color:#575454;stop-opacity:0.2"/>
</linearGradient>
<path class="st13" d="M144.0725555,109.2694321c-4.9401398-3.0583878-11.8244629-4.1883316-16.3744431-7.4539948
	c-4.6043777-3.304863-6.3431854-9.0962067-11.2004089-12.4380188c-5.4347687-3.7390976-8.6946106-3.1431732-9.9145889-10.1291733
	c-1.0344238-5.9243774-1.9950867-11.8585129-3.4056854-17.7065506V61.541275l-0.0000458,0.0001869L103.17733,61.541275v0.0004196
	c-1.4105988,5.8480377-2.371254,11.7821732-3.4056778,17.7065506c-1.219986,6.9860001-4.4798279,6.3900757-9.9145889,10.1291733
	c-4.8572311,3.3418121-6.5960388,9.1331558-11.2004089,12.4380188c-4.5499802,3.2656631-11.4343185,4.395607-16.3744469,7.4539948
	c-1.5275993,1.0074615-3.0216255,2.062561-4.4820747,3.1653061c1.1102486,1.6971741,9.2295685-1.6934128,15.8593674-2.1829834
	c1.9096832-0.1084137,5.2406235-0.0054398,7.1276169,1.700737c0.109169,0.1057892,0.2215195,0.2078323,0.3215027,0.3250656
	c0.0016861-0.0050659,0.003746-0.0099411,0.005249-0.015007c0.0029984,0.0033722,0.006752,0.0060043,0.0097504,0.0093765
	c0.7287292,0.8180084,6.352005,6.9616165,7.6507645,8.3537903c0.7514191,0.9626236,1.6819763,1.9372635,2.8059158,2.9951782
	c2.6866226,2.5288696,7.6216431,7.7675171,11.5970306,7.7762451l0,0h0.0000534h0.0000458l0,0
	c3.9753876-0.008728,8.910408-5.2473755,11.5970306-7.7762451c1.1239395-1.0579147,2.0544968-2.0325546,2.8059158-2.9951782
	c1.2987595-1.3921738,6.9220352-7.5357819,7.6507645-8.3537903c0.0029984-0.0033722,0.006752-0.0060043,0.0097504-0.0093765
	c0.001503,0.0050659,0.0035629,0.0099411,0.0052567,0.015007c0.0999756-0.1172333,0.2123337-0.2192764,0.3214951-0.3250656
	c1.8869934-1.7061768,5.217926-1.8091507,7.1276245-1.700737c6.6297913,0.4895706,14.749115,3.8801575,15.8593597,2.1829834
	C147.0941772,111.3319931,145.6001587,110.2768936,144.0725555,109.2694321z M92.9820404,115.8354568
	c-0.9403076-0.6632614-1.8721771-1.3379669-2.7959747-2.0241089c-0.4601212-0.8930435-0.3924026-1.8367233,0.2031403-2.8312378
	C90.829628,111.634552,93.399765,115.3659592,92.9820404,115.8354568z M116.1686935,113.811348
	c-0.9237976,0.686142-1.8556671,1.3608475-2.7959747,2.0241089c-0.4177246-0.4694977,2.1524124-4.2009048,2.5928345-4.8553467
	C116.5611038,111.9746246,116.6288147,112.9183044,116.1686935,113.811348z"/>
</svg>
