<?xml version="1.0" encoding="utf-8"?>
<!-- Generator: Adobe Illustrator 21.1.0, SVG Export Plug-In . SVG Version: 6.00 Build 0)  -->
<svg version="1.1" id="Layer_1" xmlns="http://www.w3.org/2000/svg" xmlns:xlink="http://www.w3.org/1999/xlink" x="0px" y="0px"
	 viewBox="0 0 285.1870117 242.3190002" style="enable-background:new 0 0 285.1870117 242.3190002;" xml:space="preserve">
<style type="text/css">
	.st0{fill:none;}
	.st1{fill:url(#SVGID_1_);}
	.st2{fill:url(#SVGID_2_);}
	.st3{fill:url(#SVGID_3_);}
	.st4{fill:url(#SVGID_4_);}
	.st5{fill:url(#SVGID_5_);}
	.st6{fill:url(#SVGID_6_);}
	.st7{fill:#FFFFFF;stroke:#FDDD10;stroke-width:2.802;stroke-linecap:round;stroke-linejoin:round;stroke-miterlimit:10;}
	.st8{fill:#FFFFFF;}
</style>
<g id="Layer_2">
	<rect y="214.6609955" class="st0" width="27.5400009" height="27.5399933"/>
	<rect y="214.6609955" class="st0" width="27.5400009" height="27.5399933"/>
	<rect class="st0" width="27.5400009" height="27.5399933"/>
	<rect class="st0" width="27.5400009" height="27.5399933"/>
	<rect x="257.6470032" y="214.779007" class="st0" width="27.5400085" height="27.5399933"/>
	<rect x="257.6470032" y="0.1180115" class="st0" width="27.5400085" height="27.5399933"/>
</g>
<g id="Layer_1_1_">
	<g>
		
			<linearGradient id="SVGID_1_" gradientUnits="userSpaceOnUse" x1="141.9456177" y1="29.9390259" x2="141.9456177" y2="61.2890015" gradientTransform="matrix(1 0 0 -1 0 244)">
			<stop  offset="0" style="stop-color:#000000"/>
			<stop  offset="0.102136" style="stop-color:#000000"/>
			<stop  offset="0.2697589" style="stop-color:#0E171A"/>
			<stop  offset="0.4813125" style="stop-color:#1F272A"/>
			<stop  offset="0.7084354" style="stop-color:#283033"/>
			<stop  offset="0.976243" style="stop-color:#2B3336"/>
			<stop  offset="1" style="stop-color:#2B3336"/>
		</linearGradient>
		<path class="st1" d="M157.531189,212.4450073l-1.7539062-0.2770386c-1.7089844-0.2769775-2.1240234-1.3389893-3.0939941-4.1089478
			l-6.2790527-18.098999c-1.1539307-3.2780151-1.7080078-4.9860229-2.0778809-6.3250122
			c-0.184082-0.6929932-0.4610596-0.9240112-1.0620117-0.9240112c-0.092041,0-1.8000488,2.2630005-4.0161133,2.7700195
			c0.1380615,1.3389893-0.6469727,2.9549561-1.7089844,5.8639526l-4.2009277,11.2660522
			c-1.2470703,3.3239746-2.1240234,5.539978-2.9090576,7.3869629c-0.7850342,1.7999878-1.7080078,2.1699829-2.8160477,2.3079834
			l-1.2469482,0.1390381c-0.322998,0.3689575-0.3690186,1.3389893,0.1390381,1.6159668
			c2.1230545,0,3.1850662-0.1389771,4.7548904-0.1389771c1.9390869,0.0460205,3.6010742,0.0460205,5.217041,0.1389771
			c0.4620361-0.230957,0.3701172-1.2929688,0.0930176-1.6159668l-1.3850098-0.2310181
			c-1.2929688-0.2310181-1.8929443-0.5079956-1.8929443-0.7849731c0-0.3690186,0.0460205-0.7390137,0.322998-1.6620483
			l1.8009033-5.355957c0.2770996-0.8770142,0.4150391-0.9230347,1.5230713-0.9230347h5.4940186
			c1.6159668,0,1.9859619,0.092041,2.217041,0.8309937l1.2459717,3.9700317
			c0.5539551,1.7089844,0.8769531,2.8170166,0.8769531,3.1400146c0,0.2769775-0.18396,0.5999756-1.2459717,0.7849731
			l-1.4780273,0.2310181c-0.506958,0.3689575-0.4150391,1.3389893,0.0930176,1.6159668
			c2.1240234-0.0929565,3.9240723-0.1389771,6.2330322-0.1389771c2.401001,0,4.8939209,0.0460205,7.1099854,0.1389771
			C157.9003296,213.7839966,157.8082886,212.6760254,157.531189,212.4450073z M143.1803589,200.8377686
			c-0.1514893,0.1677246-0.4658203,0.2032471-0.9770508,0.2032471h-4.3400879c-0.8118896,0-1.1591797-0.0775757-1.1540527-0.5513306
			c0.0019531-0.2001953,0.0601807-0.4639893,0.1838379-0.8347168l0.5152588-1.5444336l0.6390381-1.9175415
			c0.3032227-0.9292603,0.6490479-1.9242554,0.9747314-2.8440552c0.4185791-1.1825562,0.8028564-2.2376099,1.0111084-2.8349609
			v0.0001831l0.0001221-0.0001831c0.0428467,0.1000977,0.0926514,0.225708,0.1436768,0.3560181
			c0.4106445,1.0477905,1.0615234,2.987854,1.6162109,4.6850586c0.0444336,0.1360474,0.0900879,0.2747803,0.1330566,0.4069214
			l0.2158203,0.6727295l0.9851074,3.0673218C143.3185425,200.3244629,143.3441772,200.6578979,143.1803589,200.8377686z"/>
		<g>
			
				<linearGradient id="SVGID_2_" gradientUnits="userSpaceOnUse" x1="174.6275177" y1="29.8010406" x2="174.6275177" y2="60.6890411" gradientTransform="matrix(1 0 0 -1 0 244)">
				<stop  offset="0" style="stop-color:#131D20"/>
				<stop  offset="0.0237569" style="stop-color:#131D20"/>
				<stop  offset="0.1677377" style="stop-color:#252D2F"/>
				<stop  offset="0.7414711" style="stop-color:#535354"/>
				<stop  offset="1" style="stop-color:#645F5F"/>
			</linearGradient>
			<path class="st2" d="M186.5543213,211.2910004c-2.2169189-1.8930054-4.1099854-5.3560181-7.1569824-11.5430298
				c-0.2310791-0.5079956-0.2310791-0.7849731,0.2310791-1.0159912c2.1239014-1.0620117,4.8939209-2.815979,4.8939209-6.9249878
				c0-2.9550171-1.3850098-5.2640381-4.0629883-6.8330078c-1.7540283-1.0620117-5.125-1.6630249-9.0489502-1.6630249
				c-4.3859863,0-7.9880371,0.1849976-11.4510498,0.4160156c-0.5540771,0.2310181-0.5540771,1.3850098-0.0919189,1.6160278
				l1.2468262,0.1849976c1.9390869,0.2769775,2.0310059,0.7839966,2.0310059,5.4019775v16.3439941
				c0,4.2470093-0.2768555,4.5709839-2.3540039,4.9400024l-1.2469482,0.2310181
				c-0.3690186,0.2310181-0.3690186,1.3389893,0,1.6159668c2.401001-0.0929565,4.4320068-0.1389771,6.7410889-0.1389771
				c2.2159424,0,4.3399658,0.0460205,6.7868652,0.1389771c0.322998-0.2769775,0.322998-1.3849487,0-1.6159668l-1.2469482-0.2310181
				c-2.0770264-0.3690186-2.3540039-0.6929932-2.3540039-4.9400024v-5.6790161c0-0.9239502,0.092041-1.0159912,1.7080078-1.0159912
				c1.1539307,0,1.8929443,0.3690186,2.4470215,1.6160278c1.0620117,2.4469604,2.1240234,4.7089844,3.6009521,7.1560059
				c2.0319824,3.3250122,4.7099609,4.8479614,8.9570312,4.8479614c1.4310303,0,2.9089355-0.09198,3.6479492-0.414978
				c0.2310791-0.2769775,0.2310791-0.9700317-0.1849365-1.2009888
				C188.9543457,212.536972,187.7543945,212.2599945,186.5543213,211.2910004z M175.8421631,197.2549896
				c-0.8770752,0.8770142-1.8460693,1.2919922-3.5090332,1.2919922c-2.723999,0-2.862915-0.1380005-2.862915-1.7540283v-9.0029907
				c0-2.2160034,0.0930176-2.3549805,1.9859619-2.3549805c3.6019287,0,6.0489502,2.6779785,6.0489502,6.8330078
				C177.505127,194.9919891,176.6271973,196.4699554,175.8421631,197.2549896z"/>
			
				<linearGradient id="SVGID_3_" gradientUnits="userSpaceOnUse" x1="203.5623779" y1="29.3390045" x2="203.5623779" y2="61.2890167" gradientTransform="matrix(1 0 0 -1 0 244)">
				<stop  offset="0" style="stop-color:#131D20"/>
				<stop  offset="0.0237569" style="stop-color:#131D20"/>
				<stop  offset="0.1677377" style="stop-color:#252D2F"/>
				<stop  offset="0.7414711" style="stop-color:#535354"/>
				<stop  offset="1" style="stop-color:#645F5F"/>
			</linearGradient>
			<path class="st3" d="M216.5134277,205.3809662c-1.2470703,3.1390381-3.8320312,7.1560059-9.4190674,7.1560059
				c-5.5400391,0-10.8499756-4.9400024-10.8499756-14.1279907s5.4938965-13.5739746,10.6188965-13.5739746
				c4.4790039,0,7.434082,2.30896,8.6800537,6.6019897c0.322998,0.4159546,1.5699463,0.230957,1.7550049-0.322998
				c-0.4160156-2.6780396-0.5539551-6.3710327-0.5539551-7.2020264c-1.3850098-0.0930176-4.802002-1.2009888-9.5109863-1.2009888
				c-4.802002,0-9.512085,1.3850098-12.7900391,4.1090088c-3.1850586,2.632019-5.5859375,6.6029663-5.5859375,12.2349854
				c0,5.7260132,2.5389404,9.5579834,5.862915,12.0969849c3.2779541,2.4470215,7.8959961,3.5090332,12.4200439,3.5090332
				c3.6009521,0,6.8798828-1.0159912,9.3730469-1.7080078c0.6459961-1.0620117,1.4309082-3.8320312,1.7539062-7.2490234
				C217.9903564,205.1500092,216.8823242,205.0109711,216.5134277,205.3809662z"/>
		</g>
		
			<linearGradient id="SVGID_4_" gradientUnits="userSpaceOnUse" x1="116.9312363" y1="29.9731445" x2="116.9312363" y2="60.7231445" gradientTransform="matrix(1 0 0 -1 0 244)">
			<stop  offset="0" style="stop-color:#575454"/>
			<stop  offset="0.0043636" style="stop-color:#575454"/>
			<stop  offset="0.3002784" style="stop-color:#656060"/>
			<stop  offset="0.6194659" style="stop-color:#6E6868"/>
			<stop  offset="0.976243" style="stop-color:#706B6B"/>
			<stop  offset="1" style="stop-color:#706B6B"/>
		</linearGradient>
		<path class="st4" d="M129.6122894,192.4648438c0-4.4779968-2.8159943-6.9249878-5.6329956-7.9869995
			c-1.939003-0.7389984-4.5240021-1.2009888-8.4489975-1.2009888c-4.0170059,0-7.6180038,0.1849976-10.6650009,0.4160004
			c-0.5080032,0.322998-0.5080032,1.3389893-0.0920029,1.5699921l1.4309998,0.1840057
			c1.939003,0.2310028,2.0309982,0.7850037,2.0309982,5.4489899v16.3440094c0,4.2939911-0.2770004,4.6170044-2.3539963,4.9859924
			l-1.2929993,0.2310028c-0.5080032,0.2310028-0.4160004,1.2929993,0.0919952,1.5700073
			c2.4930038-0.0930023,4.7100067-0.1390076,6.9260025-0.1390076c2.2160034,0,4.4779968,0.0460052,7.064003,0.1390076
			c0.5079956-0.2770081,0.5079956-1.3390045,0-1.5700073l-1.4780045-0.2310028
			c-2.0769958-0.322998-2.3539963-0.6920013-2.3539963-4.9859924v-19.4840088c0-1.8470001,0.0919952-2.3549957,1.7999954-2.3549957
			c4.1560059,0,5.9100037,3.6940002,5.9100037,7.1100006c0,3.4170074-0.7850037,6.1410065-4.6170044,7.3410034
			c-0.322998,0.2769928-0.2309952,1.0159912,0.1389999,1.246994c0.5070038,0.0460052,0.9230042,0.0460052,1.477005,0.0460052
			C121.9942932,201.1448517,129.6122894,200.03685,129.6122894,192.4648438"/>
		
			<linearGradient id="SVGID_5_" gradientUnits="userSpaceOnUse" x1="91.7712936" y1="29.3390045" x2="91.7712936" y2="61.2890015" gradientTransform="matrix(1 0 0 -1 0 244)">
			<stop  offset="0" style="stop-color:#575454"/>
			<stop  offset="0.0043636" style="stop-color:#575454"/>
			<stop  offset="0.3002784" style="stop-color:#656060"/>
			<stop  offset="0.6194659" style="stop-color:#6E6868"/>
			<stop  offset="0.976243" style="stop-color:#706B6B"/>
			<stop  offset="1" style="stop-color:#706B6B"/>
		</linearGradient>
		<path class="st5" d="M82.72229,191.5299988c0,4.5700073,3.6469955,7.3410034,6.9720001,9.003006
			c2.7699966,1.3849945,6.2789993,3.6019897,6.2789993,7.3409882c0,2.3090057-1.5699997,4.6630096-4.9869995,4.6630096
			c-3.9240036,0-7.0170059-4.2470093-7.9410019-7.2490082c-0.3700027-0.5069885-1.4319992-0.4609985-1.7549973,0.1390076
			c0,3.1389923,0.6009979,6.4640045,1.4779968,7.4799957c0.9690018,0.553009,3.6009979,1.7539978,7.848999,1.7539978
			c6.9710007,0,11.6350021-3.6940002,11.6350021-9.3730011c0-5.0780029-3.6470032-7.7559967-6.5100021-9.2789917
			l-3.0469971-1.6170044c-2.3079987-1.1999969-4.2020035-3.1390076-4.2020035-5.2630005
			c0-2.3089905,1.6620026-4.2940063,4.7099991-4.2940063c3.3230057,0,5.3090057,3.3700104,6.0940018,5.7250061
			c0.4150009,0.4620056,1.5699997,0.4160004,1.8000031-0.1389923c0-3.0930023-0.4610062-5.5860138-0.8300018-6.602005
			c-0.5550003-0.0919952-0.9700012-0.1849976-1.5699997-0.3690033c-1.8470001-0.5549927-3.7399979-0.7389984-5.2639999-0.7389984
			C86.7392883,182.7109985,82.6752853,186.3130035,82.72229,191.5299988"/>
	</g>
	<g>
		
			<radialGradient id="SVGID_6_" cx="142.9894867" cy="146.8916473" r="62.7697449" gradientTransform="matrix(1 0 0 -1 0 244)" gradientUnits="userSpaceOnUse">
			<stop  offset="0.51" style="stop-color:#FFEEAC"/>
			<stop  offset="0.95" style="stop-color:#FDDD10"/>
		</radialGradient>
		<circle class="st6" cx="142.9894867" cy="97.1083527" r="62.7697449"/>
		<polygon class="st7" points="143.086792,44.0844612 150.2477875,84.8054657 179.3607788,67.6904602 158.5037842,93.0614624 
			191.7397766,96.4804611 158.5037842,99.8984604 179.3607788,125.269455 150.2477875,108.1544571 143.086792,148.8754578 
			135.9257812,108.1544571 106.8127899,125.269455 127.6697922,99.8984604 94.4337921,96.4804611 127.6697922,93.0614624 
			106.8127899,67.6904602 135.9257812,84.8054657 		"/>
		<polygon class="st8" points="143.086792,44.0844612 150.2477875,84.8054657 179.3607788,67.6904602 158.5037842,93.0614624 
			191.7397766,96.4804611 158.5037842,99.8984604 179.3607788,125.269455 150.2477875,108.1544571 143.086792,148.8754578 
			135.9257812,108.1544571 106.8127899,125.269455 127.6697922,99.8984604 94.4337921,96.4804611 127.6697922,93.0614624 
			106.8127899,67.6904602 135.9257812,84.8054657 		"/>
	</g>
</g>
</svg>
