<?xml version="1.0" encoding="utf-8"?>
<!-- Generator: Adobe Illustrator 21.1.0, SVG Export Plug-In . SVG Version: 6.00 Build 0)  -->
<svg version="1.1" id="Layer_1" xmlns="http://www.w3.org/2000/svg" xmlns:xlink="http://www.w3.org/1999/xlink" x="0px" y="0px"
	 viewBox="0 0 120 120" style="enable-background:new 0 0 120 120;" xml:space="preserve">
<style type="text/css">
	.st0{fill:url(#SVGID_1_);}
	.st1{fill:url(#SVGID_2_);}
	.st2{fill:url(#SVGID_3_);}
	.st3{fill:url(#SVGID_4_);}
	.st4{fill:url(#SVGID_5_);}
	.st5{fill:url(#SVGID_6_);}
	.st6{fill:#FFFFFF;stroke:#FDDD10;stroke-width:1.65318;stroke-linecap:round;stroke-linejoin:round;stroke-miterlimit:10;}
	.st7{fill:#FFFFFF;}
</style>
<g id="Layer_1_1_">
	<g>
		
			<linearGradient id="SVGID_1_" gradientUnits="userSpaceOnUse" x1="59.3102074" y1="949.3216553" x2="59.3102074" y2="930.8251343" gradientTransform="matrix(1 0 0 1 0 -836)">
			<stop  offset="0" style="stop-color:#000000"/>
			<stop  offset="0.102136" style="stop-color:#000000"/>
			<stop  offset="0.2697589" style="stop-color:#0E171A"/>
			<stop  offset="0.4813125" style="stop-color:#1F272A"/>
			<stop  offset="0.7084354" style="stop-color:#283033"/>
			<stop  offset="0.976243" style="stop-color:#2B3336"/>
			<stop  offset="1" style="stop-color:#2B3336"/>
		</linearGradient>
		<path class="st0" d="M68.5056992,112.3682022l-1.0348053-0.1634521c-1.0083008-0.163414-1.2531738-0.7900009-1.8254623-2.4242783
			L61.9407921,99.102066c-0.6808167-1.9340286-1.0077248-2.9417572-1.2259483-3.7317581
			c-0.1086082-0.4088669-0.2720261-0.545166-0.6265869-0.545166c-0.0543022,0-1.062027,1.3351669-2.3695068,1.6343079
			c0.0814552,0.7900085-0.3817139,1.7434235-1.0083008,3.4597321l-2.4785461,6.6469727
			c-0.7357712,1.9611435-1.2531738,3.2685852-1.7163467,4.3583069c-0.4631691,1.0619965-1.0077248,1.2802887-1.6614647,1.3617096
			l-0.7357025,0.0820312c-0.190567,0.2176895-0.21772,0.7900085,0.0820351,0.9534225
			c1.2526016,0,1.8791885-0.0819931,2.8053856-0.0819931c1.1440582,0.027153,2.1246338,0.027153,3.0780525,0.0819931
			c0.2726021-0.136261,0.2183685-0.7628479,0.054882-0.9534225l-0.8171577-0.1362991
			c-0.7628517-0.1362991-1.1168365-0.2997131-1.1168365-0.4631348c0-0.21772,0.027153-0.4360199,0.190567-0.9806061
			l1.0625343-3.1600189c0.1634903-0.5174332,0.244873-0.5445862,0.898613-0.5445862h3.2414703
			c0.9534187,0,1.1717186,0.054306,1.3080559,0.4902878l0.7351227,2.3423157
			c0.3268318,1.0083008,0.5174026,1.6620407,0.5174026,1.8526077c0,0.1634216-0.1085396,0.3539886-0.7351265,0.4631348
			l-0.872036,0.1362991c-0.2991028,0.2176895-0.244873,0.7900085,0.054882,0.9534225
			c1.2531738-0.0548401,2.3152008-0.0819931,3.6774864-0.0819931c1.4165955,0,2.887413,0.027153,4.1948929,0.0819931
			C68.7234879,113.1582108,68.6691818,112.504509,68.5056992,112.3682022z M60.0387077,105.5199356
			c-0.0893784,0.0989532-0.2748337,0.1199112-0.5764618,0.1199112h-2.5606499c-0.4790154,0-0.683918-0.0457687-0.6808929-0.3252792
			c0.001152-0.1181183,0.0355072-0.2737579,0.1084633-0.492485l0.3040047-0.9112167l0.3770332-1.1313477
			c0.1789017-0.5482635,0.3829384-1.1353149,0.5750885-1.6779938c0.2469635-0.6977081,0.4736862-1.3201904,0.5965538-1.6726303
			v0.0001144l0.0000725-0.0001144c0.02528,0.0590591,0.0546646,0.1331711,0.0847702,0.2100525
			c0.2422791,0.6181946,0.6263008,1.7628326,0.9535637,2.764183c0.0262184,0.0802689,0.053154,0.1621246,0.0785027,0.2400894
			l0.1273346,0.396904l0.5812149,1.8097229C60.1202354,105.2170868,60.1353607,105.4138107,60.0387077,105.5199356z"/>
		<g>
			
				<linearGradient id="SVGID_2_" gradientUnits="userSpaceOnUse" x1="78.5925293" y1="949.4030151" x2="78.5925293" y2="931.1791382" gradientTransform="matrix(1 0 0 1 0 -836)">
				<stop  offset="0" style="stop-color:#131D20"/>
				<stop  offset="0.0237569" style="stop-color:#131D20"/>
				<stop  offset="0.1677377" style="stop-color:#252D2F"/>
				<stop  offset="0.7414711" style="stop-color:#535354"/>
				<stop  offset="1" style="stop-color:#645F5F"/>
			</linearGradient>
			<path class="st1" d="M85.6293411,111.6873398c-1.3079758-1.1168747-2.4248886-3.1600494-4.2226181-6.8103867
				c-0.1363373-0.2997208-0.1363373-0.4631348,0.1363373-0.5994339c1.2531052-0.6265869,2.887413-1.6614304,2.887413-4.0857468
				c0-1.743454-0.8171539-3.1057816-2.3971634-4.0314713c-1.034874-0.6265869-3.0237503-0.9811859-5.3388824-0.9811859
				c-2.5877304,0-4.7129364,0.1091461-6.7561188,0.2454529c-0.3269043,0.1362991-0.3269043,0.8171539-0.0542297,0.9534531
				l0.7356262,0.1091461c1.1440659,0.1634216,1.1982956,0.4625626,1.1982956,3.1871719v9.642952
				c0,2.5057373-0.1633453,2.6968842-1.3888626,2.9146042l-0.7357025,0.1362991c-0.21772,0.1362991-0.21772,0.7900085,0,0.9534225
				c1.4165955-0.0548477,2.6148834-0.0820007,3.9772415-0.0820007c1.3074112,0,2.560585,0.027153,4.0042572,0.0820007
				c0.190567-0.163414,0.190567-0.8171234,0-0.9534225l-0.7357025-0.1362991
				c-1.2254486-0.21772-1.3888626-0.4088669-1.3888626-2.9146042v-3.3506165c0-0.5451279,0.054306-0.5994339,1.0077209-0.5994339
				c0.6808243,0,1.1168442,0.21772,1.4437485,0.9534531c0.6265869,1.4437103,1.2531738,2.7783051,2.1245575,4.2220459
				c1.1988754,1.9617538,2.7788773,2.8602982,5.2846527,2.8602982c0.8443069,0,1.7162704-0.0542679,2.1522903-0.2448349
				c0.1363373-0.1634216,0.1363373-0.572319-0.1091156-0.7085876
				C87.0453568,112.4224625,86.3373871,112.2590485,85.6293411,111.6873398z M79.3091736,103.4060974
				c-0.5174789,0.5174332-1.0891876,0.7622757-2.0703354,0.7622757c-1.6071548,0-1.6891174-0.0814209-1.6891174-1.0348816
				v-5.3117599c0-1.3074417,0.0548782-1.3894424,1.1717148-1.3894424c2.1251373,0,3.5688858,1.5800095,3.5688858,4.0314789
				C80.2903214,102.0709229,79.7723389,102.9429245,79.3091736,103.4060974z"/>
			
				<linearGradient id="SVGID_3_" gradientUnits="userSpaceOnUse" x1="95.6641006" y1="949.6756592" x2="95.6641006" y2="930.8251343" gradientTransform="matrix(1 0 0 1 0 -836)">
				<stop  offset="0" style="stop-color:#131D20"/>
				<stop  offset="0.0237569" style="stop-color:#131D20"/>
				<stop  offset="0.1677377" style="stop-color:#252D2F"/>
				<stop  offset="0.7414711" style="stop-color:#535354"/>
				<stop  offset="1" style="stop-color:#645F5F"/>
			</linearGradient>
			<path class="st2" d="M103.3052139,108.2004242c-0.7357712,1.8520279-2.2608948,4.2220383-5.5572433,4.2220383
				c-3.2686234,0-6.4014893-2.9145966-6.4014893-8.3355103s3.2414017-8.0086441,6.265152-8.0086441
				c2.6426086,0,4.3861084,1.3622818,5.1212311,3.8951721c0.190567,0.2454147,0.9262695,0.136261,1.0354538-0.190567
				c-0.2454529-1.5800476-0.3268356-3.7589111-0.3268356-4.2491989c-0.8171539-0.0548782-2.8331833-0.70858-5.6114807-0.70858
				c-2.8331833,0-5.6121292,0.8171539-7.5461273,2.4243088c-1.8791809,1.5528946-3.2957001,3.895752-3.2957001,7.2186432
				c0,3.3783493,1.4979706,5.6392136,3.4591217,7.1372223c1.9339905,1.4437408,4.658638,2.0703278,7.3278198,2.0703278
				c2.1245651,0,4.0591354-0.5994339,5.530098-1.0077209c0.3811417-0.6265869,0.8442383-2.2609024,1.0348053-4.2769241
				C104.1766052,108.0641556,103.5228653,107.9821243,103.3052139,108.2004242z"/>
		</g>
		
			<linearGradient id="SVGID_4_" gradientUnits="userSpaceOnUse" x1="44.5517235" y1="949.3015137" x2="44.5517235" y2="931.1589966" gradientTransform="matrix(1 0 0 1 0 -836)">
			<stop  offset="0" style="stop-color:#575454"/>
			<stop  offset="0.0043636" style="stop-color:#575454"/>
			<stop  offset="0.3002784" style="stop-color:#656060"/>
			<stop  offset="0.6194659" style="stop-color:#6E6868"/>
			<stop  offset="0.976243" style="stop-color:#706B6B"/>
			<stop  offset="1" style="stop-color:#706B6B"/>
		</linearGradient>
		<path class="st3" d="M52.0335464,100.5799103c0-2.6420212-1.661438-4.0857468-3.3234673-4.7123337
			c-1.1440125-0.4360046-2.6691628-0.70858-4.9849091-0.70858c-2.3700333,0-4.4946213,0.1091461-6.2923508,0.2454376
			c-0.2997208,0.190567-0.2997208,0.7900085-0.0542831,0.9263l0.8442917,0.1085587
			c1.1440125,0.1362915,1.198288,0.46315,1.198288,3.2149048v9.6429672c0,2.5334549-0.1634293,2.7240295-1.3888588,2.9417343
			l-0.762867,0.1362915c-0.2997246,0.1362915-0.2454414,0.7628708,0.0542755,0.9263077
			c1.470871-0.0548706,2.778904-0.082016,4.0863419-0.082016c1.3074417,0,2.6420174,0.0271454,4.1677628,0.082016
			c0.2997169-0.1634369,0.2997169-0.7900162,0-0.9263077l-0.8720245-0.1362915
			c-1.2254257-0.190567-1.3888588-0.4082794-1.3888588-2.9417343V97.8015976c0-1.0897293,0.0542793-1.3894501,1.0620003-1.3894501
			c2.4520416,0,3.4869003,2.1794662,3.4869003,4.1949005c0,2.016037-0.46315,3.6231995-2.7240334,4.331192
			c-0.190567,0.1634293-0.1362877,0.5994415,0.0820122,0.735733c0.2991295,0.0271378,0.5445709,0.0271378,0.8714333,0.0271378
			C47.538929,105.7011108,52.0335464,105.0473938,52.0335464,100.5799103"/>
		
			<linearGradient id="SVGID_5_" gradientUnits="userSpaceOnUse" x1="29.7073555" y1="949.6756592" x2="29.7073555" y2="930.8251343" gradientTransform="matrix(1 0 0 1 0 -836)">
			<stop  offset="0" style="stop-color:#575454"/>
			<stop  offset="0.0043636" style="stop-color:#575454"/>
			<stop  offset="0.3002784" style="stop-color:#656060"/>
			<stop  offset="0.6194659" style="stop-color:#6E6868"/>
			<stop  offset="0.976243" style="stop-color:#706B6B"/>
			<stop  offset="1" style="stop-color:#706B6B"/>
		</linearGradient>
		<path class="st4" d="M24.3684464,100.0283508c0,2.6963043,2.1517258,4.331192,4.1134796,5.3117752
			c1.6342983,0.8171463,3.7046089,2.1251678,3.7046089,4.3311768c0,1.3623199-0.9263,2.7511826-2.9423294,2.7511826
			c-2.3151627,0-4.1400337-2.5057373-4.6851902-4.2769165c-0.2183018-0.2991257-0.8448811-0.2719879-1.03545,0.082016
			c0,1.852005,0.3545895,3.8137589,0.8720188,4.4131927c0.5717106,0.3262787,2.124588,1.0348587,4.630909,1.0348587
			c4.1128922,0,6.8646507-2.1794586,6.8646507-5.5300674c0-2.9960251-2.1517296-4.5760422-3.8409004-5.4746094l-1.7977276-0.9540329
			c-1.3617191-0.7079926-2.4791832-1.8520126-2.4791832-3.1051636c0-1.3623047,0.9805813-2.5334702,2.7789001-2.5334702
			c1.9605732,0,3.1323147,1.9883118,3.5954609,3.3777542c0.2448502,0.272583,0.9263,0.2454453,1.0620003-0.0820007
			c0-1.8248749-0.2719917-3.2957535-0.4897003-3.8951874c-0.3274498-0.0542755-0.5723-0.1091461-0.9263-0.2177124
			c-1.0897293-0.327446-2.2065983-0.4360046-3.1057587-0.4360046
			C26.7384739,94.8251419,24.3407135,96.950325,24.3684464,100.0283508"/>
	</g>
	<g>
		
			<radialGradient id="SVGID_6_" cx="59.9260902" cy="880.3195801" r="37.0341492" gradientTransform="matrix(1 0 0 1 0 -836)" gradientUnits="userSpaceOnUse">
			<stop  offset="0.51" style="stop-color:#FFEEAC"/>
			<stop  offset="0.95" style="stop-color:#FDDD10"/>
		</radialGradient>
		<circle class="st5" cx="59.9260902" cy="44.3195801" r="37.0341492"/>
		<polygon class="st6" points="59.9835014,13.0354824 64.2084885,37.0608749 81.3851547,26.9630222 69.0795288,41.9319153 
			88.6887665,43.9491234 69.0795288,45.965744 81.3851547,60.9346275 64.2084885,50.8367805 59.9835014,74.8621674 
			55.7585068,50.8367805 38.5818405,60.9346275 50.8874702,45.965744 31.2782326,43.9491234 50.8874702,41.9319153 
			38.5818405,26.9630222 55.7585068,37.0608749 		"/>
		<polygon class="st7" points="59.9835014,13.0354824 64.2084885,37.0608749 81.3851547,26.9630222 69.0795288,41.9319153 
			88.6887665,43.9491234 69.0795288,45.965744 81.3851547,60.9346275 64.2084885,50.8367805 59.9835014,74.8621674 
			55.7585068,50.8367805 38.5818405,60.9346275 50.8874702,45.965744 31.2782326,43.9491234 50.8874702,41.9319153 
			38.5818405,26.9630222 55.7585068,37.0608749 		"/>
	</g>
</g>
</svg>
