<?xml version="1.0" encoding="utf-8"?>
<!-- Generator: Adobe Illustrator 21.1.0, SVG Export Plug-In . SVG Version: 6.00 Build 0)  -->
<svg version="1.1" id="Layer_1" xmlns="http://www.w3.org/2000/svg" xmlns:xlink="http://www.w3.org/1999/xlink" x="0px" y="0px"
	 viewBox="0 0 120 120" style="enable-background:new 0 0 120 120;" xml:space="preserve">
<style type="text/css">
	.st0{fill:url(#SVGID_1_);}
	.st1{fill:#D6DCF0;}
	.st2{fill:#B3C0E2;}
	.st3{fill:url(#SVGID_2_);stroke:#567EBF;stroke-width:1.1020429;stroke-linejoin:round;stroke-miterlimit:10;}
	.st4{fill:url(#SVGID_3_);}
	.st5{fill:url(#SVGID_4_);}
	.st6{fill:url(#SVGID_5_);}
	.st7{fill:url(#SVGID_6_);}
	.st8{fill:url(#SVGID_7_);}
	.st9{fill:url(#SVGID_8_);}
</style>
<g>
	<g>
		
			<radialGradient id="SVGID_1_" cx="59.8675919" cy="879.319458" r="37.0341492" gradientTransform="matrix(1 0 0 1 0 -836)" gradientUnits="userSpaceOnUse">
			<stop  offset="0.5" style="stop-color:#B3C0E2"/>
			<stop  offset="0.95" style="stop-color:#567EBF"/>
		</radialGradient>
		<circle class="st0" cx="59.8675919" cy="43.3194771" r="37.0341492"/>
		<path class="st1" d="M79.635376,55.8875465c0-1.8499603-2.8609009-3.4993515-7.3329926-4.5793533
			c2.757309,1.0131416,4.4544525,2.3598404,4.4544525,3.8431892c0,3.1437607-7.5592728,5.6924171-16.8847618,5.6924171
			s-16.885498-2.5486565-16.885498-5.6924171c0-1.4826126,1.6949387-2.8278389,4.4485779-3.8409843
			c-4.4662132,1.0800018-7.3227081,2.7286568-7.3227081,4.5771484c0,3.2539673,8.8471985,5.8915253,19.761097,5.8915253
			C70.7881775,61.7790718,79.635376,59.1415138,79.635376,55.8875465"/>
		<path class="st2" d="M87.4678192,57.0596809c0-2.1578026-2.6757584-4.1201706-7.2338104-5.5880966
			c0.0536346,0.0279236,0.0999222,0.0617142,0.1528168,0.0903702c-0.0903625-0.0301208-0.1763306-0.0609779-0.2674332-0.0903702
			c0.4826965,0.245388,0.9139633,0.5018044,1.3180466,0.7640877c0.8823624,0.6612244,1.5502014,1.4458771,2.0079193,2.2378807
			c0.4922562,0.575264,0.7626114,1.1769829,0.7626114,1.7977982c0,0.8324089-0.4760742,1.6310234-1.3408127,2.3752708
			c-3.2649841,3.2253113-12.3237762,5.5454788-22.9959641,5.5454788c-10.7125893,0-19.7993011-2.3378029-23.0319633-5.5822144
			c-0.8382835-0.7339592-1.2996712-1.519352-1.2996712-2.3385353c0-0.6002464,0.2505341-1.1828575,0.7119179-1.74049
			c0.4217186-0.7596779,1.0373878-1.514946,1.852169-2.1644135c0.4533081-0.3078423,0.9514351-0.6061211,1.5112686-0.8904533
			c-0.120491,0.0389404-0.2343674,0.0793495-0.3526535,0.1190186c0.0720024-0.0389366,0.134449-0.0859528,0.2086487-0.1234283
			c-4.5507011,1.4671936-7.1911926,3.4324989-7.1911926,5.5880966c0,4.5433502,12.3546333,9.0169106,27.5944214,9.0169106
			C75.1131821,66.0765915,87.4678192,61.6030312,87.4678192,57.0596809"/>
		
			<linearGradient id="SVGID_2_" gradientUnits="userSpaceOnUse" x1="59.6154442" y1="893.2585449" x2="59.6154442" y2="848.2099609" gradientTransform="matrix(1 0 0 1 0 -836)">
			<stop  offset="0" style="stop-color:#FFFFFF"/>
			<stop  offset="0.2365053" style="stop-color:#F8F9FC"/>
			<stop  offset="0.4736142" style="stop-color:#EBEDF7"/>
			<stop  offset="0.7111081" style="stop-color:#D6DCEF"/>
			<stop  offset="0.9475858" style="stop-color:#BAC6E5"/>
			<stop  offset="1" style="stop-color:#B3C0E2"/>
		</linearGradient>
		<path class="st3" d="M73.4027328,43.9333954c0,7.3594437-6.172905,13.3251648-13.7872887,13.3251648
			s-13.7872925-5.9657211-13.7872925-13.3251648s13.7872925-22.8563728,13.7872925-31.7234097
			C60.018055,20.5906582,73.4027328,36.5739517,73.4027328,43.9333954z"/>
	</g>
	<g>
		
			<linearGradient id="SVGID_3_" gradientUnits="userSpaceOnUse" x1="45.1360855" y1="948.3893433" x2="45.1360855" y2="930.1654663" gradientTransform="matrix(1 0 0 1 0 -836)">
			<stop  offset="0" style="stop-color:#000000"/>
			<stop  offset="0.102136" style="stop-color:#000000"/>
			<stop  offset="0.2697589" style="stop-color:#0E171A"/>
			<stop  offset="0.4813125" style="stop-color:#1F272A"/>
			<stop  offset="0.7084354" style="stop-color:#283033"/>
			<stop  offset="0.976243" style="stop-color:#2B3336"/>
			<stop  offset="1" style="stop-color:#2B3336"/>
		</linearGradient>
		<path class="st4" d="M53.9979668,111.4359512c-0.4088669-0.027153-1.1168709-0.190567-1.8248787-0.7622757
			c-1.3080139-1.1168747-2.4242744-3.1600494-4.2226181-6.8103867c-0.135685-0.2997208-0.135685-0.4631348,0.1363029-0.5994339
			c1.2531357-0.6259766,2.8874474-1.6614304,2.8874474-4.0863571c0-1.7428513-0.8171539-3.1051712-2.3971634-4.0308609
			c-1.034874-0.6265869-3.0231705-0.9811859-5.338913-0.9811859c-2.5877342,0-4.7129059,0.1091461-6.7555084,0.2454453
			c-0.327446,0.1356888-0.327446,0.8171616-0.0548439,0.9534607l0.7356987,0.1091461
			c1.1440239,0.1628418,1.1982918,0.4631348,1.1982918,3.1871643v9.6429596c0,2.5063095-0.162838,2.6968842-1.3888626,2.9146042
			l-0.7356987,0.1362991c-0.21772,0.1362991-0.21772,0.7894287,0,0.9534225
			c1.4165916-0.0548477,2.6154594-0.0820007,3.9771729-0.0820007c1.3074417,0,2.5606155,0.027153,4.0043221,0.0820007
			c0.190567-0.1639938,0.190567-0.8171234,0-0.9534225l-0.7356987-0.1362991
			c-1.2260246-0.21772-1.3888626-0.4082947-1.3888626-2.9146042v-3.3506165c0-0.5451355,0.0542679-0.5994415,1.0076866-0.5994415
			c0.6808929,0,1.1168747,0.2182999,1.4437447,0.9534607c0.6260109,1.4437027,1.2525597,2.7788773,2.1245956,4.2220459
			c1.1988716,1.9617538,2.7789154,2.8602905,5.2846069,2.8602905c0.8443108,0,1.7163086-0.0542679,2.1523285-0.2454071
			C54.2428398,111.9805069,54.2428398,111.5722504,53.9979668,111.4359512z M45.8530273,102.3924255
			c-0.5174408,0.5174408-1.0897217,0.7622757-2.0702934,0.7622757c-1.6071625,0-1.6885796-0.0814209-1.6885796-1.034874v-5.3117676
			c0-1.3074417,0.0542679-1.3894348,1.1705284-1.3894348c2.1252098,0,3.5689163,1.5800095,3.5689163,4.0314713
			C46.8335991,101.0572586,46.3161621,101.9292603,45.8530273,102.3924255z"/>
		<g>
			
				<linearGradient id="SVGID_4_" gradientUnits="userSpaceOnUse" x1="62.7554092" y1="948.3079224" x2="62.7554092" y2="930.1654663" gradientTransform="matrix(1 0 0 1 0 -836)">
				<stop  offset="0" style="stop-color:#131D20"/>
				<stop  offset="0.0237569" style="stop-color:#131D20"/>
				<stop  offset="0.1677377" style="stop-color:#252D2F"/>
				<stop  offset="0.7414711" style="stop-color:#535354"/>
				<stop  offset="1" style="stop-color:#645F5F"/>
			</linearGradient>
			<path class="st5" d="M69.6606979,107.8133392c-1.4980164,3.0780182-2.4243164,3.1594391-4.7943268,3.1594391
				c-1.9883003,0-2.5063133-0.2176819-2.8603363-0.7079697c-0.3262558-0.4631729-0.4360161-1.3345947-0.4360161-2.5877686
				v-3.2420502c0-0.8171539,0.027729-0.8442688,0.762886-0.8442688h1.8797264c1.4165878,0,1.7434616,0.2176819,2.0160217,1.5257416
				l0.1357269,0.6808548c0.190567,0.2454453,0.8720016,0.2182922,1.0077286-0.027153
				c-0.0536957-0.8720016-0.0814209-1.8519974-0.0814209-2.8874512c0-1.034874,0.0277252-2.0160217,0.0814209-2.8874512
				c-0.1357269-0.244873-0.8171616-0.244873-1.0077286-0.027153l-0.1357269,0.6808548
				c-0.2725601,1.3074493-0.5994339,1.4980164-2.0160217,1.4980164h-1.8797264c-0.735157,0-0.762886-0.0542679-0.762886-0.8171539
				v-4.7666016c0-1.0077209,0-1.0626068,0.899189-1.0626068h2.1794434c1.3345947,0,2.1517487,0.3268738,2.6697617,0.8443069
				c0.3539886,0.3811417,0.7351227,1.1982956,1.0348434,2.1523285c0.2725983,0.2448349,0.899147,0.190567,1.0077209-0.1091461
				c-0.1356888-1.8248825-0.3268661-3.7866364-0.353981-4.2226562c-0.354599,0.0548782-1.9068832,0.0820312-3.6503372,0.0820312
				h-5.7749367c-1.3074417,0-2.6426125-0.027153-3.922905-0.0820312c-0.2719879,0.1640244-0.2991409,0.7906113-0.0536919,0.9540329
				l0.6802788,0.1357193c1.2260246,0.2454147,1.3894386,0.4088669,1.3894386,2.8874512v10.1609726
				c0,2.5063095-0.163414,2.6691513-1.3894386,2.8597183l-1.2802887,0.191185c-0.21772,0.1362991-0.21772,0.7894287,0,0.9534225
				c2.0437546-0.0548477,3.3777351-0.0820007,4.6857529-0.0820007h3.5411911c2.2337456,0,4.848629,0.027153,6.2923698,0.0820007
				c0.3811417-0.7357025,1.0348434-2.9417191,1.1445694-4.3589249
				C70.5592728,107.6221924,69.878418,107.5136261,69.6606979,107.8133392z"/>
			
				<linearGradient id="SVGID_5_" gradientUnits="userSpaceOnUse" x1="102.157074" y1="948.6071167" x2="102.157074" y2="930.1654663" gradientTransform="matrix(1 0 0 1 0 -836)">
				<stop  offset="0" style="stop-color:#131D20"/>
				<stop  offset="0.0237569" style="stop-color:#131D20"/>
				<stop  offset="0.1677377" style="stop-color:#252D2F"/>
				<stop  offset="0.7414711" style="stop-color:#535354"/>
				<stop  offset="1" style="stop-color:#645F5F"/>
			</linearGradient>
			<path class="st6" d="M112.966713,111.2453842c-1.0626068-0.1363068-1.1711426-0.7900085-1.2254486-2.0426025
				c-0.163414-3.4326172-0.2182999-6.3743362-0.2182999-11.9858551c0-1.4437027,0.5445938-1.7711487,1.6620407-1.9617233
				l0.7894287-0.1357193c0.2182999-0.2725677,0.2182999-0.7900085-0.0814209-0.9540329
				c-0.9805679,0.0548782-2.2337418,0.0820312-3.1328964,0.0820312c-0.8171539,0-1.4437408,0.0271149-2.6969147-0.0820312
				c-0.5988235,2.3428955-1.2796783,3.7866364-2.5871201,6.5926666l-1.3900528,2.9960175
				c-0.7351608,1.6077728-1.1711426,2.4520493-1.5245514,3.1057816c-0.3823242-0.6808853-1.3623199-2.3971939-1.6077728-2.9417496
				l-1.7977295-3.8414841c-1.198288-2.5606155-2.1523209-4.2220383-2.1523209-5.911232
				c-0.9799652,0.0820312-1.7700043,0.0820312-2.6691513,0.0820312c-1.3351746,0-2.5063171-0.027153-3.4326172-0.0820312
				c-0.2991409,0.0820312-0.2991409,0.735733-0.0814209,0.9540329l0.5994339,0.1085739
				c1.0897217,0.190567,1.6885757,0.5994339,1.6885757,2.1523209c0,1.4708633-0.0542679,3.6768799-0.163414,5.5023346
				c-0.1634521,2.5877304-0.244873,4.9577789-0.381752,6.2929535c-0.1628342,1.6885757-0.3262558,1.8519897-1.7156906,2.0974426
				l-0.4902878,0.0814209c-0.2454529,0.1362991-0.2454529,0.8442688,0.1085358,0.9534225
				c1.0897598-0.0548477,2.1251755-0.0820007,2.9966354-0.0820007c1.0354538,0,2.2065887,0.027153,3.2148895,0.0820007
				c0.2177277-0.1362686,0.2719955-0.7628555,0.0536957-0.9534225l-1.0619965-0.1634521
				c-1.0891418-0.1634216-1.2525558-0.5445557-1.2525558-1.9068756c0-1.6342773,0.026535-4.3583145,0.0536575-6.1295013
				c0.0277634-1.4160156,0.0548782-2.6148834,0.1634521-4.3854599h0.0548782
				c1.5257416,3.541153,4.8763199,10.2966614,5.9383469,13.6750107c0.1634216,0.1091461,0.4631348,0.1628418,0.7079773,0.1628418
				c0.21772,0,0.4094772-0.0814209,0.545166-0.1905746c1.7977295-4.6031799,3.9772034-9.1526642,5.9926147-13.5110092h0.0548859
				v3.1057816l0.0542679,7.0823364c0,1.6614685,0,1.9882965-1.2531433,2.1517563l-0.8171539,0.1091461
				c-0.2725601,0.190567-0.2448349,0.8171539,0.0814209,0.9534225c1.3080215-0.0548477,2.8060303-0.0820007,4.0320511-0.0820007
				c1.3345947,0,2.5057373,0.027153,3.7589111,0.0820007c0.2725677-0.1091537,0.2725677-0.7357025,0.0548401-0.9534225
				L112.966713,111.2453842z"/>
			
				<linearGradient id="SVGID_6_" gradientUnits="userSpaceOnUse" x1="80.2059402" y1="948.3079224" x2="80.2059402" y2="929.8114624" gradientTransform="matrix(1 0 0 1 0 -836)">
				<stop  offset="0" style="stop-color:#131D20"/>
				<stop  offset="0.0237569" style="stop-color:#131D20"/>
				<stop  offset="0.1677377" style="stop-color:#252D2F"/>
				<stop  offset="0.7414711" style="stop-color:#535354"/>
				<stop  offset="1" style="stop-color:#645F5F"/>
			</linearGradient>
			<path class="st7" d="M88.3660812,111.1910782c-1.0077286-0.1634216-1.2526016-0.7900085-1.8248825-2.4242783
				l-3.7046051-10.6784134c-0.6814651-1.9340286-1.0083008-2.9417496-1.2260208-3.7323685
				c-0.1085739-0.4082565-0.2725983-0.5445557-0.6265869-0.5445557c-0.0542679,0-1.0619965,1.3351746-2.3700485,1.6343155
				c0.0820312,0.7900009-0.381134,1.7440338-1.0076904,3.4597321l-2.4786148,6.646965
				c-0.7351227,1.9611511-1.2531433,3.2685928-1.7163086,4.3583145c-0.4631348,1.0619888-1.0077286,1.2802887-1.6620026,1.3623199
				l-0.7351608,0.0814209c-0.190567,0.21772-0.21772,0.7894287,0.0814209,0.9534225
				c1.2531738,0,1.8797607-0.0820007,2.8060303-0.0820007c1.1440201,0.027153,2.125206,0.027153,3.0780487,0.0820007
				c0.2725677-0.1362686,0.2176895-0.7628555,0.0548477-0.9534225l-0.8171234-0.1362991
				c-0.762886-0.1363068-1.117485-0.2997208-1.117485-0.4631348c0-0.21772,0.0277328-0.4360199,0.1905746-0.9806137
				l1.0625992-3.1600113c0.1634216-0.5174408,0.2454529-0.545166,0.8991547-0.545166h3.2414703
				c0.9534225,0,1.1717529,0.0548782,1.3074417,0.49086l0.735733,2.3428955
				c0.3268356,1.0077286,0.5174026,1.6614609,0.5174026,1.8520355c0,0.163414-0.1085358,0.353981-0.7351227,0.4631348
				l-0.8720322,0.1362991c-0.2997208,0.21772-0.2448349,0.7894287,0.0548782,0.9534225
				c1.2531738-0.0548477,2.3151703-0.0820007,3.6768799-0.0820007c1.4165878,0,2.8874817,0.027153,4.1955032,0.0820007
				c0.2448349-0.1639938,0.190567-0.8171234,0.027153-0.9534225L88.3660812,111.1910782z M80.357399,104.6255646h-2.5605774
				c-0.6808929,0-0.8171616-0.0808105-0.5717468-0.8171616l0.6808929-2.0425644
				c0.4088669-1.2531738,0.9534225-2.7240295,1.1711426-3.3506165c0.2454453,0.5717087,0.735733,2.0431747,1.1174469,3.2143173
				l0.707428,2.2066345C81.120285,104.544754,80.9839859,104.6255646,80.357399,104.6255646z"/>
		</g>
		<g>
			
				<linearGradient id="SVGID_7_" gradientUnits="userSpaceOnUse" x1="10.3757286" y1="948.6619873" x2="10.3757286" y2="929.8114624" gradientTransform="matrix(1 0 0 1 0 -836)">
				<stop  offset="0" style="stop-color:#575454"/>
				<stop  offset="0.0043636" style="stop-color:#575454"/>
				<stop  offset="0.3002784" style="stop-color:#656060"/>
				<stop  offset="0.6194659" style="stop-color:#6E6868"/>
				<stop  offset="0.976243" style="stop-color:#706B6B"/>
				<stop  offset="1" style="stop-color:#706B6B"/>
			</linearGradient>
			<path class="st8" d="M12.71803,101.6572647l-1.7971163-0.9540253c-1.3623228-0.7079773-2.4791956-1.8519974-2.4791956-3.1051712
				c0-1.3622894,0.9805727-2.533432,2.7783003-2.533432c1.9611816,0,3.1323233,1.9882965,3.5954571,3.377739
				c0.2454491,0.2725601,0.9269161,0.2454453,1.0626049-0.0820007c0-1.8248749-0.2726011-3.2957382-0.4902859-3.8945923
				c-0.32687-0.0548859-0.572319-0.1097641-0.9257288-0.2182999c-1.0897207-0.3268661-2.2071705-0.4360199-3.1057463-0.4360199
				c-3.9494781,0-6.3472176,2.1251755-6.319489,5.2031937c0,2.6963043,2.1517138,4.331192,4.1128945,5.3117981
				c1.6342754,0.8171234,3.7046051,2.1251755,3.7046051,4.331192c0,1.3622894-0.9257278,2.751152-2.9417534,2.751152
				c-2.3151665,0-4.1406231-2.5057373-4.6851773-4.276886c-0.2182975-0.2991409-0.8443079-0.2719955-1.0354528,0.0819931
				c0,1.8519974,0.3539853,3.8137512,0.872036,4.4131927c0.5717063,0.3262863,2.1245618,1.034874,4.6309094,1.034874
				c4.1128588,0,6.8646193-2.1794815,6.8646193-5.5300598C16.5595112,104.1358871,14.4072218,102.5558472,12.71803,101.6572647z"/>
			
				<linearGradient id="SVGID_8_" gradientUnits="userSpaceOnUse" x1="26.2375793" y1="948.3079224" x2="26.2375793" y2="929.5666504" gradientTransform="matrix(1 0 0 1 0 -836)">
				<stop  offset="0" style="stop-color:#575454"/>
				<stop  offset="0.0043636" style="stop-color:#575454"/>
				<stop  offset="0.3002784" style="stop-color:#656060"/>
				<stop  offset="0.6194659" style="stop-color:#6E6868"/>
				<stop  offset="0.976243" style="stop-color:#706B6B"/>
				<stop  offset="1" style="stop-color:#706B6B"/>
			</linearGradient>
			<path class="st9" d="M34.886097,93.7571945c-0.0536919-0.0814209-0.2448349-0.190567-0.408287-0.190567
				c-0.1634178,0-0.2448387,0.0271149-0.3539848,0.0819931c-0.2454529,0.5717087-0.6537056,0.5988617-2.4514332,0.5988617
				H21.5385361c-2.0702934,0-2.1523247-0.1091461-2.2880135-0.5717087c-0.108572-0.0820312-0.2454491-0.1091461-0.3811378-0.1091461
				c-0.1368771,0-0.2726021,0.0542679-0.3817501,0.1356888c-0.1905689,1.0626068-0.3268337,2.7511826-0.8985767,4.6309052
				c0.1628418,0.354599,0.680891,0.4088669,1.0077248,0.2454529c0.8171558-1.9882965,1.3894749-3.0780563,3.3777714-3.0780563
				h1.6891575c0.653738,0,0.653738,0.1357269,0.653738,0.7900391v12.01297c0,2.5334625-0.1634521,2.7782974-1.3900509,2.9146042
				l-1.2254448,0.1362991c-0.2176857,0.163414-0.2176857,0.7894287,0,0.9534225
				c1.9068775-0.0548477,3.3234673-0.0820007,4.630909-0.0820007c1.2254467,0,2.5877686,0.027153,4.358345,0.0820007
				c0.1911449-0.1639938,0.1911449-0.7900085,0-0.9534225l-1.0891457-0.1362991
				c-1.2260208-0.1634216-1.3894386-0.3811417-1.3894386-2.9146042v-12.01297c0-0.7086182,0.0814209-0.7900391,0.7357349-0.7900391
				h1.6342754c2.0426025,0,2.4237404,1.2803268,2.8874855,3.0237503c0.1356888,0.21772,0.8714256,0.1634521,1.0076904-0.0819931
				C34.423542,96.8894806,34.614109,94.6835022,34.886097,93.7571945z"/>
		</g>
	</g>
</g>
</svg>
