<?xml version="1.0" encoding="utf-8"?>
<!-- Generator: Adobe Illustrator 21.1.0, SVG Export Plug-In . SVG Version: 6.00 Build 0)  -->
<svg version="1.1" id="Layer_1" xmlns="http://www.w3.org/2000/svg" xmlns:xlink="http://www.w3.org/1999/xlink" x="0px" y="0px"
	 viewBox="0 0 285.1870117 242.3190002" style="enable-background:new 0 0 285.1870117 242.3190002;" xml:space="preserve">
<style type="text/css">
	.st0{fill:none;}
	.st1{fill:url(#SVGID_1_);}
	.st2{fill:#D6DCF0;}
	.st3{fill:#B3C0E2;}
	.st4{fill:url(#SVGID_2_);stroke:#567EBF;stroke-width:1.8678694;stroke-linejoin:round;stroke-miterlimit:10;}
	.st5{fill:url(#SVGID_3_);}
	.st6{fill:url(#SVGID_4_);}
	.st7{fill:url(#SVGID_5_);}
	.st8{fill:url(#SVGID_6_);}
	.st9{fill:url(#SVGID_7_);}
	.st10{fill:url(#SVGID_8_);}
</style>
<g id="Layer_2">
	<rect y="214.6609955" class="st0" width="27.5400009" height="27.5399933"/>
	<rect y="214.6609955" class="st0" width="27.5400009" height="27.5399933"/>
	<rect class="st0" width="27.5400009" height="27.5399933"/>
	<rect class="st0" width="27.5400009" height="27.5399933"/>
	<rect x="257.6470032" y="214.779007" class="st0" width="27.5400085" height="27.5399933"/>
	<rect x="257.6470032" y="0.1180115" class="st0" width="27.5400085" height="27.5399933"/>
</g>
<g>
	<g>
		
			<radialGradient id="SVGID_1_" cx="142.8903351" cy="146.8916473" r="62.7697449" gradientTransform="matrix(1 0 0 -1 0 244)" gradientUnits="userSpaceOnUse">
			<stop  offset="0.5" style="stop-color:#B3C0E2"/>
			<stop  offset="0.95" style="stop-color:#567EBF"/>
		</radialGradient>
		<circle class="st1" cx="142.8903351" cy="97.1083527" r="62.7697449"/>
		<path class="st2" d="M176.39505,118.4101639c0-3.1355286-4.8489838-5.9311066-12.4288025-7.7616196
			c4.6734161,1.7171936,7.5499268,3.999733,7.5499268,6.5138855c0,5.3284073-12.8123322,9.6481628-28.6182404,9.6481628
			s-28.6194916-4.3197556-28.6194916-9.6481628c0-2.5129089,2.8727798-4.7929535,7.5399628-6.5101471
			c-7.5698547,1.830513-12.4113693,4.6248398-12.4113693,7.7578812c0,5.5151978,14.9952545,9.9856339,33.4933853,9.9856339
			C161.3997955,128.3957977,176.39505,123.9253616,176.39505,118.4101639"/>
		<path class="st3" d="M189.6703796,120.3968277c0-3.6572876-4.5351868-6.9833374-12.2606964-9.471344
			c0.0909119,0.0473251,0.1693573,0.104599,0.2590179,0.1531677c-0.1531677-0.0510559-0.2988739-0.1033554-0.4532776-0.1531677
			c0.8181305,0.4159088,1.5490875,0.8505096,2.2339783,1.2950592c1.4955292,1.1207199,2.6274567,2.4506378,3.403244,3.7930222
			c0.8343353,0.9750214,1.292572,1.9948807,1.292572,3.0471115c0,1.4108658-0.8069153,2.7644501-2.2725677,4.0258865
			c-5.5338745,5.466629-20.8877563,9.3991089-38.9762115,9.3991089c-18.156929,0-33.558136-3.9623718-39.0372238-9.4613724
			c-1.4208221-1.2440033-2.2028351-2.5751724-2.2028351-3.963623c0-1.0173645,0.4246368-2.0048447,1.2066422-2.9499817
			c0.7147751-1.28759,1.7582855-2.5677032,3.139267-3.6684952c0.7683182-0.5217667,1.6126022-1.0273285,2.56147-1.5092468
			c-0.204216,0.0660019-0.3972321,0.134491-0.5977173,0.2017288c0.1220398-0.0659943,0.2278824-0.1456833,0.3536453-0.209198
			c-7.7130508,2.486763-12.1884613,5.8177948-12.1884613,9.471344c0,7.7005997,20.9400558,15.2829056,46.7702026,15.2829056
			C168.7303162,135.6797333,189.6703796,128.0974274,189.6703796,120.3968277"/>
		
			<linearGradient id="SVGID_2_" gradientUnits="userSpaceOnUse" x1="142.4629669" y1="123.2660828" x2="142.4629669" y2="199.6195984" gradientTransform="matrix(1 0 0 -1 0 244)">
			<stop  offset="0" style="stop-color:#FFFFFF"/>
			<stop  offset="0.2365053" style="stop-color:#F8F9FC"/>
			<stop  offset="0.4736142" style="stop-color:#EBEDF7"/>
			<stop  offset="0.7111081" style="stop-color:#D6DCEF"/>
			<stop  offset="0.9475858" style="stop-color:#BAC6E5"/>
			<stop  offset="1" style="stop-color:#B3C0E2"/>
		</linearGradient>
		<path class="st4" d="M165.8312531,98.1488876c0,12.4736328-10.4625549,22.5850296-23.3682861,22.5850296
			s-23.3682938-10.1113968-23.3682938-22.5850296s23.3682938-38.7396126,23.3682938-53.7684898
			C143.1453552,58.5849266,165.8312531,85.6752548,165.8312531,98.1488876z"/>
	</g>
	<g>
		
			<linearGradient id="SVGID_3_" gradientUnits="userSpaceOnUse" x1="117.9216843" y1="29.8240356" x2="117.9216843" y2="60.7120361" gradientTransform="matrix(1 0 0 -1 0 244)">
			<stop  offset="0" style="stop-color:#000000"/>
			<stop  offset="0.102136" style="stop-color:#000000"/>
			<stop  offset="0.2697589" style="stop-color:#0E171A"/>
			<stop  offset="0.4813125" style="stop-color:#1F272A"/>
			<stop  offset="0.7084354" style="stop-color:#283033"/>
			<stop  offset="0.976243" style="stop-color:#2B3336"/>
			<stop  offset="1" style="stop-color:#2B3336"/>
		</linearGradient>
		<path class="st5" d="M132.9418182,212.5599976c-0.6929932-0.0460205-1.8930054-0.322998-3.0930176-1.2919922
			c-2.2169724-1.8930054-4.1089401-5.3560181-7.1569748-11.5430298c-0.2299805-0.5079956-0.2299805-0.7849731,0.2310181-1.0159912
			c2.1239624-1.0609741,4.8939819-2.815979,4.8939819-6.9260254c0-2.9539795-1.3850098-5.2630005-4.0629883-6.8319702
			c-1.7540283-1.0620117-5.1240234-1.6630249-9.0490112-1.6630249c-4.3859863,0-7.9879761,0.1849976-11.4500122,0.4160156
			c-0.5549927,0.2299805-0.5549927,1.3850098-0.0929565,1.6160278l1.2469482,0.1849976
			c1.9390259,0.276001,2.0310059,0.7849731,2.0310059,5.4019775v16.3439941c0,4.2479858-0.276001,4.5709839-2.3540039,4.9400024
			l-1.2469482,0.2310181c-0.3690186,0.2310181-0.3690186,1.3380127,0,1.6159668
			c2.401001-0.0929565,4.4329834-0.1389771,6.7409668-0.1389771c2.2160034,0,4.3400269,0.0460205,6.7869873,0.1389771
			c0.322998-0.2779541,0.322998-1.3849487,0-1.6159668l-1.2469482-0.2310181
			c-2.0780029-0.3690186-2.3540039-0.6920166-2.3540039-4.9400024v-5.6790161c0-0.9239502,0.09198-1.0159912,1.7079468-1.0159912
			c1.1540527,0,1.8930054,0.3699951,2.4470215,1.6160278c1.0610352,2.4469604,2.1229858,4.7099609,3.6010132,7.1560059
			c2.0319824,3.3250122,4.710022,4.8479614,8.9569626,4.8479614c1.4310303,0,2.9089966-0.09198,3.6480103-0.4159546
			C133.3568573,213.4829712,133.3568573,212.7910156,132.9418182,212.5599976z M119.1368332,197.2319946
			c-0.8770142,0.8770142-1.8469849,1.2919922-3.5089722,1.2919922c-2.723999,0-2.8619995-0.1380005-2.8619995-1.7540283v-9.0029907
			c0-2.2160034,0.09198-2.3549805,1.9839478-2.3549805c3.6020508,0,6.0490112,2.6779785,6.0490112,6.8330078
			C120.7988205,194.9689941,119.9218063,196.4469604,119.1368332,197.2319946z"/>
		<g>
			
				<linearGradient id="SVGID_4_" gradientUnits="userSpaceOnUse" x1="147.7849426" y1="29.9620361" x2="147.7849426" y2="60.7120361" gradientTransform="matrix(1 0 0 -1 0 244)">
				<stop  offset="0" style="stop-color:#131D20"/>
				<stop  offset="0.0237569" style="stop-color:#131D20"/>
				<stop  offset="0.1677377" style="stop-color:#252D2F"/>
				<stop  offset="0.7414711" style="stop-color:#535354"/>
				<stop  offset="1" style="stop-color:#645F5F"/>
			</linearGradient>
			<path class="st6" d="M159.4888153,206.4199829c-2.5390015,5.21698-4.1090088,5.3549805-8.1259766,5.3549805
				c-3.3699951,0-4.2479858-0.3689575-4.8480225-1.1999512c-0.5529785-0.7850342-0.7390137-2.2620239-0.7390137-4.3860474
				v-5.4949951c0-1.3850098,0.0469971-1.4309692,1.2930298-1.4309692h3.1859741c2.401001,0,2.9550171,0.3689575,3.4169922,2.5859985
				l0.2300415,1.1539917c0.322998,0.4160156,1.4779663,0.3699951,1.7080078-0.0460205
				c-0.0910034-1.4779663-0.1380005-3.1389771-0.1380005-4.8939819c0-1.7540283,0.0469971-3.4169922,0.1380005-4.8939819
				c-0.2300415-0.4150391-1.3850098-0.4150391-1.7080078-0.0460205l-0.2300415,1.1539917
				c-0.4619751,2.2160034-1.0159912,2.5390015-3.4169922,2.5390015h-3.1859741c-1.2460327,0-1.2930298-0.09198-1.2930298-1.3850098
				v-8.0789795c0-1.7080078,0-1.8010254,1.5240479-1.8010254h3.6939697c2.2620239,0,3.6470337,0.5540161,4.5250244,1.4310303
				c0.5999756,0.6459961,1.2459717,2.0310059,1.7539673,3.6480103c0.4620361,0.414978,1.5239868,0.322998,1.7080078-0.1849976
				c-0.2299805-3.0930176-0.5540161-6.4180298-0.5999756-7.1570435c-0.6010132,0.0930176-3.2319946,0.1390381-6.1870117,0.1390381
				h-9.7880249c-2.2160034,0-4.4790039-0.0460205-6.6489868-0.1390381c-0.4609985,0.2780151-0.507019,1.3400269-0.0910034,1.6170044
				l1.1530151,0.2300415c2.0780029,0.4159546,2.3549805,0.6929932,2.3549805,4.8939819v17.2219849
				c0,4.2479858-0.2769775,4.5239868-2.3549805,4.8469849l-2.1699829,0.3240356
				c-0.3690186,0.2310181-0.3690186,1.3380127,0,1.6159668c3.4639893-0.0929565,5.7249756-0.1389771,7.9419556-0.1389771h6.0020142
				c3.7860107,0,8.2180176,0.0460205,10.6650391,0.1389771c0.6459961-1.2469482,1.7539673-4.9859619,1.9399414-7.3880005
				C161.0118256,206.0960083,159.8578339,205.9119873,159.4888153,206.4199829z"/>
			
				<linearGradient id="SVGID_5_" gradientUnits="userSpaceOnUse" x1="214.5674133" y1="29.4550171" x2="214.5674133" y2="60.7120361" gradientTransform="matrix(1 0 0 -1 0 244)">
				<stop  offset="0" style="stop-color:#131D20"/>
				<stop  offset="0.0237569" style="stop-color:#131D20"/>
				<stop  offset="0.1677377" style="stop-color:#252D2F"/>
				<stop  offset="0.7414711" style="stop-color:#535354"/>
				<stop  offset="1" style="stop-color:#645F5F"/>
			</linearGradient>
			<path class="st7" d="M232.8888397,212.2369995c-1.8010254-0.2310181-1.9849854-1.3389893-2.0770264-3.4620361
				c-0.2769775-5.8179932-0.3699951-10.8039551-0.3699951-20.3150024c0-2.4469604,0.9230347-3.0019531,2.8170166-3.3249512
				l1.3380127-0.2300415c0.3699951-0.4619751,0.3699951-1.3389893-0.1380005-1.6170044
				c-1.6619873,0.0930176-3.7860107,0.1390381-5.3099976,0.1390381c-1.3850098,0-2.4470215,0.0459595-4.5710449-0.1390381
				c-1.0149536,3.9710083-2.1689453,6.4180298-4.3849487,11.1740112l-2.3560181,5.0780029
				c-1.2460327,2.7250366-1.9849854,4.1560059-2.5839844,5.2640381c-0.6480103-1.1540527-2.309021-4.0630493-2.7250366-4.9860229
				l-3.0469971-6.5109863c-2.0310059-4.3400269-3.6480103-7.1560059-3.6480103-10.019043
				c-1.6609497,0.1390381-3,0.1390381-4.5239868,0.1390381c-2.2630005,0-4.2479858-0.0460205-5.8179932-0.1390381
				c-0.507019,0.1390381-0.507019,1.2470093-0.1380005,1.6170044l1.0159912,0.184021
				c1.8469849,0.322998,2.8619995,1.0159912,2.8619995,3.6480103c0,2.492981-0.09198,6.2319946-0.2769775,9.3259888
				c-0.2770386,4.3859863-0.4150391,8.4030151-0.6470337,10.6660156c-0.276001,2.8619995-0.5529785,3.1389771-2.907959,3.5549927
				l-0.8309937,0.1380005c-0.4160156,0.2310181-0.4160156,1.4309692,0.18396,1.6159668
				c1.8470459-0.0929565,3.6019897-0.1389771,5.0790405-0.1389771c1.7550049,0,3.7399902,0.0460205,5.4489746,0.1389771
				c0.3690186-0.230957,0.4609985-1.2929688,0.0910034-1.6159668l-1.7999878-0.2770386
				c-1.8460083-0.2769775-2.1229858-0.9229736-2.1229858-3.2319946c0-2.7699585,0.0449829-7.3869629,0.0909424-10.3889771
				c0.0470581-2.4000244,0.0930176-4.4320068,0.2770386-7.4329834h0.0930176
				c2.5859985,6.0019531,8.2649536,17.4519653,10.0650024,23.1779785c0.2769775,0.1849976,0.7849731,0.276001,1.1999512,0.276001
				c0.3690186,0,0.6940308-0.1380005,0.9240112-0.322998c3.0469971-7.802002,6.7410278-15.5130005,10.1569824-22.9000244h0.0930176
				v5.2640381l0.09198,12.0039673c0,2.81604,0,3.3699951-2.1239624,3.6470337l-1.3850098,0.1849976
				c-0.4619751,0.322998-0.414978,1.3850098,0.1380005,1.6159668c2.21698-0.0929565,4.7559814-0.1389771,6.8339844-0.1389771
				c2.2620239,0,4.2470093,0.0460205,6.3710327,0.1389771c0.4619751-0.1849976,0.4619751-1.2469482,0.0929565-1.6159668
				L232.8888397,212.2369995z"/>
			
				<linearGradient id="SVGID_6_" gradientUnits="userSpaceOnUse" x1="177.3621063" y1="29.9620361" x2="177.3621063" y2="61.3120117" gradientTransform="matrix(1 0 0 -1 0 244)">
				<stop  offset="0" style="stop-color:#131D20"/>
				<stop  offset="0.0237569" style="stop-color:#131D20"/>
				<stop  offset="0.1677377" style="stop-color:#252D2F"/>
				<stop  offset="0.7414711" style="stop-color:#535354"/>
				<stop  offset="1" style="stop-color:#645F5F"/>
			</linearGradient>
			<path class="st8" d="M191.1928558,212.1449585c-1.7080078-0.2769775-2.1230469-1.3389893-3.0930176-4.1089478
				l-6.2789917-18.098999c-1.1550293-3.2780151-1.7089844-4.9860229-2.0780029-6.3260498
				c-0.184021-0.6919556-0.4620361-0.9229736-1.0620117-0.9229736c-0.09198,0-1.7999878,2.2630005-4.0170288,2.7700195
				c0.1390381,1.3389893-0.6459961,2.9559937-1.7079468,5.8639526l-4.2010498,11.2660522
				c-1.2459717,3.3239746-2.1239624,5.539978-2.9089966,7.3869629c-0.7849731,1.7999878-1.7080078,2.1699829-2.8169556,2.309021
				l-1.2460327,0.1380005c-0.322998,0.3690186-0.3690186,1.3380127,0.1380005,1.6159668
				c2.1240234,0,3.1860352-0.1389771,4.7559814-0.1389771c1.9390259,0.0460205,3.6020508,0.0460205,5.217041,0.1389771
				c0.4619751-0.230957,0.3689575-1.2929688,0.0929565-1.6159668l-1.3849487-0.2310181
				c-1.2930298-0.2310181-1.894043-0.5079956-1.894043-0.7849731c0-0.3690186,0.0469971-0.7390137,0.322998-1.6620483
				l1.8010254-5.355957c0.2769775-0.8770142,0.4160156-0.9240112,1.5239868-0.9240112h5.4940186
				c1.6159668,0,1.9860229,0.0930176,2.2160034,0.8319702l1.2470093,3.9710083
				c0.5539551,1.7080078,0.8769531,2.81604,0.8769531,3.1390381c0,0.2769775-0.18396,0.5999756-1.2459717,0.7849731
				l-1.4780273,0.2310181c-0.5079956,0.3690186-0.414978,1.3380127,0.0930176,1.6159668
				c2.1240234-0.0929565,3.9240112-0.1389771,6.2319946-0.1389771c2.401001,0,4.894043,0.0460205,7.1110229,0.1389771
				c0.414978-0.2779541,0.322998-1.3849487,0.0460205-1.6159668L191.1928558,212.1449585z M177.6188202,201.0169678h-4.3399658
				c-1.1540527,0-1.3850098-0.1369629-0.9690552-1.3850098l1.1540527-3.4619751
				c0.6929932-2.1240234,1.6159668-4.6170044,1.9849854-5.6790161c0.4160156,0.9689941,1.2470093,3.4630127,1.8939819,5.447998
				l1.1990356,3.7400513C178.91185,200.8800049,178.6808319,201.0169678,177.6188202,201.0169678z"/>
		</g>
		<g>
			
				<linearGradient id="SVGID_7_" gradientUnits="userSpaceOnUse" x1="59.0058212" y1="29.3619995" x2="59.0058212" y2="61.3120117" gradientTransform="matrix(1 0 0 -1 0 244)">
				<stop  offset="0" style="stop-color:#575454"/>
				<stop  offset="0.0043636" style="stop-color:#575454"/>
				<stop  offset="0.3002784" style="stop-color:#656060"/>
				<stop  offset="0.6194659" style="stop-color:#6E6868"/>
				<stop  offset="0.976243" style="stop-color:#706B6B"/>
				<stop  offset="1" style="stop-color:#706B6B"/>
			</linearGradient>
			<path class="st9" d="M62.9758224,195.9859619l-3.0459595-1.6170044c-2.309021-1.1999512-4.2020264-3.1389771-4.2020264-5.2630005
				c0-2.30896,1.6619873-4.2939453,4.7089844-4.2939453c3.3240356,0,5.309021,3.3699951,6.0939941,5.7249756
				c0.4160156,0.4619751,1.5710449,0.4160156,1.8010254-0.1389771c0-3.0930176-0.4620361-5.5859985-0.8309937-6.6010132
				c-0.5540161-0.0930176-0.9700317-0.1860352-1.5690308-0.3699951c-1.8469849-0.5540161-3.7409668-0.7390137-5.2639771-0.7390137
				c-6.6940308,0-10.7579956,3.6019897-10.7109985,8.8189697c0,4.5700073,3.6469727,7.3410034,6.9710083,9.0030518
				c2.7699585,1.3849487,6.2789917,3.6019897,6.2789917,7.3410034c0,2.30896-1.5690308,4.6629639-4.9860229,4.6629639
				c-3.9240112,0-7.0180054-4.2470093-7.940979-7.2489624c-0.3699951-0.507019-1.4310303-0.4609985-1.7550049,0.1389771
				c0,3.1389771,0.5999756,6.4639893,1.4780273,7.4799805c0.9689941,0.5530396,3.6009521,1.7540283,7.848999,1.7540283
				c6.9709473,0,11.6349487-3.6940308,11.6349487-9.3729858C69.4868088,200.1870117,65.8388596,197.5089722,62.9758224,195.9859619z
				"/>
			
				<linearGradient id="SVGID_8_" gradientUnits="userSpaceOnUse" x1="85.8903122" y1="29.9620361" x2="85.8903122" y2="61.7269897" gradientTransform="matrix(1 0 0 -1 0 244)">
				<stop  offset="0" style="stop-color:#575454"/>
				<stop  offset="0.0043636" style="stop-color:#575454"/>
				<stop  offset="0.3002784" style="stop-color:#656060"/>
				<stop  offset="0.6194659" style="stop-color:#6E6868"/>
				<stop  offset="0.976243" style="stop-color:#706B6B"/>
				<stop  offset="1" style="stop-color:#706B6B"/>
			</linearGradient>
			<path class="st10" d="M100.5488205,182.5960083c-0.0910034-0.1380005-0.414978-0.322998-0.6920166-0.322998
				c-0.2769775,0-0.414978,0.0459595-0.5999756,0.1389771c-0.4160156,0.9689941-1.1079712,1.0150146-4.1549683,1.0150146H77.9258347
				c-3.5089722,0-3.6480103-0.1849976-3.8779907-0.9689941c-0.184021-0.1390381-0.4160156-0.1849976-0.6459961-0.1849976
				c-0.2319946,0-0.4620361,0.09198-0.6470337,0.2299805c-0.322998,1.8010254-0.5539551,4.6630249-1.5230103,7.848999
				c0.276001,0.6010132,1.1540527,0.6929932,1.7080078,0.4160156c1.3850098-3.3699951,2.3550415-5.217041,5.7250366-5.217041
				h2.8629761c1.1080322,0,1.1080322,0.2300415,1.1080322,1.3390503v20.3609619
				c0,4.2940063-0.2770386,4.7089844-2.3560181,4.9400024l-2.0770264,0.2310181
				c-0.3689575,0.2769775-0.3689575,1.3380127,0,1.6159668c3.2319946-0.0929565,5.6329956-0.1389771,7.848999-0.1389771
				c2.0770264,0,4.3860474,0.0460205,7.3870239,0.1389771c0.3239746-0.2779541,0.3239746-1.3389893,0-1.6159668
				l-1.8460083-0.2310181c-2.0780029-0.2769775-2.3549805-0.6459961-2.3549805-4.9400024v-20.3609619
				c0-1.2010498,0.1380005-1.3390503,1.2470093-1.3390503h2.7699585c3.4620361,0,4.1080322,2.1700439,4.894043,5.125
				c0.2299805,0.3690186,1.4769897,0.2770386,1.7079468-0.1389771
				C99.7648239,187.9049683,100.087822,184.1660156,100.5488205,182.5960083z"/>
		</g>
	</g>
</g>
</svg>
