<?xml version="1.0" encoding="utf-8"?>
<!-- Generator: Adobe Illustrator 21.0.0, SVG Export Plug-In . SVG Version: 6.00 Build 0)  -->
<svg version="1.1" id="Layer_1" xmlns="http://www.w3.org/2000/svg" xmlns:xlink="http://www.w3.org/1999/xlink" x="0px" y="0px"
	 viewBox="0 0 257.8720093 242.2009888" style="enable-background:new 0 0 257.8720093 242.2009888;" xml:space="preserve">
<style type="text/css">
	.st0{fill:url(#SVGID_1_);}
	.st1{fill:#D6DCF0;}
	.st2{fill:#B3C0E2;}
	.st3{fill:url(#SVGID_2_);stroke:#567EBF;stroke-width:2.8018041;stroke-linejoin:round;stroke-miterlimit:10;}
</style>
<radialGradient id="SVGID_1_" cx="129.4085083" cy="122.8875122" r="94.1546249" gradientTransform="matrix(1 0 0 -1 0 244)" gradientUnits="userSpaceOnUse">
	<stop  offset="0.02" style="stop-color:#B3C0E2"/>
	<stop  offset="0.8" style="stop-color:#7591CA"/>
	<stop  offset="0.98" style="stop-color:#567EBF"/>
</radialGradient>
<circle class="st0" cx="129.4085083" cy="121.1124878" r="94.1546249"/>
<path class="st1" d="M179.6655884,153.0652008c0-4.7032928-7.2734985-8.8966522-18.6432343-11.6424255
	c7.0101318,2.5757904,11.3248901,5.999588,11.3248901,9.770813c0,7.9926147-19.2184906,14.4722595-42.9273529,14.4722595
	s-42.929245-6.4796448-42.929245-14.4722595c0-3.7693481,4.3091736-7.1894073,11.3099442-9.765213
	c-11.3547668,2.7457733-18.6170425,6.9372711-18.6170425,11.6368256c0,8.2727966,22.4928818,14.9784546,50.2400665,14.9784546
	C157.172699,168.0436554,179.6655884,161.3379974,179.6655884,153.0652008"/>
<path class="st2" d="M199.5785522,156.0451965c0-5.4859314-6.8027802-10.4750061-18.391037-14.207016
	c0.1363678,0.0709839,0.2540283,0.1569061,0.3885193,0.2297516c-0.2297516-0.0765839-0.448288-0.1550293-0.6799164-0.2297516
	c1.2272034,0.6238708,2.3236389,1.2757568,3.3509674,1.9425964c2.2433167,1.681076,3.9411926,3.6759491,5.1048889,5.6895294
	c1.2514801,1.4625397,1.9388428,2.9923248,1.9388428,4.5706635c0,2.1163025-1.2103729,4.1466675-3.4088593,6.0388184
	c-8.3008118,8.1999664-31.3316345,14.0986786-58.4643097,14.0986786c-27.2353973,0-50.3372116-5.9435577-58.5558319-14.1920624
	c-2.1312408-1.8660126-3.3042603-3.8627472-3.3042603-5.9454346c0-1.5260468,0.6369553-3.0072632,1.8099747-4.4249725
	c1.0721512-1.9313812,2.637413-3.8515472,4.7088852-5.5027466c1.1524887-0.7826385,2.4189072-1.5410004,3.8422089-2.263855
	c-0.3063126,0.098999-0.5958481,0.2017365-0.8965683,0.3025818c0.1830521-0.0989838,0.3418121-0.2185364,0.5304718-0.313797
	c-11.5695877,3.7301331-18.282692,8.7266846-18.282692,14.207016c0,11.5509033,31.41008,22.9243622,70.1552887,22.9243622
	C168.168457,178.9695587,199.5785522,167.5960999,199.5785522,156.0451965"/>
<linearGradient id="SVGID_2_" gradientUnits="userSpaceOnUse" x1="128.7674408" y1="87.449173" x2="128.7674408" y2="201.9794464" gradientTransform="matrix(1 0 0 -1 0 244)">
	<stop  offset="0" style="stop-color:#FFFFFF"/>
	<stop  offset="0.2365053" style="stop-color:#F8F9FC"/>
	<stop  offset="0.4736142" style="stop-color:#EBEDF7"/>
	<stop  offset="0.7111081" style="stop-color:#D6DCEF"/>
	<stop  offset="0.9475858" style="stop-color:#BAC6E5"/>
	<stop  offset="1" style="stop-color:#B3C0E2"/>
</linearGradient>
<path class="st3" d="M163.8198853,122.6732788c0,18.7104645-15.6938477,33.8775482-35.0524445,33.8775482
	S93.715004,141.3837433,93.715004,122.6732788c0-18.710434,35.0524368-58.1094131,35.0524368-80.6527252
	C129.7910309,63.3273506,163.8198853,103.9628448,163.8198853,122.6732788z"/>
</svg>
