<svg xmlns="http://www.w3.org/2000/svg" xmlns:xlink="http://www.w3.org/1999/xlink" viewBox="0 0 181 181"><defs><style>.cls-1{fill:#a71e27;}.cls-2{fill:url(#redSHdwd);}</style><radialGradient id="redSHdwd" cx="90.5" cy="90.5" r="90.5" gradientUnits="userSpaceOnUse"><stop offset="0" stop-color="#b54d41"/><stop offset="0.30696" stop-color="#b2433c"/><stop offset="0.82628" stop-color="#aa282d"/><stop offset="1" stop-color="#a71e27"/></radialGradient></defs><title>ants</title><g id="Layer_2" data-name="Layer 2"><g id="Layer_1_copy_2" data-name="Layer 1 copy 2"><path class="cls-1" d="M75.46924,119.09619a18.19477,18.19477,0,0,1,5.21191-6.814c3.10059-2.519,3.23291-1.78271,3.86426-5.39453.68359-3.91064.34326-6.45654-2.77783-6.30957-1.39941.06592-7.39014,4.77295-9.105,5.87842-3.29346,2.123-2.77588,2.104-3.01074,5.15137-.33008,4.28271.36328,9.38721.87158,14.42578l3.9209-3.9209A19.18155,19.18155,0,0,1,75.46924,119.09619Z"/><path class="cls-2" d="M90.5,181A90.5,90.5,0,1,0,0,90.5,90.49979,90.49979,0,0,0,90.5,181Zm0-172.855a81.97413,81.97413,0,0,1,49.92578,16.873L100.40283,65.0415c.51709,4.81592-.46191,9.01514-7.95605,9.94043,2.79736,2.34863,3.71973,5.76416,6.082,8.1084,2.39453-2.13037,4.73682-1.31934,7.3833-4.16846,5.1377-5.53076,6.88477-13.562,12.19971-18.8335,2.95654-2.93213,6.56055-4.66162,8.605-7.272.77734-.99316.68018-2.40918,1.59814-3.31982.65381-.64844,6.79053-3.55127,6.16064-.707.36768-1.63232-6.06934,5.021-6.08838,5.04443-2.65576,3.28711-6.05225,4.63623-9.10254,7.86816C113.728,67.58984,110.26758,85.939,99.72119,85.939c.6543.87549-.18994,2.89746,1.02,3.22266.48584.13086,7.12988-4.01367,8.09082-4.334a35.59682,35.59682,0,0,1,4.10352-1.20605l43.04687-43.04687A82.34106,82.34106,0,0,1,40.57471,155.98242l27.60645-27.60693c-.63525-5.89209-2.0625-11.94092-1.52344-17.42578.7124-7.248,6.82275-9.0791,12.17236-13.08105,3.043-2.27588,3.8833-3.26758.20361-5.752-.438-.29541-1.90723-1.07373-3.74512-1.96094L58.44873,106.99561c-.63184,2.09326-1.26465,4.18164-2.0083,6.21777-.96631,2.647-2.92725,4.64307-4.49268,7.01123-1.18213,1.78711-5.3999,7.17725-7.28467,7.17725-1.93115,0,8.67236-12.8291,9.14941-13.73535a21.92626,21.92626,0,0,0,1.42236-3.45752l-30.21631,30.2168A82.34094,82.34094,0,0,1,90.5,8.145Z"/><path class="cls-1" d="M103.17578,91.564c-2.89844,1.38232-4.80176,2.35938-3.04932,4.8667l6.79053-6.79053C105.21484,90.50342,103.77832,91.27637,103.17578,91.564Z"/><path class="cls-1" d="M81.2168,85.687a5.49273,5.49273,0,0,1-1.58447.125L77.71,87.73389C79.76074,89.05029,81.45752,89.7041,81.2168,85.687Z"/><path class="cls-1" d="M74.24658,85.61963c-4.85107-2.03516-8.708-3.51855-11.8374.32813C57.354,92.16211,57.78369,102.354,55.23486,110.209l3.21387-3.21338c.69678-2.30811,1.39209-4.62207,2.228-6.88184.69824-1.88721,2.875-12.69043,4.22852-13.54346,1.00781-.63477,6.51514,1.71777,10.3833,3.58545L77.71,87.73389A26.47747,26.47747,0,0,0,74.24658,85.61963Z"/><path class="cls-1" d="M76.85205,142.22021c1.49268,3.93555,7.36475,18.623,12.22461,20.34619,4.61572,1.63672,9.06592-8.52441,10.916-11.91162,6.00879-11.002,12.062-27.56055,1.09668-37.63574-3.69922-3.39941-3.92676-1.79883-4.68311-6.13135-.25928-1.48828-1.17187-6.12256,1.13672-7.07275,1.31348-.54,8.207,5.187,9.75293,6.13428,3.74854,2.29736,3.73682,2.15088,4.00732,5.6582.33057,4.27588-.53711,9.16162-.4541,13.5415.09277,4.92969-.6709,11.70313.20947,15.38037.71,2.96191,2.38916,5.23,4.09961,7.74609.69434,1.02148,4.21045,6.8291,5.54639,6.8291,2.75537,0-3.86865-9.3667-4.53174-10.42822-4.22412-6.76465-3.26416-13.69727-2.67773-21.61523.33105-4.4707,2.14258-10.59375.70605-14.93457-2.13525-6.45215-9.84473-6.76416-13.51562-10.978a8.397,8.397,0,0,1-.55908-.71777L74.44434,122.11279C72.77295,128.72168,74.498,136.01367,76.85205,142.22021Z"/><path class="cls-1" d="M67.41553,140.21338c-.35986,1.05029-9.68018,14.89111-7.16846,14.89111,1.1543,0,4.09375-5.08936,4.60791-5.7832a44.51475,44.51475,0,0,0,4.49512-6.76465c2.13721-4.33154,1.79346-10.37793,1.17334-16.52295l-2.34229,2.3418C68.62354,132.479,68.68506,136.50732,67.41553,140.21338Z"/><path class="cls-1" d="M98.85693,53.62451c.44873-5.98682,5.5249-10.36768,7.67773-15.53369,1.521-3.64941,1.91016-8.56055,1.80029-12.44678-.09229-3.27344-2.30518-11.51758-4.6748-4.86523-1.59961,4.49023,3.06006,11.2334,1.28418,16.46338-.57031,1.6792-7.38037,14.19873-7.396,14.19971-1.18994.06934-4.49365-6.13037-5.05615-5.45605-1.915,2.459-2.208,2.34131-4.03223,0-.56348-.67529-3.86865,5.53125-5.06152,5.46094.03809.00244-7.05664-13.10352-7.39453-14.19922-1.605-5.19727,2.85547-12.03711,1.2876-16.46387C74.94629,14.16016,72.71,22.34082,72.6167,25.644c-.10986,3.89746.26807,8.7793,1.80029,12.45166,2.15576,5.16748,7.2168,9.53613,7.67383,15.52393.5625,7.36768-7.10156,19.69238,6.41016,21.3623-4.09131,3.44531-4.70312,9.98633-10.32178,6.82715-6.87256-3.86377-8.48437-13.58691-13.09277-19.36523-2.61572-3.28027-8.06738-5.77393-9.86084-8.03662-.94141-1.188-1.17187-3.03271-2.04687-4.11035-.66357-.81738-7.54395-5.21777-6.70654-1.50732-.30127-1.38086,5.91943,4.75781,6.00879,4.87012,2.65674,3.3252,6.16406,4.76416,9.18115,8.04736,4.26758,4.644,9.80225,23.57813,17.97021,24.105L100.40283,65.0415C99.98779,61.17627,98.61035,56.91406,98.85693,53.62451Z"/><path class="cls-1" d="M115.895,86.47949c1.80859.94092,5.4917,16.46436,6.31982,18.854,1.46924,4.23975,2.82129,8.38428,4.29346,11.94531,1.0249,2.49023,7.79,10.123,9.77539,10.123,2.07568,0-7.707-11.64355-8.29736-12.6333-4.9707-8.3374-4.26367-19.34131-8.9585-27.88721-1.74951-3.18457-3.48-3.771-6.09229-3.25977L106.917,89.64014C110.28613,87.93164,114.71338,85.86475,115.895,86.47949Z"/></g></g></svg>