<svg xmlns="http://www.w3.org/2000/svg" xmlns:xlink="http://www.w3.org/1999/xlink" viewBox="0 0 181 181"><defs><style>.cls-1{fill:#a71e27;}.cls-2{fill:url(#redSHdwd);}</style><radialGradient id="redSHdwd" cx="90.5" cy="90.5" r="90.5" gradientUnits="userSpaceOnUse"><stop offset="0" stop-color="#b54d41"/><stop offset="0.30696" stop-color="#b2433c"/><stop offset="0.82628" stop-color="#aa282d"/><stop offset="1" stop-color="#a71e27"/></radialGradient></defs><title>bedbugs</title><g id="Layer_2" data-name="Layer 2"><g id="Layer_11" data-name="Layer 11"><path class="cls-1" d="M95.43628,69.78906a21.17176,21.17176,0,0,1-7.33032-.17578,25.27325,25.27325,0,0,1-6.81372-2.54785c-.76172-.416-1.43188-.80615-2.123-1.1543-1.60205-.80664-4.5769-.71-5.69092,1.22217a13.39257,13.39257,0,0,0-1.623,3.73438,12.26916,12.26916,0,0,0,2.40283,10.31543c1.71582,2.26172,3.1936,3.79932,7.145,2.72559.07031-.019.13721-.05078.20654-.07471l14.0835-14.0835C95.60645,69.76025,95.52344,69.78125,95.43628,69.78906Z"/><path class="cls-1" d="M81.66162,116.61621a13.63285,13.63285,0,0,0,5.65625-1.35791A6.23829,6.23829,0,0,1,93.051,114.814a14.08975,14.08975,0,0,0,2.74316,1.269,58.63163,58.63163,0,0,0,8.0498,1.33936c3.33276.22559,6.69336.08691,10.04053.02588a35.75148,35.75148,0,0,0,3.65674-.43506c-.23755-1.793-.42358-3.47119-.69556-5.13574a20.4627,20.4627,0,0,0-.66748-2.57812c-.323-1.07178-.66382-2.14014-1.06738-3.18262a.85423.85423,0,0,0-.74976-.28467c-3.27393.71191-6.5249,1.53711-9.8125,2.17578a56.65575,56.65575,0,0,1-7.03369.94824,64.10182,64.10182,0,0,1-9.9502.03564l-7.76416,7.76416C80.42065,116.70166,81.04126,116.64648,81.66162,116.61621Z"/><path class="cls-1" d="M94.22583,108.41211a49.94057,49.94057,0,0,0,5.92334-.47021c2.49268-.33545,4.96021-.85449,7.44727-1.23779a37.877,37.877,0,0,0,6.386-1.85449c.64063-.21777,1.01758-.53271.70923-1.30713a30.63492,30.63492,0,0,1-1.04785-3.01855,12.06086,12.06086,0,0,0-2.36182-4.665c-2.00244.24658-3.78125.51807-5.57031.66211a10.595,10.595,0,0,1-2.37646-.22314c-.47144-.0708-.71338.05078-.84473.52148-.58105,2.085-2.32593,2.90527-4.13525,3.33154-.7876.18555-1.58325.32373-2.38428.43457l-7.73169,7.73145C90.22119,108.47754,92.23364,108.44043,94.22583,108.41211Z"/><path class="cls-1" d="M71.376,125.53125c2.72314-.0166,5.44824-.0166,8.16821-.12939,1.32617-.05518,2.63721-.42627,3.9646-.52051a9.18533,9.18533,0,0,0,5.76538-2.44238,3.155,3.155,0,0,1,.86328-.60547c1.21631-.51465,1.93652.37109,2.729,1.02588.45557.376.84326.94238,1.36353,1.11377a44.80176,44.80176,0,0,0,5.72437,1.6123,42.49282,42.49282,0,0,0,5.75684.5498c3.25415.15918,6.51514.18506,9.7688.35352,1.02563.05322,1.34888-.43213,1.48315-1.27588.03271-.20557.085-.40967.10181-.6167.11523-1.416.24854-2.83154.324-4.24951.043-.811-.012-1.62744-.02222-2.40527-2.2207.18164-4.27515.36865-6.33228.51074a33.95189,33.95189,0,0,1-4.25635.17188c-2.68994-.15332-5.37842-.39893-8.0542-.71729a12.86926,12.86926,0,0,1-5.81958-2.05518,3.23462,3.23462,0,0,0-3.394-.17773,14.97993,14.97993,0,0,1-6.88818,1.82275c-1.2478-.02051-2.49731.08691-3.74731.18506l-7.84888,7.84912C71.14258,125.53027,71.25928,125.53174,71.376,125.53125Z"/><path class="cls-1" d="M66.65112,130.11182c.15527.47559.38965.92578.58765,1.3877.39624.9248.77466,1.85791,1.19458,2.772a1.55766,1.55766,0,0,0,1.66626.93066c1.48022-.0918,2.96216-.15771,4.44409-.22363.64844-.0293,1.30615.02881,1.94531-.05811,1.40991-.19238,2.80444-.58691,4.21655-.65137a16.65513,16.65513,0,0,0,5.78-1.61768,21.87247,21.87247,0,0,0,2.41016-1.51562c1.77905-1.05615,2.63647-.8623,4.22192.46484a14.102,14.102,0,0,0,3.24536,1.9541,14.8279,14.8279,0,0,0,3.24756.9541c2.11865.4165,4.25.78271,6.38892,1.0752,1.73.23633,3.47925.33008,5.21948.49365a1.24534,1.24534,0,0,0,1.40405-.70557c.97559-2.104,1.96606-4.20117,2.90649-6.32129a10.90471,10.90471,0,0,0,.4519-1.73535c-3.06763-.09131-6.02026-.2627-8.97168-.24561A43.02209,43.02209,0,0,1,95.4939,125.4541a6.50447,6.50447,0,0,1-3.71875-2.13818c-.57178-.73975-1.063-.77295-1.7063-.09619a7.5766,7.5766,0,0,1-3.49,1.87109,38.48037,38.48037,0,0,1-10.01221,1.34912c-2.13574.07715-4.27734.01416-6.4165-.03369l-3.54858,3.54883C66.61841,130.00684,66.634,130.05957,66.65112,130.11182Z"/><path class="cls-1" d="M111.53806,136.772c-1.17968,1.55861-2.34091,3.13194-3.55867,4.6602a1.46207,1.46207,0,0,1-.9601.36422,28.40278,28.40278,0,0,1-7.18072-.40705A24.10849,24.10849,0,0,1,93.63,139.8839a8.70529,8.70529,0,0,1-1.78162-1.155c-1.20187-.99369-1.546-.92694-2.782-.03344a9.97669,9.97669,0,0,1-3.0794,1.52455,30.26311,30.26311,0,0,1-8.44824,1.05728c-.77149-.00662-1.54417.0617-2.31546.10946a3.27464,3.27464,0,0,1-3.04737-1.52117c-.87966-1.298-1.64-2.67693-2.46178-4.03728,2.06292-.0796,4.02466-.1062,5.97834-.2456,1.679-.11981,3.345-.41984,5.02375-.54778a20.68172,20.68172,0,0,0,6.59938-1.995,7.2846,7.2846,0,0,0,1.57821-.99c1.06962-.84168,2.05123-1.00127,3.08707-.15562a19.46168,19.46168,0,0,0,9.07048,3.72045,40.17487,40.17487,0,0,0,9.36585.8646c.31708-.01566.63666.01945.95508.031Z"/><path class="cls-1" d="M74.065,142.0674c1.88811-.01293,3.5987.0501,5.29882-.0555a29.53121,29.53121,0,0,0,6.13247-.87185,8.92371,8.92371,0,0,0,3.59978-1.58616,1.96743,1.96743,0,0,1,2.50463.08153c2.2262,1.65021,4.85905,2.028,7.45645,2.49617,1.66376.29988,3.35427.46675,5.03906.62748a21.71778,21.71778,0,0,0,2.41561-.04026,6.51375,6.51375,0,0,1-.61118,1.09554c-1.17358,1.34253-2.35925,2.676-3.59223,3.9632-.15423.161-.65128.12539-.92635.01848-2.57435-1.00061-5.12112-2.0732-7.70422-3.04995a8.8829,8.8829,0,0,0-5.517-.37649c-2.08717.556-4.174,1.12034-6.23453,1.76552a10.78212,10.78212,0,0,0-2.31237,1.1278,1.37213,1.37213,0,0,1-1.99668-.46342C76.41938,145.25918,75.27082,143.68047,74.065,142.0674Z"/><path class="cls-1" d="M86.15516,66.84042c1.37787-1.368,1.452-3.11739,1.13893-4.88264a5.74638,5.74638,0,0,0-1.00547-2.23465c-.38822-.54483-.39084-.9706.05342-1.30178a13.94355,13.94355,0,0,1,2.81336-1.79642c.77326-.32446,1.19195-.63259,1.32024-1.49848A1.60329,1.60329,0,0,1,92.08453,53.723a1.64937,1.64937,0,0,1,1.82714,1.74075c-.01752.72212.25849.95614.90586,1.14016a5.39947,5.39947,0,0,1,3.415,2.87548,6,6,0,0,0-.64894,7.64647C95.43518,69.57216,87.95229,69.47755,86.15516,66.84042Z"/><path class="cls-1" d="M77.78247,86.147a26.1425,26.1425,0,0,0-3.9043,2.47607c-1.022.73828-1.93823,1.62256-2.90137,2.44189-.4978,1.03125-.35181,1.58936.52222,2.4834.06323.06445.13159.13037.20239.19385l8.40552-8.40527A13.6388,13.6388,0,0,0,77.78247,86.147Z"/><path class="cls-1" d="M105.61743,95.78174a20.89444,20.89444,0,0,0,4.3667-.64648c2.092-.71,2.64575-1.77441,1.29834-3.68457a1.82252,1.82252,0,0,0-.19971-.29443,38.0413,38.0413,0,0,0-3.05176-2.63086l-6.4917,6.49121A9.31692,9.31692,0,0,0,105.61743,95.78174Z"/><path class="cls-1" d="M101.153,148.90362q-2.81946,2.21839-5.64,4.43542a.999.999,0,0,1-1.52153-.10984,7.90087,7.90087,0,0,0-2.20427-1.47157c-1.98878-.87159-3.69237.05279-5.17846,1.22665a1.35308,1.35308,0,0,1-1.87075.06919,22.99218,22.99218,0,0,1-5.15131-4.94182,19.55382,19.55382,0,0,1,10.56171-3.32349c4.01864-.13851,7.437,1.94663,10.89995,3.66774Z"/><path class="cls-1" d="M110.13135,89.167a1.07013,1.07013,0,0,0,1.22729.38672,29.46561,29.46561,0,0,0,9.51733-4.86865c.85913-.63818,1.59839-1.4375,2.50049-2.26172-1.65308-1.103-2.83716-2.2417-2.324-4.2749a7.1446,7.1446,0,0,0-1.11938-.19775c-.44092-.00439-.88208-.00293-1.323-.00439l-9.85156,9.85156C109.22241,88.24854,109.68555,88.69971,110.13135,89.167Z"/><path class="cls-1" d="M76.62712,84.78432c-1.39658,1.32185-2.80309,2.68048-4.25419,3.9897a1.04929,1.04929,0,0,1-.88039.02359A32.829,32.829,0,0,1,62.7186,83.891a38.79585,38.79585,0,0,1-2.80687-2.79692c1.72-.96594,3.07062-1.98565,2.52854-4.18483,1.25548-.07525,2.40755-.23668,3.55129-.19073,1.62577.06532,3.24793.26251,4.86481.45934.22612.02752.48441.33675.60764.57716.99645,1.944,1.6333,4.10392,3.3808,5.591C75.42921,83.84334,76.03885,84.311,76.62712,84.78432Z"/><path class="cls-1" d="M97.08081,99.55029a6.36906,6.36906,0,0,0,4.01514-1.88525,4.76429,4.76429,0,0,0,.75122-1.32227c-.42749-.15723-.83081-.28613-1.21948-.41406L96.9978,99.55859C97.02563,99.55664,97.05322,99.55225,97.08081,99.55029Z"/><path class="cls-1" d="M114.86419,101.92809a10.39082,10.39082,0,0,1-.55715-1.72751c-.20849-1.72454-1.27555-3.02982-2.07858-4.46562-.02869-.05127-.0939-.08983-.10469-.142-.04392-.21252-.1595-.58352-.09507-.61927,1.0453-.58-.21393-2.31846,1.45625-2.66336a23.91355,23.91355,0,0,1,8.271-.56981,11.90771,11.90771,0,0,1,3.17272,1.16224c-1.03855.92242-2.12777,1.69759-1.06533,3.27637C120.61128,97.5836,117.42029,99.07774,114.86419,101.92809Z"/><path class="cls-1" d="M70.65771,94.62646a.816.816,0,0,0,.04395-.62451c-.17017-.67676-.3811-1.34326-.57642-2.01318.14526-.13184.0835-.20215.00586-.23486A19.57723,19.57723,0,0,0,60.44287,90.582a3.00038,3.00038,0,0,0-2.302,1.292c1.30664.99268,1.43994,1.63135.63818,3.0083a25.0577,25.0577,0,0,1,7.2959,4.48633l3.99878-3.99854A9.04609,9.04609,0,0,1,70.65771,94.62646Z"/><path class="cls-1" d="M116.07969,105.81138c3.92029.00842,9.39654,2.9077,10.2086,6.15146-1.49141.26624-1.70331,1.62608-2.13078,2.70266a1.5654,1.5654,0,0,1-1.10826,1.10508,6.35032,6.35032,0,0,1-4.18431-.40116,1.21916,1.21916,0,0,1-.56959-.79473c-.14212-.72283-.11822-1.478-.25565-2.20215a21.348,21.348,0,0,0-.60466-2.22095C116.9972,108.71448,116.54048,107.2831,116.07969,105.81138Z"/><path class="cls-1" d="M124.5817,135.81164l-1.52813.69823a1.53207,1.53207,0,0,1-.69365-1.67325c.38842-1.8815.80706-3.7617,1.07366-5.662.26335-1.87715.34454-3.77938.52417-5.66887.23847-2.50842.51808-5.01313.735-7.52333a2.71038,2.71038,0,0,1,3.28384-2.32327,25.70689,25.70689,0,0,0-1.376,3.81349c-.4712,2.38037-.7839,4.79887-1.03179,7.2149-.28733,2.8003-.42046,5.61614-.64824,8.423C124.84194,134.08006,124.68022,135.04288,124.5817,135.81164Z"/><path class="cls-1" d="M132.49722,112.88063c-.82632-1.72966-1.58957-3.53257-2.52683-5.24-1.32477-2.41335-2.84865-4.71858-4.14169-7.14759a15.84444,15.84444,0,0,1-.94788-3.22953c-.09507-.34263-.16915-.691-.25744-1.03561a1.38639,1.38639,0,0,1,.86849-1.72813c3.09632,5.60676,5.81811,11.34318,8.3537,17.15335Z"/><path class="cls-1" d="M57.37955,93.19058a1.05089,1.05089,0,0,1,.67086,1.34389,20.55191,20.55191,0,0,1-3.56193,8.2984c-1.8536,2.62189-3.84413,5.16789-4.72691,8.34137a1.19969,1.19969,0,0,1-.17392.26347,11.594,11.594,0,0,1-1.033-1.3097,1.03566,1.03566,0,0,1,.04282-.80849c.37369-.84348.77642-1.67663,1.21493-2.48842q3.43955-6.36729,6.90841-12.71872A9.02008,9.02008,0,0,1,57.37955,93.19058Z"/><path class="cls-1" d="M99.67473,52.534c1.033-.5251,2.13677-1.02781,3.18292-1.63054a20.27875,20.27875,0,0,1,6.25844-2.44507c1.21752-.23763,2.81176,1.00474,2.49163,2.15465a2.61333,2.61333,0,0,1-1.51287,1.394,25.12916,25.12916,0,0,1-6.41624,1.35527,9.39035,9.39035,0,0,0-1.31466.24133C101.28975,53.8596,100.18018,54.26063,99.67473,52.534Z"/><path class="cls-1" d="M122.16968,76.2124a9.132,9.132,0,0,0,.52661,2.29883,1.71017,1.71017,0,0,0,1.69189,1.12744,45.38665,45.38665,0,0,0-.30933-7.16113l-2.082,2.082C122.0437,75.11182,122.10474,75.66357,122.16968,76.2124Z"/><path class="cls-1" d="M93.06812,156.599c-.81777.9698-1.62415,1.94958-2.45924,2.90425-.31146.35606-.76082.49085-1.05834.03446q-1.54966-2.37714-2.99912-4.81841c-.084-.14087.08018-.51537.23076-.69711a4.32568,4.32568,0,0,1,6.03708-.6756c1.16922.98171,1.215,1.14377.50651,2.43774q-.193.35249-.38522.70539Z"/><path class="cls-1" d="M84.62088,52.29693c-.30367,1.29522-1.06688,1.11962-1.895.99793a31.26263,31.26263,0,0,1-8.27559-2.06344c-.0542-.02406-.11358-.03615-.16924-.05727-1.05215-.39926-1.63166-1.0472-1.45852-1.6299.40114-1.35,1.5075-2.13383,2.68295-1.728a39.9906,39.9906,0,0,1,4.70543,1.90606C81.74858,50.48386,83.18567,51.44843,84.62088,52.29693Z"/><path class="cls-1" d="M59.10829,78.45389c-.4576-5.46084,1.2262-10.497,2.292-15.54191a7.65292,7.65292,0,0,1,1.66063-.28967,1.76383,1.76383,0,0,1,1.10237.506,1.035,1.035,0,0,1-.03008,1.53252c-1.58231,1.43247-1.90133,3.38136-2.21453,5.31385-.30776,1.89888-.46576,3.82161-.74731,5.72531A3.256,3.256,0,0,1,59.10829,78.45389Z"/><path class="cls-1" d="M115.59937,47.24219c-1.25732.60938-2.543,1.16016-3.83447,1.74561.24683.42871.37793.65625.59375,1.03125,1.666-.624,3.31665-1.18945,4.92139-1.85547l3.47705-3.47705C119.05054,45.5625,117.32593,46.40527,115.59937,47.24219Z"/><path class="cls-1" d="M101.67065,61.24219a2.08935,2.08935,0,0,0-2.81055-.89795,4.2811,4.2811,0,0,0-.97656,5.39648,2.8374,2.8374,0,0,0,.91309.90625l3.47095-3.4707A4.798,4.798,0,0,0,101.67065,61.24219Z"/><path class="cls-1" d="M83.10261,66.30336c-1.046-.4088-1.25043-1.44018-1.31628-2.54856-.082-1.38.05292-2.71265,1.30693-3.56307a2.07049,2.07049,0,0,1,1.44786-.30467,2.58059,2.58059,0,0,1,2.01642,2.97419,8.679,8.679,0,0,1-.76671,2.76186A1.86323,1.86323,0,0,1,83.10261,66.30336Z"/><path class="cls-1" d="M58.50515,40.192,72.5585,48.2404l-.54154.99173c-1.15167-.51942-2.28879-1.011-3.40774-1.541-3.08914-1.4631-6.28076-2.7418-9.00733-4.87063a6.83613,6.83613,0,0,1-1.17231-1.18924A.98325.98325,0,0,1,58.50515,40.192Z"/><path class="cls-1" d="M133.489,30.18164a9.30527,9.30527,0,0,0,.56226-1.74072l-.35083-.145a55.333,55.333,0,0,0-5.6748,9.12207l3.19678-3.19678Q132.36243,32.20557,133.489,30.18164Z"/><path class="cls-1" d="M51.39936,26.4337c3.39466,3.87385,4.84738,8.58433,7.24252,12.81975l-.91193.21188C55.74129,36.8437,51.38918,28.32776,51.39936,26.4337Z"/><path class="cls-1" d="M128.2935,141.53079q-1.75027-1.34368-3.50748-2.695a.67115.67115,0,0,1-.18139-.195c-.31027-.56485-1.107-1.05707-.582-1.78918.54985-.76673,1.19687-.11037,1.732.15319a29.23879,29.23879,0,0,1,2.94461,1.64826,3.80235,3.80235,0,0,1,.967,1.12467c.07379.11035-.04177.43233-.16574.57345C129.17384,140.72306,128.7948,141.049,128.2935,141.53079Z"/><path class="cls-1" d="M132.939,113.72053c.3235-.92632.771-1.51336,1.62687-1.68164,1.70217-.33469,3.40554-.66336,5.04036-.98129.14482.26829.20038.32184.19464.36769-.24053,1.91694-.23434,1.96671-2.18954,2.23549-1.2276.16876-2.479.17259-3.72091.22252A4.97033,4.97033,0,0,1,132.939,113.72053Z"/><path class="cls-1" d="M42.34241,109.22628a16.72222,16.72222,0,0,1,5.84311,1.35775c.39847.20738.58627.81954.87108,1.24534l-.12087.27588a10.45162,10.45162,0,0,1-1.677.01651c-1.20152-.17444-2.38907-.44294-3.586-.65207-.81792-.1429-1.39691-.45231-1.24149-1.4358A3.80608,3.80608,0,0,0,42.34241,109.22628Z"/><path class="cls-1" d="M88.625,55.53884,86.679,56.80671c-.5655-.54637-1.15147-1.07924-1.69687-1.65084-.38175-.4001-.84534-.81523-.37212-1.45528.50916-.68866,1.463-1.08542,1.98916-.60884A21.07556,21.07556,0,0,1,88.625,55.53884Z"/><path class="cls-1" d="M97.49493,56.9151,95.864,55.792a17.85839,17.85839,0,0,1,1.37666-2.21034,1.61183,1.61183,0,0,1,2.55647.59173,1.26264,1.26264,0,0,1-.3361,1.01322C98.84879,55.81408,98.1464,56.35361,97.49493,56.9151Z"/><path class="cls-1" d="M131.03317,144.773c-.25574-1.11545.07083-2.86056-1.993-3.06592.39641-1.08648.55344-1.1571,1.41693-.71036,1.50785.78016,2.79423,1.73877,2.84089,3.65049a3.8643,3.8643,0,0,1-.1186.72973Z"/><path class="cls-1" d="M62.89172,62.191c-1.6536.20476-5.00272-2.09905-5.255-3.20325l1.40984-2.26447C59.787,58.95374,60.74748,60.88251,62.89172,62.191Z"/><path class="cls-1" d="M143.82378,113.94049a3.03284,3.03284,0,0,0-3.6932-1.33972c-.23531-.83814.11961-1.285.97852-1.32359a18.53962,18.53962,0,0,1,2.74575-.01426c.75971.07945.99422.68012.44891,1.18642A1.83275,1.83275,0,0,0,143.82378,113.94049Z"/><path class="cls-1" d="M55.86756,53.96051a7.33139,7.33139,0,0,1,2.22289,3.54536c.033.18805-.12065.40888-.18785.61452a2.446,2.446,0,0,1-.48956-.29129,15.84046,15.84046,0,0,1-1.41876-1.451,9.38636,9.38636,0,0,1-1.01119-1.62085.71467.71467,0,0,1,.09922-.67957C55.27942,53.93977,55.60781,53.9894,55.86756,53.96051Z"/><path class="cls-1" d="M42.00861,110.23937c-1.13893.1585-2.03951.28963-2.942.40575a1.61275,1.61275,0,0,1-.7834.01316,1.2583,1.2583,0,0,1-.67844-.61889c-.05629-.175.20779-.60256.4219-.69088a4.64033,4.64033,0,0,1,4.158.296Z"/><path class="cls-1" d="M61.64209,76.96552a2.06191,2.06191,0,0,1-1.717,2.89418.91975.91975,0,0,1-.66618-.28c-.07585-.08057.02366-.45444.15462-.58037C60.15234,78.28892,60.92477,77.61346,61.64209,76.96552Z"/><path class="cls-1" d="M121.97019,78.004c.37094,1.26792.57662,1.507,2.42124,2.70637-.33717.20282-.61521.51705-.84889.487A2.09259,2.09259,0,0,1,121.97019,78.004Z"/><path class="cls-1" d="M131.82379,148.463a1.20263,1.20263,0,0,0,.13649-1.83981c-.14221-.18011-.40373-.33232-.42943-.52186a2.35925,2.35925,0,0,1,.17313-.80007c.24266.10414.56719.14212.71393.32378A1.9387,1.9387,0,0,1,131.82379,148.463Z"/><path class="cls-1" d="M127.47559,113.05005a2.88246,2.88246,0,0,0-2.89129,1.36832C125.06157,112.44228,126.16982,111.923,127.47559,113.05005Z"/><path class="cls-2" d="M90.5,0A90.5,90.5,0,1,0,181,90.5,90.50026,90.50026,0,0,0,90.5,0ZM25.01782,140.42578A82.34094,82.34094,0,0,1,140.42554,25.01807l-9.20312,9.20313q-1.47437,2.60669-2.95361,5.21045c-.1709.30225-.32227.61719-.5144.90527-.427.64111-.447.63818-1.28247.2041.50928-1.05078,1.02441-2.09326,1.55371-3.123l-7.26855,7.26855c.47852-.24561.96216-.481,1.436-.73486,1.2207-.65479,2.3291-1.51611,3.51025-2.249a2.40175,2.40175,0,0,1,.82813-.15479c.02588.31982.16479.68408.05835.95117a4.91977,4.91977,0,0,1-2.5354,2.51465c-2.09229,1.04639-4.20483,2.05957-6.353,2.98438-.13818.05957-.28223.10791-.42114.16553l-15.0127,15.0127a4.34369,4.34369,0,0,1-.51392,2.39014,2.08518,2.08518,0,0,1-2.957,1.08057l-3.10352,3.10352a17.68192,17.68192,0,0,0,6.15527-1.94434,16.25976,16.25976,0,0,1,4.61572-1.75342,3.44847,3.44847,0,0,1,3.50708,1.44922,11.094,11.094,0,0,1,1.89453,5.2168c.55469,3.25635-.82031,5.90869-2.43311,8.53418a7.50151,7.50151,0,0,1-3.698,3.19141,4.94964,4.94964,0,0,1-4.38867-.36523,20.46683,20.46683,0,0,0-9.41187-2.3501,20.92015,20.92015,0,0,0-8.28833,1.17334c-.698.25879-1.33887.69385-2.03613.93164l-1.50269,1.50293c.55249-.15137,1.10889-.29395,1.65625-.45264a.62509.62509,0,0,1,.51685.18359,12.52115,12.52115,0,0,0,5.77368,3.36377,5.80551,5.80551,0,0,1,1.554.85156c.70654.51709.74512,1.01855.03052,1.46777-1.323.832-2.70581,1.57227-4.08545,2.31055a8.96858,8.96858,0,0,1-2.17627.96094,34.688,34.688,0,0,1-6.35791,1.13477c-1.56323.04883-3.15479-.64453-4.72217-1.05127a1.517,1.517,0,0,1-.595-.36377l-1.62769,1.62793a23.04129,23.04129,0,0,0-2.49243,5.59082A16.22448,16.22448,0,0,0,66.075,99.36865Zm101.14526-80.7793c-.03027-.34863-.17749-.70459-.05933-.90088.64673-1.07471,1.32959-2.13184,2.07471-3.13965a.92458.92458,0,0,1,.90918-.10059,1.03992,1.03992,0,0,1,.25708.90723,2.38148,2.38148,0,0,1-.62793,1.14941C127.95264,58.26611,127.10938,58.88477,126.16309,59.64648Zm.1123,1.18115c-.81641.68359-1.66919,1.32568-2.52612,1.95947-.30444.2251-.66431.374-.98535.5791a1.13541,1.13541,0,0,1-1.47217.00928,21.74281,21.74281,0,0,0,2.387-2.28174,18.50246,18.50246,0,0,0,1.51563-2.69775,21.106,21.106,0,0,1,1.27393,1.731A.76355.76355,0,0,1,126.27539,60.82764ZM99.2981,85.53076a11.80458,11.80458,0,0,1-3.49268,1.84814c-1.68286.48877-3.386.752-4.13525,2.63525-.02637.06592-.12646.103-.29687.23389-.81787-2.52734-3.18945-2.67187-5.14746-3.45264a4.99475,4.99475,0,0,1-2.92163-2.53564,6.65165,6.65165,0,0,1,4.10107-1.731,25.84049,25.84049,0,0,1,9.44214.46777,9.17252,9.17252,0,0,1,2.27637.98682C99.90234,84.42383,100.02979,85.00244,99.2981,85.53076Zm-51.55273,58.252a2.41462,2.41462,0,0,1,.0415-2.21045,4.51045,4.51045,0,0,1,3.23242-2.28809c.24731-.04346.57251.35059.86182.543-.01855.07764-.03735.15527-.05615.2334-1.98633.30176-1.68115,1.99219-1.96338,3.00244C49.05933,143.33594,48.446,143.54443,47.74536,143.78271Zm1.437.748c-.14966.34033-.51416.58643-.66528.92627a4.36506,4.36506,0,0,0-.20239,1.063,2.07276,2.07276,0,0,1,.12036-2.57959,2.1954,2.1954,0,0,1,.76538-.28467A2.32581,2.32581,0,0,1,49.18237,144.53076Zm1.99268-6.11621c1.40723-1.50293,2.90967-2.87891,5.1355-3.05811.83594-.06738,1.12085.39014.6958,1.0874a4.5921,4.5921,0,0,1-1.18115,1.41357c-1.09082.75537-2.26855,1.38477-3.42529,2.07422C51.96313,139.39063,51.616,138.96045,51.175,138.41455Zm5.09229-4.04639c.02222-1.68359.12329-3.46777.05225-5.24463-.123-3.07812-.292-6.15771-.55859-9.22656-.1814-2.08691-.53564-4.16064-.87256-6.231a6.36941,6.36941,0,0,0-.60693-1.42676,2.72637,2.72637,0,0,1,3.14819,2.41064c.0603.7583-.10913,1.53271-.07837,2.2959.05981,1.48389.20435,2.96387.28369,4.44678.12988,2.4248.186,4.855.37061,7.27588a39.22937,39.22937,0,0,0,.63159,4.31055c.22681,1.19678.17529,1.48779-.83887,2.32275C57.28052,134.98584,56.81543,134.70215,56.26733,134.36816ZM54.68945,111.376a3.98135,3.98135,0,0,1,1.38647-.20166c.88965.20752,1.14307.99658,1.30811,1.67334C56.5647,112.3999,55.70386,111.92969,54.68945,111.376Zm3.78833,2.94824c-.23291-.07617-.43652-.43115-.53149-.70068-.18628-.52783-.21606-1.11768-.43921-1.62549a1.79337,1.79337,0,0,0-1.88525-1.30859c1.56494-3.57568,6.2002-5.80029,10.83813-6.03174-.4856,1.22266-1.02832,2.39941-1.42065,3.624-.53271,1.66162-.99951,3.34863-1.38965,5.04883a1.17847,1.17847,0,0,1-.87842,1.04541A6.96356,6.96356,0,0,1,58.47778,114.32422ZM46.4436,144.37988c-.08032-.042-.16064-.08447-.241-.12646l.87817-1.60791C47.66772,143.74365,46.71606,143.876,46.4436,144.37988ZM90.5,172.855a81.97519,81.97519,0,0,1-49.92578-16.873l26.02734-26.02734c-.39819-1.22852-.76929-2.46826-1.17334-3.77588,1.54419.084,2.78662.1875,4.03027.21191q.3457.00732.69141.01563l.87549-.87549c-1.81274.00781-3.62622-.00586-5.43774-.06494a1.03548,1.03548,0,0,1-.79565-.55029,21.62355,21.62355,0,0,1-.24243-8.05566c1.76025.23047,3.44653.51807,5.145.65625,2.15088.1748,4.31226.31982,6.46826.30811.90381-.00488,1.80762-.07178,2.71143-.14258l.92578-.92578a26.03766,26.03766,0,0,1-2.84912.13965c-3.93726-.0918-7.89771.0415-11.77612-.87012-.22681-.05371-.44873-.12891-.76733-.22119.57471-3.80273.89844-7.62744,2.85205-10.92529,4.13135,1.05566,8.13428,2.16309,12.1814,3.07617,2.01538.45459,4.11523.52637,6.17017.81787.65063.09229,1.30176.16064,1.95313.21875l.6748-.6748c-.48828-.03955-.97656-.08105-1.46045-.14941-4.103-.58008-8.27222-.87646-12.24561-2.2041-1.94092-.64844-3.90234-1.24365-5.81494-1.96777-1.17554-.44482-1.13306-.53125-.80225-1.74023a21.50744,21.50744,0,0,1,3.69458-7.50488c2.66968,1.395,5.46265,1.13281,8.303,1.17773.24341,1.95215,1.7998,2.79736,3.48608,3.60254,2.675,1.27783,5.51587,1.02881,8.34277,1.22705a20.35149,20.35149,0,0,0,4.22876-.17236l1.02661-1.02686c-1.68433.106-3.364.52441-5.03882.48877a24.84488,24.84488,0,0,1-8.25122-1.17529,4.64415,4.64415,0,0,1-3.07324-3.05518c2.82007-.37061,5.04224-1.8584,7.40039-3.01123a22.47068,22.47068,0,0,0,2.53394-1.55957,1.37719,1.37719,0,0,1,1.697.05078c2.22534,1.37549,4.47607,2.71387,6.7627,3.98486a9.18315,9.18315,0,0,0,1.59912.647l.91211-.91211c-.25513-.08691-.51-.17334-.76514-.25391a23.82681,23.82681,0,0,1-7.44019-4.00244c-.18457-.14307-.34155-.32178-.61353-.58105a5.05029,5.05029,0,0,1,3.12012-1.89893,8.35223,8.35223,0,0,0,4.49878-2.4209,1.56779,1.56779,0,0,1,1.71973-.42627,17.5674,17.5674,0,0,1,5.97168,3.09229l.72754-.72754c-.66064-.64258-1.32764-1.27881-1.98828-1.92139-.166-.16113-.321-.33447-.49146-.5127a11.63084,11.63084,0,0,0,5.38306-6.52295,1.14927,1.14927,0,0,1,1.26953-.93066c1.89258.03613,3.78564.0293,5.67871.03613l3.38672-3.38672a18.66273,18.66273,0,0,1-.07617-1.96631,13.28346,13.28346,0,0,0-1.10352-5.00293,5.82644,5.82644,0,0,0-.91016-1.57861c-.56543-.69873-.66675-1.44238-.02783-1.96094a1.557,1.557,0,0,1,1.08179-.18457,8.37879,8.37879,0,0,1,1.45239.48486,51.10149,51.10149,0,0,1,1.66553,8.12646l31.90308-31.90332A82.34094,82.34094,0,0,1,90.5,172.855Z"/></g></g></svg>