<svg xmlns="http://www.w3.org/2000/svg" xmlns:xlink="http://www.w3.org/1999/xlink" viewBox="0 0 181 181"><defs><style>.cls-1{fill:url(#redSHdwd);}.cls-2{fill:#a71e27;}</style><radialGradient id="redSHdwd" cx="90.5" cy="90.5" r="90.5" gradientUnits="userSpaceOnUse"><stop offset="0" stop-color="#b54d41"/><stop offset="0.30696" stop-color="#b2433c"/><stop offset="0.82628" stop-color="#aa282d"/><stop offset="1" stop-color="#a71e27"/></radialGradient></defs><title>caterpillars</title><g id="Layer_2" data-name="Layer 2"><g id="background"><path class="cls-1" d="M90.5,0A90.5,90.5,0,1,0,181,90.5,90.50006,90.50006,0,0,0,90.5,0Zm0,172.855a81.97625,81.97625,0,0,1-49.92578-16.87292L80.1936,116.36273a3.243,3.243,0,0,1-.96875-.76373,15.51324,15.51324,0,0,1-2.56348-4.97913c-.53125-1.46417-1.03174-2.92578-2.71973-3.51611a.8466.8466,0,0,1-.08789-.04742,1.57948,1.57948,0,0,1-.65356-.71625.91477.91477,0,0,0-1.18237-.54944c-.91895.19629-1.84424.37061-2.749.61908a6.44315,6.44315,0,0,0-1.7168.68115c-1.61475,1.01471-5.4187.33234-6.04053-2.08325a6.00147,6.00147,0,0,1-.156-.91956L25.01782,140.42566A82.341,82.341,0,0,1,140.42554,25.01794L86.25659,79.18683c.71143.55157,1.60059.95837,2.36572,1.467.12378.08228.23218.18719.34766.28149-.61182-.44312-1.00293-.21143-1.42139.34778a47.64215,47.64215,0,0,1-8.31006,8.999,10.93274,10.93274,0,0,1-5.27979,2.45624,5.717,5.717,0,0,0-1.82178.56824l-1.58447,1.58453a4.00845,4.00845,0,0,0-.27344.68182,3.7295,3.7295,0,0,0-.093,1.61115c.178,1.0733.905,1.52515,2.125,1.19794a21.94624,21.94624,0,0,0,4.45386-1.50946,29.39327,29.39327,0,0,0,12.7749-12.03656c.15894-.29242.28589-.6059.47217-.87921a1.46018,1.46018,0,0,0-.13135-2.10168c.63232.64771,1.2478,1.31354,1.90625,1.93372a2.323,2.323,0,0,0,.88208.49817c.90894.28094,1.83374.51074,2.44434.677-.1521.30347-.28882.63934-.47778.94293-.19873.31915-.395.64032-.59277.96021v.00012C92.39331,89.5365,90.76929,92.223,89.02808,94.831a16.81283,16.81283,0,0,1-5.36768,5.33868,16.09869,16.09869,0,0,0-3.71411,3.28162c-.94971,1.08154-.49854,2.09174.915,2.39081a7.72385,7.72385,0,0,0,7.45654-2.36975,40.204,40.204,0,0,0,4.73145-6.31213c2.02319-3.20746,3.82227-6.55634,5.7854-9.96381,1.41479,1.82892,3.1189,3.27875,5.79565,2.87689-.34033.9845-.635,1.90332-.93262,2.78522l52.28418-52.28424A82.3409,82.3409,0,0,1,90.5,172.855Z"/><path class="cls-2" d="M84.08789,116.05481c.60913-.43048,1.29565-.75189,1.90259-1.18463a23.08274,23.08274,0,0,0,2.2749-1.79395c.458-.42273.72363-.41168,1.09717.06073a2.7009,2.7009,0,0,0,.93115.83545c1.30225.5661,1.64331,1.697,2.05371,2.91418a12.74483,12.74483,0,0,0,1.82007,3.70966c2.054,2.66125,5.34424,2.41858,7.24829-.35345a35.44415,35.44415,0,0,1,2.24243-2.84418.7697.7697,0,0,1,.73853-.12347,9.24968,9.24968,0,0,1,1.42236,1.45679,25.119,25.119,0,0,1,2.543,4.98834,4.16391,4.16391,0,0,0,4.8208,2.52856,3.20377,3.20377,0,0,0,2.4729-2.04541,6.438,6.438,0,0,1,.71729-1.004c.69067-.90472,1.38721-1.80487,2.11523-2.75079,1.42822.48926,2.93945,1.0152,4.45728,1.52112a3.34484,3.34484,0,0,0,1.14551.25543,12.26287,12.26287,0,0,1,5.18945,1.20221,2.89439,2.89439,0,0,0,.97852.18463c.99023.0329,2.05225-.09937,2.22412,1.32086.01343.111.19727.24048.3291.292,1.13306.44348,1.15894,1.37183,1.17236,2.39111a2.25686,2.25686,0,0,0,.54248,1.46954c1.82886,1.77338,4.85547,2.90167,7.282.48792.89795-.89337,2.0481-1.56824,2.01489-3.07147-.00269-.11115.33984-.29266.54443-.336a3.14841,3.14841,0,0,0,2.71362-2.7774,8.92023,8.92023,0,0,0-.57544-4.81262c-.18286-.5249-.32617-1.06354-.47607-1.55829-2.17725,1.45776-4.25684,2.85834-6.34766,4.24194a3.968,3.968,0,0,1-1.05762.51556,1.25443,1.25443,0,0,1-1.48267-.6134c-.36938-.57587.1543-.82.4751-1.1001q3.15417-2.75381,6.33374-5.47784a6.87474,6.87474,0,0,1,1.16577-.6358c-.08862-.15662-.25659-.46191-.43213-.76294-.69922-1.201-1.38647-2.40948-2.11035-3.59558a7.94891,7.94891,0,0,0-.80713-.95819,1.19,1.19,0,0,1-.07666,1.50592c-1.15552,1.77637-2.17969,3.65277-3.47534,5.31885a34.23055,34.23055,0,0,1-4.16626,4.39844,2.00262,2.00262,0,0,1-3.05859-.26965c-.62451-.77679-.47095-1.578.5564-2.6275.71973-.73553,1.56616-1.3631,2.20264-2.16113,1.88843-2.36761,3.70093-4.79578,5.54272-7.20062.21143-.27625.42017-.55432.73193-.966.54053.63116.98608,1.15167,1.43188,1.67194a6.72259,6.72259,0,0,0-4.13232-3.706,1.197,1.197,0,0,1-.57178-.54773,5.2505,5.2505,0,0,0-3.81055-2.53412c.05273.3764.2605.8233.1377,1.14313-1.6377,4.26776-3.29248,8.52985-5.0144,12.76416a3.93467,3.93467,0,0,1-2.38623,2.58521,3.51224,3.51224,0,0,1-3.21069-.40686,1.92633,1.92633,0,0,1-.76562-2.62415c1.12085-2.11072,2.40576-4.13391,3.54956-6.23315,1.38794-2.54785,2.69409-5.14026,4.052-7.70465a8.216,8.216,0,0,1,.71533-.96844,11.41516,11.41516,0,0,0-4.95361-.87183,2.05963,2.05963,0,0,1-1.90039-.86322,9.33085,9.33085,0,0,0-2.34131-1.61481,4.72311,4.72311,0,0,1-.01758,1.37524c-1.55737,4.5542-3.06665,9.12793-4.77075,13.62744a6.30583,6.30583,0,0,1-6.21362,3.61139c-1.47266-.11523-2.271-1.18762-1.6272-2.52362a14.49971,14.49971,0,0,1,2.584-4.00562,10.80966,10.80966,0,0,0,2.65674-4.57886c.85181-2.71136,1.53687-5.47516,2.29663-8.2157.08643-.31207.19971-.61713.33228-1.02209-.95825,0-1.86108.06769-2.7478-.02295a4.11428,4.11428,0,0,1-1.81738-.553c-1.125-.75079-2.15527-1.644-3.37793-2.42706,1.19629.76843.60205,1.62616.23633,2.43268-1.81079,3.99561-3.54248,8.03137-5.49414,11.9577-1.48877,2.99487-4.20825,4.44714-7.43823,4.90338-1.45117.205-2.08521-.48047-1.99634-1.96173a5.10255,5.10255,0,0,1,2.41138-4.1062c3.84155-2.37579,5.43628-6.22705,7.03223-10.10071.30054-.72913.56372-1.476.8252-2.25085L80.1936,116.36273A3.854,3.854,0,0,0,84.08789,116.05481Z"/><path class="cls-2" d="M72.137,93.30664,86.25659,79.18683a3.99726,3.99726,0,0,1-.655-.625,11.41934,11.41934,0,0,1-1.30347-3.26447c-1.604,1.79944-2.99609,3.55841-4.59375,5.10516a81.41009,81.41009,0,0,1-6.2832,5.509,13.98372,13.98372,0,0,1-7.66284,2.54883c-.67651.06036-1.50513.063-1.83618-.69556a1.81211,1.81211,0,0,1,.58325-2.06171,14.8571,14.8571,0,0,1,6.36011-3.55078,7.18978,7.18978,0,0,0,2.17871-1.03595,49.39245,49.39245,0,0,0,7.84351-7.95111c.29907-.348.65308-.64868,1.12769-1.11511A9.13721,9.13721,0,0,0,79.925,70.616a1.91957,1.91957,0,0,1-1.41846-2.012,6.83524,6.83524,0,0,0-.14673-.84143c-2.78979,1.26947-5.53979,2.47192-8.24609,3.76563a19.6365,19.6365,0,0,0-6.97485,6.12793c-.60937.79523-1.2041,1.6059-1.87183,2.35046-.55371.6178-1.1145,1.38727-2.12622,1.08069A3.15,3.15,0,0,1,56.946,78.84814a2.87879,2.87879,0,0,1,.616-2.81958,15.14191,15.14191,0,0,1,2.4751-2.25006c4.71118-3.312,9.45972-6.57129,14.19629-9.84753.42163-.29181.84985-.57416,1.47827-.998-.833-.56177-1.582-1.03625-2.293-1.56232-.25732-.19043-.58105-.489-.60645-.76306a4.53091,4.53091,0,0,0-2.79175-3.65674c-.28809-.1535-.55981-.33716-.83423-.504q-6.73718,7.678-13.55371,15.4425c-.19971.22742-.394.52338-.65332.62036a2.19934,2.19934,0,0,1-1.38086.23846,1.05531,1.05531,0,0,1-.47656-1.48627A17.264,17.264,0,0,1,54.613,68.58118c3.53247-4.78455,7.11035-9.53558,10.67725-14.29437.198-.264.437-.49707.77466-.87653a8.11933,8.11933,0,0,0-2.22363-.9884c-1.49487-.1662-2.71143-.979-4.06958-1.446a5.19056,5.19056,0,0,0-3.24292-.2417c-.37891,1.05878-.65576,1.99927-1.04541,2.8905-1.28491,2.93884-2.6106,5.86-3.92187,8.78723a1.10939,1.10939,0,0,1-.21265.39789c-.43555.37158-.94629,1.05695-1.32812.99561a2.64513,2.64513,0,0,1-1.58667-1.12427,3.60891,3.60891,0,0,1-.04224-3.32214c1.11035-3.03339,2.197-6.07556,3.293-9.11432l-.25293-.2005a2.878,2.878,0,0,0-.73364.51031c-.92041,1.226-2.24292,1.44165-3.64038,1.62927a11.69157,11.69157,0,0,1-4.4104-.25659,4.5583,4.5583,0,0,0-2.18677.16357c.36548.03864.73071.07715,1.19189.12585-.18872.80774-.37842,1.53-.52441,2.26111a9.28084,9.28084,0,0,0,.13452,5.29266,11.33047,11.33047,0,0,0,1.36938,2.09583c.41895.61285,1.05957,1.15619.60229,2.02545a1.21888,1.21888,0,0,1-1.97876.43658,6.97126,6.97126,0,0,1-2.47876-4.50958c-.2395-1.27814-.44043-2.565-.61206-3.85413-.12793-.96173-.50146-1.95667.0625-2.99884a4.5512,4.5512,0,0,0-.87231.94446c-.96338,1.94183-2.00317,3.861-2.76709,5.88214a9.24314,9.24314,0,0,0-.25171,6.84955c.19775.50128.12988,1.13312.39722,1.5766.77368,1.2832,1.45239,2.709,2.83569,3.44818a10.29265,10.29265,0,0,0,2.43872.58435c-.51514.74738-.93823,1.32385-1.31519,1.92889a2.71092,2.71092,0,0,0-.207.73065,3.43256,3.43256,0,0,0,.75562.06317A8.54732,8.54732,0,0,0,44.657,72.22668c.65015.45416.85718.94916.36621,1.55115-.87915,1.0777-1.81348,2.111-2.675,3.20233a7.002,7.002,0,0,0-.65308,1.30157,5.12992,5.12992,0,0,0,1.39893.07672c1.86914-.41742,3.70361-.9408,4.88818-2.65881.5127,1.58081.08228,2.58325-1.49756,3.47107-.47461.26678-.99561.454-1.46.73578a2.59071,2.59071,0,0,0-.85986.75781,1.41014,1.41014,0,0,0-.26025,1.06769c.09692.22229.64453.31494,1.00244.34552a7.81008,7.81008,0,0,0,4.15259-.75433c1.26416-.61127,2.408.0647,3.5271.572.13306.0603.16357.42633.179.65491a4.22022,4.22022,0,0,0,3.10083,3.929c.72.22058,1.65991.34406,2.03955.85443.29541.397-.074,1.336-.2334,2.014a5.50512,5.50512,0,0,0,.136,3.6557c.68335,1.50452,2.332,2.21893,4.50757,1.99915,1.13574-.11469,1.57739.31439,1.2207,1.42737-.459,1.43243-1.11719,2.79962-1.64258,4.21234a7.68223,7.68223,0,0,0-.53882,3.446l9.197-9.1969A3.61094,3.61094,0,0,1,72.137,93.30664Z"/></g></g></svg>