<svg xmlns="http://www.w3.org/2000/svg" xmlns:xlink="http://www.w3.org/1999/xlink" viewBox="0 0 181 181"><defs><style>.cls-1{fill:#a71e27;}.cls-2{fill:url(#redSHdwd);}.cls-3{fill:url(#redSHdwd-2);}.cls-4{fill:url(#redSHdwd-3);}</style><radialGradient id="redSHdwd" cx="69.73718" cy="95.94385" r="1.24293" gradientUnits="userSpaceOnUse"><stop offset="0" stop-color="#b54d41"/><stop offset="0.30696" stop-color="#b2433c"/><stop offset="0.82628" stop-color="#aa282d"/><stop offset="1" stop-color="#a71e27"/></radialGradient><radialGradient id="redSHdwd-2" cx="90.5" cy="90.5" r="90.5" xlink:href="#redSHdwd"/><radialGradient id="redSHdwd-3" cx="112.10117" cy="83.80946" r="3.54445" xlink:href="#redSHdwd"/></defs><title>coackroaches</title><g id="Layer_2" data-name="Layer 2"><g id="background"><path class="cls-1" d="M121.31567,84.627c3.96533,2.67236,8.3252,3.17334,12.958,2.86523,2.91895-.19385,5.863-.00293,8.7959.01416.57764.00342,1.15527.00049,1.73267.00049q.03406-.293.06787-.58643a9.03026,9.03026,0,0,0-2.06592-.50781c-4.47046-.03125-8.94165.02686-13.4126.00635a5.11649,5.11649,0,0,1-2.42676-.39795q-5.18079-2.989-10.23608-6.19336l-1.2334,1.2334C117.42944,82.25977,119.43066,83.35645,121.31567,84.627Z"/><path class="cls-1" d="M108.80737,56.63623a20.807,20.807,0,0,1,6.26123-6.4043,11.21944,11.21944,0,0,0,1.23975-1.10107q-.175-.20288-.35059-.40625a11.42313,11.42313,0,0,0-4.94946,3.58887c-2.27124,2.50732-3.7937,5.63281-6.605,7.72168a20.2386,20.2386,0,0,0-2.84888,3.29395c-1.844-2.54395-5.272-3.5957-5.6499-7.14355-.06763-.63477-.34082-1.37451-.1189-1.895a74.14893,74.14893,0,0,1,9.84692-17.26611c4.05713-5.11426,8.81885-9.34229,15.46436-10.62158a60.61814,60.61814,0,0,1,7.80615-.51758,19.70505,19.70505,0,0,0-15.061,2.46729c-5.40576,3.25684-9.29883,7.99365-12.49072,13.29395-2.52588,4.19434-4.71924,8.58936-6.88794,12.5791H86.34766c-.166-.35547-.43945-1.07031-.81641-1.72607-2.92407-5.08691-5.63843-10.314-8.87427-15.19531A28.06052,28.06052,0,0,0,64.89941,27.13086c-4.20044-1.92578-9.43042-2.3457-12.335-1.15576,1.33984,0,2.93433-.08447,4.51733.01416,7.12988.44385,12.449,4.231,16.95605,9.39648,4.88525,5.59912,8.27466,12.10938,11.24292,18.85986.31836.72412-.92163,4.7251-1.59253,5.28174-1.41553,1.17432-2.8252,2.35547-4.34351,3.62207-2.30347-2.59521-4.63989-5.29395-7.05151-7.92334-1.80225-1.96484-3.67041-3.87256-5.5813-5.73145a7.16784,7.16784,0,0,0-2.01636-.88281c.187.56738.19775.7876.313.90869a3.12033,3.12033,0,0,0,.74658.58594A16.62709,16.62709,0,0,1,72.3689,56.897a29.7304,29.7304,0,0,0,5.32178,7.32178c.272.26514.55444.88281.42847,1.1377A11.30329,11.30329,0,0,0,77.07837,73.166a.86728.86728,0,0,1-.09863.55322c-1.10156,2.04785-2.2168,4.08887-3.34473,6.16162a10.68308,10.68308,0,0,0-2.5249-1.40479,5.49381,5.49381,0,0,0-3.366-.10156c-4.27515,2.12061-8.5249,4.332-12.57178,6.85107a6.80715,6.80715,0,0,1-4.00415,1.29688c-3.00244-.10205-6.00732-.16553-9.00659-.3252-2.73706-.14648-4.82642.17285-6.03174,1.15186a6.47659,6.47659,0,0,0,1.15015.21582c3.70093-.02344,7.40283-.03076,11.10254-.1167,4.28931-.09912,8.5271-.39648,12.08862-3.28223a26.21614,26.21614,0,0,1,3.104-1.89893c4.3-2.57959,4.30029-2.57861,8.22754.56445.09937.07959.26465.11914.30811.21777.16357.36963.45728.78174.40381,1.13232-.52686,3.44824-1.0896,6.90674-1.65894,10.40625Z"/><path class="cls-1" d="M64.52344,99.3335c-.13647.667-.27588,1.3335-.41406,2.00049l4.50928-4.50928C66.44434,96.2251,64.98291,97.08447,64.52344,99.3335Z"/><path class="cls-1" d="M84.35864,156.26465c4.22192,4.58447,8.14746,4.55566,12.34448-.0127a5.63282,5.63282,0,0,0,.75171-.87012c1.65552-2.79492,3.60986-5.46582,4.87646-8.42969,5.78564-13.53613,7.89453-27.832,8.1001-42.44141.02954-2.08984.71924-3.06689,2.52515-3.78955,1.57886-.63232,2.27783-.19922,2.50366,1.37793.90454,6.3208,1.67847,12.66455,2.77441,18.95215.57324,3.28955-.0271,6.85156,2.48267,9.76416,4.6665,5.4165,9.13354,11.00439,13.7146,16.49512a9.55829,9.55829,0,0,0,1.77124,1.25293c-.05957-.63281-.011-.86328-.10425-.98-.43921-.54687-.92334-1.05713-1.38037-1.59033q-6.36218-7.41943-12.70215-14.85742a3.296,3.296,0,0,1-.74048-1.68457c-.38062-3.73047-.46289-7.50391-1.06177-11.19531-1.001-6.17187-2.35669-12.28516-3.478-18.439-.4436-2.43457-2.04736-3.61279-4.41675-2.98633-.58569.15479-1.17676.28809-1.834.44775-.42114-3.27832-.36108-6.52295-1.3313-9.42334-.04224-.12549-.05957-.23535-.0957-.35693L72.29956,124.25684a99.782,99.782,0,0,0,5.48706,20.61133A35.27511,35.27511,0,0,0,84.35864,156.26465Z"/><path class="cls-2" d="M68.61865,96.82471c.1001.02783.19312.041.29614.0752.47363.15527.9646.2583,1.501.3999.14795-.91357.29272-1.80713.43994-2.71191Z"/><path class="cls-3" d="M90.5,0A90.5,90.5,0,1,0,181,90.5,90.50026,90.50026,0,0,0,90.5,0Zm0,172.855a81.97519,81.97519,0,0,1-49.92578-16.873l31.72534-31.7251q-.60937-3.81372-.98535-7.67773c-.39429-4.06836-.63574-8.16016-.71362-12.24609-.03345-1.748-.36084-2.92725-2.1731-3.396a18.23439,18.23439,0,0,1-2.16382-.91846c-.35742,1.69678-.75439,3.19238-.97949,4.71338-1.10327,7.45605-2.19849,14.91309-3.20435,22.38232a7.56672,7.56672,0,0,1-1.93555,3.99121c-4.60742,5.47119-9.16455,10.98535-13.76538,16.46191a5.35327,5.35327,0,0,1-1.26172.83594q-.20215-.21533-.40454-.43066c.44019-.55127.86011-1.12012,1.32373-1.65088,3.95166-4.52539,7.93066-9.02686,11.85718-13.57373a7.23392,7.23392,0,0,0,1.84106-4.93994,72.70161,72.70161,0,0,1,1.36255-11.39551c.89771-5.04492,1.97241-10.05859,3.01221-15.07861l-39.09155,39.0918A82.34094,82.34094,0,0,1,140.42554,25.01807L108.80737,56.63623a24.16647,24.16647,0,0,0-1.75073,3.32568c-.6416,1.49219-2.16626,2.63184-3.37939,3.84082-.801.79785-.71118,1.46191-.43848,2.51465a45.75082,45.75082,0,0,1,.81689,5.95508,5.35518,5.35518,0,0,0,.1687,1.645c.988,1.98779,2.07568,3.92578,3.14893,5.92334a1.33365,1.33365,0,0,0,.46045-.17969c2.999-2.6792,5.89233-1.73926,8.85205.14014.01416.00879.02881.01709.043.02637l39.25317-39.25342A82.34094,82.34094,0,0,1,90.5,172.855Z"/><path class="cls-4" d="M114.62085,80.5166a2.113,2.113,0,0,0-2.58154.10352c-2.82666,1.62646-3.97363,3.54248-2.981,6.87793l6.437-6.437C115.20337,80.87988,114.90869,80.70361,114.62085,80.5166Z"/></g></g></svg>