<svg xmlns="http://www.w3.org/2000/svg" xmlns:xlink="http://www.w3.org/1999/xlink" viewBox="0 0 181 181"><defs><style>.cls-1{fill:#a71e27;}.cls-2{fill:url(#redSHdwd);}</style><radialGradient id="redSHdwd" cx="90.5" cy="90.5" r="90.5" gradientUnits="userSpaceOnUse"><stop offset="0" stop-color="#b54d41"/><stop offset="0.30696" stop-color="#b2433c"/><stop offset="0.82628" stop-color="#aa282d"/><stop offset="1" stop-color="#a71e27"/></radialGradient></defs><title>darkling betles</title><g id="Layer_2" data-name="Layer 2"><g id="background"><path class="cls-1" d="M110.62842,61.14209c1.69385-.094,5.64648.37646,8.09326.09424,2.44678-.28247,1.41162-1.41162,2.25854-1.8822s.47046-4.61121,1.22339-6.11707c.75269-1.50562.75269-3.8584.94116-5.74048.15161-1.51807-.35986-3.69141-.32031-4.87744L109.91479,55.52856C109.9519,58.24377,109.50439,61.20459,110.62842,61.14209Z"/><path class="cls-1" d="M111.946,83.72791a5.6571,5.6571,0,0,0-.14233,1.02454l2.03052-2.03027c-.22192-.00745-.44385-.01648-.665-.02954C109.96973,82.50452,112.22827,83.16333,111.946,83.72791Z"/><path class="cls-1" d="M69.99536,111.58362s-2.35254-.56458-2.729,0-1.78809,1.3175-1.97632,1.788a2.35784,2.35784,0,0,1-1.88208,1.03528c-.75293,0-1.22363.75281-1.31763,3.10559-.094,2.35254.94116,10.4458,2.54077,12.70435.25537.3606.49463.68164.72363.98462l6.48169-6.48169C69.64331,112.554,69.99536,111.58362,69.99536,111.58362Z"/><path class="cls-2" d="M90.5,0A90.5,90.5,0,1,0,181,90.5,90.5,90.5,0,0,0,90.5,0Zm0,172.855a81.976,81.976,0,0,1-49.92578-16.873l19.61133-19.61133c.32666-.884,1.75806-1.63721,1.34009-2.3894-.47046-.84692-3.76416.84692-2.44678-.47058,1.31763-1.3175,2.35278-3.8584,1.50586-5.83459-.84717-1.97632-2.07031-5.64648-1.69409-8.09326.37646-2.44678-.37622-5.1759.94116-5.64648s.94092-.21948,1.59985-2.60352c.65869-2.38416-.28247-1.81958.65869-2.38416s.65869-2.16443,1.59985-2.35266c.94092-.18823,2.07031-.18823,1.69385-.84692s.37646-2.25854,2.44678-3.29382,2.16455-.28235,2.16455-2.07031c0-.57727-.06885-2.462-.17139-4.76538l-4.13135,4.13135a.39582.39582,0,0,1-.02612.25757c-.27222.43518-.57739.73352-.93042.69885L52.66577,112.77783a.88732.88732,0,0,1-.02759.12329c-.20874.489-.44946,1.25635-.99927.90356L25.01782,140.42554A82.341,82.341,0,0,1,140.42554,25.01782l-5.93677,5.93689c.30249,1.05957-.40527,1.35559-1.33325,1.33337l-9.77295,9.77271a11.10111,11.10111,0,0,0,2.02075,3.27136c1.69385,1.59973.94092-.28235,1.12915-1.41162s1.97632-.09412,2.35278-.65881,1.59985-1.31738,1.97632-2.54077c.37622-1.22339,1.50562,0,2.54077-1.22339s6.21118-2.72925,7.81079-3.48206c1.59985-.75281-.37646,1.22339-.65869,2.82324s.84717.65881,2.25854,1.77429c1.41162,1.11572-1.69385.10791-4.98755.01367-3.29395-.094-1.97632.28247-2.35278,1.59985s-1.97632,1.12939-1.99976,2.16455-1.57617.18823-1.95264.56458a18.491,18.491,0,0,0-2.35278,2.35266c-.37646.65881-.94116.47058-1.12915,1.03516-.18823.5647-1.31763,7.24634-1.69409,8.752-.37622,1.50586-8.28149,8.75208-9.8811,10.35181-1.59985,1.59985-7.24634,1.78809-7.24634,1.78809a9.34679,9.34679,0,0,0-.094,3.19971c.188,2.35266.84692,1.41162,3.57593,2.16443,1.43164.3949,3.50952,2.03406,5.46167,3.79651l37.82153-37.82178A82.34094,82.34094,0,0,1,90.5,172.855Z"/><path class="cls-1" d="M72.06567,125.98206c2.44678,13.36316,18.35107,15.43359,18.35107,15.43359h.16675s15.90405-2.07043,18.35083-15.43359,2.07056-14.39844,2.07056-14.39844,2.35254-.56458,2.729,0,1.78809,1.3175,1.97632,1.788a2.35784,2.35784,0,0,0,1.88208,1.03528c.75293,0,1.22339.75281,1.31763,3.10559.094,2.35254-.94116,10.4458-2.541,12.70435s-2.82324,3.38794-1.88208,3.38794,3.01147-1.03516,2.729.47046c-.28223,1.50586-.18823,2.91748.4707,3.67017.65869.75293.57642,2.4469,1.22925,3.10571s.18213,3.48193,1.31152,3.57593c1.12939.09424,1.78809,2.91736,1.97632,3.38794s1.22339.37646.84692,1.88208-.49512,2.72913.08179,2.72913,1.1416-1.788,1.32983-2.07031,1.03516-1.12927,1.50586-.847c.47046.28247,1.88208,1.78809,2.35254,1.12939s-3.19971-4.79956-4.4231-5.7406-1.22339-1.22339-.84692-2.07043-.47046-.28223-.5647-1.59973c-.094-1.3175.75293-1.694-.65869-2.44678s-.94116-1.03528-.94116-2.07043-1.88208-1.88208-1.41162-2.729c.4707-.84692,3.7644.84692,2.44678-.47058-1.31738-1.3175-2.35254-3.8584-1.50562-5.83459s2.07031-5.64648,1.69409-8.09326c-.37646-2.44678.37622-5.1759-.94116-5.64648-1.31763-.47046-.94116-.21948-1.59985-2.60352s.28223-1.81958-.65869-2.38416c-.94116-.56458-.65869-2.16443-1.59985-2.35266s-2.07056-.18823-1.69409-.84692-.37646-2.25854-2.44678-3.29382-2.16431-.28235-2.16431-2.07031c0-1.531.48267-12.23083.79883-15.63245L71.83643,124.71973C71.90991,125.12817,71.98633,125.548,72.06567,125.98206Z"/><path class="cls-1" d="M119.5686,85.7041c-.18823,3.38794.28223,7.43457-.37646,8.56372-.65869,1.12939-4.32886,4.98779-3.8584,5.7406.4707.75281,1.03516,1.12927,1.78809,0s1.88208-1.41162,2.25854-.941-1.22339,1.3175.65869,2.07031.18823,2.44678,1.50586,2.82324c1.31738.37646,1.69385,1.59985,2.07031,1.88208.37646.28247.5647.75293,1.31738,1.22339.75293.4707,3.18848.28247,3.42944,1.8822.24072,1.59985-.241,3.38782,0,3.95251.24072.5647.52319,1.50574,1.27588.65869.75293-.84692.28247-1.69385,1.78809-1.69385,1.50586,0,2.82324.941,1.50586-.47046-1.31763-1.41162.094-2.541-2.16455-3.19971s-2.729-3.2937-3.2937-4.04663-.75293-.47046-1.88208-1.694c-1.12939-1.22339-2.72925-2.16443-2.16455-3.67017a5.20247,5.20247,0,0,0,.094-3.95251c-.47046-1.69385,1.12939-10.135-.94092-12.17261-.98437-.96875-2.65063-2.66675-4.41968-4.26392l-4.32617,4.32617C116.82007,82.82141,119.7439,82.55054,119.5686,85.7041Z"/><path class="cls-1" d="M59.1731,138.78064c-1.41162.75281-.5647,1.12927-.65869,2.44678-.09424,1.3175-.94116.75281-.5647,1.59973.37622.847.37622,1.12939-.84692,2.07043-1.22363.941-4.89355,5.08179-4.4231,5.7406s1.88208-.84692,2.35254-1.12939c.47046-.28223,1.31763.5647,1.50586.847s.75269,2.07031,1.32983,2.07031c.5769,0,.458-1.22339.08179-2.72913-.37646-1.50562.65869-1.41162.84692-1.88208s.84692-3.2937,1.97607-3.38794c1.12939-.094.65894-2.91724,1.31177-3.57593s.57056-2.35278,1.22925-3.10571c.65869-.75269.75293-2.16431.4707-3.67017-.28247-1.50562,1.78784-.47046,2.729-.47046.79077,0,.04639-.80811-1.15869-2.40332l-5.16919,5.16919a.98025.98025,0,0,0-.07153.3396C60.114,137.74536,60.58472,138.02783,59.1731,138.78064Z"/><path class="cls-1" d="M122.9563,41.94434a1.47241,1.47241,0,0,0-.13184.6748l.55811-.55835C123.22754,41.79431,123.10083,41.71338,122.9563,41.94434Z"/><path class="cls-1" d="M109.2168,52.01367c-1.59985-2.44678-3.01147-3.3877-3.8584-5.92871s.94116-1.50562-.5647-3.67017c-1.50562-2.16443-2.91724-1.12927-1.50562-2.54089s3.19946-1.3175,5.74048-.37634c2.541.94092,3.48193,1.788,4.51709,1.03516s2.35278,1.12915,3.7644-.18823c1.41162-1.31763,2.635-.65881,3.38794-1.694.75269-1.03516,1.12915-3.15332,1.88208-2.8.75269.35327-.18823-.68188,1.12915-.87012,1.31763-.18823,2.635.9613,2.91748-.60168.28223-1.56274.84692-1.56274,1.88208-1.37451s.94116-1.62231,2.44678-1.14062a8.50823,8.50823,0,0,0,2.2.42456l1.33325-1.33337a3.10227,3.10227,0,0,0-.14526-.39734c-1.03516-2.35278-7.05811-2.418-8.84619-1.209s-2.25854,1.86768-3.3877,1.96179c-1.12939.09412-1.31763-.28235-2.25879,1.4115-.94092,1.69409-2.729,5.176-7.52856,4.79956s-4.23462-2.35266-7.34033-1.50574a11.309,11.309,0,0,0-3.57593,1.50574.90834.90834,0,0,1-.5647-1.694c1.03516-.84692,2.54077-1.694,1.41162-2.44678-1.12939-.75281.5647-2.72913-1.22339-2.91736s-3.29395,1.03516-2.44678,1.8822c.84692.847.188,1.80823.188,2.03333s-4.522-1.09607-5.17578-.6217h-6.1897c-.65381-.47437-5.176.84692-5.176.6217s-.65869-1.18628.18823-2.03333-.65869-2.07043-2.44678-1.8822-.094,2.16455-1.22339,2.91736.37646,1.59985,1.41162,2.44678a.90835.90835,0,0,1-.5647,1.694,11.309,11.309,0,0,0-3.57593-1.50574c-3.10571-.84692-2.541,1.12927-7.34033,1.50574-4.79956.37646-6.58765-3.10547-7.52881-4.79956-.94092-1.69385-1.12915-1.31738-2.25854-1.4115-1.12915-.09412-1.59985-.75281-3.38794-1.96179-1.78784-1.209-7.81079-1.1438-8.84595,1.209-1.03516,2.35254,1.88208,1.788,3.38794,1.30615,1.50562-.48169,1.41162,1.32886,2.44678,1.14063s1.59985-.18823,1.88208,1.37451c.28247,1.563,1.59985.41345,2.91724.60168,1.31763.18823.37646,1.22339,1.12939.87012s1.12939,1.76489,1.88208,2.8c.75293,1.03516,1.97632.37634,3.38794,1.694,1.41162,1.31738,2.729-.5647,3.76416.18823s1.97632-.09424,4.51733-1.03516c2.54077-.94116,4.32886-1.03528,5.74048.37634s0,.37646-1.50586,2.54089c-1.50562,2.16455.28247,1.12927-.56445,3.67017-.84717,2.541-2.25854,3.48193-3.8584,5.92871s.28223,9.22266-1.41162,9.12842c-1.69385-.094-5.64648.37646-8.09326.09424-2.44678-.28247-1.41162-1.41162-2.25854-1.8822s-.47046-4.61121-1.22339-6.11707c-.75293-1.50562-.75293-3.8584-.94116-5.74048s.65894-4.79944.18823-5.55225c-.47046-.75293-.75293,1.788-2.44678,3.38782s-.94092-.28235-1.12939-1.41162c-.188-1.12927-1.97607-.09412-2.35254-.65881s-1.59985-1.31738-1.97632-2.54077-1.50562,0-2.54077-1.22339-6.21118-2.72925-7.811-3.48206.37646,1.22339.65869,2.82324c.28247,1.59973-.84692.65881-2.25854,1.77429-1.41138,1.11572,1.69409.10791,4.98779.01367,3.2937-.094,1.97632.28247,2.35278,1.59985.37622,1.3175,1.97607,1.12939,1.99976,2.16455.02344,1.03516,1.57617.18823,1.95264.56458a18.491,18.491,0,0,1,2.35278,2.35266c.37646.65881.94092.47058,1.12915,1.03516s1.31763,7.24634,1.69409,8.752c.37622,1.50586,8.28125,8.75208,9.8811,10.35181s7.24634,1.78809,7.24634,1.78809a9.35547,9.35547,0,0,1,.094,3.19971c-.18823,2.35266-.84692,1.41162-3.57593,2.16443-2.72925.75281-7.811,6.02283-9.88135,8.06042s-.47046,10.47876-.94116,12.17261a5.20357,5.20357,0,0,0,.09424,3.95251c.5647,1.50574-1.03516,2.44678-2.16455,3.67017-1.12915,1.22351-1.31738.941-1.88208,1.694s-1.03516,3.38794-3.2937,4.04663-.84692,1.78809-2.16455,3.19971,0,.47046,1.50562.47046c1.50586,0,1.03516.84692,1.78809,1.69385a1.34891,1.34891,0,0,0,.27686.24487l1.02686-1.02686c.15259-.66089-.25464-2.322-.02759-3.82922.241-1.59973,2.67651-1.4115,3.42944-1.8822.75269-.47046.94092-.94092,1.31738-1.22339.37646-.28223.75293-1.50562,2.07031-1.88208s-.37646-2.07031,1.50586-2.82324c1.88208-.75281.28223-1.59985.65869-2.07031s1.50562-.18823,2.25854.941c.31763.47644.6001.67371.85767.69885l.95654-.95642c-.158-1.12866-3.281-4.44812-3.88452-5.483-.65894-1.12915-.18823-5.17578-.37646-8.56372s3.19946-2.82324,6.39917-3.01147.94116.4707,1.22339,1.03528c.19116.38232.55493,7.0614.76978,11.8916l40.09082-40.09094A6.989,6.989,0,0,0,109.2168,52.01367Z"/></g></g></svg>