<svg xmlns="http://www.w3.org/2000/svg" xmlns:xlink="http://www.w3.org/1999/xlink" viewBox="0 0 181 181"><defs><style>.cls-1{fill:#a71e27;}.cls-2{fill:url(#redSHdwd);}</style><radialGradient id="redSHdwd" cx="90.5" cy="90.5" r="90.5" gradientUnits="userSpaceOnUse"><stop offset="0" stop-color="#b54d41"/><stop offset="0.30696" stop-color="#b2433c"/><stop offset="0.82628" stop-color="#aa282d"/><stop offset="1" stop-color="#a71e27"/></radialGradient></defs><title>houseflies</title><g id="Layer_2" data-name="Layer 2"><g id="background"><path class="cls-1" d="M116.63843,80.5791c1.00488-.00037,11.3042,3.26135,13.43115,3.76294a47.30554,47.30554,0,0,1,5.03247,1.63086,3.48147,3.48147,0,0,1,.75415,1.63232c.25171,1.13037,3.26758,6.40405,4.02173,7.65967a14.53266,14.53266,0,0,0,3.64331,3.26416c.87939.62744,1.63306,1.50635,2.13525,1.00391s.37622-1.38159-.00049-1.38135c-.37671,0-1.884-.62744-3.51758-2.762-1.6333-2.13452-4.02075-5.65015-4.77539-8.28711-.75439-2.63721-2.76416-3.39-4.27148-4.01746-1.24414-.51794-11.47-2.74377-15.49341-4.12683l-1.9751,1.9751A1.667,1.667,0,0,1,116.63843,80.5791Z"/><path class="cls-1" d="M107.9646,57.3479a2.27978,2.27978,0,0,1-.14771.27881l4.40454-4.40454a15.7829,15.7829,0,0,1-2.49976,1.11108C108.46582,54.58472,108.5918,55.71509,107.9646,57.3479Z"/><path class="cls-1" d="M105.5813,58.856a3.8072,3.8072,0,0,0-.88208-1.50684,24.45859,24.45859,0,0,0-2.26147-2.13428s3.01294-3.51758,3.1377-6.02942c.12451-2.51184-4.27173-4.51965-5.65332-4.77039S97.0332,43.41138,96.78174,42.658A4.87089,4.87089,0,0,0,95.124,40.77441c-.33569-.25171-2.48779-.166-4.31079-.0813H90.187c-1.823-.08472-3.9751-.17041-4.31079.0813A4.87089,4.87089,0,0,0,84.21851,42.658c-.25146.75342-1.75879,1.50635-3.14038,1.75708S75.3,46.67358,75.4248,49.18542s3.13745,6.02942,3.13745,6.02942A24.468,24.468,0,0,0,76.301,57.34912,3.80629,3.80629,0,0,0,75.4187,58.856a2.438,2.438,0,0,1-2.38306-1.50806c-.6272-1.63281-.50122-2.76318-1.75708-3.01465-1.25586-.25171-9.041-4.65015-10.42212-5.27856-1.38135-.62842-1.75757-1.88452-3.51587-1.885-1.7583-.00073-.75342-.6283-3.01392-1.00586s-1.38062-2.01-2.76221-2.0105a60.15819,60.15819,0,0,1-6.405-.12781c-3.01416-.25232-8.41357-2.766-6.53027-1.007A8.09792,8.09792,0,0,0,45.0332,45.407a11.03451,11.03451,0,0,1,5.91089.75562c2.50317.88,2.25171,1.50781,3.25635,2.26172,1.00439.75391,15.19409,6.41064,15.44482,7.28979.251.87915,2.88574,8.03882,2.88574,8.03882s-.127,3.64209-.37891,5.90259-.88184,7.66064-2.38892,7.91138-3.906-.455-4.77905.65063-15.56836,4.24011-17.07568,4.86755-3.51709,1.38025-4.27148,4.01746c-.75439,2.637-3.14185,6.15259-4.77539,8.28711-1.6333,2.13452-3.14062,2.762-3.51758,2.762-.37671-.00024-.50244.87891-.00049,1.38135.50244.50244,1.2561-.37646,2.1355-1.00391a14.53266,14.53266,0,0,0,3.64331-3.26416c.75391-1.25562,3.77-6.5293,4.02148-7.65967a3.483,3.483,0,0,1,.75439-1.63232A47.29277,47.29277,0,0,1,50.93042,84.342c2.127-.50159,12.42651-3.76331,13.43115-3.76294,1.00488.00037,1.00464.75391,2.38623.75439a3.36323,3.36323,0,0,0,2.00952-.50171s-.88013,2.63721-1.50854,4.39526c-.62866,1.75806-.50342,2.7627-1.38281,3.13916-.87915.37646-4.019.87769-4.39624,1.88232s-7.03857,15.31958-7.54175,17.83105c-.41064,2.0498-.3269,2.77271-.68945,4.12549l2.74829-2.74829c.26685-.80908.56909-1.62915.83008-2.25537C57.44531,105.69458,60.248,94.865,61.217,94.1792c.96924-.68579,1.42773-2.04639,2.15869-2.04614a.89589.89589,0,0,1,.856.75391s-1.81128,5.45337-3.814,12.13916l46.45752-46.45776A2.7938,2.7938,0,0,1,105.5813,58.856Z"/><path class="cls-1" d="M59.44165,142.74463c1.8833,1.38208,1.67725,2.261,3.91553,1.13159s6.00781-5.52393,7.89209-7.28149a138.28521,138.28521,0,0,0,9.67432-11.04858c1.63354-2.25977,2.01172-5.65063,3.26758-6.0271,1.2561-.37622,1.17969-1.3811,2.15967-.12476A4.855,4.855,0,0,0,90.219,121.405h.56226a4.855,4.855,0,0,0,3.86816-2.01074c.98-1.25635.90356-.25146,2.15942.12476,1.2561.37646,1.63428,3.76733,3.26758,6.0271a138.38276,138.38276,0,0,0,9.67432,11.04858c1.88452,1.75757,5.65381,6.1521,7.89209,7.28149s2.03223.25049,3.91553-1.13159c1.88354-1.38232,4.01611-8.03931,4.26489-14.94678S116.76831,92.887,116.76831,92.887a.89626.89626,0,0,1,.8562-.75391c.73071-.00024,1.18945,1.36035,2.15845,2.04614.96924.68579,3.772,11.51538,4.40039,13.02222a21.58986,21.58986,0,0,1,1.50879,5.02319c.00024.87915,3.645,8.53882,4.90161,10.17114s4.77417,4.394,6.03,4.26782c1.25586-.126.87842-1.38159-.252-1.38135-1.13013.00049-1.63281-1.12964-3.89453-3.51514-2.26123-2.3855-3.64429-6.40381-4.39844-8.53857-.75439-2.13477-.50342-2.63721-1.00659-5.14893-.50342-2.51147-7.16479-16.82642-7.54175-17.83105-.3772-1.00464-3.51709-1.50586-4.39648-1.88232-.87915-.37646-.75391-1.3811-1.38257-3.13916-.196-.54834-.4165-1.18225-.6272-1.79492L57.32935,139.22705A8.28625,8.28625,0,0,0,59.44165,142.74463Z"/><path class="cls-1" d="M107.81689,57.62671l-.94165.94165A2.20178,2.20178,0,0,0,107.81689,57.62671Z"/><path class="cls-1" d="M112.24292,80.83179s.4165,1.24866.88135,2.60034l2.49878-2.49878a2.22909,2.22909,0,0,1-1.37061.40015A3.36323,3.36323,0,0,1,112.24292,80.83179Z"/><path class="cls-2" d="M90.5,0A90.5,90.5,0,1,0,181,90.5,90.5001,90.5001,0,0,0,90.5,0Zm0,172.855a81.97654,81.97654,0,0,1-49.92578-16.8728l16.75513-16.75513a37.65017,37.65017,0,0,1-2.15234-11.4292c-.13916-3.85986,2.70435-14.30469,5.24072-22.77173l-4.43091,4.43066a12.1892,12.1892,0,0,0-.679,2.76782c-.00024.87915-3.645,8.53882-4.90137,10.17114-1.25659,1.63232-4.77417,4.394-6.03,4.26782-1.25586-.126-.87866-1.38159.25171-1.38135,1.13037.00049,1.63306-1.12964,3.89453-3.51514s3.64453-6.40381,4.39868-8.53857c.13867-.39258.2356-.71875.31714-1.02344l-28.2207,28.2207A82.34094,82.34094,0,0,1,140.42554,25.01807l-28.2041,28.2041c2.80762-1.417,6.94971-3.72485,7.92236-4.16748,1.38135-.62842,1.75757-1.88452,3.51587-1.885,1.7583-.00073.75317-.6283,3.01392-1.00586,2.26025-.37756,1.38062-2.01,2.76221-2.0105a60.15884,60.15884,0,0,0,6.405-.12781c3.01416-.25232,8.41357-2.766,6.53027-1.007A8.09792,8.09792,0,0,1,135.967,45.407a11.03424,11.03424,0,0,0-5.91089.75562c-2.50317.88-2.25171,1.50781-3.25635,2.26172-1.00439.75391-15.19409,6.41064-15.44507,7.28979-.25073.87915-2.88574,8.03882-2.88574,8.03882s.127,3.64209.37891,5.90259.88184,7.66064,2.38916,7.91138c1.50708.25061,3.90576-.455,4.77905.65063a4.57219,4.57219,0,0,0,1.582.74072l38.38379-38.38391A82.34085,82.34085,0,0,1,90.5,172.855Z"/></g></g></svg>