<svg xmlns="http://www.w3.org/2000/svg" xmlns:xlink="http://www.w3.org/1999/xlink" viewBox="0 0 181 181"><defs><style>.cls-1{fill:#a71e27;}.cls-2{fill:url(#redSHdwd);}</style><radialGradient id="redSHdwd" cx="90.5" cy="90.5" r="90.5" gradientUnits="userSpaceOnUse"><stop offset="0" stop-color="#b54d41"/><stop offset="0.30696" stop-color="#b2433c"/><stop offset="0.82628" stop-color="#aa282d"/><stop offset="1" stop-color="#a71e27"/></radialGradient></defs><title>moths</title><g id="Layer_2" data-name="Layer 2"><g id="background"><path class="cls-1" d="M90.33862,68.902a20.309,20.309,0,0,0-5.1311,4.11871c-2.97339-.17187-13.25513-.76648-15.00537-.87354-2.05029-.12561-2.97095,2.7196-2.97095,2.7196.66943,1.79919,2.97095-1.12976,2.97095-1.12976l14.29956.38452a3.30551,3.30551,0,0,0-.34985,1.20557c-.22144,3.10181-1.77222,1.44006-3.10181,1.10767-1.3291-.33228-2.10449-1.21851-4.09863-.44312s-5.87109,2.548-6.09277,3.21265-1.8833,1.9939.554,1.10767c2.437-.88611,3.76636-1.66162,5.53882-1.66162s3.54492,1.32935,3.26807,2.88025c-.2771,1.5509-1.27393,1.32935-1.05249,3.10168a9.21428,9.21428,0,0,1,.15283,1.49146L94.11914,71.32434a24.19816,24.19816,0,0,0-3.45776-2.4223Z"/><path class="cls-1" d="M90.33862,150.10181h.32275c8.21436-.22156,10.72876-40.21216,11.50415-40.21216s5.87134,16.17346,6.425,16.395c.554.22156.554-1.32935-.55371-4.985-1.10791-3.65564-1.66187-5.76038-1.66187-5.76038l3.54492.1521c3.54492.15222,4.32031-1.14917,6.64673-2.7,2.32617-1.5509,7.20044-.554,9.14746-.77551s8.79834-3.8772,10.79248-5.20642c1.9939-1.32947,2.437-2.88037,1.88306-4.76355s-7.64355-2.76941-6.20337-3.65564c1.43994-.88623,4.43115,0,7.31128,0a16.27624,16.27624,0,0,0,9.52686-2.437c4.43091-2.43713,11.74243-13.18262,11.74243-13.18262s-4.43115-7.31128-17.39209-7.64355c-7.83911-.20093-19.96729,3.52759-28.824,6.67834L79.87256,116.68372C81.31763,128.10547,84.2749,149.93823,90.33862,150.10181Z"/><path class="cls-1" d="M72.40942,126.28467a19.44337,19.44337,0,0,0,1.47656-3.61426l-1.6958,1.6958C71.93042,125.80957,72.04956,126.42859,72.40942,126.28467Z"/><path class="cls-1" d="M77.50537,86.18335c-2.21558-.77551-26.91895-11.18848-39.87988-10.8562S20.2334,82.9707,20.2334,82.9707s7.31128,10.74548,11.74243,13.18262a16.27624,16.27624,0,0,0,9.52686,2.437c2.88013,0,5.87109-.88623,7.31128,0s-5.64966,1.77246-6.20337,3.65564c-.554,1.88318-.11084,3.43408,1.88306,4.76355a64.85983,64.85983,0,0,0,9.20044,4.74L78.91968,86.52368A4.37706,4.37706,0,0,1,77.50537,86.18335Z"/><path class="cls-2" d="M90.5,0A90.5,90.5,0,1,0,181,90.5,90.50006,90.50006,0,0,0,90.5,0Zm0,172.855a81.97587,81.97587,0,0,1-49.92578-16.87292l31.616-31.61584a27.86758,27.86758,0,0,1,.77319-3.06653c1.10767-3.65564,1.66162-5.76038,1.66162-5.76038l-3.54468.1521c-3.54492.15222-4.32031-1.14917-6.64673-2.7s-7.20044-.554-9.14746-.77551a7.41589,7.41589,0,0,1-1.592-.46643L25.01782,140.42566A82.341,82.341,0,0,1,140.42554,25.01794l-46.3064,46.3064a12.37047,12.37047,0,0,1,1.67773,1.702c2.83838-.16406,13.33252-.77087,15.10254-.87915,2.05-.12561,2.9707,2.7196,2.9707,2.7196-.66943,1.79919-2.9707-1.12976-2.9707-1.12976L96.5,74.12427a3.314,3.314,0,0,1,.34839,1.20288c.22144,3.10181,1.77222,1.44006,3.10156,1.10767s2.10474-1.21851,4.09888-.44312c1.9939.77551,5.87109,2.548,6.09277,3.21265.22144.66467,1.88306,1.9939-.554,1.10767s-3.76636-1.66162-5.53882-1.66162-3.54517,1.32935-3.26807,2.88025,1.27393,1.32935,1.05249,3.10168c-.22168,1.77246-.554,2.32642,1.66162,1.551.87549-.30652,5.269-2.11914,11.05591-4.17786l41.43115-41.43121A82.3409,82.3409,0,0,1,90.5,172.855Z"/><path class="cls-1" d="M78.83472,109.88965c-.54395,0-3.21191,7.95264-4.94873,12.78076l5.98657-5.98669C79.36011,112.63306,79.0376,109.88965,78.83472,109.88965Z"/><path class="cls-1" d="M79.31982,86.12378l-.40015.3999C79.18677,86.50928,79.29468,86.374,79.31982,86.12378Z"/></g></g></svg>