<svg xmlns="http://www.w3.org/2000/svg" viewBox="0 0 181.00024 181"><defs><style>.cls-1{fill:#a71e27;}</style></defs><title>picudo</title><g id="Layer_2" data-name="Layer 2"><g id="background"><path class="cls-1" d="M90.968,139.44775c11.28564-.58545,14.13965-9.90039,16.72559-18.94922q.457.09229.91455.18408c.07275,1.56055.145,3.12109.16943,3.63867,2.09766,1.51709,3.78906,2.74072,5.25732,3.80273-3.18115,5.77246-6.01367,10.91162-8.69775,15.78271q3.89063,6.75952,7.79736,13.54541c1.72754-1.53857,1.41748-5.90625-.731-7.44141-2.72412-1.9458-3.563-4.02881-1.82178-7.17432,1.918-3.46436,3.40234-7.1665,5.187-10.7085,3.00879-5.97266.5083-11.6333-4.92139-17.28857-.75439-.78564-2.0874-1.51416-2.16992-2.36475-.478-4.90674-.66064-9.84277-.97852-15.3877,2.86914,1.46631,5.25293,2.68506,7.97559,4.07666,1.21729-3.3252,3.44482-1.77246,5.53857-.93555-1.63672,4.9209-3.251,9.77637-4.72168,14.2002,1.43994,1.0332,2.92871,1.6748,3.7793,2.7998,1.77246,2.34473,1.97559,5.56641,4.877,7.45557,1.61865,1.05322,1.20654,1.68652,3.335-.68213a73.43966,73.43966,0,0,0-5.16309-6.73584c-1.77979-1.86963-2.73145-3.49316-1.6709-6.165a46.22551,46.22551,0,0,0,1.75049-7.25c1.44238-6.61865-.87451-10.03662-7.604-10.78955a70.026,70.026,0,0,0-8.07861-.05225c-.4502-.95508-.88623-1.88135-1.335-2.834L74.00952,122.54688C76.79321,131.54883,79.49976,140.04248,90.968,139.44775Z"/><path class="cls-1" d="M94.73315,59.6875a76.67224,76.67224,0,0,1-.26221-11.15332,3.3623,3.3623,0,0,1,1.4585-2.53027c2.92969-1.376,5.91309-2.93652,9.04395-3.50293,3.313-.59961,5.20752-2.57764,7.02686-4.90771a76.30617,76.30617,0,0,0,5.24023-7.26416,15.13215,15.13215,0,0,0,1.3916-4.69727c.04053-.19043-1.25977-.93262-1.34619-.84375-1.25293,1.29-2.4292,2.65869-3.55615,4.0625-.18994.23682.07715.82617-.105,1.08594-2.18555,3.12207-3.88574,6.89746-6.77246,9.13477-3.43506,2.66309-7.89893,3.99854-11.96582,5.93213,0-2.09521.334-4.02686-.11328-5.75684-.31494-1.21777-1.69141-2.16064-2.59375-3.22656-.69336,1.11133-1.78418,2.15381-1.99023,3.34863a40.40678,40.40678,0,0,0-.09033,6.44775c-1.54443-.95361-2.458-1.57764-3.42383-2.10449-7.05518-3.85107-13.63135-7.981-15.29346-16.89648-.416-2.231-2.36084-4.59131-5.67334-2.38574.57422,1.65039.84521,3.41748,1.73193,4.78613a111.24766,111.24766,0,0,0,7.04932,9.74756,12.01847,12.01847,0,0,0,4.1167,2.917c3.252,1.56641,6.67969,2.77539,9.88623,4.42188a3.51164,3.51164,0,0,1,1.42188,2.92139c-.77588,5.03711.6123,10.22754-3.186,15.05762-3.56006,4.52783-5.481,10.34424-8.12354,15.59326q-.5647.09521-1.12988.19092c-1.73535-4.35742-3.47119-8.71484-5.334-13.39111-1.123.68945-2.64746,1.626-4.00146,2.45752-1.23584-.981-2.43115-1.92969-3.71436-2.94873.64063-4.9834,1.30811-10.1792,1.86621-14.51855-1.42578-1.28125-2.74609-2.04-3.43066-3.18018-1.13428-1.88916-1.73437-4.09277-2.8042-6.02881a18.712,18.712,0,0,0-2.62891-3.041q.14063-.66431.28125-1.3291c-1.03955.49414-3.01416,1.11035-2.96777,1.4624.312,2.38135.29492,5.84863,1.7915,6.83936,4.72705,3.12793,6.50879,6.77051,4.74414,12.146-.15039.458-.03418,1.001-.17236,1.46582-2.73437,9.19092,5.20117,20.78076,14.03223,23.28418A19.58417,19.58417,0,0,1,78.573,84.9707c-1.13965,1.88623-2.11133,3.49463-2.8999,4.7998L98.41138,67.03174q-.57056-1.32715-1.1416-2.64893C96.56079,62.74609,94.93237,61.32813,94.73315,59.6875Z"/><path class="cls-1" d="M90.50024,0a90.5,90.5,0,1,0,90.5,90.5A90.5,90.5,0,0,0,90.50024,0Zm0,172.855a81.97413,81.97413,0,0,1-49.92578-16.873l24.55176-24.55176c-.3584-1.292-.68994-2.59375-.9585-3.90967-1.10205-5.39893,2.979-9.29346,6.11621-13.23877.9873-1.24121,2.20215-2.61377,2.44922-4.07227.74219-4.38379,1.05811-8.83887,1.63818-14.16357-2.4668,1.4043-4.481,2.55029-5.93652,3.37891-.73975-.08936-1.45264-.17578-2.15527-.26074l-3.58105,3.58057c.936,3.60645,1.77441,6.83691,2.50635,9.6582-1.90625,2.49365-3.56641,4.876-5.44971,7.06592a50.04112,50.04112,0,0,1-5.35205,5.28467c-.33691.28906-1.76123-.11768-2.13525-.61523a2.27637,2.27637,0,0,1,.28955-2.16113c2.604-2.8374,5.3418-5.55176,7.96729-8.23779-.397-2.44629-.88672-4.9585-1.31348-7.50684L25.01782,140.42578A82.34094,82.34094,0,0,1,140.42554,25.01807L98.41138,67.03174a127.27773,127.27773,0,0,0,6.88037,14.21436c2.28467-4.48486,4.56982-8.97021,6.88281-13.51074,1.42139,2.58545,3.65186,1.65137,5.89941.87646,2.59961-.896,2.00049-2.48877,1.27832-4.42822-.40674-1.0918-.0957-2.45312-.09766-3.69287-.00439-2.46-.00146-4.91992-.00146-7.04883,2.2207-2.89209,4.51514-5.88037,6.978-9.0874.54346.43066,1.50928,1.19482,2.665,2.10938-2.12793,2.24365-4.22266,4.45264-5.96094,6.28564.292,7.40576,2.09521,14.59961-2.08057,21.2168-3.99023,6.32324-10.32812,9.61621-16.645,11.59619.81348,1.72705,1.50684,3.19971,2.17188,4.6123l49.60059-49.60059A82.34094,82.34094,0,0,1,90.50024,172.855Z"/></g></g></svg>