<svg xmlns="http://www.w3.org/2000/svg" xmlns:xlink="http://www.w3.org/1999/xlink" viewBox="0 0 181 181"><defs><style>.cls-1{fill:url(#redSHdwd);}.cls-2{fill:#a71e27;}</style><radialGradient id="redSHdwd" cx="90.5" cy="90.5" r="90.5" gradientUnits="userSpaceOnUse"><stop offset="0" stop-color="#b54d41"/><stop offset="0.30696" stop-color="#b2433c"/><stop offset="0.82628" stop-color="#aa282d"/><stop offset="1" stop-color="#a71e27"/></radialGradient></defs><title>rodents</title><g id="Layer_2" data-name="Layer 2"><g id="background"><path class="cls-1" d="M90.5,0A90.5,90.5,0,1,0,181,90.5,90.50006,90.50006,0,0,0,90.5,0Zm0,172.855a81.97625,81.97625,0,0,1-49.92578-16.87292l40.04541-40.04529q-.397-.68381-.7937-1.368c1.311-1.42981,2.62231-2.85968,3.94775-4.30493-2.69531-3.2467-8.11108-2.83667-11.02734.348a135.1484,135.1484,0,0,1-11.76685,10.88751,2.11683,2.11683,0,0,1-1.20923.397c-.687.06-1.47852-.00092-2.14868.07892q-.28381-.41949-.56787-.83929A35.64722,35.64722,0,0,1,61,117.33423c2.69556-1.92334,2.86694-4.4621,2.00146-7.1994-.18726-.59192-1.49438-1.14368-2.27563-1.13019-.5769.01013-1.33545.8866-1.6084,1.5451-.11084.26678.85791.97412,1.32446,1.49078.27515.30475.80957.7381.73779.9223-.18677.478-.60132,1.15839-1.00073,1.21411-2.394.33429-3.679-1.01031-3.30151-3.21143a11.02913,11.02913,0,0,0,.14453-2.54388l-32.00415,32.004A82.341,82.341,0,0,1,140.42554,25.01794L99.70142,65.74219a28.716,28.716,0,0,1,9.31885,6.9043c.43921.4856.8772.97375,1.29395,1.49573a19.54758,19.54758,0,0,1,3.8291,8.27081l41.83862-41.83875A82.3409,82.3409,0,0,1,90.5,172.855Z"/><path class="cls-2" d="M75.82056,66.40918c-3.15479,1.54767-6.11963,3.48267-9.19922,5.25555-.62891-2.6134-.53369-5.75549-2.05664-7.39539-1.15967-1.24878-4.3728-.59076-6.27344-.748-1.10547-1.57812-2.39551-4.60168-3.321-4.49377-1.8811.21918-3.59277,2.09259-5.312,3.3681-.467.34644-.62329,1.09485-1.07422,1.48212-1.48486,1.27594-2.8562,2.9743-4.59937,3.608a50.05615,50.05615,0,0,0-18.093,11.09808c-1.60864,1.56006-2.46753,2.64325-.2981,4.7442,2.99731,2.90259,6.03784,4.80316,10.39014,5.00378a13.13046,13.13046,0,0,1,6.88818,2.73743c3.0127,2.30786,5.417,5.3905,8.27832,7.91962,3.03735,2.68488,5.63159,5.43622,5.87183,9.43268L99.70142,65.74219A27.4609,27.4609,0,0,0,75.82056,66.40918Z"/><path class="cls-2" d="M85.07422,114.98224c7.646-3.96259,15.28-6.87958,23.81274-2.32141a13.09461,13.09461,0,0,0,6.0686,1.326c6.77344-.05969,13.62427.13782,20.29541-.814a27.23513,27.23513,0,0,0,19.67285-12.48962,9.8712,9.8712,0,0,0-3.42139-14.37842c-7.01929-4.13678-23.467-2.97974-29.76855,2.075-2.60718,2.09137-3.85278,5.12817-2.427,7.83447.85986,1.63232,3.90723,2.21161,6.06567,3.01062.84082.31122,1.93921-.0733,2.92017-.141-.96-.75305-2.05127-.74731-2.79492-1.253-1.31226-.89215-3.16577-1.96-3.39111-3.20758a5.00427,5.00427,0,0,1,2.01245-4.18c7.5957-4.317,15.63379-5.12408,23.69238-1.42572,4.23022,1.94128,5.74292,6.54028,2.90234,10.21362a28.57692,28.57692,0,0,1-9.65259,8.09882c-7.99829,3.89154-16.77979,3.43066-25.41309,2.6496-4.46582-.40393-5.00293-1.86633-3.65771-6.20563a51.73845,51.73845,0,0,0,2.68237-12.11633,34.77384,34.77384,0,0,0-.52954-9.24475L80.61963,115.93677l.10132.17468A19.822,19.822,0,0,0,85.07422,114.98224Z"/></g></g></svg>