<svg xmlns="http://www.w3.org/2000/svg" xmlns:xlink="http://www.w3.org/1999/xlink" viewBox="0 0 181 181"><defs><style>.cls-1{fill:url(#redSHdwd);}.cls-2{fill:#a71e27;}</style><radialGradient id="redSHdwd" cx="90.5" cy="90.5" r="90.5" gradientUnits="userSpaceOnUse"><stop offset="0" stop-color="#b54d41"/><stop offset="0.30696" stop-color="#b2433c"/><stop offset="0.82628" stop-color="#aa282d"/><stop offset="1" stop-color="#a71e27"/></radialGradient></defs><title>silverleaf</title><g id="Layer_2" data-name="Layer 2"><g id="background"><path class="cls-1" d="M90.5,0A90.5,90.5,0,1,0,181,90.5,90.49995,90.49995,0,0,0,90.5,0Zm0,172.855a81.97674,81.97674,0,0,1-49.92578-16.873l19.365-19.365c-.40527-2.64771-.77026-5.03833-1.19385-6.85327-.95459-4.08374,1.42529-15.38916,4.40527-27.47095L25.01782,140.42554A82.341,82.341,0,0,1,140.42554,25.01782L106.88721,58.55615a11.44436,11.44436,0,0,1,1.11011,1.50049c2.55957-.25586,5.13574-.13672,6.05566,1.19141,1.60718,2.32349,3.73535,10.38037,5.52881,15.72656l36.40015-36.40039A82.34094,82.34094,0,0,1,90.5,172.855Z"/><path class="cls-2" d="M111.32153,62.84473c-.33691,0-1.09277.04-1.96484.0957a19.40674,19.40674,0,0,1,.92773,4c.39307,3.13818,1.79932,8.91919,3.55518,15.77612l2.08887-2.08887a10.82847,10.82847,0,0,1-.95947-2.76343C114.969,75.81641,112.78442,62.84473,111.32153,62.84473Z"/><polygon class="cls-2" points="93.809 87.116 93.809 71.635 92.029 73.415 92.029 85.336 92.031 85.339 92.031 104.525 93.81 102.746 93.81 87.117 93.809 87.116"/><polygon class="cls-2" points="89.973 83.28 89.973 75.47 88.193 77.251 88.193 81.5 88.193 108.364 89.972 106.584 89.972 83.279 89.973 83.28"/><path class="cls-2" d="M89.97192,130.44727c0,5.27148-.00879,11.04395-.97266,16.15527a8.73438,8.73438,0,0,0,1.99219.23242,8.96,8.96,0,0,0,2.01172-.23633c-.96387-5.1123-.97168-10.87988-.97168-16.15137V104.52466l-2.05957,2.05957Z"/><path class="cls-2" d="M127.02856,99.03223c2.04883,0-.68359-6.14355-2.04785-7.50781-1.36816-1.36816-2.05176-6.832-4.01562-10.92773a34.2655,34.2655,0,0,1-1.3833-3.62207l-3.65332,3.65308C118.48218,86.48022,125.36938,99.03223,127.02856,99.03223Z"/><path class="cls-2" d="M93.80981,130.44434c0,13.66016,0,30.72754,15.7959,30.72754,10.92383,0,11.5791-22.53125,13.65527-31.40723.60059-2.56836-.13965-8.02441-1.49219-14.68848-1.98584-9.78223-5.33838-22.24268-7.9292-32.35962L93.80981,102.74634Z"/><path class="cls-2" d="M88.19263,67.625s-.03906-.17676-.11523-.48047c-.04883-.17969-.12891-.46-.2041-.73242-.05176-.19141-.08887-.332-.15625-.56348-.09668-.33984-.22754-.74023-.35645-1.14453-.08008-.24316-.13965-.45215-.22754-.71191-.14844-.43555-.32422-.88379-.5-1.34766-.10449-.27637-.19629-.53223-.31152-.8125-.18848-.45508-.40039-.8916-.6123-1.34375-.13574-.292-.26855-.58008-.416-.86328-.21973-.4248-.46387-.80078-.71191-1.18848-.17187-.27246-.33594-.54-.52051-.78809a8.9587,8.9587,0,0,0-.80371-.90039,7.16978,7.16978,0,0,0-.62793-.58008,4.13446,4.13446,0,0,0-.87988-.47949,4.08908,4.08908,0,0,0-.45605-.248,6.14945,6.14945,0,0,1,.624-.1084c5.06738,0,8.05566,12.293,8.05566,12.293v7.84546l2.05566-2.05566V67.625s2.98828-12.293,8.05664-12.293a6.14945,6.14945,0,0,1,.624.1084,282.75184,282.75184,0,0,0-1.332.72754,6.1481,6.1481,0,0,0-.63184.584,8.39624,8.39624,0,0,0-.80469.89648c-.18359.248-.34766.51953-.52344.792-.24414.3877-.48828.75977-.708,1.18457-.15234.28711-.28418.5791-.4248.87891-.207.44434-.416.873-.59961,1.32031-.124.30078-.22363.57617-.332.87207-.168.44043-.33594.86816-.47559,1.28027-.10449.30371-.18066.55176-.26855.832-.11133.35938-.23145.71973-.31934,1.02734-.09668.32422-.15234.53711-.2207.78418-.04395.17285-.10352.37988-.13574.50879-.08008.31152-.124.49609-.124.49609v4.00952l13.07837-13.07837a10.19028,10.19028,0,0,0-.95044-.95947c6.98828-4.71582,15.42383-29.668,16.084-32.3125.67969-2.73145-3.09961,0-3.09961,0a182.646,182.646,0,0,1-7.14453,18.668,23.08632,23.08632,0,0,1-8.01562,8.64063,11.35745,11.35745,0,0,0-3.96-7.80859,6.33764,6.33764,0,0,0,.26758-1.74316,6.61259,6.61259,0,0,0-1.74707-4.39648c1-1.47656,5.64355-8.2002,8.67578-10.62793,3.416-2.73242,11.60742-8.19238,11.60742-8.19238s-11.1875,1.36426-20.95605,15.02051c-.53613.748-1.01562,1.42383-1.45605,2.05176a10.37335,10.37335,0,0,0-5.20312-1.36816,10.108,10.108,0,0,0-6.11621,1.99219c-.34082-.48437-.7002-.98828-1.09277-1.53613-9.76758-13.65625-20.959-15.02344-20.959-15.02344s8.19531,5.46387,11.61133,8.19531c2.91211,2.332,7.3125,8.63281,8.54,10.42773a6.4558,6.4558,0,0,0-1.06348,3.457,6.33764,6.33764,0,0,0,.26758,1.74316,11.29419,11.29419,0,0,0-4,8.52441c0,.2002.03613.3877.04785.584-2.51562-1.40039-7.624-4.74023-10.13965-9.94043a182.646,182.646,0,0,1-7.14453-18.668s-3.7832-2.73145-3.09961,0c.68359,2.73242,9.67188,29.36426,16.78809,32.78027.248.11621.42773.16016.65137.25586A11.9382,11.9382,0,0,0,73.929,60.16016c-2.48047-.332-5.08789-.32812-6.416.66016l-.00977-.00977a2.28379,2.28379,0,0,0-.55957.44043c-2.04785,2.95605-4.94434,15.248-6.9082,19.34766-1.96777,4.09668-2.65234,9.56055-4.0166,10.9248-1.36719,1.36328-4.0957,7.51172-2.04687,7.51172,2.04688,0,12.05957-19.12012,12.05957-21.168,0-2.02051,2.1123-14.56445,3.57129-14.95605l-.07715-.07812.0791.0791c.02441-.00781.04883-.06738.07227-.06738.45605,0,1.624.07129,2.93945.16406a23.22862,23.22862,0,0,0-.543,2.37109l-.02051-.01953c-.1084.53516-.25977.98828-.33594,1.5791-.73682,5.90088-5.06592,21.16284-8.56641,35.35327l25.042-25.042Z"/><path class="cls-2" d="M72.40063,161.17578c15.792,0,15.792-17.07227,15.792-30.73145V108.36353L59.93921,136.61694C61.51514,146.91846,63.70728,161.17578,72.40063,161.17578Z"/></g></g></svg>