<svg xmlns="http://www.w3.org/2000/svg" xmlns:xlink="http://www.w3.org/1999/xlink" viewBox="0 0 181 181"><defs><style>.cls-1{fill:#a71e27;}.cls-2{fill:url(#redSHdwd);}</style><radialGradient id="redSHdwd" cx="90.5" cy="90.5" r="90.5" gradientUnits="userSpaceOnUse"><stop offset="0" stop-color="#b54d41"/><stop offset="0.30696" stop-color="#b2433c"/><stop offset="0.82628" stop-color="#aa282d"/><stop offset="1" stop-color="#a71e27"/></radialGradient></defs><title>spiders</title><g id="Layer_2" data-name="Layer 2"><g id="background"><path class="cls-1" d="M68.42847,98.79346a4.94166,4.94166,0,0,1,1.14819.30872c.21558.08948.68066.49792.87451.47705.34644-.03735,1.04126-.847,1.29932-1.05676q1.288-1.04736,2.57593-2.095c.72095-.58643,1.47729-1.147,2.1709-1.76562.46582-.41553.75806-.90759,1.2085-1.34827.63721-.62341,1.27783-1.26624,1.93652-1.86414.79248-.71936,1.75146-.54919,2.75879-.54065.01709-.38318.02-.78748.02881-1.17932.01563-.72266.09595-.63354-.439-.88611-.71265-.33655-1.44019-.5824-2.155-.95837q-.746-.39221-1.49146-.78589L66.66431,98.77905A7.24324,7.24324,0,0,1,68.42847,98.79346Z"/><path class="cls-1" d="M82.9978,84.18848a4.48869,4.48869,0,0,1,1.37549-1.91675c.62158-.50488.61523-.571.70166-1.381a4.88418,4.88418,0,0,1,.13159-.65369l-2.78418,2.78406C82.63257,83.40576,82.82983,83.7937,82.9978,84.18848Z"/><path class="cls-1" d="M89.9397,78.38721a5.21456,5.21456,0,0,1-.67529,2.02c.85986-.03613,1.69629-.03394,2.55664,0-.22925-.58813-.81152-1.50574-.66675-2.1615.28052-1.27051,2.3208-.79871,3.09058-.34607a3.96214,3.96214,0,0,1,1.77466,3.16016c.16772,1.28735,1.57324,1.84082,2.06934,3.12866a23.397,23.397,0,0,1,2.71948-4.1853q1.51538-2.13171,3.03613-4.25928,2.06909-2.8949,4.147-5.78406c1.67114-2.326,3.43213-4.60559,4.93066-7.04761a19.11461,19.11461,0,0,1,1.1875-1.77991c.43213-.55347.7124-.63794.688-1.311a37.25484,37.25484,0,0,0-.625-4.103c-.19531-1.28528-.396-2.56982-.59253-3.855L87.92871,77.51477C88.82666,77.32935,89.83789,77.42188,89.9397,78.38721Z"/><path class="cls-1" d="M74.78174,105.50977A85.60616,85.60616,0,0,0,66.176,117.48413c-.58252,1.05933-1.56567,2.66321-1.60376,3.90613-.03345,1.08887,1.20679,2.81531,1.68945,3.82019.54858,1.14258,1.11133,2.27808,1.667,3.417l10.06738-10.06738A14.997,14.997,0,0,1,74.78174,105.50977Z"/><path class="cls-1" d="M100.12256,88.47632c-.34253.16211-.75513.21289-1.07886.37671-.48193.24365-.27344-.15991-.39624.48779-.07983.42188-.11206,1.42334.19312,1.56335.343.15723,1.00342-.04358,1.38989-.00867a2.16268,2.16268,0,0,1,1.45288.80811c.53589.527,1.04565,1.07239,1.561,1.60828l13.81714-13.81726c-1.60034.89063-3.22729,1.73975-4.84155,2.59851C108.208,84.22754,104.23,86.53247,100.12256,88.47632Z"/><path class="cls-2" d="M90.5,0A90.5,90.5,0,1,0,181,90.5,90.5,90.5,0,0,0,90.5,0Zm0,172.855a81.976,81.976,0,0,1-49.92578-16.873l23.65259-23.65234c-1.14087-2.59937-2.21558-5.24841-3.48242-7.77954-.8877-1.77295-2.21436-3.94238-.68262-5.78552.60864-.73206,1.52417-1.06189,2.11743-1.82043.73413-.93835,1.198-2.07275,1.84082-3.07312,2.7439-4.26868,6.01733-8.22278,9.1416-12.21375-1.87329,1.24561-4.25342,1.23828-6.42017,1.26868-1.40967.0199-2.81812.00916-4.22681.00281L25.01782,140.42554A82.341,82.341,0,0,1,140.42554,25.01782L116.98486,48.4585a44.71931,44.71931,0,0,0,1.58447,6.90662A7.0446,7.0446,0,0,1,118,62.10156c-1.25659,2.095-3.06836,3.75732-4.571,5.66284-3.62256,4.59375-6.291,9.90649-9.87085,14.54248q.51709-.25818,1.03418-.51672c3.68384-1.84045,7.36011-3.69714,11.05176-5.52161.59985-.29639,1.21069-.55322,1.82861-.8125.66211-.278,1.79419-.5647,2.14722-1.16846a26.36141,26.36141,0,0,0,1.03906-3.06128c1.78564-4.31409,4.54468-8.12329,6.92529-12.1123a12.39567,12.39567,0,0,0,2.09375-4.54028c.12329-.96362.16309-1.938.27588-2.9032a3.61441,3.61441,0,0,1,.30176-1.48132c.62671-.91943,1.80469-.12476,1.9541.74695a19.986,19.986,0,0,1-.18823,5.424,14.48171,14.48171,0,0,1-2.08594,6.02026c-.77,1.21191-1.62915,2.3634-2.332,3.61841a4.35121,4.35121,0,0,0-.61084,1.69263,10.16276,10.16276,0,0,1-.95044,2.77563c-.01123.02612-.022.054-.0332.08008l29.9729-29.9729A82.34094,82.34094,0,0,1,90.5,172.855Z"/><path class="cls-1" d="M104.531,148.621c.0022-.015.01392-.03577.01758-.05164C104.55347,148.50049,104.55078,148.49634,104.531,148.621Z"/><path class="cls-1" d="M84.26855,122.53137c6.52124,1.90735,15.45581,1.09375,19.67114-4.87341a15.364,15.364,0,0,0,2.35425-12.14819,112.8745,112.8745,0,0,1,7.63477,10.33374,25.09771,25.09771,0,0,1,1.73682,3.1604,15.03291,15.03291,0,0,1,.67261,1.77747,1.95964,1.95964,0,0,1-.2644,1.8114c-1.16553,2.41956-2.32056,4.84424-3.49854,7.25781-2.37524,4.86572-4.5791,9.73486-6.51758,14.7937-.40869,1.06641-.8125,2.13477-1.22485,3.19971a5.8771,5.8771,0,0,0-.28418.72534,4.53532,4.53532,0,0,0-.0354.96033,7.124,7.124,0,0,1-.81909,1.08313,25.87424,25.87424,0,0,1-4.99,4.74719c-.91406.69543-1.8396,1.3761-2.739,2.09045-.67725.53784-2.33765,1.45874-2.26758,2.44531.09521,1.33765,1.44824.77417,2.08081.32251q1.75635-1.25427,3.48022-2.55322,3.093-2.3313,6.07715-4.80334c1.8396-1.52515,3.68579-2.92517,4.83618-5.06482,1.08838-2.02466,1.68945-4.26,2.60278-6.36084,1.05884-2.43555,2.1709-4.84924,3.25928-7.27173.90845-2.02258,1.82861-4.04053,2.71631-6.07227.55933-1.28,1.08716-2.584,1.73071-3.82446a7.82178,7.82178,0,0,0,1.23657-3.41675,3.15036,3.15036,0,0,0-1.28369-2.62476,8.11815,8.11815,0,0,1-2.44507-2.75879c-2.76-4.94824-6.59131-9.36169-10.07349-13.81006,1.71533,1.14063,3.83984,1.20776,5.8313,1.25757,2.42725.06079,4.85132-.079,7.27856.01a17.673,17.673,0,0,0,5.41284-.39124,3.36172,3.36172,0,0,0,1.41968-.75208,2.17963,2.17963,0,0,0,.5-.72949c.11426-.28174-.001-.97363.13525-1.13135.30225-.35034,1.49414-.53259,1.92285-.68542q1.69922-.60553,3.39844-1.2113c.81445-.29028,1.6792-.52734,2.46875-.87988a1.22127,1.22127,0,0,0,.12329-2.23926,2.45437,2.45437,0,0,0-1.71069.17175c-1.28345.38281-2.54565.84387-3.80786,1.29016-3.78638,1.3385-7.31421,2.70874-11.39136,2.75537-2.15234.02454-4.35083-.55835-6.48584-.36987a5.25666,5.25666,0,0,0-1.1958.23413,9.66619,9.66619,0,0,1-1.18164.5957c-.12207-.012-.31177-.27222-.41187-.33484a54.15944,54.15944,0,0,1-5.03906-4.099,21.84989,21.84989,0,0,1-1.93774-1.8363L77.99609,118.56006A13.26366,13.26366,0,0,0,84.26855,122.53137Z"/><path class="cls-1" d="M118.54321,78.66882a13.129,13.129,0,0,1,2.64307-1.43262A4.61036,4.61036,0,0,0,123.22,76.0166c1.36011-1.4519,2.01563-3.6626,2.78906-5.46948l-8.94751,8.94751C117.55566,79.21973,118.05835,78.958,118.54321,78.66882Z"/><path class="cls-1" d="M69.63989,144.90186a14.18914,14.18914,0,0,0,3.06982,5.37061c1.92969,1.85815,4.12231,3.51,6.22412,5.167q3.03772,2.39484,6.18433,4.64709c.65015.46521,1.91455,1.26624,2.22876-.0509.23828-.99756-1.407-1.92529-2.06372-2.45142-1.93677-1.55176-4.04028-2.9209-5.83545-4.64233a20.54,20.54,0,0,1-1.9563-2.19141,5.30461,5.30461,0,0,1-.87939-1.16992,15.51646,15.51646,0,0,0-.29077-1.54236c-1.86475-4.84534-3.65552-9.72876-5.94531-14.395q-1.22937-2.50543-2.44727-5.01575l-3.7019,3.70215c.13623.31079.27.62378.40869.93262C66.36865,137.11914,68.14233,140.947,69.63989,144.90186Z"/><path class="cls-1" d="M73.32666,70.282c-1.37988-1.92041-2.78125-3.82678-4.14062-5.7616-.36572-.52063-.6897-1.06592-1.02246-1.60815-.342-.55774-.687-1.1167-1.07983-1.6405-.428-.57031-.8208-.76086-.79663-1.45044a36.74757,36.74757,0,0,1,.62671-4.103q.35156-2.30823.7019-4.61682c.45386-2.96326.91675-5.925,1.40649-8.88269.43774-2.64526.53833-5.77722,1.84814-8.1626,2.09131-3.80823,4.376-7.533,6.55225-11.29858a8.59048,8.59048,0,0,0,.63965-1.10669.96922.96922,0,0,0-1.62036-1.04907A18.95189,18.95189,0,0,0,74.73462,22.96c-1.53687,2.12329-3.06982,4.24939-4.56641,6.40149a25.7164,25.7164,0,0,0-3.60742,6.55579,12.60785,12.60785,0,0,0-.63062,3.49731,23.05068,23.05068,0,0,1-.79395,4.47388q-.95325,4.11145-1.85181,8.23511A23.47275,23.47275,0,0,1,62.2605,55.929a6.02517,6.02517,0,0,0-.23877,3.738c.64136,2.53687,2.55615,4.56348,4.2417,6.469,4.34985,4.91663,7.25244,10.98071,11.26025,16.1709q-5.387-2.69128-10.77393-5.38281c-.57007-.28479-1.13574-.5813-1.71118-.855-.95605-.45459-2.57275-.74585-3.33936-1.47375-.594-.564-.78589-2.14783-1.10986-2.96484a35.09242,35.09242,0,0,0-1.69287-3.5968c-1.17554-2.19812-2.52051-4.30054-3.84692-6.40918A47.353,47.353,0,0,1,51.89063,56.269c-.78857-1.72681-.47168-3.65552-.88013-5.473-.18188-.80945-.8418-1.3938-1.69336-.81555-.57153.38806-.44141,1.12976-.44189,1.73413-.00122,1.14917-.00415,2.30029.0752,3.44751a15.34752,15.34752,0,0,0,1.93018,6.783c.78711,1.34155,1.749,2.57422,2.531,3.92126a4.52227,4.52227,0,0,1,.71045,1.557,4.64462,4.64462,0,0,0,.17334,1.32544c.21558.58154.49829,1.14868.74414,1.71826.82764,1.91809,1.53223,4.47266,3.16333,5.87988a10.80932,10.80932,0,0,0,2.499,1.16968c1.2312.635,2.37622,1.47644,3.60181,2.13635q3.83167,2.06323,7.68042,4.09485,3.17725,1.68091,6.36035,3.35132l4.07788-4.078a66.02628,66.02628,0,0,0-4.49-6.30994Q75.63513,73.49255,73.32666,70.282Z"/><path class="cls-1" d="M115.16235,39.62061c-.09229-4.97144-3.36792-9.05786-6.12207-12.92578-1.14893-1.61377-2.31421-3.21582-3.47534-4.82092a10.79427,10.79427,0,0,0-.90649-1.2533c-.67627-.68823-1.93457-.37122-1.74683.75171.16455.98413,1.177,2.12317,1.67188,2.97681,1.33643,2.306,2.636,4.63342,3.97241,6.93921.564.97266,1.19434,1.9082,1.72485,2.89868a11.46375,11.46375,0,0,1,1.02612,3.593c.53467,3.03552,1.03149,6.07751,1.51074,9.12207.26,1.65283.50977,3.30737.76245,4.96118l3.40479-3.40479c-.031-.14893-.06055-.30029-.09351-.4469C116.28247,45.30664,115.21387,42.38452,115.16235,39.62061Z"/><path class="cls-1" d="M85.20654,80.23706l2.72217-2.72229a3.84533,3.84533,0,0,0-1.08862.38489A3.61839,3.61839,0,0,0,85.20654,80.23706Z"/><path class="cls-1" d="M65.521,98.9021a28.62734,28.62734,0,0,1-6.156.09644c-3.64258-.37488-6.99951-1.88159-10.42725-3.073-.95361-.33142-3.71753-1.81738-4.63428-.74316-1.52271,1.78394,1.81885,2.43506,2.85156,2.80322q1.60107.57074,3.20239,1.14136a7.36992,7.36992,0,0,1,2.11743.75488c.282.2666.13867,1.06665.42944,1.51758a2.72379,2.72379,0,0,0,1.3623,1.00977,14.86274,14.86274,0,0,0,5.39526.53c.95142-.02026,1.9021-.01465,2.85278-.0105l4.14966-4.14966C66.2832,98.81372,65.9021,98.85889,65.521,98.9021Z"/></g></g></svg>