<svg xmlns="http://www.w3.org/2000/svg" xmlns:xlink="http://www.w3.org/1999/xlink" viewBox="0 0 181 181"><defs><style>.cls-1{fill:#a71e27;}.cls-2{fill:url(#redSHdwd);}</style><radialGradient id="redSHdwd" cx="90.5" cy="90.5" r="90.5" gradientUnits="userSpaceOnUse"><stop offset="0" stop-color="#b54d41"/><stop offset="0.30696" stop-color="#b2433c"/><stop offset="0.82628" stop-color="#aa282d"/><stop offset="1" stop-color="#a71e27"/></radialGradient></defs><title>termites</title><g id="Layer_2" data-name="Layer 2"><g id="background"><path class="cls-1" d="M98.36353,98.19275l1.92773-1.92761a9.862,9.862,0,0,0-2.28882-1.225C98.09521,96.10449,98.2124,97.15289,98.36353,98.19275Z"/><path class="cls-1" d="M104.196,88.2572a5.84118,5.84118,0,0,1,4.06787-3.2851,8.68887,8.68887,0,0,0,1.55957-.6615q-.05713-.25754-.11377-.51477c-3.15308,0-6.30811-.05737-9.459.02905-1.21582.03345-1.656.70026-1.27979,2.05a10.13457,10.13457,0,0,1,.34546,3.96234,3.0447,3.0447,0,0,0,1.425,3.23248c.50757.40613,1.00439.82562,1.5061,1.23907l3.678-3.678c-.14575-.00165-.2915.00317-.437.00092C103.64111,90.60321,103.33838,89.88879,104.196,88.2572Z"/><path class="cls-1" d="M107.8645,88.65558l.033.00323.73706-.737A9.27971,9.27971,0,0,0,107.8645,88.65558Z"/><path class="cls-1" d="M97.37915,70.653c1.94189-1.43414,4.02344-2.87891,5.98389-4.47272a7.00255,7.00255,0,0,0,1.39063-2.147c1.06128-1.9397,2.13525-3.87531,3.10352-5.86145a10.65416,10.65416,0,0,0,.416-1.00153L96.36353,69.08008C96.72021,69.63245,97.06763,70.17047,97.37915,70.653Z"/><path class="cls-2" d="M90.5,0A90.5,90.5,0,1,0,181,90.5,90.50006,90.50006,0,0,0,90.5,0Zm0,172.855a81.97625,81.97625,0,0,1-49.92578-16.87292l38.32544-38.32544c.0293-1.92267.14355-3.853.2041-5.775.126-3.99707,2.06421-7.47144,3.22559-11.17487A30.01361,30.01361,0,0,0,83.009,94.957q-.22888-.199-.458-.3985-5.6521,4.744-11.30371,9.48822.13953.25186.27881.50366c1.3418-.2121,2.68359-.42444,4.07275-.644-.19775,2.83234-3.86719,9.0553-5.78613,9.566.707-1.30463,1.35547-2.39648,1.90112-3.537.533-1.114.96118-2.27783,1.44824-3.451a32.49215,32.49215,0,0,1-4.02222-.03162c-1.83569-.23639-2.26245-1.24713-1.07178-2.69012a32.81862,32.81862,0,0,1,4.072-4.1322c2.752-2.33282,5.55737-4.61475,8.47119-6.73871,1.19751-.87317,1.2312-1.76013,1.10645-3.02655a10.56759,10.56759,0,0,1,.22583-3.91974c.311-1.0639.11475-1.677-.49292-1.95264l-4.50586,4.506c.69824,1.13916.178,2.02979-1.05054,2.08246-.35083.01514-.70239.01575-1.05371.02173L25.01782,140.42566A82.341,82.341,0,0,1,140.42554,25.01794L109.78271,55.66083a4.73243,4.73243,0,0,1-.054,1.2981,11.83972,11.83972,0,0,1-.88062,2.23358c-1.28394,2.7876-2.58643,5.56689-3.88452,8.34784a11.76556,11.76556,0,0,1-.72021,1.47c-.83862,1.28925-1.45361,2.98029-2.64795,3.72125a9.24168,9.24168,0,0,0-3.67773,4.3222c-.37842.88287.38428,2.25488.51538,2.86511,4.4126.1853,8.37671.2616,12.32129.58118.9751.07922,2.7334,1.09564,2.67578,1.42938a7.54441,7.54441,0,0,1-.53638,1.73291l43.08813-43.08813A82.3409,82.3409,0,0,1,90.5,172.855Z"/><path class="cls-1" d="M111.74316,85.43976a6.06062,6.06062,0,0,0,1.15063-1.77734l-4.25928,4.2594C109.70605,86.99738,110.85938,86.348,111.74316,85.43976Z"/><path class="cls-1" d="M115.05078,90.52368a2.78684,2.78684,0,0,0,.93384-.40863c.01318-.2168.02588-.4339.03931-.65082q-4.06348-.40256-8.12646-.80542l-1.97192,1.972C108.96655,90.66583,112.00952,90.58807,115.05078,90.52368Z"/><path class="cls-1" d="M109.43213,104.53223c-1.44165-.20154-2.81909-.39429-4.426-.61884,2.29028,6.09662,4.30273,9.24359,5.95166,9.41736-1.0957-2.2691-2.18018-4.51428-3.35229-6.94159,1.80371,0,3.24048.10895,4.65161-.03278a.5859.5859,0,0,0,.07422-.01282.33213.33213,0,0,0,.14844-.0293l.00439-.00366c1.0332-.211,1.22632-1.04449.74829-2.02057a4.37049,4.37049,0,0,0-.99829-1.34778c-3.312-2.89789-6.59253-5.83673-9.98657-8.63348l-1.9563,1.95636C103.459,98.35754,108.17407,102.4845,109.43213,104.53223Z"/><path class="cls-1" d="M109.02466,54.93512c-.26123.73975-.4812,1.49969-.75146,2.23511l1.50952-1.5094c-.012-.22968-.02466-.45941-.02466-.68628Q109.39148,54.95477,109.02466,54.93512Z"/><path class="cls-1" d="M79.01416,121.55292a4.92,4.92,0,0,0,2.94189,4.35132,1.12574,1.12574,0,0,1,.5542.45251c1.94043,3.586,3.17651,7.2193,1.813,11.41022a77.78027,77.78027,0,0,0-2.28174,9.43085c-.48315,2.51959.52466,4.47021,2.06445,5.06317a10.85754,10.85754,0,0,1-.38257-3.31482,40.45632,40.45632,0,0,1,1.93188-7.14526c1.46362-3.76111,3.99292-7.24139,2.0896-11.36011.84277.86182,1.79688,2.00879,2.72144,1.98572.90894-.02283,1.78784-1.23364,2.33154-1.65375-1.46069,3.493.67749,6.84985,2.2,10.34869a31.75876,31.75876,0,0,1,1.95581,5.24219c.51685,2.1817.90869,4.48-1.04663,6.55463a4.82161,4.82161,0,0,0,2.97363-5.78809c-.68579-3.47656-1.69067-6.88879-2.4668-10.34924-.989-4.41034-.04541-8.2655,3.40894-11.39319a4.46416,4.46416,0,0,0,1.4541-2.20929,29.727,29.727,0,0,0,.82861-7.19495c-.22974-3.5365-.37329-7.31958-1.75-10.476a28.04816,28.04816,0,0,1-1.99194-7.31476L78.89966,117.65662A35.70746,35.70746,0,0,0,79.01416,121.55292Z"/><path class="cls-1" d="M95.67114,68.0083c4.01392-2.79425,4.28735-5.10168,1.00586-8.30048a20.77281,20.77281,0,0,0,1.63916-2.71014c2.25635-5.40314,6.24536-9.60986,9.75317-14.13489,1.42993-1.84467,3.80591-3.11072,4.77856-5.11273a12.80361,12.80361,0,0,1,4.34644-4.61041c3.81055-2.78827,8.13989-4.7691,13.18213-3.49066a3.65987,3.65987,0,0,0,1.30981-.18011q.00732-.28143.01416-.563a10.93391,10.93391,0,0,0-5.88086-.66046c-1.91211.382-3.73462,1.27606-5.65308,1.54956-2.76929.39471-4.417,2.36884-6.19287,4.06067a55.61767,55.61767,0,0,0-4.41553,5.431c-.9624,1.18408-1.77783,2.621-2.99854,3.43524-2.96045,1.97394-4.35889,5.0611-6.19751,7.849-1.676,2.5415-3.32935,5.098-5.1001,7.81287-.50879-2.17578-.94043-4.02179-1.37183-5.86792q-.34021.05951-.67993.119c.17041,1.34485.34082,2.69.45459,3.58777H87.26123c.12939-.98877.29907-2.28247.46851-3.57617l-.67554-.13c-.44653,1.87042-.89307,3.741-1.38257,5.79041-1.17139-1.72675-2.33984-3.181-3.21777-4.79327A68.71512,68.71512,0,0,0,72.7915,40.41534c-2.65454-2.93622-5.62256-5.59344-8.21484-8.5799-1.803-2.07739-4.42407-2.016-6.58228-3.11511a7.89087,7.89087,0,0,0-3.09058-.554c-1.94092-.10284-3.89722-.12067-5.60425,1.32843a9.71329,9.71329,0,0,0,1.8291-.01648,13.2813,13.2813,0,0,1,9,1.436c3.09448,1.70563,6.41479,3.45831,7.94043,7.07147a2.4173,2.4173,0,0,0,.76367.81293c4.05811,3.24988,6.90527,7.54517,9.88232,11.69092,2.08472,2.90332,3.76636,6.096,5.61914,9.145-3.3562,3.21-3.05957,5.65326.92773,8.38013-.59766.925-1.19678,1.85162-1.7002,2.63074C81.60962,69.209,79.54,67.74786,77.55249,66.18292a5.05131,5.05131,0,0,1-1.29-1.79926c-1.42773-2.99689-2.79028-6.02454-4.19629-9.0318-.08594-.18341-.34546-.28564-.835-.66956-.105.77234-.35986,1.33862-.20654,1.75433.55322,1.498,1.22095,2.95605,1.89111,4.40814.436.945,1.03442,1.82062,1.41626,2.78424,1.543,3.89557,2.70508,7.96661,6.63892,10.39594a4.86264,4.86264,0,0,1,1.91772,1.99329l-.00122-.00031a3.33979,3.33979,0,0,1,.26074.77936c.01611.07251.02734.15228.03833.23181.00317.02539.00757.0506.01025.076l.00317.00745.00049.00024.00439.00446-.00684.00189a3.32619,3.32619,0,0,1,.01465.33441l-.00146.0528c-.00146.07886-.00781.15784-.01489.23676-.00415.04565-.0083.09113-.01416.13678q-.01648.12534-.042.25031c-.009.04358-.01978.08722-.03027.13068-.01514.0625-.03247.12488-.05078.18726-.01294.04248-.02515.08514-.03931.12769A4.66324,4.66324,0,0,1,82.3,79.90649c-4.32886.18982-8.23486.27014-12.12036.59467-.97705.08154-2.73682,1.09283-2.6792,1.42371A11.473,11.473,0,0,0,69.15454,85.48c.19434.33374.72949.45642,1.08179.71277.98535.71808,1.95654,1.45544,3.2644,2.43231-3.15137.319-5.85352.59253-8.55542.86615q.02234.41922.04443.83826c.55225.05927,1.10327.144,1.657.17059.6084.0293,1.22021-.00391,1.82983.00513,2.12134.03143,4.24585.13373,6.364.09778l2.10425-2.10419c-.00854-.01392-.01221-.02679-.02124-.04083-1.04077-1.63727-2.11694-3.2619-4.33667-3.51367a5.24442,5.24442,0,0,1-1.50146-.70209q.07214-.22723.14478-.45471c3.11279,0,6.22681-.05695,9.33716.02783a2.28044,2.28044,0,0,1,.8833.17749L96.36353,69.08008Q96.02075,68.54953,95.67114,68.0083Z"/></g></g></svg>