<svg xmlns="http://www.w3.org/2000/svg" xmlns:xlink="http://www.w3.org/1999/xlink" viewBox="0 0 181.00024 181"><defs><style>.cls-1{fill:#b54d41;}.cls-2{fill:#a71e27;}.cls-3{fill:url(#redSHdwd);}</style><radialGradient id="redSHdwd" cx="90.50012" cy="90.5" r="90.50006" gradientUnits="userSpaceOnUse"><stop offset="0" stop-color="#b54d41"/><stop offset="0.30696" stop-color="#b2433c"/><stop offset="0.82628" stop-color="#aa282d"/><stop offset="1" stop-color="#a71e27"/></radialGradient></defs><title>thrips</title><g id="Layer_2" data-name="Layer 2"><g id="Layer_1_copy_2" data-name="Layer 1 copy 2"><path class="cls-1" d="M109.89966,80.63428a1.964,1.964,0,0,1-.85571-.74561,20.27545,20.27545,0,0,0-4.03027-5.21777c-1.24976-1.30762-2.52979-2.59521-3.8103-3.88232a2.90017,2.90017,0,0,0-.58252-.3501c.02661.23535-.03174.51172.09692.69775.29688.42969.69629.80908,1.03369,1.2207,1.65308,2.01416,3.31543,4.02393,4.94287,6.05273,1.292,1.61035,2.58569,3.22266,3.79175,4.87891.39453.5415.76,1.09766,1.13086,1.65137l1.13647-1.13672c-.25635-.35205-.5188-.70117-.77075-1.05518A6.06179,6.06179,0,0,0,109.89966,80.63428Z"/><path class="cls-1" d="M105.564,67.01318c.99731,1.24561,2.04443,2.46338,3.0918,3.68018,1.35815,1.57764,2.75562,3.13232,4.10254,4.71631,1.2876,1.51465,2.543,3.04834,3.81885,4.56982l1.58936-1.58936c-.488-.59326-.97437-1.1875-1.49951-1.75732-1.238-1.3418-2.53784-2.64453-3.813-3.9624-2.34692-2.42529-4.67822-4.86133-7.04785-7.27051q-1.426-1.4502-2.8855-2.87646l-.54712.54688c.40161.39795.801.79736,1.16821,1.2168C104.29517,65.147,104.853,66.12451,105.564,67.01318Z"/><path class="cls-2" d="M72.86523,98.62549c.09912.20313.35254.35352.53467.52832.12646-.22363.35449-.44531.3623-.67187.0376-1.11914.01709-2.24023.01709-3.36035h-.01709c0-1.14209.01074-2.28418-.01416-3.42578l-1.15332,1.15332c-.02734.11914-.0625.23682-.084.356A8.4744,8.4744,0,0,0,72.86523,98.62549Z"/><path class="cls-1" d="M88.30615,83.00391a3.83242,3.83242,0,0,1,.99634.36035,4.6026,4.6026,0,0,1-1.012.35693c-2.12769.23535-4.2627.42383-6.39185.65234a1.75611,1.75611,0,0,0-1.62549,1.0166c-.56812,2.14551-1.03735,4.31055-1.49,6.47656-.14893.71387.05029.856.94189.82227,1.06152-.04,2.13062-.0708,3.17871-.20361a85.71073,85.71073,0,0,1,14.46191-.2832c1.68286.07178,3.35938.25,5.0376.38818.58472.04834.9104-.16309.88306-.64551a8.38492,8.38492,0,0,0-.22827-1.8916c-.45483-1.55176-1.00562-3.084-1.49707-4.62842a1.30981,1.30981,0,0,0-1.15332-.95557c-.36279-.05615-.73242-.0835-1.09961-.11816q-3.74963-.35815-7.49927-.71387c-.0459-.00439-.11011.00293-.134-.019-.18091-.167-.49414-.34229-.49121-.51123.00317-.18262.26318-.44482.4856-.52148a2.34907,2.34907,0,0,1,.95654-.04395c1.373.144,2.74292.30762,4.113.47168.88721.10645,1.77051.23682,2.65869.3374.686.07813,1.37573.14453,2.06641.18164.39209.021.71826-.12012.61328-.51318a9.93166,9.93166,0,0,0-.479-1.3877c-.36694-.8457-.75952-1.68408-1.16406-2.51807a12.74968,12.74968,0,0,0-.95532-1.77979,2.56027,2.56027,0,0,0-1.03345-.82959,6.54785,6.54785,0,0,0-3.04419-.625c-1.24219.0708-2.49463.01611-3.74268.01611v.06348c-.72412,0-1.44824-.00488-2.17212-.001l-7.4502,7.4502c.12109-.02441.24414-.04346.36328-.07227A19.26006,19.26006,0,0,1,88.30615,83.00391Z"/><path class="cls-1" d="M97.33423,75.0498c.76465-.00439,1.04907-.44141.68872-1.01416a6.67774,6.67774,0,0,0-3.80615-2.80859l-3.82544,3.82568c.35205-.00049.70386.00049,1.05591.00049C93.40967,75.05322,95.37183,75.06006,97.33423,75.0498Z"/><path class="cls-1" d="M100.57275,93.37939c-2.17065-.06445-4.33813-.23682-6.50854-.25732-2.262-.021-4.53149.01514-6.78687.15186-2.13916.12988-4.26782.40186-6.394.65234-1.25146.14746-1.811.64893-1.96924,1.707-.17236,1.15039-.2832,2.30615-.43311,3.459-.13281,1.01563-.3418,2.02783-.4082,3.04639-.0835,1.2749.168,1.45361,1.6748,1.44727q6.63867-.02783,13.27734-.0542l9.55054-9.55078C102.22461,93.53955,101.65088,93.41162,100.57275,93.37939Z"/><path class="cls-1" d="M110.02344,58.36914c.33716-.48682.168-.76367-.2771-1.00488a2.23247,2.23247,0,0,0-.83911-.21191,5.26994,5.26994,0,0,0-.59839-.01709l-3.03,3.02979c.26416.07617.52051.12744.69946.17725C107.73145,60.20654,109.03052,59.80176,110.02344,58.36914Z"/><path class="cls-3" d="M90.50024,181A90.5,90.5,0,1,0,0,90.5,90.49995,90.49995,0,0,0,90.50024,181Zm0-172.855a81.97519,81.97519,0,0,1,49.92578,16.873L109.583,55.86084a3.73164,3.73164,0,0,1,3.37158,1.792,33.01767,33.01767,0,0,1,2.5166,4.2915,6.28545,6.28545,0,0,1,.64526,3.96729,3.40033,3.40033,0,0,0,.67993,2.70752c.79663,1.22021,1.84644,2.31787,1.88354,3.84424.02661,1.09229,1.14136,1.65967,2.22095,2.09668.26416.10693.54077.19238.81665.2793l34.26489-34.26514a82.35922,82.35922,0,0,1,10.63965,81.376c.12109.125.24609.24756.3667.37256.17407.18066.11768.5166.16846.78027a2.634,2.634,0,0,1-.87207-.26465l-.01416-.01221c-.248.55859-.511,1.11133-.76416,1.66895a2.39,2.39,0,0,1-.12427.44238c-.02148-.00586-.04687-.00879-.06982-.01318a82.33281,82.33281,0,0,1-124.738,31.05762L77.14063,119.416c.01074-1.21631.02734-2.43262.01709-3.64893a3.92557,3.92557,0,0,0-.21777-1.31641,11.60082,11.60082,0,0,1-.24414-5.34912c.08838-.86328.12549-1.731.17285-2.59717.14648-2.66357.33887-5.32715.41162-7.99219.061-2.2417-.01367-4.48584-.04395-6.72852-.0083-.62891-.543-1.33447-.96484-1.34375-.36279-.0083-.9707.78125-.98633,1.34961-.05762,2.06836-.16113,4.13867-.11572,6.20654a5.75492,5.75492,0,0,1-1.25293,3.23877c-.5791.897-1.16113,1.79248-1.72314,2.69629-.41992.67529-.77686,1.37939-1.23437,2.03516a.99053.99053,0,0,1-.76855.32813,1.09645,1.09645,0,0,1-.95361-.81543,2.829,2.829,0,0,1,.89063-2.41553A3.92467,3.92467,0,0,0,70.96,99.74463a34.76034,34.76034,0,0,0-.83887-3.57715,1.43283,1.43283,0,0,0-.35742-.4873l-.96924.96924c-.01221.02734-.02393.05469-.03711.08154-.44971.92432-.89355,1.85059-1.34814,2.77295-.332.67334-.6416,1.35693-1.02686,2.0083-.5874.99316-1.23047,1.96289-1.85205,2.94141-.55908.88086-1.11377,1.76367-1.68359,2.63965-.61621.94824-1.24512,1.89063-1.873,2.833-.57959.87061-1.13525,1.75391-1.75586,2.60352-.79053,1.08252-1.62842,2.14111-2.46,3.20215a10.79828,10.79828,0,0,0-1.022,1.22949,2.47918,2.47918,0,0,1-1.56738,1.05811,2.1707,2.1707,0,0,0-1.56641,1.48926,10.943,10.943,0,0,1-.71777,1.75244c-.09277.1792-.42529.27246-.64795.40479-.05811-.188-.20654-.39307-.16064-.561q.57715-2.113,1.22021-4.21338c.20361-.66895.58887-1.32178-.03662-1.98584-.07275-.07812-.00293-.30029.07813-.41943.249-.36816.52734-.72363.81006-1.0752.30713-.38232.41211-.74268-.04395-1.0708L25.01807,140.42578A82.34094,82.34094,0,0,1,90.50024,8.145ZM53.23584,123.11133c.10791-.52588.17188-.90771.2666-1.28418.17285-.689.3418-1.37988.562-2.05859.05957-.18506.29541-.33057.45068-.49365.12354.18262.33643.36133.34863.54932a1.52061,1.52061,0,0,1-.18213.84375,4.223,4.223,0,0,0-.5376,2.24072.2.2,0,0,1-.01465.11377c-.14062.19678-.28906.39063-.43457.58545C53.52,123.41895,53.3457,123.23047,53.23584,123.11133Zm3.0127-2.74854c.22412-.99316.39307-1.82422.61523-2.645.03809-.13965.30615-.23584.46729-.35205.11963.147.32764.28955.33936.44189a2.824,2.824,0,0,1-.13916.7915c-.12646.56494-.22607,1.13623-.40625,1.68848a2.58583,2.58583,0,0,1-.50049.65625ZM57.8418,121.814a1.223,1.223,0,0,1,.04834-.45752q.27832-1.35864.56592-2.71582c.05811-.27441.12744-.54687.20068-.85986.209.06445.27051.06641.29.0918a3.9781,3.9781,0,0,1-.17627,3.44629c-.16553.1792-.25391.40674-.40234.59814a1.247,1.247,0,0,1-.29443.2041C57.99268,122.019,57.86328,121.92383,57.8418,121.814Zm2.563-5.99121q.31274-.36328.62549-.72754c.12549.29883.25781.5957.37012.89746a.26374.26374,0,0,1-.043.22217c-.1333.18311-.28711.355-.43311.53125-.11914-.20068-.24756-.39795-.353-.60352-.0332-.06445-.00488-.15088-.00488-.22705C60.51221,115.88428,60.4585,115.854,60.40479,115.82275Zm3.98437-6.89746c.25879-.13232.36865-.48975.50586-.75977a5.81094,5.81094,0,0,0,.26123-.71973l.30908.02051a3.59639,3.59639,0,0,1,.16553.68408c.07373,1.71289.14355,3.42627.1748,5.13965.00342.20166-.23584.40674-.3623.60986-.1626-.15186-.47656-.3125-.46436-.4541.105-1.24658-.72119-2.29492-1.0127-3.4541C63.84668,109.51611,63.83154,109.21094,64.38916,108.92529Zm3.49268-4.4834c.02979-1.13184.10107-2.26221.16162-3.39307q.18018.00513.36035.01074c.04541.50928.09717,1.01807.13574,1.52783.04395.57471.10156,1.15039.09619,1.7251-.00146.144-.22119.28662-.34033.42969C68.15088,104.6416,67.87891,104.53906,67.88184,104.44189Z"/><path class="cls-2" d="M119.80591,75.36133a.26914.26914,0,0,0-.12183-.05322c-.35791-.02148-.71582-.03711-1.074-.05469a2.91032,2.91032,0,0,0,.37085.79492,4.32548,4.32548,0,0,0,.82007.707l.97778-.97754A3.07356,3.07356,0,0,1,119.80591,75.36133Z"/><path class="cls-1" d="M113.58325,80.69434a1.63119,1.63119,0,0,0,.53516.18066c.06836-.15186.21582-.3125.19312-.4541a4.65834,4.65834,0,0,0-3.00391-3.95068,1.85525,1.85525,0,0,1-.73193-.752c-.35693-.54443-.65283-1.11719-1.01953-1.75781-.14258.17383-.2439.24268-.25537.3208a2.16355,2.16355,0,0,1-.66357,1.60205c-.06934.05566-.01709.31445.0791.40283Q111.13184,78.50464,113.58325,80.69434Z"/><path class="cls-1" d="M78.69727,115.49365c-.04541.4624-.0957.9248-.12354,1.38818q-.03589.5874-.07422,1.17529l4.67432-4.67432a21.22366,21.22366,0,0,0-2.72534.46143C79.31543,114.124,78.79541,114.4917,78.69727,115.49365Z"/><path class="cls-1" d="M80.01782,104.81689c-.79663.11133-1.238.42578-1.36548,1.18066-.27441,1.62549-.51807,3.25488-.77686,4.88281a8.98055,8.98055,0,0,1-.16846.91553c-.17627.65918-.02588.876.78662.85645,1.29346-.03076,2.58325-.15869,3.87646-.189q.88293-.02051,1.76611-.043l8.08154-8.08154c-.90967.0293-1.81958.0498-2.729.04395A64.82929,64.82929,0,0,0,80.01782,104.81689Z"/><path class="cls-1" d="M104.74194,88.51709a6.01563,6.01563,0,0,0-.592-.32568c-.06177.18408-.21484.38525-.17139.5498a12.556,12.556,0,0,1,.33984,3.49707l2.34155-2.3418c-.07886-.05273-.158-.106-.23535-.15967C105.855,89.33838,105.30908,88.91748,104.74194,88.51709Z"/><path class="cls-1" d="M113.12012,66.88574c-.21436.41406.001.78857.50806.93066a.69732.69732,0,0,0,.96729-.57617c.11792-.56836.19434-1.14258.32886-1.95752-.24829-.87793-.5188-1.96875-.87744-3.03857a4.19442,4.19442,0,0,0-.75244-1.22852c-.12744-.1582-.4519-.21338-.69922-.28369a.60093.60093,0,0,0-.20288.313c-.10645.959-.17529,1.9209-.28979,2.87939a2.6487,2.6487,0,0,0,.84058,2.085C113.21021,66.30811,113.30664,66.52539,113.12012,66.88574Z"/><path class="cls-2" d="M65.58594,100.01172c.0791-.12256.146-.25049.22119-.37451l-1.21289,1.2124c.02588-.00928.05176-.001.07764-.01562A2.7377,2.7377,0,0,0,65.58594,100.01172Z"/><path class="cls-2" d="M59.79932,108.25928c-.38477.69678-.71875,1.47607-1.7998,1.69189-.93408.186-1.22607.89941-1.55762,1.51123a1.89466,1.89466,0,0,0-.05127,1.13232c.01758.12207.40039.33643.50488.29785a3.48241,3.48241,0,0,0,1.27295-.646,13.90783,13.90783,0,0,0,1.53223-1.98193c1.19727-1.81592,2.40723-3.62842,3.501-5.48779a11.63134,11.63134,0,0,0,.93164-2.53418c.07031-.22852-.0752-.50342-.12109-.75732l-.04053-.01318-1.4917,1.4917c-.20605.40039-.38965.81152-.59277,1.21436C61.19922,105.5415,60.54053,106.9165,59.79932,108.25928Z"/><path class="cls-1" d="M106.41382,73.94775a7.18755,7.18755,0,0,0,.8811.439,4.71636,4.71636,0,0,0,.94727.085,3.61521,3.61521,0,0,0-.15283-.78467c-.16821-.39746-.40405-.7749-.61157-1.16064.07153-.02295.14282-.04639.2146-.06934a2.45807,2.45807,0,0,0-.2041-.89209c-.20117-.30322-.44507-.8584-.96533-.6167-.50391.23438-.15088.68311.09277,1.01514.41626.56787.37988.7251-.25684,1.07666C105.80591,73.3457,105.83154,73.68457,106.41382,73.94775Z"/><path class="cls-1" d="M106.54077,61.394c-.07739.01563-.1377.08838-.28027.18506a2.23641,2.23641,0,0,0,.30957.229c.80811.3833.80933.38135.022.81738a.53355.53355,0,0,0,.0249,1.02441c.59888.28564,1.22217.53613,1.81567.8291,1.22363.604,2.30908.2002,2.49731-.99023a13.787,13.787,0,0,0,.07349-1.90967c.01343-.749-.28833-.99365-1.176-.84619C108.7229,60.9165,107.63428,61.166,106.54077,61.394Z"/><path class="cls-1" d="M97.75732,69.85889c-.938.60889-.76367,1.6875.31055,2.09277.60278.22754,1.00293.01563.999-.71973a6.38242,6.38242,0,0,0-.36938-1.09033A.62092.62092,0,0,0,97.75732,69.85889Z"/><path class="cls-1" d="M101.79883,69.3335c.22559.81348.97852,1.22705,1.80347,1.56738a5.31732,5.31732,0,0,0,.76978.2583c.28833.07031.58984.103.88525.15234a2.16311,2.16311,0,0,0,.07935-.87842c-.366-1.0542-.81079-2.08887-1.2124-3.13477-.35156-.915-.761-1.17969-1.90747-1.19727-.82349-.01221-1.105.207-.9834.91211A23.85456,23.85456,0,0,0,101.79883,69.3335Z"/><path class="cls-1" d="M106.79272,84.3667c-.49585-.48193-.95728-.99121-1.49243-1.43945a1.40113,1.40113,0,0,0-.8479-.24512c-.10718.00293-.2605.36768-.29126.57764A4.60192,4.60192,0,0,0,105.6167,87.458c.38062.36523.83789.67383,1.25488,1.00342a2.59116,2.59116,0,0,0,.61133-.24658c.41626-.36084.81982-.73389,1.197-1.12354a.6037.6037,0,0,0-.07275-.9834C107.98413,85.5415,107.39307,84.9502,106.79272,84.3667Z"/><path class="cls-1" d="M106.21948,81.937q1.01477,1.01587,2.08984,1.98828c.126.11426.38745.124.58667.18164.03442-.17676.16309-.39209.08643-.52393a13.6777,13.6777,0,0,0-1.06494-1.60449,15.77823,15.77823,0,0,1-2.09961-2.61182,9.11085,9.11085,0,0,0-3.44189-3.877c-.5188-.335-1.11328-.5874-1.83887-.96387-.11646.24463-.30322.43652-.25562.56836.48511,1.34082,1.01563,2.67041,1.519,4.00684a2.89365,2.89365,0,0,0,2.56567,1.8501A2.92519,2.92519,0,0,1,106.21948,81.937Z"/><path class="cls-2" d="M122.84814,75.97119c.18213.00732.37671-.2002.56543-.30811-.13281-.1377-.23193-.33887-.40381-.40186-.42285-.15479-.85913-.28613-1.29224-.42187l-.93872.93848A10.25126,10.25126,0,0,0,122.84814,75.97119Z"/><path class="cls-2" d="M159.69287,114.98486c-.11279-.11426-.20117-.3501-.13379-.45361.06445-.09912.35059-.14307.53271-.13281.31982.01855.636.14209.95166.13672a2.56271,2.56271,0,0,0,.70508-.2207,2.17617,2.17617,0,0,0-.44336-.44971c-.8-.45117-1.64038-.855-2.42065-1.32812-.18408-.11133-.19238-.42578-.28149-.647a2.9976,2.9976,0,0,1,.72534-.09619c.47827.05371.94312.20313,1.42163.23975.20605.01611.43188-.14941.64893-.23242-.09863-.16064-.147-.39111-.304-.46875-.5481-.27148-1.12964-.49658-1.70581-.72705-1.28711-.51416-2.55835-1.062-3.87524-1.51758a2.77014,2.77014,0,0,1-2.0083-1.76074c-.18774-.666-.81152-.94092-1.40308-1.272q-1.80359-1.01-3.59058-2.041a.61628.61628,0,0,1-.239-.27979,3.7313,3.7313,0,0,1-.14746-.51953,2.21449,2.21449,0,0,1,.77368-.01758c1.22729.481,2.43066,1.00439,3.646,1.50684.49463.20459.98975.4126,1.50391.57715a1.46731,1.46731,0,0,0,.5564-.07275c-.05737-.13086-.07422-.29443-.18042-.38574a3.68355,3.68355,0,0,0-.92065-.67236c-1.61963-.68115-3.261-1.32666-4.90015-1.9751-.68677-.27148-1.39893-.49951-2.075-.7876a2.1984,2.1984,0,0,1-.54053-.47754,4.6133,4.6133,0,0,1,.5791-.354c.532-.23193.56421-.45312.06592-.75928a2.49065,2.49065,0,0,0-.60352-.28125c-.91309-.26172-1.83008-.51465-2.75293-.751-.60913-.15576-.66675-.25-.21875-.61572.32227-.26318.30347-.47363-.06689-.64111-.46289-.21-.9751-.34814-1.41943-.57959A15.7899,15.7899,0,0,1,139.804,95.8584c-.14355-.10059-.22266-.478-.12842-.55518a1.00676,1.00676,0,0,1,.71729-.13428c.41626.08838.793.30273,1.20728.40332a3.51333,3.51333,0,0,0,.81738.00391,1.70877,1.70877,0,0,0-.11108-.63916,1.02959,1.02959,0,0,0-.52734-.34375c-1.34351-.45361-2.70972-.8623-4.04175-1.33838a7.01824,7.01824,0,0,1-2.874-1.94385c-.13477-.14941-.11743-.394-.199-.70361.68433.21973,1.198.377,1.70459.54834,1.05981.35986,2.10815.74365,3.18042,1.07373.18042.05566.458-.10986.69067-.17285-.15942-.17627-.27393-.42822-.4856-.51611-.92187-.38184-1.87256-.71582-2.81226-1.06836-.71265-.26758-1.4187-.54687-2.1377-.80176-.7168-.25439-1.46387-.45312-2.16187-.73779a6.32888,6.32888,0,0,1-1.05176-.69482c.20581-.11279.31152-.2168.38477-.20264.30054.05762.58569.17285.887.2251a4.27328,4.27328,0,0,0,.6814.01172c-.09619-.14844-.1499-.34375-.29663-.43506-.38354-.23975-.80591-.43555-1.21582-.645-1.19751-.61133-2.40112-1.21484-3.58789-1.84033-.11938-.063-.14185-.25439-.20923-.38672.15771-.04687.33545-.15918.46948-.13037.48657.105.95581.26514,1.437.38916a11.75914,11.75914,0,0,0,1.31665.291.49664.49664,0,0,0,.3877-.25537c.02637-.09814-.127-.293-.25854-.34717-1.09326-.44775-2.209-.85791-3.29663-1.31494a4.05088,4.05088,0,0,1-.77832-.56152c.04907-.04395.09814-.08838.147-.13232a2.53111,2.53111,0,0,0,.47021.06445c.36572-.01758.57861-.20605.27808-.44092a13.55732,13.55732,0,0,0-2.00122-1.356c-.635-.33447-1.39722-.49512-2.06641-.79053-.25293-.11182-.40283-.38623-.59961-.58643.22656-.13428.45386-.26709.67944-.40234.14258-.08545.40186-.17969.39673-.26074a.56779.56779,0,0,0-.28857-.41016,11.60589,11.60589,0,0,0-1.354-.55859,14.25868,14.25868,0,0,1-3.37231-1.40674l-1.63452,1.63477c.29468.35791.58691.71729.89746,1.06543.86719.97266,1.75562,1.93457,2.69189,2.86084,2.84277,2.811,5.69141,5.61768,8.57837,8.397q4.48938,4.322,9.05688,8.58691c2.74731,2.57764,5.48535,5.16357,8.311,7.68066,1.52686,1.35986,3.23071,2.58008,4.84912,3.86865a2.2105,2.2105,0,0,1,.52856.52441c.22192.36865.00562.61084-.66968.57959a10.89171,10.89171,0,0,1-1.43237-.728c-2.54492-1.752-5.10083-3.49512-7.58081-5.31006a91.98028,91.98028,0,0,1-9.43164-7.82324c-2.10156-2.01855-4.31592-3.95605-6.387-5.99561-1.89233-1.86377-3.696-3.79346-5.47168-5.73633-1.63452-1.78906-3.19678-3.625-4.759-5.45947-.25977-.30518-.51318-.61475-.77051-.92139l-3.82373,3.82373q.92432,1.26782,1.85156,2.53418c.58789.80371,1.16626,1.61279,1.761,2.41309.58032.78125,1.18066,1.55273,1.7644,2.332.63379.84717,1.25708,1.69971,1.8877,2.54785,1.06885,1.438,2.13232,2.87891,3.21265,4.31055.61353.813,1.21948,1.6333,1.89233,2.41162,1.28,1.481,2.5708,2.95752,3.92187,4.39307,1.45288,1.54395,2.99829,3.02637,4.46143,4.564a7.01232,7.01232,0,0,1,.79077,1.32568c-.16431.03711-.35278.13623-.467.09424a2.46282,2.46282,0,0,1-.68262-.39062,36.60507,36.60507,0,0,1-6.06689-5.53467c-1.40479-1.78125-3.0127-3.4502-4.50732-5.18311-1.03613-1.20215-2.1167-2.38672-3.01367-3.65967a3.79552,3.79552,0,0,1-.92065-2.45068c.04468-.52148-.22705-.77246-.89209-.894a2.01188,2.01188,0,0,1-1.24365-.73145c-.78052-1.33691-1.83594-2.5249-2.74194-3.7915-.74194-1.0376-1.4375-2.09863-2.14429-3.15381l-4.957,4.95654c.50952.34131,1.01172.6792,1.01636,1.32471a22.56083,22.56083,0,0,0,.70117,5.92578,7.74155,7.74155,0,0,0,.96289,2.18652,24.52119,24.52119,0,0,0,2.07349,2.5835c.89844,1.0249,1.8396,2.02393,2.79565,3.01123a.85082.85082,0,0,0,.67529.17285,1.43488,1.43488,0,0,0,.5647-2.13477c-.77979-.8833-1.65356-1.71924-2.325-2.65674-.73779-1.03027-1.3208-2.13672-.65576-3.40332a2.26743,2.26743,0,0,0,.15771-1.0752c-.01123-.82861-.09082-1.65674-.09473-2.48486a.61446.61446,0,0,1,.32178-.50391c.74707-.17236.77271-.5918.62012-1.08594-.11475-.373-.29395-.73291-.40332-1.10693a7.23225,7.23225,0,0,1-.24976-1.1875c-.01318-.11279.16187-.24072.251-.36133.14331.08105.3584.13623.417.248a11.43986,11.43986,0,0,1,.68921,1.50781c.32227.92432.5791,1.86475.89087,2.7915a1.88632,1.88632,0,0,0,.384.54395c.59375.7041.59521.70117,1.11084.01514.02661-.03516.12036-.03516.2876-.07861a4.46869,4.46869,0,0,1-.00439.61963,1.98228,1.98228,0,0,0,.677,2.07324c.95337.78516.96118,1.13818.4021,1.96436a2.50437,2.50437,0,0,1-.49756.42334,4.27289,4.27289,0,0,1-.30493-.59424c-.15332-.45947-.24756-.93359-.427-1.38477a.59923.59923,0,0,0-.47705-.251.49577.49577,0,0,0-.313.38281,2.88736,2.88736,0,0,0,1.12988,2.51367,5.70668,5.70668,0,0,1,.99512.856,8.21216,8.21216,0,0,1,.70459,1.18164c.66626,1.16357,1.30835,2.3374,2.01367,3.48389a1.65569,1.65569,0,0,0,.81836.60059,1.76141,1.76141,0,0,1,1.22656,1.3335c.18555,1.04834.43945,2.08838.69482,3.127.10571.4292.47046.57861.94336.38281,1.0293-.42578,1.427-.78564,1.23291-1.63721-.26245-1.15088-.60742-2.24316-2.23169-2.56738-.11719-.02344-.21069-.12939-.38647-.24365,1.12622-.84766.66553-2.00879.89819-3.05811a16.69458,16.69458,0,0,1,1.14258,1.71436,10.40261,10.40261,0,0,0,.87451,1.23291c.07593.08887.39331.02637.59692.04932.18042.02051.47363.02.51709.10205a16.73944,16.73944,0,0,1,.81836,1.75879c.33643.86621.59814,1.75293.94043,2.61719.37622.94922.82764,1.87793,1.21143,2.82568.53931,1.333,1.03955,2.67725,1.57153,4.01221a.53732.53732,0,0,0,.94873.12061,1.51337,1.51337,0,0,0,.30786-.69678c.0896-.51514.10059-1.04.19043-1.55566.02905-.16748.20288-.31738.31055-.4751.14795.10449.34863.18506.43481.31738a16.03656,16.03656,0,0,1,1.24561,2.0459,5.68553,5.68553,0,0,0,2.27734,2.33936,6.28258,6.28258,0,0,0,1.52783.47949q.06958-.08862.1394-.17822c-.40869-1.62061-1.74048-2.96875-2.10986-4.61133a.89827.89827,0,0,1,.35352.11475c.23145.0918.46973.1709.70557.25537.04565-.228.17456-.47168.11694-.67969a4.20875,4.20875,0,0,0-.46021-.83887c-.46851-.8374-.34692-1.22217.54346-1.73584,1.01563-.58545,1.11523-1.123.23511-1.82666-.98145-.78418-2.042-1.49951-3.03809-2.27148a2.33278,2.33278,0,0,1-.438-.67236c.25562-.08252.50684-.17725.7688-.24316.12793-.03174.30273.02979.40747-.02148.16089-.07812.36938-.20605.3916-.333a.49134.49134,0,0,0-.25146-.4165,6.16783,6.16783,0,0,0-.72437-.17041,3.98584,3.98584,0,0,1-1.36743-.55762,4.93328,4.93328,0,0,1-.988-1.50391c-.38818-.82129-.667-1.67822-1.02686-2.50977-.32715-.75635-.73193-1.48975-1.03809-2.252a4.23571,4.23571,0,0,1-.10913-1.11523c.27124.14063.35571.15869.38013.20117.57544.999,1.13623,2.00439,1.72363,2.999.08667.14648.29248.24365.44287.36328.08862-.16162.27051-.334.24683-.48291a5.223,5.223,0,0,0-.32617-.99268,5.68112,5.68112,0,0,1-.36182-.92578c-.03174-.17627.13892-.37842.21851-.56885.187.10986.45654.18457.54761.33545a38.79775,38.79775,0,0,1,1.95654,3.418,3.467,3.467,0,0,0,1.41187,1.60156,4.94609,4.94609,0,0,1,2.73877,3.8252,3.17972,3.17972,0,0,0,1.66309,2.49658c.15137.08691.15845.38525.17822.58936a4.46109,4.46109,0,0,0,.10913,1.40869c.53735,1.17578,1.20508,2.31006,1.81323,3.46387.28735.54443.54785,1.09912.835,1.64355.491.93115.97705,1.86426,1.50781,2.77881.07886.13623.39038.17773.59424.2627.07959-.16406.24609-.33838.22144-.49072-.05786-.36133-.25366-.7085-.30078-1.06934a1.73215,1.73215,0,0,1,.19336-.65967c.22021.16113.52466.28711.64478.48926.377.63672.66943,1.30762,1.02173,1.95508.89282,1.63916,1.79028,3.27686,2.71753,4.90283.09375.16455.40161.24414.61011.36328.07568-.17529.26587-.38477.20874-.521a28.26058,28.26058,0,0,0-1.281-2.76367,1.00808,1.00808,0,0,1,.22876-1.45508.87956.87956,0,0,0,.261-.72363c-.1394-.897-.37964-1.78271-.52222-2.6792a3.281,3.281,0,0,1,.127-.94971c.31982.2251.75635.39795.94067.68457.98877,1.53613,1.91895,3.09912,2.86108,4.65625a21.60376,21.60376,0,0,0,3.67969,4.731c.217.20361.43262.51807.75391.229a.65681.65681,0,0,0-.0083-.707q-1.05176-1.45166-2.20605-2.85156a17.5501,17.5501,0,0,1-2.87866-4.9751,6.7018,6.7018,0,0,1-.177-.71875c.37549.11377.68042.12744.80762.25977a4.958,4.958,0,0,1,.97681,1.24023,5.62225,5.62225,0,0,0,2.842,3.15381c.364.16309.56226.61621.78613.9585.2085.31885.322.68018.52832,1,.16821.26074.35474.61768.83105.42773a.54571.54571,0,0,0,.29248-.84961c-.47559-.90625-.98462-1.80078-1.44336-2.71338a1.974,1.974,0,0,1-.07764-.69727,2.95954,2.95954,0,0,1,.59961.30615,2.10944,2.10944,0,0,0,1.989.77979,1.16022,1.16022,0,0,1,.79761.311c.75.6792,1.44336,1.40283,2.18164,2.0918a1.03923,1.03923,0,0,0,.45435.13721c.06567-.14258.12915-.28613.19409-.4292.00122-.01416.0083-.02881.00854-.04346.00073-.09814-.12036-.2002-.19629-.29492-1.07446-1.34277-2.1604-2.6792-3.21924-4.03027a9.02539,9.02539,0,0,1-.62158-1.0415,2.8869,2.8869,0,0,1,1.08838.55225c1.239,1.05566,2.44531,2.13818,3.69727,3.18311.12329-.28809.23853-.58008.35815-.87012-1.63477-1.689-3.29224-3.3623-4.95435-5.03271C161.01978,116.26611,160.33667,115.63916,159.69287,114.98486ZM117.15161,84.59912a3.44982,3.44982,0,0,1-.37964-.85107,2.8199,2.8199,0,0,1-.04663-.65186c.32642.061.80176.03223.94751.20166a4.92,4.92,0,0,1,.5896,1.24414c-.19458.18262-.39478.37012-.59521.55811A3.08751,3.08751,0,0,1,117.15161,84.59912ZM125.752,93.71a2.2107,2.2107,0,0,1-.53809-.17773c-.137-.08936-.17139-.293-.31079-.37451-.36206-.21094-.77588-.5625-1.136-.53613-1.2312.08887-1.811-.65527-2.53027-1.22021-.29883-.23486-.07471-.42187.25122-.48877.62793-.12939.592-.36426.31519-.7959-.42236-.65771-.71289-1.374-1.07837-2.05811a2.3269,2.3269,0,0,0-.48462-.68262.53551.53551,0,0,0-.81543.07178c-.17627.18262-.57422.436-.70874.38037a1.74825,1.74825,0,0,1-.75659-.66455c-.12915-.20361-.07227-.48975-.09814-.73926l.01733-.001c.00854-.17432.00659-.34814.009-.522.00537-.35059.22754-.47754.62939-.43457a3.85556,3.85556,0,0,1,2.86011,1.54492,27.83168,27.83168,0,0,1,1.604,2.98877,5.54326,5.54326,0,0,0,.40063.66992.76965.76965,0,0,0,.97583.32422.80568.80568,0,0,1,.66162.18359,22.79539,22.79539,0,0,1,.84253,2.12793C125.90283,93.42188,125.79248,93.57471,125.752,93.71Zm2.78857,2.72168a1.04049,1.04049,0,0,1-.49316-.2085,4.47669,4.47669,0,0,1-.44629-.37842c-.09766.17432-.19116.3501-.29492.522-.06665.10986-.15039.30322-.22314.30225a.63732.63732,0,0,1-.4541-.17432c-.22729-.38379-.68579-.94141-.52539-1.15723a3.6529,3.6529,0,0,1,1.48853-.83691.78772.78772,0,0,1,.60645.26758,11.38174,11.38174,0,0,1,.64209,1.28223C128.71777,96.21484,128.626,96.43311,128.54053,96.43164Zm-17.30591.5957a9.57019,9.57019,0,0,1-.91528.80469c-.21045-.20264-.49951-.37891-.61328-.61475a3.28826,3.28826,0,0,1-.36426-1.21924c-.05176-.96338-.0166-1.93018-.0166-2.89551-.07666-.00049-.15356-.00049-.23047-.00049V90.2627c0-.05762-.02393-.12451.00244-.17236.11523-.20557.24487-.40576.36914-.60742a2.50024,2.50024,0,0,1,.373.55957,15.897,15.897,0,0,1,.4187,1.57324q.52441,2.44775,1.01563,4.90137C111.30737,96.68457,111.33789,96.9126,111.23462,97.02734Zm.60864-7.69629a.65585.65585,0,0,1-.50854-.06738,2.32439,2.32439,0,0,1-.366-2.8501c.47314.644.92773,1.19238,1.2915,1.78027C112.53516,88.63818,112.18652,89.01514,111.84326,89.33105ZM147.10791,115.146a6.21246,6.21246,0,0,1-.833-.98877c-.60181-1.14111-1.13013-2.30957-1.71289-3.458-.33691-.66406-.7395-1.30469-1.07886-1.96777a3.07556,3.07556,0,0,1-.14575-.77588C145.24219,109.13477,147.80688,114.09521,147.10791,115.146Z"/><path class="cls-2" d="M108.12256,56.1416c-.335.12061-.71729.146-1.06445.24707-.97705.28369-1.94458.59033-2.92212.87256-.28442.08252-.59033.11328-.88647.168a2.5757,2.5757,0,0,1-.04663-.65186c.19849-1.09521.09668-2.0708-1.65112-2.87988a6.67671,6.67671,0,0,1-1.52393-.97852.72381.72381,0,0,1,.189-1.25391,1.661,1.661,0,0,0,1.02515-1.86279c-.27832-1.43848.76123-2.55225,2.31689-3.12354a12.85527,12.85527,0,0,0,2.51782-1.168,5.6086,5.6086,0,0,0,1.64111-1.5957,9.31334,9.31334,0,0,0,.668-1.939,2.20728,2.20728,0,0,1,.4519-.68945,15.1368,15.1368,0,0,0,2.32178-2.561c.94019-1.74951,1.5686-3.61523,2.34814-5.42627.38135-.88623.77563-1.77,1.22754-2.63184.35864-.68457.76392-1.3252.16138-2.063a.66955.66955,0,0,0-.92432-.23975,4.25216,4.25216,0,0,0-1.20166.98535c-.542.73633-.96509,1.53467-1.42993,2.31006-.19873.33154-.41943.44287-.877.25049-.68091-.28662-1.05469-.15332-1.35571.458-.33984.69043-.61792,1.40234-.92578,2.10449a27.43515,27.43515,0,0,0-1.14941,2.65723,5.45419,5.45419,0,0,1-2.39966,3.272,4.60316,4.60316,0,0,1-2.6731.95459,1.13689,1.13689,0,0,1-.791-.3335,5.11665,5.11665,0,0,1-.61719-1.63965c-.16089-1.09082-.1792-2.19629-.29248-3.29346-.14307-1.38574-.40088-2.7666-.4563-4.1543a2.63659,2.63659,0,0,0-1.16309-2.11621,2.59432,2.59432,0,0,1-.58765-4.00977c.812-1.0918,1.60474-2.19629,2.345-3.32324.842-1.28174,1.5415-2.63281,2.43823-3.88525,1.2168-1.69922,2.6123-3.30908,3.82593-5.00977a6.2585,6.2585,0,0,0,.85034-2.12207c.06885-.26953-.199-.64258-.42651-.89795a.96957.96957,0,0,0-.74634.07813,3.95345,3.95345,0,0,0-.74487.81836c-1.09106,1.38232-2.16992,2.771-3.26,4.15381q-1.9541,2.47925-3.92041,4.95117c-1.27588,1.60156-2.51221,3.22754-3.864,4.7832a3.96233,3.96233,0,0,1-3.33838,1.24609,5.79836,5.79836,0,0,1-3.88135-1.7998c-1.48389-1.54932-3.04272-3.04785-4.55054-4.58105q-2.0365-2.07056-4.02881-4.1709c-1.07373-1.13281-2.07861-2.313-3.1875-3.42041a9.16942,9.16942,0,0,0-1.82275-1.32324,2.73233,2.73233,0,0,0-1.02051-.09229,2.11543,2.11543,0,0,0,.104.67188,14.84318,14.84318,0,0,0,.86816,1.49951,15.40519,15.40519,0,0,0,1.89941,2.72412A61.93216,61.93216,0,0,1,80.41846,20.624a55.71706,55.71706,0,0,1,5.02563,6.66846c.5896.99023.43335,1.40186-.67114,1.98535-1.53857.813-2.56592,1.87891-2.50049,3.53809.09644,2.43506.09839,4.87256.11963,7.30908a8.84347,8.84347,0,0,1-.13062,1.61621c-.09741.54883-.4563.70605-.95532.36084a5.85829,5.85829,0,0,1-2.55469-2.8042c-.562-1.84961-.96875-3.73193-1.45557-5.59766a3.86171,3.86171,0,0,0-1.82764-2.623c-.855-.48877-1.66162-1.03613-2.49316-1.5542-.53516-.333-1.06006-.68066-1.61816-.98535a1.0933,1.0933,0,0,0-1.40674.22217c-.604.60645-.46289,1.1377.34521,1.73486a5.4733,5.4733,0,0,1,1.76074,1.58105,33.97644,33.97644,0,0,1,1.49316,4.2627c.34521,1.07813.5957,2.17871.96,3.252.65332,1.9248,1.31787,3.84863,2.0625,5.749a3.22692,3.22692,0,0,0,2.51221,2.168,3.59544,3.59544,0,0,1,2.75317,1.99316,8.34316,8.34316,0,0,1,.56689,3.41943,1.6716,1.6716,0,0,1-.68555,1.06592,3.17748,3.17748,0,0,0-1.39038,2.37354c-.01758.65869-.26514.82227-1.04248.66309a4.3945,4.3945,0,0,1-.71729-.21143,5.44332,5.44332,0,0,0-5.32178.49512,10.62256,10.62256,0,0,0-4.11279,4.75977q-.35742.93311-.77051,1.85107a19.61384,19.61384,0,0,0-1.481,4.61475,8.93635,8.93635,0,0,1-.99854,2.55908,4.10569,4.10569,0,0,0-.06885,3.65479.6591.6591,0,0,0,.31885.293c.63916.30322.5166.7002.14111,1.05566a16.99415,16.99415,0,0,1-1.791,1.5166c-1.1709.83594-2.39551,1.61914-3.58887,2.43359-.11133.07568-.25635.26172-.21924.31445a1.04089,1.04089,0,0,0,.41064.2373c.19922.08887.40723.16309.61133.24316a3.3493,3.3493,0,0,1-.49219.438c-1.252.74854-2.53223,1.46436-3.76709,2.23145-.6377.396-.60352.44336.05518.86621.57178.36768.52686.79785-.10352,1.06641-.2041.08691-.39111.20068-.5874.30078-.98242.5-1.979.98193-2.94189,1.50781a11.11158,11.11158,0,0,0-1.1582.82861c.15625.14453.19238.19971.24854.22559.74072.34326.72314.40479.04248.813a.80506.80506,0,0,0-.34961.65039A1.05648,1.05648,0,0,1,51.917,91.001c-1.09277.48291-2.12207,1.06641-3.18457,1.59863-.498.24951-.68359.4834-.0332.76465.31592.13672.29736.30078.03418.48975a28.765,28.765,0,0,1-5.57568,3.17969,3.91117,3.91117,0,0,0-1.416.89063c-1.01172,1.18311-1.897,2.44141-2.873,3.647q-1.355,1.67285-2.80273,3.2915c-.5376.59814-1.1792,1.13086-1.76416,1.7002a11.04953,11.04953,0,0,1-1.71191,1.65723c-1.84424,1.14893-3.80225,2.16943-5.67334,3.28906a16.71857,16.71857,0,0,0-2.21533,1.63818c-.18164.15479-.106.52051-.14893.78906a7.72838,7.72838,0,0,0,.79736.06885c.1792-.00146.36377-.11719.53418-.1001a3.61426,3.61426,0,0,1,.66992.19287c-.09668.16064-.14844.36426-.29883.47314-.36377.26367-.81543.44775-1.15771.72705q-3.6958,3.01758-7.35791,6.064c-.59375.4917-1.16455,1.00293-1.74609,1.50537l-.1499,1.97119c.07813.11719.01855-.18311.4668-.20752A3.03333,3.03333,0,0,0,18.2876,123.77c.57959-.54932,1.165-1.09521,1.74414-1.64551,2.603-2.47559,5.19727-4.95752,7.82178-7.417.17529-.16357.57275-.16113.8667-.23584.01123.24463.13232.53857.01367.72607a22.77056,22.77056,0,0,1-1.42139,1.97705c-1.06787,1.34668-2.16895,2.67529-3.24707,4.0166-.60352.751-1.22021,1.49707-1.75635,2.28076-.125.18262.05371.50977.09229.77051.25977-.07031.60742-.07617.7627-.22363a15.83556,15.83556,0,0,0,1.2832-1.42773c.92578-1.12256,1.82031-2.26367,2.76611-3.375.14746-.17285.49756-.22559.75391-.334.02344.25049.15674.53955.05225.74463-.56738,1.1123-1.20166,2.20068-1.78955,3.30615a1.6338,1.6338,0,0,0-.07861.57471,2.39982,2.39982,0,0,0,.69043-.07275,1.1662,1.1662,0,0,0,.44482-.42676q.53394-.76831,1.02881-1.55615c.89014-1.40918,1.69971-2.85791,2.67871-4.22217a38.49786,38.49786,0,0,1,2.69238-3.13672c.1167-.13086.41162-.14941.62451-.22021-.00684.2251.07129.48389-.03369.66943-.62061,1.09473-1.28955,2.16992-1.93018,3.25635-.57959.98291-1.11963,1.98145-1.7207,2.95459-.84521,1.36914-1.72559,2.72314-2.60156,4.0791-.644.99756-1.34424,1.97119-1.93945,2.98828a4.19088,4.19088,0,0,0-.39648,1.394c-.022.11963.16553.35059.3042.38184a.61708.61708,0,0,0,.48584-.21436c.53662-.84766,1.0166-1.72021,1.55615-2.56641.59521-.93311,1.18408-1.874,1.86768-2.76172,1.03223-1.34033,2.14453-2.63672,3.2207-3.95312a.83912.83912,0,0,1,1.31445-.05713c.23584.23584.45654.48389.71533.7002.47852.40039.647.33545.90479-.18555.59766-1.2085,1.25732-2.395,1.85645-3.60205.38623-.7793.68359-1.58936,1.06982-2.36816.27588-.55664.63232-1.08545.95313-1.62646.06738.02051.13525.04053.20264.061-.0293.19922-.04443.40137-.0918.59766-.15283.63477-.3208,1.2666-.47656,1.90088-.125.50928-.23633,1.021-.35986,1.53027-.11914.4917-.25049.98145-.36914,1.47314-.1543.6416-.32471,1.28223-.43848,1.92871a2.00038,2.00038,0,0,0,.123.6792,3.44112,3.44112,0,0,0,.88818-.29736c.16406-.11182.18262-.38281.24561-.5874.60742-1.978.39746-4.07568,1.35107-6.01953a18.97893,18.97893,0,0,1,.64307-1.79c.63525-1.06348,1.13525-2.18311,1.74365-3.2583a7.31745,7.31745,0,0,1,.896-1.043,1.01366,1.01366,0,0,1,.104,1.373,17.83026,17.83026,0,0,0-1.4165,2.20508,31.88,31.88,0,0,1-1.76953,3.06934c-.11768.21875.084.55713.13867.84033a6.245,6.245,0,0,0,.96338-.30371c.1543-.07568.17773-.31689.31738-.438.39746-.34619.51855-.99023,1.24414-.98389a1.226,1.226,0,0,0,1.36523-.99561,7.04025,7.04025,0,0,1,.31055-1.12891c.57129-1.19678,1.188-2.37891,1.78809-3.56641.312-.61768.64063-1.23.93408-1.854.41943-.89258.80371-1.79687,1.22363-2.689.1582-.33691.11768-.52881-.37109-.52148-.12842.00146-.25732,0-.39111,0,.0708-.61426.45605-.88477,1.14453-.84717.69482.03809.5957.44434.60693.84473a10.11434,10.11434,0,0,0,.20068,1.063.8259.8259,0,0,1-.0415.57129q-.9895,1.31836-2.05225,2.59766a1.18472,1.18472,0,0,0,.3374,1.83838.84022.84022,0,0,0,.68262-.08447,8.39949,8.39949,0,0,0,.8418-1.25537c.66406-1.14307,1.32568-2.2876,1.95459-3.44385.2915-.53564.50391-1.10107.80273-1.76465-.75488.09961-1.29395.2085-1.22559-.50586.05811-.60791.0293-1.22119.05469-1.83154a.87257.87257,0,0,1,.11914-.4458c.647-.95654,1.30908-1.90576,1.97168-2.855a.44861.44861,0,0,1,.7373-.07861,16.82757,16.82757,0,0,1,1.33447,1.395.47974.47974,0,0,1-.06006.52344c-.07764.08057-.4043.03516-.59619-.01562-.23828-.06348-.44678-.20068-.67822-.28711a4.33346,4.33346,0,0,0-.49316-.12354c-.04736.17871-.16895.37207-.12207.53125a.90672.90672,0,0,0,.40381.43652c1.15039.69043,1.31055,1.0376.38818,1.96973-1.21143,1.22363-1.00732,2.708-1.3584,4.09229-.0083.03174.0752.08008.15332.15771a5.98757,5.98757,0,0,0,.96387-1.05029c.73584-1.36523,1.39014-2.76123,2.0957-4.13818a13.21654,13.21654,0,0,1,.80078-1.3291c.61572-.9165,1.24023-1.82959,1.88721-2.731.55664-.7749,1.186-1.51416,1.7168-2.30127.60986-.90381,1.13965-1.84473,1.71533-2.76514.62646-1.001,1.28906-1.9873,1.89258-2.99756.584-.97705,1.08594-1.98828,1.68213-2.95947a3.78049,3.78049,0,0,1,.7583-.729A6.32082,6.32082,0,0,0,68.5,85.80176c.62451.37842.71289.46533.14111.94482a2.87208,2.87208,0,0,0-1.05176,1.4585,6.45461,6.45461,0,0,1-.74121,1.709c-.79346,1.30029-1.7417,2.53809-2.46289,3.86377-.85693,1.57422-1.478,3.23779-2.32617,4.81592a11.22222,11.22222,0,0,1-1.81592,2.44238c-1.13477,1.17529-2.32959,2.2915-2.50439,3.89111a.56276.56276,0,0,1-.28711.37207c-.61475.30518-.59521.75244-.53809,1.26514a1.47222,1.47222,0,0,1-.16016,1.09814c-1.18994,1.27686-2.45068,2.50879-3.728,3.72656-.37354.35645-.44482.60986.01953.90674.02295.01465.03809.02979.05859.04443L62.48,102.96387c.08447-.16406.16064-.33105.26172-.4873a7.90119,7.90119,0,0,1,1.02441-1.07227c.06836.02295.13721.04541.20557.06787l.62256-.62256a.51444.51444,0,0,1-.61914-.65283,3.74991,3.74991,0,0,1,.35938-1.05469c.61475-1.1333,1.26807-2.252,1.90479-3.37744a2.86362,2.86362,0,0,1,.45068-.771,1.4086,1.4086,0,0,1,.84863-.35742c.146.00049.29053.39453.46387.65234-.41553.87988-.7915,1.72021-1.209,2.54541-.30762.6084-.63135,1.21338-.98633,1.80322l2.9873-2.98779a2.65058,2.65058,0,0,1,.32373-.605,3.035,3.035,0,0,1,.584-.43506c.01855.02393.04053.04736.06152.0708l2.83105-2.83105c.10645-.46777.2417-.93262.39307-1.39209a2.25116,2.25116,0,0,1,.39844-.54248c.125.18555.354.36914.35938.55664.002.07471.00049.1499.00244.22461l8.28809-8.28809a11.78994,11.78994,0,0,1-1.2002.18164c-.62256.05957-.8833-.16748-.64941-.63477.60181-1.2002,1.27612-2.37549,1.92383-3.55957a14.07008,14.07008,0,0,0,.856-1.57324c.501-1.292.97021-1.63281,2.66406-1.73,1.01392-.05859,2.03-.10645,3.0459-.12842.27-.00635.54-.00488.81006-.00586l.905-.90479c-1.58716.00146-3.17456.00635-4.76147-.00293-.88818-.00488-1.061-.24951-.59912-.87988a8.242,8.242,0,0,1,5.29639-3.44287,2.44815,2.44815,0,0,1,.61255-.0791,14.08815,14.08815,0,0,1,3.2771.5791l8.15674-8.15674c-.54834-.543-1.10791-1.07959-1.657-1.62158a7.72737,7.72737,0,0,1-.89673-.87061c-.11572-.16162.00244-.44092.01489-.6665.21143.06543.49487.0791.62329.2041q1.2334,1.2019,2.46265,2.40771l2.35815-2.3584a3.37894,3.37894,0,0,1-.38672-.13281.86782.86782,0,0,1-.21924-1.59277,7.16007,7.16007,0,0,1,3.636-1.3042l1.27417-1.27441A4.65843,4.65843,0,0,0,108.12256,56.1416ZM107.88989,38.855a11.33743,11.33743,0,0,1,.584-1.70557,17.29654,17.29654,0,0,1,1.31519-2.37549c.17334-.25391.696-.34082,1.05908-.50391.17236.30713.34473.61377.44434.7915a6.05266,6.05266,0,0,1-2.70874,4.293c-.15405.10645-.45166.06689-.68262.09521A1.94343,1.94343,0,0,1,107.88989,38.855Zm-4.90137,3.76172a2.74668,2.74668,0,0,1,3.47632.10693c.34326.34912.1582.67773-.18018.9126q-1.326.92065-2.70825,1.78467c-.50024.312-.87036.17969-1.00391-.33057-.08813-.33789-.11987-.68555-.177-1.0293-.03833-.01611-.07666-.03223-.11475-.04883A5.07006,5.07006,0,0,1,102.98853,42.6167ZM77.2251,40.53564c-.22461-.09668-.53125-.14551-.66113-.29834a6.52833,6.52833,0,0,1-1.499-2.69043c-.17041-.72559-.4751-1.42871-.71973-2.1416.0498-.0127.1001-.0249.15039-.0376a1.40025,1.40025,0,0,1,.00977-.46143,4.74107,4.74107,0,0,1,.3335-.6333,2.81769,2.81769,0,0,1,.80273.37842,3.92856,3.92856,0,0,1,.69678.98926,11.06562,11.06562,0,0,1,1.19873,4.3125C77.55127,40.14111,77.335,40.34082,77.2251,40.53564Zm4.29614,5.41309c-.09839.55615-.4939.80811-1.12183.62646a3.674,3.674,0,0,1-2.6499-1.771,1.54682,1.54682,0,0,1,.15967-1.89648c.57031-.63965,1.05176-.78613,1.77979-.30566.887.58447,2.00635,1.69287,1.88428,2.61279C81.55,45.564,81.55493,45.75879,81.52124,45.94873Zm2.14185-10.74609a.90834.90834,0,0,1,.99048-.564c.46143.019.92383.04,1.385.03125.90674-.01709,1.30664-.2915,1.50513-1.02246.11255-.41455.17993-.8374.29932-1.25a2.00565,2.00565,0,0,0-.3772-1.81885c-.72925-1.02734-.36572-1.91211.98462-2.43359a5.2481,5.2481,0,0,1,4.89453.33887,14.52963,14.52963,0,0,0,1.46606.76123c.71729.3374.853.79639.38818,1.377a9.88982,9.88982,0,0,0-.69434.9248,1.605,1.605,0,0,0,.261,2.4209,2.60145,2.60145,0,0,0,2.85522.39941,4.68729,4.68729,0,0,1,.58911-.167c.45532-.0874.74.06885.74365.46436.01172,1.23584.02954,2.47266-.01611,3.70752-.01929.52051-.98706,1.09131-1.81372,1.10059-1.73242.01953-3.46509.00586-5.19775.00586v.02588c-1.73169,0-3.46387-.0166-5.19482.01221a3.11385,3.11385,0,0,0-1.25952.26221,1.4008,1.4008,0,0,1-2.16089-.97217A6.32589,6.32589,0,0,1,83.66309,35.20264ZM82.488,45.86426a16.07575,16.07575,0,0,1,.73584-3.28369,3.28283,3.28283,0,0,1,3.01074-1.75635c1.3772-.104,2.76758-.12012,4.1521-.11914,2.356.00146,4.71265.08936,7.06763.05957a2.55742,2.55742,0,0,1,2.85645,2.1665,15.17423,15.17423,0,0,1,.19946,2.53857c-.06128.77588-.10059,1.72266-.21753,2.6626-.19971,1.60156-2.095,2.92871-4.30029,3.00684-1.97412.06982-3.9502.12158-5.92578.1333-1.33765.00781-2.67676-.10693-4.0144-.09619a3.48614,3.48614,0,0,1-2.99072-2.30371A6.60469,6.60469,0,0,1,82.488,45.86426ZM74.81982,57.77881c.51367-.09229,1.0498-.0957,1.57568-.13916a3.92684,3.92684,0,0,1,2.57568.68115,1.5778,1.5778,0,0,1,.67041.98828c.00928.437-.51807.61768-1.02783.7959-1.4541.50732-2.80908-.00879-4.17529-.21875a1.80555,1.80555,0,0,1-1.12646-.86572C73.11523,58.64063,74.043,57.91846,74.81982,57.77881Zm-2.42432,7.81885c.07373-.80615.00488-1.62061.03955-2.43018.05713-1.31592.72559-1.84229,2.26758-1.83643,1.36133.00488,2.72363-.00635,4.084.02148a4.78034,4.78034,0,0,1,1.002.27441,20.977,20.977,0,0,1-1.32373,1.67725,56.33471,56.33471,0,0,1-7.24854,6.23828.3511.3511,0,0,1-.10889.0708c-.30518.07324-.61279.14111-.91943.21045a2.3011,2.3011,0,0,1,.249-.76465,23.81922,23.81922,0,0,0,1.52246-1.8501A3.72915,3.72915,0,0,0,72.39551,65.59766Zm-2.94873-2.15234a1.95785,1.95785,0,0,1,.84863-.72412.80069.80069,0,0,1,.59473.231,2.59824,2.59824,0,0,1,.30371,2.76465,3.95566,3.95566,0,0,1-.52832.998A2.35654,2.35654,0,0,1,69.77,67.457c-.72559.28564-1.18311-.18262-1.27686-1.13965C68.80225,65.35742,69.06738,64.38525,69.44678,63.44531ZM49.05322,95.55322c.53027-.56738,1.11133-1.10254,1.68848-1.6377.42773-.39648.87354-.78027,1.32129-1.16113a3.19582,3.19582,0,0,1,.41846-.25977l.17969.12549c-.30762.37988-.59473.77393-.92773,1.1377-.666.72754-1.34229,1.44971-2.05127,2.14795-.14355.14111-.45215.16406-.68506.24121C49.01025,95.94531,48.93164,95.68359,49.05322,95.55322ZM68.90088,83.47168a20.90353,20.90353,0,0,1,1.40234-3.2207,34.28716,34.28716,0,0,1,2.75439-3.45068,4.523,4.523,0,0,1,.87891-.73535.74641.74641,0,0,1,1.209.22559c.05029.08691.08936.1792.146.26318.58252.86523.55615.96533-.48486,1.52881a8.82687,8.82687,0,0,0-1.45117.77344c-.35693.29883-.82178.812-.731,1.12842.376,1.30762-.44531,2.14209-1.3877,2.9668a12.87758,12.87758,0,0,1-1.21045.94189c-.187.12793-.50928.28223-.67334.22607C69.16846,84.05615,69.09375,83.76953,68.90088,83.47168Zm6.73535-2.43652c-.42676.92139-.87061,1.83838-1.3501,2.7417-.56885,1.07129-1.16553,2.13281-1.77881,3.18652-.53418.917-1.10254,1.8208-1.66748,2.7251-.49072.78467-.98779,1.56689-1.5083,2.33789a1.85544,1.85544,0,0,1-.48535.34814c-.12158-.18945-.36963-.3916-.34375-.56543.13428-.89746.30664-1.793.52832-2.67773a2.11707,2.11707,0,0,1,1.15479-1.70312,4.22854,4.22854,0,0,0,1.86621-1.80664c.30176-.45264.51709-.94531.7915-1.41162.53711-.91162,1.06445-1.82861,1.64453-2.72119a14.41416,14.41416,0,0,1,1.041-1.27l.23389.06152A2.76152,2.76152,0,0,1,75.63623,81.03516Zm-.74268-8.78223a1.88325,1.88325,0,0,0-.43506.5083,13.19814,13.19814,0,0,1-2.51855,3.76025c-1.36865,1.62158-2.76562,3.22656-4.1377,4.84619A68.37121,68.37121,0,0,1,58.8623,90.624a46.68861,46.68861,0,0,0-4.627,4.88867c-1.22852,1.32227-2.58789,2.56006-3.89941,3.82715-2.15918,2.08691-4.25732,4.22168-6.51221,6.23389-1.96924,1.75684-4.05322,3.43408-6.2124,5.02734a45.05149,45.05149,0,0,1-4.28076,2.52344.86828.86828,0,0,1-.4502.13184,4.13994,4.13994,0,0,1-.68115-.16406c.07373-.16992.0957-.37842.22949-.50342.78467-.73437,1.59668-1.44824,2.39795-2.17041q2.729-2.46021,5.45752-4.92139c.91064-.81982,1.83691-1.62793,2.72266-2.46631.13916-.13135.09961-.39453.14307-.59668-.24023.02637-.55908-.02-.708.0918-1.15234.86279-2.26221,1.76563-3.41211,2.63086a2.292,2.292,0,0,1-.74756.19873c.08936-.19775.11768-.44385.27783-.58545,1.27539-1.12939,2.57227-2.24219,3.87109-3.35352a13.97429,13.97429,0,0,1,1.35449-1.07227,1.78236,1.78236,0,0,1,.93164-.2998,5.21749,5.21749,0,0,0,4.18506-1.85449c2.3252-2.6709,5.001-5.09229,7.501-7.6377,1.72461-1.75586,3.3877-3.55469,5.04346-5.35693q2.41846-2.63379,4.7627-5.31543c1.5752-1.80225,3.06689-3.65576,4.6709-5.43945.79639-.88574,1.78223-1.65137,2.64551-2.49756.79053-.77441,1.561-1.56543,2.28613-2.38281,1.06787-1.20264,2.07861-2.44092,3.13623-3.65039a4.77594,4.77594,0,0,1,.75-.57178l.26563.12012c-.24121.40527-.459.82178-.728,1.21338-.85449,1.24756-1.69043,2.50488-2.6084,3.71924A24.56435,24.56435,0,0,1,74.89355,72.25293ZM76.751,73.314c.3208-.7041.5542-1.28955.85107-1.85205.60352-1.144,1.26465-2.26758,1.85107-3.41748a1.23,1.23,0,0,1,1.019-.76953,1.58536,1.58536,0,0,1,1.03955.17969c.30176.31543.73193.63818.33813,1.21875-1.08789,1.60254-2.06128,3.25928-3.08765,4.8916a1.03857,1.03857,0,0,1-1.20752.47217C77.21289,73.9248,76.99609,73.54736,76.751,73.314ZM82.8,74.93359a12.16013,12.16013,0,0,1-.667,1.76123,13.26914,13.26914,0,0,1-2.59985,3.65869,6.71852,6.71852,0,0,1-.6792.57568c-.47461.33984-.92383.2334-.96387-.28564a1.96635,1.96635,0,0,1,.291-1.27783c1.13916-1.53613,2.34717-3.03662,3.57349-4.52588.18335-.22266.595-.314,1.05322-.5415A2.45118,2.45118,0,0,1,82.8,74.93359Zm1.73657-2.6582c-.53271.01416-.78223-.28076-.53418-.66992.38745-.60791.79541-1.207,1.21826-1.79834.08154-.11426.27026-.17529.40967-.26074.10254.11865.25854.22656.29736.3584a7.7233,7.7233,0,0,1,.16895.84863C86.14014,71.75244,85.58765,72.24707,84.53662,72.27539Zm15.63086-9.46582a1.95128,1.95128,0,0,1-.075,1.38965,5.79767,5.79767,0,0,1-2.64624,2.51953,3.44229,3.44229,0,0,0-1.71338,2.01563c-.29858,1.09033-.69824,1.2627-1.97949.95947a6.21933,6.21933,0,0,0-2.59326-.13184,15.38563,15.38563,0,0,1-1.92773.17383c-1.51709.07813-1.78784-.15771-1.70532-1.43652.06079-1.27441-.16211-1.43115-1.68384-2.17871a5.715,5.715,0,0,1-2.30225-1.519,1.00606,1.00606,0,0,1,.01367-1.43457c.60034-.6958,1.04541-1.4917,1.69141-2.15283a2.41506,2.41506,0,0,1,2.96875-.54248,7.86748,7.86748,0,0,0,4.46924.75146,9.62737,9.62737,0,0,0,3.439-1.28271,1.13564,1.13564,0,0,1,1.41748.03906A6.6565,6.6565,0,0,1,100.16748,62.80957Zm-.051-6.46191c-1.001.3877-2.01172.76172-2.98706,1.19092-1.15942.51074-2.248,1.14258-3.43506,1.59814A6.18724,6.18724,0,0,1,88.76,59.10547c-1.36938-.65039-2.56885-1.54883-3.86328-2.31348a3.6,3.6,0,0,0-1.166-.46533c-.31934-.05664-.85425-.01855-.99121.14941-.17529.21533-.09741.61035-.03882.91553.09668.50439.29395.99512.3877,1.499a.61037.61037,0,0,1-.21021.52734,4.70356,4.70356,0,0,1-.86938.41211,2.317,2.317,0,0,1-.3689-.69092,9.85,9.85,0,0,1-.01709-1.332l-.05811-.001a10.56,10.56,0,0,1,.12866-1.55957,2.06455,2.06455,0,0,1,1.709-1.76953,8.03094,8.03094,0,0,1,1.53247-.33252,10.18931,10.18931,0,0,0,3.59033-1.03906,10.91352,10.91352,0,0,1,3.3606-.47754,7.163,7.163,0,0,1,3.49146,1.00049,4.112,4.112,0,0,0,2.4458.459,3.85766,3.85766,0,0,1,2.56934.79639C101.56494,55.55273,101.48413,55.81787,100.11646,56.34766Z"/><path class="cls-2" d="M93.575,104.2915c.38989-.01758,1.06934.06348,1.01489-.44043-.05127-.47314-.69629-.32227-1.10645-.32129-.15283.00049-.30566.00146-.4585.002l-.80713.80713C92.67017,104.32422,93.123,104.31152,93.575,104.2915Z"/><path class="cls-2" d="M77.93994,123.44385a2.38647,2.38647,0,0,1,.68457,2.272c-.11963.92285-.24414,1.84619-.31885,2.772a4.39916,4.39916,0,0,0,1.11377,3.666,7.28666,7.28666,0,0,1,1.79834,2.5083c.24683.70215.44458,1.418.73584,2.10693.511,1.209.406,1.62061-.76758,2.48291-.63159.46338-.88843,1.01855-.60474,1.52441a.89021.89021,0,0,1-.187,1.167,8.84091,8.84091,0,0,0-.98657,1.4375c-.05713.09766.12158.2915.19141.44092.16016-.05273.37451-.06738.47217-.16406.78613-.78027,1.53906-1.5835,2.33105-2.35889a.95988.95988,0,0,1,.65308-.28955.65557.65557,0,0,1,.44116.4834c-.01392.52832.34668.835.71533,1.19727a2.9919,2.9919,0,0,1,.92676,1.30176,3.48943,3.48943,0,0,1-.34595,2.71973c-.13916.21533-.06934.5249-.1106.94434.56958-.3457.91284-.56689,1.27393-.76611.13745-.07568.3728-.17529.46167-.12842a.5078.5078,0,0,1,.20337.39551,5.68488,5.68488,0,0,0-.00317,1.03906.98592.98592,0,0,0,.521.64648c1.24976.42188,1.40869.62256,1.248,1.75586-.14673,1.03613-.283,2.07422-.36133,3.11475-.01855.24658.21265.50635.32886.75977a3.57569,3.57569,0,0,1,.584-.39844.87627.87627,0,0,1,.54224-.042,2.69934,2.69934,0,0,1,.575.32959,3.19479,3.19479,0,0,0,.34033-.6543c.14746-.584.207-1.18506.38745-1.76025.05835-.18652.38208-.31494.58472-.46973a2.18843,2.18843,0,0,1,.32227.58594c.11108.58984.13477,1.19189.26538,1.77832a.78217.78217,0,0,0,.47949.49951,1.64017,1.64017,0,0,0,1.657-1.26514,28.80092,28.80092,0,0,1-.03345-3.36035,2.75828,2.75828,0,0,1,1.37622-2.11426,4.47366,4.47366,0,0,1,2.13452-.56934c.96729-.09912,1.08105-.24365.72241-1.00537-.21045-.44629-.54077-.85937-.70044-1.31592a3.60545,3.60545,0,0,1,.65894-3.10986c.40625-.68311.63818-.83594,1.5-.57715.75513.22607,1.47021.54736,2.22974.76025a1.09612,1.09612,0,0,0,.77295-.19629c.09766-.07129.04053-.41943-.0835-.5542-.58765-.63965-1.23511-1.23975-1.83618-1.87061-.50391-.52979-1.12378-1.11377-.83252-1.811.39795-.95312,1.06226-1.82568,1.53223-2.76074a7.92383,7.92383,0,0,0,1.08154-2.64307c.17065-2.05908.07593-4.1333.08228-6.20117a1.25433,1.25433,0,0,0-.08936-.51318.45487.45487,0,0,0-.31079-.24512.4292.4292,0,0,0-.30762.25244,7.49831,7.49831,0,0,0-.126.85986c-.20679,1.41553-.37036,2.83691-.64062,4.24365-.15894.8291-.60425,1.10205-1.59619,1.20215a10.73145,10.73145,0,0,1-1.10767.03906c-3.72314-.01758-7.44629-.03174-11.16919-.064-1.7334-.01514-3.46777-.04346-5.19824-.12012a2.935,2.935,0,0,1-1.259-.394,2.55628,2.55628,0,0,1-1.22-2.4082c-.02832-1.15918.03711-2.32031.07861-3.48.03564-.99609.5708-1.42285,1.77759-1.44043,4.85547-.0708,9.71069-.14941,14.56616-.20508q2.32251-.02637,4.64551.06055a3.43113,3.43113,0,0,1,1.4187.3584,1.818,1.818,0,0,0,2.64844-.80078,8.21788,8.21788,0,0,0,.30078-2.40039c-.09082-2.27979-.35254-4.55908.37134-6.80762a4.26516,4.26516,0,0,0,.08643-.74854c.28027-2.09229-.543-4.10205-.67773-6.16406-.01172-.1792-.292-.3457-.44727-.51855-.16577.20605-.48413.41846-.47217.6167a29.758,29.758,0,0,0,.37646,3.80664c.26172,1.3667-.106,1.81982-1.75,1.75146-2.93066-.12256-5.86011-.3457-8.7915-.36182-3.22217-.01758-6.44507.07275-9.66748.1543l-.9624.9624c1.917-.21582,3.85889-.27148,5.76465-.55713a14.35109,14.35109,0,0,1,2.96851.0625c2.00342.12793,4.00464.28369,6.00537.44141,1.49438.11816,2.98584.26172,4.47974.38477.67773.05566.91382.34766.95605.91748.07593,1.02.28931,2.03271.40674,3.05176.124,1.07666.23877,2.15576.29175,3.23633.04883,1.001-.36621,1.40088-1.5813,1.4292-2.634.061-5.27.06006-7.90527.082-.69336.00537-1.38672.00049-2.08008.00049v.03711c-2.19336.08008-4.39111.1167-6.57959.25244a39.69308,39.69308,0,0,1-6.21631-.26855c-.96143-.09082-1.35937-.47021-1.33643-1.3999.0249-.999.0874-1.99707.15186-2.99561L77.14063,119.416c-.00342.36914-.0083.73828-.00928,1.10693C77.12939,121.54834,77.04395,122.60986,77.93994,123.44385Zm5.77637,9.5166a14.22928,14.22928,0,0,0,2.33081.23877c2.30981-.00586,4.62231-.02686,6.92847-.12939,1.7041-.07617,3.39624-.33008,5.1001-.42822,1.41333-.08154,1.79224.23877,1.60376,1.41748a9.919,9.919,0,0,1-.85864,3.01807,4.40689,4.40689,0,0,1-1.79224,1.52881c-.82227.44922-1.14136.77588-.92847,1.58057a2.27247,2.27247,0,0,0,.09473.27881c.79883,1.94727.43164,3.09863-1.43579,4.46-.45776.33447-.77515.68848-.6438,1.25342.03857.16553-.20068.376-.31274.56592a6.74756,6.74756,0,0,1-.53857-.44092c-.08472-.084-.07739-.23633-.16675-.3125-.11572-.09912-.30566-.22852-.428-.20605a.43263.43263,0,0,0-.2749.33545c.00952.48242.08472.96289.11426,1.44531a6.30484,6.30484,0,0,1,.009,1.09863,1.27957,1.27957,0,0,1-2.06689.87646c-1.34155-.79492-2.302-1.83545-2.27271-3.32812.17432-.70508-.1106-1.21289-.88135-1.59131-.72974-.35889-.64844-1.00781-.49-1.56885a22.66051,22.66051,0,0,1,.92139-2.543c.27856-.667.10718-.99072-.71387-1.12744a2.78926,2.78926,0,0,0-.41187-.04736,2.63934,2.63934,0,0,1-2.45776-1.22412c-.811-1.35937-1.7998-2.65625-1.74756-4.2627C82.42578,132.96533,82.70239,132.79346,83.71631,132.96045Z"/><path class="cls-2" d="M103.01758,95.12354c.03149.15234.03467.30811.063.46094.24,1.29736.4873,2.59375.7229,3.8916.19092,1.05078.38745,2.10059.54443,3.15479.08765.58887-.20386.86719-.94214.88623-.76074.01953-1.52393-.03955-2.28613-.04687-1.22314-.01172-2.44727-.0332-3.66895.00342a3.627,3.627,0,0,0-.9873.32422c.01343.08057.02686.16064.04053.24121.34131.05908.67993.14014,1.02515.17334,1.19165.11621,2.38623.21191,3.57886.32227,1.21436.11182,2.42627.24023,3.6416.34375a.73041.73041,0,0,0,.88037-.57812,2.25438,2.25438,0,0,0,.08008-.8584c-.40137-1.99854-.85449-3.98975-1.24634-5.98926a10.44556,10.44556,0,0,1-.27026-2.41016c.03833-.93555.10645-1.87061.125-2.8042L102.57544,93.981A2.69667,2.69667,0,0,1,103.01758,95.12354Z"/><path class="cls-2" d="M33.18262,125.687a12.33884,12.33884,0,0,0,.81006-1.59033.52072.52072,0,0,0-.23828-.49756.68539.68539,0,0,0-.57422.14209c-.33057.56689-.59473,1.16162-.8916,1.7666.15918.19971.27783.34814.396.49658C32.855,125.90088,33.09961,125.82715,33.18262,125.687Z"/><path class="cls-2" d="M92.47168,142.71338a9.87726,9.87726,0,0,0,.52661.98145c.22192-.32715.44751-.65283.665-.98242.16772-.25342.32568-.51172.488-.76807a5.81455,5.81455,0,0,0,.63916.53467,2.52123,2.52123,0,0,0,.58081.18994c.06226-.15039.18628-.3042.17456-.45068a5.99471,5.99471,0,0,0-.19189-1.02588c-.28589-1.08691-.81714-1.44775-2.14453-1.479-1.06274-.0249-1.65869.60938-1.32446,1.35889C92.1228,141.606,92.25293,142.17285,92.47168,142.71338Z"/><path class="cls-2" d="M89.93018,142.44775v-2.72119c-.90869.168-1.05713.34326-1.09741,1.17578C88.78735,141.84424,89.05835,142.23145,89.93018,142.44775Z"/></g></g></svg>