<?xml version="1.0" encoding="utf-8"?>
<!-- Generator: Adobe Illustrator 21.1.0, SVG Export Plug-In . SVG Version: 6.00 Build 0)  -->
<svg version="1.1" id="Layer_1" xmlns="http://www.w3.org/2000/svg" xmlns:xlink="http://www.w3.org/1999/xlink" x="0px" y="0px"
	 viewBox="0 0 200 200" style="enable-background:new 0 0 200 200;" xml:space="preserve">
<style type="text/css">
	.st0{fill:#FFFFFF;}
</style>
<g>
	<g>
		<path class="st0" d="M63.1682434,130.3889618c0.0410995-4.0450516,0.0157204-8.0907669,0.0157204-12.1362228
			c0-0.1917725,0-0.3835144,0-0.5583572c-0.0979004-0.0365372-0.1395073-0.0650101-0.1815758-0.0657196
			c-0.3771477-0.0066147-0.7544098-0.0122452-1.1316032-0.0106735c-0.7699471,0.0032043-0.6881828-0.0690842-0.6902809,0.6680832
			c-0.0036163,1.2679749,0.0025139,2.5359726-0.0052528,3.8039017c-0.0010376,0.1711807-0.0588074,0.3420105-0.0903168,0.5129852
			c-0.1767616-0.0547714-0.3769646-0.0732803-0.526638-0.1699829c-1.4092331-0.9104004-2.9400673-1.2089386-4.5852814-0.9291153
			c-3.089695,0.525528-5.5191231,3.2247086-5.6465302,6.2620087c-0.1417656,3.3802338,1.8830605,6.2003174,5.0605812,7.0435181
			c0.3591232,0.0953064,0.7226906,0.173996,1.0841866,0.2603912c0.4532166,0,0.9064331,0,1.3596497,0
			c0.0350609-0.0255737,0.0680275-0.0697937,0.105484-0.0740509c1.0281715-0.1164246,1.938755-0.527771,2.7952347-1.0883026
			c0.3902626-0.2554016,1.1992607-0.1509857,1.5502205,0.1395416c0.3316879,0.2745667,0.6925621,0.5138855,1.0633469,0.7853699
			c0.4163322-0.5762329,0.7909889-1.0947723,1.202343-1.664093
			C63.3192787,132.5931854,63.156189,131.5757904,63.1682434,130.3889618z M61.1701775,131.6379852
			c-0.0000916,0.0423584-0.0245476,0.0846863-0.0611305,0.2031097c-0.5430756-0.1376038-0.9047318,0.172699-1.3116608,0.4406738
			c-1.5538597,1.0231628-3.2046738,1.1278229-4.8463402,0.2714691c-1.6595535-0.8656769-2.4784584-2.3036499-2.5831146-4.1734161
			c-0.1263924-2.2584991,1.4451981-4.5854187,4.074482-4.9767151c1.2805405-0.1905899,2.4464645,0.1244278,3.5209007,0.846405
			c0.243885,0.1638718,0.5596924,0.2469025,0.8544731,0.3002243c0.2256775,0.0408249,0.3637314,0.0742722,0.3629265,0.3403549
			C61.1737976,127.1393738,61.1740494,129.3887024,61.1701775,131.6379852z"/>
		<path class="st0" d="M39.9414253,121.4729691c-3.1952934,0.382103-5.7405357,3.0766068-5.9494057,6.1699219
			c-0.2519302,3.7309494,2.2694054,6.5677872,5.2919502,7.2304001c0.2909126,0.0637817,0.5811081,0.1309357,0.8716278,0.1964874
			c0.4532166,0,0.9064331,0,1.3596497,0c0.1251945-0.0357056,0.2481995-0.0862274,0.3758812-0.1048584
			c1.9251518-0.2811127,3.3850098-1.3237152,4.6246071-2.7949829c-0.4229965-0.4962463-0.8304558-0.9742889-1.252346-1.4692078
			c-0.4990654,0.4552155-0.9460144,0.9045258-1.4350548,1.302002c-2.4407692,1.9837036-6.0198936,1.174057-7.3556671-1.6391296
			c-0.1457291-0.3068848-0.0914688-0.4820862,0.1418839-0.6943207c0.4929352-0.4483337,1.0517044-0.6732025,1.723175-0.6711273
			c2.8699913,0.0089111,5.7400284,0.0038605,8.6100655,0.0036774c0.6895638-0.0000458,0.696804-0.0074921,0.7104034-0.6993713
			c0.0009003-0.0452728,0.0007362-0.0906372-0.0003929-0.1359253
			C47.5545998,124.0178452,44.0538712,120.9811859,39.9414253,121.4729691z M44.8537407,127.1048889
			c-2.0984802,0-4.1971169,0.013504-6.2954102-0.0064774c-0.8722954-0.0083008-1.723774-0.0056229-2.4238739,0.6539001
			c-0.3995514-1.7208862,1.7838936-4.0354309,4.0593834-4.3692627c2.367836-0.3473663,5.0857544,1.5496674,5.2241325,3.7218399
			C45.2110634,127.1048889,45.0323906,127.1048889,44.8537407,127.1048889z"/>
		<path class="st0" d="M131.2857056,132.9236298c-0.7587128-0.4976349-1.0723572-1.1733704-1.059433-2.1030121
			c0.0408936-2.9441681,0.0151062-5.889267,0.0151062-8.8340073c0-0.1766968,0-0.3534088,0-0.5775833
			c-0.4066772,0-0.7655029-0.0052338-1.1240845,0.0016403c-0.2992401,0.0057144-0.6547394-0.0657959-0.8771667,0.0717773
			c-0.1451569,0.0898132-0.0966492,0.4922485-0.1362762,0.7544327c-0.0018616,0.0123367-0.0170746,0.0226135-0.0838623,0.1059036
			c-0.16996-0.0792313-0.3742142-0.1468658-0.5487671-0.260231c-1.3534927-0.8790512-2.8369064-1.1556244-4.4171906-0.943161
			c-2.9867935,0.4015427-5.3834381,2.7477264-5.9064102,5.7610321c-0.5195618,2.9935303,1.0027924,6.0601501,3.7402573,7.3852692
			c0.7470779,0.3616333,1.5886688,0.5280914,2.3869019,0.7840881c0.5136337,0,1.0272903,0,1.5409241,0
			c1.0826416-0.2327728,2.0695953-0.6678009,3.0365143-1.2194672c0.3984222-0.2273407,1.0358734-0.2507629,1.4971619,0.2354279
			c0.2814789,0.2966919,0.6669922,0.4946442,1.0320435,0.7556915c0.4232483-0.5849762,0.8087769-1.1178284,1.1849213-1.6376953
			c-0.0371399-0.0617065-0.047287-0.0927887-0.0684509-0.1111145
			C131.4295502,133.0334473,131.3610382,132.9730377,131.2857056,132.9236298z M128.11026,131.7383881
			c-0.7161865-0.1946869-1.1235123,0.3496246-1.6359024,0.6527863c-2.6640701,1.576355-6.0976486,0.220459-7.0639038-2.7926331
			c-1.0658798-3.3237152,1.3858871-6.6035461,4.8695297-6.5026016c0.8290558,0.024025,1.6012115,0.2715302,2.3073959,0.710083
			c0.4630356,0.2875671,0.8543854,0.7521057,1.5228806,0.5003357C128.11026,126.8187027,128.11026,129.242691,128.11026,131.7383881
			z"/>
		<path class="st0" d="M175.6640625,129.6673431c-0.2706757-1.0626068-0.930069-1.8074493-1.8850555-2.3094635
			c-0.8996582-0.4729004-1.879364-0.5985107-2.8734894-0.7226639c-0.68927-0.0860977-1.4035797-0.2441635-2.0241089-0.5420837
			c-0.8544312-0.410202-1.0179138-1.2545395-0.4584351-2.0171051c0.2201691-0.3000641,0.5623932-0.5501938,0.9015503-0.7149658
			c0.6695404-0.3253326,1.4009399-0.3180695,2.1293182-0.2247314c1.0027313,0.1285095,1.8347321,0.6369171,2.6603394,1.2251205
			c0.4499054-0.5053329,0.8856964-0.9948349,1.3402252-1.5053635c-0.9058685-0.816185-1.906189-1.3581238-3.0465088-1.594841
			c-1.6713257-0.3470001-3.3188019-0.3161316-4.7874298,0.6915894c-1.263031,0.8666-1.7416229,2.1268768-1.5604553,3.6248169
			c0.1642761,1.3583145,1.0680237,2.1340485,2.2662354,2.5690918c0.6719666,0.243988,1.4017487,0.3282623,2.1050262,0.4864807
			c0.7438965,0.1673889,1.5388794,0.223053,2.2193909,0.5311127c1.1841583,0.5360718,1.4124146,2.0505829,0.473175,2.9513855
			c-0.3735199,0.3582458-0.8964691,0.6329498-1.3993225,0.7704163c-1.432663,0.3915863-2.7460175,0.0648346-3.8959961-0.8818054
			c-0.3438873-0.2830963-0.677948-0.5781097-1.0343475-0.8829346c-0.4564209,0.5175323-0.8818512,0.9999542-1.3022308,1.4766388
			c0.9462891,1.1691284,2.3136292,2.0292053,3.6704407,2.3244781c0.2338104,0.0508881,0.468399,0.0982666,0.7026367,0.1472626
			c0.483429,0,0.9668427,0,1.4502869,0c0.4620514-0.1181793,0.9342804-0.2065125,1.3842468-0.3600159
			c1.4742432-0.5029297,2.561142-1.4083405,2.9825439-2.9746399c0.0108643-0.0403595,0.0491486-0.073349,0.0746918-0.1097565
			c0-0.6042633,0-1.2085724,0-1.8128357C175.7250977,129.7643433,175.6775208,129.7201843,175.6640625,129.6673431z"/>
		<path class="st0" d="M32.5953026,121.4373093c-1.0579071,0.1052094-2.0112057,0.4921799-2.8968925,1.0675659
			c-0.4509125,0.2929382-1.2197056,0.2254944-1.6282959-0.1045837c-0.3327713-0.2688293-0.6874428-0.5105438-1.0235119-0.7577515
			c-0.4371052,0.5598755-0.8248081,1.0564728-1.212513,1.5530777c0,0.03022,0,0.0604401,0,0.0906372
			c0.8788185,0.4652939,1.378231,1.1279831,1.3658981,2.189209c-0.0333557,2.8670807-0.0114117,5.7348022-0.0114117,8.6022491
			c0,0.1914978,0,0.3829803,0,0.593399c0.6957436,0,1.331459,0,2.0293007,0c0-3.3652649,0-6.6896896,0-9.9807816
			c0.3406105-0.0651016,0.6845169-0.0304337,0.8768597-0.1847153c0.9041042-0.7251587,1.9123592-1.1296005,3.0986614-1.1640625
			c0-0.641777,0-1.2677841,0-1.9051895c-0.0778923-0.0127945-0.1355438-0.0317612-0.1924095-0.0297546
			C32.8655586,121.4114456,32.7302437,121.4238739,32.5953026,121.4373093z"/>
		<path class="st0" d="M163.2360687,125.8942413c-0.3432617-3.9612732-4.7113037-6.1184616-8.0658875-3.9955063
			c-0.5744324,0.3635483-1.1158295,0.4947357-1.76651,0.4942245c-0.5783081-0.0004349-1.07901-0.0758133-1.5478821-0.4570389
			c-0.2962189-0.2408676-0.67659-0.4023666-1.0437164-0.5277939c-1.8108826-0.6187515-3.5048218-0.3930054-5.058136,0.7561417
			c-0.4638214,0.3431625-1.2196045,0.2952652-1.6583252-0.0635529c-0.3451538-0.2822952-0.7141113-0.5354919-1.0903625-0.8148956
			c-0.4264984,0.5899124-0.8140717,1.1259308-1.2100067,1.673584c0.1158447,0.0922318,0.2045898,0.1738586,0.3036652,0.2400131
			c0.7524414,0.5022964,1.0689392,1.1743851,1.0553284,2.1057434c-0.043045,2.9449005-0.0158844,5.8908234-0.0158691,8.83638
			c0,0.1759033,0,0.3518219,0,0.529953c0.7272339,0,1.3969727,0,2.1083069,0c0-3.4319153,0-6.8265152,0-10.3264084
			c0.6478119,0.1876831,1.0028229-0.1911697,1.4192352-0.4917374c0.9646149-0.696228,2.040451-0.967865,3.2115631-0.6204605
			c1.4206238,0.4214325,2.3155823,1.7145081,2.3222961,3.3621445c0.0102997,2.5225372,0.0028076,5.045166,0.0028534,7.5677643
			c0,0.1762238,0,0.3524628,0,0.5750885c0.5237579,0,0.9893036,0.0003662,1.4548492-0.000061
			c0.6465302-0.0006256,0.6648865-0.0014801,0.6446381-0.6277008c-0.1045074-3.2320404,0.2636414-6.4791718-0.2623291-9.7021561
			c1.0149841-0.1334457,1.0083008-0.1431274,1.5833435-0.5405121c1.189209-0.8217621,2.4668427-1.0967026,3.7934875-0.3998489
			c1.2779388,0.6712341,1.769516,1.8211899,1.7628632,3.2319183c-0.011795,2.507431-0.0032654,5.0149689-0.0032501,7.5224457
			c0,0.1596527,0,0.3193054,0,0.5157318c0.610321,0,1.1538239-0.0202179,1.6949615,0.0069885
			c0.3702087,0.018631,0.4534912-0.1266937,0.4485168-0.4717712c-0.0182495-1.2685852,0.0002747-2.5376434-0.0091095-3.8064117
			C163.2993317,128.9418488,163.3673248,127.4091721,163.2360687,125.8942413z"/>
		<path class="st0" d="M114.2218475,117.2829819c-1.8564148,0.3167496-3.1130524,1.8618011-3.1191559,3.784996
			c-0.0139465,4.3951111-0.0044937,8.7902527-0.0041504,13.1854095c0,0.0905457-0.0190887,0.1915436,0.0143356,0.2687683
			c0.0349731,0.0807495,0.1213226,0.1960449,0.1875916,0.1976318c0.6250916,0.0150146,1.2506866,0.0089264,1.9165573,0.0089264
			c0-3.8028717,0-7.5260849,0-11.3039856c1.0453873,0,2.0481796,0,3.0448837,0c0-0.6968536,0-1.3379593,0-2.018631
			c-1.0254059,0-2.0163193,0-3.0335846,0c-0.1036682-1.410614,0.6202698-2.194397,1.9576035-2.1968155
			c0.3587799-0.0006409,0.7175751-0.0000916,1.1000671-0.0000916c0-0.6876297,0-1.323204,0-1.9441223
			C115.5700607,117.2650681,114.8783798,117.1709747,114.2218475,117.2829819z"/>
		<path class="st0" d="M140.0665588,121.099556c-1.0988617,0.0604477-2.0807953,0.4556427-2.9970703,1.0424423
			c-0.6030579,0.3862076-1.2696381,0.3312531-1.8031464-0.1124496c-0.3092957-0.2572556-0.6477203-0.479538-1.0058441-0.741539
			c-0.4181824,0.5742111-0.8058624,1.1065903-1.2154083,1.6689529c0.1266785,0.1024628,0.2032013,0.1758881,0.2903595,0.2330551
			c0.772995,0.5071793,1.0900879,1.1969299,1.0730743,2.1421356c-0.0453339,2.5199509-0.0154572,5.0412598-0.0153503,7.5620422
			c0.0000305,0.4981079-0.0114746,0.9967499,0.0102997,1.493927c0.0050964,0.1160889,0.120224,0.3226776,0.1914062,0.3256073
			c0.6242523,0.0258636,1.2500153,0.0149536,1.9264374,0.0149536c0-3.4941711,0-6.9107208,0-10.299324
			c0.3338776-0.0535507,0.6875916-0.0044479,0.8746033-0.1581573c0.920517-0.7566223,1.9648743-1.1449509,3.1478577-1.1987076
			c0-0.6706619,0-1.3110123,0-1.9533386c-0.0885468-0.014801-0.1473541-0.0318604-0.2064056-0.0328064
			C140.2471924,121.0848999,140.1568604,121.0945816,140.0665588,121.099556z"/>
		<path class="st0" d="M91.2575378,130.8507996c0.0409851-2.823822,0.0147552-5.6485901,0.0147324-8.4729843
			c0-0.1903381,0-0.3806534,0-0.5784302c-0.6938782,0-1.317955,0-1.9953003,0c0,3.3504028,0,6.6661148,0,9.9886551
			c-0.3165894,0.0379333-0.6012802,0.0189514-0.8392868,0.1153107c-0.2433319,0.0984955-0.4304657,0.3268738-0.6602173,0.4693146
			c-1.0572128,0.6553955-2.1985016,0.8988037-3.4235306,0.6301117c-1.334549-0.2927399-2.9838409-1.553421-2.9108353-3.5890198
			c0.0849228-2.368248,0.0197754-4.7418747,0.0197525-7.1131668c0-0.1623306,0-0.3246536,0-0.5125961
			c-0.6973114,0-1.3493729,0-2.0160217,0c-0.0097504,0.1238327-0.0227509,0.2121658-0.0227509,0.3004761
			c-0.0002289,2.5978241-0.0045395,5.1956863,0.0081787,7.793457c0.0016861,0.3424225,0.0562973,0.693924,0.1461487,1.0250244
			c0.5527802,2.036438,1.9610901,3.2272797,3.9010925,3.860672c0.4402618,0.1437531,0.9078598,0.2036591,1.362854,0.3021545
			c0.2719421,0,0.5438538,0,0.8157959,0c1.1757431-0.1794434,2.2516556-0.5879517,3.2806778-1.2065125
			c0.381134-0.2291107,0.973793-0.2530212,1.4255066,0.1678162c0.3134079,0.2919769,0.6926804,0.5132446,1.0694351,0.785553
			c0.4074097-0.561676,0.7765579-1.0705872,1.1557159-1.5933075c-0.1099167-0.0901337-0.1850586-0.1633911-0.2709961-0.2203979
			C91.546257,132.4906769,91.2438889,131.7911072,91.2575378,130.8507996z"/>
		<path class="st0" d="M74.8490295,127.4472961c-0.932251-0.4050827-1.9165268-0.4807663-2.9019852-0.6209641
			c-0.6250916-0.0889359-1.2571869-0.3028946-1.8229141-0.5867767c-0.5881882-0.2951279-0.7216568-0.8345108-0.5330276-1.4745178
			c0.2271729-0.7707291,0.810173-1.1439819,1.5381393-1.3081284c1.2336044-0.2782135,2.3962631-0.0674515,3.4742661,0.5959244
			c0.2660828,0.1637573,0.5283432,0.3337173,0.8083954,0.5109863c0.4307861-0.4840622,0.8391495-0.9429245,1.2674942-1.4242172
			c-0.1518402-0.1278915-0.2733002-0.2389297-0.4035187-0.3384933c-1.28508-0.9823151-2.7515259-1.4215851-4.3533173-1.3843384
			c-0.9420929,0.0219269-1.8638992,0.2050018-2.6766052,0.7225494c-1.2597504,0.8022461-1.8321457,1.9679871-1.732399,3.4514694
			c0.0953445,1.418045,0.9717178,2.2537079,2.2209549,2.6839905c0.7878036,0.2713623,1.6356201,0.3892212,2.4661484,0.5093994
			c0.7075195,0.1023712,1.4034958,0.1988068,2.0096359,0.6097717c0.5102463,0.3459167,0.7761459,0.8257294,0.7785416,1.4495544
			c0.0034561,0.8992157-0.4875183,1.6134796-1.4526825,1.973465c-1.6122284,0.6013336-3.0815811,0.2994537-4.3968124-0.7941437
			c-0.2982941-0.2480164-0.5895691-0.5044403-0.9043655-0.7743988c-0.4363174,0.4895935-0.845047,0.9482574-1.2676468,1.4224243
			c1.0687637,1.1088104,2.2170715,2.0056915,3.7506714,2.2695465c0.2661819,0.0457764,0.5332565,0.0863953,0.7999115,0.1293793
			c0.3021393,0,0.6042786,0,0.9064178,0c0.1608276-0.0358124,0.3201141-0.0822144,0.4826965-0.1057587
			c1.0207901-0.1476135,1.9436417-0.5145111,2.7530746-1.1677856
			C77.6378326,132.1999969,77.5635376,128.6268005,74.8490295,127.4472961z"/>
		<path class="st0" d="M107.0527115,125.3951721c-0.6335754-2.2993469-2.9882889-3.9690399-5.5670929-3.9841843
			c-1.271019-0.0074692-2.4349136,0.3592834-3.4955673,1.0614319c-0.5178299,0.3427734-1.2738495,0.2856293-1.7438049-0.0949707
			c-0.3136597-0.2540283-0.6486053-0.4818039-1.001503-0.7415695c-0.4006577,0.5516434-0.7707291,1.0611572-1.1560593,1.591713
			c0.1259766,0.104744,0.2225189,0.1981506,0.3315277,0.2735519c0.6850739,0.4737549,0.9893112,1.0909348,0.9773865,1.9557648
			c-0.0396881,2.8840332-0.0150223,5.7689362-0.0150223,8.6534882c0,0.1766663,0,0.3533173,0,0.5404053
			c0.7040405,0,1.3566513,0,2.0334244,0c0-1.6973419,0-3.3573303,0-5.017334c0-1.6566544,0-3.3133011,0-4.8991852
			c0.3866653-0.1212234,0.76017-0.144043,1.0076294-0.3324203c1.0072861-0.7667007,2.1229782-1.1470947,3.3785324-1.0380859
			c1.6794205,0.1458054,3.5039291,1.5297699,3.4494858,3.6411133c-0.0444031,1.7205429-0.0090408,3.4431381-0.0090408,5.1648178
			c0,0.8145294,0,1.6290894,0,2.5317993c0.5265427,0,0.9925308-0.0258636,1.4542084,0.0075836
			c0.4271698,0.0309448,0.5751877-0.0996246,0.5712662-0.548111c-0.0205383-2.3558044,0.0025101-4.7119751-0.018486-7.0677795
			C107.244545,126.5255127,107.2024994,125.9387741,107.0527115,125.3951721z"/>
	</g>
</g>
</svg>
