<?xml version="1.0" encoding="utf-8"?>
<!-- Generator: Adobe Illustrator 21.0.0, SVG Export Plug-In . SVG Version: 6.00 Build 0)  -->
<svg version="1.1" id="Layer_1" xmlns="http://www.w3.org/2000/svg" xmlns:xlink="http://www.w3.org/1999/xlink" x="0px" y="0px"
	 viewBox="0 0 200 200" style="enable-background:new 0 0 200 200;" xml:space="preserve">
<style type="text/css">
	.st0{fill:none;stroke:#FFFFFF;stroke-width:3.5;stroke-miterlimit:10;}
	.st1{fill:none;stroke:#FFFFFF;stroke-width:2.5;stroke-miterlimit:10;}
	.st2{fill:#FFFFFF;}
</style>
<circle class="st0" cx="100.4014435" cy="99.7340851" r="95.1032715"/>
<circle class="st1" cx="100.4014435" cy="99.7340851" r="88.5031052"/>
<g>
	<path class="st2" d="M136.5891724,50.484436c0,0-4.2565308,30.3632355-6.0537415,35.6602554
		c-1.7971954,5.2970123-3.9727554,11.4453278-4.6348801,12.10746c-0.6621246,0.6621246-0.2837677,0.7567139-0.2837677,0.7567139
		s7.3211746-5.0944366,9.8373032-18.2557831C137.9134216,67.8889084,136.7783508,52.8491745,136.5891724,50.484436z"/>
	<path class="st2" d="M137.7242432,49.0655937c0,0,3.3106384,4.1619377,3.7835846,8.7968254
		s1.3242493,9.4589539,1.3242493,10.6886139c0,1.2296677,1.5134277,11.3507462-0.7567139,18.9179077
		c-2.2701569,7.5671616-3.0268707,11.8236923-8.0401154,14.661377s-7.2833939,3.2160492-7.2833939,3.2160492
		s3.4998093,2.0809631,10.0264969-3.5944061c6.5266724-5.6753693,9.6481323-15.2289124,8.796814-27.9039078
		C144.7238617,61.1730537,143.3050232,51.7140999,137.7242432,49.0655937z"/>
	<path class="st2" d="M128.549057,47.9305191c0,0-3.6889954,4.0673485-6.2429123,12.2966385
		s-5.3916016,12.485817-6.9050369,15.5126801c-1.5134277,3.0268707-4.2565231,7.2833939-3.4998093,8.1347046
		c0.7567139,0.8513031,3.3106308,5.7699585,3.2160416,7.4725723c-0.0945892,1.7026062-1.3242493,6.4320831-1.3242493,6.4320831
		s0.8513031,1.7026138,2.6485062,3.12146c1.7972031,1.4188385,4.0673523,2.4593277,4.0673523,2.4593277
		s-5.0132523-3.8781738-4.9186554-7.6617508c0.0945892-3.7835846-0.7567215-10.6886215-0.4729538-11.2561569
		s3.4998169-8.5130615,5.6753769-12.2966385c2.17556-3.7835846,4.9186554-10.5940285,5.8645477-14.8505592
		s2.7430954-7.1888046,3.783577-8.7022362c1.0404968-1.5134315-1.5134277-0.6621246-1.5134277-0.6621246H128.549057z"/>
	<path class="st2" d="M142.1626434,57.0647583c0.0826111-0.2265015,0.1342926-0.3620224,0.1816711-0.4990196
		c0.4122467-1.1921577,0.4563751-2.4304199,0.3982391-3.6682434c-0.1147003-2.4432831-0.8339844-4.6767731-2.6160126-6.4233437
		c-0.667511-0.6542282-1.5009613-1.1548843-2.3054962-1.6495285c-0.981781-0.6036034-1.3342743-1.4215202-1.1014862-2.5301628
		c0.1765594-0.8409004,0.3131409-1.6908112,0.510025-2.5266838c0.242157-1.0280533,0.4920044-2.0625648,1.3470612-2.8724098
		c-1.0278625-0.5489273-1.9690247-0.390934-2.8767395,0.1461449c-0.8246307,0.4879341-1.4215546,1.1987991-1.9167023,2.0119438
		c-0.7390289,1.2136879-1.1617432,2.5469208-1.5227814,3.9048691c-0.0815277,0.3066521-0.2378693,0.4452858-0.5582886,0.5445671
		c-3.7675247,1.1672401-5.9882431,3.8511353-7.0252457,7.5218697c-0.4303513,1.5233192-0.5147858,3.1517525-0.6736603,4.7406502
		c-0.0614548,0.6146011,0.0802689,1.2564964,0.1840439,1.8768387c0.0367661,0.2197266,0.2357483,0.4123001,0.3606873,0.6172752
		c0.0503006-0.0047264,0.1006241-0.0094528,0.1509476-0.0141792c0.1983337-0.3978004,0.4316406-0.7822762,0.5887833-1.1957321
		c0.5961151-1.5683823,1.579834-2.8199921,2.9094086-3.8433418c1.0983429-0.8453712,2.1300964-1.7773247,3.189621-2.6729698
		c0.1637878-0.1384468,0.3182068-0.2879829,0.559967-0.5078964c0.0200806,4.1733742,2.085556,7.1170616,5.1999054,9.612442
		c-0.1316833-1.2930565,0.2373505-2.3765717,0.6618195-3.4482193c0.360321-0.9097519,0.5604706-1.8354111,0.4426727-2.8293495
		c-0.0503235-0.4246101-0.0123749-0.887001,0.109314-1.2953148c0.0851288-0.285656,0.3378296-0.6068077,0.5989075-0.7198067
		c0.1375275-0.0595207,0.5263519,0.2447586,0.6755066,0.4687996c0.4841003,0.7271614,0.9662018,1.4661484,1.3429565,2.2514915
		c0.4077301,0.8499146,0.6960907,1.757061,1.0370636,2.6390381
		C142.0500336,56.7955399,142.0888367,56.8851891,142.1626434,57.0647583z"/>
	<g>
		<path class="st2" d="M80.326683,85.3120499c1.997673-2.7080078,4.7914352-4.1147079,7.9961319-4.8150787
			c0.8149261-0.1781006,1.6516037-0.2565689,2.4786224-0.3812332c-0.0224762-0.0185547-0.0426636-0.0432434-0.0685959-0.0536346
			c-0.0836563-0.0335693-0.1675415-0.0804291-0.2546997-0.089325c-0.9488068-0.0967712-1.4758759-0.7415695-1.9125671-1.4866028
			c-0.2432632-0.4149933-0.4474335-0.8532257-0.6616745-1.2847519c-0.0806808-0.1624908-0.1401062-0.3355408-0.2551804-0.6156158
			c-0.1932144,0.9485016-0.365387,1.7704544-0.5258255,2.5947037c-0.0519638,0.2669144-0.1527634,0.4014664-0.4622574,0.4389496
			c-1.015976,0.1230774-2.0437775,0.2210464-3.0352249,0.4603653c-3.2404938,0.7822342-5.8382721,2.4812012-7.462532,5.4781189
			c-0.9057465,1.6711884-1.3452911,3.4832993-1.5104294,5.3613586c-0.206749,2.3510056-0.0871582,4.6748123,0.7879257,6.9031143
			c0.2347565,0.5977783,0.5343323,1.1700974,0.8154907,1.7786407c-0.0027161,0.0017242-0.0055084,0.0029678-0.0082245,0.0046768
			c1.0517273,1.5599442,2.6042023,2.7802048,2.6042023,2.7802048l0.0536652,0.0518646
			c1.2966537,0.9973526,2.7368469,1.7025909,4.2954559,2.1985931c1.9371414,0.6164246,3.9172668,0.9203568,5.9403229,0.9109955
			c0.0085297-0.0437012,0.0170822-0.08741,0.0256119-0.1311417c-0.0622177-0.0207672-0.1238098-0.0436554-0.1867218-0.0619812
			c-1.1404724-0.332222-2.321312-0.5659409-3.4140778-1.014267c-3.1400833-1.2883301-5.4754639-3.435173-6.6783142-6.6783447
			c-0.8382034-2.2599564-0.9424896-4.5998306-0.6393356-6.9632111
			C78.4997101,88.7397766,79.1441193,86.9151306,80.326683,85.3120499z"/>
		<path class="st2" d="M109.6591339,79.6991043c-2.4437714-0.8464966-4.9629364-0.7150345-7.4810257-0.4916687
			c-0.6373062,0.0565491-1.2696609,0.168808-1.9872742,0.2667999c0.4917603-0.940155,1.1365585-1.6356201,1.8789749-2.2702332
			c-0.4340363,0.0093155-0.851387,0.0337753-1.2611923,0.1029282c-1.7102203,0.2885818-3.2355194,1.0268784-4.6972656,1.9296722
			c-0.187088,0.1155548-0.498909,0.1726532-0.6982803,0.1021881c-1.6039276-0.5669327-3.1975784-1.163559-4.7879791-1.7678986
			c-0.5268631-0.2002029-1.03508-0.4495316-1.6641617-0.725708c0.9308701,2.0136719,2.4738541,3.2370834,4.2892532,4.2778397
			c-2.4597168,0.1276627-4.7015762,0.707428-6.7582169,1.9178467c2.079277-0.3610077,5.1168289-0.4893188,6.1584167-0.2143326
			c-1.1977386,0.8004456-1.8078918,1.9843216-2.2808838,3.2953644c1.6389923-1.6195602,3.6219559-2.4576721,5.8304596-2.6608276
			c2.3003845-0.2116089,4.2501602,0.7617416,6.0350189,2.1742249c-0.1046753-0.389473-0.2199554-0.7629776-0.4081955-1.0951538
			c-0.5975952-1.0545883-1.5334396-1.7598038-2.6631546-2.4101791c0.332222-0.0807037,0.5575714-0.1630707,0.7889404-0.1869736
			c1.1092453-0.1147079,2.2265091-0.1696854,3.3285599-0.3305817c1.0637817-0.1553421,2.1227951,0.4058914,3.1753311-0.0274811
			c1.6155472,0.1574249,3.1001129,0.6513977,4.3269424,1.7538376c1.9516373,1.75383,2.7090912,4.0533905,2.8905334,6.5782471
			c0.1957245,2.7238007-0.424057,5.3017044-1.5478668,7.7701416c-0.9589691,2.1064072-2.3037109,3.8725891-4.4810715,4.8354568
			c-1.1551361,0.5108032-2.3343658,0.981514-3.5342407,1.3738251c-2.7711716,0.9060211-5.6464157,1.3729324-8.5029907,1.9132385
			c-0.1886826,0.0356827-0.3690567,0.1152115-0.5533066,0.1743393c0.0025787,0.0635757,0.0051575,0.1271286,0.0077438,0.1906815
			c1.0465164,0.1679535,2.087738,0.4198837,3.1406631,0.4865036c2.2524109,0.1425323,4.4942932-0.0329666,6.7010727-0.5301361
			c3.1058044-0.6997375,5.9225464-1.9705429,8.1726379-4.2919769c1.1618652-1.1987305,2.1519547-2.5334396,2.7753601-4.0974197
			c0.7924423-1.9880829,1.2214813-4.0600281,1.4007568-6.1941681c0.2417145-2.8776169-0.380127-5.5252991-2.0547028-7.8839569
			C113.8150558,81.7156601,111.891098,80.4722595,109.6591339,79.6991043z"/>
		<g>
			<g>
				<path class="st2" d="M90.7328415,80.0621033c-0.0670624-0.0269012-0.1347198-0.0576782-0.2036438-0.075264
					C90.5974121,80.0113602,90.6661301,80.03508,90.7328415,80.0621033z"/>
				<path class="st2" d="M89.771637,79.7665787c-0.5294495-0.265831-0.8924942-0.7454453-1.2060623-1.2804031
					c-0.2432632-0.4149933-0.4474335-0.8532257-0.6616745-1.2847519c-0.0806808-0.1624908-0.1401062-0.3355408-0.2551804-0.6156158
					c-0.1932144,0.9485016-0.365387,1.7704544-0.5258255,2.5947037c-0.0451355,0.2318802-0.1359177,0.3591232-0.3596039,0.4143524
					C87.7654343,79.5254822,88.8127365,79.5516205,89.771637,79.7665787z"/>
			</g>
		</g>
		<path class="st2" d="M90.3694992,86.1219025c1.6389923-1.6195602,3.6219559-2.4576721,5.8304596-2.6608276
			c2.3003845-0.2116089,4.2501602,0.7617416,6.0350189,2.1742249c-0.1046753-0.389473-0.2199554-0.7629776-0.4081955-1.0951538
			c-0.5975952-1.0545883-1.5334396-1.7598038-2.6631546-2.4101791c0.0317917-0.0077209,0.0584412-0.0152359,0.0883636-0.0229416
			c-0.1845093-0.0751419-0.2963104-0.1081314-0.2963104-0.1081314s0.4198151-0.3498306,3.4983749-0.5597382
			c0.9944687-0.0678177,1.7524109,0.0553207,2.3267822,0.2516098c0.5076904,0.0671463,1.0141068,0.1121902,1.5190582-0.0503235
			c-0.0790939-0.4159698-0.8512497-0.7658691-2.8662796-1.4606857c-2.0290756-0.6996841-3.9181976-0.0699844-3.9181976-0.0699844
			s0,0,0.6996841-1.0495148c0.4099503-0.6149063,1.1785355-1.3480377,1.7461395-1.8513184
			c-0.3946457,0.0110626-0.7776031,0.0347137-1.152626,0.0979919c-1.7102203,0.2885818-3.2355194,1.0268784-4.6972656,1.9296722
			c-0.187088,0.1155548-0.498909,0.1726532-0.6982803,0.1021881c-1.6039276-0.5669327-3.1975784-1.163559-4.7879791-1.7678986
			c-0.5268631-0.2002029-1.03508-0.4495316-1.6641617-0.725708c0.9308701,2.0136719,2.4738541,3.2370834,4.2892532,4.2778397
			c-2.4597168,0.1276627-4.7015762,0.707428-6.7582169,1.9178467c2.079277-0.3610077,5.1168289-0.4893188,6.1584167-0.2143326
			C91.4526443,83.6269836,90.8424911,84.8108597,90.3694992,86.1219025z"/>
		<path class="st2" d="M104.8037796,101.9141922c-0.117218,0.1863251-0.2331924,0.3734589-0.3998337,0.6404648
			c0.577301-0.0564575,0.9591522-0.3149109,1.3230438-0.5929337c1.0669937-0.8152161,1.708519-1.9353409,2.2048645-3.1503448
			c0.6730118-1.6474533,0.9888687-3.3803329,1.1812973-5.1381073c0.1884689-1.7216492,0.1940308-3.4370117-0.3582687-5.1055069
			c-0.637764-1.9266968-1.8084183-3.3925476-3.7239761-4.1847153c-0.2033615-0.0840912-0.4305115-0.1106262-0.6466217-0.1638718
			c-0.0186005,0.0404053-0.0372086,0.0807953-0.055809,0.1212006c0.1204453,0.147789,0.2403564,0.2959824,0.3614273,0.4432373
			c2.2659912,2.7565994,3.2739716,5.9092026,2.9002762,9.4640579
			C107.2980957,97.0262451,106.2852783,99.5594482,104.8037796,101.9141922z"/>
		<path class="st2" d="M100.1305771,102.9215469c-1.6120682,0.1829834-3.2070999,0.450058-4.8112564,0.5274658
			c-2.9386368,0.1418152-5.612114-0.6471252-7.8561859-2.6266174c-0.4472046-0.394455-0.8208466-0.8723145-1.2259064-1.3090057
			c0.2205811,1.0391693,0.6436005,1.9985733,1.2496948,2.8753204c1.0080414,1.4580994,2.3527145,2.4234314,4.1351547,2.6518707
			c2.4804153,0.3179092,4.8290482-0.18927,7.0597534-1.2769623
			C99.1882477,103.5166931,99.6595154,103.1977234,100.1305771,102.9215469z"/>
		<path class="st2" d="M86.4396439,88.2204437c-1.3283005,1.1662292-2.1057434,2.6096497-1.9944458,4.4060364
			c0.1430588,2.3091202,1.319313,4.1520233,2.803627,5.8318176c0.0256271,0.0289993,0.0747299,0.0372543,0.1129074,0.0551605
			c0.0366287-0.0112228,0.0732574-0.0224762,0.1098862-0.0337219c-2.3552094-3.6487198-2.4537506-7.2958221-0.0710678-10.9679871
			C87.0610199,87.7294006,86.736824,87.9595261,86.4396439,88.2204437z"/>
	</g>
	<path class="st2" d="M93.0717239,51.5786438c-0.1446991,0.3788528-0.1840897,0.7644615,0.079155,1.1279373
		c0.2598877,0.3588448,0.6243286,0.2610359,0.9893951,0.162075c0.0953445-0.0258636,0.2840195,0.0700798,0.339325,0.1635971
		c0.1289215,0.2180023,0.2108231,0.4656677,0.2975922,0.70644c0.3020477,0.8382263,0.7800674,1.5640945,1.5856247,1.9584618
		c0.7249527,0.3549271,1.5007782,0.6204567,2.2753525,0.8557434c0.9164429,0.2783966,1.7427673,0.669281,2.3639679,1.4233665
		c0.0698853,0.0848541,0.1699524,0.1448555,0.2946167,0.2484283c0.2527618-0.522049-0.2156906-0.7716751-0.3110352-1.1265068
		c0.0300369-0.0068703,0.0599136-0.0240669,0.0823669-0.017128c0.1439362,0.0443497,0.2869644,0.0919762,0.4290085,0.1422501
		c2.1601181,0.7645302,4.3722916,1.0402489,6.6326828,0.5972672c3.0951996-0.6065788,5.4116058-2.2762527,6.7891922-5.1553497
		c0.0653763-0.1366005,0.0574036-0.4049225-0.0337448-0.5040665c-0.5807648-0.6316833-1.1838608-1.2441864-1.8040619-1.8374176
		c-0.1769257-0.1692467-0.2429657-0.2847557-0.1514282-0.5284576c0.2380753-0.6339645,0.4280014-1.2859344,0.6617661-1.9216499
		c0.1396942-0.3798904,0.0656052-0.6229935-0.2732315-0.8774338c-1.1948318-0.8972626-2.5628967-1.2673302-4.0156326-1.3358879
		c-0.7419586-0.0349922-1.4906311,0.0726357-2.2613602,0.1172638c0.0175934-0.0807724,0.0449982-0.1771049,0.0589447-0.2753754
		c0.1288834-0.9084396,0.3397369-1.8148499,0.3652039-2.7263565c0.0538025-1.9260941-0.3794479-3.779995-1.1658783-5.5317535
		c-0.9426041-2.099678-1.9809799-4.1475563-3.9631882-5.5067463c-0.0301971,0-0.0604172,0-0.0906372,0
		c0.0354538,0.6297665,0.1313477,1.263155,0.0939331,1.8885937c-0.0807724,1.3508911-0.6848145,2.4689598-1.6873474,3.4293137
		c-0.7184525-1.2266922-1.6349869-2.2095184-2.799736-2.9556503c-1.2454758-0.7978172-2.9414978-1.3715019-3.8395386-1.2751007
		c1.4602737,1.6913872,1.2115936,3.5253716,0.4744263,5.3977585c-0.2316666,0.5884399-0.4582901,1.1796646-0.7145996,1.7574539
		c-1.3053665,2.9426727-1.4857178,5.9323692-0.3843384,8.97435c0.218483,0.6034431,0.4818497,1.1906586,0.727417,1.7924881
		c-0.2721252,0.1078148-0.5195618,0.2058067-0.7754822,0.3071861c-0.0378952-0.0307732-0.0771027-0.0626297-0.1153946-0.0937271
		c-1.5885544-1.8184013-2.5793762-4.3661995-2.5793762-7.1919785c0-1.3382111,0.2232056-2.6140251,0.6251297-3.7807121
		c-0.5213776,1.2540054-0.8139725,2.6565552-0.8139725,4.1375732c0,2.8329239,1.0698471,5.377636,2.7700424,7.1422577
		c-0.0278015,0.0385857-0.0545883,0.0771065-0.0739746,0.1186676c-0.0032043,0.0068703-0.005806,0.0138321-0.0089645,0.0207253
		c-0.8403702-0.529705-1.6281128-1.183815-2.3169174-1.9763756c-1.8199005-2.0939598-2.5931168-4.6438103-2.348175-6.9725037
		c-0.3727417,2.3772888,0.3420639,5.0003967,2.1847382,7.1205635C91.3722916,50.393631,92.1928101,51.0551224,93.0717239,51.5786438
		z M113.3963699,51.9279442c0.3314362,0.280262,0.329361,0.4518814,0.0640564,0.7913628
		c-2.1885834,2.8007431-5.0629578,4.1087608-8.5927963,3.9468002c-2.2876129-0.1049538-4.3995819-0.8160286-6.327034-2.0599365
		c-0.0482025-0.0310974-0.0873947-0.0761871-0.0983658-0.0859604c1.2084579-0.717247,2.4366913-1.3653679,3.5727921-2.1473236
		c0.837532-0.5764503,1.6004944-1.2836266,2.3084259-2.0176582c0.4212494-0.4367561,0.8987808-0.6095772,1.4331436-0.653511
		C108.5820236,49.4693108,111.1761322,50.0504417,113.3963699,51.9279442z M106.9011002,47.2395782
		c1.6856461-0.3981247,3.358223-0.5171623,5.0237732,0.0780296c0.5990143,0.2140579,0.6028671,0.2186203,0.4478683,0.8168335
		c-0.1190872,0.4596024-0.2528992,0.9154015-0.3638687,1.3143311c-1.0203781-0.3647919-1.9578629-0.7923775-2.9414291-1.0253563
		c-0.9669037-0.2290192-1.9805679-0.2605095-2.9802475-0.3794327
		C106.1735458,47.6488342,106.4014359,47.3575783,106.9011002,47.2395782z M103.2430496,34.6299477
		c0.8627243,1.3459816,1.5563431,2.7465057,2.0579758,4.2357979c0.8259811,2.4524345,1.0330963,4.9243927,0.1249847,7.4043732
		c-0.7417831,2.0257034-2.0513153,3.6411591-3.7061462,4.9925575c-1.1401749,0.9311218-2.3864365,1.6918259-3.7381821,2.2772675
		c-0.1348267,0.0583878-0.2733231,0.1082726-0.4418716,0.174614c-0.634819-1.2495804-1.1473694-2.5126686-1.5200424-3.8359413
		c-0.9554214-3.3925247-0.2555542-6.38591,2.1574402-8.9585609c0.4633331-0.4940186,0.9867477-0.9338875,1.5001068-1.3783455
		C101.2408066,38.1880302,102.7297363,36.7837944,103.2430496,34.6299477z M94.0733109,46.1339073
		c-0.0309143-0.1436806-0.0704651-0.2861366-0.091423-0.4312706c-0.246376-1.7071075,0.1448822-3.320488,0.7054977-4.9145737
		c0.4241028-1.2059898,0.9077682-2.4026451,1.1892319-3.6433258c0.204628-0.9019394,0.1223297-1.8689766,0.1679535-2.8069458
		c1.5633316,0.7480698,2.6533737,2.1091728,3.6622696,3.6306725c-0.3986053,0.3216362-0.7760773,0.6417542-1.1694031,0.9410095
		c-2.0686493,1.5740547-3.5595779,3.5439491-4.1913986,6.1023293
		C94.2562256,45.3754196,94.2025375,45.7479782,94.0733109,46.1339073z"/>
	<g>
		<path class="st2" d="M79.5132904,70.2730179c-0.8340302-2.6441803-2.4372482-4.5798416-5.3010788-5.1372528
			c-2.4565887-0.478157-4.6968765,0.1119843-6.7293549,1.5421295c-1.6904449,1.1894379-2.7988358,2.7467575-3.1449966,4.8268585
			c-0.3717308,2.2336502-0.2815781,4.4416504,0.1706924,6.6526413c0.4586334,2.2421112,0.9739075,4.4791946,1.2851486,6.7431412
			c0.3654404,2.6584015,0.0046616,5.3348923-0.1084824,8.0020065c-0.0517502,1.2202148-0.2075729,2.4391327-0.2007523,3.6580124
			c0.0102081,1.8242111,0.7740479,3.286026,2.3343658,4.3009415c1.3797531,0.8974686,2.909523,1.3766174,4.5132904,1.6398849
			c0.7126846,0.1169891,1.4363174,0.1819687,2.1576996,0.2280731c1.2660141,0.0809097,2.4167252-0.2397385,3.3870087-1.103157
			c-0.6384811-0.6568985-1.1509399-1.3499451-1.5629883-2.031395h-0.0608978
			c0.0009689,0.0020981,0.0019531,0.0040588,0.0029221,0.0061569c-0.9219894,0.582489-1.9093399,0.7270432-2.9587173,0.5979309
			c-3.3860168-0.4165421-5.8117371-2.8419571-5.4688721-6.6502838c0.1720581-1.9109573,0.3431473-3.8101273,0.2476044-5.7323761
			c-0.1184158-2.3820801-0.2982254-4.7522888-0.7151337-7.1056519c-0.3388138-1.9124069-0.6693268-3.8261032-0.5028458-5.7947998
			c0.2316666-2.7395401,1.5383453-4.7805481,3.8502579-6.1998596c0.8347931-0.5125046,1.746666-0.83004,2.7542496-0.6823502
			c2.0244141,0.2967224,3.5017624,1.3937225,4.508728,3.1441193c0.961525,1.671402,1.3426132,3.5061035,1.4560776,5.4087296
			c0.0313263,0.5254211,0.0479431,1.051712,0.0713196,1.5775833c0.1113358-0.0380096,0.1431046-0.0712738,0.1511993-0.1095657
			C80.1991425,75.4501724,80.322998,72.8399963,79.5132904,70.2730179z"/>
		<path class="st2" d="M88.0424194,74.3066483c-0.0579758,0.4323349-0.1415863,0.8615112-0.188858,1.2948074
			c-0.0116425,0.1067047,0.0445557,0.2966537,0.1174698,0.3249588c0.6987381,0.2713852,1.4077835,0.5162659,2.1923676,0.7968216
			c0.2136154-1.1113129,0.4389648-2.1406555,0.6047287-3.1795273c0.2461243-1.5424271,0.357048-3.095871-0.1133194-4.6168823
			c-0.7411804-2.3967667-2.4122314-4.0356827-4.4905396-5.295639c-1.5936508-0.9661598-3.3065186-1.5301399-5.2115479-1.2369003
			c-1.2387466,0.1906815-2.2015381,0.8466835-3.0144348,1.730896c0.9657974,0.1361618,1.9289169,0.2240143,2.8717957,0.4129257
			C85.8516693,65.5480881,88.5508881,70.514183,88.0424194,74.3066483z"/>
		<path class="st2" d="M69.2135696,52.1962662c0.3832779-0.1387253,0.6725693-0.0523491,0.8620758,0.258709
			c0.2173996,0.3568153,0.4160843,0.7396774,0.5385132,1.1372032c0.5137711,1.668335,0.6787491,3.3958664,0.8134689,5.1269493
			c0.035614,0.457756-0.2245026,0.7052612-0.5978928,0.8558578c-0.844635,0.3406563-1.6893768,0.3443909-2.5531693-0.0929909
			c0.4381409,1.2341118,0.0684891,2.281002-0.6652679,3.3275414c1.9154434-0.6686325,3.6357651-0.5501938,5.1721497,0.7926979
			c0.6474991-0.7317734,1.4141693-1.2591705,2.3649063-1.3435364c0.8920059-0.0791855,1.7965546-0.0169678,2.6041412-0.0169678
			c-1.001152-0.7770004-1.5285034-1.5588646-0.8353882-3.0304756c-0.5196075,0.1424599-1.0832901,0.3671417-1.6658478,0.4392471
			c-0.7526321,0.0931511-1.0426712-0.2227478-1.1035461-0.9650993c-0.0850143-1.0366745-0.1494904-2.0773163-0.2936554-3.1063385
			c-0.2205124-1.5740547-0.5958405-3.1099358-1.4179993-4.4990692c-1.055687-1.7836609-2.7756119-2.2567024-4.672966-2.3008728
			c-0.7052612-0.0163879-1.079483,0.4461899-1.1296234,1.1623535c-0.0125809,0.1800117-0.0080643,0.3623047,0.0029068,0.5426598
			C66.7441177,52.2533646,67.55159,52.7977982,69.2135696,52.1962662z"/>
		<path class="st2" d="M57.6027374,82.6477966c0.2818756,1.1148682,0.5313187,2.2942963,0.4702072,3.4268494
			c-0.1019096,1.8884506-0.2022324,3.7628479,0.0497932,5.6419144c0.2181129,1.6263123,0.6381798,3.1925812,1.467392,4.6228561
			c1.0745964,1.853508,2.6405144,3.057312,4.7322807,3.5435867c-0.7640419-0.943161-1.5758057-1.8386459-2.2661057-2.8195572
			c-1.4195404-2.017128-2.2728653-4.2461243-2.2345734-6.7552414c0.0216217-1.4171906,0.1495819-2.8395386,0.0662498-4.2499084
			c-0.1171036-1.9819489-0.2907982-3.9705353-0.611351-5.9282837c-0.5472221-3.3418808-1.3853073-6.6306076-1.713356-10.0162811
			c-0.2731857-2.8194656,1.0662727-5.0548248,3.6892891-5.8249283c1.3693123-0.4020195,2.7681046-0.3996468,4.1726837-0.2585678
			c0.2844772,0.0285797,0.5666046,0.0803757,0.8501205,0.1193848c0.2809982,0.0386353,0.5623627,0.0746613,0.843544,0.1118469
			c-1.6137466-1.2081833-3.3602486-2.0673599-5.350914-2.3100243c-1.812706-0.2209511-3.4511452,0.1876373-4.7734528,1.5270042
			c-1.3870354,1.4049454-2.0379448,3.1392136-2.2264137,5.0714188c-0.2095375,2.1482239,0.1364899,4.2403107,0.6929321,6.3018875
			C56.1633301,77.4536743,56.9423103,80.035614,57.6027374,82.6477966z"/>
	</g>
	<g>
		<path class="st2" d="M63.1682434,130.3889618c0.0410995-4.0450516,0.0157204-8.0907669,0.0157204-12.1362228
			c0-0.1917725,0-0.3835144,0-0.5583572c-0.0979004-0.0365372-0.1395073-0.0650101-0.1815758-0.0657196
			c-0.3771477-0.0066147-0.7544098-0.0122452-1.1316032-0.0106735c-0.7699471,0.0032043-0.6881828-0.0690842-0.6902809,0.6680832
			c-0.0036163,1.2679749,0.0025139,2.5359726-0.0052528,3.8039017c-0.0010376,0.1711807-0.0588074,0.3420105-0.0903168,0.5129852
			c-0.1767616-0.0547714-0.3769646-0.0732803-0.526638-0.1699829c-1.4092331-0.9104004-2.9400673-1.2089386-4.5852814-0.9291153
			c-3.089695,0.525528-5.5191231,3.2247086-5.6465302,6.2620087c-0.1417656,3.3802338,1.8830605,6.2003174,5.0605812,7.0435181
			c0.3591232,0.0953064,0.7226906,0.173996,1.0841866,0.2603912c0.4532166,0,0.9064331,0,1.3596497,0
			c0.0350609-0.0255737,0.0680275-0.0697937,0.105484-0.0740509c1.0281715-0.1164246,1.938755-0.527771,2.7952347-1.0883026
			c0.3902626-0.2554016,1.1992607-0.1509857,1.5502205,0.1395416c0.3316879,0.2745667,0.6925621,0.5138855,1.0633469,0.7853699
			c0.4163322-0.5762329,0.7909889-1.0947723,1.202343-1.664093
			C63.3192787,132.5931854,63.156189,131.5757904,63.1682434,130.3889618z M61.1701775,131.6379852
			c-0.0000916,0.0423584-0.0245476,0.0846863-0.0611305,0.2031097c-0.5430756-0.1376038-0.9047318,0.172699-1.3116608,0.4406738
			c-1.5538597,1.0231628-3.2046738,1.1278229-4.8463402,0.2714691c-1.6595535-0.8656769-2.4784584-2.3036499-2.5831146-4.1734161
			c-0.1263924-2.2584991,1.4451981-4.5854187,4.074482-4.9767151c1.2805405-0.1905899,2.4464645,0.1244278,3.5209007,0.846405
			c0.243885,0.1638718,0.5596924,0.2469025,0.8544731,0.3002243c0.2256775,0.0408249,0.3637314,0.0742722,0.3629265,0.3403549
			C61.1737976,127.1393738,61.1740494,129.3887024,61.1701775,131.6379852z"/>
		<path class="st2" d="M39.9414253,121.4729691c-3.1952934,0.382103-5.7405357,3.0766068-5.9494057,6.1699219
			c-0.2519302,3.7309494,2.2694054,6.5677872,5.2919502,7.2304001c0.2909126,0.0637817,0.5811081,0.1309357,0.8716278,0.1964874
			c0.4532166,0,0.9064331,0,1.3596497,0c0.1251945-0.0357056,0.2481995-0.0862274,0.3758812-0.1048584
			c1.9251518-0.2811127,3.3850098-1.3237152,4.6246071-2.7949829c-0.4229965-0.4962463-0.8304558-0.9742889-1.252346-1.4692078
			c-0.4990654,0.4552155-0.9460144,0.9045258-1.4350548,1.302002c-2.4407692,1.9837036-6.0198936,1.174057-7.3556671-1.6391296
			c-0.1457291-0.3068848-0.0914688-0.4820862,0.1418839-0.6943207c0.4929352-0.4483337,1.0517044-0.6732025,1.723175-0.6711273
			c2.8699913,0.0089111,5.7400284,0.0038605,8.6100655,0.0036774c0.6895638-0.0000458,0.696804-0.0074921,0.7104034-0.6993713
			c0.0009003-0.0452728,0.0007362-0.0906372-0.0003929-0.1359253
			C47.5545998,124.0178452,44.0538712,120.9811859,39.9414253,121.4729691z M44.8537407,127.1048889
			c-2.0984802,0-4.1971169,0.013504-6.2954102-0.0064774c-0.8722954-0.0083008-1.723774-0.0056229-2.4238739,0.6539001
			c-0.3995514-1.7208862,1.7838936-4.0354309,4.0593834-4.3692627c2.367836-0.3473663,5.0857544,1.5496674,5.2241325,3.7218399
			C45.2110634,127.1048889,45.0323906,127.1048889,44.8537407,127.1048889z"/>
		<path class="st2" d="M131.2857056,132.9236298c-0.7587128-0.4976349-1.0723572-1.1733704-1.059433-2.1030121
			c0.0408936-2.9441681,0.0151062-5.889267,0.0151062-8.8340073c0-0.1766968,0-0.3534088,0-0.5775833
			c-0.4066772,0-0.7655029-0.0052338-1.1240845,0.0016403c-0.2992401,0.0057144-0.6547394-0.0657959-0.8771667,0.0717773
			c-0.1451569,0.0898132-0.0966492,0.4922485-0.1362762,0.7544327c-0.0018616,0.0123367-0.0170746,0.0226135-0.0838623,0.1059036
			c-0.16996-0.0792313-0.3742142-0.1468658-0.5487671-0.260231c-1.3534927-0.8790512-2.8369064-1.1556244-4.4171906-0.943161
			c-2.9867935,0.4015427-5.3834381,2.7477264-5.9064102,5.7610321c-0.5195618,2.9935303,1.0027924,6.0601501,3.7402573,7.3852692
			c0.7470779,0.3616333,1.5886688,0.5280914,2.3869019,0.7840881c0.5136337,0,1.0272903,0,1.5409241,0
			c1.0826416-0.2327728,2.0695953-0.6678009,3.0365143-1.2194672c0.3984222-0.2273407,1.0358734-0.2507629,1.4971619,0.2354279
			c0.2814789,0.2966919,0.6669922,0.4946442,1.0320435,0.7556915c0.4232483-0.5849762,0.8087769-1.1178284,1.1849213-1.6376953
			c-0.0371399-0.0617065-0.047287-0.0927887-0.0684509-0.1111145
			C131.4295502,133.0334473,131.3610382,132.9730377,131.2857056,132.9236298z M128.11026,131.7383881
			c-0.7161865-0.1946869-1.1235123,0.3496246-1.6359024,0.6527863c-2.6640701,1.576355-6.0976486,0.220459-7.0639038-2.7926331
			c-1.0658798-3.3237152,1.3858871-6.6035461,4.8695297-6.5026016c0.8290558,0.024025,1.6012115,0.2715302,2.3073959,0.710083
			c0.4630356,0.2875671,0.8543854,0.7521057,1.5228806,0.5003357C128.11026,126.8187027,128.11026,129.242691,128.11026,131.7383881
			z"/>
		<path class="st2" d="M175.6640625,129.6673431c-0.2706757-1.0626068-0.930069-1.8074493-1.8850555-2.3094635
			c-0.8996582-0.4729004-1.879364-0.5985107-2.8734894-0.7226639c-0.68927-0.0860977-1.4035797-0.2441635-2.0241089-0.5420837
			c-0.8544312-0.410202-1.0179138-1.2545395-0.4584351-2.0171051c0.2201691-0.3000641,0.5623932-0.5501938,0.9015503-0.7149658
			c0.6695404-0.3253326,1.4009399-0.3180695,2.1293182-0.2247314c1.0027313,0.1285095,1.8347321,0.6369171,2.6603394,1.2251205
			c0.4499054-0.5053329,0.8856964-0.9948349,1.3402252-1.5053635c-0.9058685-0.816185-1.906189-1.3581238-3.0465088-1.594841
			c-1.6713257-0.3470001-3.3188019-0.3161316-4.7874298,0.6915894c-1.263031,0.8666-1.7416229,2.1268768-1.5604553,3.6248169
			c0.1642761,1.3583145,1.0680237,2.1340485,2.2662354,2.5690918c0.6719666,0.243988,1.4017487,0.3282623,2.1050262,0.4864807
			c0.7438965,0.1673889,1.5388794,0.223053,2.2193909,0.5311127c1.1841583,0.5360718,1.4124146,2.0505829,0.473175,2.9513855
			c-0.3735199,0.3582458-0.8964691,0.6329498-1.3993225,0.7704163c-1.432663,0.3915863-2.7460175,0.0648346-3.8959961-0.8818054
			c-0.3438873-0.2830963-0.677948-0.5781097-1.0343475-0.8829346c-0.4564209,0.5175323-0.8818512,0.9999542-1.3022308,1.4766388
			c0.9462891,1.1691284,2.3136292,2.0292053,3.6704407,2.3244781c0.2338104,0.0508881,0.468399,0.0982666,0.7026367,0.1472626
			c0.483429,0,0.9668427,0,1.4502869,0c0.4620514-0.1181793,0.9342804-0.2065125,1.3842468-0.3600159
			c1.4742432-0.5029297,2.561142-1.4083405,2.9825439-2.9746399c0.0108643-0.0403595,0.0491486-0.073349,0.0746918-0.1097565
			c0-0.6042633,0-1.2085724,0-1.8128357C175.7250977,129.7643433,175.6775208,129.7201843,175.6640625,129.6673431z"/>
		<path class="st2" d="M32.5953026,121.4373093c-1.0579071,0.1052094-2.0112057,0.4921799-2.8968925,1.0675659
			c-0.4509125,0.2929382-1.2197056,0.2254944-1.6282959-0.1045837c-0.3327713-0.2688293-0.6874428-0.5105438-1.0235119-0.7577515
			c-0.4371052,0.5598755-0.8248081,1.0564728-1.212513,1.5530777c0,0.03022,0,0.0604401,0,0.0906372
			c0.8788185,0.4652939,1.378231,1.1279831,1.3658981,2.189209c-0.0333557,2.8670807-0.0114117,5.7348022-0.0114117,8.6022491
			c0,0.1914978,0,0.3829803,0,0.593399c0.6957436,0,1.331459,0,2.0293007,0c0-3.3652649,0-6.6896896,0-9.9807816
			c0.3406105-0.0651016,0.6845169-0.0304337,0.8768597-0.1847153c0.9041042-0.7251587,1.9123592-1.1296005,3.0986614-1.1640625
			c0-0.641777,0-1.2677841,0-1.9051895c-0.0778923-0.0127945-0.1355438-0.0317612-0.1924095-0.0297546
			C32.8655586,121.4114456,32.7302437,121.4238739,32.5953026,121.4373093z"/>
		<path class="st2" d="M163.2360687,125.8942413c-0.3432617-3.9612732-4.7113037-6.1184616-8.0658875-3.9955063
			c-0.5744324,0.3635483-1.1158295,0.4947357-1.76651,0.4942245c-0.5783081-0.0004349-1.07901-0.0758133-1.5478821-0.4570389
			c-0.2962189-0.2408676-0.67659-0.4023666-1.0437164-0.5277939c-1.8108826-0.6187515-3.5048218-0.3930054-5.058136,0.7561417
			c-0.4638214,0.3431625-1.2196045,0.2952652-1.6583252-0.0635529c-0.3451538-0.2822952-0.7141113-0.5354919-1.0903625-0.8148956
			c-0.4264984,0.5899124-0.8140717,1.1259308-1.2100067,1.673584c0.1158447,0.0922318,0.2045898,0.1738586,0.3036652,0.2400131
			c0.7524414,0.5022964,1.0689392,1.1743851,1.0553284,2.1057434c-0.043045,2.9449005-0.0158844,5.8908234-0.0158691,8.83638
			c0,0.1759033,0,0.3518219,0,0.529953c0.7272339,0,1.3969727,0,2.1083069,0c0-3.4319153,0-6.8265152,0-10.3264084
			c0.6478119,0.1876831,1.0028229-0.1911697,1.4192352-0.4917374c0.9646149-0.696228,2.040451-0.967865,3.2115631-0.6204605
			c1.4206238,0.4214325,2.3155823,1.7145081,2.3222961,3.3621445c0.0102997,2.5225372,0.0028076,5.045166,0.0028534,7.5677643
			c0,0.1762238,0,0.3524628,0,0.5750885c0.5237579,0,0.9893036,0.0003662,1.4548492-0.000061
			c0.6465302-0.0006256,0.6648865-0.0014801,0.6446381-0.6277008c-0.1045074-3.2320404,0.2636414-6.4791718-0.2623291-9.7021561
			c1.0149841-0.1334457,1.0083008-0.1431274,1.5833435-0.5405121c1.189209-0.8217621,2.4668427-1.0967026,3.7934875-0.3998489
			c1.2779388,0.6712341,1.769516,1.8211899,1.7628632,3.2319183c-0.011795,2.507431-0.0032654,5.0149689-0.0032501,7.5224457
			c0,0.1596527,0,0.3193054,0,0.5157318c0.610321,0,1.1538239-0.0202179,1.6949615,0.0069885
			c0.3702087,0.018631,0.4534912-0.1266937,0.4485168-0.4717712c-0.0182495-1.2685852,0.0002747-2.5376434-0.0091095-3.8064117
			C163.2993317,128.9418488,163.3673248,127.4091721,163.2360687,125.8942413z"/>
		<path class="st2" d="M114.2218475,117.2829819c-1.8564148,0.3167496-3.1130524,1.8618011-3.1191559,3.784996
			c-0.0139465,4.3951111-0.0044937,8.7902527-0.0041504,13.1854095c0,0.0905457-0.0190887,0.1915436,0.0143356,0.2687683
			c0.0349731,0.0807495,0.1213226,0.1960449,0.1875916,0.1976318c0.6250916,0.0150146,1.2506866,0.0089264,1.9165573,0.0089264
			c0-3.8028717,0-7.5260849,0-11.3039856c1.0453873,0,2.0481796,0,3.0448837,0c0-0.6968536,0-1.3379593,0-2.018631
			c-1.0254059,0-2.0163193,0-3.0335846,0c-0.1036682-1.410614,0.6202698-2.194397,1.9576035-2.1968155
			c0.3587799-0.0006409,0.7175751-0.0000916,1.1000671-0.0000916c0-0.6876297,0-1.323204,0-1.9441223
			C115.5700607,117.2650681,114.8783798,117.1709747,114.2218475,117.2829819z"/>
		<path class="st2" d="M140.0665588,121.099556c-1.0988617,0.0604477-2.0807953,0.4556427-2.9970703,1.0424423
			c-0.6030579,0.3862076-1.2696381,0.3312531-1.8031464-0.1124496c-0.3092957-0.2572556-0.6477203-0.479538-1.0058441-0.741539
			c-0.4181824,0.5742111-0.8058624,1.1065903-1.2154083,1.6689529c0.1266785,0.1024628,0.2032013,0.1758881,0.2903595,0.2330551
			c0.772995,0.5071793,1.0900879,1.1969299,1.0730743,2.1421356c-0.0453339,2.5199509-0.0154572,5.0412598-0.0153503,7.5620422
			c0.0000305,0.4981079-0.0114746,0.9967499,0.0102997,1.493927c0.0050964,0.1160889,0.120224,0.3226776,0.1914062,0.3256073
			c0.6242523,0.0258636,1.2500153,0.0149536,1.9264374,0.0149536c0-3.4941711,0-6.9107208,0-10.299324
			c0.3338776-0.0535507,0.6875916-0.0044479,0.8746033-0.1581573c0.920517-0.7566223,1.9648743-1.1449509,3.1478577-1.1987076
			c0-0.6706619,0-1.3110123,0-1.9533386c-0.0885468-0.014801-0.1473541-0.0318604-0.2064056-0.0328064
			C140.2471924,121.0848999,140.1568604,121.0945816,140.0665588,121.099556z"/>
		<path class="st2" d="M91.2575378,130.8507996c0.0409851-2.823822,0.0147552-5.6485901,0.0147324-8.4729843
			c0-0.1903381,0-0.3806534,0-0.5784302c-0.6938782,0-1.317955,0-1.9953003,0c0,3.3504028,0,6.6661148,0,9.9886551
			c-0.3165894,0.0379333-0.6012802,0.0189514-0.8392868,0.1153107c-0.2433319,0.0984955-0.4304657,0.3268738-0.6602173,0.4693146
			c-1.0572128,0.6553955-2.1985016,0.8988037-3.4235306,0.6301117c-1.334549-0.2927399-2.9838409-1.553421-2.9108353-3.5890198
			c0.0849228-2.368248,0.0197754-4.7418747,0.0197525-7.1131668c0-0.1623306,0-0.3246536,0-0.5125961
			c-0.6973114,0-1.3493729,0-2.0160217,0c-0.0097504,0.1238327-0.0227509,0.2121658-0.0227509,0.3004761
			c-0.0002289,2.5978241-0.0045395,5.1956863,0.0081787,7.793457c0.0016861,0.3424225,0.0562973,0.693924,0.1461487,1.0250244
			c0.5527802,2.036438,1.9610901,3.2272797,3.9010925,3.860672c0.4402618,0.1437531,0.9078598,0.2036591,1.362854,0.3021545
			c0.2719421,0,0.5438538,0,0.8157959,0c1.1757431-0.1794434,2.2516556-0.5879517,3.2806778-1.2065125
			c0.381134-0.2291107,0.973793-0.2530212,1.4255066,0.1678162c0.3134079,0.2919769,0.6926804,0.5132446,1.0694351,0.785553
			c0.4074097-0.561676,0.7765579-1.0705872,1.1557159-1.5933075c-0.1099167-0.0901337-0.1850586-0.1633911-0.2709961-0.2203979
			C91.546257,132.4906769,91.2438889,131.7911072,91.2575378,130.8507996z"/>
		<path class="st2" d="M74.8490295,127.4472961c-0.932251-0.4050827-1.9165268-0.4807663-2.9019852-0.6209641
			c-0.6250916-0.0889359-1.2571869-0.3028946-1.8229141-0.5867767c-0.5881882-0.2951279-0.7216568-0.8345108-0.5330276-1.4745178
			c0.2271729-0.7707291,0.810173-1.1439819,1.5381393-1.3081284c1.2336044-0.2782135,2.3962631-0.0674515,3.4742661,0.5959244
			c0.2660828,0.1637573,0.5283432,0.3337173,0.8083954,0.5109863c0.4307861-0.4840622,0.8391495-0.9429245,1.2674942-1.4242172
			c-0.1518402-0.1278915-0.2733002-0.2389297-0.4035187-0.3384933c-1.28508-0.9823151-2.7515259-1.4215851-4.3533173-1.3843384
			c-0.9420929,0.0219269-1.8638992,0.2050018-2.6766052,0.7225494c-1.2597504,0.8022461-1.8321457,1.9679871-1.732399,3.4514694
			c0.0953445,1.418045,0.9717178,2.2537079,2.2209549,2.6839905c0.7878036,0.2713623,1.6356201,0.3892212,2.4661484,0.5093994
			c0.7075195,0.1023712,1.4034958,0.1988068,2.0096359,0.6097717c0.5102463,0.3459167,0.7761459,0.8257294,0.7785416,1.4495544
			c0.0034561,0.8992157-0.4875183,1.6134796-1.4526825,1.973465c-1.6122284,0.6013336-3.0815811,0.2994537-4.3968124-0.7941437
			c-0.2982941-0.2480164-0.5895691-0.5044403-0.9043655-0.7743988c-0.4363174,0.4895935-0.845047,0.9482574-1.2676468,1.4224243
			c1.0687637,1.1088104,2.2170715,2.0056915,3.7506714,2.2695465c0.2661819,0.0457764,0.5332565,0.0863953,0.7999115,0.1293793
			c0.3021393,0,0.6042786,0,0.9064178,0c0.1608276-0.0358124,0.3201141-0.0822144,0.4826965-0.1057587
			c1.0207901-0.1476135,1.9436417-0.5145111,2.7530746-1.1677856
			C77.6378326,132.1999969,77.5635376,128.6268005,74.8490295,127.4472961z"/>
		<path class="st2" d="M107.0527115,125.3951721c-0.6335754-2.2993469-2.9882889-3.9690399-5.5670929-3.9841843
			c-1.271019-0.0074692-2.4349136,0.3592834-3.4955673,1.0614319c-0.5178299,0.3427734-1.2738495,0.2856293-1.7438049-0.0949707
			c-0.3136597-0.2540283-0.6486053-0.4818039-1.001503-0.7415695c-0.4006577,0.5516434-0.7707291,1.0611572-1.1560593,1.591713
			c0.1259766,0.104744,0.2225189,0.1981506,0.3315277,0.2735519c0.6850739,0.4737549,0.9893112,1.0909348,0.9773865,1.9557648
			c-0.0396881,2.8840332-0.0150223,5.7689362-0.0150223,8.6534882c0,0.1766663,0,0.3533173,0,0.5404053
			c0.7040405,0,1.3566513,0,2.0334244,0c0-1.6973419,0-3.3573303,0-5.017334c0-1.6566544,0-3.3133011,0-4.8991852
			c0.3866653-0.1212234,0.76017-0.144043,1.0076294-0.3324203c1.0072861-0.7667007,2.1229782-1.1470947,3.3785324-1.0380859
			c1.6794205,0.1458054,3.5039291,1.5297699,3.4494858,3.6411133c-0.0444031,1.7205429-0.0090408,3.4431381-0.0090408,5.1648178
			c0,0.8145294,0,1.6290894,0,2.5317993c0.5265427,0,0.9925308-0.0258636,1.4542084,0.0075836
			c0.4271698,0.0309448,0.5751877-0.0996246,0.5712662-0.548111c-0.0205383-2.3558044,0.0025101-4.7119751-0.018486-7.0677795
			C107.244545,126.5255127,107.2024994,125.9387741,107.0527115,125.3951721z"/>
	</g>
</g>
</svg>
