<svg xmlns="http://www.w3.org/2000/svg" xmlns:xlink="http://www.w3.org/1999/xlink" viewBox="0 0 108.4682 88.5841"><defs><style>.cls-1{fill:none;}.cls-2{fill:#fff;}.cls-3{clip-path:url(#clip-path);}.cls-4{clip-path:url(#clip-path-11);}</style><clipPath id="clip-path"><rect class="cls-1" x="0.0002" width="108.468" height="88.584"/></clipPath><clipPath id="clip-path-11"><rect class="cls-2" x="0.0002" width="108.468" height="88.584"/></clipPath></defs><title>windset White</title><g id="Layer_2" data-name="Layer 2"><g id="Layer_1-2" data-name="Layer 1"><g class="cls-3"><path class="cls-2" d="M59.13419,50.3148c-.001,1.089-1.862,2.195-2.815,1.626a1.2798,1.2798,0,0,1-.565-.894c-.051-1.815-.083-3.636.006-5.448.042-.843.688-1.193,1.51-.963a5.9615,5.9615,0,0,1,1.459.651.98148.98148,0,0,1,.387.683c.048.775.018,1.555.018,2.333q0,1.0065,0,2.012m.001-9.966c-.004.107,0,.215,0,.322v2.889c-.464-.375-.956-.787-1.463-1.18-2.297-1.779-5.075-.724-5.325,2.132-.201,2.292-.142,4.61-.123,6.916a7.25677,7.25677,0,0,0,.424,2.037,2.2388,2.2388,0,0,0,2.034,1.589,3.84467,3.84467,0,0,0,3.502-1.222c.281-.305.548-.621.978-1.11v2.028h3.336V36.5168c-1.148.394-2.205.756-3.262,1.118q-.051,1.3575-.101,2.714"/></g><g class="cls-3"><path class="cls-2" d="M14.328,41.8774c-1.26,0-1.255.002-1.55,1.228q-.7335,3.048-1.48,6.093c-.602-1.849-1.067-3.69-1.525-5.533-.453-1.821-.45-1.793-2.32-1.804-.584-.004-.791.218-.912.74-.433,1.855-.897,3.703-1.355,5.552-.088.359-.205.711-.362,1.25-.591-2.428-1.121-4.646-1.681-6.856-.062-.241-.28-.616-.447-.629-.869-.063-1.745-.029-2.696-.029.072.332.106.537.16.736q1.434,5.2815,2.872,10.562c.441,1.613.447,1.575,2.076,1.624.69.021.967-.188,1.117-.873.544-2.486,1.159-4.957,1.748-7.434.046.01.091.021.137.031q.7725,3.2475,1.545,6.495c.429,1.784.434,1.753,2.236,1.781.618.009.813-.225.956-.783.676-2.624,1.4-5.235,2.107-7.85.376-1.389.754-2.777,1.168-4.301H14.328"/></g><g class="cls-3"><path class="cls-2" d="M44.455,44.2503a2.507,2.507,0,0,0-2.878-2.632,4.232,4.232,0,0,0-3.025,1.64c-.219.24-.429.488-.643.733l-.201-.081v-2.027c-.95.289-1.76.572-2.589.776a.85425.85425,0,0,0-.75,1.005c.029,3.44.013,6.88.016,10.32,0,.256.024.512.035.74h3.349v-.945c0-2.204.069-4.411-.029-6.61a2.03746,2.03746,0,0,1,1.319-2.126c1.256-.627,1.979-.234,1.997,1.158.032,2.526.019,5.053.025,7.579.001.313,0,.626,0,.969h3.412c0-.693.001-1.283-.001-1.873-.007-2.875.026-5.752-.037-8.626"/></g><g class="cls-3"><path class="cls-2" d="M88.46339,44.8322a1.4331,1.4331,0,0,1,2.733.139,20.85636,20.85636,0,0,1,.212,2.122c-1.028,0-1.881.017-2.731-.016-.146-.006-.41-.229-.406-.345a8.65363,8.65363,0,0,1,.192-1.9m2.867,7.575c-2.203.384-3.522-1.101-2.948-3.345h5.805c0-1.187.045-2.261-.01-3.329a4.06253,4.06253,0,0,0-4.003-4.126c-2.668-.207-4.568.993-4.891,3.456a33.24534,33.24534,0,0,0-.097,6.103,3.79081,3.79081,0,0,0,2.129,3.316c2.362,1.158,4.676.658,6.986-.287-.152-.9-.288-1.708-.422-2.508a25.43065,25.43065,0,0,1-2.549.72"/></g><g class="cls-3"><path class="cls-2" d="M106.0894,49.5709c-.005-1.183-.001-2.367-.001-3.55v-1.673h2.248v-2.498h-2.248v-5.356c-.907.281-1.709.591-2.54.768-.72.153-.941.488-.898,1.211.066,1.111.018,2.229.018,3.354-.713.042-1.289.077-1.845.11v2.456h1.845c0,.423-.001.715,0,1.006.004,1.99-.018,3.981.022,5.971a3.33744,3.33744,0,0,0,1.292,2.985c1.386.908,2.945.744,4.485.668v-2.831c-2.125-.205-2.368-.476-2.378-2.621"/></g><g class="cls-3"><path class="cls-2" d="M76.81219,47.9264c-1.135-.716-2.307-1.38-3.401-2.154a1.30554,1.30554,0,0,1-.505-1.096,1.228,1.228,0,0,1,1.059-.55,19.72668,19.72668,0,0,1,2.595.778c.38-.561.868-1.28,1.354-1.997a6.81126,6.81126,0,0,0-4.798-1.241,3.76418,3.76418,0,0,0-3.372,4.101,3.51336,3.51336,0,0,0,1.748,2.836c1,.677,2.073,1.25,3.043,1.965a1.325,1.325,0,0,1,.467,1.13,1.30912,1.30912,0,0,1-1.009.715,4.23155,4.23155,0,0,1-1.73-.489,6.91649,6.91649,0,0,1-1.201-.955c-.508.759-1.009,1.508-1.55,2.316a6.6341,6.6341,0,0,0,3.586,1.751,5.01083,5.01083,0,0,0,3.688-.816c1.982-1.399,2.257-4.886.026-6.294"/></g><g class="cls-3"><path class="cls-2" d="M72.1549,59.5549c-.832-.114-1.228.172-1.447,1.026-.406,1.584-.961,3.131-1.524,4.913-.602-1.915-1.121-3.604-1.672-5.282-.079-.24-.296-.595-.476-.612-.736-.07-1.482-.029-2.225-.029v7.893h1.53v-5.732a47.19912,47.19912,0,0,1,1.79,4.945c.166.535.33.854,1.011.857a.97848.97848,0,0,0,1.107-.85c.519-1.708,1.093-3.399,1.646-5.097.056.008.112.016.168.023v5.838h1.538v-7.882a11.27992,11.27992,0,0,1-1.446-.011"/></g><rect class="cls-2" x="23.0392" y="41.927" width="3.319" height="12.806"/><g class="cls-3"><path class="cls-2" d="M53.8691,62.38569c-.436.697-1.197.536-1.952.555v-2.009c.713-.063,1.447-.227,1.93.413a1.14317,1.14317,0,0,1,.022,1.041m1.849-1.044a1.795,1.795,0,0,0-1.805-1.639c-1.166-.138-2.349-.128-3.601-.186v7.917h1.598v-3.103a1.133,1.133,0,0,1,1.593.826c.196.611.49,1.191.685,1.803a.68638.68638,0,0,0,.829.548c.359-.032.722-.006,1.234-.006-.623-1.435-1.18-2.716-1.738-4.002a1.93858,1.93858,0,0,0,1.205-2.158"/></g><g class="cls-3"><path class="cls-2" d="M36.4887,64.3823c.351-1.013.683-1.969,1.087-3.132.403,1.135.739,2.082,1.112,3.132Zm2.16-4.457c-.281-.7-.943-.292-1.423-.33a.88006.88006,0,0,0-.683.451c-.945,2.332-1.848,4.682-2.757,7.029a1.52,1.52,0,0,0-.05.368c1.495.149,1.517.143,1.768-.445.548-1.283.548-1.283,1.912-1.283h.403c1.306,0,1.292.006,1.803,1.208a.98414.98414,0,0,0,.549.55,6.75569,6.75569,0,0,0,1.319.025c.02-.142.048-.202.031-.245-.952-2.445-1.894-4.894-2.872-7.328"/></g><g class="cls-3"><path class="cls-2" d="M86.542,63.2806c-.501-.254-1.033-.445-1.544-.678-.443-.201-.888-.531-.642-1.029a1.65223,1.65223,0,0,1,1.033-.799,6.16107,6.16107,0,0,1,1.711.182c.276-1.282.277-1.317-.93-1.454a5.71408,5.71408,0,0,0-1.672.055,2.27691,2.27691,0,0,0-.534,4.324c.384.189.791.33,1.181.508.474.215.998.457.873,1.089a1.11518,1.11518,0,0,1-1.297.843,15.12288,15.12288,0,0,1-1.859-.329c-.04.403-.085.842-.13,1.293a5.24082,5.24082,0,0,0,3.376.157,2.26094,2.26094,0,0,0,.434-4.162"/></g><polygon class="cls-2" points="20.743 67.451 22.353 67.451 22.353 64.049 24.925 64.049 24.925 62.738 22.399 62.738 22.399 60.839 25.069 60.839 25.069 59.635 20.743 59.635 20.743 67.451"/><rect class="cls-2" x="0.0002" width="108.468" height="88.584"/><g class="cls-4"><path class="cls-2" d="M24.5231,36.6602c-.107-.001-.214,0-.322,0-1.103.003-1.11.003-1.104,1.127.011,1.859-.208,1.641,1.605,1.656a6.7037,6.7037,0,0,1,.723.004c.691.076.95-.198.935-.911-.044-2.101.183-1.866-1.837-1.876"/></g><rect class="cls-2" x="0.0002" width="108.468" height="88.584"/><g class="cls-4"><path class="cls-2" d="M91.60339,61.5296a1.14107,1.14107,0,1,1-.021-2.282,1.14106,1.14106,0,1,1,.021,2.282m-.045-2.654a1.51657,1.51657,0,1,0,1.628,1.496,1.49134,1.49134,0,0,0-1.628-1.496"/></g><rect class="cls-2" x="0.0002" width="108.468" height="88.584"/><g class="cls-4"><path class="cls-2" d="M91.075,59.6311v1.536c.062.007.125.014.187.02.092-.209.184-.419.307-.701.195.296.337.51.539.818.25-1.718.161-1.843-1.033-1.673"/></g><rect class="cls-2" x="0.0002" width="108.468" height="88.584"/><g class="cls-4"><path class="cls-2" d="M99.9257,35.9738c-.173-.76-.294-1.533-.483-2.288-2.654-10.59-8.634-18.933-17.312-25.403-2.872-2.141-5.889-4.08-9.559-4.624a2.02718,2.02718,0,0,1-.515-.225,37.057,37.057,0,0,0-14.756-3.41,53.30871,53.30871,0,0,0-31.599,9.044c-9.57,6.343-15.406,15.204-17.062,26.67-.338,2.338-.322,2.322,2.004,1.887a1.24871,1.24871,0,0,0,1.166-1.278,30.15138,30.15138,0,0,1,3.381-11.123,38.28511,38.28511,0,0,1,16.095-15.826,2.69329,2.69329,0,0,1,.521-.159l.096.183c-.218.178-.44.353-.655.536-1.821,1.551-3.723,3.016-5.445,4.67a42.97222,42.97222,0,0,0-11.857,18.831c-.637,2.137-.609,2.151,1.574,1.738a1.72785,1.72785,0,0,0,1.524-1.327c.251-.877.606-1.724.932-2.578a2.58361,2.58361,0,0,1,.312-.474.71064.71064,0,0,1,.09.524c-.232,1.187-.499,2.369-.681,3.563-.038.251.18.743.369.793a2.45284,2.45284,0,0,0,2.998-1.955,39.48945,39.48945,0,0,1,5.78-14.263,26.53941,26.53941,0,0,1,5.288-6.266,44.23476,44.23476,0,0,1,13.441-7.379,35.48243,35.48243,0,0,1,18.428-1.676,36.13189,36.13189,0,0,1,16.313,7.526c.489.4,1.011.743,1.552.16.557-.6.133-1.097-.314-1.52-1.054-.997-2.127-1.974-3.191-2.96-.197-.182-.39-.369-.585-.553.062-.071.124-.142.187-.213.296.174.599.337.886.526a43.28923,43.28923,0,0,1,9.567,9.061c4.611,5.642,7.935,11.879,9.011,19.178.187,1.272.443,1.475,1.724,1.486.603.004.927-.206.775-.876"/></g><rect class="cls-2" x="0.0002" width="108.468" height="88.584"/><g class="cls-4"><path class="cls-2" d="M91.1322,69.5877c-1.165.235-2.463.167-3.333,1.186a40.587,40.587,0,0,1-15.689,11.165c-8.68,3.59-17.616,4.762-26.839,2.518a44.07211,44.07211,0,0,1-21.388-12.457,2.33441,2.33441,0,0,0-1.092-.764c-1.537-.248-3.092-.387-4.644-.541a.68683.68683,0,0,0-.556.2c-.07.111.046.401.159.551a12.18825,12.18825,0,0,0,.851.969,58.248,58.248,0,0,0,10.013,8.213,44.56361,44.56361,0,0,0,25.944,7.946c.725,0,1.452.027,2.176-.006.966-.044,1.935-.1,2.896-.209,12.775-1.455,23.275-7.041,31.234-17.229a3.40088,3.40088,0,0,0,.604-.939.83559.83559,0,0,0-.336-.603"/></g><rect class="cls-2" x="0.0002" width="108.468" height="88.584"/><g class="cls-4"><path class="cls-2" d="M67.578,20.6982a10.59867,10.59867,0,0,0-3.539.608c-1.797.696-3.49,1.662-5.23,2.508a10.076,10.076,0,0,1-4.63,1.241,1.447,1.447,0,0,0-.464.162c-.006.093-.012.185-.019.278a11.74789,11.74789,0,0,0,1.56.282,14.389,14.389,0,0,0,5.459-1.265c1.871-.66,3.758-1.281,5.663-1.836a2.632,2.632,0,0,1,2.758.905c.597.627,1.294,1.159,1.999,1.78-.239,1.439-.606,2.153-2.022,4.103a17.3529,17.3529,0,0,0-1.655,2.568,5.39247,5.39247,0,0,0,1.443,6.376c.045.038.142.015.303.026a5.78119,5.78119,0,0,0-.148-.966,3.43333,3.43333,0,0,1,.954-3.692c.633-.659,1.305-1.28,1.976-1.9,1.596-1.477,3.153-2.97,2.817-5.533a13.96655,13.96655,0,0,1,5.433,4.251,3.40831,3.40831,0,0,1,.587,3.13,2.71594,2.71594,0,0,0,.576,2.307c.109-.765.198-1.386.287-2.007a11.23994,11.23994,0,0,0,.279-2.136,7.784,7.784,0,0,0-2.138-4.938c-.955-1.031-2.053-1.93-3.088-2.888,1.763-1.875,2.988-2.169,5.392-1.273a12.533,12.533,0,0,0,1.62.478,2.93684,2.93684,0,0,0,.807-.056c-1.117-.784-2.145-1.456-3.116-2.201a3.23036,3.23036,0,0,0-3.402-.548c-.976.407-1.91.913-2.776,1.332a32.20671,32.20671,0,0,0-.795-3.335c-.878-2.543-2.984-3.677-5.372-4.447-3.402-1.099-6.799-2.216-10.198-3.322-.245-.08-.496-.14-.743-.21-.038.073-.076.146-.113.219.76.47,1.489,1.004,2.287,1.399,2.36,1.169,4.79,2.204,7.109,3.449a19.12731,19.12731,0,0,1,3.721,2.648,3.68324,3.68324,0,0,1,.786,4.499,4.77426,4.77426,0,0,0-4.368-1.996"/></g><rect class="cls-2" x="0.0002" width="108.468" height="88.584"/><g class="cls-4"><path class="cls-2" d="M29.2558,72.89869c-.075-.006-.161.115-.317.235a4.98951,4.98951,0,0,0,.473.543c6.485,5.535,13.861,9.151,22.408,9.974,12.732,1.226,23.694-2.933,33.194-11.293a1.80861,1.80861,0,0,0,.503-.612c.043-.104-.228-.474-.28-.459-1.117.325-2.37.237-3.32,1.082-14.997,13.336-36.413,12.329-49.052,1.365-1.018-.883-2.366-.729-3.609-.835"/></g><rect class="cls-2" x="0.0002" width="108.468" height="88.584"/><g class="cls-4"><path class="cls-2" d="M92.1034,24.4896c-3.759-6.116-8.901-10.424-15.957-12.228a5.16561,5.16561,0,0,0-1.182-.026c.335.284.624.693,1.011.833a24.1784,24.1784,0,0,1,6.511,3.494c5.626,4.306,8.992,10.093,10.942,16.795.586,2.013.275,1.857,2.497,2.15.08.01.159.024.239.037.699.042.835-.176.581-.974a45.705,45.705,0,0,0-4.642-10.081"/></g></g></g></svg>