<?xml version="1.0" encoding="utf-8"?>
<!-- Generator: Adobe Illustrator 21.0.0, SVG Export Plug-In . SVG Version: 6.00 Build 0)  -->
<svg version="1.1" id="Layer_1" xmlns="http://www.w3.org/2000/svg" xmlns:xlink="http://www.w3.org/1999/xlink" x="0px" y="0px"
	 viewBox="0 0 126.9596176 107.2446518" style="enable-background:new 0 0 126.9596176 107.2446518;" xml:space="preserve">
<style type="text/css">
	.st0{fill:#820609;}
	.st1{fill:url(#SVGID_1_);}
	.st2{clip-path:url(#SVGID_3_);fill:#FFFFFF;}
	.st3{clip-path:url(#SVGID_5_);fill:#FFFFFF;}
	.st4{clip-path:url(#SVGID_7_);fill:#FFFFFF;}
	.st5{clip-path:url(#SVGID_9_);fill:#FFFFFF;}
	.st6{clip-path:url(#SVGID_11_);fill:#FFFFFF;}
	.st7{clip-path:url(#SVGID_13_);fill:#FFFFFF;}
	.st8{clip-path:url(#SVGID_15_);fill:#FFFFFF;}
	.st9{fill:#FFFFFF;}
	.st10{clip-path:url(#SVGID_17_);fill:#FFFFFF;}
	.st11{clip-path:url(#SVGID_19_);fill:#FFFFFF;}
	.st12{clip-path:url(#SVGID_21_);fill:#FFFFFF;}
	.st13{clip-path:url(#SVGID_23_);fill:#FFFFFF;}
	.st14{clip-path:url(#SVGID_25_);fill:#FFFFFF;}
	.st15{clip-path:url(#SVGID_27_);fill:#FFFFFF;}
	.st16{clip-path:url(#SVGID_29_);}
	.st17{clip-path:url(#SVGID_31_);}
	.st18{clip-path:url(#SVGID_33_);}
	.st19{clip-path:url(#SVGID_35_);}
	.st20{clip-path:url(#SVGID_37_);}
	.st21{fill:#231F20;}
	.st22{fill:#575454;}
	.st23{fill:url(#SVGID_38_);}
	.st24{clip-path:url(#SVGID_40_);fill:#FFFFFF;}
	.st25{clip-path:url(#SVGID_42_);fill:#FFFFFF;}
	.st26{clip-path:url(#SVGID_44_);fill:#FFFFFF;}
	.st27{clip-path:url(#SVGID_46_);fill:#FFFFFF;}
	.st28{clip-path:url(#SVGID_48_);fill:#FFFFFF;}
	.st29{clip-path:url(#SVGID_50_);fill:#FFFFFF;}
	.st30{clip-path:url(#SVGID_52_);fill:#FFFFFF;}
	.st31{clip-path:url(#SVGID_54_);fill:#FFFFFF;}
	.st32{clip-path:url(#SVGID_56_);fill:#FFFFFF;}
	.st33{clip-path:url(#SVGID_58_);fill:#FFFFFF;}
	.st34{clip-path:url(#SVGID_60_);fill:#FFFFFF;}
	.st35{clip-path:url(#SVGID_62_);fill:#FFFFFF;}
	.st36{clip-path:url(#SVGID_64_);fill:#FFFFFF;}
	.st37{clip-path:url(#SVGID_66_);}
	.st38{clip-path:url(#SVGID_68_);}
	.st39{clip-path:url(#SVGID_70_);}
	.st40{clip-path:url(#SVGID_72_);}
	.st41{clip-path:url(#SVGID_74_);}
</style>
<path class="st21" d="M68.4427872,59.436264c-0.0009995,1.0890007-1.8619995,2.1950035-2.8149948,1.6260033
	c-0.2770081-0.1650009-0.5570068-0.5839996-0.5650024-0.894001c-0.0510025-1.8149986-0.0830002-3.6360016,0.0059967-5.4480019
	c0.0420074-0.8429985,0.6880035-1.192997,1.5100021-0.9629974c0.5089951,0.1429977,1.0060043,0.3759995,1.4589996,0.651001
	c0.1989975,0.1209984,0.3709946,0.4419975,0.387001,0.6829987c0.0480042,0.7749977,0.0179977,1.5550003,0.0179977,2.3330002
	C68.4427872,58.0952644,68.4437866,58.7652664,68.4427872,59.436264 M68.4437866,49.4702644
	c-0.0039978,0.1070023,0,0.2150002,0,0.3220024v2.8889999c-0.4639969-0.375-0.9559937-0.7869987-1.4629974-1.1800003
	c-2.2969971-1.7789993-5.0750046-0.723999-5.3250046,2.132c-0.2010002,2.2919998-0.1419983,4.6100006-0.1230011,6.9160004
	c0.0060005,0.6809998,0.2180023,1.3759995,0.4239998,2.0369987c0.3030014,0.9730034,1.0469971,1.4669952,2.0339966,1.5889969
	c1.3630104,0.1689987,2.5540047-0.1889915,3.5020103-1.2219963c0.2809982-0.3050003,0.5479965-0.6209984,0.9779968-1.1100006
	v2.0279999h3.3360062V45.6382675c-1.1480103,0.3939972-2.2050018,0.7560005-3.2620087,1.118
	C68.510788,47.6612663,68.4767914,48.5652657,68.4437866,49.4702644"/>
<path class="st21" d="M23.6365891,50.9988632c-1.2600021,0-1.2550011,0.0020027-1.5500011,1.2280006
	c-0.4890003,2.0320015-0.9860001,4.0620003-1.4800014,6.0930023c-0.6019974-1.8490028-1.0669975-3.6900024-1.5249977-5.5330009
	c-0.453001-1.8209991-0.4500008-1.7929993-2.3199997-1.8040009c-0.5840015-0.0039978-0.7910004,0.2180023-0.9120007,0.7400017
	c-0.4330006,1.8549995-0.8970013,3.7029991-1.3550014,5.5519981c-0.0879974,0.3590012-0.204999,0.7110023-0.3619986,1.25
	c-0.5910006-2.4279976-1.1210003-4.6459999-1.6810007-6.855999c-0.0619993-0.2410011-0.2799997-0.6160011-0.4469995-0.6290016
	c-0.8690004-0.0629997-1.7449999-0.0289993-2.6960001-0.0289993c0.0720005,0.3320007,0.1059999,0.5370026,0.1599998,0.7360001
	c0.9560003,3.5209999,1.9110003,7.0419998,2.8720007,10.5620003c0.441,1.612999,0.4469995,1.5750046,2.0759993,1.6240005
	c0.6900005,0.0209961,0.9669991-0.1880035,1.1170006-0.8730011c0.5439987-2.4860001,1.1590004-4.9570007,1.7479992-7.4339981
	c0.0459995,0.0099983,0.0910015,0.0209999,0.1369991,0.0309982c0.5150013,2.1650009,1.026001,4.3310013,1.545002,6.4949989
	c0.4289989,1.7840004,0.4339981,1.7530022,2.2360001,1.781002c0.618,0.0090027,0.8129997-0.2250061,0.9559994-0.7830048
	c0.6760006-2.6239967,1.3999996-5.2349968,2.1070004-7.8499947c0.3759995-1.3889999,0.7539978-2.7770004,1.1679993-4.3010025
	C24.7455864,50.9988632,24.1915874,50.9988632,23.6365891,50.9988632"/>
<path class="st21" d="M53.763588,53.3717651c-0.038002-1.7539978-1.1390038-2.6879997-2.8780022-2.632
	c-1.2859993,0.0410004-2.2070007,0.7440033-3.0249977,1.6400032c-0.2190018,0.2399979-0.4290009,0.487999-0.6430016,0.7329979
	c-0.0670013-0.0270004-0.1339989-0.0540009-0.2010002-0.0809975v-2.0270004
	c-0.9500008,0.2889977-1.7599983,0.5719986-2.5890007,0.7759972c-0.5680008,0.1400032-0.7549973,0.4110031-0.75,1.0050011
	c0.0289993,3.4399986,0.0130005,6.8800011,0.0160027,10.3199959c0,0.2560043,0.0239983,0.5120087,0.0349998,0.7400055h3.348999
	v-0.9449997c0-2.2040024,0.0690002-4.4110031-0.0289993-6.6100006c-0.0489998-1.1080017,0.435997-1.6860008,1.3190002-2.1259995
	c1.2559967-0.6270027,1.9789963-0.2340012,1.9969978,1.1579971c0.0320015,2.526001,0.019001,5.0530014,0.0250015,7.5790024
	c0.0009995,0.3130035,0,0.6259995,0,0.9689941h3.4119987c0-0.6929932,0.0009995-1.2829971-0.0009995-1.8729935
	C53.7935867,59.1227684,53.8265877,56.2457657,53.763588,53.3717651"/>
<path class="st21" d="M97.7719879,53.9536667c0.1750031-0.6680031,0.7180023-0.9570007,1.4199982-0.9360008
	c0.7229996,0.0209999,1.177002,0.4090004,1.3130035,1.0750008c0.1309967,0.6459999,0.1380005,1.3169975,0.211998,2.1219978
	c-1.0279999,0-1.8809967,0.0170021-2.7310028-0.0159988c-0.1459961-0.0060005-0.409996-0.2290001-0.4059982-0.3450012
	C97.6009903,55.2176666,97.6119919,54.5636635,97.7719879,53.9536667 M100.6389923,61.5286636
	c-2.2030029,0.3840027-3.5220032-1.1009979-2.9480057-3.3449974h5.8050003c0-1.1870003,0.0449982-2.2610016-0.0100021-3.3290024
	c-0.125-2.4230003-1.621994-3.9409981-4.0029984-4.1259995c-2.6679993-0.2070007-4.5680008,0.993-4.8909988,3.4560013
	c-0.2630005,2.0060005-0.2080002,4.072998-0.0970001,6.1030006c0.0780029,1.4150009,0.7870026,2.6580009,2.1289978,3.3159981
	c2.3619995,1.1579933,4.6760025,0.6579933,6.9860001-0.2869949c-0.1520004-0.9000053-0.2879944-1.708004-0.4219971-2.5080032
	C102.2779922,61.0706673,101.4729919,61.383667,100.6389923,61.5286636"/>
<path class="st21" d="M115.397995,58.6923637c-0.0050049-1.1829987-0.0010071-2.3669968-0.0010071-3.5499992
	c0-0.526001,0-1.0509987,0-1.6730003h2.2480011v-2.4979973h-2.2480011v-2.6780014v-2.6780014
	c-0.9069977,0.281002-1.7089996,0.5909996-2.5399933,0.7680016c-0.7200012,0.1529999-0.9410019,0.487999-0.8980026,1.2109985
	c0.0660019,1.1110001,0.0179977,2.2290001,0.0179977,3.3540001c-0.7129974,0.0419998-1.2890015,0.0769997-1.8450012,0.1100006
	v2.4560013h1.8450012c0,0.4230003-0.0009995,0.7150002,0,1.0060005c0.0039978,1.9899979-0.0179977,3.980999,0.0220032,5.9710007
	c0.022995,1.1529999,0.2409973,2.2969971,1.2919998,2.9850006c1.3860016,0.9079933,2.9449997,0.7439919,4.4850006,0.6679955
	v-2.8309975C115.6509933,61.1083641,115.4079895,60.8373642,115.397995,58.6923637"/>
<path class="st21" d="M86.1207886,57.047863c-1.1350021-0.7159996-2.3070068-1.3799973-3.401001-2.1539993
	c-0.302002-0.2129974-0.6000061-0.8059998-0.5050049-1.0960007c0.0930023-0.2829971,0.7229996-0.6049995,1.0590057-0.5499992
	c0.8419952,0.1380005,1.6509933,0.4799995,2.5949936,0.7779999c0.3800049-0.560997,0.8680038-1.2799988,1.3540039-1.9969978
	c-1.387001-1.0079994-3.2369995-1.4729996-4.7980042-1.2410011c-2.159996,0.3209991-3.4629974,1.9179993-3.371994,4.1010017
	c0.0540009,1.2789993,0.7519989,2.1629982,1.7479935,2.8359985c1,0.6769981,2.0730057,1.25,3.0430069,1.9650002
	c0.2959976,0.2179985,0.5639954,0.8209991,0.4669952,1.1300011c-0.1019974,0.3269997-0.6539993,0.7159996-1.0089951,0.7150002
	c-0.5800018-0.0010033-1.1910019-0.2320023-1.7300034-0.4890022c-0.4219971-0.2010002-0.7549973-0.5900002-1.2009964-0.954998
	c-0.5080032,0.7589989-1.0090027,1.5079994-1.5500031,2.3159981c1.0899963,0.9700012,2.2480011,1.5709991,3.5859985,1.7509956
	c1.3160019,0.177002,2.5719986-0.0279999,3.6880035-0.8159981C88.0767822,61.9428635,88.3517838,58.455864,86.1207886,57.047863"/>
<path class="st21" d="M81.4634933,68.6763611c-0.8320007-0.1139984-1.2280045,0.1719971-1.4470062,1.026001
	c-0.4059982,1.5839996-0.9609985,3.1309967-1.5239944,4.9129944c-0.602005-1.9149933-1.1210022-3.6039963-1.6720047-5.2819977
	c-0.0789948-0.2399979-0.2959976-0.5950012-0.4759979-0.6119995c-0.7360001-0.0699997-1.4820023-0.0289993-2.2249985-0.0289993
	v7.8929977h1.5299988V70.853363c0.7159958,1.6399994,1.2750015,3.2859955,1.7900009,4.9449997
	c0.1660004,0.534996,0.3300018,0.8539963,1.0110016,0.8569946c0.6829987,0.0029984,0.9259949-0.2549973,1.1069946-0.8499985
	c0.5190048-1.7080002,1.0930023-3.3990021,1.6460037-5.0970001c0.0559998,0.0080032,0.1119995,0.0159988,0.1679993,0.0230026
	v5.8379974h1.538002v-7.8819962C82.3694916,68.6873627,81.9094925,68.7373581,81.4634933,68.6763611"/>
<rect x="32.3477898" y="51.0484619" class="st21" width="3.3190002" height="12.8060036"/>
<path class="st21" d="M63.1776848,71.5071564c-0.4360046,0.6970062-1.1969986,0.5360031-1.9519997,0.5550079v-2.0090027
	c0.7130013-0.0630035,1.4470024-0.227005,1.9299965,0.4129944C63.3306847,70.6981583,63.3366814,71.2511597,63.1776848,71.5071564
	 M65.0266876,70.4631577c-0.1470032-0.9509964-0.6689987-1.5049973-1.8049965-1.6389999
	c-1.1660042-0.1380005-2.3490067-0.1279984-3.6010056-0.185997v7.9169998h1.5979996v-3.1029968
	c0.8430023-0.2280045,1.3390045,0.034996,1.5930023,0.8259964c0.1959991,0.6110001,0.4899979,1.1910019,0.6849976,1.8030014
	c0.1399994,0.4430008,0.3889999,0.586998,0.8290062,0.5479965c0.3590012-0.0319977,0.7220001-0.0059967,1.2340012-0.0059967
	c-0.6230011-1.4350052-1.1800079-2.7160034-1.7380104-4.0019989C64.7806854,72.1081619,65.1746902,71.4231567,65.0266876,70.4631577
	"/>
<path class="st21" d="M45.7972832,73.5037613c0.3510017-1.0130005,0.6830025-1.9690018,1.0870018-3.1320038
	c0.4029999,1.1350021,0.7389984,2.0820007,1.1119995,3.1320038H45.7972832z M47.9572868,69.0467606
	c-0.281002-0.7000046-0.9430008-0.2919998-1.4230003-0.3300018c-0.2220001-0.0169983-0.5950012,0.2340012-0.6830025,0.4509964
	c-0.9449997,2.3320007-1.8479996,4.6820068-2.757,7.029007c-0.0439987,0.1119995-0.0349998,0.2439957-0.0499992,0.3679962
	c1.4949989,0.1490021,1.5170021,0.1430054,1.7680016-0.4449997c0.5480003-1.2829971,0.5480003-1.2829971,1.9119987-1.2829971
	h0.4029999c1.3059998,0,1.2919998,0.0059967,1.8030014,1.2080002c0.0970001,0.2269974,0.3339996,0.5059967,0.5489998,0.5499954
	c0.4279976,0.0859985,0.8859978,0.0250015,1.3190002,0.0250015c0.0200005-0.1419983,0.0480003-0.2020035,0.0309982-0.2450027
	C49.877285,73.9297638,48.9352837,71.4807587,47.9572868,69.0467606"/>
<path class="st21" d="M95.8505936,72.4020615c-0.5010071-0.2540054-1.0330048-0.4449997-1.5440063-0.6780014
	c-0.4430008-0.201004-0.8880005-0.5309982-0.6419983-1.0289993c0.1790009-0.3600006,0.6439972-0.7300034,1.0329971-0.7990036
	c0.5240021-0.0919952,1.0980072,0.1030045,1.7110062,0.1820068c0.276001-1.2820053,0.2770004-1.3170013-0.9300003-1.4540024
	c-0.5500031-0.0630035-1.1290054-0.0459976-1.6720047,0.0550003c-1.1199951,0.2080002-1.7399979,0.8929977-1.8639984,1.923996
	c-0.1389999,1.154007,0.25,1.8700027,1.3300018,2.4000015c0.3840027,0.189003,0.7910004,0.3300018,1.1809998,0.5080032
	c0.473999,0.2149963,0.9980011,0.4570007,0.8730011,1.0889969c-0.1300049,0.6620026-0.7089996,0.875-1.2970047,0.8430023
	c-0.6049957-0.0329971-1.2019958-0.2070007-1.8589935-0.3290024c-0.0400009,0.4029999-0.0850067,0.8420029-0.1300049,1.2929993
	c1.1559982,0.4039993,2.2630005,0.5019989,3.3759995,0.1569977c0.8860016-0.2749939,1.4780045-0.8479919,1.5979996-1.8169937
	C97.1435928,73.7070618,96.8095932,72.889061,95.8505936,72.4020615"/>
<polygon class="st21" points="30.0514889,76.572258 31.6614876,76.572258 31.6614876,73.1702576 34.2334862,73.1702576 
	34.2334862,71.8592606 31.7074852,71.8592606 31.7074852,69.9602585 34.377491,69.9602585 34.377491,68.7562561 
	30.0514889,68.7562561 "/>
<path class="st21" d="M33.8316879,45.781662c-0.1069984-0.0009995-0.2140007,0-0.3220024,0
	c-1.1029968,0.0030022-1.1100006,0.0030022-1.1039963,1.1270027c0.0109978,1.8589973-0.2080002,1.6409988,1.6049957,1.6559982
	c0.2410011,0,0.4840012-0.0219994,0.7229996,0.0040016c0.6910019,0.0760002,0.9500046-0.1980019,0.9350052-0.9109993
	C35.6246872,45.5566635,35.8516884,45.7916641,33.8316879,45.781662"/>
<path class="st21" d="M100.9119873,70.651062c-0.6689987,0.0039978-1.1750031-0.5060043-1.1590042-1.1710052
	c0.0149994-0.6269989,0.5050049-1.1049957,1.1380005-1.1109924c0.6790009-0.0070038,1.1730042,0.4939957,1.1570053,1.1709976
	C102.0319824,70.1830597,101.5579834,70.6470642,100.9119873,70.651062 M100.8669891,67.9970551
	c-0.9020004,0.015007-1.5430069,0.6290054-1.5560074,1.489006c-0.0139999,0.8899994,0.654007,1.5369949,1.5890045,1.538002
	c0.9339981,0.0019989,1.6039963-0.6410065,1.5950012-1.5310059
	C102.4859848,68.6070557,101.804985,67.9810638,100.8669891,67.9970551"/>
<path class="st21" d="M100.3835907,68.7525635v1.5359955c0.0619965,0.0070038,0.125,0.0139999,0.1869965,0.0200043
	c0.0920029-0.2089996,0.1839981-0.4190063,0.3069992-0.701004c0.1949997,0.2960052,0.336998,0.5100021,0.5390015,0.8180008
	C101.6665878,68.7075653,101.5775833,68.5825653,100.3835907,68.7525635"/>
<path class="st22" d="M109.2342911,45.0952644c-0.1730042-0.7599983-0.2940063-1.5329971-0.4830017-2.2879982
	c-2.6539993-10.5900002-8.6340027-18.9330025-17.3120041-25.4029961c-2.871994-2.1410065-5.8889999-4.0800018-9.5589981-4.6240005
	c-0.1790009-0.0270004-0.3450012-0.1450043-0.5149994-0.2250061c-4.6780014-2.1800003-9.6229935-3.2649994-14.7559967-3.409996
	C55.1312866,8.82127,44.554287,11.8652687,35.0102882,18.1892662c-9.5699997,6.3430023-15.4059982,15.2040024-17.0620041,26.670002
	c-0.3379974,2.3379974-0.3219986,2.3219986,2.0040054,1.8869972c0.7569962-0.1409988,1.0889969-0.5049973,1.1660004-1.2779999
	c0.3939972-3.9269981,1.5439987-7.6349983,3.3809967-11.1230011c3.6780014-6.9850006,9.2330017-12.072998,16.0950012-15.8259964
	c0.1559982-0.0849991,0.3470001-0.1070023,0.5209961-0.1590042c0.0320053,0.0610046,0.064003,0.1220016,0.0960007,0.1830063
	c-0.2179947,0.1779938-0.4399948,0.3529968-0.6549988,0.5359955c-1.8209991,1.5510025-3.7229996,3.0159988-5.4449997,4.6699982
	c-5.5039978,5.288002-9.6549988,11.4530029-11.8570023,18.8310013c-0.6369934,2.137001-0.6089935,2.151001,1.5740051,1.7380028
	c0.7999954-0.1520004,1.2929993-0.5170021,1.5239944-1.3270035c0.2510071-0.8769989,0.6060028-1.723999,0.9320068-2.5779991
	c0.0659943-0.1720009,0.2059937-0.3169975,0.3119965-0.473999c0.1200027,0.2179985,0.1190033,0.3740005,0.090004,0.5239983
	c-0.2320023,1.1870003-0.4990005,2.3690033-0.6809998,3.5630035c-0.038002,0.2509995,0.1799927,0.743,0.3689957,0.7929993
	c1.3639984,0.362999,2.7200012-0.5580025,2.9980011-1.9550018c1.0159988-5.1230011,2.8939972-9.8999977,5.7799988-14.2629967
	c1.5169983-2.2939987,3.1380005-4.5390015,5.288002-6.2659988c4.0359993-3.2430038,8.5369987-5.6959991,13.4409981-7.3790054
	c6.0040016-2.0599976,12.1410065-2.8769989,18.4280014-1.6759949c6.0469971,1.1559982,11.5220032,3.6179962,16.3130035,7.526001
	c0.4889984,0.3999939,1.010994,0.7429962,1.5519943,0.159996c0.5569992-0.5999985,0.1330032-1.0970001-0.3139954-1.5199966
	c-1.0540009-0.9970016-2.1269989-1.973999-3.1910019-2.9599991c-0.1969986-0.1820068-0.3899994-0.3690033-0.5849991-0.5530014
	c0.0619965-0.0709991,0.1240005-0.1420059,0.1869965-0.2130051c0.2960052,0.1740036,0.598999,0.3370056,0.8860016,0.526001
	c3.7259979,2.4530029,6.7630005,5.6290054,9.5670013,9.0610046c4.6110001,5.6419983,7.9349976,11.8789978,9.0110016,19.1779976
	c0.1869965,1.2719994,0.4429932,1.4749985,1.723999,1.4860001
	C109.0622864,45.9752655,109.3862839,45.7652664,109.2342911,45.0952644"/>
<path class="st22" d="M100.4407959,78.7091599c-1.1650009,0.2350006-2.4630051,0.1669998-3.3330002,1.185997
	c-4.2960052,5.0370026-9.6100006,8.651001-15.689003,11.1650009c-8.6799927,3.590004-17.6160011,4.762001-26.8390007,2.5180054
	c-8.3510017-2.0310059-15.4049988-6.3330002-21.3880005-12.4570007c-0.3089981-0.3170013-0.6949997-0.701004-1.0920029-0.7639999
	c-1.5369949-0.2480011-3.0919952-0.387001-4.6439972-0.5410004c-0.185997-0.0180054-0.4720001,0.0659943-0.5559998,0.1999969
	c-0.0699997,0.1110001,0.0459976,0.401001,0.1589966,0.5510025c0.2570038,0.3429947,0.5580063,0.6539993,0.8510056,0.9690018
	c2.9629974,3.1940002,6.4280014,5.7539978,10.0129967,8.2129974c7.8390007,5.3799973,16.4840012,7.9690018,25.9439964,7.9459991
	c0.7250099,0,1.4520073,0.0270004,2.1760139-0.0059967c0.9659958-0.0440063,1.9349976-0.1000061,2.8959961-0.2089996
	c12.7749939-1.4550018,23.2749939-7.0410004,31.2339935-17.2290039c0.2300034-0.2949982,0.4899979-0.5970001,0.6040039-0.9389954
	C100.8287888,79.1561584,100.5187912,78.693161,100.4407959,78.7091599"/>
<path class="st22" d="M76.8865891,29.8196602c-1.1880035,0.026001-2.4410019,0.1830063-3.5390015,0.6080017
	c-1.7970047,0.6959991-3.4899979,1.6620026-5.2300034,2.5080032c-1.461998,0.7109985-2.9649963,1.2739983-4.6300011,1.2409973
	c-0.1529999-0.0030022-0.3089981,0.1049995-0.4639969,0.1619987c-0.0060043,0.0930023-0.012001,0.1850014-0.0189972,0.2779999
	c0.519989,0.0970001,1.0369987,0.257,1.5600014,0.2820015c1.9329987,0.0909996,3.6809998-0.6380005,5.4589996-1.2649994
	c1.8710022-0.659996,3.7579956-1.2809982,5.6629944-1.8359985c1.0699997-0.3120041,1.9810028,0.0889969,2.7580032,0.9049988
	c0.5970001,0.6269989,1.2939987,1.1589966,1.9990005,1.7799988c-0.239006,1.4389992-0.6060028,2.1529999-2.0220032,4.1030006
	c-0.5979996,0.822998-1.2139969,1.6569977-1.6549988,2.567997c-1.0419998,2.1490021-0.3950043,4.8330002,1.4430008,6.3759995
	c0.0449982,0.038002,0.1419983,0.0150032,0.3030014,0.026001c-0.0510025-0.348999-0.0500031-0.6739998-0.1480026-0.9659996
	c-0.4869995-1.4459991-0.0469971-2.6489983,0.9540024-3.6919975c0.6329956-0.6590004,1.3050003-1.2800026,1.9759979-1.9000015
	c1.5960007-1.4770012,3.1529999-2.9700012,2.8170013-5.5330009c2.2179947,1.0530014,4.0449982,2.3829994,5.4329987,4.2509995
	c0.6869965,0.9260025,0.927002,1.9690018,0.586998,3.1300011c-0.2399979,0.8180008,0.076004,1.5369987,0.576004,2.3069992
	c0.1090012-0.7649994,0.197998-1.3859978,0.2869949-2.007c0.1010056-0.711998,0.3180008-1.4309998,0.2789993-2.1359978
	c-0.1039963-1.8899994-0.8619995-3.5610008-2.1380005-4.9379997c-0.9549942-1.031002-2.0529938-1.9300003-3.0879974-2.8879967
	c1.7630005-1.875,2.987999-2.1689987,5.3919983-1.2730026c0.5270004,0.1959991,1.0720062,0.3550034,1.6200027,0.4779968
	c0.2369995,0.0530014,0.5049973-0.0299988,0.8069992-0.0559998c-1.1169968-0.7839966-2.1449966-1.4559937-3.1159973-2.2009964
	c-1.0530014-0.8069992-2.1780014-1.0579987-3.4020004-0.5479965c-0.9759979,0.4069977-1.9100037,0.9129944-2.776001,1.3319931
	c-0.2470016-1.0649948-0.4150009-2.2369995-0.7949982-3.3349991c-0.878006-2.5429993-2.9840012-3.6769943-5.3720016-4.4469986
	c-3.4020004-1.098999-6.7990036-2.2160034-10.197998-3.3219986c-0.2450027-0.0800018-0.4960022-0.1399994-0.7430038-0.2099991
	c-0.0379944,0.072998-0.0759964,0.1459961-0.1129913,0.2190018c0.7599945,0.4699936,1.4889984,1.0039978,2.2869949,1.3989944
	c2.3600006,1.1689987,4.7900009,2.2040024,7.1089935,3.4490051c1.3330002,0.7159958,2.5970001,1.6329956,3.7210007,2.647995
	c1.3010025,1.1750031,1.5240021,2.7200012,0.7860031,4.4990005C80.1445847,30.2126656,78.5635834,29.7836647,76.8865891,29.8196602"
	/>
<path class="st22" d="M38.5643883,82.0201569c-0.0750008-0.0059967-0.1610031,0.1150055-0.3170013,0.2350006
	c0.1730003,0.201004,0.302002,0.3970032,0.4729996,0.5429993c6.4850006,5.5350037,13.8610001,9.151001,22.4080009,9.973999
	c12.7320023,1.2260056,23.6940002-2.9329987,33.1940002-11.2929993c0.1990051-0.1749954,0.4070053-0.3779984,0.503006-0.6119995
	c0.0429993-0.1039963-0.2280045-0.473999-0.2800064-0.4589996c-1.1169968,0.3250046-2.3699951,0.2369995-3.3199997,1.0820007
	c-14.996994,13.3359985-36.413002,12.3290024-49.052002,1.3650055
	C41.1553879,81.9721603,39.8073883,82.1261597,38.5643883,82.0201569"/>
<path class="st22" d="M101.4119949,33.6110649c-3.7590027-6.1159973-8.901001-10.423996-15.9570007-12.2279968
	c-0.3720016-0.0950012-0.7870026-0.0209961-1.1819992-0.026001c0.3349991,0.2840042,0.6240005,0.6930008,1.010994,0.8330002
	c2.3430023,0.8509979,4.5320053,1.9790039,6.5110016,3.4940033c5.6259995,4.3059998,8.9920044,10.0929947,10.9420013,16.7949944
	c0.5859985,2.0130005,0.2750015,1.8570023,2.4970016,2.1500015c0.0799942,0.0099983,0.1589966,0.0239983,0.2389984,0.0369987
	c0.6989975,0.0419998,0.8349991-0.1759987,0.5810013-0.973999
	C104.9219894,40.1410675,103.3639908,36.7870674,101.4119949,33.6110649"/>
</svg>
