<?xml version="1.0" encoding="utf-8"?>
<!-- Generator: Adobe Illustrator 21.1.0, SVG Export Plug-In . SVG Version: 6.00 Build 0)  -->
<svg version="1.1" id="Layer_1" xmlns="http://www.w3.org/2000/svg" xmlns:xlink="http://www.w3.org/1999/xlink" x="0px" y="0px"
	 viewBox="0 0 127.1971512 107.2446518" style="enable-background:new 0 0 127.1971512 107.2446518;" xml:space="preserve">
<style type="text/css">
	.st0{clip-path:url(#SVGID_2_);fill:#FFFFFF;}
	.st1{clip-path:url(#SVGID_4_);fill:#FFFFFF;}
	.st2{clip-path:url(#SVGID_6_);fill:#FFFFFF;}
	.st3{clip-path:url(#SVGID_8_);fill:#FFFFFF;}
	.st4{clip-path:url(#SVGID_10_);fill:#FFFFFF;}
	.st5{clip-path:url(#SVGID_12_);fill:#FFFFFF;}
	.st6{clip-path:url(#SVGID_14_);fill:#FFFFFF;}
	.st7{fill:#FFFFFF;}
	.st8{clip-path:url(#SVGID_16_);fill:#FFFFFF;}
	.st9{clip-path:url(#SVGID_18_);fill:#FFFFFF;}
	.st10{clip-path:url(#SVGID_20_);fill:#FFFFFF;}
</style>
<g>
	<g>
		<g>
			<defs>
				<rect id="SVGID_1_" x="9.4275532" y="9.2402287" width="108.4680023" height="88.5839996"/>
			</defs>
			<clipPath id="SVGID_2_">
				<use xlink:href="#SVGID_1_"  style="overflow:visible;"/>
			</clipPath>
			<path class="st0" d="M68.5615463,59.555027c-0.0009995,1.0890007-1.8619995,2.1950035-2.8149948,1.6260033
				c-0.2770081-0.1650009-0.5570068-0.5839996-0.5650024-0.894001c-0.0510025-1.8149986-0.0830002-3.6360016,0.0059967-5.4480019
				c0.0420074-0.8429985,0.6880035-1.192997,1.5100021-0.9629974c0.5089951,0.1429977,1.0060043,0.3759995,1.4589996,0.651001
				c0.1989975,0.1209984,0.3709946,0.4419975,0.387001,0.6829987c0.0480042,0.7749977,0.0179977,1.5550003,0.0179977,2.3330002
				C68.5615463,58.2140274,68.5625458,58.8840294,68.5615463,59.555027 M68.5625458,49.5890274
				c-0.0039978,0.1070023,0,0.2150002,0,0.3220024v2.8889999c-0.4639969-0.375-0.9559937-0.7869987-1.4629974-1.1800003
				c-2.2969971-1.7789993-5.0749969-0.723999-5.3249969,2.132c-0.2010002,2.2919998-0.1419983,4.6100006-0.1230011,6.9160004
				c0.0060005,0.6809998,0.2180023,1.3759995,0.4239998,2.0369987c0.3030014,0.9730034,1.0469971,1.4669991,2.0339928,1.5890007
				c1.3630066,0.1689987,2.5540009-0.1889954,3.5020065-1.2220001c0.2809982-0.3050003,0.5479965-0.6209984,0.9779968-1.1100006
				v2.0279999h3.3360062V45.7570305c-1.1480103,0.3939972-2.2050018,0.7560005-3.2620087,1.118
				C68.6295471,47.7800293,68.5955505,48.6840286,68.5625458,49.5890274"/>
		</g>
	</g>
	<g>
		<g>
			<defs>
				<rect id="SVGID_3_" x="9.4275532" y="9.2402287" width="108.4680023" height="88.5839996"/>
			</defs>
			<clipPath id="SVGID_4_">
				<use xlink:href="#SVGID_3_"  style="overflow:visible;"/>
			</clipPath>
			<path class="st1" d="M23.7553539,51.1176262c-1.2600021,0-1.2550011,0.0020027-1.5500011,1.2280006
				c-0.4890003,2.0320015-0.9860001,4.0620003-1.4800014,6.0930023c-0.6019974-1.8490028-1.0669975-3.6900024-1.5249977-5.5330009
				c-0.453001-1.8209991-0.4500008-1.7929993-2.3199997-1.8040009c-0.5840015-0.0039978-0.7910004,0.2180023-0.9120007,0.7400017
				c-0.4330006,1.8549995-0.8970013,3.7029991-1.3550014,5.5519981c-0.0879974,0.3590012-0.204999,0.7110023-0.3619986,1.25
				c-0.5910006-2.4279976-1.1210003-4.6459999-1.6810007-6.855999c-0.0619993-0.2410011-0.2799997-0.6160011-0.4469995-0.6290016
				c-0.8690004-0.0629997-1.7449999-0.0289993-2.6960001-0.0289993c0.0720005,0.3320007,0.1059999,0.5370026,0.1599998,0.7360001
				c0.9560003,3.5209999,1.9110003,7.0419998,2.8720007,10.5620003c0.441,1.612999,0.4469995,1.5750046,2.0759993,1.6240005
				c0.6900005,0.0209961,0.9669991-0.1880035,1.1170006-0.8730011c0.5439987-2.4860001,1.1590004-4.9570007,1.7479992-7.4339981
				c0.0459995,0.0099983,0.0910015,0.0209999,0.1369991,0.0309982c0.5150013,2.1650009,1.026001,4.3310013,1.545002,6.4949989
				c0.4289989,1.7840004,0.4339981,1.7530022,2.2360001,1.781002c0.618,0.0090027,0.8129997-0.2250061,0.9559994-0.7830048
				c0.6760006-2.6239967,1.3999996-5.2349968,2.1070004-7.8499947c0.3759995-1.3889999,0.7539978-2.7770004,1.1679993-4.3010025
				C24.8643513,51.1176262,24.3103523,51.1176262,23.7553539,51.1176262"/>
		</g>
	</g>
	<g>
		<g>
			<defs>
				<rect id="SVGID_5_" x="9.4275532" y="9.2402287" width="108.4680023" height="88.5839996"/>
			</defs>
			<clipPath id="SVGID_6_">
				<use xlink:href="#SVGID_5_"  style="overflow:visible;"/>
			</clipPath>
			<path class="st2" d="M53.8823547,53.4905281c-0.038002-1.7539978-1.1390038-2.6879997-2.8780022-2.632
				c-1.2859993,0.0410004-2.2070007,0.7440033-3.0249977,1.6400032c-0.2190018,0.2399979-0.4290009,0.487999-0.6430016,0.7329979
				c-0.0670013-0.0270004-0.1339989-0.0540009-0.2010002-0.0809975v-2.0270004
				c-0.9500008,0.2889977-1.7599983,0.5719986-2.5890007,0.7759972c-0.5680008,0.1400032-0.7549973,0.4110031-0.75,1.0050011
				c0.0289993,3.4399986,0.0130005,6.8800011,0.0160027,10.3199959c0,0.2560043,0.0239983,0.5120087,0.0349998,0.7400055h3.348999
				v-0.9449997c0-2.2040024,0.0690002-4.4110031-0.0289993-6.6100006c-0.0489998-1.1080017,0.435997-1.6860008,1.3190002-2.1259995
				c1.2559967-0.6270027,1.9789963-0.2340012,1.9969978,1.1579971c0.0320015,2.526001,0.019001,5.0530014,0.0250015,7.5790024
				c0.0009995,0.3130035,0,0.6259995,0,0.9689941h3.4119987c0-0.6929932,0.0009995-1.2829971-0.0009995-1.8729935
				C53.9123535,59.2415314,53.9453545,56.3645287,53.8823547,53.4905281"/>
		</g>
	</g>
	<g>
		<g>
			<defs>
				<rect id="SVGID_7_" x="9.4275532" y="9.2402287" width="108.4680023" height="88.5839996"/>
			</defs>
			<clipPath id="SVGID_8_">
				<use xlink:href="#SVGID_7_"  style="overflow:visible;"/>
			</clipPath>
			<path class="st3" d="M97.8907471,54.0724297c0.1750031-0.6680031,0.7180023-0.9570007,1.4199982-0.9360008
				c0.7229996,0.0209999,1.177002,0.4090004,1.3130035,1.0750008c0.1309967,0.6459999,0.1380005,1.3169975,0.211998,2.1219978
				c-1.0279999,0-1.8809967,0.0170021-2.7310028-0.0159988c-0.1459961-0.0060005-0.409996-0.2290001-0.4059982-0.3450012
				C97.7197495,55.3364296,97.730751,54.6824265,97.8907471,54.0724297 M100.7577515,61.6474266
				c-2.2030029,0.3840027-3.5220032-1.1009979-2.9480057-3.3449974h5.8050003c0-1.1870003,0.0449982-2.2610016-0.0100021-3.3290024
				c-0.125-2.4230003-1.621994-3.9409981-4.0029984-4.1259995c-2.6679993-0.2070007-4.5680008,0.993-4.8909988,3.4560013
				c-0.2630005,2.0060005-0.2080002,4.072998-0.0970001,6.1030006c0.0780029,1.4150009,0.7870026,2.6580009,2.1289978,3.3159981
				c2.3619995,1.1579971,4.6760025,0.6579971,6.9860001-0.2869949c-0.1520004-0.9000053-0.2879944-1.708004-0.4219971-2.5080032
				C102.3967514,61.1894302,101.5917511,61.50243,100.7577515,61.6474266"/>
		</g>
	</g>
	<g>
		<g>
			<defs>
				<rect id="SVGID_9_" x="9.4275532" y="9.2402287" width="108.4680023" height="88.5839996"/>
			</defs>
			<clipPath id="SVGID_10_">
				<use xlink:href="#SVGID_9_"  style="overflow:visible;"/>
			</clipPath>
			<path class="st4" d="M115.5167542,58.8111267c-0.0050049-1.1829987-0.0010071-2.3669968-0.0010071-3.5499992
				c0-0.526001,0-1.0509987,0-1.6730003h2.2480011v-2.4979973h-2.2480011v-2.6780014V45.734127
				c-0.9069977,0.281002-1.7089996,0.5909996-2.5399933,0.7680016c-0.7200012,0.1529999-0.9410019,0.487999-0.8980026,1.2109985
				c0.0660019,1.1110001,0.0179977,2.2290001,0.0179977,3.3540001c-0.7129974,0.0419998-1.2890015,0.0769997-1.8450012,0.1100006
				v2.4560013h1.8450012c0,0.4230003-0.0009995,0.7150002,0,1.0060005c0.0039978,1.9899979-0.0179977,3.980999,0.0220032,5.9710007
				c0.022995,1.1529999,0.2409973,2.2969971,1.2919998,2.9850006c1.3860016,0.9079971,2.9449997,0.7439957,4.4850006,0.6679993
				v-2.8310013C115.7697525,61.2271271,115.5267487,60.9561272,115.5167542,58.8111267"/>
		</g>
	</g>
	<g>
		<g>
			<defs>
				<rect id="SVGID_11_" x="9.4275532" y="9.2402287" width="108.4680023" height="88.5839996"/>
			</defs>
			<clipPath id="SVGID_12_">
				<use xlink:href="#SVGID_11_"  style="overflow:visible;"/>
			</clipPath>
			<path class="st5" d="M86.2395477,57.166626c-1.1350021-0.7159996-2.3070068-1.3799973-3.401001-2.1539993
				c-0.302002-0.2129974-0.6000061-0.8059998-0.5050049-1.0960007c0.0930023-0.2829971,0.7229996-0.6049995,1.0590057-0.5499992
				c0.8419952,0.1380005,1.6509933,0.4799995,2.5949936,0.7779999c0.3800049-0.560997,0.8680038-1.2799988,1.3540039-1.9969978
				c-1.387001-1.0079994-3.2369995-1.4729996-4.7980042-1.2410011c-2.159996,0.3209991-3.4629974,1.9179993-3.371994,4.1010017
				c0.0540009,1.2789993,0.7519989,2.1629982,1.7479935,2.8359985c1,0.6769981,2.0730057,1.25,3.0430069,1.9650002
				c0.2959976,0.2179985,0.5639954,0.8209991,0.4669952,1.1300011c-0.1019974,0.3269997-0.6539993,0.7159996-1.0089951,0.7150002
				c-0.5800018-0.0010033-1.1910019-0.2320023-1.7300034-0.4890022c-0.4219971-0.2010002-0.7549973-0.5900002-1.2009964-0.954998
				c-0.5080032,0.7589989-1.0090027,1.5079994-1.5500031,2.3159981c1.0899963,0.9700012,2.2480011,1.5709991,3.5859985,1.7509995
				c1.3160019,0.177002,2.5719986-0.0279999,3.6880035-0.8160019C88.1955414,62.0616264,88.4705429,58.5746269,86.2395477,57.166626
				"/>
		</g>
	</g>
	<g>
		<g>
			<defs>
				<rect id="SVGID_13_" x="9.4275532" y="9.2402287" width="108.4680023" height="88.5839996"/>
			</defs>
			<clipPath id="SVGID_14_">
				<use xlink:href="#SVGID_13_"  style="overflow:visible;"/>
			</clipPath>
			<path class="st6" d="M81.5822525,68.7951279c-0.8320007-0.1139984-1.2280045,0.1719971-1.4470062,1.026001
				c-0.4059982,1.5839996-0.9609985,3.1309967-1.5239944,4.9129944c-0.602005-1.9149933-1.1210022-3.6039963-1.6720047-5.2819977
				c-0.0789948-0.2399979-0.2959976-0.5950012-0.4759979-0.6119995c-0.7360001-0.0699997-1.4820023-0.0289993-2.2249985-0.0289993
				v7.8929977h1.5299988v-5.7319946c0.7159958,1.6399994,1.2750015,3.2859955,1.7900009,4.9449997
				c0.1660004,0.534996,0.3300018,0.8539963,1.0110016,0.8569946c0.6829987,0.0029984,0.9259949-0.2549973,1.1069946-0.8499985
				c0.5190048-1.7080002,1.0930023-3.3990021,1.6460037-5.0970001c0.0559998,0.0080032,0.1119995,0.0159988,0.1679993,0.0230026
				v5.8379974h1.538002v-7.8819962C82.4882507,68.8061295,82.0282516,68.8561249,81.5822525,68.7951279"/>
		</g>
	</g>
</g>
<rect x="32.4665565" y="51.1672249" class="st7" width="3.3190002" height="12.8060036"/>
<g>
	<g>
		<g>
			<defs>
				<rect id="SVGID_15_" x="9.4275532" y="9.2402287" width="108.4680023" height="88.5839996"/>
			</defs>
			<clipPath id="SVGID_16_">
				<use xlink:href="#SVGID_15_"  style="overflow:visible;"/>
			</clipPath>
			<path class="st8" d="M63.2964516,71.6259232c-0.4360046,0.6970062-1.1969986,0.5360031-1.9519997,0.5550079v-2.0090027
				c0.7130013-0.0630035,1.4470024-0.227005,1.9299965,0.4129944C63.4494514,70.816925,63.4554482,71.3699265,63.2964516,71.6259232
				 M65.1454468,70.5819244c-0.1470032-0.9509964-0.6689987-1.5049973-1.8049889-1.6389999
				c-1.1660042-0.1380005-2.3490067-0.1279984-3.6010056-0.185997v7.9169998h1.5979996v-3.1029968
				c0.8430023-0.2280045,1.3390045,0.034996,1.5930023,0.8259964c0.1959991,0.6110001,0.4899979,1.1910019,0.6849976,1.8030014
				c0.1399994,0.4430008,0.3889961,0.586998,0.8289986,0.5479965c0.3590012-0.0319977,0.7220001-0.0059967,1.2340012-0.0059967
				c-0.6230011-1.4350052-1.1800079-2.7160034-1.7380028-4.0019989
				C64.8994446,72.2269287,65.2934494,71.5419235,65.1454468,70.5819244"/>
		</g>
	</g>
	<g>
		<g>
			<defs>
				<rect id="SVGID_17_" x="9.4275532" y="9.2402287" width="108.4680023" height="88.5839996"/>
			</defs>
			<clipPath id="SVGID_18_">
				<use xlink:href="#SVGID_17_"  style="overflow:visible;"/>
			</clipPath>
			<path class="st9" d="M45.91605,73.6225281c0.3510017-1.0130005,0.6830025-1.9690018,1.0870018-3.1320038
				c0.4029999,1.1350021,0.7389984,2.0820007,1.1119995,3.1320038H45.91605z M48.0760536,69.1655273
				c-0.281002-0.7000046-0.9430008-0.2919998-1.4230003-0.3300018c-0.2220001-0.0169983-0.5950012,0.2340012-0.6830025,0.4509964
				c-0.9449997,2.3320007-1.8479996,4.6820068-2.757,7.029007c-0.0439987,0.1119995-0.0349998,0.2439957-0.0499992,0.3679962
				c1.4949989,0.1490021,1.5170021,0.1430054,1.7680016-0.4449997c0.5480003-1.2829971,0.5480003-1.2829971,1.9119987-1.2829971
				h0.4029999c1.3059998,0,1.2919998,0.0059967,1.8030014,1.2080002c0.0970001,0.2269974,0.3339996,0.5059967,0.5489998,0.5499954
				c0.4279976,0.0859985,0.8859978,0.0250015,1.3190002,0.0250015c0.0200005-0.1419983,0.0480003-0.2020035,0.0309982-0.2450027
				C49.9960518,74.0485306,49.0540504,71.5995255,48.0760536,69.1655273"/>
		</g>
	</g>
	<g>
		<g>
			<defs>
				<rect id="SVGID_19_" x="9.4275532" y="9.2402287" width="108.4680023" height="88.5839996"/>
			</defs>
			<clipPath id="SVGID_20_">
				<use xlink:href="#SVGID_19_"  style="overflow:visible;"/>
			</clipPath>
			<path class="st10" d="M95.9693527,72.5208282c-0.5010071-0.2540054-1.0330048-0.4449997-1.5440063-0.6780014
				c-0.4430008-0.201004-0.8880005-0.5309982-0.6419983-1.0289993c0.1790009-0.3600006,0.6439972-0.7300034,1.0329971-0.7990036
				c0.5240021-0.0919952,1.0980072,0.1030045,1.7110062,0.1820068c0.276001-1.2820053,0.2770004-1.3170013-0.9300003-1.4540024
				c-0.5500031-0.0630035-1.1290054-0.0459976-1.6720047,0.0550003c-1.1199951,0.2080002-1.7399979,0.8929977-1.8639984,1.923996
				c-0.1389999,1.154007,0.25,1.8700027,1.3300018,2.4000015c0.3840027,0.189003,0.7910004,0.3300018,1.1809998,0.5080032
				c0.473999,0.2149963,0.9980011,0.4570007,0.8730011,1.0889969c-0.1300049,0.6620026-0.7089996,0.875-1.2970047,0.8430023
				c-0.6049957-0.0329971-1.2019958-0.2070007-1.8589935-0.3290024c-0.0400009,0.4029999-0.0850067,0.8420029-0.1300049,1.2929993
				c1.1559982,0.4039993,2.2630005,0.5019989,3.3759995,0.1569977c0.8860016-0.2749939,1.4780045-0.8479919,1.5979996-1.8169937
				C97.262352,73.8258286,96.9283524,73.0078278,95.9693527,72.5208282"/>
		</g>
	</g>
</g>
<polygon class="st7" points="30.1702538,76.6910248 31.7802525,76.6910248 31.7802525,73.2890244 34.352253,73.2890244 
	34.352253,71.9780273 31.8262501,71.9780273 31.8262501,70.0790253 34.4962578,70.0790253 34.4962578,68.8750229 
	30.1702538,68.8750229 "/>
</svg>
