<?xml version="1.0" encoding="utf-8"?>
<!-- Generator: Adobe Illustrator 21.1.0, SVG Export Plug-In . SVG Version: 6.00 Build 0)  -->
<svg version="1.1" id="Layer_1" xmlns="http://www.w3.org/2000/svg" xmlns:xlink="http://www.w3.org/1999/xlink" x="0px" y="0px"
	 viewBox="0 0 224.3000031 242.3000031" style="enable-background:new 0 0 224.3000031 242.3000031;" xml:space="preserve">
<style type="text/css">
	.st0{fill:#FFFFFF;}
	.st1{fill:url(#SVGID_1_);}
	.st2{fill:url(#SVGID_2_);}
</style>
<circle class="st0" cx="112.1999969" cy="120" r="91.1987991"/>
<g>
	
		<radialGradient id="SVGID_1_" cx="112.1999969" cy="122.8500061" r="94.1749954" gradientTransform="matrix(1 0 0 -1 0 244)" gradientUnits="userSpaceOnUse">
		<stop  offset="0.3400877" style="stop-color:#FEF19F"/>
		<stop  offset="0.95" style="stop-color:#FDDD10"/>
	</radialGradient>
	<path class="st1" d="M112.1999969,27C60.2000008,27,18,69.1999969,18,121.1999969s42.2000008,94.0999908,94.1999969,94.0999908
		s94.1999969-42.1999969,94.1999969-94.1999969S164.1999969,27,112.1999969,27z M79.1999969,181
		c-21.2999992,0-38.5999985-17.3000031-38.5999985-38.6000061s17.2999992-38.5999985,38.5999985-38.5999985
		c7.5,0,14.5,2.1999969,20.4000015,5.9000015c-6.8000031,0-13.0999985,0.9000015-14.8000031,4
		C80.3999939,121.3999939,102.5,143.0999908,102.5,143.0999908s7.5999985-5.6999969,12.8000031-14.3999939
		c1.5999985,4.3000031,2.5,8.8999939,2.5,13.6999969C117.8000031,163.6999969,100.5,181,79.1999969,181z M115.6999969,114.1999969
		c0.5999985,13.0999985-13.4000015,23.6999969-13.4000015,23.6999969S85.6999969,121.5,89,115.6999969
		C92.3000031,109.8000031,115.6999969,114.1999969,115.6999969,114.1999969z M150.3000031,143.8999939
		c-0.1000061,0.6999969-0.6999969,1.1999969-1.3999939,1.1000061l-2.8999939-0.3000031
		c-0.6999969-0.1000061-1.1999969-0.6000061-1.1000061-1.3000031c1.1000061-12.8000031-2.1999969-25.8000031-10.3000031-36.5999985
		s-19.6999969-17.5-32.3000031-20c-0.6999969-0.0999985-1.0999985-0.6999969-1-1.4000015l0.5-2.9000015
		c0.0999985-0.6999969,0.6999969-1.0999985,1.4000015-1c14,2.6999969,26.7999954,10.0999985,35.9000015,22
		C148,115.4000015,151.6000061,129.8000031,150.3000031,143.8999939z M168.3000031,145.8999939
		c-0.1000061,0.6999969-0.6999969,1.1999969-1.3999939,1.1000061l-4.5-0.5c-0.6999969,0-1.1999969-0.6000061-1.1000061-1.3000031
		c1.8000031-17-2.3999939-34.3000031-13.1999969-48.5999985C137.4000092,82.2999954,121.9000092,73.5,105.1000061,70.5
		c-0.6999969-0.0999985-1.0999985-0.6999969-1-1.4000015l0.8000031-4.4000015c0.0999985-0.7000008,0.6999969-1.0999985,1.4000015-1
		c18.5,3.1999969,35.5999985,12.9000015,47.5999985,28.5999985
		C165.8000031,108.0999985,170.3999939,127.1999969,168.3000031,145.8999939z M185,149.1000061l-4.3999939-0.5
		C179.9000092,148.5,179.4000092,147.9000092,179.5,147.2000122c2.6000061-21.5999985-2.6000061-43.8000031-16.3000031-62
		s-33.5-29.4000015-55-32.9000015c-0.6999969-0.0999985-1.0999985-0.7000008-1-1.4000015L108,46.6000099
		c0.0999985-0.7000008,0.6999969-1.0999985,1.4000015-1c23.2000046,3.7000008,44.7000046,15.7000008,59.4999924,35.4000053
		c14.8999939,19.6999969,20.3999939,43.5999985,17.5,67C186.3000031,148.6999969,185.6999969,149.1999969,185,149.1000061z"/>
	
		<radialGradient id="SVGID_2_" cx="72.9151611" cy="107.1500092" r="5.948926" gradientTransform="matrix(1 0 0 -1 0 244)" gradientUnits="userSpaceOnUse">
		<stop  offset="0.3400877" style="stop-color:#FEF19F"/>
		<stop  offset="0.95" style="stop-color:#FDDD10"/>
	</radialGradient>
	<path class="st2" d="M76.3000031,132.3999939c-2.8000031-2.1000061-6.5999985-1.8000031-8.4000015,0.6999969
		c-1.9000015,2.5-1.0999985,6.1000061,1.6999969,8.1999969c2.8000031,2.1000061,6.5999985,1.8000031,8.4000015-0.6999969
		S79,134.5,76.3000031,132.3999939z"/>
</g>
</svg>
