<?xml version="1.0" encoding="utf-8"?>
<!-- Generator: Adobe Illustrator 21.0.2, SVG Export Plug-In . SVG Version: 6.00 Build 0)  -->
<svg version="1.1" id="Layer_1" xmlns="http://www.w3.org/2000/svg" xmlns:xlink="http://www.w3.org/1999/xlink" x="0px" y="0px"
	 viewBox="0 0 216 216" enable-background="new 0 0 216 216" xml:space="preserve">
<g>
	<radialGradient id="SVGID_1_" cx="107.1894531" cy="108.1889648" r="105.689209" gradientUnits="userSpaceOnUse">
		<stop  offset="0" style="stop-color:#2B3336"/>
		<stop  offset="0.2648915" style="stop-color:#242D30"/>
		<stop  offset="0.665426" style="stop-color:#101A1D"/>
		<stop  offset="1" style="stop-color:#000000"/>
	</radialGradient>
	<path fill="url(#SVGID_1_)" d="M107.1894531,213.8779297C48.9121094,213.8779297,1.5,166.4658203,1.5,108.1894531
		C1.5,49.9121094,48.9121094,2.5,107.1894531,2.5s105.6894531,47.4121094,105.6894531,105.6894531
		C212.8789062,166.4658203,165.4667969,213.8779297,107.1894531,213.8779297z"/>
	<path fill="#FFFFFF" d="M107.1895218,3.999984c57.5419998,0,104.189003,46.6471672,104.189003,104.1892319
		c0,57.5419998-46.6470032,104.1890335-104.189003,104.1890335c-57.542366,0-104.189537-46.6470337-104.189537-104.1890335
		C2.9999881,50.6471519,49.6471558,3.999984,107.1895218,3.999984 M107.1895218,0.9999841
		c-28.6313705,0-55.5490341,11.1496334-75.7944641,31.395031C11.149621,52.6403847-0.0000119,79.5579529-0.0000119,108.1892166
		c0,28.6312332,11.1496325,55.5487747,31.3950653,75.7941055s47.1630669,31.394928,75.7944641,31.394928
		c28.6312332,0,55.5487289-11.1495972,75.7940598-31.394928c20.2453461-20.2453766,31.3949432-47.1628723,31.3949432-75.7941055
		c0-28.6312637-11.1495972-55.5488319-31.3949432-75.7942047C162.7382507,12.1496172,135.8207245,0.9999841,107.1895218,0.9999841
		L107.1895218,0.9999841z"/>
</g>
<path fill="#FFE885" d="M100.651535,44.5426331c-0.7360077-0.126709-1.4370117,0.3769989-1.5640259,1.1124115l-0.8424835,4.8846893
	c-0.1265106,0.7339935,0.366394,1.4221954,1.0995026,1.5527954c18.5859985,3.308197,35.6979828,13.0823212,47.6079865,28.915802
	c11.9109955,15.8348999,16.5570221,34.986908,14.5810089,53.7628784c-0.0780029,0.7390137,0.4440002,1.4020386,1.1829987,1.4830017
	l4.9309998,0.5450134c0.7419891,0.0820007,1.4200134-0.4519958,1.5020142-1.1940002
	c2.2969818-20.7059937-2.7610168-41.8635864-15.9020081-59.3322754
	C140.1085205,58.804245,121.1825104,48.0767365,100.651535,44.5426331L100.651535,44.5426331z"/>
<path fill="#FDDD10" d="M111.1225281,100.4432373c0,0-25.9105072-4.822113-29.52771,1.6080017
	c-3.6168976,6.4309998,14.7641907,24.5149841,14.7641907,24.5149841S111.7155304,114.9112244,111.1225281,100.4432373
	L111.1225281,100.4432373z M93.2840271,95.4991455c-6.5536957-4.0997314-14.294693-6.4775085-22.5951996-6.4775085
	c-23.5683136,0-42.6740875,19.1055908-42.6740875,42.6745911c0,23.5679932,19.1057739,42.6739807,42.6740875,42.6739807
	c23.5683899,0,42.6746979-19.1059875,42.6746979-42.6739807c0-5.3379822-0.9889984-10.4420166-2.779007-15.1520081
	c-5.8069916,9.5970154-14.1510925,15.9390259-14.1510925,15.9390259S72.028717,108.472229,76.8309174,99.9344177
	C78.8026276,96.4295349,85.7633209,95.4448547,93.2840271,95.4991455L93.2840271,95.4991455z M69.318222,129.6802368
	c-2.0288086,2.7309875-6.171402,3.0889893-9.2528992,0.8009949c-3.0818176-2.2889709-3.9352875-6.3590088-1.9067993-9.0899963
	c2.0288086-2.7310181,6.1716919-3.0900269,9.2532043-0.8009949
	C70.4933319,122.8792419,71.3470154,126.9492493,69.318222,129.6802368L69.318222,129.6802368z"/>
<path fill="#FEE258" d="M97.2657166,64.2930298c-0.741394-0.1414032-1.4568024,0.3654938-1.5851898,1.1092072l-0.551712,3.1970062
	c-0.1249847,0.7241821,0.3547211,1.4030762,1.075592,1.545578c13.947113,2.7554932,26.7431183,10.2332001,35.7201233,22.1681366
	c8.9769897,11.9342651,12.6139832,26.3012695,11.3939819,40.4662781c-0.0629883,0.7319946,0.4560089,1.3809814,1.1870117,1.4620056
	l3.223999,0.3560181c0.7509918,0.0829468,1.4359894-0.4640198,1.5059967-1.2150269
	c1.4519958-15.6480103-2.5140076-31.5499878-12.4340057-44.7380066
	C126.8815155,75.4562378,112.7024994,67.2367249,97.2657166,64.2930298L97.2657166,64.2930298z"/>
<path fill="#FFEEAC" d="M169.9795227,63.6875305c-16.4129944-21.8194885-40.1720123-35.0679932-65.881012-39.1917877
	c-0.7319794-0.1173096-1.4259949,0.3852844-1.5529938,1.116684l-0.8300018,4.8110046
	c-0.1279907,0.7393951,0.3730011,1.4309082,1.1130066,1.5528107c23.7720032,3.9075775,45.720993,16.2144775,60.9099884,36.4059906
	c15.1880035,20.1918945,20.9260101,44.6929932,18.0890045,68.6159973c-0.0879822,0.7449951,0.4380188,1.4169922,1.1840057,1.5
	l4.8519897,0.5360107c0.7380066,0.0820007,1.4130096-0.4450073,1.503006-1.1820068
	C192.5335236,112.0082397,186.3925171,85.5069275,169.9795227,63.6875305L169.9795227,63.6875305z"/>
</svg>
