<?xml version="1.0" encoding="utf-8"?>
<!-- Generator: Adobe Illustrator 21.0.2, SVG Export Plug-In . SVG Version: 6.00 Build 0)  -->
<svg version="1.1" id="Layer_1" xmlns="http://www.w3.org/2000/svg" xmlns:xlink="http://www.w3.org/1999/xlink" x="0px" y="0px"
	 viewBox="0 0 224.3 242.3" style="enable-background:new 0 0 224.3 242.3;" xml:space="preserve">
<style type="text/css">
	.st0{fill:#FFFFFF;}
	.st1{fill:url(#SVGID_1_);}
	.st2{fill:#FFE785;}
	.st3{fill:#FCDC0E;}
	.st4{fill:#FDE158;}
	.st5{fill:#FFEDAB;}
</style>
<g>
	<path class="st0" d="M111.9,218.4c-53.3,0-96.7-43.4-96.7-96.7s43.4-96.7,96.7-96.7c53.3,0,96.7,43.4,96.7,96.7
		S165.2,218.4,111.9,218.4z"/>
	<path class="st0" d="M111.9,27.6c52,0,94.2,42.2,94.2,94.2s-42.2,94.2-94.2,94.2s-94.2-42.2-94.2-94.2S59.9,27.6,111.9,27.6
		 M111.9,22.6c-54.7,0-99.2,44.5-99.2,99.2s44.5,99.2,99.2,99.2s99.2-44.5,99.2-99.2S166.6,22.6,111.9,22.6L111.9,22.6z"/>
</g>
<g>
	<radialGradient id="SVGID_1_" cx="112.1893" cy="121.1891" r="94.1552" gradientUnits="userSpaceOnUse">
		<stop  offset="0" style="stop-color:#2B3336"/>
		<stop  offset="0.2649" style="stop-color:#242D30"/>
		<stop  offset="0.6654" style="stop-color:#101A1D"/>
		<stop  offset="1" style="stop-color:#000000"/>
	</radialGradient>
	<path class="st1" d="M112.2,215.3c52,0,94.2-42.2,94.2-94.2S164.2,27,112.2,27C60.2,27,18,69.2,18,121.2S60.2,215.3,112.2,215.3
		L112.2,215.3z"/>
	<path class="st2" d="M106.3,63.7c-0.7-0.1-1.3,0.3-1.4,1l-0.8,4.4c-0.1,0.7,0.3,1.3,1,1.4c16.8,3,32.3,11.8,43,26.1
		c10.8,14.3,15,31.6,13.2,48.6c-0.1,0.7,0.4,1.3,1.1,1.3l4.5,0.5c0.7,0.1,1.3-0.4,1.4-1.1c2.1-18.7-2.5-37.8-14.4-53.6
		C141.9,76.6,124.8,66.9,106.3,63.7L106.3,63.7z"/>
	<path class="st3" d="M115.7,114.2c0,0-23.4-4.4-26.7,1.5c-3.3,5.8,13.3,22.2,13.3,22.2S116.3,127.3,115.7,114.2L115.7,114.2z
		 M99.6,109.7c-5.9-3.7-12.9-5.9-20.4-5.9c-21.3,0-38.6,17.3-38.6,38.6c0,21.3,17.3,38.6,38.6,38.6c21.3,0,38.6-17.3,38.6-38.6
		c0-4.8-0.9-9.4-2.5-13.7c-5.2,8.7-12.8,14.4-12.8,14.4s-22.1-21.7-17.7-29.4C86.5,110.6,92.8,109.7,99.6,109.7L99.6,109.7z
		 M78,140.6c-1.8,2.5-5.6,2.8-8.4,0.7c-2.8-2.1-3.6-5.7-1.7-8.2c1.8-2.5,5.6-2.8,8.4-0.7C79,134.5,79.8,138.1,78,140.6L78,140.6z"/>
	<path class="st4" d="M103.2,81.5c-0.7-0.1-1.3,0.3-1.4,1l-0.5,2.9c-0.1,0.7,0.3,1.3,1,1.4c12.6,2.5,24.2,9.2,32.3,20
		c8.1,10.8,11.4,23.8,10.3,36.6c-0.1,0.7,0.4,1.2,1.1,1.3l2.9,0.3c0.7,0.1,1.3-0.4,1.4-1.1c1.3-14.1-2.3-28.5-11.2-40.4
		C130,91.6,117.2,84.2,103.2,81.5L103.2,81.5z"/>
	<path class="st5" d="M168.9,81c-14.8-19.7-36.3-31.7-59.5-35.4c-0.7-0.1-1.3,0.3-1.4,1l-0.8,4.3c-0.1,0.7,0.3,1.3,1,1.4
		c21.5,3.5,41.3,14.7,55,32.9c13.7,18.2,18.9,40.4,16.3,62c-0.1,0.7,0.4,1.3,1.1,1.4l4.4,0.5c0.7,0.1,1.3-0.4,1.4-1.1
		C189.3,124.6,183.8,100.7,168.9,81L168.9,81z"/>
</g>
</svg>
