<?xml version="1.0" encoding="utf-8"?>
<!-- Generator: Adobe Illustrator 21.1.0, SVG Export Plug-In . SVG Version: 6.00 Build 0)  -->
<svg version="1.1" id="Layer_1" xmlns="http://www.w3.org/2000/svg" xmlns:xlink="http://www.w3.org/1999/xlink" x="0px" y="0px"
	 width="224.3px" height="242.3px" viewBox="0 0 224.3 242.3" style="enable-background:new 0 0 224.3 242.3;" xml:space="preserve"
	>
<path d="M203.2,53.3c0,0-59-11.1-67.3,3.8c-8.3,14.6,33.5,55.9,33.5,55.9S204.7,86.4,203.2,53.3L203.2,53.3z M162.6,42
	c-14.9-9.3-32.5-14.9-51.4-14.9c-53.7,0-97.3,43.6-97.3,97.3s43.6,97.3,97.3,97.3s97.3-43.6,97.3-97.3c0-12.1-2.3-23.7-6.3-34.5
	c-13.1,21.9-32.3,36.3-32.3,36.3s-55.7-54.7-44.6-74.1C129.6,44.3,145.5,42,162.6,42L162.6,42z M108.2,119.9
	c-4.5,6.3-14.1,7.1-21.2,1.8c-7.1-5.3-9.1-14.4-4.3-20.7c4.5-6.3,14.1-7.1,21.2-1.8C110.7,104.5,112.7,113.6,108.2,119.9
	L108.2,119.9z"/>
</svg>
