<?xml version="1.0" encoding="utf-8"?>
<!-- Generator: Adobe Illustrator 21.0.2, SVG Export Plug-In . SVG Version: 6.00 Build 0)  -->
<svg version="1.1" id="Layer_1" xmlns="http://www.w3.org/2000/svg" xmlns:xlink="http://www.w3.org/1999/xlink" x="0px" y="0px"
	 viewBox="0 0 224.3 242.3" style="enable-background:new 0 0 224.3 242.3;" xml:space="preserve">
<style type="text/css">
	.st0{fill:#FCDC0E;}
</style>
<g>
	<path class="st0" d="M112.2,27C60.2,27,18,69.2,18,121.2s42.2,94.1,94.2,94.1s94.2-42.2,94.2-94.2S164.2,27,112.2,27z M79.2,181
		c-21.3,0-38.6-17.3-38.6-38.6s17.3-38.6,38.6-38.6c7.5,0,14.5,2.2,20.4,5.9c-6.8,0-13.1,0.9-14.8,4c-4.4,7.7,17.7,29.4,17.7,29.4
		s7.6-5.7,12.8-14.4c1.6,4.3,2.5,8.9,2.5,13.7C117.8,163.7,100.5,181,79.2,181z M115.7,114.2c0.6,13.1-13.4,23.7-13.4,23.7
		S85.7,121.5,89,115.7C92.3,109.8,115.7,114.2,115.7,114.2z M150.3,143.9c-0.1,0.7-0.7,1.2-1.4,1.1l-2.9-0.3
		c-0.7-0.1-1.2-0.6-1.1-1.3c1.1-12.8-2.2-25.8-10.3-36.6c-8.1-10.8-19.7-17.5-32.3-20c-0.7-0.1-1.1-0.7-1-1.4l0.5-2.9
		c0.1-0.7,0.7-1.1,1.4-1c14,2.7,26.8,10.1,35.9,22C148,115.4,151.6,129.8,150.3,143.9z M168.3,145.9c-0.1,0.7-0.7,1.2-1.4,1.1
		l-4.5-0.5c-0.7,0-1.2-0.6-1.1-1.3c1.8-17-2.4-34.3-13.2-48.6c-10.7-14.3-26.2-23.1-43-26.1c-0.7-0.1-1.1-0.7-1-1.4l0.8-4.4
		c0.1-0.7,0.7-1.1,1.4-1c18.5,3.2,35.6,12.9,47.6,28.6C165.8,108.1,170.4,127.2,168.3,145.9z M185,149.1l-4.4-0.5
		c-0.7-0.1-1.2-0.7-1.1-1.4c2.6-21.6-2.6-43.8-16.3-62c-13.7-18.2-33.5-29.4-55-32.9c-0.7-0.1-1.1-0.7-1-1.4l0.8-4.3
		c0.1-0.7,0.7-1.1,1.4-1c23.2,3.7,44.7,15.7,59.5,35.4c14.9,19.7,20.4,43.6,17.5,67C186.3,148.7,185.7,149.2,185,149.1z"/>
	<path class="st0" d="M76.3,132.4c-2.8-2.1-6.6-1.8-8.4,0.7c-1.9,2.5-1.1,6.1,1.7,8.2c2.8,2.1,6.6,1.8,8.4-0.7S79,134.5,76.3,132.4z
		"/>
</g>
</svg>
