<?xml version="1.0" encoding="utf-8"?>
<!-- Generator: Adobe Illustrator 21.0.0, SVG Export Plug-In . SVG Version: 6.00 Build 0)  -->
<svg version="1.1" id="Layer_1" xmlns="http://www.w3.org/2000/svg" xmlns:xlink="http://www.w3.org/1999/xlink" x="0px" y="0px"
	 viewBox="0 0 189 229.5000153" style="enable-background:new 0 0 189 229.5000153;" xml:space="preserve">
<style type="text/css">
	.st0{fill:#FFFFFF;}
	.st1{fill:none;stroke:#FFFFFF;stroke-width:2.0234499;stroke-miterlimit:10;}
	.st2{fill:#F5FAF2;}
	.st3{fill:#575454;}
	.st4{fill:url(#SVGID_1_);}
	.st5{fill:#706B6B;}
	.st6{fill:url(#SVGID_2_);}
	.st7{fill:none;}
	.st8{fill:url(#SVGID_3_);}
</style>
<path class="st0" d="M104.0769958,99.1346283h-0.9640198c-0.6569824,0-15.3878021,0-16.0450897,0h-0.9633026
	c-0.4785004,0-0.866394,0.3930664-0.866394,0.8783875v0.5749817c0,0.4850159,0.3878937,0.8779907,0.866394,0.8779907h0.0314941
	c0.6573181,0,1.1901093,0.5400085,1.1901093,1.2070007v41.0690308c0,4.3639832,3.490799,7.9029846,7.7970123,7.9029846l0,0
	c4.2700958,0,7.7317963-3.5090027,7.7317963-7.8370056v-41.1350098c0-0.6669922,0.5329895-1.2070007,1.1899872-1.2070007h0.0320129
	c0.4779968,0,0.8659821-0.3929749,0.8659821-0.8779907v-0.5749817
	C104.9429779,99.5276947,104.5549927,99.1346283,104.0769958,99.1346283L104.0769958,99.1346283z"/>
<path class="st1" d="M104.0769958,99.1346283h-0.9640198c-0.6569824,0-15.3878021,0-16.0450897,0h-0.9633026
	c-0.4785004,0-0.866394,0.3930664-0.866394,0.8783875v0.5749817c0,0.4850159,0.3878937,0.8779907,0.866394,0.8779907h0.0314941
	c0.6573181,0,1.1901093,0.5400085,1.1901093,1.2070007v41.0690308c0,4.3639832,3.490799,7.9029846,7.7970123,7.9029846l0,0
	c4.2700958,0,7.7317963-3.5090027,7.7317963-7.8370056v-41.1350098c0-0.6669922,0.5329895-1.2070007,1.1899872-1.2070007h0.0320129
	c0.4779968,0,0.8659821-0.3929749,0.8659821-0.8779907v-0.5749817
	C104.9429779,99.5276947,104.5549927,99.1346283,104.0769958,99.1346283L104.0769958,99.1346283z"/>
<path class="st2" d="M104.0769958,99.1346283h-0.9640198c-0.6569824,0-15.3878021,0-16.0450897,0h-0.9633026
	c-0.4785004,0-0.866394,0.3930664-0.866394,0.8783875v0.5749817c0,0.4850159,0.3878937,0.8779907,0.866394,0.8779907h0.0314941
	c0.6573181,0,1.1901093,0.5400085,1.1901093,1.2070007v41.0690308c0,4.3639832,3.490799,7.9029846,7.7970123,7.9029846l0,0
	c4.2700958,0,7.7317963-3.5090027,7.7317963-7.8370056v-41.1350098c0-0.6669922,0.5329895-1.2070007,1.1899872-1.2070007h0.0320129
	c0.4779968,0,0.8659821-0.3929749,0.8659821-0.8779907v-0.5749817
	C104.9429779,99.5276947,104.5549927,99.1346283,104.0769958,99.1346283L104.0769958,99.1346283z"/>
<path class="st1" d="M104.0769958,99.1346283h-0.9640198c-0.6569824,0-15.3878021,0-16.0450897,0h-0.9633026
	c-0.4785004,0-0.866394,0.3930664-0.866394,0.8783875v0.5749817c0,0.4850159,0.3878937,0.8779907,0.866394,0.8779907h0.0314941
	c0.6573181,0,1.1901093,0.5400085,1.1901093,1.2070007v41.0690308c0,4.3639832,3.490799,7.9029846,7.7970123,7.9029846l0,0
	c4.2700958,0,7.7317963-3.5090027,7.7317963-7.8370056v-41.1350098c0-0.6669922,0.5329895-1.2070007,1.1899872-1.2070007h0.0320129
	c0.4779968,0,0.8659821-0.3929749,0.8659821-0.8779907v-0.5749817
	C104.9429779,99.5276947,104.5549927,99.1346283,104.0769958,99.1346283L104.0769958,99.1346283z"/>
<path class="st3" d="M104.272995,98.918808h-0.9839935c-0.6720123,0-1.2160187,0.5444031-1.2160187,1.216217v43.3999634
	c0,3.8399963-3.1130981,6.9530334-6.9530945,6.9530334h-0.0001068c-3.8722992,0-7.0115967-3.1390076-7.0115967-7.0120239V100.135025
	l0,0c0-0.671814-0.5444031-1.216217-1.216095-1.216217H86.891983h-0.9843903c-0.4889069,0-0.8852997,0.3963013-0.8852997,0.8852844
	v0.5799255c0,0.4889832,0.3963928,0.8859863,0.8852997,0.8859863h0.0322876c0.6717072,0,1.2162018,0.5440063,1.2162018,1.2160034
	v41.4069824c0,4.3999939,3.5673065,7.9680176,7.9678192,7.9680176l0,0c4.363678,0,7.9010925-3.5380249,7.9010925-7.9020081
	v-41.4729919c0-0.6719971,0.5449829-1.2160034,1.2159882-1.2160034h0.0320129c0.4889832,0,0.8859863-0.3970032,0.8859863-0.8859863
	v-0.5799255C105.1589813,99.3151093,104.7619781,98.918808,104.272995,98.918808L104.272995,98.918808z"/>
<linearGradient id="SVGID_1_" gradientUnits="userSpaceOnUse" x1="95.090538" y1="149.4430084" x2="95.090538" y2="104.3950043">
	<stop  offset="0" style="stop-color:#3753A4"/>
	<stop  offset="0.2391237" style="stop-color:#4E8486"/>
	<stop  offset="0.5" style="stop-color:#6FBE46"/>
	<stop  offset="0.619886" style="stop-color:#6FB945"/>
	<stop  offset="0.7669495" style="stop-color:#70AE43"/>
	<stop  offset="0.9276223" style="stop-color:#719F40"/>
	<stop  offset="1" style="stop-color:#71973E"/>
</linearGradient>
<path class="st4" d="M95.1162872,149.4430084L95.1162872,149.4430084c-3.4076996,0-6.1701965-2.7630005-6.1701965-6.1700134
	v-38.8779907h12.2888947v38.9289856C101.2349854,146.7030182,98.4955902,149.4430084,95.1162872,149.4430084L95.1162872,149.4430084
	z"/>
<path class="st0" d="M94.7719879,109.3639984c0.5735931,0,1.8798981,0.0319824,2.7086945,0.8130188
	c0.6851044,0.6529846,0.7646027,1.5450134,0.7646027,2.0069885c0,0.4150085-0.0634918,0.8930359-0.3506012,1.355011
	c-0.2705841,0.4459839-0.6371002,0.6689758-0.8921967,0.7799988c0.5101013,0.0800171,1.0837097,0.3349915,1.4658966,0.7179871
	c0.3506165,0.3500061,0.6852112,0.9550171,0.6852112,1.8959961c0,1.0670166-0.4141998,1.7360229-0.8283081,2.151001
	c-0.8766937,0.8440247-2.151001,0.9079895-2.8045959,0.9079895h-3.999115v-10.6279907H94.7719879L94.7719879,109.3639984z
	 M93.9432983,113.6820221h0.3984833c0.33461,0,0.8923035-0.0480042,1.2429047-0.303009
	c0.2230072-0.1590271,0.4300079-0.4770203,0.4300079-0.9400024c0-0.4620361-0.2230072-0.7490234-0.4141083-0.8919983
	c-0.3505096-0.2709961-0.828598-0.2709961-1.274704-0.2709961h-0.3825836V113.6820221L93.9432983,113.6820221z
	 M93.9432983,118.0800018h0.5895996c0.621582,0,1.3703918-0.0159912,1.8164825-0.4299927
	c0.2230072-0.2070007,0.3505096-0.5100098,0.3505096-0.8919983c0-0.4309998-0.1750031-0.7180176-0.3345032-0.8609924
	c-0.4302063-0.3980103-1.2588043-0.3980103-1.7528992-0.3980103h-0.6691895V118.0800018L93.9432983,118.0800018z"/>
<path class="st0" d="M99.1137848,132.6779938c-0.9402008,0.4779968-1.7050018,0.5740051-2.3421021,0.5740051
	c-1.9598999,0-3.2822876-0.6690063-4.1748962-1.54599c-0.9557953-0.9240112-1.6570129-2.3259888-1.6570129-4.0310059
	c0-1.6730042,0.7012177-3.0749817,1.6570129-3.9990234c0.9402008-0.9089966,2.3105011-1.5299988,3.9674072-1.5299988
	c0.7011871,0,1.5139008,0.144043,2.5495911,0.5900269v2.8359985c-0.5417023-0.5740051-1.3544006-1.131012-2.485611-1.131012
	c-0.8921814,0-1.6093903,0.2859802-2.1669922,0.8280029c-0.5896912,0.5740356-1.0037994,1.434021-1.0037994,2.45401
	c0,1.098999,0.446106,1.8799744,0.9242096,2.34198c0.2230988,0.2230225,0.987793,0.8920288,2.2940979,0.8920288
	c0.6375885,0,1.4978943-0.1750183,2.4380951-1.098999V132.6779938L99.1137848,132.6779938z"/>
<path class="st0" d="M99.5835876,141.7000275c0,1.0189819-0.1269989,2.2779846-1.1787872,3.361969
	c-1.0197144,1.0509949-2.1990204,1.2109985-3.3143158,1.2109985c-1.1152039,0-2.2944946-0.1600037-3.3143005-1.2109985
	c-1.0513-1.0839844-1.1786804-2.3429871-1.1786804-3.361969v-6.2940369h2.4535828v6.230011
	c0,0.4620056,0.0319977,1.2430115,0.5576019,1.7850342c0.4301147,0.4619446,1.0197144,0.5569763,1.4817963,0.5569763
	c0.462204,0,1.0518036-0.0950317,1.4819031-0.5569763c0.5257111-0.5420227,0.5577087-1.3230286,0.5577087-1.7850342v-6.230011
	h2.4534912V141.7000275L99.5835876,141.7000275z"/>
<path class="st5" d="M42.7243042,212.0800323c-1.0163269,1.0009766-1.9465332,1.1909485-2.6356201,1.1909485
	c-1.4124756,0-2.2393799-0.7249756-2.4804993-0.9669495c-0.5167847-0.5010376-0.9990845-1.3470154-0.9990845-2.539032
	c0-1.1059875,0.4478149-2.0379639,1.0851746-2.6600037c0.6029053-0.5869751,1.3781128-0.8980103,2.3428345-0.8980103
	c1.2229919,0,2.1014709,0.6040344,2.6871948,1.2260132v-3.071991c-1.1197205-0.4840088-1.9981995-0.6390076-2.7562256-0.6390076
	c-1.7914734,0-3.2728882,0.6730042-4.2884827,1.6560059c-1.0328064,1.0010071-1.7901001,2.5209961-1.7901001,4.3349915
	c0,1.8479919,0.7572937,3.3680115,1.7901001,4.368988c0.9638977,0.9490051,2.3937073,1.6740417,4.5124817,1.6740417
	c0.6889954,0,1.5158997-0.1040039,2.5322266-0.6210327V212.0800323L42.7243042,212.0800323z M45.2809753,203.9810028v11.5159912
	h6.216507v-2.242981h-3.5657806v-9.2730103H45.2809753L45.2809753,203.9810028z M59.6609955,203.9810028h-6.4920959v11.5159912
	h6.4920959v-2.242981h-3.8414917v-2.5580139h3.6519775v-2.2420044h-3.6519775v-2.230011h3.8414917V203.9810028
	L59.6609955,203.9810028z M69.8712769,215.496994h2.7540131l-4.5303955-11.5159912h-2.4268036l-4.6338043,11.5159912h2.7539978
	l0.8796082-2.1759949h4.341095L69.8712769,215.496994L69.8712769,215.496994z M65.4438934,211.286026l1.4290009-3.8680115
	l1.4116974,3.8680115H65.4438934L65.4438934,211.286026z M76.8471832,215.496994v-7.4590149l6.2378082,7.4590149h2.3063965
	v-11.5159912h-2.6506958v7.4240112l-6.2377167-7.4240112H74.196579v11.5159912H76.8471832L76.8471832,215.496994z
	 M88.2805023,203.9810028v11.5159912h2.650589v-11.5159912H88.2805023L88.2805023,203.9810028z M96.4382935,215.496994v-7.4590149
	l6.2377014,7.4590149h2.3059998v-11.5159912h-2.6500092v7.4240112l-6.2378998-7.4240112h-2.3063965v11.5159912H96.4382935
	L96.4382935,215.496994z M113.3299866,211.352005h2.7739868c-0.2239838,0.8480225-0.7409821,1.2970276-0.8269958,1.3659973
	c-0.2589874,0.2249756-0.8619995,0.6220093-1.9989929,0.6220093c-0.8779907,0-1.6529999-0.2070007-2.3249817-0.8980103
	c-0.4820251-0.4840088-0.9650116-1.3309937-0.9650116-2.6419678c0-1.0700684,0.3450012-2.0550232,0.9819946-2.7290039
	c0.5510101-0.5880127,1.3270111-0.9330139,2.3770142-0.9330139c0.6549835,0,1.2409821,0.1719971,1.7569885,0.552002
	c0.4480133,0.3289795,0.7929993,0.7949829,1.0170135,1.2449951l2.3939972-1.2960205
	c-0.4130096-0.7259827-1.085022-1.5369568-1.8600006-2.0539856c-1.0680084-0.7080078-2.2740173-0.8630066-3.2220154-0.8630066
	c-1.3600006,0-3.0999908,0.2070007-4.5119934,1.6739807c-0.9640045,0.9830322-1.6520081,2.48703-1.6520081,4.3690186
	c0,2.2960205,1.0149994,3.6960144,1.6860046,4.3860168c1.3429871,1.3809814,2.8250122,1.605011,4.2030029,1.605011
	c1.3609924,0,2.8249969-0.2420044,4.0999908-1.5700378c1.2740021-1.3299866,1.7740173-3.4549866,1.7740173-4.8519592v-0.1210327
	h-5.7020111V211.352005L113.3299866,211.352005z"/>
<path class="st3" d="M122.5939941,203.9810028h-1.2720032v7.40802c0,0.96698,0.1029968,1.8999939,0.7219849,2.7630005
	c0.6880035,0.9489746,1.8940125,1.5519714,3.3590088,1.5519714s2.6710052-0.6029968,3.3589935-1.5519714
	c0.6200104-0.8630066,0.7230072-1.7960205,0.7230072-2.7630005v-7.40802h-1.272995v7.0630188
	c0,0.96698,0,2.0199585-0.9130096,2.7969666c-0.4649963,0.3970337-1.2579803,0.6560364-1.8959961,0.6560364
	c-0.6369934,0-1.4299927-0.2590027-1.8950043-0.6560364c-0.9139862-0.7770081-0.9139862-1.8299866-0.9139862-2.7969666V203.9810028
	L122.5939941,203.9810028z M134.0099792,215.496994v-8.8919678l8.9580231,9.4099731v-12.0339966h-1.2730103v8.9259949
	l-8.9580078-9.4089661v11.9989624H134.0099792L134.0099792,215.496994z M146.2479858,203.9810028v11.5159912h1.2720184v-11.5159912
	H146.2479858L146.2479858,203.9810028z M156.2919922,205.1880035v-1.2070007h-6.8540039v1.2070007h2.7900085v10.3089905h1.2730103
	v-10.3089905H156.2919922L156.2919922,205.1880035z"/>
<linearGradient id="SVGID_2_" gradientUnits="userSpaceOnUse" x1="102.9147873" y1="198.6269989" x2="102.9147873" y2="175.094986">
	<stop  offset="0" style="stop-color:#000000"/>
	<stop  offset="0.2717473" style="stop-color:#202020"/>
	<stop  offset="0.5452499" style="stop-color:#393939"/>
	<stop  offset="0.7957883" style="stop-color:#484848"/>
	<stop  offset="1" style="stop-color:#4D4D4D"/>
</linearGradient>
<path class="st6" d="M169.8869781,180.4020233l-0.8509827-5.3070374h-1.0180054l-1.3220062,3.1740417L165.375,175.094986h-1.0190125
	l-0.8500061,5.3070374h1.223999l0.4220123-3.1669922l1.3299866,3.1669922h0.4290009l1.3300171-3.1669922l0.4219818,3.1669922
	H169.8869781L169.8869781,180.4020233z M161.5309906,176.128006h1.1539917v-1.03302h-3.5329895v1.03302h1.1539917v4.2740173
	h1.2250061V176.128006L161.5309906,176.128006z M151.3119812,198.2290192h2.4440002V176.154007h-2.4440002v8.9690247h-11.2919769
	v-8.9690247h-2.4430084v22.0750122h2.4430084v-10.789032h11.2919769V198.2290192L151.3119812,198.2290192z M123.2319946,198.6269989
	c1.6499939,0,4.1929932-0.3979797,6.6359863-2.1519775v-3.0440063c-0.3959808,0.3970032-1.2879944,1.223999-2.5419922,1.8529968
	c-1.1560059,0.5960083-2.6089935,1.026001-4.0939941,1.026001c-4.0289917,0-8.8820038-3.0119934-8.8820038-9.0020142
	c0-5.0969849,3.7639923-9.2009888,8.848999-9.2009888c1.2870026,0,2.6409912,0.3299866,3.7969971,0.8599854
	c1.121994,0.5290222,2.1790161,1.3570251,2.871994,2.052002v-3.0449829
	c-2.6409912-2.0190125-5.1839905-2.1849976-6.5039825-2.1849976c-6.6040039,0-11.5230103,4.8989868-11.5230103,11.4849854
	C111.8409882,193.6620026,116.693985,198.6269989,123.2319946,198.6269989L123.2319946,198.6269989z M105.3009949,198.2290192
	h2.7070007l-9.872406-23.1340332l-10.1358032,23.1340332h2.7071991l2.6412048-6.2219849h9.3768005L105.3009949,198.2290192
	L105.3009949,198.2290192z M101.7679901,189.6899872h-7.462204l3.7637939-8.8369751L101.7679901,189.6899872
	L101.7679901,189.6899872z M71.0785828,198.2290192H82.502594v-2.3160095h-8.9808044v-8.571991h8.7167969v-2.3180237h-8.7167969
	v-6.553009h8.9808044v-2.315979H71.0785828V198.2290192L71.0785828,198.2290192z M56.3936005,198.2290192h8.5181885v-2.3160095
	H58.836792V176.154007h-2.4431915V198.2290192L56.3936005,198.2290192z M44.7583923,186.4470062
	c1.9482117-1.3239746,2.1791992-3.243988,2.1791992-4.3359985c0-2.6809998-1.2875977-4.0379944-1.9812012-4.5669861
	c-1.6175842-1.2910156-3.8298035-1.3900146-5.0513916-1.3900146h-3.9624023v22.0750122h5.4810181
	c1.5185547,0,3.5327759-0.0660095,5.2829895-1.4560242c1.1885986-0.927002,2.2445984-2.6479797,2.2445984-4.7659607
	C48.9512024,189.8890228,47.8291931,187.2079926,44.7583923,186.4470062L44.7583923,186.4470062z M44.5603943,182.1769867
	c0,3.4090271-3.0378113,3.6740112-4.3254089,3.6740112h-1.8486023v-7.381012h1.9145813
	C40.9945679,178.469986,44.5603943,178.5370331,44.5603943,182.1769867L44.5603943,182.1769867z M46.5079956,191.9409943
	c0,1.3240051-0.5939941,2.4159851-1.4526062,3.0450134c-1.0565796,0.8269958-2.4432068,0.927002-3.862793,0.927002h-2.8062134
	v-7.8779907h2.5092163c1.7496033,0,2.9051819,0.1989746,3.7308044,0.6619873
	C45.4849854,189.161026,46.5079956,190.1869965,46.5079956,191.9409943L46.5079956,191.9409943z"/>
<path class="st3" d="M49.0888977,76.0906982l2.1923981,1.4742126l16.8587952-25.8174133H49.6180725v2.5704041h13.7970276
	L49.0888977,76.0906982L49.0888977,76.0906982z M73.7719879,76.9600983h2.7971954V51.7474976h-5.5565796l-1.4742279,2.6460114
	h4.2336121V76.9600983L73.7719879,76.9600983z M80.4131927,81.9875031l1.7765808,0.7182159l3.8178101-8.5428162l-2.4947968-0.907196
	L80.4131927,81.9875031L80.4131927,81.9875031z M104.173996,76.9600983v-2.5703888H93.5141754l5.2542267-5.9346008
	c1.0205841-1.1717987,2.3815918-2.7216034,3.4395905-4.1958008c1.5119934-2.1546021,2.0039978-3.7044067,2.0039978-5.4054108
	c0-4.3470001-3.3270111-7.5221863-7.7872162-7.5221863c-3.1373749,0-4.9139709,1.3607941-5.9723816,2.5704041
	c-0.9828033,1.1339874-1.7766113,2.6837921-1.8899994,5.2164001h2.7971954c0.0378113-1.285202,0.34021-2.2301941,0.831604-2.9862061
	c0.9450073-1.4364014,2.4191895-2.2301941,4.1958008-2.2301941c2.9861908,0,5.0270081,2.0789948,5.0270081,4.9139862
	c0,1.0205994-0.2640076,2.2301941-1.3980255,3.8556061c-0.6049805,0.907196-2.3059845,2.9105988-2.9485779,3.6666107
	l-9.1854095,10.6217804H104.173996L104.173996,76.9600983z M121.7349854,51.7474976h-10.016983l-3.6660156,12.1716156
	c2.2679901-1.587616,3.9689941-1.7388,4.8760071-1.7388c3.5909882,0,6.1989899,2.5704041,6.1989899,6.1992035
	c0,3.5531769-2.6459808,6.4637909-6.1989899,6.4637909c-1.7390137,0-3.0240021-0.6426086-4.0820007-1.5120087
	c-0.7559967-0.6047974-1.2860107-1.20961-1.701004-2.0411987l-2.2310028,1.5876007
	c0.6049957,1.0206146,1.3990021,1.8899994,2.1930084,2.5704041c1.7009888,1.3986053,3.5909882,1.9656067,5.6320038,1.9656067
	c4.9519958,0,9.1849976-3.4398041,9.1849976-9.0720215c0-4.9139862-3.2500153-8.731781-8.3159943-8.731781
	c-0.6040192,0-1.0960083,0.037796-1.5870209,0.1511993l1.6250153-5.4432068h8.0889893V51.7474976L121.7349854,51.7474976z
	 M132.322998,77.4137115c2.0029907,0,4.5359802-0.9828033,6.4640045-3.7799988
	c1.6629791-2.4192047,2.5319824-5.6700134,2.5319824-9.2610168c0-3.5909882-0.8690033-6.8417816-2.5319824-9.2609863
	c-1.9280243-2.7972107-4.4610138-3.7799988-6.4640045-3.7799988c-2.0040131,0-4.5360107,0.9827881-6.4640045,3.7799988
	c-1.6629944,2.4192047-2.53302,5.6699982-2.53302,9.2609863c0,3.5910034,0.8700256,6.8418121,2.53302,9.2610168
	C127.7869873,76.4309082,130.318985,77.4137115,132.322998,77.4137115L132.322998,77.4137115z M132.322998,53.9021149
	c1.2850037,0,3.0239868,0.6803894,4.3469849,2.7971954c1.3610077,2.1545868,1.852005,5.0274048,1.852005,7.6733856
	c0,2.6460114-0.4909973,5.5187988-1.852005,7.6734161c-1.322998,2.1167908-3.0619812,2.7971954-4.3469849,2.7971954
	c-1.2850189,0-3.0240173-0.6804047-4.3470154-2.7971954c-1.3609924-2.1546173-1.8519897-5.0274048-1.8519897-7.6734161
	c0-2.6459808,0.4909973-5.5187988,1.8519897-7.6733856C129.2989807,54.5825043,131.0379791,53.9021149,132.322998,53.9021149
	L132.322998,53.9021149z"/>
<polygon class="st7" points="0,0 0,10.9080048 10.9079895,10.9080048 10.9079895,0 0,0 "/>
<polygon class="st7" points="178.09198,0 178.09198,10.9080048 189,10.9080048 189,0 178.09198,0 "/>
<polygon class="st7" points="178.09198,218.5920258 178.09198,229.5000153 189,229.5000153 189,218.5920258 178.09198,218.5920258 
	"/>
<polygon class="st7" points="0,218.5920258 0,229.5000153 10.9079895,229.5000153 10.9079895,218.5920258 0,218.5920258 "/>
<linearGradient id="SVGID_3_" gradientUnits="userSpaceOnUse" x1="95.0907288" y1="157.4149933" x2="95.0907288" y2="8.9851074">
	<stop  offset="0" style="stop-color:#567EBF"/>
	<stop  offset="0.2454327" style="stop-color:#71973E"/>
	<stop  offset="0.3546603" style="stop-color:#719F40"/>
	<stop  offset="0.5971372" style="stop-color:#70AE43"/>
	<stop  offset="0.8190759" style="stop-color:#6FB945"/>
	<stop  offset="1" style="stop-color:#6FBE46"/>
</linearGradient>
<path class="st8" d="M179.0099792,58.4080048c-5.5589905,1.9176941-11.996994,12.6082001-10.618988,17.6329041
	C176.6159821,75.9666138,181.0229797,63.6790009,179.0099792,58.4080048L179.0099792,58.4080048z M175.8569794,52.3245087
	c0.6490173-3.2823029,0.6740112-6.6952057-0.9029846-10.3138123c-2.8050079,3.1105194-4.8920135,6.2778168-6.2079926,9.9230194
	c-0.9370117,2.5988922-1.8730164,5.2007751-0.7389984,8.0503998c0.3959808,0.9938965,0.693985,1.2103882,1.6609802,0.7310944
	C173.1729889,58.978302,175.1360016,55.9679108,175.8569794,52.3245087L175.8569794,52.3245087z M167.6100006,27.6320953
	c-2.3330231,4.9105072-4.3620148,9.6516113-3.7680206,15.0130157c0.155014,1.3991852,0.9710083,2.7243958,1.5019989,4.1309967
	C171.766983,43.1677094,172.4709778,33.3594055,167.6100006,27.6320953L167.6100006,27.6320953z M166.7609863,59.8229065
	c-0.7310028-4.7161102-2.0200043-9.344101-3.0690002-14.0088043c-0.0310059-0.137207-0.2120056-0.2406006-0.6959991-0.2306061
	c0.2460022,0.8511047,0.4980011,1.7002106,0.7369995,2.5532074c2.3580017,8.3946991,2.8880005,16.9750977,2.1329956,25.6032104
	c-0.8099976,9.2655029-3.446991,18.0430908-8.2269897,26.0516052c-2.0549927,3.4434814-4.4380035,6.6894836-6.7210083,9.9914856
	c-0.3840027,0.5569763-1.0099945,0.9440002-1.5269775,1.40802c-2.2590179,2.2979736-4.3630219,4.8039856-6.7230225,6.96698
	v-14.8840027c0,0,0-10.2994995-10.298996-10.2994995h-10.3410034v3.9972229h0.9170074
	c10.2999878,0,10.2999878,10.2992859,10.2999878,10.2992859v35.8479919c0,10.2990112-10.2999878,10.2990112-10.2999878,10.2990112
	h-0.9170074v3.9969788h10.3410034c0,0,10.298996,0,10.298996-10.2989807v-19.9760132
	c5.7709961,2.8910217,14.8430176,0.4219971,19.5529938-5.6390076c-4.0139923-1.1869812-8.0359955-1.2209778-12.0859985-1.1579895
	c-2.6419983,0.0410156-5.0729828,0.79599-7.4669952,1.7099915v-1.0439758
	c1.8119965-1.6589966,3.6289978-3.3140259,5.3390045-5.0730286c7.2480011-7.4599915,12.5970154-16.1214905,15.8849945-26.0448914
	C167.1389923,80.0897064,168.3469849,70.0568085,166.7609863,59.8229065L166.7609863,59.8229065z M149.3989868,111.1620026
	c1.3450012-2.4819946,1.8370056-5.1140137,1.4980011-7.9389648c-0.4430084-3.6793213-2.2510071-6.6628418-4.5510101-9.4115295
	c-0.1599884-0.191925-0.5099945-0.2234192-0.8989868-0.3811951c-1.2670135,2.866272-2.0810089,5.7871094-1.6619873,8.7897034
	c0.3609772,2.5829773,1.1169891,5.1569824,2.0459747,7.6009827
	C146.84198,112.4810028,147.0249786,112.4280243,149.3989868,111.1620026L149.3989868,111.1620026z M149.3989868,111.1620026
	c-0.0070038,0.0130005-0.0130005,0.0260315-0.0200043,0.0390015l0.0550079-0.0559998l0.0009918-0.0009766l0,0
	c0.0010223,0,0.0010223-0.0020447,0.0019989-0.0020447C149.4229889,111.1500092,149.4129944,111.155014,149.3989868,111.1620026
	L149.3989868,111.1620026z M149.4369812,111.141983l-0.0019989,0.0020447l0.003006-0.0020447
	C149.4369812,111.141983,149.4369812,111.141983,149.4369812,111.141983L149.4369812,111.141983z M149.3789825,111.201004
	c0.0039978-0.0040283,0.0090027-0.007019,0.0120239-0.0099792c0.0149994-0.0150146,0.0289764-0.0310059,0.042984-0.0460205
	L149.3789825,111.201004L149.3789825,111.201004z M161.6479797,31.3739014
	c3.1770172-5.3458099,0.5770111-12.3206024-3.0950012-15.9787903c-0.1819916-0.1809998-0.5169983-0.2070007-1.0369873-0.4017181
	c-0.9309998,5.6255035-2.2860107,11.0841217,0.54599,16.4219208c0.3920135,0.7385864,1.2100067,1.2478943,1.8310089,1.8633881
	C160.4850006,32.6481018,161.2159882,32.1012115,161.6479797,31.3739014L161.6479797,31.3739014z M148.2629852,40.7251129
	c2.8639984,4.5556946,7.1230011,6.7528992,12.3199921,7.3390961c1.2900085,0.10289,1.5060272-0.5976105,1.3420105-1.7026062
	c-0.4530029-3.0439911-2.45401-4.8748016-5.0830078-5.7506104c-2.4419861-0.8135834-5.0779724-1.0727844-7.6490021-1.4351959
	C148.0950012,39.0211029,147.5779877,39.6335144,148.2629852,40.7251129L148.2629852,40.7251129z M156.5579834,100.3970184
	c1.6009979-2.3634033,1.7900085-4.8277283,0.8740082-7.5497131c-1.2940063-3.844696-3.5440063-6.8739929-7.1119995-9.4962921
	c-1.5510101,6.7974091,0.0369873,12.3663788,4.2229919,17.2829742
	C155.3119812,101.5390167,155.9769897,101.2540131,156.5579834,100.3970184L156.5579834,100.3970184z M161.292984,89.0171204
	c1.5319977-1.9108124,1.6940002-4.0264282,1.1360016-6.3800201c-0.8679962-3.6549835-5.4470062-8.6944885-9.1920013-9.8184967
	C152.0739899,78.5319061,156.2549896,86.9607086,161.292984,89.0171204L161.292984,89.0171204z M164.3939819,61.0238037
	c0.4629974-0.4015045,0.4669952-1.540802,0.3910065-2.3305969c-0.2200012-2.2971954-1.5429993-4.0011902-3.2810059-5.3706055
	c-2.7870026-2.1947937-5.9649963-3.3092957-9.6589813-3.4736938c0.4089966,2.8279877,1.7239838,5.0312958,3.5969849,6.6638947
	c1.9940033,1.738205,4.3589935,3.069397,6.6549988,4.4174042C162.7149811,61.2928009,163.9569855,61.4036102,164.3939819,61.0238037
	L164.3939819,61.0238037z M164.4679871,69.5592194c-1.8519897-4.7706146-5.822998-7.005127-10.7200012-8.5901184
	c-0.1699982,3.2522125,0.9989929,5.6828003,2.4190216,7.9570007c1.644989,2.6374969,3.9549713,4.5955963,6.6499939,6.1814117
	c1.5009766,0.8833008,2.1469879,0.1629944,2.2139893-0.9945984
	C165.1199799,72.6034088,165.0079803,70.9493103,164.4679871,69.5592194L164.4679871,69.5592194z M156.2789917,33.6616058
	c-0.8680115-2.1788025-2.5340118-3.5235138-4.6360016-4.2136993c-3.3000031-1.0834961-6.6570129-1.3367004-10.2259979,0.1980896
	c1.7039948,2.78302,4.1029968,4.4761047,6.946991,5.285202c2.1399994,0.6085052,4.4490051,0.7005005,6.6940002,0.8182068
	C156.5749817,35.8291016,156.8639832,35.1325989,156.2789917,33.6616058L156.2789917,33.6616058z M152.3749847,16.9136047
	c-0.5249939-3.1766968-3.8619995-6.4473877-7.4619904-7.2844543c-1.0279999-0.2387695-2.0709991-0.409668-3.2730103-0.644043
	c-0.0079956,3.7831879,3.7310028,9.8852997,7.5789948,10.831604
	C152.4509888,20.6113129,152.9269867,20.251709,152.3749847,16.9136047L152.3749847,16.9136047z M57.8124847,157.4149933h10.3405914
	v-3.9969788h-0.9172821c0,0-10.2996063,0-10.2996063-10.2990112v-35.8479919c0,0,0-10.2992859,10.2996063-10.2992859h0.9172821
	v-3.9972229H57.8124847c-10.2994232,0-10.2994232,10.2994995-10.2994232,10.2994995v14.8840027
	c-2.36026-2.1629944-4.4636536-4.6690063-6.7234802-6.96698c-0.5168762-0.4640198-1.1420898-0.8510437-1.5267944-1.40802
	c-2.2825012-3.302002-4.6654968-6.5480042-6.7208862-9.9914856c-4.7800903-8.0085144-7.4173279-16.7861023-8.227417-26.0516052
	c-0.754303-8.6281128-0.2244873-17.2085114,2.133606-25.6032104c0.2393799-0.8529968,0.4912109-1.7021027,0.7373047-2.5532074
	c-0.4848938-0.0099945-0.6650085,0.093399-0.6958923,0.2306061c-1.0493164,4.6647034-2.3385925,9.2926941-3.0696106,14.0088043
	c-1.585907,10.233902-0.3782043,20.2667999,2.8692932,30.0681915c3.2876892,9.9234009,8.6364136,18.5848999,15.8845825,26.0448914
	c1.7101135,1.7590027,3.5270386,3.414032,5.3392944,5.0730286v1.0439758
	c-2.3942871-0.9140015-4.8249817-1.6689758-7.4668884-1.7099915c-4.0505676-0.0629883-8.0724792-0.0289917-12.0860901,1.1579895
	c4.7096863,6.0610046,13.7822876,8.5300293,19.5529785,5.6390076v19.9760132
	C47.5130615,157.4149933,57.8124847,157.4149933,57.8124847,157.4149933L57.8124847,157.4149933z M40.7469788,111.1450043
	c0.0142212,0.0150146,0.0285034,0.0310059,0.0426025,0.0460205c0.0039978,0.0029602,0.0083008,0.0059509,0.0122986,0.0099792
	L40.7469788,111.1450043L40.7469788,111.1450043z M40.7468872,111.1450043l0.0549927,0.0559998
	c-0.0072021-0.01297-0.0124817-0.026001-0.0195007-0.0390015c-0.0142212-0.0069885-0.0242004-0.0119934-0.0386963-0.0200195
	c0.0009155,0,0.0018005,0.0020447,0.0025024,0.0020447h-0.0003052L40.7468872,111.1450043L40.7468872,111.1450043z
	 M40.7458801,111.1440277l-0.0021973-0.0020447c0,0,0,0-0.0004883,0L40.7458801,111.1440277L40.7458801,111.1440277z
	 M40.7823792,111.1620026c2.3738098,1.2660217,2.5562134,1.3190002,3.5675964-1.3410034
	c0.9289246-2.4440002,1.6846008-5.0180054,2.0455017-7.6009827c0.4195251-3.002594-0.3945007-5.9234314-1.6612854-8.7897034
	c-0.389679,0.1577759-0.7389832,0.18927-0.8992004,0.3811951c-2.300293,2.7486877-4.10849,5.7322083-4.5509033,9.4115295
	C38.9446716,106.0479889,39.4368896,108.6800079,40.7823792,111.1620026L40.7823792,111.1620026z M48.7640686,29.6459961
	c-3.5690918-1.53479-6.9259644-1.2815857-10.2264709-0.1980896c-2.1015015,0.6901855-3.767395,2.0348969-4.6354065,4.2136993
	c-0.5852966,1.470993-0.2966003,2.1674957,1.2210083,2.0877991c2.2443848-0.1177063,4.553772-0.2097015,6.6939697-0.8182068
	C44.6611938,34.1221008,47.0604858,32.4290161,48.7640686,29.6459961L48.7640686,29.6459961z M48.5405884,8.9851074
	c-1.2015991,0.234375-2.244812,0.4052734-3.2722168,0.644043c-3.6003723,0.8370667-6.9372864,4.1077576-7.4620972,7.2844543
	c-0.5520935,3.3381042-0.0760803,3.6977081,3.1553955,2.9031067C44.8100891,18.8704071,48.5491943,12.7682953,48.5405884,8.9851074
	L48.5405884,8.9851074z M25.3959961,58.6932068c-0.075592,0.7897949-0.0716858,1.9290924,0.3908997,2.3305969
	c0.4369812,0.3798065,1.6795959,0.2689972,2.2971802-0.0935974c2.2962036-1.3480072,4.6607971-2.6791992,6.6549072-4.4174042
	c1.8730164-1.6325989,3.1881104-3.835907,3.5968933-6.6638947c-3.6943054,0.1643982-6.8719788,1.2789001-9.6585693,3.4736938
	C26.9386902,54.6920166,25.6160889,56.3960114,25.3959961,58.6932068L25.3959961,58.6932068z M27.3638,75.1075134
	c2.6950684-1.5858154,5.0049133-3.5439148,6.650177-6.1814117c1.4197083-2.2742004,2.5888367-4.7047882,2.4186096-7.9570007
	c-4.8965149,1.5849915-8.867981,3.8195038-10.7197876,8.5901184c-0.5393372,1.3900909-0.651825,3.0441895-0.5632019,4.5536957
	C25.2168884,75.2705078,25.8624878,75.9908142,27.3638,75.1075134L27.3638,75.1075134z M28.888092,89.0171204
	c5.0379944-2.0564117,9.2191772-10.4852142,8.0563965-16.1985168c-3.7451172,1.1240082-8.3244019,6.1635132-9.1921997,9.8184967
	C27.1936951,84.9906921,27.3564758,87.106308,28.888092,89.0171204L28.888092,89.0171204z M41.917572,40.7251129
	c0.6859131-1.0915985,0.1683044-1.70401-0.9295959-1.5493164c-2.5703735,0.3624115-5.2070923,0.6216125-7.6484985,1.4351959
	c-2.6290894,0.8758087-4.6304932,2.7066193-5.0830078,5.7506104c-0.1641846,1.1049957,0.052002,1.8054962,1.3413391,1.7026062
	C34.7952881,47.4780121,39.0536804,45.2808075,41.917572,40.7251129L41.917572,40.7251129z M35.6384888,100.6339874
	c4.1855774-4.9165955,5.7735901-10.4855652,4.2221069-17.2829742c-3.5674133,2.6222992-5.8178101,5.6515961-7.1114197,9.4962921
	c-0.9162903,2.7219849-0.7276001,5.1863098,0.874115,7.5497131
	C34.2043762,101.2540131,34.8686829,101.5390167,35.6384888,100.6339874L35.6384888,100.6339874z M32.1184692,31.4153137
	c2.8327942-5.3377991,1.4772034-10.7964172,0.5467224-16.4219208c-0.5204163,0.1947174-0.8551025,0.2207184-1.0369873,0.4017181
	c-3.6725159,3.6581879-6.2718201,10.6329803-3.0952148,15.9787903c0.4321899,0.7273102,1.1631775,1.2742004,1.7554016,1.9048004
	C30.9089966,32.663208,31.726593,32.1539001,32.1184692,31.4153137L32.1184692,31.4153137z M26.3388672,42.6451111
	c0.5938416-5.3614044-1.4346924-10.1025085-3.7684021-15.0130157c-4.8606873,5.7273102-4.1560669,15.535614,2.2667236,19.1440125
	C25.3674927,45.3695068,26.1837769,44.0442963,26.3388672,42.6451111L26.3388672,42.6451111z M21.4346924,51.9337158
	c-1.3151855-3.6452026-3.4028015-6.8125-6.2075195-9.9230194c-1.5774841,3.6186066-1.5524902,7.0315094-0.9031067,10.3138123
	c0.7209167,3.6434021,2.684021,6.6537933,6.189209,8.3907013c0.9666138,0.4792938,1.2653198,0.2628021,1.6605225-0.7310944
	C23.3078918,57.134491,22.372406,54.532608,21.4346924,51.9337158L21.4346924,51.9337158z M11.1711731,58.4080048
	c-2.0133972,5.2709961,2.3933411,17.558609,10.6184998,17.6329041
	C23.1676941,71.0162048,16.7301636,60.3256989,11.1711731,58.4080048L11.1711731,58.4080048z M10.3224792,74.9817963
	c0.0798035,3.8218079,1.1774902,6.7481079,2.9671021,9.4360046c2.2349243,3.3558044,5.2869263,5.496582,9.2655945,6.2614136
	c2.2562256,0.4346008,2.7544861,0.0083008,2.4251099-2.2228088c-0.0526123-0.3543243-0.0771179-0.7367096-0.2297058-1.0491791
	C21.77948,81.3124237,16.3465881,78.1603088,10.3224792,74.9817963L10.3224792,74.9817963z M13.1694946,91.761795
	c-0.1419067,0.1240845-0.2840881,0.2481079-0.4264221,0.3718872c0.9691162,1.8130188,1.7402039,3.7736206,2.9456177,5.4096069
	c3.3201904,4.5057068,7.5496216,7.3717041,13.4625854,6.5217285c2.2323914-0.3210144,2.4613037-0.9049988,1.3067932-2.9000244
	c-0.0888672-0.1539917-0.2137756-0.2959595-0.3483887-0.4119873c-1.9331055-1.6644897-3.7174988-3.5660095-5.8425903-4.9275818
	C20.8950806,93.6648102,17.0608826,92.5630035,13.1694946,91.761795L13.1694946,91.761795z M19.2336731,107.7350006
	c2.4438171,5.7919922,12.763092,12.6809998,20.5954285,7.4000244
	C37.6923828,108.9279938,23.9466858,106.3820038,19.2336731,107.7350006L19.2336731,107.7350006z M170.946991,107.7350006
	c-4.7130127-1.3529968-18.4580078,1.1929932-20.5950012,7.4000244
	C158.1839905,120.4160004,168.5029907,113.5269928,170.946991,107.7350006L170.946991,107.7350006z M176.8919983,84.4178009
	c1.7890015-2.6878967,2.8869934-5.6141968,2.96698-9.4360046c-6.0249939,3.1785126-11.4570007,6.3306274-14.4279938,12.4254303
	c-0.1529846,0.3124695-0.1779938,0.6948547-0.2299957,1.0491791c-0.3300018,2.2311096,0.1689911,2.6574097,2.4250031,2.2228088
	C171.6049957,89.9143829,174.6569977,87.7736053,176.8919983,84.4178009L176.8919983,84.4178009z M174.4919891,97.5432892
	c1.2059937-1.6359863,1.977005-3.5965881,2.9460144-5.4096069c-0.1420135-0.1237793-0.2850189-0.2478027-0.427002-0.3718872
	c-3.8910065,0.8012085-7.7250214,1.9030151-11.0970154,4.0636292c-2.125,1.3615723-3.9100037,3.263092-5.8430023,4.9275818
	c-0.1340027,0.1160278-0.2590027,0.2579956-0.3479919,0.4119873c-1.1539917,1.9950256-0.9260101,2.57901,1.3069916,2.9000244
	C166.9429779,104.9149933,171.1719818,102.048996,174.4919891,97.5432892L174.4919891,97.5432892z"/>
</svg>
