<?xml version="1.0" encoding="utf-8"?>
<!-- Generator: Adobe Illustrator 21.0.2, SVG Export Plug-In . SVG Version: 6.00 Build 0)  -->
<svg version="1.1" id="Layer_1" xmlns="http://www.w3.org/2000/svg" xmlns:xlink="http://www.w3.org/1999/xlink" x="0px" y="0px"
	 viewBox="0 0 195 252" enable-background="new 0 0 195 252" xml:space="preserve">
<path fill="#A71E27" d="M39.9527321,185.4655151v-3.2379761H21.5103512v3.2379761h7.5090027v27.6730042h3.424284v-27.6730042
	H39.9527321L39.9527321,185.4655151z M64.4276352,213.1385193h3.7952118l-13.8563118-32.394989l-14.2274933,32.394989h3.7951965
	l3.709198-8.7140198h13.1678925L64.4276352,213.1385193L64.4276352,213.1385193z M48.9880409,201.1855164l5.2857056-12.382019
	l5.1929932,12.382019H48.9880409L48.9880409,201.1855164z M73.721138,182.2275391v30.9109802h3.4243011v-13.5350037h0.8811951
	l9.4126129,13.5350037h4.1681061l-9.8237152-13.8130188c4.6838074-0.3240051,7.7842102-3.79599,7.7842102-8.526001
	c0-3.2929993-1.5733032-5.6569824-3.3780212-6.8599854c-2.318985-1.5740051-5.42659-1.7119751-7.5137787-1.7119751H73.721138
	L73.721138,182.2275391z M77.1454391,185.4655151h2.087204c1.4841919,0,3.061203,0.0930176,4.4525909,0.8819885
	c1.9481049,1.1130371,2.458313,2.82901,2.458313,4.5440063c0,3.6180115-2.5510101,5.6579895-6.8182068,5.6579895h-2.1799011
	V185.4655151L77.1454391,185.4655151z M113.377327,200.8545227h9.181015
	c-0.0930023,1.947998-0.6959991,3.4319763-1.2519989,4.4059753c-1.7619934,3.1079712-5.3320007,5.1950073-9.4590149,5.1950073
	c-5.8409729,0-12.5640869-4.2669983-12.5640869-12.7009888c0-7.1869812,5.1931152-12.7979736,12.6571045-12.7979736
	c3.7089844,0,6.0269928,1.3909607,7.5109863,2.5959778c1.0200043,0.8349915,2.0400085,1.947998,2.9210205,3.1999817
	l2.54599-2.3179932c-0.8789978-1.2059937-2.1750031-2.5969849-3.5659943-3.6640015
	c-3.0140076-2.3129883-6.4910126-3.0529785-9.4579926-3.0529785c-9.2270203,0-16.1281128,6.9949646-16.1281128,15.9909973
	c0,8.9899902,6.8550873,15.9859924,16.0350952,15.9859924c7.0939941,0,10.5710144-4.3059998,11.4980164-5.5580139
	c1.9429932-2.6439819,2.9609833-6.3540039,2.9609833-9.7799988v-0.7400208H113.377327V200.8545227L113.377327,200.8545227z
	 M149.714325,182.2275391h-16.0319977v30.9109802h16.0319977v-3.2390137h-12.6080017v-12.0109863h12.2370148v-3.2390137h-12.2370148
	v-9.1839905h12.6080017V182.2275391L149.714325,182.2275391z M172.8813324,185.4655151v-3.2379761H154.438324v3.2379761h7.5090027
	v27.6730042h3.4250031v-27.6730042H172.8813324L172.8813324,185.4655151z"/>
<path fill="#575454" d="M36.7019386,223.871521v-3.013031H26.4117489v3.013031h3.3605957v12.4460144h3.5690899V223.871521
	H36.7019386L36.7019386,223.871521z M43.9031105,220.85849h-3.5691528v15.4590454h3.5691528v-6.5580139h6.1664276v6.5580139
	h3.5691071V220.85849h-3.5691071v5.888031h-6.1664276V220.85849L43.9031105,220.85849z M58.927845,220.8594971v15.4580383h3.5690918
	v-6.0960083l4.1736183,6.0960083h4.3562927l-4.7501984-6.3280029c0.8572845-0.2080078,1.6218872-0.6720276,2.1547852-1.1810303
	c0.9963074-0.9729919,1.2048035-2.1789856,1.2048035-3.1519775c0-1.7160339-0.6950836-2.8280029-1.3437958-3.4530029
	c-0.7414856-0.6960144-1.9694977-1.3440247-3.9402924-1.3440247H58.927845L58.927845,220.8594971z M62.4969368,223.6394958
	h0.8349152c0.4636841,0,1.3912697,0.0460205,1.9709816,0.48703c0.3015137,0.2319946,0.7189026,0.6949768,0.7189026,1.5759888
	c0,0.7649841-0.3246002,1.2519836-0.5796967,1.5069885c-0.60289,0.6029968-1.4841042,0.6719971-2.1333961,0.6719971h-0.8117065
	V223.6394958L62.4969368,223.6394958z M83.4597397,220.85849h-8.7374115v15.4590454h8.7374115v-3.013031h-5.1683044v-3.4309998
	h4.9134064v-3.0130005h-4.9134064v-2.9889832h5.1683044V220.85849L83.4597397,220.85849z M97.7479477,222.042511
	c-1.8079987-1.3439941-3.5229034-1.5299988-4.5882111-1.5299988c-1.4358978,0-2.733902,0.302002-3.8233948,1.4139709
	c-0.9270935,0.9500427-1.3444061,2.1090393-1.3444061,3.4760132c0,0.7410278,0.1159058,1.8300171,0.9272003,2.6870117
	c0.6027069,0.6490173,1.4371033,0.973999,2.1557159,1.2279968l1.274292,0.440979
	c0.4400024,0.1620178,1.3894958,0.5090027,1.8063965,0.8570557c0.3241882,0.2779541,0.5326996,0.6019592,0.5326996,1.1119995
	c0,0.578949-0.2547913,0.9959717-0.5558929,1.2509766c-0.5095062,0.4400024-1.1578979,0.53302-1.621109,0.53302
	c-0.7178955,0-1.343689-0.1860352-1.9463043-0.5560303c-0.4172974-0.2550049-1.0430908-0.7879944-1.4371796-1.1819763
	l-1.8542023,2.5490112c0.5793915,0.578949,1.4833832,1.2979431,2.2714844,1.6919556
	c0.9735107,0.48703,1.9470062,0.6490173,3.0588074,0.6490173c1.0189972,0,3.0115967-0.1390076,4.3791046-1.5759888
	c0.8112793-0.835022,1.3675995-2.2250366,1.3675995-3.822998c0-0.9040222-0.2318115-2.0160217-1.1358032-2.8730164
	c-0.6026154-0.5799866-1.4371033-0.927002-2.1092987-1.1820068l-1.1582947-0.4400024
	c-1.0422211-0.3939819-1.5749207-0.532959-1.9454041-0.8809814c-0.2315979-0.2079773-0.3474121-0.4860229-0.3474121-0.8569946
	c0-0.3940125,0.1621094-0.7409973,0.393692-0.9730225c0.4169159-0.4629822,1.0190125-0.5329895,1.5054169-0.5329895
	c0.4399872,0,1.4360962,0.0700073,2.5950928,1.1119995L97.7479477,222.042511L97.7479477,222.042511z M106.3763504,220.85849
	h-3.5690155v15.4590454h3.5690155v-6.5580139h6.1659851v6.5580139h3.5690155V220.85849h-3.5690155v5.888031h-6.1659851V220.85849
	L106.3763504,220.85849z M129.0263367,220.5125122c-3.0819931,0-5.0049973,1.2290039-6.0479965,2.2720032
	c-1.3910065,1.3899841-2.3880005,3.6369934-2.3880005,5.861969c0,2.2700195,0.9270172,4.3550415,2.4109955,5.7460022
	c1.1589966,1.11203,3.128006,2.2710266,6.0250015,2.2710266c2.5950012,0,4.5419922-0.881012,5.9789886-2.2710266
	c1.6690063-1.6229858,2.4100037-3.7309875,2.4100037-5.7929993c0-2.3859863-0.9499817-4.4249878-2.4100037-5.8389587
	C133.4523315,221.2545166,131.4363251,220.5125122,129.0263367,220.5125122L129.0263367,220.5125122z M129.0033264,223.8035278
	c1.4130096,0,2.6410065,0.5799866,3.4060059,1.3210144c0.6949921,0.6949768,1.3439941,1.8769836,1.3439941,3.4749451
	c0,1.7840271-0.7409821,2.8730469-1.3439941,3.4519958c-0.7409821,0.7420349-1.8540039,1.3210449-3.4289856,1.3210449
	c-1.2050095,0-2.3180161-0.3250122-3.314003-1.2740173c-0.9499969-0.9269714-1.4130096-2.0620117-1.4130096-3.4759827
	c0-1.7140198,0.6950226-2.848999,1.3670197-3.4979858C126.4543381,224.2905273,127.6593399,223.8035278,129.0033264,223.8035278
	L129.0033264,223.8035278z M141.9043427,220.85849v15.4590454h8.3669891v-3.013031h-4.7980042V220.85849H141.9043427
	L141.9043427,220.85849z M153.9813232,220.85849v15.4590454h5.0060272c1.2979736,0,3.9629822-0.1620178,6.0959778-2.3180237
	c1.2750092-1.2740173,2.1090088-3.0359802,2.1090088-5.4689941c0-2.4110107-0.8580017-4.2180176-2.2250061-5.539032
	c-1.901001-1.8309937-4.0559998-2.1329956-6.094986-2.1329956H153.9813232L153.9813232,220.85849z M157.5513306,223.871521
	h0.9500122c1.0889893,0,2.5950012,0.1619873,3.7539825,1.3209839c0.6030121,0.6029968,1.2750092,1.6690063,1.2750092,3.3380127
	c0,1.7149963-0.6719971,3.0359802-1.5070038,3.7309875c-1.1580048,0.9729919-2.7810059,1.0429993-3.5219879,1.0429993h-0.9500122
	V223.871521L157.5513306,223.871521z"/>
<path fill="#8C8686" d="M176.9753265,156.1375122l-25.0389862-14.4569702v-26.6220093
	c-1.0630035,1.1139832-2.7940063,1.4079895-4.1820068,0.6069641l-0.595993-0.3450012v26.3600464l-23.8429947,13.7659607
	L99.4726486,141.680542v-26.3710327l-0.6156158,0.3559875c-0.5867004,0.3380127-1.2346802,0.4790039-1.8677826,0.447998
	c-0.6053162,0.0140076-1.2205963-0.1249695-1.7805023-0.447998l-0.5139008-0.2969971v26.3120422l-23.8426056,13.7659607
	L47.0095253,141.680542v-26.4180298l-0.6976624,0.4029846c-1.3449097,0.776001-3.0109253,0.5250244-4.0802002-0.5029602v26.5180054
	l-25.0390301,14.4569702c-1.1378784,0.6569824-1.5314026,2.125-0.8743896,3.2630005s2.1254883,1.5310059,3.2633972,0.8739929
	l25.038908-14.4559937l25.03899,14.4559937c0.0239105,0.0140076,0.0496979,0.0209961,0.0737915,0.0339966
	c0.0702057,0.0370178,0.1424103,0.0670166,0.2157135,0.0960083c0.0757904,0.0320129,0.1508942,0.0629883,0.2284088,0.0860291
	c0.0660858,0.0189819,0.1333771,0.0309448,0.201004,0.0449829c0.0830841,0.0169983,0.1652832,0.0339966,0.2489929,0.0419617
	c0.074707,0.007019,0.1493988,0.0050354,0.2246857,0.0050354c0.0753937,0,0.1501007,0.0019836,0.2248077-0.0050354
	c0.0837097-0.0079651,0.1658936-0.0249634,0.2489929-0.0419617c0.0676117-0.0140381,0.134903-0.026001,0.2010956-0.0449829
	c0.0774078-0.0230408,0.1524048-0.0540161,0.2281036-0.085022c0.0733948-0.0299988,0.145813-0.0599976,0.2160187-0.0979919
	c0.0240936-0.0120239,0.049881-0.0190125,0.0736847-0.03302l25.0389099-14.4559937l25.0385895,14.4559937
	c0.0240021,0.0140076,0.0500031,0.0209961,0.0739899,0.0339966c0.0700073,0.0370178,0.1430054,0.0670166,0.2160187,0.0960083
	c0.0759888,0.0320129,0.1509857,0.0629883,0.2279968,0.0860291c0.0659943,0.0189819,0.1340027,0.0309448,0.201004,0.0449829
	c0.0830078,0.0169983,0.1660004,0.0339966,0.2489929,0.0419617c0.0749969,0.007019,0.1500092,0.0050354,0.2250061,0.0050354
	s0.1499939,0.0019836,0.2249908-0.0050354c0.0830078-0.0079651,0.1660004-0.0249634,0.2490082-0.0419617
	c0.0670013-0.0140381,0.1349945-0.026001,0.201004-0.0449829c0.0769806-0.0230408,0.1520081-0.0540161,0.2279968-0.0860291
	c0.072998-0.0289917,0.1459961-0.0589905,0.2159882-0.0960083c0.0240173-0.0130005,0.0500183-0.019989,0.0740051-0.0339966
	l25.0389938-14.4559937l25.0390015,14.4559937c1.1380005,0.6570129,2.6060028,0.2640076,3.2630005-0.8739929
	S178.1123352,156.7944946,176.9753265,156.1375122L176.9753265,156.1375122z"/>
<path fill="#A61E27" d="M124.5113449,63.6090088L99.4727402,49.15271V20.388916c0-1.3139038-1.0749969-2.388916-2.3889923-2.388916
	l0,0c-1.3139038,0-2.3889008,1.0750122-2.3889008,2.388916V49.15271L69.6558456,63.6090088
	c-1.1379089,0.6569977-1.531311,2.1254883-0.8743896,3.2633972c0.6569824,1.1379089,2.1254883,1.5314026,3.263382,0.8744049
	l25.0389099-14.4562073l25.0385895,14.4562073c1.1380005,0.6569977,2.6070099,0.263504,3.2640076-0.8744049
	S125.6493301,64.2660065,124.5113449,63.6090088L124.5113449,63.6090088z"/>
<path fill="#575454" d="M150.7433319,109.8735046l-25.0389938-14.4566956V69.0243073
	c-1.0699921,1.0223999-2.7320099,1.2709045-4.0739899,0.4960022l-0.70401-0.4065857v26.3031921l-23.8424988,13.7655792
	L73.2412491,95.4169159v-26.275589l-0.656601,0.3789825c-1.3626099,0.7867889-3.0541077,0.5175018-4.1213074-0.5446014v26.4411011
	l-25.03899,14.4566956c-1.1379089,0.6570129-1.5314026,2.1250153-0.8744202,3.2630157
	c0.6568909,1.1379852,2.1255188,1.5309906,3.2633362,0.8739777l25.0389748-14.4558868l25.0388947,14.4558868
	c0.08992,0.0520096,0.1902924,0.0560303,0.2837982,0.0950317c0.1509094,0.0629883,0.2956085,0.1219788,0.4558105,0.1529846
	c0.1528015,0.0289917,0.2994995,0.0319824,0.4530029,0.0319824c0.1534882,0,0.3002014-0.0029907,0.4530029-0.0319824
	c0.1601868-0.0310059,0.3048859-0.0899963,0.4557953-0.1529846c0.0934906-0.0390015,0.1938934-0.0430222,0.2837982-0.0950317
	l25.0390015-14.4558868l25.0389786,14.4558868c1.1380005,0.6570129,2.6060181,0.2640076,3.2630157-0.8739777
	C152.274353,111.9985199,151.8813477,110.5305176,150.7433319,109.8735046L150.7433319,109.8735046z"/>
<polygon fill="#FDDD10" stroke="#FFFFFF" stroke-width="0.5" stroke-miterlimit="10" points="97.2250443,81.3659058 
	116.9003372,70.0061035 97.2005386,58.6321259 77.5247574,69.9919128 97.2250443,81.3659058 "/>
<polygon fill="#FFE885" stroke="#FFFFFF" stroke-width="0.5" stroke-miterlimit="10" points="96.7077408,82.4934082 
	76.7644424,70.8628082 76.7644424,93.7355194 96.7077408,105.3655243 96.7077408,82.4934082 "/>
<polygon fill="#FFF5D4" stroke="#FFFFFF" stroke-width="0.5" stroke-miterlimit="10" points="117.7653275,93.7414093 
	117.7653275,70.6309204 97.6141434,82.382431 97.6141434,105.4925079 117.7653275,93.7414093 "/>
<polygon fill="#69B542" stroke="#FFFFFF" stroke-width="0.5" stroke-miterlimit="10" points="123.0053329,126.5325317 
	142.6813354,115.1725159 122.9803543,103.7984924 103.305336,115.1585083 123.0053329,126.5325317 "/>
<polygon fill="#A2CD87" stroke="#FFFFFF" stroke-width="0.5" stroke-miterlimit="10" points="122.4873428,127.6595154 
	102.5443344,116.0295105 102.5443344,138.9014893 122.4873428,150.5325317 122.4873428,127.6595154 "/>
<polygon fill="#DCEBD2" stroke="#FFFFFF" stroke-width="0.5" stroke-miterlimit="10" points="143.5453339,138.9075317 
	143.5453339,115.7975159 123.3943405,127.5485229 123.3943405,150.6594849 143.5453339,138.9075317 "/>
<polygon fill="#567EBF" stroke="#FFFFFF" stroke-width="0.5" stroke-miterlimit="10" points="71.0018387,126.5325317 
	90.6776352,115.1725159 70.9773331,103.7984924 51.3016396,115.1585083 71.0018387,126.5325317 "/>
<polygon fill="#93A7D6" stroke="#FFFFFF" stroke-width="0.5" stroke-miterlimit="10" points="70.4845352,127.6595154 
	50.5413246,116.0295105 50.5413246,138.9014893 70.4845352,150.5325317 70.4845352,127.6595154 "/>
<polygon fill="#D6DCF0" stroke="#FFFFFF" stroke-width="0.5" stroke-miterlimit="10" points="91.5416336,138.9075317 
	91.5416336,115.7975159 71.3909531,127.5485229 71.3909531,150.6594849 91.5416336,138.9075317 "/>
<rect x="178.6430054" y="0.3860016" fill="#FFFFFF" width="16.4759998" height="16.4759998"/>
<rect y="0.3860016" fill="#FFFFFF" width="16.4759998" height="16.4759998"/>
<rect x="178.6430054" y="235.5240021" fill="#FFFFFF" width="16.4759998" height="16.4759998"/>
<rect y="235.5240021" fill="#FFFFFF" width="16.4759998" height="16.4759998"/>
</svg>
