<?xml version="1.0" encoding="utf-8"?>
<!-- Generator: Adobe Illustrator 21.0.2, SVG Export Plug-In . SVG Version: 6.00 Build 0)  -->
<svg version="1.1" id="Layer_1" xmlns="http://www.w3.org/2000/svg" xmlns:xlink="http://www.w3.org/1999/xlink" x="0px" y="0px"
	 viewBox="0 0 224.3 242.3" style="enable-background:new 0 0 224.3 242.3;" xml:space="preserve">
<style type="text/css">
	.st0{fill:#FFFFFF;}
	.st1{fill:#FDDD10;}
</style>
<g>
	<path class="st0" d="M111.9,218.4c-53.3,0-96.7-43.4-96.7-96.7S58.6,25,111.9,25s96.7,43.4,96.7,96.7S165.2,218.4,111.9,218.4z"/>
	<path class="st0" d="M111.9,27.6c52,0,94.2,42.2,94.2,94.2S163.9,216,111.9,216s-94.2-42.2-94.2-94.2S59.9,27.6,111.9,27.6
		 M111.9,22.6c-54.7,0-99.2,44.5-99.2,99.2S57.2,221,111.9,221s99.2-44.5,99.2-99.2S166.6,22.6,111.9,22.6L111.9,22.6z"/>
</g>
<path class="st1" d="M179.9,70.5c-0.3-0.1-0.5,0.1-0.8,0.2c-0.8,0.7-1.2,1.9-1.6,2.9c-1,2.9-1.8,5.9-2.7,8.8
	c-4.2-10.7-3.8-22.2-6.4-33.1c-0.2-0.1-0.4-0.3-0.5-0.4c-1.8,10.6,0.9,20.9,1.5,32.1c-0.9-1.3-1.6-2-2.1-2.9
	c-4.4-7.3-8-15-10.4-23.2c-0.7-2.4-2.3-4.6-3.4-6.9c-0.3,0.1-0.7,0.3-1,0.4c1.1,4.9,1.8,10,3.4,14.8c1.9,5.9,4.5,11.6,6.9,17.4
	c0.8,1.8,1.2,3-1,4c-2.2,1-2.7-0.5-3.4-2c-4.3-8.9-8.5-17.8-12.8-26.7c-1.4-2.9-2.8-5.8-4.2-8.6c-0.4,0.1-0.9,0.3-1.3,0.4
	c0.7,3.8,0.9,7.8,2.4,11.2c3.5,8.2,7.8,16.2,11.6,24.3c2,4.2,1.7,4.8-2.8,7.5c-7.1-13.1-14.3-26.1-21.4-39.2c-0.3,0.1-0.7,0.3-1,0.4
	c1,3.6,1.5,7.5,3.2,10.7c4.7,9.2,10,18.1,13.1,28c1,3.1,0.8,3.5-3.1,5.7c-2.5,1.4-3.1-0.5-4-1.9c-4.8-7.9-9.5-15.9-14.3-23.8
	c-1.4-2.3-3-4.4-4.5-6.5c-0.2,0.1-0.4,0.2-0.7,0.3c0.2,0.7,0.3,1.4,0.6,2.1c4.2,9.2,8.4,18.5,12.8,27.6c2.4,5,2.4,4.9-1,8.9
	c-1.5,1.8-2.5,4-4,6.3c-2.3-4.4-4.1-8.6-6.5-12.5c-1.9-3-2.4-5.6-0.1-8.5c0.4-0.5,0.5-1.1,1-2.6c-1.9,1.5-3.1,2.5-4.5,3.6
	c-0.9-1.4-1.5-2.7-2.5-3.6c-5.6-5.3-6.6-11.5-4-18.6c0.7-1.9,0.1-4.3,0.1-6.5c-0.2,0-0.4,0-0.6,0c-1.2,4.1-2.3,8.2-3.6,12.7
	c-2-1.8-3.7-3.3-5.3-4.8c0.8,4.1,3.3,7.8,3.2,11.3c-0.2,3.6-3.1,7.1-4.8,10.7c-0.5,0-0.9,0-1.4,0c-0.8-1.6-2.4-3.2-2.4-4.8
	c-0.1-4.2,0.3-8.4,0.7-12.6c0.8-7.1,2-14.1,2.8-21.2c0.3-2.4-0.2-5-0.3-7.5c-0.4,0-0.7,0-1.1,0c-0.3,1.2-0.7,2.4-0.9,3.6
	c-1.1,7.6-1.9,15.1-3.1,22.7c-0.5,3.3-1.8,6.6-2.9,9.7c-0.4,1.1-1.6,1.9-2.4,2.8c-0.9-1.2-2-2.4-2.6-3.7c-0.4-0.8-0.2-1.9-0.2-2.9
	c0-10.5,0.1-21-0.1-31.4c0-2.7-1-5.3-1.5-7.9c-0.5,0.1-1,0.1-1.5,0.2c0,6.7,0.2,13.5-0.1,20.2c-0.3,8.4-1,16.8-1.7,25.2
	c-0.1,0.7-1.3,1.4-1.9,2c-0.9-1-2.4-2-2.6-3.2c-1.6-8.9-2.7-17.8-4.4-26.6c-0.8-4.4-2.3-8.6-3.6-12.9c-0.9,0.5-1.1,0.7-1.2,1
	c0,1.3-0.2,2.6,0,3.8c1.5,10.8,2.8,21.7,4.5,32.5c0.7,4.2,1.3,8.2-0.5,12.4c-0.7,1.6-1.3,2.9-2.9,2.6c-1-0.2-2.1-1.4-2.6-2.5
	c-3.9-8.2-7.7-16.4-11.6-24.6c-0.5-1-1.4-1.9-2.1-2.8c-0.2,0.1-0.5,0.2-0.7,0.4c0.2,1.3,0.5,2.6,0.7,3.9c1.5,8.4,5.2,15.9,9,23.4
	c1.9,3.9,2.3,7.8,2.3,11.9c0,1-0.8,2.2-1.3,3.1c-0.9,1.5-1.8,1.6-2.8-0.1c-3.8-6.7-8-13.2-10.4-20.6c-1.4-4.5-3.5-8.8-5.2-13.1
	c-0.3,0.1-0.6,0.1-0.9,0.2c-0.1,1.1-0.4,2.2-0.2,3.2c0.3,1.9,0.8,3.8,1.4,5.7c1.7,5.5,3.2,11.1,5.5,16.3c2.8,6.3,6.4,12.3,9.6,18.4
	c1.3,2.6,2,5.3,1.2,9.1c-2.4-2.3-4.7-3.9-6.1-6c-4.7-6.8-9.1-13.9-13.7-20.8c-0.5-0.8-1.2-1.6-1.8-2.5c-0.2,0.1-0.4,0.2-0.7,0.4
	c1.4,7.5,2.5,15,8.4,20.9c3.3,3.3,6.5,6.8,9.5,10.4c2.9,3.4,5.3,7.1,5.3,12.5c-1.1-0.9-1.8-1.6-2.6-2.1c-5-3.9-9.9-7.9-15-11.6
	c-2.2-1.6-4.9-2.5-7.9-1.6c0.2,0.6,0.7,0.8,1.1,1.1c7.7,6.7,15.5,13.4,23.1,20.3c2,1.9,3.4,4.5,5.1,6.7c-0.3,0.2-0.5,0.5-0.8,0.7
	c-4.7-2.6-9.3-5.2-14-7.8c-3-1.7-6-0.9-9.1-0.5c0.4,0.6,0.8,0.8,1.2,1c6.6,3.8,13.2,7.6,19.7,11.6c3.2,1.9,3.9,5.4,5.6,9
	c-5.9-1.2-10.6-4.8-17-3.3c1.5,0.9,2.5,1.4,3.5,2c4.4,2.5,8.8,5,13.2,7.6c0.6,0.4,1.5,1,1.6,1.6c0.5,4.4,4.4,5.7,7.1,8.1
	c1.8,1.6,4.1,1.6,6.6,1.6c3.4,0,6.8,0.9,10.2,1.5c0.9,0.2,1.7,0.7,2.6,1c0.2-0.2,0.4-0.4,0.6-0.6c-0.1-1-0.7-2.1-1.4-2.5
	c-3-1.7-6.1-3.5-9.3-4.6c-2.3-0.8-4.2-1.4-5.1-4.1c-2.5-7.4-5.4-14.6-7.8-22c-4.4-13.3-6.5-27-5.7-41c0.2-4.2,3-10,5.6-11.7
	c-4.3,10.1-5.1,20.6-2.9,31.1c1.7,8.2,3.4,16.4,5.9,24.4c1.9,6.2,4.8,12.1,7.6,18c1.6,3.3,3.5,3.8,7,3.2c1.4-0.2,2.9,0.1,4.3,0.4
	c1.7,0.3,3.3,0.9,5,1.4c-0.2,0.4-0.6,0.9-0.6,1.5c-0.2,3-1.4,6.6-0.1,8.7c1.5,2.5,0.5,3.6-0.9,4.4c-4.2,2.5-8.3,5.5-12.9,6.6
	c-3.8,0.9-6.6,2.3-8.7,4.7c2,0.9,4.1,1.7,6.2,2.4c0.8-0.5,1.9-1,3.2-1.6c4.3-1.6,8.8-2.5,13.3-3.6c0.6-0.1,1.9,0.5,2,0.9
	c0.6,2.5,2.2,2.9,4,2.6c1.3,2.2,2.4,4,3.5,6c0.1,0.2,0.2,0.4,0.2,0.7c1.3,0.1,2.7,0.1,4,0.1c1.4,0,2.8,0,4.1-0.1
	c-0.4-0.4-0.8-0.9-1.2-1.2c-2.9-2.2-6-4.3-9.1-6.5c0.8-1.6,1.9-3.4,2.7-5.4c1.1-2.8,2.8-4.1,6-3.8c3,0.3,5.8-0.7,7.9-3
	c10.8-11.6,21.6-23.1,32.4-34.7c3-3.2,6.6-6.1,8.6-9.9c2.9-5.7,5.4-11.8,6.8-18c1.9-8.5,2.6-17.4,4.1-26c1.9-11.1,4.1-22.1,6.2-33.2
	C180.2,71.1,180.2,70.6,179.9,70.5L179.9,70.5z M132.3,165c2.2-17.5,33.9-59.6,33.9-59.6l0.9-0.1c3.9,0.2-5.7,26.9-7.7,35.7
	C157.3,149.7,130,182.5,132.3,165L132.3,165z M111,96c-0.9,0.6-2.6,1.7-2.9,1.4c-1.1-1-2.5-2.5-2.4-3.8c0.1-3.1,0.9-6.3,1.4-9.4
	c0.2-0.1,0.5-0.1,0.7-0.2c1.3,1.9,2.4,4,3.8,5.8C113.4,92.2,113.6,94.3,111,96L111,96z M121.3,121.4c-2.2,2.6-3.7,5.8-5.6,8.8
	c-8.4-6.4-15.3-13.9-24.6-18c-0.2,0.2-0.3,0.4-0.5,0.6c0.7,0.8,1.4,1.6,2.1,2.3c4.9,5,9.7,9.9,14.6,14.9c1.3,1.3,1.9,2.5,0.3,4
	c-2.9,2.7-5.6,5.5-8.6,8c-0.7,0.6-2.2,0.8-3,0.4c-3.2-1.4-6.2-3.2-9.4-4.8c-1.1-0.6-2.3-1-3.5-1.5c2.7,3.3,5.4,6.6,8.3,9.7
	c1.2,1.3,1.4,2.1,0,3.3c-2,1.7-3.9,3.5-6.2,5.6c-2-4.1-4.3-7.8-5.9-11.9c-1.7-4.3-4.2-8.4-4.7-13c-0.2-0.5-0.4-1.1-0.5-1.7
	c-4.7-16.6-1.1-27.8,7.1-31.7c1.5-1,3.5-1.5,5.8-1.6c0.2,0,0.5,0,0.7,0c0.8,0,1.7,0,2.6,0c0.6,0,1.2,0.1,1.8,0.2
	c7.7,1,13.9,4.8,18.6,11.7c1.8,2.6,3.7,5.2,5.6,7.8c0.3-0.1,0.5-0.3,0.7-0.4c-1.1-3.2-2.2-6.4-3.4-9.5c-1.1-2.7-0.8-4.9,1.8-6.9
	c0.5,1,1.1,1.9,1.5,2.8c1.6,3.7,3,7.5,4.9,11C123.8,115.2,124,118.1,121.3,121.4L121.3,121.4z M168.7,95.1c-2,1.4-3.9,3-5.5,4.8
	c-8.9,9.8-16.5,20.6-22.3,32.6c-2.4,4.9-4.4,10.1-6.6,15.1c0,0,0,0,0,0c-3.2,7.4-7,16.3-7,16.4c0,0-0.3,0.8-0.8,1.9
	c-1.8,3.7-3.7,7.4-5.5,11.2c-2.8,5.7-4.8,12.1-11.9,14.2c-1.1,0.3-2,0.8-3.5,1.5c0-5.2,0.2-9.7,2.7-14c2.4-4,1.8-5-2.6-6.9
	c-1.5-0.6-2.6-0.6-3.3,1.1c-0.7,1.5-1.6,2.8-2.5,4.2c0-1.3,0.3-2.5,0.8-3.5c1.3-2.3,0.9-3.6-1.4-5.2c-2.6-1.8-4.5-4.5-6.7-6.9
	c0.2-0.3,0.5-0.5,0.7-0.8c1,0.5,2,1,3,1.5c8.2,4.4,6.5,4.1,9.3-4.4c0.6-1.8,0.1-3.2-1.6-4.2c-2.3-1.5-4.5-3.1-6.7-4.8
	c-0.5-0.4-0.6-1.4-0.9-2.1c0.8,0,1.7-0.3,2.3,0c2.2,1.2,4.4,2.6,6.6,3.8c1.6,0.9,2.6,0.8,3.2-1.4c1.3-5,2.9-9.9,4.5-14.8
	c1.1-3.5,2.3-3.8,5.2-1.5c3.1,2.4,6.1,4.8,9.3,7.2c2.7,2,4.8,1.1,5.1-2.4c0.2-2.9,0.1-5.8-1.6-8.5c-2-3.2-3.6-6.7-5.6-9.9
	c-1.5-2.4-0.5-4.1,1-5.7c0.3-0.3,1.9-0.1,2.2,0.3c1.1,1.6,1.7,3.5,2.8,5.1c1.5,2.3,3.2,4.6,5,6.7c1,1.2,2.1,1,2.9-0.7
	c1.7-3.7,3.2-7.4,1.7-11.5c-1.2-3.3-2.4-6.6-3.8-9.8c-1.6-3.6-1.2-4.3,2.7-5c1.9,3.4,3.7,6.8,5.8,10.1c0.6,0.9,2.6,2,2.7,1.8
	c1.1-1.1,2.7-2.6,2.6-3.7c-0.4-3.3-1.4-6.6-2.5-9.8c-1.1-3.2-1-3.9,2.6-5.3c1.9,2.8,1.1,7.4,5.8,8.2c1.4-2.3,1.9-4.7,0.9-7.3
	c-0.4-1.2-0.9-2.5-0.8-3.7c0.1-0.8,1.1-1.7,1.9-2.2c0.3-0.2,1.5,0.7,1.9,1.3c0.8,1.2,1.4,2.5,2,3.8c4.2-1.7,4.2-4.7,2.6-8.1
	c1.5-0.7,2.7-1.3,4.1-1.9c0.7,1.5,1.3,2.7,1.8,4C173.2,90.7,172.6,92.3,168.7,95.1L168.7,95.1z M121.8,156.9c0.9-3.2,2.7-7,1.7-9.7
	c-1.4-3.7-5.1-6.6-8.2-10.3c-3.1,5.4-4.4,10.4-5.2,15.6c-0.1,0.6,0.7,1.7,1.3,2.1c2.5,1.3,5.1,2.4,7.7,3.3
	C119.8,158.1,121.6,157.4,121.8,156.9L121.8,156.9z M107.7,159.8c-0.6,1.4-1.3,2.8-1.9,4.2c-1.2,2.7-0.8,3.4,2.1,3.9
	c1,0.1,1.9,0.3,3.6,0.6c1.5,0,2.8,0,3.7-2.5c0.2-0.5-0.7-2.3-1.4-3.3c-0.8-1.2-1.8-2.3-2.7-3.4C109.5,157.3,108.8,157.4,107.7,159.8
	L107.7,159.8z M92.4,210.5c-0.3,0.3-0.6,0.6-0.9,0.9c1.8,0.4,3.6,0.8,5.4,1c0-0.1,0-0.1,0-0.2c0.1-1.1-0.9-2.2-1.3-3.3
	C94.4,209.4,93.2,209.7,92.4,210.5L92.4,210.5z"/>
</svg>
