<?xml version="1.0" encoding="utf-8"?>
<!-- Generator: Adobe Illustrator 21.0.2, SVG Export Plug-In . SVG Version: 6.00 Build 0)  -->
<svg version="1.1" id="Layer_1" xmlns="http://www.w3.org/2000/svg" xmlns:xlink="http://www.w3.org/1999/xlink" x="0px" y="0px"
	 viewBox="0 0 224.3 242.3" style="enable-background:new 0 0 224.3 242.3;" xml:space="preserve">
<style type="text/css">
	.st0{fill:url(#SVGID_1_);}
	.st1{fill:none;stroke:#231F20;stroke-width:4.1135;}
	.st2{fill:url(#SVGID_2_);}
	.st3{fill:url(#SVGID_3_);}
	.st4{fill:url(#SVGID_4_);}
	.st5{fill:url(#SVGID_5_);}
</style>
<radialGradient id="SVGID_1_" cx="112.6545" cy="121.6546" r="91.4449" gradientUnits="userSpaceOnUse">
	<stop  offset="0" style="stop-color:#BCBBBB"/>
	<stop  offset="0.1228" style="stop-color:#B6B5B5"/>
	<stop  offset="0.2856" style="stop-color:#A5A4A4"/>
	<stop  offset="0.4708" style="stop-color:#8A8888"/>
	<stop  offset="0.6726" style="stop-color:#646262"/>
	<stop  offset="0.8854" style="stop-color:#333131"/>
	<stop  offset="0.996" style="stop-color:#171515"/>
</radialGradient>
<path class="st0" d="M112.7,213.1c50.5,0,91.4-40.9,91.4-91.4c0-50.5-40.9-91.4-91.4-91.4c-50.5,0-91.4,40.9-91.4,91.4
	C21.2,172.2,62.2,213.1,112.7,213.1L112.7,213.1z"/>
<path class="st1" d="M112.7,213.8c50.8,0,92.1-41.3,92.1-92.1c0-50.8-41.3-92.1-92.1-92.1c-50.8,0-92.1,41.3-92.1,92.1
	C20.5,172.5,61.8,213.8,112.7,213.8L112.7,213.8z"/>
<radialGradient id="SVGID_2_" cx="108.8506" cy="125.2798" r="78.3863" gradientUnits="userSpaceOnUse">
	<stop  offset="0" style="stop-color:#FCDC0E"/>
	<stop  offset="0.3453" style="stop-color:#F9D910"/>
	<stop  offset="0.5779" style="stop-color:#F0D016"/>
	<stop  offset="0.7773" style="stop-color:#E1C120"/>
	<stop  offset="0.9571" style="stop-color:#CCAC2E"/>
	<stop  offset="1" style="stop-color:#C6A632"/>
</radialGradient>
<path class="st2" d="M178.9,72c-0.3-0.1-0.5,0-0.8,0.2c-0.8,0.6-1.2,1.8-1.5,2.8c-0.9,2.8-1.8,5.7-2.6,8.6
	c-4.1-10.4-3.7-21.6-6.2-32.2c-0.2-0.1-0.4-0.3-0.5-0.4c-1.7,10.3,0.9,20.3,1.4,31.1c-0.9-1.2-1.5-2-2-2.8
	c-4.3-7.1-7.7-14.5-10.1-22.5c-0.7-2.4-2.2-4.5-3.3-6.7c-0.3,0.1-0.7,0.3-1,0.4c1.1,4.8,1.8,9.7,3.3,14.3c1.9,5.8,4.3,11.3,6.7,16.9
	c0.7,1.7,1.1,2.9-1,3.9c-2.1,1-2.7-0.5-3.3-1.9c-4.1-8.6-8.3-17.3-12.4-25.9c-1.3-2.8-2.7-5.6-4-8.4c-0.4,0.1-0.8,0.3-1.3,0.4
	c0.7,3.7,0.9,7.6,2.3,10.9c3.4,8,7.5,15.7,11.3,23.6c1.9,4.1,1.6,4.6-2.8,7.2c-6.9-12.7-13.9-25.4-20.8-38.1c-0.3,0.1-0.6,0.2-1,0.4
	c1,3.5,1.5,7.3,3.1,10.4c4.6,8.9,9.7,17.6,12.8,27.2c0.9,3,0.8,3.4-3,5.5c-2.4,1.3-3-0.4-3.8-1.9c-4.6-7.7-9.2-15.5-13.9-23.2
	c-1.3-2.2-2.9-4.2-4.4-6.3c-0.2,0.1-0.4,0.2-0.6,0.3c0.2,0.7,0.3,1.4,0.6,2c4.1,9,8.2,17.9,12.4,26.8c2.3,4.9,2.4,4.7-1,8.6
	c-1.5,1.7-2.5,3.9-3.9,6.1c-2.2-4.3-4-8.3-6.3-12.1c-1.8-2.9-2.3-5.5-0.1-8.3c0.4-0.4,0.4-1.1,0.9-2.5c-1.8,1.5-3,2.4-4.3,3.5
	c-0.9-1.4-1.5-2.6-2.4-3.5c-5.4-5.2-6.4-11.1-3.9-18.1c0.7-1.9,0.1-4.2,0.1-6.3c-0.2,0-0.4,0-0.6,0c-1.1,4-2.2,7.9-3.5,12.3
	c-2-1.8-3.5-3.2-5.1-4.7c0.8,4,3.2,7.5,3.1,11c-0.2,3.5-3,6.9-4.6,10.4c-0.4,0-0.9,0-1.3,0c-0.8-1.6-2.3-3.1-2.3-4.7
	c-0.1-4.1,0.2-8.2,0.7-12.2c0.8-6.9,1.9-13.7,2.7-20.6c0.3-2.4-0.2-4.8-0.3-7.2c-0.3,0-0.7,0-1,0c-0.3,1.2-0.7,2.3-0.9,3.5
	c-1,7.3-1.8,14.7-3.1,22c-0.5,3.2-1.7,6.4-2.8,9.4c-0.4,1.1-1.6,1.8-2.4,2.8C89,83.1,88,82,87.4,80.6c-0.4-0.8-0.2-1.9-0.2-2.8
	c0-10.2,0.1-20.4-0.1-30.5c0-2.6-1-5.1-1.5-7.7c-0.5,0.1-1,0.1-1.4,0.2c0,6.5,0.2,13.1-0.1,19.6c-0.3,8.2-1,16.3-1.6,24.5
	c-0.1,0.7-1.2,1.3-1.9,2c-0.9-1-2.4-1.9-2.6-3.1c-1.5-8.6-2.7-17.3-4.2-25.9c-0.8-4.2-2.3-8.4-3.4-12.5c-0.9,0.5-1.1,0.7-1.1,0.9
	c0,1.2-0.2,2.5,0,3.7c1.4,10.5,2.8,21.1,4.4,31.6c0.6,4.1,1.2,8-0.5,12c-0.6,1.5-1.3,2.8-2.8,2.6c-1-0.2-2-1.4-2.5-2.4
	c-3.8-7.9-7.5-16-11.2-23.9c-0.5-1-1.3-1.8-2-2.7c-0.2,0.1-0.5,0.2-0.7,0.4c0.2,1.3,0.5,2.5,0.7,3.8c1.4,8.1,5.1,15.5,8.8,22.7
	c1.9,3.7,2.3,7.6,2.2,11.6c0,1-0.7,2.1-1.3,3c-0.9,1.4-1.8,1.6-2.7-0.1c-3.7-6.5-7.8-12.8-10.1-20C50,83,48,78.9,46.3,74.6
	c-0.3,0.1-0.6,0.1-0.9,0.2c-0.1,1-0.4,2.1-0.2,3.1c0.3,1.9,0.8,3.7,1.4,5.5c1.7,5.3,3.1,10.8,5.3,15.9c2.7,6.1,6.2,11.9,9.3,17.9
	c1.3,2.5,2,5.1,1.1,8.8c-2.4-2.3-4.5-3.8-5.9-5.8c-4.6-6.6-8.9-13.5-13.3-20.2c-0.5-0.8-1.1-1.6-1.7-2.4c-0.2,0.1-0.4,0.2-0.7,0.4
	c1.4,7.3,2.5,14.6,8.1,20.3c3.2,3.2,6.3,6.6,9.3,10.1c2.8,3.3,5.2,6.9,5.1,12.2c-1.1-0.9-1.8-1.5-2.5-2.1
	c-4.9-3.8-9.6-7.6-14.6-11.3c-2.1-1.6-4.7-2.4-7.7-1.6c0.2,0.6,0.7,0.8,1,1.1c7.5,6.6,15.1,13,22.5,19.7c2,1.8,3.3,4.3,4.9,6.6
	c-0.3,0.2-0.5,0.5-0.8,0.7c-4.5-2.5-9.1-5-13.6-7.6c-2.9-1.6-5.9-0.9-8.9-0.5c0.3,0.6,0.7,0.8,1.1,1c6.4,3.7,12.8,7.4,19.1,11.2
	c3.1,1.9,3.8,5.2,5.4,8.7c-5.7-1.2-10.3-4.7-16.5-3.2c1.5,0.8,2.4,1.4,3.4,1.9c4.3,2.4,8.5,4.9,12.8,7.4c0.6,0.4,1.5,1,1.5,1.6
	c0.5,4.3,4.2,5.6,6.9,7.9c1.8,1.6,4,1.6,6.4,1.6c3.3,0,6.6,0.9,9.9,1.5c0.9,0.2,1.7,0.7,2.5,1c0.2-0.2,0.4-0.4,0.6-0.5
	c-0.1-1-0.7-2-1.3-2.4c-2.9-1.7-5.9-3.4-9.1-4.5c-2.2-0.8-4.1-1.4-5-4c-2.4-7.2-5.3-14.2-7.6-21.4c-4.3-12.9-6.3-26.2-5.6-39.8
	c0.2-4,2.9-9.7,5.4-11.3c-4.2,9.9-4.9,20-2.9,30.2c1.6,8,3.3,16,5.7,23.7c1.9,6,4.7,11.8,7.4,17.5c1.6,3.3,3.4,3.7,6.8,3.1
	c1.3-0.2,2.8,0.1,4.2,0.3c1.6,0.3,3.2,0.9,4.9,1.4c-0.2,0.4-0.6,0.9-0.6,1.4c-0.2,2.9-1.3,6.4-0.1,8.5c1.5,2.5,0.5,3.5-0.9,4.3
	c-4.1,2.4-8.1,5.4-12.5,6.5c-3.7,0.9-6.5,2.3-8.5,4.5c2,0.9,4,1.6,6,2.3c0.8-0.5,1.8-1,3.2-1.5c4.2-1.5,8.5-2.4,12.9-3.5
	c0.6-0.1,1.9,0.4,2,0.9c0.6,2.4,2.2,2.8,3.9,2.5c1.2,2.1,2.4,3.9,3.4,5.8c0.1,0.2,0.2,0.4,0.2,0.6c1.3,0.1,2.6,0.1,3.9,0.1
	c1.3,0,2.7,0,4-0.1c-0.4-0.4-0.7-0.8-1.2-1.2c-2.8-2.2-5.8-4.2-8.9-6.3c0.8-1.6,1.9-3.3,2.6-5.2c1.1-2.8,2.8-4,5.8-3.7
	c2.9,0.2,5.6-0.7,7.7-2.9c10.5-11.3,21-22.5,31.5-33.7c2.9-3.1,6.4-6,8.3-9.6c2.9-5.5,5.2-11.5,6.6-17.5c1.9-8.3,2.5-16.9,3.9-25.3
	c1.9-10.8,4-21.5,6-32.2C179.2,72.6,179.2,72.1,178.9,72L178.9,72z M132.7,163.7c2.2-17,32.9-57.9,32.9-57.9l0.9-0.1
	c3.8,0.2-5.5,26.1-7.5,34.7C157,148.9,130.5,180.7,132.7,163.7L132.7,163.7z M112.1,96.8c-0.9,0.6-2.5,1.7-2.8,1.4
	c-1.1-1-2.4-2.4-2.4-3.7c0.1-3.1,0.9-6.1,1.4-9.1c0.2-0.1,0.5-0.1,0.7-0.2c1.2,1.9,2.3,3.9,3.7,5.7
	C114.4,93.1,114.6,95.1,112.1,96.8L112.1,96.8z M122,121.4c-2.1,2.6-3.6,5.6-5.4,8.5c-8.2-6.2-14.8-13.5-23.9-17.5
	c-0.2,0.2-0.3,0.4-0.5,0.6c0.7,0.7,1.3,1.5,2.1,2.2c4.7,4.8,9.4,9.6,14.2,14.4c1.2,1.2,1.8,2.5,0.3,3.9c-2.8,2.6-5.5,5.3-8.3,7.8
	c-0.7,0.6-2.1,0.8-2.9,0.4c-3.1-1.4-6-3.1-9.1-4.6c-1.1-0.5-2.2-1-3.4-1.4c2.7,3.2,5.3,6.4,8.1,9.5c1.1,1.3,1.4,2.1,0,3.2
	c-1.9,1.6-3.7,3.4-6,5.4c-2-3.9-4.2-7.6-5.7-11.5c-1.7-4.1-4.1-8.1-4.6-12.6c-0.2-0.5-0.3-1-0.5-1.6c-4.6-16.1-1.1-27,6.9-30.8
	c1.5-0.9,3.4-1.5,5.6-1.5c0.2,0,0.5,0,0.7,0c0.8,0,1.7,0,2.5,0c0.6,0,1.2,0.1,1.8,0.2c7.4,1,13.5,4.7,18.1,11.3
	c1.8,2.6,3.6,5.1,5.5,7.6c0.2-0.1,0.5-0.3,0.7-0.4c-1.1-3.1-2.1-6.2-3.3-9.2c-1.1-2.6-0.8-4.7,1.8-6.7c0.5,1,1.1,1.8,1.5,2.7
	c1.6,3.5,2.9,7.2,4.7,10.6C124.5,115.4,124.6,118.2,122,121.4L122,121.4z M168,95.8c-1.9,1.3-3.8,2.9-5.3,4.6
	c-8.7,9.5-16,20-21.6,31.6c-2.3,4.8-4.3,9.8-6.4,14.7c0,0,0,0,0,0c-3.1,7.2-6.8,15.9-6.8,15.9c0,0-0.3,0.8-0.8,1.8
	c-1.8,3.6-3.6,7.2-5.4,10.8c-2.8,5.5-4.7,11.7-11.5,13.8c-1,0.3-2,0.8-3.4,1.4c0-5.1,0.1-9.4,2.6-13.6c2.3-3.9,1.8-4.9-2.5-6.7
	c-1.4-0.6-2.5-0.6-3.2,1.1c-0.6,1.4-1.6,2.7-2.4,4.1c0-1.3,0.3-2.4,0.8-3.4c1.3-2.2,0.9-3.5-1.4-5.1c-2.5-1.8-4.4-4.4-6.5-6.7
	c0.2-0.3,0.5-0.5,0.7-0.8c1,0.5,2,1,2.9,1.5c7.9,4.3,6.3,3.9,9.1-4.3c0.6-1.8,0.1-3.1-1.5-4.1c-2.2-1.4-4.4-3-6.5-4.6
	c-0.5-0.4-0.6-1.4-0.8-2.1c0.8,0,1.7-0.3,2.2,0c2.2,1.1,4.2,2.5,6.4,3.7c1.5,0.9,2.5,0.7,3.1-1.3c1.3-4.8,2.8-9.6,4.3-14.4
	c1.1-3.4,2.3-3.7,5-1.5c3,2.4,6,4.7,9,7c2.6,2,4.7,1,5-2.3c0.2-2.8,0.1-5.6-1.5-8.2c-2-3.1-3.5-6.6-5.5-9.7c-1.5-2.3-0.5-4,1-5.5
	c0.3-0.3,1.8-0.1,2.1,0.3c1.1,1.6,1.7,3.4,2.7,5c1.5,2.3,3.1,4.5,4.8,6.5c1,1.2,2,0.9,2.8-0.7c1.7-3.6,3.1-7.2,1.6-11.2
	c-1.2-3.2-2.3-6.4-3.7-9.5c-1.5-3.5-1.2-4.2,2.7-4.8c1.9,3.3,3.6,6.6,5.6,9.8c0.5,0.9,2.5,2,2.7,1.8c1.1-1,2.6-2.5,2.5-3.6
	c-0.4-3.2-1.4-6.4-2.5-9.5c-1.1-3.1-0.9-3.8,2.5-5.1c1.8,2.8,1.1,7.2,5.6,7.9c1.3-2.3,1.8-4.5,0.9-7.1c-0.4-1.1-0.9-2.4-0.7-3.6
	c0.1-0.8,1.1-1.7,1.9-2.1c0.3-0.2,1.4,0.6,1.8,1.2c0.8,1.1,1.3,2.4,2,3.7c4.1-1.7,4-4.6,2.5-7.8c1.5-0.7,2.7-1.2,4-1.9
	c0.7,1.5,1.2,2.6,1.7,3.9C172.4,91.6,171.9,93.2,168,95.8L168,95.8z M122.5,155.9c0.8-3.1,2.6-6.8,1.7-9.4c-1.4-3.6-5-6.4-8-10
	c-3,5.3-4.3,10.1-5,15.2c-0.1,0.6,0.6,1.7,1.3,2c2.4,1.2,4.9,2.4,7.5,3.2C120.6,157.1,122.3,156.4,122.5,155.9L122.5,155.9z
	 M108.8,158.7c-0.6,1.4-1.3,2.7-1.9,4.1c-1.2,2.6-0.8,3.3,2,3.8c0.9,0.1,1.9,0.3,3.5,0.6c1.4,0,2.7,0,3.6-2.4
	c0.2-0.5-0.7-2.2-1.3-3.2c-0.7-1.2-1.7-2.2-2.6-3.3C110.5,156.2,109.9,156.4,108.8,158.7L108.8,158.7z M93.9,207.9
	c-0.3,0.3-0.6,0.6-0.9,0.9c1.7,0.4,3.5,0.7,5.2,1c0-0.1,0-0.1,0-0.2c0.1-1-0.8-2.1-1.3-3.2C95.9,206.9,94.7,207.2,93.9,207.9
	L93.9,207.9z"/>
<radialGradient id="SVGID_3_" cx="127.4583" cy="147.132" r="54.8305" gradientUnits="userSpaceOnUse">
	<stop  offset="0" style="stop-color:#A71E27"/>
	<stop  offset="0.2043" style="stop-color:#A11F27"/>
	<stop  offset="0.475" style="stop-color:#902328"/>
	<stop  offset="0.7814" style="stop-color:#752929"/>
	<stop  offset="1" style="stop-color:#5D2E2A"/>
</radialGradient>
<path class="st3" d="M170.7,87.3c-0.5-1.2-1.1-2.4-1.7-3.9c-1.4,0.6-2.5,1.2-4,1.9c1.5,3.3,1.6,6.1-2.5,7.8c-0.7-1.3-1.2-2.6-2-3.7
	c-0.4-0.6-1.5-1.4-1.8-1.2c-0.8,0.4-1.8,1.3-1.9,2.1c-0.1,1.2,0.3,2.4,0.7,3.6c0.9,2.5,0.4,4.8-0.9,7.1c-4.6-0.7-3.8-5.2-5.6-7.9
	c-3.5,1.3-3.6,2-2.5,5.1c1.1,3.1,2.1,6.3,2.5,9.5c0.1,1.1-1.4,2.6-2.5,3.6c-0.2,0.2-2.1-0.9-2.7-1.8c-2-3.2-3.8-6.5-5.6-9.8
	c-3.9,0.7-4.2,1.4-2.7,4.8c1.4,3.1,2.5,6.3,3.7,9.5c1.5,4,0,7.6-1.6,11.2c-0.8,1.6-1.8,1.9-2.8,0.7c-1.8-2.1-3.3-4.3-4.8-6.5
	c-1-1.6-1.7-3.4-2.7-5c-0.3-0.4-1.8-0.6-2.1-0.3c-1.5,1.5-2.5,3.2-1,5.5c2,3.1,3.5,6.5,5.5,9.7c1.7,2.6,1.8,5.4,1.5,8.2
	c-0.3,3.3-2.4,4.2-5,2.3c-3-2.3-6-4.6-9-7c-2.7-2.2-4-1.9-5,1.5c-1.5,4.8-3,9.6-4.3,14.4c-0.6,2.1-1.6,2.2-3.1,1.3
	c-2.2-1.2-4.2-2.6-6.4-3.7c-0.6-0.3-1.5,0-2.2,0c0.3,0.7,0.3,1.7,0.8,2.1c2.1,1.6,4.3,3.2,6.5,4.6c1.6,1,2.1,2.4,1.5,4.1
	c-2.8,8.2-1.1,8.5-9.1,4.3c-1-0.5-1.9-1-2.9-1.5c-0.2,0.3-0.5,0.5-0.7,0.8c2.2,2.3,4,4.9,6.5,6.7c2.2,1.6,2.6,2.9,1.4,5.1
	c-0.6,1-0.9,2-0.8,3.4c0.8-1.4,1.8-2.7,2.4-4.1c0.7-1.7,1.8-1.7,3.2-1.1c4.3,1.8,4.8,2.8,2.5,6.7c-2.5,4.1-2.6,8.5-2.6,13.6
	c1.4-0.6,2.4-1.1,3.4-1.4c6.9-2.1,8.7-8.3,11.5-13.8c1.8-3.6,3.6-7.2,5.4-10.8c0.5-1,0.8-1.8,0.8-1.8c0-0.1,3.7-8.7,6.8-15.9
	c0,0,0,0,0,0c2.1-4.9,4.1-9.9,6.4-14.7c5.7-11.6,13-22.1,21.6-31.6c1.6-1.7,3.4-3.3,5.3-4.6C171.9,93.2,172.4,91.6,170.7,87.3
	L170.7,87.3z M112.1,158.1c0.9,1.1,1.9,2.1,2.6,3.3c0.6,1,1.5,2.7,1.3,3.2c-0.9,2.4-2.2,2.4-3.6,2.4c-1.7-0.3-2.6-0.4-3.5-0.6
	c-2.8-0.4-3.2-1.1-2-3.8c0.6-1.4,1.2-2.7,1.9-4.1C109.9,156.4,110.5,156.2,112.1,158.1L112.1,158.1z M122.5,155.9
	c-0.2,0.6-1.9,1.2-2.6,1c-2.6-0.9-5.1-2-7.5-3.2c-0.6-0.3-1.4-1.4-1.3-2c0.7-5,2-9.9,5-15.2c3,3.6,6.6,6.4,8,10
	C125.1,149,123.3,152.7,122.5,155.9L122.5,155.9z M99.3,201c-4.3,1-8.7,1.9-12.9,3.5c-1.3,0.5-2.4,1-3.2,1.5c3.2,1.1,6.4,2,9.7,2.8
	c0.3-0.3,0.6-0.6,0.9-0.9c0.8-0.7,2-1,3-1.5c0.5,1.1,1.4,2.2,1.3,3.2c0,0,0,0.1,0,0.2c3.5,0.6,7,0.9,10.6,1.1
	c-0.1-0.2-0.1-0.5-0.2-0.6c-1-1.9-2.1-3.7-3.4-5.8c-1.7,0.3-3.3-0.1-3.9-2.5C101.2,201.5,99.9,200.9,99.3,201L99.3,201z"/>
<radialGradient id="SVGID_4_" cx="149.9852" cy="137.1703" r="25.4457" gradientUnits="userSpaceOnUse">
	<stop  offset="0" style="stop-color:#A71E27"/>
	<stop  offset="0.2043" style="stop-color:#A11F27"/>
	<stop  offset="0.475" style="stop-color:#902328"/>
	<stop  offset="0.7814" style="stop-color:#752929"/>
	<stop  offset="1" style="stop-color:#5D2E2A"/>
</radialGradient>
<path class="st4" d="M165.6,105.8c0,0-30.8,40.9-32.9,57.9c-2.2,17,24.4-14.9,26.3-23.4c2-8.5,11.3-34.5,7.5-34.7L165.6,105.8
	L165.6,105.8z"/>
<radialGradient id="SVGID_5_" cx="99.0807" cy="119.5209" r="29.9962" gradientUnits="userSpaceOnUse">
	<stop  offset="0" style="stop-color:#A71E27"/>
	<stop  offset="0.2043" style="stop-color:#A11F27"/>
	<stop  offset="0.475" style="stop-color:#902328"/>
	<stop  offset="0.7814" style="stop-color:#752929"/>
	<stop  offset="1" style="stop-color:#5D2E2A"/>
</radialGradient>
<path class="st5" d="M122.6,112c-1.8-3.4-3.1-7.1-4.7-10.6c-0.4-0.9-0.9-1.8-1.5-2.7c-2.5,2-2.8,4.1-1.8,6.7c1.2,3,2.2,6.1,3.3,9.2
	c-0.2,0.1-0.5,0.3-0.7,0.4c-1.8-2.5-3.7-5-5.5-7.6c-4.6-6.7-10.7-10.4-18.1-11.3c-0.6-0.1-1.2-0.2-1.8-0.2c-0.9-0.1-1.7-0.1-2.5,0
	c-0.2,0-0.4,0-0.7,0c-2.2,0.1-4.1,0.6-5.6,1.5c-8,3.8-11.5,14.7-6.9,30.8c0.2,0.6,0.3,1.1,0.5,1.6c0.5,4.5,2.9,8.5,4.6,12.6
	c1.6,3.9,3.7,7.6,5.7,11.5c2.2-2,4.1-3.8,6-5.4c1.4-1.2,1.1-2,0-3.2c-2.8-3.1-5.4-6.3-8.1-9.5c1.1,0.5,2.3,0.9,3.4,1.4
	c3,1.5,6,3.2,9.1,4.6c0.8,0.4,2.3,0.1,2.9-0.4c2.9-2.5,5.6-5.2,8.3-7.8c1.5-1.4,0.9-2.6-0.3-3.9c-4.7-4.8-9.5-9.6-14.2-14.4
	c-0.7-0.7-1.4-1.5-2.1-2.2c0.2-0.2,0.3-0.4,0.5-0.6c9,4,15.7,11.3,23.9,17.5c1.8-2.9,3.3-6,5.4-8.5
	C124.6,118.2,124.5,115.4,122.6,112L122.6,112z M112.7,90.8c-1.4-1.8-2.5-3.8-3.7-5.7c-0.2,0.1-0.5,0.1-0.7,0.2
	c-0.5,3-1.3,6.1-1.4,9.1c0,1.2,1.3,2.7,2.4,3.7c0.3,0.3,1.9-0.8,2.8-1.4C114.6,95.1,114.4,93.1,112.7,90.8L112.7,90.8z"/>
</svg>
