<?xml version="1.0" encoding="utf-8"?>
<!-- Generator: Adobe Illustrator 21.0.2, SVG Export Plug-In . SVG Version: 6.00 Build 0)  -->
<svg version="1.1" id="Layer_1" xmlns="http://www.w3.org/2000/svg" xmlns:xlink="http://www.w3.org/1999/xlink" x="0px" y="0px"
	 viewBox="0 0 173.5 173.5" enable-background="new 0 0 173.5 173.5" xml:space="preserve">
<radialGradient id="SVGID_1_" cx="87.1544647" cy="86.654541" r="66.2485504" gradientUnits="userSpaceOnUse">
	<stop  offset="0" style="stop-color:#ABA6A6"/>
	<stop  offset="0.1245455" style="stop-color:#A49F9F"/>
	<stop  offset="0.2894997" style="stop-color:#908B8B"/>
	<stop  offset="0.4771342" style="stop-color:#736E6E"/>
	<stop  offset="0.6799315" style="stop-color:#4F4C4C"/>
	<stop  offset="0.8804487" style="stop-color:#2C2B2B"/>
</radialGradient>
<path fill="url(#SVGID_1_)" d="M87.1539917,152.9030914c36.5880127,0,66.2490234-29.6609802,66.2490234-66.2489929
	c0-36.5877075-29.6610107-66.2481079-66.2490234-66.2481079c-36.5876923,0-66.2480774,29.6604004-66.2480774,66.2481079
	C20.9059143,123.2421112,50.5662994,152.9030914,87.1539917,152.9030914L87.1539917,152.9030914z"/>
<path fill="#FDDD10" d="M173.8080139,86.6540985C173.8080139,38.7965851,135.0119934,0,87.1539917,0
	C39.296402,0,0.5,38.7965851,0.5,86.6540985c0,47.8580017,38.796402,86.6549988,86.6539917,86.6549988
	C135.0119934,173.3090973,173.8080139,134.5121002,173.8080139,86.6540985L173.8080139,86.6540985z M152.746994,86.6540985
	c0,36.2259827-29.3669891,65.5930176-65.5930023,65.5930176c-36.2253876,0-65.5921021-29.3670349-65.5921021-65.5930176
	c0-36.2254028,29.3667145-65.5921021,65.5921021-65.5921021C123.3800049,21.0619965,152.746994,50.4286957,152.746994,86.6540985
	L152.746994,86.6540985z"/>
<path fill="none" stroke="#000000" stroke-width="2.9801099" d="M87.1539917,153.4091034
	c36.8090057,0,66.7550049-29.9460449,66.7550049-66.7550049c0-36.8083191-29.9459991-66.7543182-66.7550049-66.7543182
	c-36.8083038,0-66.754303,29.9459991-66.754303,66.7543182C20.3996887,123.4630585,50.3456879,153.4091034,87.1539917,153.4091034
	L87.1539917,153.4091034z"/>
<radialGradient id="SVGID_2_" cx="84.3986893" cy="89.2809067" r="56.788044" gradientUnits="userSpaceOnUse">
	<stop  offset="0" style="stop-color:#FDDD10"/>
	<stop  offset="0.3416312" style="stop-color:#FADA15"/>
	<stop  offset="0.5718433" style="stop-color:#F1D01E"/>
	<stop  offset="0.7691916" style="stop-color:#E2C128"/>
	<stop  offset="0.9469807" style="stop-color:#CEAD30"/>
	<stop  offset="1" style="stop-color:#C6A632"/>
</radialGradient>
<path fill="url(#SVGID_2_)" d="M135.1459961,50.6944122c-0.1919861-0.0501404-0.3789978,0.0353088-0.54599,0.1656799
	c-0.5470123,0.4577026-0.8590088,1.3227844-1.1040039,2.0545959c-0.6860046,2.0476074-1.2680054,4.1296082-1.8919983,6.1980896
	c-2.9850006-7.5461731-2.6710052-15.6317902-4.4900055-23.3210754c-0.1269989-0.1001129-0.2539825-0.201004-0.3820038-0.3002014
	c-1.2429962,7.4338989,0.6419983,14.731781,1.026001,22.5648804c-0.6629944-0.8995972-1.121994-1.4313049-1.4809875-2.0239868
	c-3.1060028-5.1356812-5.6090088-10.5325012-7.3399963-16.3026123c-0.5140076-1.7161865-1.5920105-3.2635956-2.4120178-4.8883057
	c-0.2359924,0.1045074-0.4720001,0.2093201-0.7079926,0.3139191c0.7649994,3.4723053,1.2680054,7.0297089,2.3609924,10.3955078
	c1.3530273,4.1663055,3.1450043,8.1955109,4.858017,12.2364044c0.5289917,1.2450867,0.8130035,2.1358032-0.6990051,2.8200684
	c-1.5359955,0.6952209-1.9230042-0.3613892-2.4159851-1.3901978c-2.9960175-6.2545776-6.0010223-12.5044861-9.0050201-18.7553864
	c-0.9749908-2.0290985-1.9539948-4.0563965-2.9319916-6.0845032c-0.3050079,0.0944977-0.6110077,0.188797-0.9160004,0.2832031
	c0.526001,2.6472015,0.6230011,5.4788971,1.6649933,7.9047852c2.4869995,5.7889252,5.4600067,11.3669281,8.154007,17.0691071
	c1.3959961,2.954895,1.1859894,3.3601074-2.0009918,5.2456055c-5.0260162-9.189209-10.0520172-18.3809052-15.0790253-27.5724945
	c-0.2339935,0.0885925-0.4689789,0.1772919-0.7039948,0.265976c0.7210083,2.5337219,1.053009,5.2680206,2.2369995,7.5627289
	c3.3360138,6.4654999,7.0390015,12.7345123,9.2470093,19.7344818c0.6779938,2.1496887,0.5549927,2.4830017-2.1580048,3.9818115
	c-1.7319946,0.956604-2.1609955-0.3210144-2.7860107-1.3611145c-3.3600006-5.5925903-6.687973-11.2048645-10.0809937-16.77771
	c-0.9659882-1.5865479-2.1109924-3.06427-3.173996-4.5918884c-0.1539917,0.0778046-0.3089905,0.1557159-0.4640045,0.2336121
	c0.1349945,0.4921875,0.2030029,1.0144043,0.4129944,1.4718018c2.977005,6.4862976,5.9190063,12.9894714,8.9870148,19.4329834
	c1.6789856,3.5256958,1.7059937,3.4168091-0.7230072,6.2473145c-1.0679932,1.2440186-1.7750092,2.7965088-2.7980042,4.4551697
	c-1.5849762-3.0863647-2.8879852-6.0421753-4.5699768-8.7631836c-1.3150177-2.1271973-1.655014-3.9708862-0.0450134-6.0041809
	c0.2579956-0.3251038,0.3170013-0.8075256,0.6849976-1.8066101c-1.3400116,1.0649109-2.1890106,1.7402344-3.1439972,2.4997864
	c-0.6609955-0.9781799-1.0720062-1.8892822-1.7420044-2.5310974c-3.911087-3.7464905-4.6221924-8.0567932-2.8172913-13.0871887
	c0.4881897-1.3607178,0.0739899-3.045105,0.0739899-4.5809937c-0.1495972-0.0059204-0.2989807-0.0118866-0.4483948-0.0176849
	c-0.8103943,2.8684845-1.6208038,5.7369537-2.5276031,8.9466705c-1.413208-1.292572-2.5693054-2.3501892-3.7254944-3.4077759
	c0.5559845,2.8635864,2.3530884,5.464386,2.2206116,7.9628906c-0.1354065,2.5531006-2.1641083,5.0057983-3.3639069,7.5024109
	c-0.3207092,0.0003662-0.6416016,0.0007019-0.9624023,0.0009766c-0.5953979-1.128479-1.6627045-2.243988-1.6940002-3.3878784
	c-0.0803986-2.9396362,0.179184-5.9056091,0.5206909-8.8357849c0.5814972-4.9898987,1.4087982-9.9516296,1.9650116-14.9439392
	c0.191391-1.7200928-0.1186066-3.4960785-0.1995087-5.2464752c-0.2512054,0.0018921-0.5023041,0.0037842-0.7536011,0.0056915
	c-0.2115021,0.8388062-0.5028839,1.6664886-0.6215973,2.5182037c-0.7413025,5.3164978-1.3333893,10.6565857-2.2098999,15.9498138
	c-0.3867035,2.334259-1.2371979,4.6094666-2.0612946,6.843689c-0.2843018,0.7701721-1.1271973,1.3344116-1.7148132,1.9926758
	c-0.6290894-0.8678894-1.3770905-1.6774902-1.8421783-2.6260071c-0.2781219-0.5669861-0.1416168-1.3512878-0.1425171-2.0379639
	c-0.0101929-7.3720093,0.0625916-14.7453308-0.0649109-22.1151123c-0.0323792-1.8670044-0.6947784-3.7229004-1.067688-5.5839081
	c-0.3474121,0.0426025-0.6946106,0.0850983-1.0418854,0.1277161c0,4.73909,0.1477814,9.483902-0.0375061,14.2156982
	c-0.2314148,5.9134064-0.7039948,11.8186798-1.1814117,17.7188873c-0.0413971,0.5122986-0.8937988,0.9588928-1.3694,1.4361267
	c-0.6397095-0.7351379-1.7046967-1.3945007-1.8512878-2.2174377c-1.1088104-6.2279663-1.9225922-12.5093842-3.0709076-18.7293701
	c-0.5682068-3.0777283-1.6490936-6.0607147-2.4980011-9.0866089c-0.6660004,0.3283997-0.8034973,0.502594-0.8099976,0.6813965
	C55.6575928,32.25,55.5494995,33.1596985,55.667099,34.0372009c1.0214996,7.6248932,1.9925995,15.2586823,3.1837158,22.8575897
	c0.4654999,2.9692993,0.8862915,5.781311-0.3413086,8.7002869c-0.4609985,1.0962219-0.9328156,2.028717-2.0155029,1.8475037
	c-0.7021942-0.1174927-1.4845123-1.0169067-1.8382111-1.754303c-2.7611847-5.7574768-5.4112854-11.5683899-8.1422729-17.3405762
	c-0.3442993-0.7272034-0.9602051-1.3258057-1.4501038-1.984024c-0.1684113,0.0847015-0.3365936,0.1693115-0.5050201,0.2541199
	c0.1627045,0.9121857,0.3269196,1.824295,0.4877014,2.7368927c1.0402985,5.9026184,3.6889954,11.2082214,6.3392029,16.4750061
	c1.3656158,2.7142029,1.6339111,5.497406,1.5890045,8.3794861c-0.0116119,0.7384949-0.5319061,1.5135193-0.9496918,2.1907959
	c-0.6307068,1.0222168-1.2840118,1.1242981-1.9620972-0.0625c-2.6891022-4.7063904-5.6326141-9.260498-7.2830048-14.5142822
	c-0.9908142-3.153717-2.4340057-6.1651917-3.6737976-9.2406921c-0.218811,0.039093-0.4377289,0.0780945-0.6565094,0.1169739
	c-0.0661011,0.7591248-0.2838898,1.5426331-0.1655884,2.2717285c0.2191925,1.3501892,0.5659027,2.6904907,0.9817963,3.9958801
	c1.2266846,3.849823,2.22229,7.8096924,3.8509827,11.4860229c1.9698944,4.4466858,4.5142975,8.6373901,6.7717133,12.9588013
	c0.9467926,1.8125916,1.4366913,3.7171631,0.8146057,6.3841858c-1.7140045-1.6369934-3.2929993-2.7200012-4.3080292-4.191925
	c-3.3128815-4.8039856-6.4172668-9.7515869-9.6099854-14.6386719c-0.3869934-0.5924072-0.8236084-1.1524963-1.2370911-1.727478
	c-0.1582031,0.0861816-0.3164062,0.1723633-0.474823,0.2585754c0.9981384,5.2627869,1.7838135,10.57901,5.8919067,14.6897888
	c2.3338165,2.3356934,4.5700989,4.7796936,6.7075195,7.2967224c2.0332031,2.3939819,3.7321014,5.0090027,3.6984863,8.8129883
	c-0.7960968-0.6660156-1.2846832-1.1019897-1.8002014-1.5029907c-3.514679-2.7340088-6.9768982-5.5410156-10.5808868-8.1520081
	c-1.5529022-1.125-3.4199066-1.756012-5.5509796-1.131012c0.1571655,0.4230042,0.4910583,0.5500183,0.7436829,0.769989
	c5.4438019,4.7470093,10.9386902,9.4380188,16.2753906,14.303009c1.4347076,1.3070068,2.3829956,3.1489868,3.5545959,4.7460022
	c-0.1858978,0.1700134-0.3717041,0.3400269-0.5574951,0.5100098c-3.279007-1.822998-6.5657043-3.6329956-9.8342896-5.4750061
	c-2.1076202-1.1870117-4.2461243-0.6430054-6.4144135-0.3590088c0.2484131,0.4219971,0.5382996,0.5709839,0.8189087,0.7349854
	c4.617981,2.7080383,9.2586975,5.3770447,13.841095,8.1440125c2.232193,1.3470154,2.7675934,3.7700195,3.9397888,6.3009949
	c-4.1590881-0.8789978-7.4676971-3.4049988-11.9525909-2.2979736c1.0797882,0.6119995,1.7711945,1.0010071,2.4595947,1.3939819
	c3.0930939,1.7700195,6.1936035,3.526001,9.2681122,5.3269958c0.4527893,0.2650452,1.0741882,0.7110291,1.1198883,1.1279907
	c0.3374023,3.0820312,3.0641022,4.0420532,4.9687958,5.6940308c1.2974243,1.125,2.8830109,1.1539917,4.6299133,1.1319885
	c2.3919983-0.0300293,4.7984009,0.6279907,7.1861115,1.0610046c0.6230774,0.1130371,1.1993866,0.4849854,1.7971802,0.7379761
	c0.1391907-0.1319885,0.2785034-0.26297,0.4177094-0.3949585c-0.0680084-0.7150269-0.4745941-1.4630127-0.9678955-1.7420044
	c-2.1285095-1.2050476-4.2808075-2.4420166-6.5697174-3.2620239c-1.6234894-0.5820007-2.9552002-0.9869995-3.5876923-2.8659973
	c-1.7470856-5.1900024-3.8092957-10.2740173-5.5205994-15.4739685c-3.0799103-9.3600464-4.5818024-18.9710083-4.0229034-28.8526306
	c0.1651917-2.9241638,2.0985107-7.0081787,3.9279938-8.2079773c-3.0442963,7.1376953-3.5789948,14.4645691-2.0695801,21.8995972
	c1.1725922,5.7749939,2.3933868,11.5709839,4.129303,17.1919861c1.3474731,4.3640137,3.4025879,8.5290222,5.3778839,12.6700134
	c1.1242065,2.3559875,2.4281006,2.6659546,4.9382019,2.2659912c0.967804-0.1539917,2.0236053,0.0540161,3.0085144,0.25
	c1.1614838,0.2319946,2.2895813,0.6300049,3.5213928,0.9819946c-0.1307068,0.3000183-0.4093018,0.6629944-0.4320068,1.0409851
	c-0.125,2.0820007-0.9667053,4.6340027-0.0700989,6.131012c1.0702972,1.7879944,0.371994,2.5119934-0.623703,3.1020203
	c-2.9384918,1.742981-5.8634949,3.894989-9.0869904,4.6759949c-2.6667023,0.6459961-4.6756134,1.6369934-6.1393127,3.2900085
	c1.4276123,0.6169739,2.8840179,1.177948,4.3627014,1.6929932c0.5613937-0.3770142,1.3126984-0.7349854,2.2825928-1.0930176
	c3.0103149-1.1109924,6.1941071-1.7649841,9.3258972-2.5169983c0.4255066-0.1029968,1.3665161,0.3230286,1.4416199,0.6489868
	c0.4055939,1.756012,1.5809937,2.0209961,2.8060913,1.7960205c0.8908081,1.5240173,1.7156067,2.8479919,2.4369049,4.2250061
	c0.0706024,0.1350098,0.1226044,0.2979736,0.1635895,0.4670105c0.9362946,0.039978,1.8751221,0.0710144,2.8211975,0.0710144
	c0.9780121,0,1.9480133-0.0310364,2.9150085-0.0730286c-0.2539978-0.3120117-0.5329895-0.605011-0.8559875-0.8559875
	c-2.0400085-1.5809937-4.196106-3.0110168-6.41362-4.5880127c0.5756073-1.1280212,1.369812-2.4129944,1.9052124-3.7969971
	c0.7736969-2.0020142,2.0015869-2.8919983,4.2294006-2.7030029c2.1139832,0.1789856,4.04599-0.4710083,5.5829926-2.1220093
	c7.5950012-8.1570129,15.2330017-16.2749939,22.8270111-24.4330139c2.105011-2.2609863,4.6579895-4.3269653,6.0389862-6.9849854
	c2.072998-3.9890137,3.7660065-8.3140259,4.7600098-12.6910095c1.3649902-6.0130005,1.8079987-12.2283936,2.8580017-18.3208008
	c1.3430023-7.7952576,2.8840027-15.5567627,4.345993-23.3315735
	C135.3789978,51.0984955,135.3560028,50.7494049,135.1459961,50.6944122L135.1459961,50.6944122z M101.6570129,117.1280975
	c1.5779877-12.3389893,23.8659821-41.9346313,23.8659821-41.9346313l0.6679993-0.1026611
	c2.7260132,0.1434937-4.0179901,18.9382935-5.4519958,25.1072998
	C119.3040009,106.3670807,100.0789948,129.4660797,101.6570129,117.1280975L101.6570129,117.1280975z M86.7256012,68.6373138
	c-0.6508026,0.4423828-1.8344879,1.1968994-2.0359039,1.0101624c-0.7683868-0.7110901-1.7418976-1.76297-1.7149048-2.6600037
	c0.0665131-2.2157593,0.6430969-4.4160767,1.0147095-6.6226807c0.168808-0.0458069,0.3374939-0.0915833,0.5064087-0.1372986
	c0.8802948,1.3706055,1.6808929,2.8013,2.6600952,4.0966187C88.3929901,65.9594879,88.5550079,67.3938141,86.7256012,68.6373138
	L86.7256012,68.6373138z M93.9339905,86.4871063c-1.522995,1.8639832-2.6179962,4.0789795-3.9349823,6.1899719
	c-5.9357147-4.4959717-10.7470093-9.8006592-17.2973022-12.6771851c-0.1190033,0.1470947-0.2378998,0.2940063-0.3568115,0.4408875
	c0.4962006,0.5400085,0.9780121,1.093811,1.4911041,1.6174316c3.4179993,3.4876709,6.8381958,6.9728699,10.2683105,10.4498901
	c0.8812866,0.8929749,1.3086853,1.7769775,0.2080994,2.8099976c-2.0056152,1.8839722-3.9514008,3.8359985-6.0375977,5.625
	c-0.4733124,0.4059753-1.5572968,0.5699768-2.1219025,0.315979c-2.245697-1.0109863-4.3812103-2.2630005-6.5903015-3.3599854
	c-0.7960968-0.3959961-1.6263885-0.7220154-2.4558105-1.0500183c1.9258118,2.3010254,3.8202209,4.6300354,5.8330078,6.8520203
	c0.8331146,0.9199829,0.9983978,1.5079956,0.0158997,2.3509827c-1.3891144,1.1940002-2.7137146,2.4620361-4.3284912,3.9379883
	c-1.440506-2.8589783-3.009613-5.519989-4.1512146-8.3529968c-1.2084961-2.9989624-2.9543915-5.8979797-3.3410797-9.1389771
	c-0.1240997-0.3670044-0.2474213-0.7590027-0.3697205-1.1889954c-3.3264923-11.6903076-0.7997894-19.5476074,4.9942017-22.3205261
	c1.0855103-0.683075,2.4411011-1.0581665,4.0650024-1.0994873c0.1656952-0.0040894,0.3267059,0.0012207,0.4908905,0.0002136
	c0.5931244-0.0270996,1.2043152-0.0176086,1.8324127,0.0295105c0.438797,0.0328979,0.865387,0.0886841,1.286499,0.15448
	c5.3833923,0.7047119,9.7829895,3.398407,13.112793,8.2172852c1.2850189,1.8597107,2.6350098,3.6750183,3.9550018,5.5106201
	c0.1759949-0.0995178,0.3509979-0.1987915,0.5270081-0.2980042c-0.802002-2.2293091-1.5360107-4.4859924-2.4260101-6.6793823
	c-0.7639923-1.8823242-0.5789948-3.4309998,1.2680054-4.8752441c0.3869934,0.7119141,0.779007,1.3282166,1.0720062,1.9885254
	c1.1399994,2.5715942,2.0820007,5.2481995,3.417984,7.7120056C95.7060089,82.1301117,95.8140106,84.1861725,93.9339905,86.4871063
	L93.9339905,86.4871063z M127.2819977,67.9449921c-1.3939972,0.9744873-2.7229919,2.1079102-3.8670044,3.3648987
	c-6.2839966,6.9053955-11.5799866,14.5131836-15.6799927,22.9082031c-1.6950073,3.4700012-3.1080017,7.0780029-4.6500092,10.6230164
	c0.0040131,0.0019836,0.0090179,0.0049744,0.0130157,0.0069885c-2.2379913,5.2199707-4.9180145,11.4840088-4.9180145,11.552002
	c0,0.0339966-0.2359924,0.5780029-0.5669861,1.3259888c-1.2969971,2.6160278-2.5770111,5.2399902-3.8890076,7.8479919
	c-2.0009918,3.9760132-3.3690033,8.4890137-8.3388824,10.0090027c-0.7402191,0.2270203-1.4368134,0.5969849-2.4725189,1.0349731
	c0.0036926-3.6779785,0.1083984-6.8309631,1.9070129-9.8369446c1.693985-2.8310242,1.2794952-3.5370178-1.8056946-4.8530273
	c-1.023819-0.4369812-1.7997131-0.4199829-2.3382263,0.7920227c-0.4646912,1.0460205-1.157486,1.9899902-1.7493896,2.9789734
	c-0.0322113-0.947998,0.1940002-1.7420044,0.5977936-2.4330139c0.9369202-1.6040039,0.642807-2.5359802-0.9784851-3.6819763
	c-1.8130951-1.2810059-3.175705-3.1999817-4.7342072-4.8410034c0.1676025-0.1859741,0.3351898-0.3710022,0.5027161-0.5559998
	c0.7058716,0.3630066,1.4171906,0.7150269,2.1166992,1.0900269c5.7570801,3.0799866,4.5773926,2.8499756,6.5778809-3.0980225
	c0.4307098-1.2799988,0.0417175-2.2290039-1.1223907-2.9850159c-1.6139069-1.0480042-3.1856079-2.1699829-4.6932068-3.3639832
	c-0.3688965-0.2929993-0.4179077-0.9889832-0.6138916-1.4989929c0.5490875-0.0040283,1.2001953-0.2030029,1.6289062,0.0220032
	c1.5823822,0.8300171,3.0735931,1.8309937,4.6336823,2.7070007c1.0984039,0.6159973,1.822998,0.5339966,2.2238007-0.9620056
	c0.9396057-3.5099792,2.0474091-6.9750061,3.1354065-10.4430237c0.7619934-2.4279785,1.6519928-2.6469727,3.6419983-1.0589905
	c2.1480103,1.7149963,4.3150024,3.4089966,6.5089874,5.0639954c1.881012,1.4200134,3.4030151,0.7430115,3.6020203-1.6560059
	c0.17099-2.05896,0.0939941-4.0620117-1.1150055-5.9530029c-1.4419861-2.2529907-2.5069885-4.7479553-3.9580078-6.994873
	c-1.0899811-1.6894226-0.3769836-2.8656006,0.7030029-3.9819031c0.2250061-0.2327881,1.3190155-0.096283,1.5200043,0.2018738
	c0.7619934,1.1332092,1.2290039,2.4631958,1.9799957,3.6062317c1.0780029,1.6407166,2.2279968,3.2496948,3.5019989,4.7406921
	c0.7360077,0.8619995,1.4689941,0.6839905,2.0169983-0.4799805c1.2229919-2.5980225,2.2600098-5.1972351,1.1940002-8.0991211
	c-0.8479919-2.3106079-1.6959991-4.6268921-2.6859894-6.8786926c-1.098999-2.5014038-0.8790131-3.0101013,1.9329834-3.4970093
	c1.3420105,2.3664246,2.6260071,4.788208,4.0839996,7.1000061c0.3970032,0.6289978,1.7980194,1.4172058,1.9220123,1.2962952
	c0.7659912-0.7478027,1.8999939-1.8117981,1.7949982-2.6271057c-0.2999878-2.333374-1.0110016-4.6412964-1.792984-6.8773804
	c-0.7930145-2.263916-0.6700134-2.7653198,1.845993-3.7000122c1.3320007,1.9944153,0.7769928,5.2028198,4.0870056,5.742981
	c0.969986-1.6411743,1.3279877-3.2849731,0.667984-5.1221924c-0.298996-0.8325806-0.6309814-1.7574768-0.5339813-2.5925903
	c0.0670013-0.5748901,0.766983-1.2075195,1.3429871-1.5254822c0.2200165-0.1213074,1.0220032,0.4689636,1.3159943,0.9005737
	c0.5639954,0.8276978,0.9530029,1.7738037,1.4299927,2.700531c2.951004-1.2202148,2.9240112-3.3050232,1.8180237-5.6725159
	c1.0889893-0.504303,1.9299774-0.8935852,2.9129791-1.3485107c0.4770203,1.0534058,0.9020081,1.9091187,1.2590027,2.7922058
	C130.4700012,64.8845978,130.0449982,66.0140839,127.2819977,67.9449921L127.2819977,67.9449921z M94.2779999,111.4351044
	c0.6110077-2.263031,1.9170074-4.9570312,1.196991-6.8100281c-1.0179901-2.618988-3.5939941-4.6329956-5.7889862-7.2449951
	c-2.1679993,3.8140259-3.1165924,7.3390198-3.6445007,10.9830322c-0.0646973,0.4479675,0.4693909,1.2299805,0.9264984,1.4599609
	c1.7590027,0.8860168,3.5679932,1.7109985,5.4330139,2.3320007
	C92.9190063,112.3260956,94.1699982,111.838089,94.2779999,111.4351044L94.2779999,111.4351044z M84.3706055,113.4810944
	c-0.4503937,0.9890137-0.9066925,1.9750366-1.3486938,2.9680176c-0.8455963,1.8989868-0.5691071,2.4129639,1.4438934,2.7229614
	c0.6747894,0.1029968,1.3485107,0.2160339,2.5471954,0.4100037c1.0310059-0.0209961,1.951004,0.006012,2.6019897-1.7470093
	c0.1340027-0.361969-0.5109863-1.6059875-0.9749908-2.3499756c-0.5390015-0.8630066-1.246994-1.6219788-1.9024048-2.4089966
	C85.6056976,111.7150726,85.1367035,111.8000946,84.3706055,113.4810944L84.3706055,113.4810944z M73.5741882,149.1410675
	c-0.2228851,0.2000122-0.4355774,0.4170227-0.6557922,0.6210327c1.2445984,0.2789917,2.5,0.5289917,3.7704926,0.7350159
	c0.004715-0.0380249,0.0140076-0.085022,0.0170288-0.1210022c0.0644836-0.7470093-0.6029053-1.5570068-0.9325104-2.3380127
	C75.0323029,148.39711,74.1618042,148.6121063,73.5741882,149.1410675L73.5741882,149.1410675z"/>
<radialGradient id="SVGID_3_" cx="97.8792877" cy="105.1119995" r="39.7227325" gradientUnits="userSpaceOnUse">
	<stop  offset="0" style="stop-color:#A71E27"/>
	<stop  offset="0.1816989" style="stop-color:#A22228"/>
	<stop  offset="0.4223733" style="stop-color:#932928"/>
	<stop  offset="0.6960651" style="stop-color:#7B2E29"/>
	<stop  offset="0.9923287" style="stop-color:#5D2F2A"/>
	<stop  offset="1" style="stop-color:#5C2F2A"/>
</radialGradient>
<path fill="url(#SVGID_3_)" d="M129.197998,61.7350922c-0.3569946-0.8830872-0.7819824-1.7388-1.2590027-2.7922058
	c-0.9830017,0.4549255-1.8239899,0.8442993-2.9129791,1.3486328c1.1059875,2.3673706,1.1329803,4.452179-1.8180237,5.6724854
	c-0.4769897-0.9268188-0.8659973-1.8729248-1.4299927-2.7006226c-0.2939911-0.4316101-1.0959778-1.0218811-1.3159943-0.9005737
	c-0.576004,0.3179626-1.2759857,0.950592-1.3429871,1.5254822c-0.0970001,0.8351135,0.2349854,1.7600098,0.5339813,2.5925903
	c0.6600037,1.8372192,0.302002,3.4810181-0.6670074,5.1221924c-3.3109894-0.5400696-2.7549896-3.7486877-4.0869904-5.7428894
	c-2.5169983,0.9346924-2.6399994,1.4360046-1.8469849,3.6999207c0.7819824,2.236084,1.4929962,4.5440063,1.792984,6.8773804
	c0.1049957,0.8153076-1.029007,1.879303-1.7949982,2.6271057c-0.1239929,0.1210022-1.5250092-0.6672974-1.9220123-1.2962036
	c-1.4579926-2.3118896-2.7419891-4.7336731-4.0839996-7.1000977c-2.8119965,0.486908-3.0319824,0.9956055-1.9329834,3.4970093
	c0.9899902,2.2518005,1.8379974,4.5680847,2.6859894,6.8786926c1.0660095,2.9019775,0.0289917,5.5010986-1.1940002,8.0991211
	c-0.5480042,1.1639709-1.2809906,1.34198-2.0169983,0.4799805c-1.2740021-1.4909973-2.423996-3.0999756-3.5019989-4.7406921
	c-0.7509918-1.1430359-1.2180023-2.4730225-1.9799957-3.6062317c-0.2009888-0.2980957-1.2949982-0.4345703-1.5200043-0.2018738
	c-1.0799866,1.1163025-1.792984,2.2926025-0.7030029,3.9819031c1.4510193,2.2469177,2.5160217,4.7418823,3.9580078,6.994873
	c1.2089996,1.8909912,1.2859955,3.894043,1.1150055,5.9530029c-0.1990051,2.3990173-1.7210083,3.0760193-3.6020203,1.6560059
	c-2.193985-1.6549988-4.3609772-3.348999-6.5089874-5.0639954c-1.9889984-1.5879822-2.8800049-1.368988-3.6419983,1.0589905
	c-1.0879974,3.4680176-2.1959076,6.9330444-3.1354065,10.4430237c-0.4006958,1.4960022-1.1255035,1.5780029-2.2238007,0.9620056
	c-1.5599976-0.8760071-3.0513-1.8769836-4.6336823-2.7070007c-0.4288177-0.2250061-1.0799255-0.0260315-1.6289062-0.0220032
	c0.1959839,0.5100098,0.2449951,1.2059937,0.6138916,1.4989929c1.5075073,1.1940002,3.0792999,2.315979,4.6932983,3.3639832
	c1.1640167,0.756012,1.553009,1.7050171,1.1222992,2.9850159c-2.0003967,5.947998-0.8208008,6.178009-6.5778809,3.0980225
	c-0.6995087-0.375-1.4108276-0.7270203-2.1166077-1.0900269c-0.1676178,0.1849976-0.3352051,0.3710327-0.5028076,0.5559998
	c1.5585938,1.6410217,2.9212036,3.5599976,4.7342072,4.8410034c1.6212921,1.1459961,1.9154053,2.0779724,0.9784851,3.6819763
	c-0.4037933,0.6910095-0.6300049,1.4850159-0.5977936,2.4330139c0.5917969-0.9889832,1.2846985-1.9329529,1.7493896-2.9789734
	c0.5385132-1.2120056,1.3144073-1.2290039,2.3382263-0.7920227c3.0851898,1.3160095,3.4996796,2.0220032,1.8056946,4.8530273
	c-1.7984924,3.0059814-1.9033203,6.1589661-1.9069061,9.8369446c1.0355988-0.4379883,1.732193-0.8079529,2.4724121-1.0349731
	c4.9698792-1.519989,6.3388824-6.0329895,8.3388824-10.0090027c1.3119965-2.6080017,2.5920105-5.2319641,3.8890076-7.8479919
	c0.3309937-0.7479858,0.5669861-1.2919922,0.5669861-1.3259888c0-0.0679932,2.6800232-6.3320312,4.9180145-11.552002
	c-0.0039978-0.0020142-0.0090027-0.0050049-0.0130157-0.0069885c1.5420074-3.5450134,2.9550018-7.1530151,4.6500092-10.6230164
	c4.1009979-8.3950195,9.3959961-16.0028076,15.6799927-22.9082031c1.1440125-1.2569885,2.4730072-2.3904114,3.8670044-3.3648987
	C130.0449982,66.0140839,130.4700012,64.8845978,129.197998,61.7350922L129.197998,61.7350922z M86.7375946,113.0760956
	c0.6554108,0.7870178,1.3634033,1.54599,1.9024048,2.4089966c0.4640045,0.743988,1.1089935,1.9880066,0.9749908,2.3499756
	c-0.6499939,1.7530212-1.5709839,1.7260132-2.6019897,1.7470093c-1.1986847-0.1939697-1.872406-0.3070068-2.5473022-0.4100037
	c-2.0128937-0.3099976-2.2893829-0.8239746-1.4436951-2.7229614c0.4419861-0.992981,0.8982086-1.9790039,1.3487091-2.9680176
	C85.1367035,111.8000946,85.6056976,111.7150726,86.7375946,113.0760956L86.7375946,113.0760956z M94.2789917,111.4351044
	c-0.1089935,0.4029846-1.3599854,0.8909912-1.8779755,0.7199707c-1.8650208-0.6199951-3.6730194-1.4459839-5.4330139-2.3320007
	c-0.4571075-0.2299805-0.9911957-1.0119934-0.9263916-1.4599609c0.5278015-3.6440125,1.4763947-7.1690063,3.6443939-10.9830322
	c2.1949921,2.6119995,4.7709961,4.6260071,5.7889862,7.2449951
	C96.1950073,106.4780731,94.8890076,109.1720734,94.2789917,111.4351044L94.2789917,111.4351044z M77.4844971,144.1440887
	c-3.1316986,0.7520142-6.3154907,1.4060059-9.3258057,2.5169983c-0.9698944,0.3580322-1.721199,0.7160034-2.2825928,1.0930176
	c2.2916107,0.7980042,4.6416016,1.4679871,7.0422974,2.0079956c0.2202148-0.20401,0.4329071-0.4210205,0.6557922-0.6210327
	c0.587616-0.5289612,1.4580231-0.7439575,2.1991119-1.1029663c0.3297119,0.7810059,0.9971008,1.5910034,0.9326172,2.3389893
	c-0.0030212,0.0350037-0.0124207,0.0820007-0.0170288,0.1200256c2.5032196,0.4079895,5.0532074,0.6729736,7.6440277,0.7839966
	c-0.0410156-0.1690369-0.0930176-0.3320007-0.16362-0.4670105c-0.7212982-1.3770142-1.5461884-2.7009888-2.4369965-4.2250061
	c-1.2250977,0.2249756-2.4004974-0.0400085-2.8060913-1.7960205
	C78.8509979,144.4671173,77.9100952,144.042099,77.4844971,144.1440887L77.4844971,144.1440887z"/>
<radialGradient id="SVGID_4_" cx="114.1991882" cy="97.8950958" r="18.434454" gradientUnits="userSpaceOnUse">
	<stop  offset="0" style="stop-color:#A71E27"/>
	<stop  offset="0.1816989" style="stop-color:#A22228"/>
	<stop  offset="0.4223733" style="stop-color:#932928"/>
	<stop  offset="0.6960651" style="stop-color:#7B2E29"/>
	<stop  offset="0.9923287" style="stop-color:#5D2F2A"/>
	<stop  offset="1" style="stop-color:#5C2F2A"/>
</radialGradient>
<path fill="url(#SVGID_4_)" d="M125.522995,75.1934662c0,0-22.2879944,29.5956421-23.8659821,41.9346313
	c-1.5780182,12.3379822,17.6469879-10.7610168,19.0819855-16.9299927c1.4349976-6.1690063,8.178009-24.9638062,5.4519958-25.1072998
	L125.522995,75.1934662L125.522995,75.1934662z"/>
<radialGradient id="SVGID_5_" cx="77.3207092" cy="85.1087799" r="21.7311878" gradientUnits="userSpaceOnUse">
	<stop  offset="0" style="stop-color:#A71E27"/>
	<stop  offset="0.1816989" style="stop-color:#A22228"/>
	<stop  offset="0.4223733" style="stop-color:#932928"/>
	<stop  offset="0.6960651" style="stop-color:#7B2E29"/>
	<stop  offset="0.9923287" style="stop-color:#5D2F2A"/>
	<stop  offset="1" style="stop-color:#5C2F2A"/>
</radialGradient>
<path fill="url(#SVGID_5_)" d="M94.3609924,79.6490936c-1.3359833-2.4636841-2.2779846-5.1404114-3.417984-7.7120056
	c-0.2929993-0.6603088-0.6850128-1.2766113-1.0720062-1.9885254c-1.8470001,1.4441223-2.0319977,2.993042-1.2680054,4.8752441
	c0.8899994,2.1933899,1.6240082,4.4500732,2.4260101,6.6793823c-0.1760101,0.0993042-0.3510132,0.1985779-0.5270081,0.2980042
	c-1.3199921-1.8356934-2.6699829-3.6509094-3.9550018-5.5106201c-3.3298035-4.8188782-7.7294006-7.5125732-13.112793-8.2172852
	c-0.4211121-0.0657959-0.847702-0.121582-1.286499-0.15448c-0.628006-0.0471191-1.2392883-0.0566101-1.8324127-0.0294189
	c-0.1641846,0.0010071-0.3251953-0.0043945-0.4908905-0.0003052c-1.6239014,0.0413208-2.9794922,0.4164124-4.0650024,1.0994873
	c-5.7939911,2.7730103-8.320694,10.6302185-4.9942017,22.3205261c0.1222992,0.4299927,0.2456207,0.821991,0.3695984,1.1889954
	c0.3868103,3.2409973,2.1327057,6.1400146,3.3413086,9.1389771c1.1414948,2.8330078,2.710495,5.4940186,4.1511078,8.3529968
	c1.6147766-1.4759521,2.9394836-2.743988,4.3284912-3.9379883c0.9824982-0.8429871,0.817215-1.4309998-0.0158997-2.3509827
	c-2.0129089-2.2219849-3.907196-4.552002-5.8330994-6.8520203c0.8295135,0.3280029,1.6596985,0.6550293,2.4559021,1.0500183
	c2.2090912,1.0969849,4.3446045,2.348999,6.5903015,3.3599854c0.5646057,0.2539978,1.6485901,0.0899963,2.1219025-0.315979
	c2.0861969-1.7890015,4.0319824-3.7410278,6.0375977-5.625c1.1005859-1.03302,0.6730957-1.9170227-0.2082062-2.8099976
	c-3.4300842-3.4770203-6.8502045-6.9622192-10.2682037-10.4498901c-0.5130005-0.5235291-0.9949036-1.0774231-1.4911041-1.6173096
	c0.1189117-0.1470032,0.2378082-0.2939148,0.3568115-0.4410095c6.5501862,2.8765259,11.3615875,8.1812134,17.2973022,12.6771851
	c1.3169861-2.1109924,2.4119873-4.3259888,3.9349823-6.1899719C95.8140106,84.1861725,95.7060089,82.1301117,94.3609924,79.6490936
	L94.3609924,79.6490936z M87.1560059,64.3241119c-0.9792023-1.2953186-1.7799072-2.7259216-2.6600952-4.0966187
	c-0.1687927,0.0457764-0.3376007,0.0914917-0.5064087,0.1372986c-0.3716125,2.206604-0.9481964,4.4069214-1.0147858,6.6226807
	c-0.0268097,0.8970337,0.9465942,1.9490051,1.7149811,2.6600952c0.201416,0.1865234,1.3851013-0.567749,2.0360107-1.0101624
	C88.5550079,67.3938141,88.3939972,65.9594879,87.1560059,64.3241119L87.1560059,64.3241119z"/>
<path fill="#A71E27" d="M17.4425964,110.5280914c0.385498-0.3909912,0.6965942-0.8980103,0.8431091-1.4240112
	c0.1786804-0.6419678,0.1340942-1.210968-0.0799255-1.8669739c-0.5636902-1.7270203-2.0760803-2.6289978-3.7226868-2.0910339
	c-0.7993774,0.2610474-1.2065125,0.6940308-1.5031128,1.303009c-0.307373,0.6300049-0.3589783,1.230011-0.4150696,1.7090149
	l-0.134491,1.1060181c-0.0731201,0.6430054-0.1293335,1.1209717-0.3179016,1.5189819
	c-0.2265015,0.4989624-0.5952148,0.7779846-1.0748291,0.9349976c-1.071167,0.3490295-2.3347778,0.0010071-2.8097839-1.4550171
	c-0.1773987-0.5429993-0.2218018-1.1130066,0.0905151-1.7279968c0.2207642-0.4079895,0.6170654-0.8190002,1.1505737-1.0820007
	l-0.6949768-1.0449829c-0.5926208,0.3519897-1.2236938,0.9119873-1.5628967,1.605011
	c-0.4784241,0.9689941-0.3349304,1.894989-0.1053162,2.598999c0.6263733,1.9190063,2.4091797,2.9449768,4.3757019,2.3029785
	c0.767395-0.2509766,1.3179932-0.6779785,1.6844788-1.3979797c0.3018188-0.5920105,0.4017334-1.2619934,0.4699402-1.973999
	l0.1135864-1.1700134c0.0454102-0.4570007,0.0907898-0.9150085,0.3062134-1.3390198
	c0.1777954-0.3759766,0.381073-0.5669861,0.7967834-0.7019958c0.9911804-0.3239746,1.8868103,0.197998,2.2311707,1.2540283
	c0.1984253,0.6069946,0.1158142,1.0589905,0.0238342,1.3190002c-0.1136169,0.3019714-0.355011,0.6469727-0.5958252,0.8849792
	L17.4425964,110.5280914L17.4425964,110.5280914z M10.3999939,119.3630829l7.7449036-3.868988L13.8559875,127.41008
	l10.4819031-5.236969l-0.5549927-1.1110229l-7.7749939,3.8840027l4.2888794-11.9159851l-10.4517822,5.2219849
	L10.3999939,119.3630829L10.3999939,119.3630829z M21.4022827,137.6901093l0.8140259,1.1099854l6.5046082-11.0019836
	l-12.5280151,2.7859802l0.8139954,1.1099854l3.3447876-0.7829895l2.8242188,3.8520203L21.4022827,137.6901093
	L21.4022827,137.6901093z M21.587616,130.6091156l4.7557983-1.1090088l-2.5083923,4.1749878L21.587616,130.6091156
	L21.587616,130.6091156z M32.7378845,133.8900909l-8.0018921,7.8549805l0.8700867,0.8860168l3.4797363-3.4159851
	l0.7661133,0.7809753c1.790863,1.8240051,3.5991516,1.4369812,4.7276917,0.32901
	c0.5042725-0.4949951,1.0715027-1.3340149,0.9989014-2.4150085c-0.0628052-0.9979858-0.6270142-1.7649841-1.416626-2.5690002
	L32.7378845,133.8900909L32.7378845,133.8900909z M32.7695923,135.5990753l0.6482239,0.6610107
	c0.5657043,0.5760193,1.6123657,1.8829956,0.3397827,3.1319885c-0.9244995,0.9070435-2.077301,0.789032-3.1144104-0.2669983
	l-0.7188721-0.7330017L32.7695923,135.5990753L32.7695923,135.5990753z"/>
<path fill="#FFFFFF" d="M43.3466949,146.3710785l1.3241882-1.7359619l-5.9341888-4.5260315l-1.3242798,1.7360229
	l1.9385986,1.4789734l-5.4755249,7.1790161l2.0572205,1.5690308l5.4755096-7.1800232L43.3466949,146.3710785L43.3466949,146.3710785
	z M46.4580841,146.0471039l-5.684082,9.664978l2.2301025,1.3120117l2.2417145-3.8119812l0.368576,5.3469849l2.7232056,1.6010132
	l-0.6425018-5.7030334c0.6124115,0.1850281,1.2606049,0.1770325,1.780899,0.0540161
	c0.9802094-0.2409973,1.5541077-0.9190063,1.9123077-1.5280151c0.6312103-1.0729675,0.6056061-2.0240173,0.4299927-2.6529846
	c-0.207901-0.7070312-0.7369843-1.5640259-1.9695892-2.2890015L46.4580841,146.0471039L46.4580841,146.0471039z
	 M47.6664886,149.0960846l0.5222015,0.3070374c0.2901154,0.1709595,0.8532104,0.5409851,1.0538177,1.0299377
	c0.1032867,0.2560425,0.1938019,0.6990356-0.1302948,1.2500305c-0.2815247,0.4790039-0.6637115,0.6640015-0.9171143,0.730011
	c-0.5989075,0.1549988-1.1755981-0.1260071-1.5818024-0.3640137l-0.5077057-0.2990112L47.6664886,149.0960846
	L47.6664886,149.0960846z M59.0671997,164.7591095l2.5142975,0.9509888l-0.1697845-12.052002l-2.2155151-0.8380127
	l-8.196701,8.8880005l2.5142975,0.9509888l1.5523071-1.6779785l3.9631958,1.4989929L59.0671997,164.7591095L59.0671997,164.7591095z
	 M56.475708,159.3950958l2.636795-3.0299988l-0.043396,4.0109863L56.475708,159.3950958L56.475708,159.3950958z
	 M67.3840027,155.7730865L65.01091,166.7321014l2.528595,0.5469971l0.8327026-3.8450012l1.5457916,0.3349609
	c0.772995,0.1670227,1.9407043,0.3340149,3.0028992-0.3639832c0.503006-0.3379822,1.1955109-0.9959717,1.4947052-2.3769531
	c0.1637878-0.7570496,0.2673035-1.8700256-0.4909058-2.8930054c-0.7030945-0.960022-1.7261963-1.3190308-2.6799927-1.5260315
	L67.3840027,155.7730865L67.3840027,155.7730865z M69.4647064,158.3891144l0.8551025,0.184967
	c0.4933929,0.1069946,1.0253906,0.2740173,1.3253021,0.7180176c0.1967926,0.2829895,0.2793884,0.6969604,0.1796875,1.1569824
	c-0.103302,0.4770203-0.3660889,0.8160095-0.6461945,0.9970093c-0.4965973,0.3049927-1.1086121,0.1900024-1.4539948,0.1149902
	l-0.9045105-0.1959839L69.4647064,158.3891144L69.4647064,158.3891144z"/>
<path d="M87.2910004,163.9030609c0.048996,1.2930298,1.1469879,2.3110352,2.4400024,2.2620239
	c1.2940063-0.0489807,2.3119965-1.1469727,2.2630157-2.4400024c-0.0490112-1.2929993-1.1470184-2.3109741-2.4400177-2.2619934
	C88.2610016,161.5121002,87.2429962,162.6100922,87.2910004,163.9030609L87.2910004,163.9030609z"/>
<path fill="#A71E27" d="M110.8220062,156.1121063c-0.3799896-0.3960266-0.878006-0.7210083-1.3990173-0.882019
	c-0.6369781-0.196991-1.2079926-0.1679993-1.868988,0.0280151c-1.7419891,0.5149841-2.6849976,2.0019836-2.193985,3.6629639
	c0.2389832,0.8060303,0.6599884,1.2250366,1.2609863,1.539032c0.6210022,0.3249817,1.2200012,0.3930054,1.6970062,0.4619751
	l1.1009979,0.1650391c0.6409912,0.0910034,1.1179962,0.1609497,1.5099945,0.3600159
	c0.4919891,0.2409668,0.7620087,0.6169739,0.905014,1.1009521c0.318985,1.0800171-0.0640259,2.3340454-1.5320129,2.7680359
	c-0.5480042,0.1619568-1.1190033,0.1909485-1.7250061-0.138031c-0.4019928-0.2319946-0.8019867-0.6399841-1.0499878-1.1809692
	l-1.0639954,0.6659851c0.3359833,0.6019897,0.8779907,1.2489624,1.5619965,1.6069946
	c0.9539948,0.5050049,1.8849792,0.3869934,2.5939941,0.177002c1.9360046-0.572998,3.0109863-2.3259888,2.423996-4.3099976
	c-0.2290039-0.7740173-0.6409912-1.335968-1.3499908-1.7219849c-0.5850067-0.3190002-1.2509918-0.4370422-1.9609985-0.5250244
	l-1.1660156-0.1459961c-0.4559937-0.0580139-0.9119873-0.1159973-1.3299866-0.3430176
	c-0.3720093-0.1879883-0.5559998-0.3969727-0.6800079-0.815979c-0.29599-1.0000305,0.25-1.881012,1.3150024-2.1960144
	c0.6129913-0.1809692,1.0619965-0.085968,1.3200073,0.013031c0.2989807,0.1219788,0.6359863,0.3729553,0.8669891,0.6199951
	L110.8220062,156.1121063L110.8220062,156.1121063z M119.4329987,163.3050995l-3.8370056-7.7610168l11.8980103,4.3379822
	l-5.1920013-10.5029907l-1.1139984,0.5500183l3.8519897,7.7909851l-11.897995-4.3389893l5.177002,10.473999L119.4329987,163.3050995
	L119.4329987,163.3050995z M137.8710022,152.4881134l1.1150055-0.809021l-10.9690094-6.559021l2.7230225,12.5419922
	l1.1139984-0.8089905l-0.7670135-3.348999l3.8659973-2.8039856L137.8710022,152.4881134L137.8710022,152.4881134z
	 M130.7920074,152.2670746l-1.0860138-4.7609863l4.1630096,2.5290222L130.7920074,152.2670746L130.7920074,152.2670746z
	 M134.197998,141.2121124l7.8119965,8.0429993l0.8910065-0.8660278l-3.3970032-3.4969788l0.7850037-0.7620239
	c1.8339996-1.7819824,1.4560089-3.59198,0.3540039-4.7259827c-0.4920044-0.507019-1.3280029-1.07901-2.4100037-1.0120239
	c-0.9989929,0.0580139-1.7679901,0.6180115-2.5769806,1.4030151L134.197998,141.2121124L134.197998,141.2121124z
	 M135.90802,141.1890717l0.6629791-0.644989c0.5800018-0.5619812,1.8920135-1.6020203,3.1340027-0.3229675
	c0.9029999,0.9289856,0.7789917,2.0809631-0.2830048,3.1129761l-0.7359924,0.7150269L135.90802,141.1890717L135.90802,141.1890717z"
	/>
<path fill="#FFFFFF" d="M146.9819946,130.5990753l-1.696991-1.3739929l-4.6959991,5.7999878l1.696991,1.3740234l1.5340118-1.8950195
	l7.0179901,5.6820068l1.628006-2.0109863l-7.0180054-5.6809998L146.9819946,130.5990753L146.9819946,130.5990753z
	 M146.5709991,127.6780853l9.6390228,5.7289734l1.3209839-2.2239685l-3.8009949-2.2599792l5.3489838-0.3440247l1.6139984-2.7150269
	l-5.7059937,0.6160583c0.1870117-0.61203,0.1820068-1.2600403,0.0619965-1.7810059
	c-0.2369995-0.9810486-0.9120026-1.5580139-1.519989-1.9190063c-1.0700073-0.6360474-2.0210114-0.6149902-2.651001-0.4420471
	c-0.7080078,0.2040405-1.5670013,0.7300415-2.2979889,1.9590454L146.5709991,127.6780853L146.5709991,127.6780853z
	 M149.625,126.4841156l0.3100128-0.5210266c0.1719818-0.2889709,0.5439911-0.8510132,1.0339813-1.0490112
	c0.2570038-0.1019897,0.701004-0.190979,1.2500153,0.1360168c0.4779968,0.2839966,0.6610107,0.6670227,0.7249908,0.9210205
	c0.1529999,0.5989685-0.1300049,1.1749878-0.3710022,1.5799866l-0.3009949,0.506012L149.625,126.4841156L149.625,126.4841156z
	 M165.4369965,115.2031097l0.9600067-2.5110474l-12.053009,0.1270447l-0.8450012,2.2129517l8.8590088,8.2280273l0.9589996-2.5109863
	l-1.6719971-1.559021l1.5130005-3.9579773L165.4369965,115.2031097L165.4369965,115.2031097z M160.0640106,117.7750702
	l-3.0200043-2.6469727l4.0099945,0.0570068L160.0640106,117.7750702L160.0640106,117.7750702z M156.5310059,106.5980988
	l10.8899994,2.67099l0.6159973-2.5119934l-3.8209991-0.9380188l0.3769989-1.5359802
	c0.1880035-0.7680054,0.3870087-1.9309998-0.2819977-3.0119934c-0.3240051-0.5110168-0.9629974-1.2220154-2.3349915-1.5580139
	c-0.7520142-0.184967-1.8620148-0.3190002-2.9060211,0.4110107c-0.9779968,0.6769714-1.3649902,1.6899719-1.5979919,2.63797
	L156.5310059,106.5980988L156.5310059,106.5980988z M159.2030182,104.5900726l0.2079773-0.8499756
	c0.1210022-0.4899902,0.302002-1.0180054,0.7539978-1.3049927c0.2890167-0.1889954,0.7050171-0.2610168,1.1620026-0.1480103
	c0.473999,0.1159973,0.8059998,0.3880005,0.9779968,0.6730042c0.2920074,0.5039978,0.1600037,1.1130066,0.0760193,1.4559937
	l-0.2200165,0.8989868L159.2030182,104.5900726L159.2030182,104.5900726z"/>
<path d="M9.5221863,86.8610687c1.2931213,0.0490112,2.3916016-0.9685669,2.44104-2.2616882
	c0.0493774-1.2931824-0.9683228-2.3916016-2.2614136-2.440979c-1.2930908-0.049408-2.3916321,0.9682007-2.4410095,2.2613831
	C7.2114868,85.7129059,8.2290955,86.8110809,9.5221863,86.8610687L9.5221863,86.8610687z"/>
<path fill="#A71E27" d="M9.3798218,62.0909882c-0.5367126,0.1148987-1.075531,0.3684998-1.4861145,0.7270203
	c-0.5020142,0.4387817-0.7773132,0.939209-0.958313,1.6047974c-0.4768982,1.7530823,0.2924194,3.336792,1.9638062,3.7914734
	c0.8114014,0.2207031,1.3894043,0.0822144,1.9714966-0.2638855c0.6028137-0.3580017,0.9757996-0.8319092,1.2853088-1.2008972
	l0.7192993-0.8504028c0.4142151-0.4974976,0.7237854-0.8666077,1.099823-1.0956116
	c0.4628906-0.2924194,0.9245605-0.3237915,1.411377-0.1912842c1.0872803,0.2957153,1.952179,1.2807007,1.550415,2.7579041
	c-0.150116,0.5518799-0.4257202,1.0521851-1.0243225,1.394989c-0.4082947,0.2196045-0.9656982,0.346283-1.5556946,0.2727966
	l0.0071106,1.2554016c0.6887817,0.0305176,1.5235901-0.0908813,2.1878052-0.4844055
	c0.9313965-0.5467834,1.3200684-1.3999634,1.5143738-2.1141663c0.5298157-1.9480286-0.3974915-3.7838135-2.3934937-4.3268127
	c-0.7789001-0.2119141-1.4734802-0.1573181-2.1750183,0.2434082c-0.5777893,0.3298645-1.0289001,0.8347778-1.4768677,1.3927612
	l-0.73703,0.9153137c-0.2888794,0.3572998-0.5777893,0.7145996-0.9906616,0.9508972
	c-0.3554077,0.2172241-0.6296997,0.2646179-1.0516052,0.1498108c-1.006134-0.2737122-1.4683228-1.201416-1.1769409-2.2727051
	c0.1678162-0.6168823,0.4847412-0.9490967,0.7044373-1.1159973c0.2609863-0.1904907,0.6517944-0.3457031,0.9836121-0.412323
	L9.3798218,62.0909882L9.3798218,62.0909882z M20.1180115,60.4894867l-7.8372192-3.6784973l12.008606-4.0218811
	l-10.606781-4.9784241l-0.5278015,1.1244202l7.8675842,3.692688l-12.008606,4.0220032l10.576416,4.9641113L20.1180115,60.4894867
	L20.1180115,60.4894867z M29.7781982,43.5179901l0.7871094-1.1294861l-12.5144043-2.5944977l6.6901855,10.9524078
	l0.7870178-1.1295166L23.7039795,46.70578l2.730835-3.9187775L29.7781982,43.5179901L29.7781982,43.5179901z M23.0190125,45.6338959
	l-2.5887146-4.1409149l4.7618103,1.0224152L23.0190125,45.6338959L23.0190125,45.6338959z M23.6801147,33.1711884
	l8.1869812,7.6613922l0.8486938-0.9069824l-3.5601807-3.331604l0.7471924-0.7985077
	c1.7468872-1.8667908,1.2832947-3.6569977,0.1285706-4.7374878c-0.5157776-0.4828186-1.3781738-1.0139008-2.4553528-0.8955078
	c-0.9949341,0.1051941-1.7366028,0.7012939-2.5068054,1.5243988L23.6801147,33.1711884L23.6801147,33.1711884z
	 M25.3867188,33.0669861l0.6321716-0.6755981c0.5517883-0.5896912,1.8127136-1.6909027,3.1147156-0.4723969
	c0.9458008,0.8849945,0.8770142,2.0419006-0.134613,3.1228943l-0.7012024,0.7493134L25.3867188,33.0669861L25.3867188,33.0669861z"
	/>
<path fill="#FFFFFF" d="M37.506897,23.0108948l-1.4056091-1.6711121l-5.7114868,4.8040161l1.4057007,1.6710968l1.8657227-1.5693054
	l5.8118744,6.9097137l1.9799957-1.6654053l-5.8118896-6.9096069L37.506897,23.0108948L37.506897,23.0108948z M38.5860138,19.4731903
	l6.1421814,9.3806l2.164505-1.4171906l-2.4224091-3.6995087l4.9558105,2.0406952l2.6430969-1.7305908l-5.3964844-1.9531097
	c0.4372864-0.46698,0.7170868-1.05159,0.838089-1.5722961c0.2180023-0.9857941-0.1347961-1.8005829-0.5219116-2.3917999
	c-0.6819763-1.0415955-1.5454712-1.4402924-2.1874847-1.562088c-0.7257996-0.1270142-1.7283173-0.0327148-2.9247131,0.7505951
	L38.5860138,19.4731903L38.5860138,19.4731903z M41.8546143,19.7422028l0.5067749-0.3319092
	c0.2815094-0.1843109,0.8631134-0.5249023,1.3902283-0.487915c0.275177,0.0209198,0.7128754,0.1365051,1.0630951,0.6714172
	c0.304184,0.4644928,0.3005829,0.8892059,0.2472076,1.145401c-0.1264191,0.6056976-0.633728,0.9981995-1.0279083,1.2563019
	L43.5411987,22.3181L41.8546143,19.7422028L41.8546143,19.7422028z M61.0320892,19.9858856l2.4648285-1.0726929
	l-8.5289154-8.5166931l-2.1719055,0.9451904l0.3271027,12.0859985l2.464798-1.0725861l-0.058197-2.2851105l3.8852081-1.6908112
	L61.0320892,19.9858856L61.0320892,19.9858856z M55.4335022,17.9503937l-0.223999-4.0100098l2.7662964,2.9036102
	L55.4335022,17.9503937L55.4335022,17.9503937z M62.2725067,7.6750946l2.9144897,10.8271942l2.4983215-0.6725006
	l-1.0227203-3.7991943l1.5273132-0.411087c0.7636871-0.2056122,1.878006-0.592514,2.5020905-1.6998138
	c0.2919922-0.530899,0.605896-1.4331055,0.2384949-2.7979126c-0.2010956-0.7472839-0.6193848-1.7840881-1.7623901-2.3461914
	c-1.0651093-0.530899-2.1389008-0.3809967-3.0812988-0.1272888L62.2725067,7.6750946L62.2725067,7.6750946z M65.3209076,9.0462799
	l0.8448944-0.227478c0.4873962-0.1312103,1.0366974-0.2268066,1.5067139,0.0300903
	c0.3048859,0.1618042,0.5679932,0.491806,0.6903839,0.9466858c0.1269073,0.4711151,0.0487061,0.8929138-0.1174927,1.1816101
	c-0.3013153,0.4992981-0.8981018,0.6773987-1.2393188,0.7691956l-0.8935699,0.2406006L65.3209076,9.0462799L65.3209076,9.0462799z"
	/>
<path d="M83.8181152,9.4985809c0.0162811,1.2940063,1.0882874,2.3394012,2.3822937,2.3231201
	c1.2936096-0.0163116,2.3395996-1.0883026,2.3226013-2.382309c-0.0160065-1.2938995-1.0880127-2.3392944-2.3818054-2.3230133
	C84.8471985,7.1325836,83.8017883,8.2046967,83.8181152,9.4985809L83.8181152,9.4985809z"/>
<path fill="#A71E27" d="M108.7380066,8.371994c-0.1299896-0.5334015-0.3980103-1.0650024-0.7679901-1.4656067
	c-0.4520264-0.4897919-0.9600067-0.7511902-1.6300201-0.9138947c-1.7659912-0.4286041-3.3279877,0.3838959-3.7359924,2.0671997
	c-0.1990051,0.8171997-0.0440063,1.391098,0.3170013,1.963501c0.375,0.5927887,0.8589935,0.9524994,1.2359924,1.2518005
	l0.8699951,0.695694c0.5090027,0.4004059,0.8860168,0.699707,1.125,1.0693054
	c0.3050079,0.4547882,0.3490143,0.91539,0.230011,1.4057007c-0.2649994,1.094986-1.2259979,1.9866028-2.7140045,1.6255035
	c-0.5559998-0.134903-1.0629883-0.3966064-1.4229889-0.9857178c-0.2299957-0.4020996-0.371994-0.9556885-0.3150177-1.5474854
	l-1.2549896,0.0415039c-0.0110016,0.6893921,0.1330109,1.5204926,0.5450134,2.1736908
	c0.571991,0.9161072,1.4349823,1.2810974,2.1549835,1.4557037c1.9609985,0.4761963,3.7710114-0.5010986,4.2590027-2.5112915
	c0.1900024-0.7845154,0.1170044-1.4773102-0.3029938-2.1676025c-0.3460083-0.5684052-0.8630066-1.0055084-1.4329987-1.4380951
	l-0.9349976-0.7116089c-0.3650055-0.2789154-0.730011-0.5579071-0.9780121-0.9641113
	c-0.227005-0.3492889-0.2819824-0.6221924-0.1779938-1.0470886c0.2460022-1.0132904,1.1599884-1.5007935,2.2389984-1.2388916
	c0.6210022,0.1507874,0.9620056,0.4584961,1.1349945,0.6734924c0.1980133,0.2556915,0.3639984,0.6419983,0.4390106,0.9718933
	L108.7380066,8.371994L108.7380066,8.371994z M110.654007,18.9732971l3.2599945-8.020401l4.6499939,11.7796021l4.4120026-10.8546906
	l-1.151001-0.4677124l-3.2720032,8.0514984l-4.6499939-11.7796021l-4.3999939,10.8235931L110.654007,18.9732971
	L110.654007,18.9732971z M128.076004,27.7948914l1.1699982,0.7263031l1.9290009-12.6340942l-10.5839996,7.2599945
	l1.1699982,0.7261963l2.8110046-1.9754944l4.0569916,2.5198059L128.076004,27.7948914L128.076004,27.7948914z
	 M125.6060028,21.1569824l3.9980164-2.8040924l-0.7690125,4.8093109L125.6060028,21.1569824L125.6060028,21.1569824z
	 M138.0500031,21.2075958l-7.2180023,8.5807953l0.9510193,0.7995148l3.1389771-3.7315216l0.8359985,0.70401
	c1.9570007,1.6457062,3.7200012,1.0879974,4.7380066-0.1222076c0.4550018-0.5406952,0.9400024-1.4298859,0.7649994-2.4994049
	c-0.1580048-0.9878845-0.792984-1.6970825-1.6549835-2.422699L138.0500031,21.2075958L138.0500031,21.2075958z
	 M138.2440186,22.9062042l0.7079773,0.5955811c0.6179962,0.5199127,1.7850037,1.7207184,0.6370087,3.0852966
	c-0.8339996,0.9914093-1.9930115,0.9839172-3.1260071,0.0309143l-0.7849884-0.6607056L138.2440186,22.9062042
	L138.2440186,22.9062042z"/>
<path fill="#FFFFFF" d="M148.8930054,34.5133057l1.5950012-1.4921112l-5.1000061-5.4493103l-1.5939941,1.4921112
	l1.6660004,1.7801056l-6.5930023,6.169281l1.7680054,1.8890076l6.5929871-6.1692963L148.8930054,34.5133057L148.8930054,34.5133057z
	 M152.6790161,35.5996857l-9.1990204,6.4105988l1.4790039,2.1226196l3.628006-2.5282135l-1.8970032,5.0126953l1.8059998,2.5918884
	l1.7969971-5.4505768c0.4790039,0.4235992,1.0720215,0.6864777,1.595993,0.7922974
	c0.9910278,0.1894989,1.7950134-0.1867065,2.375-0.5907135c1.0220032-0.7118835,1.3950043-1.5864868,1.4980011-2.2316895
	c0.1060028-0.7292023-0.0169983-1.7286072-0.8339996-2.9017944L152.6790161,35.5996857L152.6790161,35.5996857z
	 M152.5039978,38.8746948l0.3470001,0.496994c0.1920166,0.2760925,0.548996,0.8475952,0.5279999,1.3755188
	c-0.0129852,0.2756805-0.1159973,0.7164764-0.6409912,1.082077c-0.4550018,0.3173981-0.8800049,0.3262177-1.1380005,0.2801056
	c-0.6090088-0.1088104-1.0160065-0.604599-1.2850037-0.9911957l-0.3370056-0.4832001L152.5039978,38.8746948L152.5039978,38.8746948
	z M153.052002,57.9188995l1.201004,2.4047852l8.0549927-8.9667053l-1.0590057-2.1188965l-12.0519867,0.9645996l1.2019958,2.4048157
	l2.2789917-0.1788025l1.8930054,3.7904968L153.052002,57.9188995L153.052002,57.9188995z M154.7890015,52.2206879
	l3.9929962-0.4354248l-2.7539825,2.9157104L154.7890015,52.2206879L154.7890015,52.2206879z M165.506012,58.7812958
	l-10.7430115,3.2124023l0.7409973,2.4787903l3.7700043-1.1271973l0.4530029,1.5152893
	c0.2260132,0.7577209,0.6439972,1.8609924,1.7679901,2.4541931c0.5390015,0.2773132,1.4490051,0.5661011,2.8040009,0.1611938
	c0.7409973-0.2216797,1.7660065-0.6684875,2.2960052-1.8265686c0.5010071-1.0791931,0.321991-2.1484985,0.0419922-3.0835266
	L165.506012,58.7812958L165.506012,58.7812958z M164.2189941,61.8663788l0.2510071,0.8383179
	c0.1439972,0.4836731,0.2550049,1.0300903,0.0110016,1.506897c-0.1529999,0.3093872-0.4750061,0.5813904-0.9269867,0.7164001
	c-0.4670105,0.1397705-0.8910065,0.0733032-1.1840057-0.0848999c-0.5080109-0.287323-0.7019958-0.8789978-0.803009-1.2174988
	l-0.2660065-0.8866882L164.2189941,61.8663788L164.2189941,61.8663788z"/>
<path d="M164.4680023,80.1944733c-1.2910004,0.0823059-2.2810059,1.2062988-2.197998,2.4977112
	c0.0820007,1.2915039,1.2060089,2.2807922,2.496994,2.1984863c1.2920227-0.0821838,2.2810059-1.2062073,2.1990051-2.4975891
	C166.8829956,81.1016083,165.7599945,80.1123199,164.4680023,80.1944733L164.4680023,80.1944733z"/>
</svg>
