<?xml version="1.0" encoding="utf-8"?>
<!-- Generator: Adobe Illustrator 21.1.0, SVG Export Plug-In . SVG Version: 6.00 Build 0)  -->
<svg version="1.1" id="Layer_1" xmlns="http://www.w3.org/2000/svg" xmlns:xlink="http://www.w3.org/1999/xlink" x="0px" y="0px"
	 viewBox="0 0 150.5 149.678299" style="enable-background:new 0 0 150.5 149.678299;" xml:space="preserve">
<style type="text/css">
	.st0{fill:url(#SVGID_1_);}
	.st1{fill:url(#SVGID_2_);}
	.st2{fill:url(#SVGID_3_);}
	.st3{fill:url(#SVGID_4_);}
	.st4{fill:url(#SVGID_5_);}
</style>
<radialGradient id="SVGID_1_" cx="75.2794647" cy="77.16716" r="66.2485504" gradientTransform="matrix(1 0 0 -1 0 152)" gradientUnits="userSpaceOnUse">
	<stop  offset="0" style="stop-color:#ABA6A6"/>
	<stop  offset="0.1245455" style="stop-color:#A49F9F"/>
	<stop  offset="0.2894997" style="stop-color:#908B8B"/>
	<stop  offset="0.4771342" style="stop-color:#736E6E"/>
	<stop  offset="0.6799315" style="stop-color:#4F4C4C"/>
	<stop  offset="0.8804487" style="stop-color:#2C2B2B"/>
</radialGradient>
<path class="st0" d="M75.2789917,141.0813904c36.5880127,0,66.2490234-29.6609802,66.2490234-66.2489929
	c0-36.5877075-29.6610107-66.2481079-66.2490234-66.2481079c-36.5876923,0-66.2480774,29.6604004-66.2480774,66.2481079
	C9.0309143,111.4204102,38.6912994,141.0813904,75.2789917,141.0813904L75.2789917,141.0813904z"/>
<radialGradient id="SVGID_2_" cx="72.4236984" cy="74.0407944" r="56.788044" gradientTransform="matrix(1 0 0 -1 0 152)" gradientUnits="userSpaceOnUse">
	<stop  offset="0" style="stop-color:#FDDD10"/>
	<stop  offset="0.3416312" style="stop-color:#FADA15"/>
	<stop  offset="0.5718433" style="stop-color:#F1D01E"/>
	<stop  offset="0.7691916" style="stop-color:#E2C128"/>
	<stop  offset="0.9469807" style="stop-color:#CEAD30"/>
	<stop  offset="1" style="stop-color:#C6A632"/>
</radialGradient>
<path class="st1" d="M123.1710052,39.3727112c-0.1919861-0.0501404-0.3789978,0.0353088-0.54599,0.1656799
	c-0.5470123,0.4577026-0.8590088,1.3227844-1.1040039,2.0545959c-0.6860046,2.0476074-1.2680054,4.1296082-1.8919983,6.1980896
	c-2.9850006-7.5461731-2.6710052-15.6317902-4.4900055-23.3210754c-0.1269989-0.1001129-0.2539825-0.201004-0.3820038-0.3002014
	c-1.2429962,7.4338989,0.6419983,14.731781,1.026001,22.5648804c-0.6629944-0.8995972-1.121994-1.4313049-1.4809875-2.0239868
	c-3.1060028-5.1356812-5.6090088-10.5325012-7.3399963-16.3026123c-0.5140076-1.7161865-1.5920105-3.2635956-2.4120178-4.8883057
	c-0.2359924,0.1045074-0.4720001,0.2093201-0.7079926,0.3139191c0.7649994,3.4723053,1.2680054,7.0297089,2.3609924,10.3955078
	c1.3530273,4.1663055,3.1450043,8.1955109,4.858017,12.2364044c0.5289917,1.2450867,0.8130035,2.1358032-0.6990051,2.8200684
	c-1.5359955,0.6952209-1.9230042-0.3613892-2.4159851-1.3901978c-2.9960175-6.2545776-6.0010223-12.5044861-9.0050201-18.7553864
	c-0.9749908-2.0290985-1.9539948-4.0563965-2.9319916-6.0845032c-0.3050079,0.0944977-0.6110077,0.188797-0.9160004,0.2832031
	c0.526001,2.6472015,0.6230011,5.4788971,1.6649933,7.9047852c2.4869995,5.7889252,5.4600067,11.3669281,8.154007,17.0691071
	c1.3959961,2.954895,1.1859894,3.3601074-2.0009918,5.2456055c-5.0260162-9.189209-10.0520172-18.3809052-15.0790253-27.5724945
	c-0.2339935,0.0885925-0.4689789,0.1772919-0.7039948,0.265976c0.7210083,2.5337219,1.053009,5.2680206,2.2369995,7.5627289
	c3.3360138,6.4654999,7.0390015,12.7345123,9.2470093,19.7344818c0.6779938,2.1496887,0.5549927,2.4830017-2.1580048,3.9818115
	c-1.7319946,0.956604-2.1609955-0.3210144-2.7860107-1.3611145c-3.3600006-5.5925903-6.687973-11.2048645-10.0809937-16.77771
	c-0.9659882-1.5865479-2.1109924-3.06427-3.173996-4.5918884c-0.1539917,0.0778046-0.3089905,0.1557159-0.4640045,0.2336121
	c0.1349945,0.4921875,0.2030029,1.0144043,0.4129944,1.4718018c2.977005,6.4862976,5.9190063,12.9894714,8.9870148,19.4329834
	c1.6789856,3.5256958,1.7059937,3.4168091-0.7230072,6.2473145c-1.0679932,1.2440186-1.7750092,2.7965088-2.7980042,4.4551697
	c-1.5849762-3.0863647-2.8879852-6.0421753-4.5699768-8.7631836c-1.3150177-2.1271973-1.655014-3.9708862-0.0450134-6.0041809
	c0.2579956-0.3251038,0.3170013-0.8075256,0.6849976-1.8066101c-1.3400116,1.0649109-2.1890106,1.7402344-3.1439972,2.4997864
	c-0.6609955-0.9781799-1.0720062-1.8892822-1.7420044-2.5310974c-3.911087-3.7464905-4.6221924-8.0567932-2.8172913-13.0871887
	c0.4881897-1.3607178,0.0739899-3.045105,0.0739899-4.5809937c-0.1495972-0.0059204-0.2989807-0.0118866-0.4483948-0.0176849
	c-0.8103943,2.8684845-1.6208038,5.7369537-2.5276031,8.9466705c-1.413208-1.292572-2.5693054-2.3501892-3.7254944-3.4077759
	c0.5559845,2.8635864,2.3530884,5.464386,2.2206116,7.9628906c-0.1354065,2.5531006-2.1641083,5.0057983-3.3639069,7.5024109
	c-0.3207092,0.0003662-0.6416016,0.0007019-0.9624023,0.0009766c-0.5953979-1.128479-1.6627083-2.243988-1.6940041-3.3878784
	c-0.0803986-2.9396362,0.179184-5.9056091,0.5206947-8.8357849c0.5814972-4.9898987,1.4087982-9.9516296,1.9650116-14.9439392
	c0.191391-1.7200928-0.1186066-3.4960785-0.1995087-5.2464752c-0.2512054,0.0018921-0.5023041,0.0037842-0.7536011,0.0056915
	c-0.2115021,0.8388062-0.5028839,1.6664886-0.6215973,2.5182037c-0.7413063,5.3164978-1.3333931,10.6565857-2.2099037,15.9498138
	c-0.3867035,2.334259-1.2371979,4.6094666-2.0612946,6.843689c-0.2843018,0.7701721-1.1271973,1.3344116-1.7148132,1.9926758
	c-0.6290894-0.8678894-1.3770905-1.6774902-1.8421783-2.6260071c-0.2781219-0.5669861-0.1416168-1.3512878-0.1425171-2.0379639
	c-0.0101929-7.3720093,0.0625916-14.7453308-0.0649109-22.1151123c-0.0323792-1.8670044-0.6947784-3.7229004-1.067688-5.583909
	c-0.3474121,0.0426025-0.6946106,0.0850983-1.0418854,0.127717c0,4.73909,0.1477814,9.483902-0.0375061,14.2156982
	c-0.2314148,5.9134064-0.7039948,11.8186798-1.1814117,17.7188873c-0.0413971,0.5122986-0.8937988,0.9588928-1.3694,1.4361267
	c-0.6397095-0.7351379-1.7046967-1.3945007-1.8512878-2.2174377c-1.1088104-6.2279663-1.9225922-12.5093842-3.0709076-18.7293701
	c-0.5682068-3.0777283-1.6490936-6.0607147-2.4980011-9.0866089c-0.6660004,0.3283997-0.8034973,0.502594-0.8099976,0.6813965
	c-0.0322113,0.8939056-0.1403046,1.8036041-0.0227051,2.6811066c1.0214996,7.6248932,1.9925995,15.2586823,3.1837158,22.8575897
	c0.4654999,2.9692993,0.8862915,5.781311-0.3413086,8.7002869c-0.4609985,1.0962219-0.9328156,2.028717-2.0155029,1.8475037
	c-0.7021942-0.1174927-1.4845123-1.0169067-1.8382111-1.754303c-2.7611847-5.7574768-5.4112854-11.5683899-8.1422729-17.3405762
	c-0.3442993-0.7272034-0.9602051-1.3258057-1.4501038-1.984024c-0.1684113,0.0847015-0.3365936,0.1693115-0.5050201,0.2541199
	c0.1627045,0.9121857,0.3269196,1.824295,0.4877014,2.7368927c1.0402985,5.9026184,3.6889954,11.2082214,6.3392029,16.4750061
	c1.3656158,2.7142029,1.6339111,5.497406,1.5890045,8.3794861c-0.0116119,0.7384949-0.5319061,1.5135193-0.9496918,2.1907959
	c-0.6307068,1.0222168-1.2840118,1.1242981-1.9620972-0.0625c-2.6891022-4.7063904-5.6326141-9.260498-7.2830048-14.5142822
	c-0.9908142-3.153717-2.4340057-6.1651917-3.6737976-9.2406921c-0.218811,0.039093-0.4377289,0.0780945-0.6565094,0.1169739
	c-0.0661011,0.7591248-0.2838898,1.5426331-0.1655884,2.2717285c0.2191925,1.3501892,0.5659027,2.6904907,0.9817963,3.9958801
	c1.2266846,3.849823,2.22229,7.8096924,3.8509827,11.4860229c1.9698944,4.4466858,4.5142975,8.6373901,6.7717133,12.9588013
	c0.9467926,1.8125916,1.4366913,3.7171631,0.8146057,6.3841858c-1.7140045-1.6369934-3.2929993-2.7200012-4.3080292-4.191925
	c-3.3128815-4.8039856-6.4172668-9.7515869-9.6099854-14.6386719c-0.3869934-0.5924072-0.8236084-1.1524963-1.2370911-1.727478
	c-0.1582031,0.0861816-0.3164062,0.1723633-0.474823,0.2585754c0.9981384,5.2627869,1.7838135,10.57901,5.8919067,14.6897888
	c2.3338165,2.3356934,4.5700989,4.7796936,6.7075195,7.2967224c2.0332031,2.3939819,3.7321014,5.0090027,3.6984863,8.8129883
	c-0.7960968-0.6660156-1.2846832-1.1019897-1.8002014-1.5029907c-3.514679-2.7340088-6.9768982-5.5410156-10.5808868-8.1520081
	c-1.5529022-1.125-3.4199066-1.756012-5.5509796-1.131012c0.1571655,0.4230042,0.4910583,0.5500183,0.7436829,0.769989
	c5.4438019,4.7470093,10.9386902,9.4380188,16.2753906,14.303009c1.4347076,1.3070068,2.3829956,3.1489868,3.5545959,4.7460022
	c-0.1858978,0.1700134-0.3717041,0.3400269-0.5574951,0.5100098c-3.279007-1.822998-6.5657043-3.6329956-9.8342896-5.4750061
	c-2.1076202-1.1870117-4.2461243-0.6430054-6.4144135-0.3590088c0.2484131,0.4219971,0.5382996,0.5709839,0.8189087,0.7349854
	c4.617981,2.7080383,9.2586975,5.3770447,13.841095,8.1440125c2.232193,1.3470154,2.7675934,3.7700195,3.9397888,6.3009949
	c-4.1590881-0.8789978-7.4676971-3.4049988-11.9525909-2.2979736c1.0797882,0.6119995,1.7711945,1.0010071,2.4595947,1.3939819
	c3.0930939,1.7700195,6.1936035,3.526001,9.2681122,5.3269958c0.4527893,0.2650452,1.0741882,0.7110291,1.1198883,1.1279907
	c0.3374023,3.0820312,3.0641022,4.0420532,4.9687958,5.6940308c1.2974243,1.125,2.8830109,1.1539917,4.6299133,1.1319885
	c2.3919983-0.0300293,4.7984009,0.6279907,7.1861115,1.0610046c0.6230774,0.1130371,1.1993866,0.4849854,1.7971802,0.7379761
	c0.1391907-0.1319885,0.2785034-0.26297,0.4177094-0.3949585c-0.0680084-0.7150269-0.4745941-1.4630127-0.9678955-1.7420044
	c-2.1285095-1.2050476-4.2808075-2.4420166-6.5697174-3.2620239c-1.6234894-0.5820007-2.9552002-0.9869995-3.5876923-2.8659973
	c-1.7470856-5.1900024-3.8092957-10.2740173-5.5205994-15.4739685c-3.0799103-9.3600464-4.5818024-18.9710083-4.0229034-28.8526306
	c0.1651917-2.9241638,2.0985107-7.0081787,3.9279938-8.2079773c-3.0442963,7.1376953-3.5789948,14.4645691-2.0695801,21.8995972
	c1.1725922,5.7749939,2.3933868,11.5709839,4.129303,17.1919861c1.3474731,4.3640137,3.4025879,8.5290222,5.3778839,12.6700134
	c1.1242065,2.3559875,2.4281006,2.6659546,4.9382019,2.2659912c0.967804-0.1539917,2.0236053,0.0540161,3.0085144,0.25
	c1.1614838,0.2319946,2.2895851,0.6300049,3.5213966,0.9819946c-0.1307068,0.3000183-0.4093018,0.6629944-0.4320068,1.0409851
	c-0.125,2.0820007-0.9667053,4.6340027-0.0700989,6.131012c1.0702972,1.7879944,0.371994,2.5119934-0.623703,3.1020203
	c-2.9384956,1.742981-5.8634987,3.894989-9.0869942,4.6759949c-2.6667023,0.6459961-4.6756134,1.6369934-6.1393127,3.2900085
	c1.4276123,0.6169739,2.8840179,1.177948,4.3627014,1.6929932c0.5613937-0.3770142,1.3126984-0.7349854,2.2825928-1.0930176
	c3.0103149-1.1109924,6.1941071-1.7649841,9.325901-2.5169983c0.4255066-0.1029968,1.3665161,0.3230286,1.4416199,0.6489868
	c0.4055939,1.756012,1.5809937,2.0209961,2.8060913,1.7960205c0.8908081,1.5240173,1.7156067,2.8479919,2.4369049,4.2250061
	c0.0706024,0.1350098,0.1226044,0.2979736,0.1635895,0.4670105c0.9362946,0.039978,1.8751221,0.0710144,2.8211975,0.0710144
	c0.9780121,0,1.9480133-0.0310364,2.9150085-0.0730286c-0.2539978-0.3120117-0.5329895-0.605011-0.8559875-0.8559875
	c-2.0400085-1.5809937-4.196106-3.0110168-6.41362-4.5880127c0.5756073-1.1280212,1.369812-2.4129944,1.9052124-3.7969971
	c0.7736969-2.0020142,2.0015869-2.8919983,4.2294006-2.7030029c2.1139832,0.1789856,4.04599-0.4710083,5.5829926-2.1220093
	c7.5950012-8.1570129,15.2330017-16.2749939,22.8270111-24.4330139c2.105011-2.2609863,4.6579895-4.3269653,6.0389862-6.9849854
	c2.072998-3.9890137,3.7660065-8.3140259,4.7600098-12.6910095c1.3649902-6.0130005,1.8079987-12.2283936,2.8580017-18.3208008
	c1.3430023-7.7952576,2.8840027-15.5567627,4.345993-23.3315735
	C123.404007,39.7767944,123.381012,39.4277039,123.1710052,39.3727112L123.1710052,39.3727112z M89.6820221,105.8063965
	c1.5779877-12.3389893,23.8659821-41.9346313,23.8659821-41.9346313l0.6679993-0.1026611
	c2.7260132,0.1434937-4.0179901,18.9382935-5.4519958,25.1072998
	C107.32901,95.0453796,88.1040039,118.1443787,89.6820221,105.8063965L89.6820221,105.8063965z M74.7506104,57.3156128
	c-0.6508026,0.4423828-1.8344879,1.1968994-2.0359039,1.0101624c-0.7683868-0.7110901-1.7418976-1.76297-1.7149048-2.6600037
	c0.0665131-2.2157593,0.6430969-4.4160767,1.0147095-6.6226807c0.168808-0.0458069,0.3374939-0.0915833,0.5064087-0.1372986
	c0.8802948,1.3706055,1.6808929,2.8013,2.6600952,4.0966187C76.4179993,54.6377869,76.5800171,56.072113,74.7506104,57.3156128
	L74.7506104,57.3156128z M81.9589996,75.1654053c-1.522995,1.8639832-2.6179962,4.0789795-3.9349823,6.1899719
	c-5.9357147-4.4959717-10.7470093-9.8006592-17.2973061-12.6771851c-0.1190033,0.1470947-0.2378998,0.2940063-0.3568115,0.4408875
	c0.4962006,0.5400085,0.9780121,1.093811,1.4911041,1.6174316c3.4180031,3.4876709,6.8381996,6.9728699,10.2683144,10.4498901
	c0.8812866,0.8929749,1.3086853,1.7769775,0.2080994,2.8099976c-2.0056152,1.8839722-3.9514008,3.8359985-6.0375977,5.625
	c-0.4733124,0.4059753-1.5572968,0.5699768-2.1219025,0.315979c-2.2457008-1.0109863-4.3812141-2.2630005-6.5903053-3.3599854
	c-0.7960968-0.3959961-1.6263885-0.7220154-2.4558105-1.0500183c1.9258118,2.3010254,3.8202209,4.6300354,5.8330078,6.8520203
	c0.8331146,0.9199829,0.9983978,1.5079956,0.0158997,2.3509827c-1.3891144,1.1940002-2.7137146,2.4620361-4.3284912,3.9379883
	c-1.440506-2.8589783-3.009613-5.519989-4.1512146-8.3529968c-1.2084961-2.9989624-2.9543915-5.8979797-3.3410797-9.1389771
	c-0.1240997-0.3670044-0.2474213-0.7590027-0.3697205-1.1889954c-3.3264923-11.6903076-0.7997894-19.5476074,4.9942017-22.3205261
	c1.0855103-0.683075,2.4411011-1.0581665,4.0650024-1.0994873c0.1656952-0.0040894,0.3267059,0.0012207,0.4908905,0.0002136
	c0.5931244-0.0270996,1.2043152-0.0176086,1.8324127,0.0295105c0.438797,0.0328979,0.865387,0.0886841,1.286499,0.15448
	c5.3833961,0.7047119,9.7829933,3.398407,13.1127968,8.2172852c1.2850189,1.8597107,2.6350098,3.6750183,3.9550018,5.5106201
	c0.1759949-0.0995178,0.3509979-0.1987915,0.5270081-0.2980042c-0.802002-2.2293091-1.5360107-4.4859924-2.4260101-6.6793823
	c-0.7639923-1.8823242-0.5789948-3.4309998,1.2680054-4.8752441c0.3869934,0.7119141,0.779007,1.3282166,1.0720062,1.9885254
	c1.1399994,2.5715942,2.0820007,5.2481995,3.417984,7.7120056C83.7310181,70.8084106,83.8390198,72.8644714,81.9589996,75.1654053
	L81.9589996,75.1654053z M115.3070068,56.623291c-1.3939972,0.9744873-2.7229919,2.1079102-3.8670044,3.3648987
	c-6.2839966,6.9053955-11.5799866,14.5131836-15.6799927,22.9082031c-1.6950073,3.4700012-3.1080017,7.0780029-4.6500092,10.6230164
	c0.0040131,0.0019836,0.0090179,0.0049744,0.0130157,0.0069885c-2.2379913,5.2199707-4.9180145,11.4840088-4.9180145,11.552002
	c0,0.0339966-0.2359924,0.5780029-0.5669861,1.3259888c-1.2969971,2.6160278-2.5770111,5.2399902-3.8890076,7.8479919
	c-2.0009918,3.9760132-3.3690033,8.4890137-8.3388824,10.0090027c-0.7402191,0.2270203-1.4368134,0.5969849-2.4725189,1.0349731
	c0.0036926-3.6779785,0.1083984-6.8309631,1.9070129-9.8369446c1.693985-2.8310242,1.2794952-3.5370178-1.8056946-4.8530273
	c-1.023819-0.4369812-1.7997131-0.4199829-2.3382263,0.7920227c-0.4646912,1.0460205-1.157486,1.9899902-1.7493896,2.9789734
	c-0.0322113-0.947998,0.1940002-1.7420044,0.5977936-2.4330139c0.9369202-1.6040039,0.642807-2.5359802-0.9784851-3.6819763
	c-1.8130951-1.2810059-3.1757088-3.1999817-4.734211-4.8410034c0.1676025-0.1859741,0.3351898-0.3710022,0.5027161-0.5559998
	c0.7058716,0.3630066,1.4171906,0.7150269,2.116703,1.0900269c5.7570801,3.0799866,4.5773926,2.8499756,6.5778809-3.0980225
	c0.4307098-1.2799988,0.0417175-2.2290039-1.1223907-2.9850159c-1.6139069-1.0480042-3.1856079-2.1699829-4.6932068-3.3639832
	c-0.3688965-0.2929993-0.4179077-0.9889832-0.6138916-1.4989929c0.5490875-0.0040283,1.2001953-0.2030029,1.6289062,0.0220032
	c1.5823822,0.8300171,3.0735931,1.8309937,4.6336823,2.7070007c1.0984039,0.6159973,1.822998,0.5339966,2.2238007-0.9620056
	c0.9396057-3.5099792,2.0474091-6.9750061,3.1354065-10.4430237c0.7619934-2.4279785,1.6519928-2.6469727,3.6419983-1.0589905
	c2.1480103,1.7149963,4.3150024,3.4089966,6.5089874,5.0639954c1.881012,1.4200134,3.4030151,0.7430115,3.6020203-1.6560059
	c0.17099-2.05896,0.0939941-4.0620117-1.1150055-5.9530029c-1.4419861-2.2529907-2.5069885-4.7479553-3.9580078-6.994873
	c-1.0899811-1.6894226-0.3769836-2.8656006,0.7030029-3.9819031c0.2250061-0.2327881,1.3190155-0.096283,1.5200043,0.2018738
	c0.7619934,1.1332092,1.2290039,2.4631958,1.9799957,3.6062317c1.0780029,1.6407166,2.2279968,3.2496948,3.5019989,4.7406921
	c0.7360077,0.8619995,1.4689941,0.6839905,2.0169983-0.4799805c1.2229919-2.5980225,2.2600098-5.1972351,1.1940002-8.0991211
	c-0.8479919-2.3106079-1.6959991-4.6268921-2.6859894-6.8786926c-1.098999-2.5014038-0.8790131-3.0101013,1.9329834-3.4970093
	c1.3420105,2.3664246,2.6260071,4.788208,4.0839996,7.1000061c0.3970032,0.6289978,1.7980194,1.4172058,1.9220123,1.2962952
	c0.7659912-0.7478027,1.8999939-1.8117981,1.7949982-2.6271057c-0.2999878-2.333374-1.0110016-4.6412964-1.792984-6.8773804
	c-0.7930145-2.263916-0.6700134-2.7653198,1.845993-3.7000122c1.3320007,1.9944153,0.7769928,5.2028198,4.0870056,5.742981
	c0.969986-1.6411743,1.3279877-3.2849731,0.667984-5.1221924c-0.298996-0.8325806-0.6309814-1.7574768-0.5339813-2.5925903
	c0.0670013-0.5748901,0.766983-1.2075195,1.3429871-1.5254822c0.2200165-0.1213074,1.0220032,0.4689636,1.3159943,0.9005737
	c0.5639954,0.8276978,0.9530029,1.7738037,1.4299927,2.700531c2.951004-1.2202148,2.9240112-3.3050232,1.8180237-5.6725159
	c1.0889893-0.504303,1.9299774-0.8935852,2.9129791-1.3485107c0.4770203,1.0534058,0.9020081,1.9091187,1.2590027,2.7922058
	C118.4950104,53.5628967,118.0700073,54.6923828,115.3070068,56.623291L115.3070068,56.623291z M82.303009,100.1134033
	c0.6110077-2.263031,1.9170074-4.9570312,1.196991-6.8100281c-1.0179901-2.618988-3.5939941-4.6329956-5.7889862-7.2449951
	c-2.1679993,3.8140259-3.1165924,7.3390198-3.6445007,10.9830322c-0.0646973,0.4479675,0.4693909,1.2299805,0.9264984,1.4599609
	c1.7590027,0.8860168,3.5679932,1.7109985,5.4330139,2.3320007
	C80.9440155,101.0043945,82.1950073,100.5163879,82.303009,100.1134033L82.303009,100.1134033z M72.3956146,102.1593933
	c-0.4503937,0.9890137-0.9066925,1.9750366-1.3486938,2.9680176c-0.8455963,1.8989868-0.5691071,2.4129639,1.4438934,2.7229614
	c0.6747894,0.1029968,1.3485107,0.2160339,2.5471954,0.4100037c1.0310059-0.0209961,1.951004,0.006012,2.6019897-1.7470093
	c0.1340027-0.361969-0.5109863-1.6059875-0.9749908-2.3499756c-0.5390015-0.8630066-1.246994-1.6219788-1.9024048-2.4089966
	C73.6307068,100.3933716,73.1617126,100.4783936,72.3956146,102.1593933L72.3956146,102.1593933z M61.5991936,137.8193665
	c-0.2228851,0.2000122-0.4355774,0.4170227-0.6557922,0.6210327c1.2445984,0.2789917,2.5,0.5289917,3.7704964,0.7350159
	c0.004715-0.0380249,0.0140076-0.085022,0.0170288-0.1210022c0.0644836-0.7470093-0.6029053-1.5570068-0.9325142-2.3380127
	C63.0573082,137.0754089,62.1868095,137.2904053,61.5991936,137.8193665L61.5991936,137.8193665z"/>
<radialGradient id="SVGID_3_" cx="85.9042969" cy="58.2097015" r="39.7227364" gradientTransform="matrix(1 0 0 -1 0 152)" gradientUnits="userSpaceOnUse">
	<stop  offset="0" style="stop-color:#A71E27"/>
	<stop  offset="0.1816989" style="stop-color:#A22228"/>
	<stop  offset="0.4223733" style="stop-color:#932928"/>
	<stop  offset="0.6960651" style="stop-color:#7B2E29"/>
	<stop  offset="0.9923287" style="stop-color:#5D2F2A"/>
	<stop  offset="1" style="stop-color:#5C2F2A"/>
</radialGradient>
<path class="st2" d="M117.2230072,50.4133911c-0.3569946-0.8830872-0.7819824-1.7388-1.2590027-2.7922058
	c-0.9830017,0.4549255-1.8239899,0.8442993-2.9129791,1.3486328c1.1059875,2.3673706,1.1329803,4.452179-1.8180237,5.6724854
	c-0.4769897-0.9268188-0.8659973-1.8729248-1.4299927-2.7006226c-0.2939911-0.4316101-1.0959778-1.0218811-1.3159943-0.9005737
	c-0.576004,0.3179626-1.2759857,0.950592-1.3429871,1.5254822c-0.0970001,0.8351135,0.2349854,1.7600098,0.5339813,2.5925903
	c0.6600037,1.8372192,0.302002,3.4810181-0.6670074,5.1221924c-3.3109894-0.5400696-2.7549896-3.7486877-4.0869904-5.7428894
	c-2.5169983,0.9346924-2.6399994,1.4360046-1.8469849,3.6999207c0.7819824,2.236084,1.4929962,4.5440063,1.792984,6.8773804
	c0.1049957,0.8153076-1.029007,1.879303-1.7949982,2.6271057c-0.1239929,0.1210022-1.5250092-0.6672974-1.9220123-1.2962036
	c-1.4579926-2.3118896-2.7419891-4.7336731-4.0839996-7.1000977c-2.8119965,0.486908-3.0319824,0.9956055-1.9329834,3.4970093
	c0.9899902,2.2518005,1.8379974,4.5680847,2.6859894,6.8786926c1.0660095,2.9019775,0.0289917,5.5010986-1.1940002,8.0991211
	c-0.5480042,1.1639709-1.2809906,1.34198-2.0169983,0.4799805c-1.2740021-1.4909973-2.423996-3.0999756-3.5019989-4.7406921
	c-0.7509918-1.1430359-1.2180023-2.4730225-1.9799957-3.6062317c-0.2009888-0.2980957-1.2949982-0.4345703-1.5200043-0.2018738
	c-1.0799866,1.1163025-1.792984,2.2926025-0.7030029,3.9819031c1.4510193,2.2469177,2.5160217,4.7418823,3.9580078,6.994873
	c1.2089996,1.8909912,1.2859955,3.894043,1.1150055,5.9530029c-0.1990051,2.3990173-1.7210083,3.0760193-3.6020203,1.6560059
	c-2.193985-1.6549988-4.3609772-3.348999-6.5089874-5.0639954c-1.9889984-1.5879822-2.8800049-1.368988-3.6419983,1.0589905
	c-1.0879974,3.4680176-2.1959076,6.9330444-3.1354065,10.4430237c-0.4006958,1.4960022-1.1255035,1.5780029-2.2238007,0.9620056
	c-1.5599976-0.8760071-3.0513-1.8769836-4.6336823-2.7070007c-0.4288177-0.2250061-1.0799255-0.0260315-1.6289062-0.0220032
	c0.1959839,0.5100098,0.2449951,1.2059937,0.6138916,1.4989929c1.5075073,1.1940002,3.0792999,2.315979,4.6932983,3.3639832
	c1.1640167,0.756012,1.553009,1.7050171,1.1222992,2.9850159c-2.0003967,5.947998-0.8208008,6.178009-6.5778809,3.0980225
	c-0.6995125-0.375-1.4108315-0.7270203-2.1166115-1.0900269c-0.1676178,0.1849976-0.3352051,0.3710327-0.5028076,0.5559998
	c1.5585938,1.6410217,2.9212074,3.5599976,4.734211,4.8410034c1.6212921,1.1459961,1.9154053,2.0779724,0.9784851,3.6819763
	c-0.4037933,0.6910095-0.6300049,1.4850159-0.5977936,2.4330139c0.5917969-0.9889832,1.2846985-1.9329529,1.7493896-2.9789734
	c0.5385132-1.2120056,1.3144073-1.2290039,2.3382263-0.7920227c3.0851898,1.3160095,3.4996796,2.0220032,1.8056946,4.8530273
	c-1.7984924,3.0059814-1.9033203,6.1589661-1.9069061,9.8369446c1.0355988-0.4379883,1.732193-0.8079529,2.4724121-1.0349731
	c4.9698792-1.519989,6.3388824-6.0329895,8.3388824-10.0090027c1.3119965-2.6080017,2.5920105-5.2319641,3.8890076-7.8479919
	c0.3309937-0.7479858,0.5669861-1.2919922,0.5669861-1.3259888c0-0.0679932,2.6800232-6.3320312,4.9180145-11.552002
	c-0.0039978-0.0020142-0.0090027-0.0050049-0.0130157-0.0069885c1.5420074-3.5450134,2.9550018-7.1530151,4.6500092-10.6230164
	c4.1009979-8.3950195,9.3959961-16.0028076,15.6799927-22.9082031c1.1440125-1.2569885,2.4730072-2.3904114,3.8670044-3.3648987
	C118.0700073,54.6923828,118.4950104,53.5628967,117.2230072,50.4133911L117.2230072,50.4133911z M74.7626038,101.7543945
	c0.6554108,0.7870178,1.3634033,1.54599,1.9024048,2.4089966c0.4640045,0.743988,1.1089935,1.9880066,0.9749908,2.3499756
	c-0.6499939,1.7530212-1.5709839,1.7260132-2.6019897,1.7470093c-1.1986847-0.1939697-1.872406-0.3070068-2.5473022-0.4100037
	c-2.0128937-0.3099976-2.2893829-0.8239746-1.4436951-2.7229614c0.4419861-0.992981,0.8982086-1.9790039,1.3487091-2.9680176
	C73.1617126,100.4783936,73.6307068,100.3933716,74.7626038,101.7543945L74.7626038,101.7543945z M82.3040009,100.1134033
	c-0.1089935,0.4029846-1.3599854,0.8909912-1.8779755,0.7199707c-1.8650208-0.6199951-3.6730194-1.4459839-5.4330139-2.3320007
	c-0.4571075-0.2299805-0.9911957-1.0119934-0.9263916-1.4599609c0.5278015-3.6440125,1.4763947-7.1690063,3.6443939-10.9830322
	c2.1949921,2.6119995,4.7709961,4.6260071,5.7889862,7.2449951C84.2200165,95.1563721,82.9140167,97.8503723,82.3040009,100.1134033
	L82.3040009,100.1134033z M65.5095062,132.8223877c-3.1317024,0.7520142-6.3154945,1.4060059-9.3258095,2.5169983
	c-0.9698944,0.3580322-1.721199,0.7160034-2.2825928,1.0930176c2.2916107,0.7980042,4.6416016,1.4679871,7.0422974,2.0079956
	c0.2202148-0.20401,0.4329071-0.4210205,0.6557922-0.6210327c0.587616-0.5289612,1.4580231-0.7439575,2.1991119-1.1029663
	c0.3297157,0.7810059,0.9971046,1.5910034,0.932621,2.3389893c-0.0030212,0.0350037-0.0124207,0.0820007-0.0170288,0.1200256
	c2.5032196,0.4079895,5.0532074,0.6729736,7.6440277,0.7839966c-0.0410156-0.1690369-0.0930176-0.3320007-0.16362-0.4670105
	c-0.7212982-1.3770142-1.5461884-2.7009888-2.4369965-4.2250061c-1.2250977,0.2249756-2.4004974-0.0400085-2.8060913-1.7960205
	C66.8760071,133.1454163,65.9351044,132.7203979,65.5095062,132.8223877L65.5095062,132.8223877z"/>
<radialGradient id="SVGID_4_" cx="102.2241974" cy="65.4266052" r="18.434454" gradientTransform="matrix(1 0 0 -1 0 152)" gradientUnits="userSpaceOnUse">
	<stop  offset="0" style="stop-color:#A71E27"/>
	<stop  offset="0.1816989" style="stop-color:#A22228"/>
	<stop  offset="0.4223733" style="stop-color:#932928"/>
	<stop  offset="0.6960651" style="stop-color:#7B2E29"/>
	<stop  offset="0.9923287" style="stop-color:#5D2F2A"/>
	<stop  offset="1" style="stop-color:#5C2F2A"/>
</radialGradient>
<path class="st3" d="M113.5480042,63.8717651c0,0-22.2879944,29.5956421-23.8659821,41.9346313
	c-1.5780182,12.3379822,17.6469879-10.7610168,19.0819855-16.9299927c1.4349976-6.1690063,8.178009-24.9638062,5.4519958-25.1072998
	L113.5480042,63.8717651L113.5480042,63.8717651z"/>
<radialGradient id="SVGID_5_" cx="65.3457184" cy="78.2129211" r="21.7311878" gradientTransform="matrix(1 0 0 -1 0 152)" gradientUnits="userSpaceOnUse">
	<stop  offset="0" style="stop-color:#A71E27"/>
	<stop  offset="0.1816989" style="stop-color:#A22228"/>
	<stop  offset="0.4223733" style="stop-color:#932928"/>
	<stop  offset="0.6960651" style="stop-color:#7B2E29"/>
	<stop  offset="0.9923287" style="stop-color:#5D2F2A"/>
	<stop  offset="1" style="stop-color:#5C2F2A"/>
</radialGradient>
<path class="st4" d="M82.3860016,68.3273926c-1.3359833-2.4636841-2.2779846-5.1404114-3.417984-7.7120056
	c-0.2929993-0.6603088-0.6850128-1.2766113-1.0720062-1.9885254c-1.8470001,1.4441223-2.0319977,2.993042-1.2680054,4.8752441
	c0.8899994,2.1933899,1.6240082,4.4500732,2.4260101,6.6793823c-0.1760101,0.0993042-0.3510132,0.1985779-0.5270081,0.2980042
	c-1.3199921-1.8356934-2.6699829-3.6509094-3.9550018-5.5106201c-3.3298035-4.8188782-7.7294006-7.5125732-13.1127968-8.2172852
	c-0.4211121-0.0657959-0.847702-0.121582-1.286499-0.15448c-0.628006-0.0471191-1.2392883-0.0566101-1.8324127-0.0294189
	c-0.1641846,0.0010071-0.3251953-0.0043945-0.4908905-0.0003052c-1.6239014,0.0413208-2.9794922,0.4164124-4.0650024,1.0994873
	c-5.7939911,2.7730103-8.320694,10.6302185-4.9942017,22.3205261c0.1222992,0.4299927,0.2456207,0.821991,0.3695984,1.1889954
	c0.3868103,3.2409973,2.1327057,6.1400146,3.3413086,9.1389771c1.1414948,2.8330078,2.710495,5.4940186,4.1511078,8.3529968
	c1.6147766-1.4759521,2.9394836-2.743988,4.3284912-3.9379883c0.9824982-0.8429871,0.817215-1.4309998-0.0158997-2.3509827
	c-2.0129089-2.2219849-3.907196-4.552002-5.8330994-6.8520203c0.8295135,0.3280029,1.6596985,0.6550293,2.4559021,1.0500183
	c2.2090912,1.0969849,4.3446045,2.348999,6.5903053,3.3599854c0.5646057,0.2539978,1.6485901,0.0899963,2.1219025-0.315979
	c2.0861969-1.7890015,4.0319824-3.7410278,6.0375977-5.625c1.1005859-1.03302,0.6730957-1.9170227-0.2082062-2.8099976
	c-3.4300842-3.4770203-6.8502045-6.9622192-10.2682076-10.4498901c-0.5130005-0.5235291-0.9949036-1.0774231-1.4911041-1.6173096
	c0.1189117-0.1470032,0.2378082-0.2939148,0.3568115-0.4410095c6.55019,2.8765259,11.3615913,8.1812134,17.2973061,12.6771851
	c1.3169861-2.1109924,2.4119873-4.3259888,3.9349823-6.1899719C83.8390198,72.8644714,83.7310181,70.8084106,82.3860016,68.3273926
	L82.3860016,68.3273926z M75.181015,53.0024109c-0.9792023-1.2953186-1.7799072-2.7259216-2.6600952-4.0966187
	c-0.1687927,0.0457764-0.3376007,0.0914917-0.5064087,0.1372986c-0.3716125,2.206604-0.9481964,4.4069214-1.0147858,6.6226807
	c-0.0268097,0.8970337,0.9465942,1.9490051,1.7149811,2.6600952c0.201416,0.1865234,1.3851013-0.567749,2.0360107-1.0101624
	C76.5800171,56.072113,76.4190063,54.6377869,75.181015,53.0024109L75.181015,53.0024109z"/>
</svg>
