<?xml version="1.0" encoding="utf-8"?>
<!-- Generator: Adobe Illustrator 21.1.0, SVG Export Plug-In . SVG Version: 6.00 Build 0)  -->
<svg version="1.1" id="Layer_1" xmlns="http://www.w3.org/2000/svg" xmlns:xlink="http://www.w3.org/1999/xlink" x="0px" y="0px"
	 width="551px" height="167.4px" viewBox="0 0 551 167.4" style="enable-background:new 0 0 551 167.4;" xml:space="preserve">
<style type="text/css">
	.st0{fill:#FFFFFF;}
	.st1{fill:url(#SVGID_1_);}
	.st2{fill:url(#SVGID_2_);}
	.st3{fill:url(#SVGID_3_);}
</style>
<g>
	<path class="st0" d="M135,96.1c-2.7-7.1-7.8-13-14.3-16.8c-4.7-2.7-10-4.2-15.5-4.4c2.6-4.8,3.9-10.2,3.9-15.6
		c0-7.6-2.6-15-7.4-20.8c-4.7-5.8-11.3-9.8-18.5-11.4c-0.3-0.1-0.6,0.1-0.7,0.4s0.1,0.6,0.4,0.7c11.2,3.1,19.1,13.3,19.1,25
		c0,14.3-11.6,25.9-25.9,25.9S50.2,67.5,50.2,53.2c0-11.7,7.8-22,19.1-25c0.3-0.1,0.5-0.4,0.4-0.7c-0.1-0.3-0.4-0.5-0.7-0.4
		c-7.2,1.6-13.8,5.6-18.5,11.4c-4.8,5.9-7.4,13.2-7.4,20.8c0,5.4,1.4,10.8,3.9,15.6c-5.4,0.2-10.8,1.7-15.5,4.4
		C25,83.1,19.9,89,17.2,96.1c-2.6,7-2.9,14.7-0.6,21.7c0.1,0.3,0.4,0.5,0.7,0.4c0.3-0.1,0.5-0.4,0.4-0.7c-3-11.3,2-23.2,12.1-29
		c6-3.5,13-4.4,19.7-2.6s12.3,6.1,15.7,12c7.1,12.4,2.9,28.2-9.5,35.4c-10.1,5.8-23,4.2-31.2-4c-0.2-0.2-0.6-0.2-0.8,0
		c-0.2,0.2-0.2,0.6,0,0.8c5,5.5,11.8,9.1,19.1,10.3c1.7,0.3,3.5,0.4,5.2,0.4c5.8,0,11.5-1.5,16.5-4.4c4.7-2.7,8.7-6.6,11.5-11.2
		c2.9,4.6,6.8,8.5,11.5,11.2c5,2.9,10.7,4.4,16.5,4.4c1.7,0,3.5-0.1,5.2-0.4c7.3-1.2,14.1-4.9,19.1-10.3c0.2-0.2,0.2-0.6,0-0.8
		s-0.6-0.2-0.8,0c-8.3,8.2-21.1,9.9-31.2,4c-12.4-7.2-16.7-23-9.5-35.4c3.5-6,9-10.3,15.7-12c6.7-1.8,13.7-0.9,19.7,2.6
		c10.1,5.8,15.1,17.8,12.1,29c-0.1,0.3,0.1,0.6,0.4,0.7c0.3,0.1,0.6-0.1,0.7-0.4C137.9,110.8,137.7,103,135,96.1z M84,91.9L84,91.9
		c0,2.1-0.8,4-2.3,5.5s-3.4,2.3-5.5,2.3l0,0c-4.3,0-7.7-3.5-7.7-7.8l0,0c0-4.3,3.5-7.7,7.7-7.7l0,0C80.5,84.2,84,87.7,84,91.9z"/>
	
		<radialGradient id="SVGID_1_" cx="-220.9691" cy="-596.6743" r="22.3802" gradientTransform="matrix(0.9417 0 0 -0.9418 250.9866 -451.0948)" gradientUnits="userSpaceOnUse">
		<stop  offset="2.000000e-02" style="stop-color:#B3C0E2"/>
		<stop  offset="0.8" style="stop-color:#7591CA"/>
		<stop  offset="0.98" style="stop-color:#567EBF"/>
	</radialGradient>
	<ellipse class="st1" cx="42.9" cy="110.9" rx="21.1" ry="21.1"/>
	
		<radialGradient id="SVGID_2_" cx="-150.1397" cy="-596.6743" r="22.43" gradientTransform="matrix(0.9417 0 0 -0.9418 250.9866 -451.0948)" gradientUnits="userSpaceOnUse">
		<stop  offset="2.000000e-02" style="stop-color:#C4E1AF"/>
		<stop  offset="0.8" style="stop-color:#8CC866"/>
		<stop  offset="0.98" style="stop-color:#6FBE46"/>
	</radialGradient>
	<ellipse class="st2" cx="109.6" cy="110.9" rx="21.1" ry="21.1"/>
	
		<radialGradient id="SVGID_3_" cx="-185.6075" cy="-535.9894" r="22.4298" gradientTransform="matrix(0.9417 0 0 -0.9418 250.9866 -451.0948)" gradientUnits="userSpaceOnUse">
		<stop  offset="2.000000e-02" style="stop-color:#FFEEAC"/>
		<stop  offset="0.8" style="stop-color:#FEE258"/>
		<stop  offset="0.98" style="stop-color:#FDDD10"/>
	</radialGradient>
	<ellipse class="st3" cx="76.2" cy="53.7" rx="21.1" ry="21.1"/>
</g>
<g>
	<path class="st0" d="M178.3,106.8c0,9.2,0.2,10.5,5.2,10.9l2.8,0.3c0.5,0.3,0.3,1.9-0.2,2.2c-5-0.2-7.9-0.3-11.4-0.3
		s-6.6,0.1-12.1,0.3c-0.5-0.3-0.7-1.7,0-2.2l3.1-0.3c5-0.4,5.4-1.7,5.4-10.9v-39c0-2.7,0-2.8-2.6-2.8h-4.8c-3.8,0-8.6,0.2-10.7,2.2
		c-2.1,1.9-3,3.8-3.9,6c-0.7,0.5-1.9,0.1-2.3-0.6c1.4-3.9,2.7-9.5,3.3-13c0.3-0.2,1.4-0.3,1.7,0c0.5,2.8,3.4,2.7,7.4,2.7h35.4
		c4.7,0,5.5-0.2,6.8-2.4c0.4-0.2,1.4-0.1,1.6,0.3c-1,3.6-1.6,10.7-1.3,13.3c-0.3,0.7-1.8,0.7-2.3,0.2c-0.3-2.2-0.9-5.4-2.2-6.4
		c-2-1.5-5.3-2.2-10.1-2.2h-6.2c-2.6,0-2.5,0.1-2.5,3v38.7H178.3z"/>
	<path class="st0" d="M213.3,82.2c0-7.7-0.1-8.8-4.5-9.3l-1.2-0.1c-0.4-0.3-0.3-1.6,0.1-1.8c3.2,0.1,5.7,0.2,8.7,0.2h13.9
		c4.7,0,9.1,0,10-0.2c0.4,1.3,0.9,6.6,1.2,9.8c-0.3,0.4-1.5,0.6-1.8,0.1c-1.1-3.5-1.8-6.1-5.6-7c-1.6-0.4-3.9-0.4-7.2-0.4h-5.3
		c-2.2,0-2.2,0.1-2.2,3v14.8c0,2.1,0.2,2.1,2.4,2.1h4.3c3.1,0,5.4-0.1,6.3-0.4c0.9-0.3,1.4-0.7,1.8-2.6l0.6-3
		c0.4-0.4,1.6-0.4,1.9,0.1c0,1.8-0.3,4.7-0.3,7.5c0,2.7,0.3,5.5,0.3,7.1c-0.3,0.5-1.6,0.5-1.9,0.1L234,99c-0.3-1.3-0.8-2.4-2.3-2.8
		c-1-0.3-2.8-0.4-5.7-0.4h-4.3c-2.2,0-2.4,0.1-2.4,2v10.4c0,3.9,0.2,6.4,1.4,7.7c0.9,0.9,2.4,1.7,8.9,1.7c5.7,0,7.8-0.3,9.5-1.1
		c1.3-0.7,3.3-3.3,5.2-7.2c0.5-0.4,1.6-0.1,1.8,0.5c-0.5,2.6-2.4,8.3-3.3,10.3c-6.6-0.1-13.2-0.2-19.8-0.2h-6.6
		c-3.2,0-5.7,0.1-10,0.2c-0.4-0.2-0.6-1.4-0.1-1.8l2.4-0.2c4.2-0.4,4.6-1.5,4.6-9.2L213.3,82.2L213.3,82.2z"/>
	<path class="st0" d="M258.2,76.3c5.4-4.2,12.3-6.3,19.9-6.3c4,0,9.6,0.8,13.1,1.8c0.9,0.2,1.4,0.4,2.1,0.3c0.1,1.7,0.4,6.4,1,10.9
		c-0.4,0.5-1.5,0.6-2,0.1c-1.1-5-4.4-10.8-15.1-10.8c-11.3,0-20.9,7.2-20.9,22.4c0,15.5,9.8,24.1,21.9,24.1
		c9.5,0,13.7-6.2,15.4-10.6c0.5-0.4,1.6-0.2,1.9,0.3c-0.5,3.8-2.4,8.7-3.5,10.1c-0.9,0.1-1.8,0.4-2.6,0.7c-1.6,0.6-6.9,1.7-11.7,1.7
		c-6.6,0-13-1.3-18.4-4.9c-5.9-4.1-10.5-10.8-10.5-20.3C248.9,87.6,252.6,80.6,258.2,76.3z"/>
	<path class="st0" d="M315,96.1c-3.5,0-3.7,0.1-3.7,2.4v10.4c0,7.8,0.4,8.8,4.5,9.2l2.1,0.2c0.4,0.3,0.3,1.6-0.1,1.8
		c-4-0.1-6.5-0.2-9.4-0.2c-3.2,0-5.7,0.1-8.6,0.2c-0.4-0.2-0.6-1.4-0.1-1.8l1.3-0.2c4.1-0.7,4.3-1.5,4.3-9.2V82.2
		c0-7.8-0.5-9-4.4-9.3l-1.9-0.1c-0.4-0.3-0.3-1.6,0.1-1.8c3.6,0.1,6.1,0.2,9.3,0.2c2.9,0,5.4-0.1,8.6-0.2c0.4,0.2,0.6,1.6,0.1,1.8
		l-1.4,0.1c-4.3,0.4-4.4,1.6-4.4,9.3v8.5c0,2.3,0.1,2.4,3.7,2.4h21.1c3.5,0,3.7-0.1,3.7-2.4v-8.5c0-7.8-0.1-8.9-4.5-9.3l-1.4-0.1
		c-0.4-0.3-0.3-1.6,0.1-1.8c3.4,0.1,5.9,0.2,8.9,0.2c2.9,0,5.4-0.1,8.7-0.2c0.4,0.2,0.6,1.6,0.1,1.8l-1.6,0.1
		c-4.3,0.4-4.4,1.6-4.4,9.3v26.6c0,7.8,0.1,8.7,4.4,9.2l1.8,0.2c0.4,0.3,0.3,1.6-0.1,1.8c-3.5-0.1-6.1-0.2-8.9-0.2
		c-3,0-5.7,0.1-8.9,0.2c-0.4-0.2-0.6-1.4-0.1-1.8l1.4-0.2c4.5-0.7,4.5-1.5,4.5-9.2V98.4c0-2.2-0.1-2.4-3.7-2.4L315,96.1L315,96.1z"
		/>
	<path class="st0" d="M412.3,105.1c0,2.6,0,13,0.3,15.3c-0.2,0.5-0.7,1-1.7,1c-1-1.5-3.6-4.5-11.2-13.2l-20.3-23.1
		c-2.4-2.7-8.3-9.9-10.1-11.8h-0.2c-0.3,1-0.4,3.1-0.4,5.7v19c0,4.1,0.1,15.5,1.6,18.1c0.5,1,2.3,1.5,4.5,1.7l2.7,0.3
		c0.5,0.7,0.4,1.7-0.2,2.2c-3.9-0.2-7-0.3-10.2-0.3c-3.7,0-6,0.1-9.1,0.3c-0.6-0.4-0.7-1.7-0.2-2.2l2.4-0.3c2-0.3,3.4-0.8,3.8-1.7
		c1.2-3.1,1.1-13.8,1.1-18V72.7c0-2.4-0.1-4.3-1.9-6.3c-1.2-1.2-3.3-1.8-5.4-2.1l-1.5-0.2c-0.5-0.5-0.5-1.8,0.2-2.2
		c3.7,0.3,8.3,0.3,9.9,0.3c1.4,0,2.9-0.1,4-0.3c1.7,4.5,12.1,16,14.9,19.2l8.5,9.5c6,6.7,10.3,11.6,14.4,15.8h0.2
		c0.3-0.4,0.3-1.8,0.3-3.7V84.2c0-4.1-0.1-15.5-1.7-18.1c-0.5-0.8-1.9-1.3-5.4-1.7l-1.5-0.2c-0.6-0.5-0.5-1.9,0.2-2.2
		c4,0.2,7,0.3,10.3,0.3c3.8,0,6-0.1,9-0.3c0.7,0.4,0.7,1.7,0.2,2.2l-1.2,0.2c-2.8,0.4-4.5,1.1-4.9,1.8c-1.5,3.1-1.3,14-1.3,18
		L412.3,105.1C412.4,105.1,412.3,105.1,412.3,105.1z"/>
	<path class="st0" d="M431.9,82.2c0-7.7-0.1-8.8-4.5-9.3l-1.2-0.1c-0.4-0.3-0.3-1.6,0.1-1.8c3.2,0.1,5.7,0.2,8.7,0.2h14
		c4.7,0,9.1,0,10-0.2c0.4,1.3,0.9,6.6,1.2,9.8c-0.3,0.4-1.5,0.6-1.8,0.1c-1.1-3.5-1.8-6.1-5.6-7c-1.6-0.4-3.9-0.4-7.2-0.4h-5.3
		c-2.2,0-2.2,0.1-2.2,3v14.8c0,2.1,0.2,2.1,2.4,2.1h4.3c3.1,0,5.4-0.1,6.3-0.4s1.4-0.7,1.8-2.6l0.6-3c0.4-0.4,1.6-0.4,1.9,0.1
		c0,1.8-0.3,4.7-0.3,7.5c0,2.7,0.3,5.5,0.3,7.1c-0.3,0.5-1.6,0.5-1.9,0.1l-0.7-2.9c-0.3-1.3-0.8-2.4-2.3-2.8c-1-0.3-2.8-0.4-5.7-0.4
		h-4.3c-2.2,0-2.4,0.1-2.4,2v10.4c0,3.9,0.2,6.4,1.4,7.7c0.9,0.9,2.4,1.7,8.9,1.7c5.7,0,7.8-0.3,9.5-1.1c1.3-0.7,3.3-3.3,5.2-7.2
		c0.5-0.4,1.6-0.1,1.8,0.5c-0.5,2.6-2.4,8.3-3.3,10.3c-6.6-0.1-13.2-0.2-19.8-0.2h-6.6c-3.2,0-5.7,0.1-10,0.2
		c-0.4-0.2-0.6-1.4-0.1-1.8l2.4-0.2c4.2-0.4,4.6-1.5,4.6-9.2v-27C432.1,82.2,431.9,82.2,431.9,82.2z"/>
	<path class="st0" d="M492.8,108.8c0,7.8,0.1,8.9,4.4,9.2l2.4,0.2c0.4,0.3,0.3,1.6-0.1,1.8c-4.2-0.1-6.7-0.2-9.7-0.2
		s-5.5,0.1-10.3,0.2c-0.4-0.2-0.6-1.5,0-1.8l2.7-0.2c4.2-0.4,4.6-1.5,4.6-9.2v-33c0-2.3,0-2.4-2.2-2.4h-4.1c-3.2,0-7.2,0.1-9.1,1.8
		c-1.8,1.6-2.5,3.2-3.3,5.1c-0.6,0.4-1.6,0.1-1.9-0.5c1.2-3.3,2.3-8,2.8-11c0.2-0.1,1.2-0.2,1.4,0c0.4,2.4,2.9,2.3,6.3,2.3h29.9
		c4,0,4.7-0.1,5.8-2.1c0.4-0.1,1.2-0.1,1.3,0.2c-0.8,3-1.3,9-1.1,11.2c-0.3,0.6-1.5,0.6-1.9,0.1c-0.2-1.8-0.7-4.6-1.8-5.4
		c-1.7-1.3-4.5-1.8-8.6-1.8h-5.2c-2.2,0-2.1,0.1-2.1,2.5v33C493,108.8,492.8,108.8,492.8,108.8z"/>
</g>
</svg>
