<?xml version="1.0" encoding="utf-8"?>
<!-- Generator: Adobe Illustrator 21.0.0, SVG Export Plug-In . SVG Version: 6.00 Build 0)  -->
<svg version="1.1" id="Layer_1" xmlns="http://www.w3.org/2000/svg" xmlns:xlink="http://www.w3.org/1999/xlink" x="0px" y="0px"
	 viewBox="0 0 612 792" style="enable-background:new 0 0 612 792;" xml:space="preserve">
<style type="text/css">
	.st0{fill:url(#SVGID_1_);}
	.st1{fill:#FDDD10;}
	.st2{fill:none;stroke:#000000;stroke-width:5.2151923;}
	.st3{fill:url(#SVGID_2_);}
	.st4{fill:url(#SVGID_3_);}
	.st5{fill:url(#SVGID_4_);}
	.st6{fill:url(#SVGID_5_);}
	.st7{fill:#A71E27;}
	.st8{fill:#FFFFFF;}
</style>
<radialGradient id="SVGID_1_" cx="305.6548157" cy="396.654541" r="115.934967" gradientUnits="userSpaceOnUse">
	<stop  offset="0" style="stop-color:#ABA6A6"/>
	<stop  offset="0.1245455" style="stop-color:#A49F9F"/>
	<stop  offset="0.2894997" style="stop-color:#908B8B"/>
	<stop  offset="0.4771342" style="stop-color:#736E6E"/>
	<stop  offset="0.6799315" style="stop-color:#4F4C4C"/>
	<stop  offset="0.8804487" style="stop-color:#2C2B2B"/>
</radialGradient>
<path class="st0" d="M305.6539917,512.5894775c64.0290222,0,115.935791-51.9067078,115.935791-115.93573
	c0-64.0284729-51.9067688-115.9341736-115.935791-115.9341736c-64.0284729,0-115.9341431,51.9057007-115.9341431,115.9341736
	C189.7198486,460.6827698,241.6255188,512.5894775,305.6539917,512.5894775L305.6539917,512.5894775z"/>
<path class="st1" d="M457.2985229,396.6537476c0-83.7506409-67.8930359-151.6446533-151.6445312-151.6446533
	c-83.7507935,0-151.6445007,67.8940125-151.6445007,151.6446533c0,83.7515259,67.8937073,151.6462402,151.6445007,151.6462402
	C389.4054871,548.2999878,457.2985229,480.4052734,457.2985229,396.6537476L457.2985229,396.6537476z M420.4417419,396.6537476
	c0,63.3954773-51.3922424,114.7877808-114.7877502,114.7877808c-63.3944397,0-114.7861938-51.3923035-114.7861938-114.7877808
	c0-63.3944397,51.3917542-114.7861633,114.7861938-114.7861633
	C369.0494995,281.8675842,420.4417419,333.2593079,420.4417419,396.6537476L420.4417419,396.6537476z"/>
<path class="st2" d="M305.6539917,513.4750366c64.415741,0,116.8212585-52.4056091,116.8212585-116.8212891
	c0-64.4145508-52.4055176-116.8200378-116.8212585-116.8200378c-64.4145508,0-116.8200378,52.4054871-116.8200378,116.8200378
	C188.8339539,461.0694275,241.2394409,513.4750366,305.6539917,513.4750366L305.6539917,513.4750366z"/>
<radialGradient id="SVGID_2_" cx="300.8321838" cy="401.2506714" r="99.3790741" gradientUnits="userSpaceOnUse">
	<stop  offset="0" style="stop-color:#FDDD10"/>
	<stop  offset="0.3416312" style="stop-color:#FADA15"/>
	<stop  offset="0.5718433" style="stop-color:#F1D01E"/>
	<stop  offset="0.7691916" style="stop-color:#E2C128"/>
	<stop  offset="0.9469807" style="stop-color:#CEAD30"/>
	<stop  offset="1" style="stop-color:#C6A632"/>
</radialGradient>
<path class="st3" d="M389.6399841,333.7243042c-0.335968-0.087738-0.6632385,0.0617981-0.9554749,0.2899475
	c-0.9572754,0.8009644-1.5032654,2.3148804-1.9320068,3.5955505c-1.2005005,3.583313-2.2190247,7.2268066-3.3110046,10.8466492
	c-5.2237549-13.2058105-4.6742554-27.3556213-7.8575134-40.8118896c-0.222229-0.1752014-0.444458-0.3517456-0.6684875-0.5253601
	c-2.1752625,13.0093384,1.1234741,25.7806396,1.7955017,39.4885559c-1.1602478-1.5743103-1.963501-2.5047913-2.5917358-3.5419922
	c-5.4355164-8.9874268-9.8157654-18.4318542-12.8450012-28.5295715c-0.8995056-3.0033264-2.7860107-5.7112732-4.2210388-8.5545349
	c-0.4129639,0.1828918-0.8259888,0.366333-1.2389832,0.5493774c1.3387451,6.0765381,2.2190247,12.3019714,4.1317444,18.1921387
	c2.3677979,7.2910156,5.5037537,14.3421326,8.5015259,21.4136963c0.9257507,2.178894,1.42276,3.7376709-1.2232666,4.9351196
	c-2.6879883,1.2166443-3.3652344-0.6324158-4.2279663-2.4328308c-5.243042-10.9455261-10.50177-21.8828735-15.7587891-32.8219299
	c-1.7062378-3.5509338-3.4194946-7.0986938-5.1309814-10.6478882c-0.5337524,0.1653748-1.0692749,0.3303833-1.6029968,0.4956055
	c0.9205017,4.6325989,1.0902405,9.5880737,2.9137268,13.833374c4.3522644,10.1306152,9.5550232,19.8921204,14.2695312,29.8709412
	c2.4429932,5.171051,2.07547,5.880188-3.5017395,9.1798096c-8.7955322-16.0811157-17.5910339-32.1665955-26.3883057-48.2518616
	c-0.4094849,0.1550293-0.8207092,0.3102417-1.2319946,0.4654541c1.2617798,4.434021,1.8427734,9.2190247,3.9147644,13.2347717
	c5.8380127,11.3146362,12.3182373,22.2854004,16.182251,34.5353394c1.1864929,3.7619629,0.9712524,4.3452454-3.7764893,6.9681702
	c-3.0310059,1.6740723-3.7817383-0.5617676-4.8755188-2.381958c-5.8800049-9.7870178-11.703949-19.60849-17.6417542-29.3609924
	c-1.6904602-2.7764587-3.6942139-5.3624573-5.5544739-8.0357971c-0.2695007,0.1361694-0.540741,0.272522-0.8120117,0.4088135
	c0.2362366,0.8613281,0.3552551,1.7752075,0.7227478,2.5756531c5.2097473,11.3510437,10.3582458,22.7315979,15.7272644,34.0077209
	c2.9382324,6.1699829,2.9854736,5.9794312-1.2652588,10.9328003c-1.868988,2.1770325-3.1062622,4.8938904-4.8965149,7.7965698
	c-2.7737122-5.4011536-5.0539856-10.573822-7.997467-15.3355713c-2.3012695-3.7225952-2.8962708-6.9490662-0.0787659-10.5073242
	c0.4514771-0.5689392,0.5547485-1.4131775,1.1987305-3.1615601c-2.3450012,1.8635864-3.8307495,3.0454102-5.5019836,4.3746033
	c-1.1567383-1.711792-1.8760071-3.3062439-3.0484924-4.4294128c-6.8444214-6.556366-8.0888367-14.0993958-4.9302673-22.9025879
	c0.8543396-2.3812561,0.1294861-5.3289185,0.1294861-8.0167236c-0.2618103-0.010376-0.5232239-0.020813-0.7846985-0.0309448
	c-1.4181824,5.0198364-2.8363953,10.0396729-4.4233093,15.6566772c-2.473114-2.2620239-4.4962769-4.112854-6.5196228-5.963623
	c0.9729919,5.0112915,4.1179199,9.5626831,3.8860779,13.9350586c-0.236969,4.467926-3.7871704,8.7601624-5.8868408,13.1292114
	c-0.5612183,0.0006409-1.1228027,0.0012512-1.6842041,0.001709c-1.0419312-1.974823-2.909729-3.9269714-2.9644775-5.928772
	c-0.1407166-5.1443787,0.3135681-10.3348083,0.9111938-15.462616c1.0176086-8.7323303,2.4653931-17.4153748,3.4387817-26.1519165
	c0.3349304-3.0101624-0.2075806-6.1181335-0.3491516-9.1813049c-0.4396057,0.0032959-0.8790283,0.0066223-1.3188171,0.0099487
	c-0.3701172,1.4678955-0.8800354,2.9163513-1.0877686,4.4068604c-1.2973022,9.3038635-2.3334351,18.6490173-3.8673401,27.9121704
	c-0.6767273,4.0849609-2.1651001,8.0665588-3.6072693,11.9764404c-0.4975281,1.3478088-1.9725952,2.3352356-3.0009155,3.4871826
	c-1.1008911-1.5187988-2.4099121-2.9356079-3.2238159-4.5954895c-0.4866943-0.9922485-0.2478333-2.3647766-0.2493896-3.5664368
	c-0.0178528-12.9010315,0.1095276-25.8043518-0.1136169-38.7014465c-0.0566406-3.2672729-1.2158508-6.5150757-1.8684387-9.7718506
	c-0.6079712,0.0745544-1.2155762,0.1489258-1.8233032,0.2235107c0,8.293396,0.258606,16.5968323-0.0656433,24.8774719
	c-0.4049683,10.3484497-1.2319946,20.6826782-2.0674744,31.0080566c-0.0724487,0.8965149-1.5641479,1.6780396-2.3964233,2.5132141
	c-1.1195068-1.286499-2.9832458-2.4403687-3.2397766-3.8805237c-1.9403992-10.8989258-3.3645325-21.8914185-5.3740845-32.7763977
	c-0.9943542-5.3860168-2.88591-10.6062317-4.3714905-15.9015503c-1.1655121,0.5746765-1.4061279,0.8795166-1.417511,1.1924438
	c-0.056366,1.5643311-0.2455292,3.156311-0.0397339,4.691925c1.7876282,13.3435669,3.4870605,26.7026978,5.5715027,40.0007935
	c0.8146362,5.1962585,1.5510254,10.1172791-0.59729,15.2254944c-0.8067322,1.918396-1.6324158,3.5502625-3.5271301,3.2331238
	c-1.2288361-0.2055969-2.5978851-1.7795715-3.2168579-3.0700378c-4.832077-10.0755615-9.4697571-20.2446594-14.2489777-30.3460083
	c-0.6025238-1.272583-1.6803589-2.3201599-2.5376892-3.4720154c-0.2947235,0.1482239-0.589035,0.2962952-0.8837738,0.4447021
	c0.284729,1.5963135,0.5720978,3.1925049,0.8534698,4.7895508c1.8205261,10.3295898,6.4557343,19.6143799,11.0936127,28.8312683
	c2.3898163,4.7498474,2.8593445,9.6204529,2.7807465,14.664093c-0.0203094,1.2923584-0.9308319,2.6486511-1.6619568,3.8338928
	c-1.1037445,1.7888794-2.2470245,1.9675293-3.43367-0.109375c-4.7059326-8.2361755-9.8570709-16.2058716-12.7452545-25.3999939
	c-1.7339325-5.5190125-4.2595062-10.789093-6.4291534-16.1712036c-0.3829193,0.0684204-0.7660217,0.1366577-1.1488953,0.2047119
	c-0.1156616,1.3284607-0.4967957,2.699585-0.2897644,3.9755249c0.3835754,2.3628235,0.9903259,4.7083435,1.7181396,6.9927673
	c2.146698,6.7372131,3.8890076,13.6669617,6.739212,20.1005554c3.4473114,7.7817078,7.9000244,15.1154175,11.8505096,22.677887
	c1.6568756,3.1720581,2.5142059,6.5050354,1.4255524,11.1723328c-2.9995117-2.8647461-5.7627411-4.7600098-7.5390472-7.3358765
	c-5.7975464-8.4069519-11.2302246-17.0652771-16.8174744-25.6176758c-0.6772461-1.0367126-1.4413147-2.0168457-2.164917-3.0230713
	c-0.2768555,0.1508179-0.5537109,0.3016357-0.8309326,0.4525146c1.7467346,9.2098694,3.1216736,18.5132446,10.3108368,25.7071228
	c4.0841827,4.0874634,7.9976654,8.3644714,11.7381592,12.7692566c3.5581055,4.1894836,6.5311737,8.7657471,6.4723511,15.4227295
	c-1.3931732-1.1655273-2.2481995-1.9284668-3.1503601-2.6302185c-6.1506805-4.7845154-12.2095642-9.6967773-18.5165558-14.2660217
	c-2.7175751-1.96875-5.9848328-3.0730286-9.7142029-1.9792786c0.2750397,0.7402649,0.8593445,0.9625244,1.3014374,1.3474731
	c9.5266571,8.3072815,19.1427155,16.5165405,28.4819336,25.0302734c2.5107422,2.287262,4.1702423,5.5107422,6.2205505,8.3055115
	c-0.3253326,0.2975159-0.6504822,0.5950317-0.9756165,0.8925171c-5.738266-3.1902466-11.4899902-6.3577576-17.2100067-9.5812683
	c-3.6883392-2.0772705-7.4307251-1.1252441-11.2252197-0.6282654c0.4347229,0.7384949,0.9420166,0.9992371,1.433075,1.2862244
	c8.0814819,4.7390747,16.2027283,9.4098206,24.2219238,14.2520142c3.9063416,2.3572998,4.8432922,6.5975342,6.8946228,11.0267639
	c-7.2783966-1.538269-13.0684662-5.9587708-20.9170227-4.0214539c1.8896179,1.0709839,3.0995789,1.7517395,4.3042908,2.4394531
	c5.4129028,3.0975342,10.8388062,6.1705017,16.2191925,9.3222351c0.7923737,0.4638367,1.879837,1.2443237,1.9598083,1.973999
	c0.5904541,5.3935547,5.3621674,7.0735779,8.6953888,9.9645386c2.2705078,1.96875,5.0452576,2.0195007,8.102356,1.9809875
	c4.1859741-0.0525513,8.3971863,1.098999,12.5756836,1.8567505c1.0903931,0.1978149,2.098938,0.8487244,3.1450806,1.2914734
	c0.2435608-0.2309875,0.4873657-0.4602051,0.7309875-0.6911926c-0.1190186-1.2512817-0.8305359-2.5602722-1.6938171-3.0484924
	c-3.7249146-2.1088257-7.4914246-4.2735291-11.4970093-5.7085571c-2.8411255-1.0184937-5.1716003-1.7272339-6.2784729-5.0154724
	c-3.0574036-9.0825195-6.6662598-17.9795532-9.6610413-27.0794678c-5.3898468-16.3800659-8.018158-33.1992493-7.0400848-50.4920959
	c0.289093-5.1172791,3.6723938-12.2643127,6.8740082-14.3639526c-5.3275299,12.4909668-6.2632599,25.3129883-3.6217804,38.3242798
	c2.0520325,10.1062622,4.1884308,20.2492371,7.2262726,30.0859985c2.3580933,7.6370239,5.9545288,14.9257812,9.4113159,22.1725159
	c1.9673462,4.1229858,4.249176,4.6654053,8.6418457,3.9654846c1.6936646-0.2695007,3.5413208,0.0945129,5.2648926,0.4375
	c2.0325928,0.4059753,4.0067749,1.1025085,6.1624451,1.7184753c-0.2287292,0.5250549-0.7162781,1.1602478-0.756012,1.8217468
	c-0.21875,3.6434937-1.6917419,8.1094971-0.1226807,10.729248c1.8730164,3.1289978,0.651001,4.3959961-1.0914917,5.4285583
	c-5.142334,3.0502014-10.2611084,6.8162231-15.9022217,8.1829834c-4.6667175,1.1304932-8.182312,2.8647461-10.7438049,5.7575073
	c2.4983215,1.0797119,5.0470276,2.0614014,7.6347351,2.962738c0.9824524-0.6597595,2.2972412-1.2862244,3.9945374-1.9127808
	c5.2680664-1.9442444,10.8396912-3.0887146,16.3203125-4.4047546c0.7446594-0.1802368,2.3914185,0.5653076,2.5228577,1.1357422
	c0.7097778,3.0730286,2.7667236,3.5367432,4.9106445,3.1430359c1.5589294,2.6670227,3.0023193,4.9839783,4.2645874,7.3937683
	c0.1235657,0.2362671,0.2145691,0.5214539,0.2862854,0.8172607c1.6385193,0.0699463,3.2814636,0.1242676,4.9371033,0.1242676
	c1.7115173,0,3.4089966-0.0543213,5.1012573-0.1278076c-0.4444885-0.5460205-0.9327393-1.0587463-1.4979858-1.4979553
	c-3.5700073-2.7667542-7.3431702-5.2692871-11.2238159-8.0290222c1.0072937-1.9740601,2.3971558-4.2227478,3.3341064-6.6447449
	c1.3539734-3.50354,3.5027771-5.0610046,7.4014587-4.7302551c3.6994629,0.3132019,7.0804749-0.8242798,9.7702332-3.7135315
	c13.2912598-14.2747803,26.6577454-28.4812317,39.9472656-42.757782c3.6837769-3.9567261,8.1514893-7.5721741,10.5682373-12.2237244
	c3.6277466-6.9807739,6.5905151-14.54953,8.3300171-22.209259c2.3887329-10.5227356,3.1640015-21.3996887,5.0014954-32.0614014
	c2.3502502-13.6416931,5.0469971-27.2243347,7.6054993-40.8302612
	C390.0477295,334.4314575,390.0075073,333.8205566,389.6399841,333.7243042L389.6399841,333.7243042z M331.0342712,449.9832458
	c2.7614746-21.5932312,41.7654724-73.3855896,41.7654724-73.3855896l1.1690063-0.179657
	c4.7705078,0.2510986-7.0314941,33.1419983-9.5410156,43.9377747
	C361.9165039,431.1514893,328.2727356,471.5747375,331.0342712,449.9832458L331.0342712,449.9832458z M304.9042969,365.1243896
	c-1.138916,0.7741699-3.2103577,2.094574-3.5628357,1.7677917c-1.3446655-1.2444153-3.0483093-3.0852051-3.0010681-4.6550293
	c0.116394-3.8775635,1.1253967-7.7281189,1.7757263-11.5896912c0.2954102-0.0801392,0.5906067-0.1602478,0.8862305-0.2402649
	c1.5404968,2.3985596,2.9415588,4.9022827,4.6551514,7.1690979
	C307.8222351,360.4382019,308.1057739,362.9482727,304.9042969,365.1243896L304.9042969,365.1243896z M317.5189819,396.3615112
	c-2.6652527,3.2619934-4.5814819,7.1382141-6.8862305,10.8324585c-10.3874817-7.8679504-18.807251-17.1511536-30.2702637-22.1850586
	c-0.208252,0.2574158-0.4163208,0.5144958-0.6244202,0.7715454c0.8683472,0.9450073,1.7115173,1.9141541,2.609436,2.8305054
	c5.9814758,6.1034241,11.9668274,12.2025146,17.9695435,18.2872925c1.5422363,1.5627136,2.2901917,3.1097107,0.3641663,4.917511
	c-3.5098267,3.296936-6.9149475,6.7129822-10.5657959,9.84375c-0.8283081,0.7104492-2.7252808,0.997467-3.7133179,0.552948
	c-3.9299927-1.7692261-7.6671448-3.9602356-11.5330505-5.8799744c-1.393158-0.6929932-2.8461609-1.2635193-4.2976685-1.8375244
	c3.3701782,4.0267944,6.6853943,8.1025696,10.2077637,11.9910278c1.4579468,1.6099854,1.7471924,2.6390076,0.027832,4.1142273
	c-2.4309387,2.0895081-4.7489929,4.3085632-7.5748596,6.8914795c-2.520874-5.0032043-5.2668152-9.6599731-7.2646179-14.6177368
	c-2.1148682-5.2481995-5.1701965-10.3214722-5.8468933-15.9932251c-0.2171631-0.6422424-0.4329834-1.3282471-0.6470032-2.080719
	c-5.8213806-20.4580383-1.3996277-34.208313,8.7398376-39.0609436c1.8996582-1.1953735,4.2719421-1.8517761,7.1137695-1.9241028
	c0.2899475-0.0071411,0.5717163,0.0021362,0.8590393,0.0003967c1.0379639-0.0474243,2.1075745-0.0308228,3.2067261,0.0516357
	c0.7679138,0.0575562,1.5144348,0.1551819,2.2513733,0.2703247c9.420929,1.2332458,17.1202393,5.9472351,22.9473877,14.380249
	c2.2487793,3.2545166,4.6112671,6.4313049,6.9212646,9.6435852c0.3079834-0.1741333,0.6142273-0.3478699,0.9222412-0.5214844
	c-1.4035034-3.9013062-2.6879883-7.8504944-4.2455139-11.6889343c-1.3369751-3.2940674-1.0132141-6.0042419,2.2190247-8.5316772
	c0.6772461,1.2458496,1.3632507,2.3243713,1.8760071,3.4799194c1.9949951,4.5003052,3.6434937,9.1843567,5.9814758,13.4960022
	C320.6199951,388.7367859,320.809021,392.3348999,317.5189819,396.3615112L317.5189819,396.3615112z M375.8779907,363.9128113
	c-2.4394836,1.7053528-4.7652283,3.6888428-6.7672729,5.8885803
	c-10.9969788,12.0844421-20.2649536,25.3980713-27.4399719,40.0893555
	c-2.9662781,6.0725098-5.4389954,12.3865051-8.1375122,18.590271c0.007019,0.003479,0.0157776,0.008728,0.0227661,0.0122375
	c-3.9164734,9.1349487-8.6065063,20.0970154-8.6065063,20.2160034c0,0.0595093-0.4129944,1.0115051-0.9922485,2.3204956
	c-2.2697449,4.5780334-4.5097656,9.1699829-6.8057556,13.7339783c-3.5017395,6.9580078-5.895752,14.8557739-14.5930481,17.5157471
	c-1.2953796,0.3972778-2.5144043,1.0447388-4.3269043,1.8112183c0.0064697-6.4364624,0.1896973-11.9541931,3.3372803-17.2146606
	c2.9644775-4.9542847,2.2391052-6.1897888-3.1599731-8.4927979c-1.791687-0.7647095-3.1495056-0.7349854-4.0918884,1.3860474
	c-0.8132019,1.8305359-2.0256042,3.4824829-3.0614319,5.2131958c-0.056366-1.6589966,0.3395081-3.0485229,1.0461426-4.257782
	c1.6396179-2.8070068,1.1249084-4.4379578-1.7123718-6.4434509c-3.1729126-2.2417603-5.5574646-5.5999756-8.2848511-8.4717712
	c0.2933044-0.3254395,0.5865784-0.649231,0.8797607-0.9729919c1.23526,0.6352539,2.480072,1.2513123,3.7042236,1.9075623
	c10.0748901,5.3899536,8.010437,4.9874573,11.5112915-5.4215393c0.7537231-2.2400208,0.072998-3.9007568-1.9641724-5.2237854
	c-2.8243408-1.8340149-5.5748291-3.7974854-8.2131348-5.8869629c-0.6455688-0.5127563-0.7313232-1.7307434-1.0743103-2.6232605
	c0.960907-0.0070496,2.1003418-0.3552551,2.8505859,0.0385132c2.769165,1.4525452,5.3787842,3.2042542,8.1089478,4.7372437
	c1.9222107,1.0780029,3.1902466,0.9345093,3.8916626-1.6835022c1.6443176-6.1424561,3.5829468-12.2062683,5.486969-18.2752991
	c1.3334656-4.2489624,2.8909607-4.6322021,6.3734741-1.8532104c3.7590332,3.0012207,7.5512695,5.9657288,11.3907471,8.861969
	c3.291748,2.4850464,5.9552612,1.300293,6.3035278-2.8980103c0.2992249-3.6031799,0.1644897-7.1085205-1.9512634-10.4177551
	c-2.523468-3.9427185-4.3872375-8.3088989-6.9265137-12.2410278c-1.9074707-2.9564819-0.659729-5.014801,1.2302551-6.9683228
	c0.3937683-0.4073792,2.3082886-0.1684875,2.6600037,0.3532715c1.3334961,1.9831238,2.1507568,4.3106079,3.4649963,6.3109131
	c1.8865051,2.8712463,3.8989868,5.6869812,6.1285095,8.2962036c1.2879944,1.5085144,2.5707397,1.196991,3.5297241-0.8399658
	c2.1402588-4.5465393,3.9550171-9.0951538,2.0895081-14.1734619c-1.4839783-4.0435486-2.9679871-8.0970459-4.70047-12.0376892
	c-1.9232483-4.3774719-1.538269-5.2677002,3.3827209-6.1197815c2.3485107,4.1412354,4.59552,8.379364,7.1470032,12.4250183
	c0.6947327,1.1007385,3.1465149,2.4801025,3.3634949,2.2685242c1.3405151-1.3086548,3.3250122-3.1706543,3.1412659-4.5974426
	c-0.5249939-4.0834045-1.7692566-8.1222839-3.1377258-12.0354309c-1.3877869-3.961853-1.1725159-4.8392944,3.2304993-6.4750061
	c2.3309937,3.4902344,1.3597107,9.1049194,7.1522522,10.0502014c1.6974792-2.8720398,2.3239746-5.7486877,1.1689758-8.9638367
	c-0.5232544-1.4570007-1.1042175-3.0755615-0.9344788-4.5370178c0.1172485-1.006073,1.3422241-2.1131592,2.3502197-2.6695862
	c0.3850403-0.2123108,1.7885132,0.8206787,2.303009,1.5759888c0.986969,1.4484863,1.6677551,3.1041565,2.5024719,4.7259216
	c5.1642761-2.135376,5.1170349-5.783783,3.1815491-9.9268799c1.9057312-0.8825378,3.3774719-1.5637817,5.0977173-2.3598938
	c0.8347778,1.8434448,1.5785217,3.3409424,2.2032471,4.8863525
	C381.4570007,358.5571289,380.7132568,360.5337219,375.8779907,363.9128113L375.8779907,363.9128113z M318.1210022,440.0205078
	c1.0692444-3.9602966,3.3547668-8.6748047,2.0947266-11.9175415c-1.7814941-4.5832214-6.2894897-8.1077271-10.1307373-12.6787415
	c-3.7939758,6.6745605-5.45401,12.8432922-6.3778687,19.2203064c-0.1132202,0.7839355,0.8214417,2.1524658,1.6213684,2.5549316
	c3.0782471,1.5505371,6.243988,2.9942627,9.507782,4.0809937
	C315.7427673,441.5797424,317.9320068,440.7257385,318.1210022,440.0205078L318.1210022,440.0205078z M300.7830505,443.6010132
	c-0.7881775,1.7307739-1.5867004,3.4562988-2.360199,5.1940308c-1.4797974,3.3232117-0.9959412,4.2226868,2.5267944,4.7651672
	c1.1808777,0.1802368,2.3598938,0.3780518,4.4576111,0.7174988c1.8042603-0.0367432,3.4142456,0.0105286,4.5534668-3.057251
	c0.2344971-0.6334534-0.8942261-2.8104858-1.7062378-4.1124573c-0.9432373-1.5102539-2.1822205-2.8384705-3.3291931-4.2157593
	C302.944458,440.5104675,302.1237183,440.6592407,300.7830505,443.6010132L300.7830505,443.6010132z M281.8893127,506.0059509
	c-0.3900452,0.3500366-0.7622375,0.7297974-1.1476135,1.0868225c2.1780396,0.4882202,4.375,0.9257202,6.5983582,1.2862549
	c0.0082397-0.0665283,0.0245056-0.1487732,0.0297852-0.211731c0.112854-1.3072815-1.0550842-2.724762-1.631897-4.0915222
	C284.44104,504.7040405,282.9176636,505.0802612,281.8893127,506.0059509L281.8893127,506.0059509z"/>
<radialGradient id="SVGID_3_" cx="324.4232483" cy="428.9550781" r="69.5147858" gradientUnits="userSpaceOnUse">
	<stop  offset="0" style="stop-color:#A71E27"/>
	<stop  offset="0.1816989" style="stop-color:#A22228"/>
	<stop  offset="0.4223733" style="stop-color:#932928"/>
	<stop  offset="0.6960651" style="stop-color:#7B2E29"/>
	<stop  offset="0.9923287" style="stop-color:#5D2F2A"/>
	<stop  offset="1" style="stop-color:#5C2F2A"/>
</radialGradient>
<path class="st4" d="M379.2309875,353.0455017c-0.6247253-1.5454102-1.3684692-3.0429077-2.2032471-4.8863525
	c-1.7202454,0.7961121-3.1919861,1.4775085-5.0977173,2.3601074c1.9354858,4.1428833,1.9827271,7.7912903-3.1815491,9.9268494
	c-0.8347168-1.6219482-1.5155029-3.2776184-2.5024719-4.7261047c-0.5144958-0.7553101-1.9179688-1.7882996-2.303009-1.5759888
	c-1.0079956,0.556427-2.2329712,1.6635132-2.3502197,2.6695862c-0.1697388,1.4614563,0.4112244,3.0800171,0.9344788,4.5370178
	c1.1549988,3.2151489,0.5285034,6.0917969-1.1672668,8.9638367c-5.7942505-0.9450989-4.821228-6.5601807-7.1522217-10.0500488
	c-4.4047546,1.6357117-4.6200256,2.5130005-3.2322388,6.4748535c1.3684692,3.913147,2.6127319,7.9520264,3.1377258,12.0354309
	c0.1837463,1.4267883-1.8007507,3.2887878-3.1412659,4.5974426c-0.21698,0.211731-2.6687622-1.1677856-3.3634949-2.2683716
	c-2.5514832-4.0458069-4.7984924-8.2839355-7.1470032-12.4251709c-4.92099,0.8520813-5.3059692,1.7423096-3.3827209,6.1197815
	c1.7324829,3.9406433,3.2164917,7.9941406,4.70047,12.0376892c1.865509,5.0784607,0.0507507,9.6269226-2.0895081,14.1734619
	c-0.9589844,2.0369568-2.2417297,2.3484802-3.5297241,0.8399658c-2.2295227-2.6092224-4.2420044-5.4249573-6.1285095-8.2962036
	c-1.3142395-2.0003052-2.1315002-4.3277893-3.4649963-6.3109131c-0.3517151-0.5216675-2.2662354-0.760498-2.6600037-0.3532715
	c-1.8899841,1.9535217-3.1377258,4.0120544-1.2302551,6.9683228c2.5392761,3.9321289,4.4030457,8.2983093,6.9265137,12.2410278
	c2.1157532,3.3092346,2.2504883,6.8145752,1.9512634,10.4177551c-0.3482666,4.1983032-3.0117798,5.3830566-6.3035278,2.8980103
	c-3.8394775-2.8962402-7.6317139-5.8607483-11.3907471-8.861969c-3.4807434-2.7789917-5.0400085-2.395752-6.3734741,1.8532104
	c-1.9040222,6.0690308-3.842865,12.132843-5.486969,18.2752991c-0.7012329,2.6180115-1.969635,2.7615051-3.8916626,1.6835022
	c-2.7299805-1.5329895-5.3397827-3.2846985-8.1089478-4.7372437c-0.7504272-0.3937683-1.8898621-0.0455627-2.8505859-0.0385132
	c0.3429871,0.8925171,0.4287415,2.1105042,1.0743103,2.6232605c2.6381531,2.0894775,5.3887939,4.052948,8.2132874,5.8869629
	c2.0370178,1.3230286,2.7177429,2.9837646,1.9640198,5.2237854c-3.5007019,10.4089966-1.4364014,10.8114929-11.5112915,5.4215393
	c-1.2241516-0.65625-2.4689636-1.2723083-3.704071-1.9075623c-0.293335,0.323761-0.5866089,0.6493225-0.8799133,0.9729919
	c2.7275391,2.8717957,5.1121216,6.230011,8.2848511,8.4717712c2.8372803,2.0054932,3.3519897,3.6364441,1.7123718,6.4434509
	c-0.7066345,1.209259-1.1025085,2.5987854-1.0461426,4.257782c1.0356445-1.7307129,2.24823-3.3826599,3.0614319-5.2131958
	c0.9423828-2.1210327,2.3002014-2.1507568,4.0918884-1.3860474c5.3990784,2.303009,6.1244507,3.5385132,3.1599731,8.4927979
	c-3.1473694,5.2604675-3.3308105,10.7781982-3.3370972,17.2146606c1.8123169-0.7664795,3.0313416-1.4139404,4.3267212-1.8112183
	c8.6972961-2.6599731,11.0930481-10.5577393,14.5930481-17.5157471c2.29599-4.5639954,4.5360107-9.1559448,6.8057556-13.7339783
	c0.5792542-1.3089905,0.9922485-2.2609863,0.9922485-2.3204956c0-0.118988,4.690033-11.0810547,8.6065063-20.2160034
	c-0.0069885-0.0035095-0.0157471-0.0087585-0.0227661-0.0122375c2.6985168-6.2037659,5.1712341-12.5177612,8.1375122-18.590271
	c7.1767578-14.6912842,16.4429932-28.0049133,27.4399719-40.0893555c2.0020447-2.1997375,4.3277893-4.1832275,6.7672729-5.8885803
	C380.7132568,360.5337219,381.4570007,358.5571289,379.2309875,353.0455017L379.2309875,353.0455017z M304.925293,442.8922424
	c1.1469727,1.3772888,2.3859558,2.7055054,3.3291931,4.2157593c0.8120117,1.3019714,1.9407349,3.4790039,1.7062378,4.1124573
	c-1.1374817,3.0677795-2.7492065,3.0205078-4.5534668,3.057251c-2.0977173-0.339447-3.2767334-0.537262-4.4577942-0.7174988
	c-3.5225525-0.5424805-4.0064087-1.4419556-2.5264587-4.7651672c0.773468-1.7377319,1.5718689-3.4632568,2.3602295-5.1940308
	C302.1237183,440.6592407,302.944458,440.5104675,304.925293,442.8922424L304.925293,442.8922424z M318.1227417,440.0205078
	c-0.1907349,0.7052307-2.3799744,1.5592346-3.2864685,1.2599487c-3.2637939-1.0849915-6.4277954-2.5304565-9.507782-4.0809937
	c-0.7999268-0.4024658-1.7345886-1.7709961-1.6211853-2.5549316c0.9236755-6.3770142,2.5837097-12.5457458,6.3776855-19.2203064
	c3.8412476,4.5710144,8.3492432,8.09552,10.1307373,12.6787415
	C321.475769,431.3457031,319.1902466,436.0602112,318.1227417,440.0205078L318.1227417,440.0205078z M288.7323608,497.2612305
	c-5.4804688,1.31604-11.0520935,2.4605103-16.3201599,4.4047546c-1.6972961,0.6265564-3.012085,1.2530212-3.9945374,1.9127808
	c4.0103149,1.3965149,8.1228027,2.5689697,12.3240356,3.5140076c0.385376-0.3570251,0.7575684-0.7367859,1.1476135-1.0868225
	c1.0283508-0.9256897,2.5515442-1.3019104,3.8484497-1.9301758c0.5769958,1.3667603,1.7449341,2.7842407,1.6320801,4.0932312
	c-0.0052795,0.0612488-0.0217285,0.1434937-0.0297852,0.210022c4.3806152,0.7139893,8.8431091,1.1777039,13.3770447,1.3720093
	c-0.0717773-0.2958069-0.1627808-0.5809937-0.2863464-0.8172607c-1.2622681-2.40979-2.7058105-4.7267456-4.26474-7.3937683
	c-2.1439209,0.3937073-4.2008667-0.0700073-4.9106445-3.1430359
	C291.1237488,497.8265381,289.4771729,497.0827637,288.7323608,497.2612305L288.7323608,497.2612305z"/>
<radialGradient id="SVGID_4_" cx="352.9830933" cy="416.3255005" r="32.2602959" gradientUnits="userSpaceOnUse">
	<stop  offset="0" style="stop-color:#A71E27"/>
	<stop  offset="0.1816989" style="stop-color:#A22228"/>
	<stop  offset="0.4223733" style="stop-color:#932928"/>
	<stop  offset="0.6960651" style="stop-color:#7B2E29"/>
	<stop  offset="0.9923287" style="stop-color:#5D2F2A"/>
	<stop  offset="1" style="stop-color:#5C2F2A"/>
</radialGradient>
<path class="st5" d="M372.7997437,376.5976562c0,0-39.0039978,51.7923584-41.7654724,73.3855896
	c-2.7615356,21.5914917,30.8822327-18.8317566,33.3934631-29.6274719
	c2.511261-10.7957764,14.3115234-43.686676,9.5410156-43.9377747L372.7997437,376.5976562L372.7997437,376.5976562z"/>
<radialGradient id="SVGID_5_" cx="288.4457397" cy="393.9494629" r="38.0295792" gradientUnits="userSpaceOnUse">
	<stop  offset="0" style="stop-color:#A71E27"/>
	<stop  offset="0.1816989" style="stop-color:#A22228"/>
	<stop  offset="0.4223733" style="stop-color:#932928"/>
	<stop  offset="0.6960651" style="stop-color:#7B2E29"/>
	<stop  offset="0.9923287" style="stop-color:#5D2F2A"/>
	<stop  offset="1" style="stop-color:#5C2F2A"/>
</radialGradient>
<path class="st6" d="M318.2662354,384.394989c-2.3379822-4.3114319-3.9864807-8.995697-5.9814758-13.4960022
	c-0.5127563-1.1555481-1.198761-2.2340698-1.8760071-3.4799194c-3.2322388,2.5272217-3.5559998,5.2378235-2.2190247,8.5316772
	c1.5575256,3.8384399,2.8420105,7.7876282,4.2455139,11.6889343c-0.3080139,0.1737671-0.6142578,0.3475037-0.9222412,0.5214844
	c-2.3099976-3.2124634-4.6724854-6.3890686-6.9212646-9.6435852c-5.8271484-8.4330139-13.5264587-13.1470032-22.9473877-14.380249
	c-0.7369385-0.1151428-1.4834595-0.2127686-2.2513733-0.2703247c-1.098999-0.0824585-2.1687622-0.0990601-3.2067261-0.0514832
	c-0.287323,0.00177-0.5690918-0.0076904-0.8590393-0.0005493c-2.8418274,0.0723267-5.2141113,0.7287292-7.1137695,1.9241028
	c-10.1394653,4.8527832-14.5612183,18.6029053-8.7398376,39.0609436c0.2140198,0.7524719,0.4298401,1.4384766,0.6467896,2.080719
	c0.6769104,5.6717529,3.7322388,10.7450256,5.84729,15.9932251c1.9976196,4.9577637,4.7433777,9.6145325,7.2644348,14.6177368
	c2.8258667-2.5829163,5.144104-4.8019714,7.5748596-6.8914795c1.7193604-1.4752197,1.4301147-2.5042419-0.027832-4.1142273
	c-3.522583-3.8884583-6.8375854-7.9660034-10.2079163-11.9910278c1.4516602,0.5740051,2.90448,1.1463013,4.297821,1.8375244
	c3.8659058,1.9197388,7.6030579,4.1107483,11.5330505,5.8799744c0.9880371,0.444519,2.8850098,0.1575012,3.7133179-0.552948
	c3.6508484-3.1307678,7.0559692-6.546814,10.5657959-9.84375c1.9260254-1.8078003,1.1779175-3.3547974-0.3643799-4.917511
	c-6.0026245-6.0847778-11.987854-12.1838684-17.9693298-18.2872925c-0.8977661-0.9161682-1.7410889-1.885498-2.609436-2.8302917
	c0.2080994-0.2572632,0.4161682-0.5143433,0.6244202-0.771759c11.4628296,5.033905,19.882782,14.3171082,30.2702637,22.1850586
	c2.3047485-3.6942444,4.2209778-7.5704651,6.8862305-10.8324585
	C320.809021,392.3348999,320.6199951,388.7367859,318.2662354,384.394989L318.2662354,384.394989z M305.6575012,357.5762939
	c-1.7135925-2.2668152-3.1148376-4.7703857-4.6551514-7.1690979c-0.2954102,0.0801086-0.5908203,0.1601257-0.8862305,0.2402649
	c-0.6503296,3.8615723-1.6593323,7.7121277-1.7758789,11.5896912c-0.0469055,1.5698242,1.6565552,3.4107666,3.0012207,4.6551819
	c0.352478,0.326416,2.4239197-0.9935608,3.5630188-1.7677917
	C308.1057739,362.9482727,307.8239746,360.4382019,305.6575012,357.5762939L305.6575012,357.5762939z"/>
<path class="st7" d="M183.6590424,438.4332581c0.6746216-0.6842346,1.2190399-1.5715332,1.4754333-2.4920349
	c0.3126984-1.1234436,0.2346649-2.1192017-0.1398621-3.2672119c-0.9864655-3.0222778-3.6331482-4.6007385-6.5147095-3.6593018
	c-1.3989105,0.4568481-2.1113892,1.2145691-2.6304474,2.2802734c-0.5379028,1.1025085-0.6282043,2.1525269-0.7263641,2.9907837
	l-0.2353668,1.9355164c-0.1279602,1.1252747-0.2263336,1.9617004-0.5563202,2.6582336
	c-0.3963776,0.8731689-1.041626,1.3614502-1.8809509,1.6362305c-1.8745422,0.6108093-4.0858612,0.00177-4.9171295-2.5462646
	c-0.3104401-0.9502563-0.3881531-1.9477844,0.1584015-3.0240173c0.3863373-0.7139587,1.0798645-1.4332275,2.013504-1.8934937
	l-1.2162018-1.8287048c-1.0370941,0.6159668-2.1414642,1.5959778-2.7350769,2.8087463
	c-0.8372345,1.6957397-0.5861206,3.3162537-0.1842957,4.5482483c1.0961456,3.3582764,4.2160645,5.153717,7.6574707,4.0302124
	c1.3429413-0.439209,2.306488-1.1864624,2.9478455-2.4464417c0.528183-1.0360413,0.7030334-2.2084961,0.8223877-3.4544983
	l0.1987762-2.0475464c0.0794678-0.7997437,0.1588898-1.6012573,0.5358734-2.3432617
	c0.311142-0.657959,0.6668854-0.9922485,1.3943787-1.2285156c1.7345581-0.5669556,3.3019104,0.3464966,3.904541,2.1945496
	c0.3472443,1.0622559,0.2026825,1.853241,0.0417175,2.3082581c-0.1988373,0.5284424-0.6212769,1.1322021-1.0426941,1.5487061
	L183.6590424,438.4332581L183.6590424,438.4332581z M171.3344879,453.8944702l13.5535736-6.7707214l-7.5055847,20.8529663
	l18.3433228-9.1646729l-0.9712372-1.9443054l-13.6062317,6.7969971l7.5055389-20.8529663l-18.2906189,9.1384888
	L171.3344879,453.8944702L171.3344879,453.8944702z M190.5884857,485.9667664l1.4245453,1.9424744l11.3830719-19.2534485
	l-21.9240265,4.8754578l1.4244843,1.9424744l5.8533783-1.3702393l4.9423828,6.7410278L190.5884857,485.9667664
	L190.5884857,485.9667664z M190.9128265,473.5750427l8.3226471-1.9407654l-4.3896942,7.3062134L190.9128265,473.5750427
	L190.9128265,473.5750427z M210.4257965,479.3167419l-14.0033112,13.7462158l1.522644,1.5505371l6.0895386-5.9779663
	l1.3406982,1.3666992c3.1340179,3.1920166,6.2985229,2.5147095,8.273468,0.5757751
	c0.8824768-0.8662415,1.8751221-2.3345337,1.7480774-4.2262878c-0.1099091-1.74646-1.0972748-3.0887146-2.4790955-4.4957275
	L210.4257965,479.3167419L210.4257965,479.3167419z M210.4812775,482.3074646l1.1343994,1.1567688
	c0.989975,1.0080261,2.82164,3.2952576,0.5946198,5.4809875c-1.6178741,1.5873108-3.6352844,1.3807983-5.4502258-0.4672546
	l-1.2580261-1.2827454L210.4812775,482.3074646L210.4812775,482.3074646z"/>
<path class="st8" d="M228.9912109,501.1584778l2.3173218-3.0379333l-10.3848267-7.9205627l-2.3174896,3.0380554l3.3925476,2.5881958
	l-9.5821686,12.5632629l3.6001434,2.7458191l9.5821381-12.565033L228.9912109,501.1584778L228.9912109,501.1584778z
	 M234.436142,500.5915222l-9.9471436,16.9137268l3.9026794,2.2960205l3.9230042-6.6709595l0.6450043,9.3571777l4.7656097,2.8018188
	l-1.1243744-9.9803467c1.0717163,0.3237915,2.2060547,0.3098145,3.1165771,0.0945435
	c1.7153625-0.4217529,2.7196808-1.6082764,3.3465271-2.6740112c1.1046143-1.8777161,1.0598145-3.5420532,0.7524872-4.6427307
	c-0.3638153-1.2373047-1.2897186-2.7370605-3.4467773-4.0057678L234.436142,500.5915222L234.436142,500.5915222z
	 M236.5508423,505.9272461l0.9138641,0.5372925c0.5077057,0.2991943,1.4931183,0.9467468,1.8441772,1.8023987
	c0.1807556,0.4480896,0.3391571,1.2233276-0.2280121,2.187561c-0.4926758,0.8382568-1.161499,1.1619873-1.60495,1.2775269
	c-1.0480957,0.2712097-2.0572968-0.22052-2.768158-0.6370239l-0.8884888-0.5232849L236.5508423,505.9272461L236.5508423,505.9272461
	z M256.5021057,533.3375244l4.3999939,1.6642456l-0.2971191-21.0910034l-3.8771362-1.4665527L242.383606,527.99823
	l4.4000244,1.6642456l2.7165375-2.9364624l6.9355927,2.62323L256.5021057,533.3375244L256.5021057,533.3375244z
	 M251.96698,523.9505005l4.6143799-5.3024902l-0.0759277,7.0192261L251.96698,523.9505005L251.96698,523.9505005z
	 M271.056488,517.6119995l-4.1528931,19.1782837l4.4250183,0.9572144l1.4572449-6.7287598l2.7051392,0.5861816
	c1.3527527,0.2922974,3.3962402,0.5845337,5.2550659-0.6369629c0.8802795-0.5914307,2.0921326-1.7429199,2.6157532-4.159668
	c0.2866211-1.3248291,0.4677734-3.272522-0.8591003-5.0627441c-1.2304077-1.6800537-3.0208435-2.3082886-4.6899719-2.6705322
	L271.056488,517.6119995L271.056488,517.6119995z M274.6977234,522.1900635l1.4964294,0.3236694
	c0.8634338,0.1872559,1.7944336,0.4795532,2.3192749,1.2565308c0.3443909,0.4952393,0.4889526,1.2196655,0.3144531,2.0247192
	c-0.1807556,0.8347778-0.6406555,1.4280396-1.1308289,1.744751c-0.8690491,0.5337524-1.9400635,0.3325195-2.5444946,0.2012329
	l-1.5828857-0.3429565L274.6977234,522.1900635L274.6977234,522.1900635z"/>
<path d="M305.8937378,531.8394165c0.0857544,2.2628174,2.0072327,4.0443115,4.2700195,3.9585571
	c2.2644958-0.0856934,4.04599-2.0072021,3.9602661-4.2700195c-0.0857544-2.2626953-2.0072632-4.0441895-4.2700195-3.9584351
	S305.8097534,529.5767212,305.8937378,531.8394165L305.8937378,531.8394165z"/>
<path class="st7" d="M347.072998,518.2052612c-0.664978-0.6930542-1.536499-1.2617798-2.4482727-1.5435181
	c-1.1147156-0.3447266-2.1139832-0.2940063-3.2707214,0.0490112c-3.0484924,0.9012451-4.698761,3.503479-3.8394775,6.4102173
	c0.4182129,1.4105225,1.1549683,2.1437988,2.2067261,2.6932983c1.0867615,0.5687256,2.1350098,0.6877441,2.9697571,0.8084717
	l1.9267578,0.2888184c1.1217346,0.1592407,1.9564819,0.2816162,2.6424866,0.6300049
	c0.8609619,0.4216919,1.3334961,1.0797119,1.5837708,1.9266357c0.5582275,1.8900757-0.1120605,4.0845947-2.6810303,4.8441162
	c-0.9590149,0.2833862-1.958252,0.3341064-3.0187683-0.2415771c-0.7034912-0.4060059-1.4034729-1.1199951-1.8374634-2.0667114
	l-1.8619995,1.1654663c0.5879822,1.0535278,1.536499,2.18573,2.73349,2.8122559
	c1.6694946,0.8837891,3.2987366,0.6772461,4.5394897,0.3097534c3.388031-1.0027466,5.2692261-4.0704956,4.2420044-7.5424805
	c-0.4007568-1.3545532-1.1217346-2.3379517-2.3624878-3.0134888c-1.0237732-0.5582275-2.1892395-0.7648315-3.4317322-0.9187622
	L343.125,524.5612793c-0.7980042-0.1015625-1.5960083-0.2030029-2.3274841-0.6002808
	c-0.6510315-0.3289795-0.9729919-0.6947021-1.190033-1.4279785c-0.5179749-1.750061,0.4375-3.2918091,2.3012695-3.8430176
	c1.0727234-0.3167114,1.85849-0.1504517,2.3099976,0.0227661c0.5232239,0.213501,1.1129761,0.65271,1.5172424,1.085022
	L347.072998,518.2052612L347.072998,518.2052612z M362.1422424,530.7930298l-6.7147522-13.5817871l20.8215027,7.5914307
	l-9.0859985-18.3802185l-1.9494934,0.9625549l6.7409668,13.6342163l-20.8214722-7.5932617l9.0597534,18.3295288
	L362.1422424,530.7930298L362.1422424,530.7930298z M394.4087524,511.8632812l1.9512634-1.4157715l-19.1957703-11.478302
	l4.7652893,21.9485168l1.9494934-1.4157715l-1.3422852-5.8607178l6.7655029-4.9069824L394.4087524,511.8632812
	L394.4087524,511.8632812z M382.0205078,511.4764709l-1.9005127-8.3317261l7.2852478,4.4257812L382.0205078,511.4764709
	L382.0205078,511.4764709z M387.9809875,492.1302795l13.67099,14.0752563l1.5592651-1.515564l-5.9447632-6.1196899
	l1.3737793-1.3335571c3.2094727-3.1184692,2.5480042-6.2859497,0.6195068-8.2704773
	c-0.8610229-0.8872681-2.3240051-1.8882446-4.2175293-1.7710266c-1.74823,0.101532-3.0939636,1.0815125-4.5097046,2.4552612
	L387.9809875,492.1302795L387.9809875,492.1302795z M390.9735413,492.0899658l1.1601868-1.1287231
	c1.0150146-0.98349,3.3110352-2.8035583,5.4845276-0.5652161c1.5802307,1.6257324,1.3632202,3.6416931-0.4952698,5.4477234
	l-1.2879944,1.2512817L390.9735413,492.0899658L390.9735413,492.0899658z"/>
<path class="st8" d="M410.3529968,473.5574646l-2.9697571-2.40448l-8.2179871,10.1499634l2.9697266,2.404541l2.6845398-3.3162842
	l12.2814636,9.943512l2.8490295-3.5192261l-12.2815247-9.9417419L410.3529968,473.5574646L410.3529968,473.5574646z
	 M409.633728,468.4457397l16.8683167,10.0256958l2.3117065-3.8919373l-6.6517334-3.9549561l9.3607178-0.6020508l2.8244934-4.7513123
	l-9.9854736,1.078125c0.3272705-1.0710754,0.318512-2.2050781,0.10849-3.1167603
	c-0.4147644-1.7168579-1.5960083-2.726532-2.6600037-3.3582764c-1.8724976-1.1130676-3.5367432-1.0762329-4.6392212-0.7735901
	c-1.2390137,0.3570862-2.7422791,1.2775879-4.0214844,3.4283447L409.633728,468.4457397L409.633728,468.4457397z
	 M414.978241,466.3562927l0.542511-0.9118042c0.3009949-0.5057068,0.9519958-1.4892578,1.8094788-1.8357544
	c0.4497681-0.1784973,1.2267761-0.3342285,2.1875305,0.2380066c0.8364868,0.4970093,1.1567688,1.1672974,1.2687378,1.6117859
	c0.2677612,1.0482178-0.2275085,2.0562439-0.6492615,2.7649841l-0.5267334,0.8855286L414.978241,466.3562927L414.978241,466.3562927
	z M442.649231,446.6145325l1.6800232-4.3943481l-21.0927734,0.2223511l-1.4787598,3.8726501l15.5032654,14.3990479
	l1.6782532-4.3942261l-2.9259949-2.7282715l2.6477661-6.9264832L442.649231,446.6145325L442.649231,446.6145325z
	 M433.246521,451.115448l-5.2850037-4.6322021l7.0174866,0.099762L433.246521,451.115448L433.246521,451.115448z
	 M427.0637512,431.5557556l19.0574951,4.6742249l1.0780029-4.3959656l-6.6867371-1.6415405l0.659729-2.6879578
	c0.32901-1.3440247,0.6772766-3.3792725-0.4934998-5.2709961c-0.5669861-0.8942871-1.6852417-2.1385193-4.0862122-2.726532
	c-1.31604-0.3237-3.2585449-0.5582581-5.0855408,0.7192688c-1.7115173,1.1846924-2.3887329,2.9574585-2.7964783,4.6164551
	L427.0637512,431.5557556L427.0637512,431.5557556z M431.7397766,428.0417175l0.3639526-1.4874573
	c0.2117615-0.8574829,0.5285034-1.7815247,1.3194885-2.2837524c0.5057983-0.330719,1.2337952-0.4567566,2.0335083-0.2590027
	c0.8294983,0.2030029,1.4105225,0.6789856,1.7115173,1.1777649c0.5110168,0.8819885,0.2799988,1.9477539,0.1330261,2.5479736
	l-0.3850403,1.5732422L431.7397766,428.0417175L431.7397766,428.0417175z"/>
<path d="M169.7983246,397.0159607c2.2629547,0.0857544,4.1853027-1.6950073,4.2718201-3.9579468
	c0.0864105-2.263092-1.6945648-4.1853027-3.9574738-4.2717285c-2.2629089-0.0864563-4.1853638,1.6943665-4.2717743,3.957428
	C165.7545929,395.0066833,167.5354156,396.9284668,169.7983246,397.0159607L169.7983246,397.0159607z"/>
<path class="st7" d="M169.5491791,353.6683044c-0.9392395,0.2010803-1.8821716,0.6448975-2.6006927,1.2723083
	c-0.8785248,0.7678528-1.3603058,1.6436157-1.6770477,2.8083801c-0.8345795,3.0679016,0.511734,5.839386,3.4366608,6.6350708
	c1.4199524,0.3862305,2.4314575,0.1438904,3.450119-0.461792c1.0549164-0.6264954,1.7076416-1.4558411,2.2492828-2.1015625
	l1.2587738-1.4882202c0.724884-0.8706055,1.2666321-1.5165405,1.9246979-1.9172974
	c0.8100586-0.5117493,1.617981-0.5666504,2.4699097-0.3347473c1.9027405,0.5174866,3.4163055,2.2412109,2.7132263,4.8263245
	c-0.2627106,0.9657898-0.7450104,1.8413086-1.792572,2.4412231c-0.7145081,0.3843079-1.6899719,0.6059875-2.7224579,0.4773865
	l0.0124359,2.1969604c1.205368,0.0534058,2.6662903-0.1590271,3.8286591-0.8477173
	c1.6299438-0.9568481,2.3101196-2.4499207,2.6501617-3.6997681c0.9271698-3.4090576-0.6956177-6.6216736-4.1886139-7.5719299
	c-1.3630829-0.3708496-2.578598-0.2752991-3.8062897,0.4259644c-1.0111237,0.5772705-1.8005676,1.4608459-2.5845184,2.4373169
	l-1.2897949,1.6018066c-0.5055389,0.6252747-1.0111389,1.2505493-1.7336578,1.6640625
	c-0.6219635,0.3801575-1.1019745,0.4631042-1.8403168,0.2621765c-1.7607269-0.4790039-2.5695648-2.102478-2.0596466-3.9772339
	c0.2936859-1.0795288,0.8482971-1.6609192,1.2327728-1.9530029c0.4567261-0.3333435,1.1406403-0.6049805,1.7213135-0.7215576
	L169.5491791,353.6683044L169.5491791,353.6683044z M188.3410187,350.8656921l-13.7151337-6.4373779l21.0150604-7.0382996
	l-18.5618744-8.7122192l-0.923645,1.9677124l13.7682648,6.4622192l-21.0150604,7.0385132l18.508728,8.6871948
	L188.3410187,350.8656921L188.3410187,350.8656921z M205.2463379,321.1655579l1.3774414-1.976593l-21.9002075-4.5403748
	l11.7078247,19.1667175l1.3772888-1.9766541l-3.1922302-5.0944519l4.7789612-6.8578491L205.2463379,321.1655579
	L205.2463379,321.1655579z M193.4177704,324.8684082l-4.5302582-7.2466125l8.3331757,1.7892456L193.4177704,324.8684082
	L193.4177704,324.8684082z M194.5746918,303.0586548l14.3272247,13.4074402l1.4852142-1.5872192l-6.2303162-5.8302917
	l1.3075867-1.3973999c3.0570526-3.2668762,2.2457581-6.3997498,0.2249908-8.2905884
	c-0.9026031-0.8449402-2.4118042-1.7743225-4.2968597-1.5671387c-1.7411346,0.184082-3.0390625,1.2272644-4.3869171,2.6676941
	L194.5746918,303.0586548L194.5746918,303.0586548z M197.5612488,302.8763123l1.106308-1.1822815
	c0.9656219-1.0319824,3.1722412-2.9591064,5.4507446-0.8267212c1.6551514,1.5487671,1.5347748,3.5733337-0.2355652,5.4650879
	l-1.2271118,1.3112793L197.5612488,302.8763123L197.5612488,302.8763123z"/>
<path class="st8" d="M218.7715607,285.2781677l-2.4598083-2.924469l-9.9951019,8.4070435l2.4599762,2.924408l3.2650146-2.7462769
	l10.1707764,12.0920105l3.4649963-2.9144592l-10.1708069-12.0918274L218.7715607,285.2781677L218.7715607,285.2781677z
	 M220.6600189,279.0871582l10.7488251,16.4160767l3.7878723-2.4801025l-4.239212-6.4741211l8.6726685,3.5711975l4.625412-3.0285339
	l-9.4438477-3.4179382c0.7652588-0.8171997,1.2549133-1.840271,1.4666595-2.7515259
	c0.3815155-1.7251282-0.2358856-3.151001-0.9133453-4.1856384c-1.1934509-1.8227844-2.7045746-2.5205078-3.8280945-2.7336426
	c-1.2701416-0.22229-3.0245514-0.057251-5.1182556,1.3135376L220.6600189,279.0871582L220.6600189,279.0871582z
	 M226.3800659,279.5579529l0.8868561-0.5808411c0.4926453-0.3225403,1.5104523-0.9185791,2.4329071-0.8538513
	c0.4815521,0.0365906,1.2475281,0.2388611,1.8604126,1.1749573c0.5323181,0.8128662,0.5260162,1.5561218,0.4326172,2.0044556
	c-0.2212372,1.059967-1.109024,1.7468567-1.7988434,2.1985474l-0.8624268,0.5645447L226.3800659,279.5579529
	L226.3800659,279.5579529z M259.9406433,279.984375l4.313446-1.8771973l-14.9255981-14.9042053l-3.800827,1.6540833
	l0.5724335,21.1504822l4.313385-1.8770142l-0.1018372-3.9989624l6.7991028-2.9588928L259.9406433,279.984375L259.9406433,279.984375
	z M250.1431274,276.4222717l-0.3919983-7.0175171l4.8410187,5.0813293L250.1431274,276.4222717L250.1431274,276.4222717z
	 M262.1113892,258.4404907l5.1003418,18.9476013l4.3720703-1.1768799l-1.7897644-6.6485901l2.6727905-0.7193909
	c1.3364563-0.3598328,3.2865295-1.0368958,4.3786621-2.9746704c0.5109863-0.9290771,1.0603333-2.5079346,0.4173889-4.8963623
	c-0.3519287-1.3077393-1.0839233-3.1221619-3.084198-4.105835c-1.8639526-0.9290619-3.7430725-0.666748-5.3922729-0.2227478
	L262.1113892,258.4404907L262.1113892,258.4404907z M267.4460754,260.8400879l1.4785767-0.3981018
	c0.8529358-0.2296143,1.814209-0.3969116,2.6367493,0.0526733c0.5335388,0.2831421,0.993988,0.8606567,1.2081604,1.6566772
	c0.2221069,0.8244629,0.0852356,1.5626221-0.2055969,2.0678406c-0.5273132,0.8737488-1.5716858,1.1854248-2.1688232,1.3460693
	l-1.5637512,0.421051L267.4460754,260.8400879L267.4460754,260.8400879z"/>
<path d="M299.8161926,261.6315918c0.0285034,2.2645264,1.9045105,4.0939636,4.1690063,4.0654602
	c2.2638245-0.0285339,4.0942993-1.9045105,4.0645752-4.1690369c-0.0280151-2.2643127-1.9040222-4.09375-4.1681824-4.0652771
	C301.6170959,257.4911194,299.7876282,259.3673096,299.8161926,261.6315918L299.8161926,261.6315918z"/>
<path class="st7" d="M343.4259949,259.6600647c-0.227478-0.9334412-0.6965027-1.863739-1.3439636-2.5647888
	c-0.7910461-0.8571472-1.6800232-1.3145905-2.8525391-1.5993195c-3.0904846-0.750061-5.8239746,0.6717987-6.5379944,3.6175995
	c-0.3482666,1.4300842-0.0769958,2.4344177,0.5547485,3.4361267c0.65625,1.037384,1.5032349,1.6668701,2.1629944,2.1906433
	l1.5224915,1.2174683c0.8907471,0.7007141,1.5505371,1.2244873,1.96875,1.8712769
	c0.5337524,0.7958984,0.6107788,1.6019287,0.4025269,2.4599915c-0.4637451,1.9162292-2.1455078,3.476532-4.7495117,2.844635
	c-0.9729919-0.236084-1.8602295-0.6940613-2.4902344-1.7250061c-0.4024963-0.7036743-0.651001-1.6724548-0.5512695-2.7080994
	l-2.1962585,0.0726318c-0.0192261,1.2064209,0.2327881,2.6608582,0.9537964,3.8039551
	c1.0009766,1.6031799,2.5112,2.2419128,3.7712097,2.5474854c3.4317627,0.8333435,6.5992737-0.8769226,7.4532471-4.3947754
	c0.3325195-1.3728943,0.2047729-2.5852966-0.5302429-3.7933044c-0.6054993-0.9947205-1.5102539-1.7596436-2.5077209-2.5166626
	l-1.636261-1.2453308c-0.6387634-0.4880981-1.2775269-0.9763184-1.7115173-1.6871948
	c-0.3972473-0.6112366-0.4934692-1.0888367-0.3114929-1.8323975c0.4305115-1.7732544,2.0299683-2.6263733,3.9182434-2.1680603
	c1.0867615,0.2638855,1.6835022,0.8023682,1.9862366,1.1786194c0.3465271,0.4474487,0.6370239,1.1235046,0.76828,1.7008057
	L343.4259949,259.6600647L343.4259949,259.6600647z M346.7789917,278.2123718l5.7050171-14.0357056l8.1374817,20.6142883
	l7.7210083-18.995697l-2.0142517-0.818512l-5.7260132,14.0901184l-8.1374817-20.6142883l-7.6999817,18.9412842
	L346.7789917,278.2123718L346.7789917,278.2123718z M377.2675171,293.6501465l2.0474854,1.2710266l3.3757324-22.1096497
	L364.1687622,285.51651l2.0474854,1.2708435l4.9192505-3.4571228l7.0997314,4.409668L377.2675171,293.6501465
	L377.2675171,293.6501465z M372.9450073,282.0338135l6.996521-4.9071655l-1.3457642,8.4162903L372.9450073,282.0338135
	L372.9450073,282.0338135z M394.7219849,282.1223755l-12.6315002,15.0163879l1.6643066,1.3991699l5.4931946-6.5301819
	l1.4630127,1.2320251c3.4247437,2.8799744,6.5099792,1.9039917,8.2915039-0.2138672
	c0.7962646-0.9461975,1.644989-2.5022888,1.3387451-4.3739624c-0.2765198-1.7287903-1.3877258-2.9698792-2.8962097-4.2397156
	L394.7219849,282.1223755L394.7219849,282.1223755z M395.0615234,285.0949402l1.2389526,1.0422668
	c1.0815125,0.9098511,3.1237793,3.011261,1.1147766,5.3992615c-1.4595032,1.7349854-3.4877625,1.7218628-5.47052,0.0541077
	l-1.3737183-1.1562195L395.0615234,285.0949402L395.0615234,285.0949402z"/>
<path class="st8" d="M413.6972656,305.4073792l2.7912292-2.6112061l-8.9249878-9.5362854l-2.7894897,2.6112061l2.9154968,3.1151733
	l-11.5377502,10.7962341l3.0939941,3.3057556l11.5377197-10.7962646L413.6972656,305.4073792L413.6972656,305.4073792z
	 M420.3227844,307.3085327l-16.0982971,11.2185669l2.5882568,3.7145691l6.348999-4.4243774l-3.3197327,8.7722168
	l3.1604919,4.5357971l3.1447449-9.5384827c0.8382568,0.741272,1.8760376,1.2013245,2.7929993,1.3865051
	c1.7342834,0.3316345,3.1412659-0.3267212,4.15625-1.0337524c1.7884827-1.2457886,2.4412537-2.7763367,2.6214905-3.9054565
	c0.1855164-1.2760925-0.0297546-3.0250549-1.4595032-5.078125L420.3227844,307.3085327L420.3227844,307.3085327z
	 M420.0164795,313.0397949l0.6072693,0.869751c0.3360291,0.4831543,0.9607239,1.4832764,0.9239807,2.4071655
	c-0.0227051,0.4824219-0.2029724,1.2538147-1.1217346,1.8936157c-0.7962341,0.5554504-1.5400085,0.5708923-1.9914856,0.4902039
	c-1.0657654-0.1904297-1.7780151-1.0580444-2.2487488-1.7345886l-0.5897827-0.8456116L420.0164795,313.0397949
	L420.0164795,313.0397949z M420.9754944,346.367157l2.1017761,4.208374l14.0962219-15.6917419l-1.8532715-3.7080688
	l-21.0909729,1.6880493l2.1035156,4.2084351l3.9882202-0.3128967l3.3127441,6.6333618L420.9754944,346.367157
	L420.9754944,346.367157z M424.0152588,336.3952942l6.9877319-0.7619934l-4.819458,5.102478L424.0152588,336.3952942
	L424.0152588,336.3952942z M442.7700195,347.8763428l-18.8002625,5.6217041l1.2967224,4.3378906l6.5975342-1.9725952
	l0.7927246,2.6517639c0.3955383,1.3260193,1.1270142,3.2567444,3.0939941,4.2948303
	c0.9432678,0.4852905,2.5357666,0.9906921,4.9070129,0.2821045c1.2967224-0.3879395,3.0905151-1.1698608,4.0180054-3.1965027
	c0.87677-1.8885803,0.5634766-3.7598877,0.0734863-5.3961792L442.7700195,347.8763428L442.7700195,347.8763428z
	 M440.5177307,353.275238l0.43927,1.4670715c0.2519836,0.8464355,0.4462585,1.8026428,0.0192566,2.6370544
	c-0.2677612,0.5414429-0.8312683,1.0174561-1.6222229,1.2537231c-0.8172913,0.2445984-1.5592651,0.1282654-2.0720215-0.1485901
	c-0.8890076-0.5028076-1.2284851-1.5382385-1.4052734-2.1306152l-0.4655151-1.5516968L440.5177307,353.275238
	L440.5177307,353.275238z"/>
<path d="M440.9534912,385.3494263c-2.2592468,0.1440125-3.9917603,2.1110229-3.8464966,4.3709717
	c0.1434937,2.2601318,2.1105347,3.991394,4.369751,3.8473511c2.2610474-0.1437988,3.9917603-2.1108398,3.8482666-4.3707581
	C445.1797485,386.9368896,443.2144775,385.205658,440.9534912,385.3494263L440.9534912,385.3494263z"/>
</svg>
