<?xml version="1.0" encoding="utf-8"?>
<!-- Generator: Adobe Illustrator 21.1.0, SVG Export Plug-In . SVG Version: 6.00 Build 0)  -->
<svg version="1.1" id="Layer_1" xmlns="http://www.w3.org/2000/svg" xmlns:xlink="http://www.w3.org/1999/xlink" x="0px" y="0px"
	 viewBox="0 0 141.7 141.7" style="enable-background:new 0 0 141.7 141.7;" xml:space="preserve">
<style type="text/css">
	.st0{fill:#FFFFFF;}
	.st1{fill:#CFCBCB;}
	.st2{fill:url(#SVGID_1_);}
	.st3{fill:url(#SVGID_2_);}
	.st4{fill:url(#SVGID_3_);}
	.st5{fill:url(#SVGID_4_);}
	.st6{opacity:0.43;fill:#575454;}
	.st7{fill:url(#SVGID_5_);}
	.st8{fill:url(#SVGID_6_);}
	.st9{fill:url(#SVGID_7_);stroke:#FFFFFF;stroke-width:2;stroke-linecap:round;stroke-linejoin:round;stroke-miterlimit:10;}
	.st10{fill:url(#SVGID_8_);}
	.st11{fill:url(#SVGID_9_);}
	.st12{fill:url(#SVGID_10_);}
	.st13{fill:url(#SVGID_11_);}
	.st14{fill:url(#SVGID_12_);}
	.st15{fill:url(#SVGID_13_);}
	.st16{fill:url(#SVGID_14_);}
	.st17{fill:url(#SVGID_15_);}
	.st18{fill:url(#SVGID_16_);}
	.st19{fill:url(#SVGID_17_);}
	.st20{fill:url(#SVGID_18_);}
	.st21{fill:url(#SVGID_19_);}
	.st22{fill:url(#SVGID_20_);}
	.st23{fill:url(#SVGID_21_);}
	.st24{fill:url(#SVGID_22_);}
	.st25{fill:url(#SVGID_23_);}
	.st26{fill:url(#SVGID_24_);}
	.st27{fill:url(#SVGID_25_);}
	.st28{fill:#CECFE8;stroke:#FFFFFF;stroke-width:2;stroke-linecap:round;stroke-linejoin:round;stroke-miterlimit:10;}
	.st29{fill:url(#SVGID_26_);}
	.st30{fill:url(#SVGID_27_);}
	.st31{fill:url(#SVGID_28_);}
	.st32{fill:url(#SVGID_29_);}
	.st33{fill:url(#SVGID_30_);}
	.st34{fill:#D6DCF0;}
	.st35{fill:#B3C0E2;}
	.st36{fill:url(#SVGID_31_);stroke:#567EBF;stroke-width:1.8679;stroke-linejoin:round;stroke-miterlimit:10;}
	.st37{fill:#FFFFFF;stroke:#567EBF;stroke-width:1.8679;stroke-linejoin:round;stroke-miterlimit:10;}
	.st38{fill:url(#SVGID_32_);}
	.st39{fill:#FFFFFF;stroke:#FDDD10;stroke-width:2.802;stroke-linecap:round;stroke-linejoin:round;stroke-miterlimit:10;}
	.st40{fill:url(#SVGID_33_);}
	.st41{fill:url(#SVGID_34_);}
	.st42{fill:#FDDD10;}
	.st43{fill:url(#SVGID_35_);}
	.st44{fill:url(#SVGID_36_);}
	.st45{fill:none;stroke:#FDDD10;stroke-width:3.593;stroke-linecap:round;stroke-linejoin:round;stroke-miterlimit:10;}
	.st46{fill:url(#SVGID_37_);}
	.st47{fill:url(#SVGID_38_);}
	.st48{fill:#FFE885;}
	.st49{fill:#FEE258;}
	.st50{fill:#FFEEAC;}
	.st51{fill:url(#SVGID_39_);}
	.st52{fill:url(#SVGID_40_);}
	.st53{fill:url(#SVGID_41_);}
	.st54{fill:url(#SVGID_42_);}
	.st55{fill:url(#SVGID_43_);}
	.st56{fill:url(#SVGID_44_);}
	.st57{fill:url(#SVGID_45_);}
	.st58{fill:url(#SVGID_46_);}
	.st59{fill:url(#SVGID_47_);}
	.st60{fill:url(#SVGID_48_);}
	.st61{fill:url(#SVGID_49_);}
	.st62{fill:url(#SVGID_50_);}
	.st63{fill:url(#SVGID_51_);}
	.st64{fill:url(#SVGID_52_);}
	.st65{fill:url(#SVGID_53_);}
	.st66{fill:url(#SVGID_54_);}
	.st67{fill:url(#SVGID_55_);}
	.st68{fill:url(#SVGID_56_);}
	.st69{fill:url(#SVGID_57_);}
	.st70{fill:url(#SVGID_58_);}
	.st71{fill:url(#SVGID_59_);}
	.st72{fill:url(#SVGID_60_);}
	.st73{fill:url(#SVGID_61_);}
	.st74{fill:url(#SVGID_62_);}
	.st75{fill:url(#SVGID_63_);}
	.st76{fill:url(#SVGID_64_);}
	.st77{fill:url(#SVGID_65_);}
	.st78{fill:url(#SVGID_66_);}
	.st79{fill:url(#SVGID_67_);}
	.st80{fill:url(#SVGID_68_);}
	.st81{fill:url(#SVGID_69_);}
	.st82{fill:#CECFE8;}
	.st83{fill:url(#SVGID_70_);}
	.st84{fill:url(#SVGID_71_);}
	.st85{fill:url(#SVGID_72_);}
	.st86{fill:url(#SVGID_73_);}
	.st87{fill:url(#SVGID_74_);}
	.st88{fill:url(#SVGID_75_);}
	.st89{fill:url(#SVGID_76_);}
	.st90{fill:url(#SVGID_77_);}
	.st91{fill:url(#SVGID_78_);}
	.st92{fill:url(#SVGID_79_);}
	.st93{fill:url(#SVGID_80_);}
	.st94{fill:url(#SVGID_81_);}
	.st95{fill:url(#SVGID_82_);}
	.st96{fill:url(#SVGID_83_);}
	.st97{fill:url(#SVGID_84_);}
	.st98{fill:url(#SVGID_85_);}
	.st99{fill:url(#SVGID_86_);}
	.st100{fill:url(#SVGID_87_);}
	.st101{fill:url(#SVGID_88_);}
	.st102{fill:url(#SVGID_89_);}
	.st103{opacity:0.83;fill:#575454;}
</style>
<g>
	<radialGradient id="SVGID_1_" cx="71.4076" cy="71.1125" r="62.7697" gradientUnits="userSpaceOnUse">
		<stop  offset="0.51" style="stop-color:#C4E1AF"/>
		<stop  offset="0.95" style="stop-color:#6FBE46"/>
	</radialGradient>
	<circle class="st2" cx="71.4" cy="71.1" r="62.8"/>
	<path class="st0" d="M44.6,114.4c-1.6-2.2-3.2-4.4-4.7-6.8C30,91,29.3,71,41.3,54.9c9.9-13.3,36.8-19.7,51.6-6.5
		c9.2,8.3,13.6,22.1,9.6,32.9c-4.1,11-16.2,18.2-27.3,16.1c-11.1-2.1-18.6-13.5-15.6-23.9c3-10.4,15.6-14.9,23.1-8.2
		c3.4,3.1,5.1,6.9,4,11.5C85.5,82,80,85.2,75,83.7c-2.9-0.8-4.8-3.2-5.1-6.5c-0.2-2.6,1.2-5,3.6-6c3.1-1.3,6.6,0.6,6.7,3.8
		c0.1,2-1.1,3.2-3,3.6c-1.4,0.2-2.3-0.6-2.7-1.9c-0.2-0.8,0-1.5,0.7-2c0.5-0.3,1-0.3,1.4,0c0.9,0.5,0.5,1.2,0.1,2
		c1.2-0.3,1.3-1,1-1.8c-0.3-0.8-0.9-1.3-1.7-1.3c-1-0.1-1.9,0.3-2.4,1.2c-0.7,1.1-0.6,2.3,0,3.4c0.7,1.4,2,2.1,3.6,2.1
		c2.1,0,3.6-1,4.6-2.8c1.1-2.1,0.9-4.2-0.3-6.1c-2.4-3.9-8-4.6-11.8-1.5c-3.3,2.7-4.4,6.9-2.9,11.2c1.9,5.7,7.9,8.9,14.1,7.7
		c7.3-1.4,12.3-7.5,12.4-15C93.4,61.3,81.6,52.1,69,54.8c-14.7,3.1-22.9,17.4-18.7,32.5c4.5,16.1,21.4,25.9,37.9,22.1
		c23.8-5.6,36.8-28,29.6-52c-5.9-19.8-19.4-32-39.8-35c-15.7-2.3-29.4,3.8-40.5,15C16,59.2,18.7,95.1,42.9,113.7
		c0.5,0.4,0.9,0.7,1.4,1C44.4,114.6,44.5,114.5,44.6,114.4"/>
	
		<radialGradient id="SVGID_2_" cx="-3044.2712" cy="473.7476" r="1" gradientTransform="matrix(-48.6256 0 0 -48.6256 -147958.1875 23104.6875)" gradientUnits="userSpaceOnUse">
		<stop  offset="0" style="stop-color:#6FBE46"/>
		<stop  offset="0.2001" style="stop-color:#6FBE46"/>
		<stop  offset="0.2882" style="stop-color:#72BF48"/>
		<stop  offset="0.3878" style="stop-color:#7AC250"/>
		<stop  offset="0.4931" style="stop-color:#87C65F"/>
		<stop  offset="0.6023" style="stop-color:#99CD77"/>
		<stop  offset="0.7146" style="stop-color:#AFD794"/>
		<stop  offset="0.8294" style="stop-color:#CBE4B8"/>
		<stop  offset="0.9442" style="stop-color:#EAF4E3"/>
		<stop  offset="1" style="stop-color:#FFFFFF"/>
	</radialGradient>
	<path class="st3" d="M44.6,114.4l-0.4,0.3c-1.5-2.2-3.2-4.4-4.7-6.8c-4.9-8.2-7.6-17.3-7.6-26.3c0-9.3,2.9-18.7,9.1-26.9
		c6.3-8.3,18.9-13.9,31.2-13.9c7.7,0,15.3,2.2,21.1,7.4c7,6.3,11.3,15.7,11.3,24.7c0,3-0.5,6-1.5,8.7c-3.7,9.9-13.7,16.8-23.8,16.8
		c-1.3,0-2.7-0.1-4-0.4C65.5,96,58.6,87.4,58.5,78.2c0-1.6,0.2-3.2,0.7-4.8c2.1-7.2,8.7-11.7,15.2-11.7c3.1,0,6.2,1,8.7,3.3
		c2.8,2.5,4.5,5.5,4.5,9.1c0,0.9-0.1,1.9-0.4,2.9c-1.1,4.5-5.3,7.6-9.8,7.6c-0.9,0-1.8-0.1-2.6-0.4l0,0c-3.1-0.9-5.2-3.5-5.4-6.9
		c0-0.2,0-0.4,0-0.5c0-2.6,1.5-4.9,3.9-5.9c0.8-0.3,1.5-0.5,2.3-0.5c2.6,0,5,1.9,5.1,4.7l0,0.2c0,2.2-1.5,3.6-3.5,3.9
		c-0.2,0-0.3,0-0.5,0c-1.4,0-2.3-1-2.7-2.3l0,0c-0.1-0.2-0.1-0.5-0.1-0.7c0-0.7,0.4-1.4,1.1-1.8l0,0c0.3-0.2,0.7-0.3,1-0.3
		c0.3,0,0.7,0.1,1,0.3l0,0c0.5,0.3,0.8,0.8,0.8,1.2c0,0.6-0.3,1-0.5,1.4l-0.4-0.2l-0.1-0.5c0.7-0.2,0.7-0.3,0.7-0.6
		c0-0.1,0-0.3-0.1-0.5c-0.2-0.6-0.6-0.9-1.3-1l-0.2,0c-0.8,0-1.3,0.3-1.7,1l0,0c-0.3,0.5-0.4,1-0.4,1.4c0,0.5,0.1,1,0.4,1.5
		c0.7,1.3,1.7,1.8,3.1,1.8l0,0l0,0c1.9,0,3.3-0.9,4.2-2.5l0,0c0.4-0.8,0.6-1.7,0.6-2.5c0-1.1-0.3-2.1-1-3.2c-1.3-2.1-3.6-3.2-6-3.2
		c-1.8,0-3.6,0.6-5,1.8c-2.2,1.8-3.3,4.3-3.4,7.1c0,1.1,0.2,2.3,0.6,3.5c1.6,4.7,6,7.6,11,7.6c0.8,0,1.6-0.1,2.5-0.2
		c7.1-1.4,11.9-7.2,12-14.5l0-0.2c0-10.5-8.8-18.6-19.3-18.6c-1.4,0-2.9,0.1-4.3,0.5c-11.9,2.5-19.4,12.4-19.4,24.1
		c0,2.5,0.4,5.1,1.1,7.7c3.8,13.5,16.4,22.5,30.2,22.5c2.4,0,4.7-0.3,7.1-0.8c19.2-4.5,31.2-19.9,31.2-38.3c0-4.2-0.6-8.6-2-13
		c-5.9-19.6-19.2-31.7-39.4-34.6c-2.2-0.3-4.3-0.5-6.4-0.5c-12.9,0-24.2,5.8-33.7,15.4C28.1,47.6,23.4,60.4,23.4,73
		c0,15.2,6.7,30.2,19.8,40.2l0,0C43.7,113.6,44.1,113.9,44.6,114.4l-0.3,0.3l-0.4-0.3c0.1-0.1,0.2-0.2,0.3-0.3L44.6,114.4l-0.4,0.3
		L44.6,114.4l0.4,0.3c-0.1,0.1-0.2,0.2-0.3,0.3l-0.7,0.1c-0.5-0.3-1-0.7-1.4-1l0,0c-13.3-10.2-20.2-25.6-20.2-41
		c0-12.9,4.8-25.9,14.7-35.9c9.6-9.8,21.2-15.7,34.4-15.7c2.1,0,4.3,0.2,6.6,0.5c20.6,2.9,34.3,15.4,40.2,35.3c1.4,4.5,2,9,2,13.3
		c0,18.8-12.4,34.8-32,39.3c-2.5,0.6-4.9,0.8-7.4,0.8c-14.2,0-27.2-9.3-31.1-23.3c-0.8-2.7-1.1-5.4-1.1-8c0-12.1,7.9-22.5,20.2-25.1
		c1.5-0.3,3-0.5,4.5-0.5c11,0,20.3,8.5,20.3,19.6l0,0.2c-0.1,7.8-5.3,14.1-12.8,15.5c-0.9,0.2-1.8,0.3-2.6,0.3
		c-5.4,0-10.2-3.2-12-8.3c-0.4-1.3-0.7-2.6-0.7-3.8c0-3.1,1.3-5.9,3.7-7.9c1.7-1.4,3.7-2,5.7-2c2.7,0,5.4,1.3,6.8,3.7
		c0.7,1.2,1.1,2.4,1.1,3.7c0,1-0.2,2-0.8,3l0,0c-1,1.9-2.8,3.1-5,3.1l0,0l-0.1,0c-1.7,0-3.2-0.8-4-2.4c-0.3-0.6-0.5-1.3-0.5-2
		c0-0.7,0.2-1.3,0.6-2l0,0c0.6-1,1.5-1.5,2.6-1.5c0.1,0,0.2,0,0.3,0c1,0.1,1.9,0.7,2.2,1.6c0.1,0.3,0.2,0.6,0.2,0.9
		c0,0.7-0.6,1.4-1.5,1.6c-0.2,0-0.4,0-0.5-0.2c-0.1-0.2-0.1-0.4,0-0.5c0.2-0.4,0.4-0.8,0.4-0.9c0-0.1,0-0.2-0.3-0.4l0,0
		c-0.2-0.1-0.3-0.1-0.4-0.1c-0.1,0-0.3,0-0.5,0.2l0,0c-0.4,0.3-0.6,0.6-0.6,1c0,0.1,0,0.3,0.1,0.5l0,0c0.3,1,0.9,1.6,1.7,1.6
		c0.1,0,0.2,0,0.3,0c1.7-0.3,2.6-1.2,2.6-2.9l0-0.2c-0.1-2.2-1.9-3.7-4.1-3.7c-0.6,0-1.3,0.1-1.9,0.4c-2.1,0.9-3.3,2.8-3.3,5
		c0,0.2,0,0.3,0,0.5c0.2,3.1,2,5.2,4.7,6l0,0c0.8,0.2,1.6,0.3,2.3,0.3c4,0,7.9-2.8,8.8-6.8c0.2-0.9,0.3-1.8,0.3-2.7
		c0-3.3-1.6-6-4.2-8.4c-2.3-2.1-5.2-3-8-3c-6,0-12.3,4.2-14.2,11c-0.4,1.5-0.6,3-0.6,4.6c0,8.6,6.6,16.9,15.8,18.7
		c1.3,0.2,2.5,0.4,3.8,0.4c9.6,0,19.4-6.6,22.9-16.1c1-2.6,1.4-5.5,1.4-8.4c0-8.7-4.1-17.9-10.9-24c-5.6-5-12.9-7.1-20.4-7.1
		c-12,0-24.5,5.5-30.4,13.5c-6.1,8.1-8.9,17.2-8.9,26.3c0,8.8,2.6,17.7,7.5,25.8c1.4,2.3,3.1,4.5,4.6,6.7l0,0.6L44.6,114.4z"/>
	<path class="st0" d="M44.6,114.4c-1.6-2.2-3.2-4.4-4.7-6.8C30,91,29.3,71,41.3,54.9c9.9-13.3,36.8-19.7,51.6-6.5
		c9.2,8.3,13.6,22.1,9.6,32.9c-4.1,11-16.2,18.2-27.3,16.1c-11.1-2.1-18.6-13.5-15.6-23.9c3-10.4,15.6-14.9,23.1-8.2
		c3.4,3.1,5.1,6.9,4,11.5C85.5,82,80,85.2,75,83.7c-2.9-0.8-4.8-3.2-5.1-6.5c-0.2-2.6,1.2-5,3.6-6c3.1-1.3,6.6,0.6,6.7,3.8
		c0.1,2-1.1,3.2-3,3.6c-1.4,0.2-2.3-0.6-2.7-1.9c-0.2-0.8,0-1.5,0.7-2c0.5-0.3,1-0.3,1.4,0c0.9,0.5,0.5,1.2,0.1,2
		c1.2-0.3,1.3-1,1-1.8c-0.3-0.8-0.9-1.3-1.7-1.3c-1-0.1-1.9,0.3-2.4,1.2c-0.7,1.1-0.6,2.3,0,3.4c0.7,1.4,2,2.1,3.6,2.1
		c2.1,0,3.6-1,4.6-2.8c1.1-2.1,0.9-4.2-0.3-6.1c-2.4-3.9-8-4.6-11.8-1.5c-3.3,2.7-4.4,6.9-2.9,11.2c1.9,5.7,7.9,8.9,14.1,7.7
		c7.3-1.4,12.3-7.5,12.4-15C93.4,61.3,81.6,52.1,69,54.8c-14.7,3.1-22.9,17.4-18.7,32.5c4.5,16.1,21.4,25.9,37.9,22.1
		c23.8-5.6,36.8-28,29.6-52c-5.9-19.8-19.4-32-39.8-35c-15.7-2.3-29.4,3.8-40.5,15C16,59.2,18.7,95.1,42.9,113.7
		c0.5,0.4,0.9,0.7,1.4,1C44.4,114.6,44.5,114.5,44.6,114.4"/>
</g>
<g>
	<radialGradient id="SVGID_3_" cx="71.4076" cy="71.1125" r="62.7697" gradientUnits="userSpaceOnUse">
		<stop  offset="0.51" style="stop-color:#C4E1AF"/>
		<stop  offset="0.95" style="stop-color:#6FBE46"/>
	</radialGradient>
	<circle class="st4" cx="71.4" cy="71.1" r="62.8"/>
	<path class="st0" d="M44.6,114.4c-1.6-2.2-3.2-4.4-4.7-6.8C30,91,29.3,71,41.3,54.9c9.9-13.3,36.8-19.7,51.6-6.5
		c9.2,8.3,13.6,22.1,9.6,32.9c-4.1,11-16.2,18.2-27.3,16.1c-11.1-2.1-18.6-13.5-15.6-23.9c3-10.4,15.6-14.9,23.1-8.2
		c3.4,3.1,5.1,6.9,4,11.5C85.5,82,80,85.2,75,83.7c-2.9-0.8-4.8-3.2-5.1-6.5c-0.2-2.6,1.2-5,3.6-6c3.1-1.3,6.6,0.6,6.7,3.8
		c0.1,2-1.1,3.2-3,3.6c-1.4,0.2-2.3-0.6-2.7-1.9c-0.2-0.8,0-1.5,0.7-2c0.5-0.3,1-0.3,1.4,0c0.9,0.5,0.5,1.2,0.1,2
		c1.2-0.3,1.3-1,1-1.8c-0.3-0.8-0.9-1.3-1.7-1.3c-1-0.1-1.9,0.3-2.4,1.2c-0.7,1.1-0.6,2.3,0,3.4c0.7,1.4,2,2.1,3.6,2.1
		c2.1,0,3.6-1,4.6-2.8c1.1-2.1,0.9-4.2-0.3-6.1c-2.4-3.9-8-4.6-11.8-1.5c-3.3,2.7-4.4,6.9-2.9,11.2c1.9,5.7,7.9,8.9,14.1,7.7
		c7.3-1.4,12.3-7.5,12.4-15C93.4,61.3,81.6,52.1,69,54.8c-14.7,3.1-22.9,17.4-18.7,32.5c4.5,16.1,21.4,25.9,37.9,22.1
		c23.8-5.6,36.8-28,29.6-52c-5.9-19.8-19.4-32-39.8-35c-15.7-2.3-29.4,3.8-40.5,15C16,59.2,18.7,95.1,42.9,113.7
		c0.5,0.4,0.9,0.7,1.4,1C44.4,114.6,44.5,114.5,44.6,114.4"/>
	
		<radialGradient id="SVGID_4_" cx="-3044.2712" cy="473.7476" r="1" gradientTransform="matrix(-48.6256 0 0 -48.6256 -147958.1875 23104.6875)" gradientUnits="userSpaceOnUse">
		<stop  offset="0" style="stop-color:#6FBE46"/>
		<stop  offset="0.2001" style="stop-color:#6FBE46"/>
		<stop  offset="0.2882" style="stop-color:#72BF48"/>
		<stop  offset="0.3878" style="stop-color:#7AC250"/>
		<stop  offset="0.4931" style="stop-color:#87C65F"/>
		<stop  offset="0.6023" style="stop-color:#99CD77"/>
		<stop  offset="0.7146" style="stop-color:#AFD794"/>
		<stop  offset="0.8294" style="stop-color:#CBE4B8"/>
		<stop  offset="0.9442" style="stop-color:#EAF4E3"/>
		<stop  offset="1" style="stop-color:#FFFFFF"/>
	</radialGradient>
	<path class="st5" d="M44.6,114.4l-0.4,0.3c-1.5-2.2-3.2-4.4-4.7-6.8c-4.9-8.2-7.6-17.3-7.6-26.3c0-9.3,2.9-18.7,9.1-26.9
		c6.3-8.3,18.9-13.9,31.2-13.9c7.7,0,15.3,2.2,21.1,7.4c7,6.3,11.3,15.7,11.3,24.7c0,3-0.5,6-1.5,8.7c-3.7,9.9-13.7,16.8-23.8,16.8
		c-1.3,0-2.7-0.1-4-0.4C65.5,96,58.6,87.4,58.5,78.2c0-1.6,0.2-3.2,0.7-4.8c2.1-7.2,8.7-11.7,15.2-11.7c3.1,0,6.2,1,8.7,3.3
		c2.8,2.5,4.5,5.5,4.5,9.1c0,0.9-0.1,1.9-0.4,2.9c-1.1,4.5-5.3,7.6-9.8,7.6c-0.9,0-1.8-0.1-2.6-0.4l0,0c-3.1-0.9-5.2-3.5-5.4-6.9
		c0-0.2,0-0.4,0-0.5c0-2.6,1.5-4.9,3.9-5.9c0.8-0.3,1.5-0.5,2.3-0.5c2.6,0,5,1.9,5.1,4.7l0,0.2c0,2.2-1.5,3.6-3.5,3.9
		c-0.2,0-0.3,0-0.5,0c-1.4,0-2.3-1-2.7-2.3l0,0c-0.1-0.2-0.1-0.5-0.1-0.7c0-0.7,0.4-1.4,1.1-1.8l0,0c0.3-0.2,0.7-0.3,1-0.3
		c0.3,0,0.7,0.1,1,0.3l0,0c0.5,0.3,0.8,0.8,0.8,1.2c0,0.6-0.3,1-0.5,1.4l-0.4-0.2l-0.1-0.5c0.7-0.2,0.7-0.3,0.7-0.6
		c0-0.1,0-0.3-0.1-0.5c-0.2-0.6-0.6-0.9-1.3-1l-0.2,0c-0.8,0-1.3,0.3-1.7,1l0,0c-0.3,0.5-0.4,1-0.4,1.4c0,0.5,0.1,1,0.4,1.5
		c0.7,1.3,1.7,1.8,3.1,1.8l0,0l0,0c1.9,0,3.3-0.9,4.2-2.5l0,0c0.4-0.8,0.6-1.7,0.6-2.5c0-1.1-0.3-2.1-1-3.2c-1.3-2.1-3.6-3.2-6-3.2
		c-1.8,0-3.6,0.6-5,1.8c-2.2,1.8-3.3,4.3-3.4,7.1c0,1.1,0.2,2.3,0.6,3.5c1.6,4.7,6,7.6,11,7.6c0.8,0,1.6-0.1,2.5-0.2
		c7.1-1.4,11.9-7.2,12-14.5l0-0.2c0-10.5-8.8-18.6-19.3-18.6c-1.4,0-2.9,0.1-4.3,0.5c-11.9,2.5-19.4,12.4-19.4,24.1
		c0,2.5,0.4,5.1,1.1,7.7c3.8,13.5,16.4,22.5,30.2,22.5c2.4,0,4.7-0.3,7.1-0.8c19.2-4.5,31.2-19.9,31.2-38.3c0-4.2-0.6-8.6-2-13
		c-5.9-19.6-19.2-31.7-39.4-34.6c-2.2-0.3-4.3-0.5-6.4-0.5c-12.9,0-24.2,5.8-33.7,15.4C28.1,47.6,23.4,60.4,23.4,73
		c0,15.2,6.7,30.2,19.8,40.2l0,0C43.7,113.6,44.1,113.9,44.6,114.4l-0.3,0.3l-0.4-0.3c0.1-0.1,0.2-0.2,0.3-0.3L44.6,114.4l-0.4,0.3
		L44.6,114.4l0.4,0.3c-0.1,0.1-0.2,0.2-0.3,0.3l-0.7,0.1c-0.5-0.3-1-0.7-1.4-1l0,0c-13.3-10.2-20.2-25.6-20.2-41
		c0-12.9,4.8-25.9,14.7-35.9c9.6-9.8,21.2-15.7,34.4-15.7c2.1,0,4.3,0.2,6.6,0.5c20.6,2.9,34.3,15.4,40.2,35.3c1.4,4.5,2,9,2,13.3
		c0,18.8-12.4,34.8-32,39.3c-2.5,0.6-4.9,0.8-7.4,0.8c-14.2,0-27.2-9.3-31.1-23.3c-0.8-2.7-1.1-5.4-1.1-8c0-12.1,7.9-22.5,20.2-25.1
		c1.5-0.3,3-0.5,4.5-0.5c11,0,20.3,8.5,20.3,19.6l0,0.2c-0.1,7.8-5.3,14.1-12.8,15.5c-0.9,0.2-1.8,0.3-2.6,0.3
		c-5.4,0-10.2-3.2-12-8.3c-0.4-1.3-0.7-2.6-0.7-3.8c0-3.1,1.3-5.9,3.7-7.9c1.7-1.4,3.7-2,5.7-2c2.7,0,5.4,1.3,6.8,3.7
		c0.7,1.2,1.1,2.4,1.1,3.7c0,1-0.2,2-0.8,3l0,0c-1,1.9-2.8,3.1-5,3.1l0,0l-0.1,0c-1.7,0-3.2-0.8-4-2.4c-0.3-0.6-0.5-1.3-0.5-2
		c0-0.7,0.2-1.3,0.6-2l0,0c0.6-1,1.5-1.5,2.6-1.5c0.1,0,0.2,0,0.3,0c1,0.1,1.9,0.7,2.2,1.6c0.1,0.3,0.2,0.6,0.2,0.9
		c0,0.7-0.6,1.4-1.5,1.6c-0.2,0-0.4,0-0.5-0.2c-0.1-0.2-0.1-0.4,0-0.5c0.2-0.4,0.4-0.8,0.4-0.9c0-0.1,0-0.2-0.3-0.4l0,0
		c-0.2-0.1-0.3-0.1-0.4-0.1c-0.1,0-0.3,0-0.5,0.2l0,0c-0.4,0.3-0.6,0.6-0.6,1c0,0.1,0,0.3,0.1,0.5l0,0c0.3,1,0.9,1.6,1.7,1.6
		c0.1,0,0.2,0,0.3,0c1.7-0.3,2.6-1.2,2.6-2.9l0-0.2c-0.1-2.2-1.9-3.7-4.1-3.7c-0.6,0-1.3,0.1-1.9,0.4c-2.1,0.9-3.3,2.8-3.3,5
		c0,0.2,0,0.3,0,0.5c0.2,3.1,2,5.2,4.7,6l0,0c0.8,0.2,1.6,0.3,2.3,0.3c4,0,7.9-2.8,8.8-6.8c0.2-0.9,0.3-1.8,0.3-2.7
		c0-3.3-1.6-6-4.2-8.4c-2.3-2.1-5.2-3-8-3c-6,0-12.3,4.2-14.2,11c-0.4,1.5-0.6,3-0.6,4.6c0,8.6,6.6,16.9,15.8,18.7
		c1.3,0.2,2.5,0.4,3.8,0.4c9.6,0,19.4-6.6,22.9-16.1c1-2.6,1.4-5.5,1.4-8.4c0-8.7-4.1-17.9-10.9-24c-5.6-5-12.9-7.1-20.4-7.1
		c-12,0-24.5,5.5-30.4,13.5c-6.1,8.1-8.9,17.2-8.9,26.3c0,8.8,2.6,17.7,7.5,25.8c1.4,2.3,3.1,4.5,4.6,6.7l0,0.6L44.6,114.4z"/>
	<path class="st0" d="M44.6,114.4c-1.6-2.2-3.2-4.4-4.7-6.8C30,91,29.3,71,41.3,54.9c9.9-13.3,36.8-19.7,51.6-6.5
		c9.2,8.3,13.6,22.1,9.6,32.9c-4.1,11-16.2,18.2-27.3,16.1c-11.1-2.1-18.6-13.5-15.6-23.9c3-10.4,15.6-14.9,23.1-8.2
		c3.4,3.1,5.1,6.9,4,11.5C85.5,82,80,85.2,75,83.7c-2.9-0.8-4.8-3.2-5.1-6.5c-0.2-2.6,1.2-5,3.6-6c3.1-1.3,6.6,0.6,6.7,3.8
		c0.1,2-1.1,3.2-3,3.6c-1.4,0.2-2.3-0.6-2.7-1.9c-0.2-0.8,0-1.5,0.7-2c0.5-0.3,1-0.3,1.4,0c0.9,0.5,0.5,1.2,0.1,2
		c1.2-0.3,1.3-1,1-1.8c-0.3-0.8-0.9-1.3-1.7-1.3c-1-0.1-1.9,0.3-2.4,1.2c-0.7,1.1-0.6,2.3,0,3.4c0.7,1.4,2,2.1,3.6,2.1
		c2.1,0,3.6-1,4.6-2.8c1.1-2.1,0.9-4.2-0.3-6.1c-2.4-3.9-8-4.6-11.8-1.5c-3.3,2.7-4.4,6.9-2.9,11.2c1.9,5.7,7.9,8.9,14.1,7.7
		c7.3-1.4,12.3-7.5,12.4-15C93.4,61.3,81.6,52.1,69,54.8c-14.7,3.1-22.9,17.4-18.7,32.5c4.5,16.1,21.4,25.9,37.9,22.1
		c23.8-5.6,36.8-28,29.6-52c-5.9-19.8-19.4-32-39.8-35c-15.7-2.3-29.4,3.8-40.5,15C16,59.2,18.7,95.1,42.9,113.7
		c0.5,0.4,0.9,0.7,1.4,1C44.4,114.6,44.5,114.5,44.6,114.4"/>
</g>
</svg>
