<?xml version="1.0" encoding="utf-8"?>
<!-- Generator: Adobe Illustrator 21.1.0, SVG Export Plug-In . SVG Version: 6.00 Build 0)  -->
<svg version="1.1" id="Layer_1" xmlns="http://www.w3.org/2000/svg" xmlns:xlink="http://www.w3.org/1999/xlink" x="0px" y="0px"
	 viewBox="0 0 141.7 141.7" style="enable-background:new 0 0 141.7 141.7;" xml:space="preserve">
<style type="text/css">
	.st0{fill:#FFFFFF;}
	.st1{fill:#CFCBCB;}
	.st2{fill:url(#SVGID_1_);}
	.st3{fill:url(#SVGID_2_);}
	.st4{fill:url(#SVGID_3_);}
	.st5{fill:url(#SVGID_4_);}
	.st6{opacity:0.43;fill:#575454;}
	.st7{fill:url(#SVGID_5_);}
	.st8{fill:url(#SVGID_6_);}
	.st9{fill:url(#SVGID_7_);stroke:#FFFFFF;stroke-width:2;stroke-linecap:round;stroke-linejoin:round;stroke-miterlimit:10;}
	.st10{fill:url(#SVGID_8_);}
	.st11{fill:url(#SVGID_9_);}
	.st12{fill:url(#SVGID_10_);}
	.st13{fill:url(#SVGID_11_);}
	.st14{fill:url(#SVGID_12_);}
	.st15{fill:url(#SVGID_13_);}
	.st16{fill:url(#SVGID_14_);}
	.st17{fill:url(#SVGID_15_);}
	.st18{fill:url(#SVGID_16_);}
	.st19{fill:url(#SVGID_17_);}
	.st20{fill:url(#SVGID_18_);}
	.st21{fill:url(#SVGID_19_);}
	.st22{fill:url(#SVGID_20_);}
	.st23{fill:url(#SVGID_21_);}
	.st24{fill:url(#SVGID_22_);}
	.st25{fill:url(#SVGID_23_);}
	.st26{fill:url(#SVGID_24_);}
	.st27{fill:url(#SVGID_25_);}
	.st28{fill:#CECFE8;stroke:#FFFFFF;stroke-width:2;stroke-linecap:round;stroke-linejoin:round;stroke-miterlimit:10;}
	.st29{fill:url(#SVGID_26_);}
	.st30{fill:url(#SVGID_27_);}
	.st31{fill:url(#SVGID_28_);}
	.st32{fill:url(#SVGID_29_);}
	.st33{fill:url(#SVGID_30_);}
	.st34{fill:#D6DCF0;}
	.st35{fill:#B3C0E2;}
	.st36{fill:url(#SVGID_31_);stroke:#567EBF;stroke-width:1.8679;stroke-linejoin:round;stroke-miterlimit:10;}
	.st37{fill:#FFFFFF;stroke:#567EBF;stroke-width:1.8679;stroke-linejoin:round;stroke-miterlimit:10;}
	.st38{fill:url(#SVGID_32_);}
	.st39{fill:#FFFFFF;stroke:#FDDD10;stroke-width:2.802;stroke-linecap:round;stroke-linejoin:round;stroke-miterlimit:10;}
	.st40{fill:url(#SVGID_33_);}
	.st41{fill:url(#SVGID_34_);}
	.st42{fill:#FDDD10;}
	.st43{fill:url(#SVGID_35_);}
	.st44{fill:url(#SVGID_36_);}
	.st45{fill:none;stroke:#FDDD10;stroke-width:3.593;stroke-linecap:round;stroke-linejoin:round;stroke-miterlimit:10;}
	.st46{fill:url(#SVGID_37_);}
	.st47{fill:url(#SVGID_38_);}
	.st48{fill:#FFE885;}
	.st49{fill:#FEE258;}
	.st50{fill:#FFEEAC;}
	.st51{fill:url(#SVGID_39_);}
	.st52{fill:url(#SVGID_40_);}
	.st53{fill:url(#SVGID_41_);}
	.st54{fill:url(#SVGID_42_);}
	.st55{fill:url(#SVGID_43_);}
	.st56{fill:url(#SVGID_44_);}
	.st57{fill:url(#SVGID_45_);}
	.st58{fill:url(#SVGID_46_);}
	.st59{fill:url(#SVGID_47_);}
	.st60{fill:url(#SVGID_48_);}
	.st61{fill:url(#SVGID_49_);}
	.st62{fill:url(#SVGID_50_);}
	.st63{fill:url(#SVGID_51_);}
	.st64{fill:url(#SVGID_52_);}
	.st65{fill:url(#SVGID_53_);}
	.st66{fill:url(#SVGID_54_);}
	.st67{fill:url(#SVGID_55_);}
	.st68{fill:url(#SVGID_56_);}
	.st69{fill:url(#SVGID_57_);}
	.st70{fill:url(#SVGID_58_);}
	.st71{fill:url(#SVGID_59_);}
	.st72{fill:url(#SVGID_60_);}
	.st73{fill:url(#SVGID_61_);}
	.st74{fill:url(#SVGID_62_);}
	.st75{fill:url(#SVGID_63_);}
	.st76{fill:url(#SVGID_64_);}
	.st77{fill:url(#SVGID_65_);}
	.st78{fill:url(#SVGID_66_);}
	.st79{fill:url(#SVGID_67_);}
	.st80{fill:url(#SVGID_68_);}
	.st81{fill:url(#SVGID_69_);}
	.st82{fill:#CECFE8;}
	.st83{fill:url(#SVGID_70_);}
	.st84{fill:url(#SVGID_71_);}
	.st85{fill:url(#SVGID_72_);}
	.st86{fill:url(#SVGID_73_);}
	.st87{fill:url(#SVGID_74_);}
	.st88{fill:url(#SVGID_75_);}
	.st89{fill:url(#SVGID_76_);}
	.st90{fill:url(#SVGID_77_);}
	.st91{fill:url(#SVGID_78_);}
	.st92{fill:url(#SVGID_79_);}
	.st93{fill:url(#SVGID_80_);}
	.st94{fill:url(#SVGID_81_);}
	.st95{fill:url(#SVGID_82_);}
	.st96{fill:url(#SVGID_83_);}
	.st97{fill:url(#SVGID_84_);}
	.st98{fill:url(#SVGID_85_);}
	.st99{fill:url(#SVGID_86_);}
	.st100{fill:url(#SVGID_87_);}
	.st101{fill:url(#SVGID_88_);}
	.st102{fill:url(#SVGID_89_);}
	.st103{opacity:0.83;fill:#575454;}
</style>
<radialGradient id="SVGID_1_" cx="71.4085" cy="71.1125" r="62.7697" gradientUnits="userSpaceOnUse">
	<stop  offset="0.5" style="stop-color:#B3C0E2"/>
	<stop  offset="0.95" style="stop-color:#567EBF"/>
</radialGradient>
<circle class="st2" cx="71.4" cy="71.1" r="62.8"/>
<path class="st34" d="M104.9,92.4c0-3.1-4.8-5.9-12.4-7.8c4.7,1.7,7.5,4,7.5,6.5c0,5.3-12.8,9.6-28.6,9.6s-28.6-4.3-28.6-9.6
	c0-2.5,2.9-4.8,7.5-6.5c-7.6,1.8-12.4,4.6-12.4,7.8c0,5.5,15,10,33.5,10C89.9,102.4,104.9,97.9,104.9,92.4"/>
<path class="st35" d="M118.2,94.4c0-3.7-4.5-7-12.3-9.5c0.1,0,0.2,0.1,0.3,0.2c-0.2-0.1-0.3-0.1-0.5-0.2c0.8,0.4,1.5,0.9,2.2,1.3
	c1.5,1.1,2.6,2.5,3.4,3.8c0.8,1,1.3,2,1.3,3c0,1.4-0.8,2.8-2.3,4c-5.5,5.5-20.9,9.4-39,9.4c-18.2,0-33.6-4-39-9.5
	c-1.4-1.2-2.2-2.6-2.2-4c0-1,0.4-2,1.2-2.9c0.7-1.3,1.8-2.6,3.1-3.7c0.8-0.5,1.6-1,2.6-1.5c-0.2,0.1-0.4,0.1-0.6,0.2
	c0.1-0.1,0.2-0.1,0.4-0.2c-7.7,2.5-12.2,5.8-12.2,9.5c0,7.7,20.9,15.3,46.8,15.3C97.2,109.7,118.2,102.1,118.2,94.4"/>
<linearGradient id="SVGID_2_" gradientUnits="userSpaceOnUse" x1="70.9811" y1="94.738" x2="70.9811" y2="18.3845">
	<stop  offset="0" style="stop-color:#FFFFFF"/>
	<stop  offset="0.2365" style="stop-color:#F8F9FC"/>
	<stop  offset="0.4736" style="stop-color:#EBEDF7"/>
	<stop  offset="0.7111" style="stop-color:#D6DCEF"/>
	<stop  offset="0.9476" style="stop-color:#BAC6E5"/>
	<stop  offset="1" style="stop-color:#B3C0E2"/>
</linearGradient>
<path style="fill:url(#SVGID_2_);stroke:#567EBF;stroke-width:1.8679;stroke-linejoin:round;stroke-miterlimit:10;" d="M94.3,72.2
	c0,12.5-10.5,22.6-23.4,22.6S47.6,84.6,47.6,72.2C47.6,59.7,71,33.4,71,18.4C71.7,32.6,94.3,59.7,94.3,72.2z"/>
</svg>
