<?xml version="1.0" encoding="utf-8"?>
<!-- Generator: Adobe Illustrator 21.1.0, SVG Export Plug-In . SVG Version: 6.00 Build 0)  -->
<svg version="1.1" id="Layer_1" xmlns="http://www.w3.org/2000/svg" xmlns:xlink="http://www.w3.org/1999/xlink" x="0px" y="0px"
	 viewBox="0 0 141.7 141.7" style="enable-background:new 0 0 141.7 141.7;" xml:space="preserve">
<style type="text/css">
	.st0{fill:#FFFFFF;}
	.st1{fill:#CFCBCB;}
	.st2{fill:url(#SVGID_1_);}
	.st3{fill:url(#SVGID_2_);}
	.st4{fill:url(#SVGID_3_);}
	.st5{fill:url(#SVGID_4_);}
	.st6{opacity:0.43;fill:#575454;}
	.st7{fill:url(#SVGID_5_);}
	.st8{fill:url(#SVGID_6_);}
	.st9{fill:url(#SVGID_7_);stroke:#FFFFFF;stroke-width:2;stroke-linecap:round;stroke-linejoin:round;stroke-miterlimit:10;}
	.st10{fill:url(#SVGID_8_);}
	.st11{fill:url(#SVGID_9_);}
	.st12{fill:url(#SVGID_10_);}
	.st13{fill:url(#SVGID_11_);}
	.st14{fill:url(#SVGID_12_);}
	.st15{fill:url(#SVGID_13_);}
	.st16{fill:url(#SVGID_14_);}
	.st17{fill:url(#SVGID_15_);}
	.st18{fill:url(#SVGID_16_);}
	.st19{fill:url(#SVGID_17_);}
	.st20{fill:url(#SVGID_18_);}
	.st21{fill:url(#SVGID_19_);}
	.st22{fill:url(#SVGID_20_);}
	.st23{fill:url(#SVGID_21_);}
	.st24{fill:url(#SVGID_22_);}
	.st25{fill:url(#SVGID_23_);}
	.st26{fill:url(#SVGID_24_);}
	.st27{fill:url(#SVGID_25_);}
	.st28{fill:#CECFE8;stroke:#FFFFFF;stroke-width:2;stroke-linecap:round;stroke-linejoin:round;stroke-miterlimit:10;}
	.st29{fill:url(#SVGID_26_);}
	.st30{fill:url(#SVGID_27_);}
	.st31{fill:url(#SVGID_28_);}
	.st32{fill:url(#SVGID_29_);}
	.st33{fill:url(#SVGID_30_);}
	.st34{fill:#D6DCF0;}
	.st35{fill:#B3C0E2;}
	.st36{fill:url(#SVGID_31_);stroke:#567EBF;stroke-width:1.8679;stroke-linejoin:round;stroke-miterlimit:10;}
	.st37{fill:#FFFFFF;stroke:#567EBF;stroke-width:1.8679;stroke-linejoin:round;stroke-miterlimit:10;}
	.st38{fill:url(#SVGID_32_);}
	.st39{fill:#FFFFFF;stroke:#FDDD10;stroke-width:2.802;stroke-linecap:round;stroke-linejoin:round;stroke-miterlimit:10;}
	.st40{fill:url(#SVGID_33_);}
	.st41{fill:url(#SVGID_34_);}
	.st42{fill:#FDDD10;}
	.st43{fill:url(#SVGID_35_);}
	.st44{fill:url(#SVGID_36_);}
	.st45{fill:none;stroke:#FDDD10;stroke-width:3.593;stroke-linecap:round;stroke-linejoin:round;stroke-miterlimit:10;}
	.st46{fill:url(#SVGID_37_);}
	.st47{fill:url(#SVGID_38_);}
	.st48{fill:#FFE885;}
	.st49{fill:#FEE258;}
	.st50{fill:#FFEEAC;}
	.st51{fill:url(#SVGID_39_);}
	.st52{fill:url(#SVGID_40_);}
	.st53{fill:url(#SVGID_41_);}
	.st54{fill:url(#SVGID_42_);}
	.st55{fill:url(#SVGID_43_);}
	.st56{fill:url(#SVGID_44_);}
	.st57{fill:url(#SVGID_45_);}
	.st58{fill:url(#SVGID_46_);}
	.st59{fill:url(#SVGID_47_);}
	.st60{fill:url(#SVGID_48_);}
	.st61{fill:url(#SVGID_49_);}
	.st62{fill:url(#SVGID_50_);}
	.st63{fill:url(#SVGID_51_);}
	.st64{fill:url(#SVGID_52_);}
	.st65{fill:url(#SVGID_53_);}
	.st66{fill:url(#SVGID_54_);}
	.st67{fill:url(#SVGID_55_);}
	.st68{fill:url(#SVGID_56_);}
	.st69{fill:url(#SVGID_57_);}
	.st70{fill:url(#SVGID_58_);}
	.st71{fill:url(#SVGID_59_);}
	.st72{fill:url(#SVGID_60_);}
	.st73{fill:url(#SVGID_61_);}
	.st74{fill:url(#SVGID_62_);}
	.st75{fill:url(#SVGID_63_);}
	.st76{fill:url(#SVGID_64_);}
	.st77{fill:url(#SVGID_65_);}
	.st78{fill:url(#SVGID_66_);}
	.st79{fill:url(#SVGID_67_);}
	.st80{fill:url(#SVGID_68_);}
	.st81{fill:url(#SVGID_69_);}
	.st82{fill:#CECFE8;}
	.st83{fill:url(#SVGID_70_);}
	.st84{fill:url(#SVGID_71_);}
	.st85{fill:url(#SVGID_72_);}
	.st86{fill:url(#SVGID_73_);}
	.st87{fill:url(#SVGID_74_);}
	.st88{fill:url(#SVGID_75_);}
	.st89{fill:url(#SVGID_76_);}
	.st90{fill:url(#SVGID_77_);}
	.st91{fill:url(#SVGID_78_);}
	.st92{fill:url(#SVGID_79_);}
	.st93{fill:url(#SVGID_80_);}
	.st94{fill:url(#SVGID_81_);}
	.st95{fill:url(#SVGID_82_);}
	.st96{fill:url(#SVGID_83_);}
	.st97{fill:url(#SVGID_84_);}
	.st98{fill:url(#SVGID_85_);}
	.st99{fill:url(#SVGID_86_);}
	.st100{fill:url(#SVGID_87_);}
	.st101{fill:url(#SVGID_88_);}
	.st102{fill:url(#SVGID_89_);}
	.st103{opacity:0.83;fill:#575454;}
</style>
<radialGradient id="SVGID_1_" cx="70.6545" cy="71.6545" r="62.7704" gradientUnits="userSpaceOnUse">
	<stop  offset="0" style="stop-color:#ABA6A6"/>
	<stop  offset="0.135" style="stop-color:#A49F9F"/>
	<stop  offset="0.3138" style="stop-color:#908B8B"/>
	<stop  offset="0.5172" style="stop-color:#736E6E"/>
	<stop  offset="0.7371" style="stop-color:#4F4C4C"/>
	<stop  offset="0.9544" style="stop-color:#2C2B2B"/>
</radialGradient>
<path class="st2" d="M70.7,134.4c34.7,0,62.8-28.1,62.8-62.8c0-34.7-28.1-62.8-62.8-62.8C36,8.9,7.9,37,7.9,71.7
	C7.9,106.3,36,134.4,70.7,134.4L70.7,134.4z"/>
<radialGradient id="SVGID_2_" cx="68.0434" cy="74.143" r="53.8066" gradientUnits="userSpaceOnUse">
	<stop  offset="0" style="stop-color:#FDDD10"/>
	<stop  offset="0.3416" style="stop-color:#FADA15"/>
	<stop  offset="0.5718" style="stop-color:#F1D01E"/>
	<stop  offset="0.7692" style="stop-color:#E2C128"/>
	<stop  offset="0.947" style="stop-color:#CEAD30"/>
	<stop  offset="1" style="stop-color:#C6A632"/>
</radialGradient>
<path class="st3" d="M116.1,37.6c-0.2,0-0.4,0-0.5,0.2c-0.5,0.4-0.8,1.3-1,1.9c-0.6,1.9-1.2,3.9-1.8,5.9c-2.8-7.1-2.5-14.8-4.3-22.1
	c-0.1-0.1-0.2-0.2-0.4-0.3c-1.2,7,0.6,14,1,21.4c-0.6-0.9-1.1-1.4-1.4-1.9c-2.9-4.9-5.3-10-7-15.4c-0.5-1.6-1.5-3.1-2.3-4.6
	c-0.2,0.1-0.4,0.2-0.7,0.3c0.7,3.3,1.2,6.7,2.2,9.8c1.3,3.9,3,7.8,4.6,11.6c0.5,1.2,0.8,2-0.7,2.7c-1.5,0.7-1.8-0.3-2.3-1.3
	c-2.8-5.9-5.7-11.8-8.5-17.8c-0.9-1.9-1.9-3.8-2.8-5.8c-0.3,0.1-0.6,0.2-0.9,0.3c0.5,2.5,0.6,5.2,1.6,7.5c2.4,5.5,5.2,10.8,7.7,16.2
	c1.3,2.8,1.1,3.2-1.9,5c-4.8-8.7-9.5-17.4-14.3-26.1c-0.2,0.1-0.4,0.2-0.7,0.3c0.7,2.4,1,5,2.1,7.2c3.2,6.1,6.7,12.1,8.8,18.7
	c0.6,2,0.5,2.4-2,3.8c-1.6,0.9-2-0.3-2.6-1.3c-3.2-5.3-6.3-10.6-9.6-15.9c-0.9-1.5-2-2.9-3-4.4c-0.1,0.1-0.3,0.1-0.4,0.2
	c0.1,0.5,0.2,1,0.4,1.4c2.8,6.1,5.6,12.3,8.5,18.4c1.6,3.3,1.6,3.2-0.7,5.9c-1,1.2-1.7,2.6-2.7,4.2c-1.5-2.9-2.7-5.7-4.3-8.3
	c-1.2-2-1.6-3.8,0-5.7c0.2-0.3,0.3-0.8,0.6-1.7c-1.3,1-2.1,1.6-3,2.4c-0.6-0.9-1-1.8-1.7-2.4c-3.7-3.5-4.4-7.6-2.7-12.4
	c0.5-1.3,0.1-2.9,0.1-4.3c-0.1,0-0.3,0-0.4,0c-0.8,2.7-1.5,5.4-2.4,8.5c-1.3-1.2-2.4-2.2-3.5-3.2c0.5,2.7,2.2,5.2,2.1,7.5
	c-0.1,2.4-2.1,4.7-3.2,7.1c-0.3,0-0.6,0-0.9,0c-0.6-1.1-1.6-2.1-1.6-3.2c-0.1-2.8,0.2-5.6,0.5-8.4c0.6-4.7,1.3-9.4,1.9-14.2
	c0.2-1.6-0.1-3.3-0.2-5c-0.2,0-0.5,0-0.7,0c-0.2,0.8-0.5,1.6-0.6,2.4c-0.7,5-1.3,10.1-2.1,15.1c-0.4,2.2-1.2,4.4-2,6.5
	c-0.3,0.7-1.1,1.3-1.6,1.9c-0.6-0.8-1.3-1.6-1.7-2.5c-0.3-0.5-0.1-1.3-0.1-1.9c0-7,0.1-14-0.1-21c0-1.8-0.7-3.5-1-5.3
	c-0.3,0-0.7,0.1-1,0.1c0,4.5,0.1,9,0,13.5c-0.2,5.6-0.7,11.2-1.1,16.8c0,0.5-0.8,0.9-1.3,1.4C48,46.4,47,45.7,46.9,45
	c-1.1-5.9-1.8-11.9-2.9-17.7c-0.5-2.9-1.6-5.7-2.4-8.6c-0.6,0.3-0.8,0.5-0.8,0.6c0,0.8-0.1,1.7,0,2.5c1,7.2,1.9,14.5,3,21.7
	c0.4,2.8,0.8,5.5-0.3,8.2c-0.4,1-0.9,1.9-1.9,1.8c-0.7-0.1-1.4-1-1.7-1.7c-2.6-5.5-5.1-11-7.7-16.4c-0.3-0.7-0.9-1.3-1.4-1.9
	c-0.2,0.1-0.3,0.2-0.5,0.2c0.2,0.9,0.3,1.7,0.5,2.6c1,5.6,3.5,10.6,6,15.6c1.3,2.6,1.5,5.2,1.5,7.9c0,0.7-0.5,1.4-0.9,2.1
	c-0.6,1-1.2,1.1-1.9-0.1c-2.5-4.5-5.3-8.8-6.9-13.8c-0.9-3-2.3-5.8-3.5-8.8c-0.2,0-0.4,0.1-0.6,0.1c-0.1,0.7-0.3,1.5-0.2,2.2
	c0.2,1.3,0.5,2.5,0.9,3.8c1.2,3.6,2.1,7.4,3.6,10.9c1.9,4.2,4.3,8.2,6.4,12.3c0.9,1.7,1.4,3.5,0.8,6c-1.6-1.6-3.1-2.6-4.1-4
	c-3.1-4.6-6.1-9.2-9.1-13.9c-0.4-0.6-0.8-1.1-1.2-1.6c-0.1,0.1-0.3,0.2-0.4,0.2c0.9,5,1.7,10,5.6,13.9c2.2,2.2,4.3,4.5,6.4,6.9
	c1.9,2.3,3.5,4.7,3.5,8.4c-0.8-0.6-1.2-1-1.7-1.4c-3.3-2.6-6.6-5.3-10-7.7c-1.5-1.1-3.2-1.7-5.3-1.1c0.1,0.4,0.5,0.5,0.7,0.7
	c5.2,4.5,10.4,8.9,15.4,13.6c1.4,1.2,2.3,3,3.4,4.5c-0.2,0.2-0.4,0.3-0.5,0.5c-3.1-1.7-6.2-3.4-9.3-5.2c-2-1.1-4-0.6-6.1-0.3
	c0.2,0.4,0.5,0.5,0.8,0.7c4.4,2.6,8.8,5.1,13.1,7.7c2.1,1.3,2.6,3.6,3.7,6c-3.9-0.8-7.1-3.2-11.3-2.2c1,0.6,1.7,0.9,2.3,1.3
	c2.9,1.7,5.9,3.3,8.8,5c0.4,0.3,1,0.7,1.1,1.1c0.3,2.9,2.9,3.8,4.7,5.4c1.2,1.1,2.7,1.1,4.4,1.1c2.3,0,4.5,0.6,6.8,1
	c0.6,0.1,1.1,0.5,1.7,0.7c0.1-0.1,0.3-0.2,0.4-0.4c-0.1-0.7-0.4-1.4-0.9-1.7c-2-1.1-4.1-2.3-6.2-3.1c-1.5-0.6-2.8-0.9-3.4-2.7
	c-1.7-4.9-3.6-9.7-5.2-14.7c-2.9-8.9-4.3-18-3.8-27.3c0.2-2.8,2-6.6,3.7-7.8c-2.9,6.8-3.4,13.7-2,20.7c1.1,5.5,2.3,11,3.9,16.3
	c1.3,4.1,3.2,8.1,5.1,12c1.1,2.2,2.3,2.5,4.7,2.1c0.9-0.1,1.9,0.1,2.9,0.2c1.1,0.2,2.2,0.6,3.3,0.9c-0.1,0.3-0.4,0.6-0.4,1
	c-0.1,2-0.9,4.4-0.1,5.8c1,1.7,0.4,2.4-0.6,2.9c-2.8,1.7-5.6,3.7-8.6,4.4c-2.5,0.6-4.4,1.6-5.8,3.1c1.4,0.6,2.7,1.1,4.1,1.6
	c0.5-0.4,1.2-0.7,2.2-1c2.9-1.1,5.9-1.7,8.8-2.4c0.4-0.1,1.3,0.3,1.4,0.6c0.4,1.7,1.5,1.9,2.7,1.7c0.8,1.4,1.6,2.7,2.3,4
	c0.1,0.1,0.1,0.3,0.2,0.4c0.9,0,1.8,0.1,2.7,0.1c0.9,0,1.8,0,2.8-0.1c-0.2-0.3-0.5-0.6-0.8-0.8c-1.9-1.5-4-2.9-6.1-4.3
	c0.5-1.1,1.3-2.3,1.8-3.6c0.7-1.9,1.9-2.7,4-2.6c2,0.2,3.8-0.4,5.3-2c7.2-7.7,14.4-15.4,21.6-23.2c2-2.1,4.4-4.1,5.7-6.6
	c2-3.8,3.6-7.9,4.5-12c1.3-5.7,1.7-11.6,2.7-17.4c1.3-7.4,2.7-14.7,4.1-22.1C116.3,38,116.3,37.6,116.1,37.6L116.1,37.6z
	 M84.4,100.5C85.9,88.8,107,60.8,107,60.8l0.6-0.1c2.6,0.1-3.8,17.9-5.2,23.8C101.1,90.3,82.9,112.2,84.4,100.5L84.4,100.5z
	 M70.2,54.6c-0.6,0.4-1.7,1.1-1.9,1c-0.7-0.7-1.7-1.7-1.6-2.5c0.1-2.1,0.6-4.2,1-6.3c0.2,0,0.3-0.1,0.5-0.1c0.8,1.3,1.6,2.7,2.5,3.9
	C71.8,52,72,53.4,70.2,54.6L70.2,54.6z M77.1,71.5c-1.4,1.8-2.5,3.9-3.7,5.9c-5.6-4.3-10.2-9.3-16.4-12c-0.1,0.1-0.2,0.3-0.3,0.4
	c0.5,0.5,0.9,1,1.4,1.5c3.2,3.3,6.5,6.6,9.7,9.9c0.8,0.8,1.2,1.7,0.2,2.7c-1.9,1.8-3.7,3.6-5.7,5.3c-0.4,0.4-1.5,0.5-2,0.3
	c-2.1-1-4.2-2.1-6.2-3.2c-0.8-0.4-1.5-0.7-2.3-1c1.8,2.2,3.6,4.4,5.5,6.5c0.8,0.9,0.9,1.4,0,2.2c-1.3,1.1-2.6,2.3-4.1,3.7
	c-1.4-2.7-2.9-5.2-3.9-7.9C48,83,46.4,80.3,46,77.2c-0.1-0.3-0.2-0.7-0.4-1.1c-3.2-11.1-0.8-18.5,4.7-21.1c1-0.6,2.3-1,3.9-1
	c0.2,0,0.3,0,0.5,0c0.6,0,1.1,0,1.7,0c0.4,0,0.8,0.1,1.2,0.1c5.1,0.7,9.3,3.2,12.4,7.8c1.2,1.8,2.5,3.5,3.7,5.2
	c0.2-0.1,0.3-0.2,0.5-0.3c-0.8-2.1-1.5-4.3-2.3-6.3c-0.7-1.8-0.5-3.3,1.2-4.6c0.4,0.7,0.7,1.3,1,1.9c1.1,2.4,2,5,3.2,7.3
	C78.8,67.4,78.9,69.3,77.1,71.5L77.1,71.5z M108.7,53.9c-1.3,0.9-2.6,2-3.7,3.2c-6,6.5-11,13.8-14.9,21.7c-1.6,3.3-2.9,6.7-4.4,10.1
	c0,0,0,0,0,0c-2.1,4.9-4.7,10.9-4.7,10.9c0,0-0.2,0.5-0.5,1.3c-1.2,2.5-2.4,5-3.7,7.4c-1.9,3.8-3.2,8-7.9,9.5
	c-0.7,0.2-1.4,0.6-2.3,1c0-3.5,0.1-6.5,1.8-9.3c1.6-2.7,1.2-3.4-1.7-4.6c-1-0.4-1.7-0.4-2.2,0.8c-0.4,1-1.1,1.9-1.7,2.8
	c0-0.9,0.2-1.7,0.6-2.3c0.9-1.5,0.6-2.4-0.9-3.5c-1.7-1.2-3-3-4.5-4.6c0.2-0.2,0.3-0.4,0.5-0.5c0.7,0.3,1.3,0.7,2,1
	c5.5,2.9,4.3,2.7,6.2-2.9c0.4-1.2,0-2.1-1.1-2.8c-1.5-1-3-2.1-4.4-3.2c-0.3-0.3-0.4-0.9-0.6-1.4c0.5,0,1.1-0.2,1.5,0
	c1.5,0.8,2.9,1.7,4.4,2.6c1,0.6,1.7,0.5,2.1-0.9c0.9-3.3,1.9-6.6,3-9.9c0.7-2.3,1.6-2.5,3.5-1c2,1.6,4.1,3.2,6.2,4.8
	c1.8,1.3,3.2,0.7,3.4-1.6c0.2-2,0.1-3.8-1.1-5.6c-1.4-2.1-2.4-4.5-3.8-6.6c-1-1.6-0.4-2.7,0.7-3.8c0.2-0.2,1.2-0.1,1.4,0.2
	c0.7,1.1,1.2,2.3,1.9,3.4c1,1.6,2.1,3.1,3.3,4.5c0.7,0.8,1.4,0.6,1.9-0.5c1.2-2.5,2.1-4.9,1.1-7.7c-0.8-2.2-1.6-4.4-2.5-6.5
	c-1-2.4-0.8-2.9,1.8-3.3c1.3,2.2,2.5,4.5,3.9,6.7c0.4,0.6,1.7,1.3,1.8,1.2c0.7-0.7,1.8-1.7,1.7-2.5c-0.3-2.2-1-4.4-1.7-6.5
	c-0.8-2.1-0.6-2.6,1.7-3.5c1.3,1.9,0.7,4.9,3.9,5.4c0.9-1.6,1.3-3.1,0.6-4.9c-0.3-0.8-0.6-1.7-0.5-2.5c0.1-0.5,0.7-1.1,1.3-1.4
	c0.2-0.1,1,0.4,1.2,0.9c0.5,0.8,0.9,1.7,1.4,2.6c2.8-1.2,2.8-3.1,1.7-5.4c1-0.5,1.8-0.8,2.8-1.3c0.5,1,0.9,1.8,1.2,2.6
	C111.7,51,111.3,52.1,108.7,53.9L108.7,53.9z M77.4,95.1c0.6-2.1,1.8-4.7,1.1-6.5c-1-2.5-3.4-4.4-5.5-6.9c-2.1,3.6-3,7-3.5,10.4
	c-0.1,0.4,0.4,1.2,0.9,1.4c1.7,0.8,3.4,1.6,5.1,2.2C76.1,96,77.3,95.5,77.4,95.1L77.4,95.1z M68,97.1c-0.4,0.9-0.9,1.9-1.3,2.8
	c-0.8,1.8-0.5,2.3,1.4,2.6c0.6,0.1,1.3,0.2,2.4,0.4c1,0,1.8,0,2.5-1.7c0.1-0.3-0.5-1.5-0.9-2.2c-0.5-0.8-1.2-1.5-1.8-2.3
	C69.2,95.4,68.7,95.5,68,97.1L68,97.1z M57.8,130.9c-0.2,0.2-0.4,0.4-0.6,0.6c1.2,0.3,2.4,0.5,3.6,0.7c0,0,0-0.1,0-0.1
	c0.1-0.7-0.6-1.5-0.9-2.2C59.2,130.2,58.3,130.4,57.8,130.9L57.8,130.9z"/>
<radialGradient id="SVGID_3_" cx="80.8162" cy="89.143" r="37.6373" gradientUnits="userSpaceOnUse">
	<stop  offset="0" style="stop-color:#A71E27"/>
	<stop  offset="0.1817" style="stop-color:#A22228"/>
	<stop  offset="0.4224" style="stop-color:#932928"/>
	<stop  offset="0.6961" style="stop-color:#7B2E29"/>
	<stop  offset="0.9923" style="stop-color:#5D2F2A"/>
	<stop  offset="1" style="stop-color:#5C2F2A"/>
</radialGradient>
<path class="st4" d="M110.5,48c-0.3-0.8-0.7-1.6-1.2-2.6c-0.9,0.4-1.7,0.8-2.8,1.3c1,2.2,1.1,4.2-1.7,5.4c-0.5-0.9-0.8-1.8-1.4-2.6
	c-0.3-0.4-1-1-1.2-0.9c-0.5,0.3-1.2,0.9-1.3,1.4c-0.1,0.8,0.2,1.7,0.5,2.5c0.6,1.7,0.3,3.3-0.6,4.9c-3.1-0.5-2.6-3.6-3.9-5.4
	c-2.4,0.9-2.5,1.4-1.8,3.5c0.7,2.1,1.4,4.3,1.7,6.5c0.1,0.8-1,1.8-1.7,2.5c-0.1,0.1-1.4-0.6-1.8-1.2c-1.4-2.2-2.6-4.5-3.9-6.7
	c-2.7,0.5-2.9,0.9-1.8,3.3c0.9,2.1,1.7,4.3,2.5,6.5c1,2.7,0,5.2-1.1,7.7c-0.5,1.1-1.2,1.3-1.9,0.5c-1.2-1.4-2.3-2.9-3.3-4.5
	c-0.7-1.1-1.2-2.3-1.9-3.4c-0.2-0.3-1.2-0.4-1.4-0.2c-1,1.1-1.7,2.2-0.7,3.8c1.4,2.1,2.4,4.5,3.8,6.6c1.1,1.8,1.2,3.7,1.1,5.6
	c-0.2,2.3-1.6,2.9-3.4,1.6c-2.1-1.6-4.1-3.2-6.2-4.8c-1.9-1.5-2.7-1.3-3.5,1c-1,3.3-2.1,6.6-3,9.9c-0.4,1.4-1.1,1.5-2.1,0.9
	c-1.5-0.8-2.9-1.8-4.4-2.6c-0.4-0.2-1,0-1.5,0c0.2,0.5,0.2,1.1,0.6,1.4c1.4,1.1,2.9,2.2,4.4,3.2c1.1,0.7,1.5,1.6,1.1,2.8
	c-1.9,5.6-0.8,5.9-6.2,2.9c-0.7-0.4-1.3-0.7-2-1c-0.2,0.2-0.3,0.4-0.5,0.5c1.5,1.6,2.8,3.4,4.5,4.6c1.5,1.1,1.8,2,0.9,3.5
	c-0.4,0.7-0.6,1.4-0.6,2.3c0.6-0.9,1.2-1.8,1.7-2.8c0.5-1.1,1.2-1.2,2.2-0.8c2.9,1.2,3.3,1.9,1.7,4.6c-1.7,2.8-1.8,5.8-1.8,9.3
	c1-0.4,1.6-0.8,2.3-1c4.7-1.4,6-5.7,7.9-9.5c1.2-2.5,2.5-5,3.7-7.4c0.3-0.7,0.5-1.2,0.5-1.3c0-0.1,2.5-6,4.7-10.9c0,0,0,0,0,0
	c1.5-3.4,2.8-6.8,4.4-10.1c3.9-8,8.9-15.2,14.9-21.7c1.1-1.2,2.3-2.3,3.7-3.2C111.3,52.1,111.7,51,110.5,48L110.5,48z M70.3,96.7
	c0.6,0.7,1.3,1.5,1.8,2.3c0.4,0.7,1.1,1.9,0.9,2.2c-0.6,1.7-1.5,1.6-2.5,1.7c-1.1-0.2-1.8-0.3-2.4-0.4c-1.9-0.3-2.2-0.8-1.4-2.6
	c0.4-0.9,0.9-1.9,1.3-2.8C68.7,95.5,69.2,95.4,70.3,96.7L70.3,96.7z M77.4,95.1c-0.1,0.4-1.3,0.8-1.8,0.7c-1.8-0.6-3.5-1.4-5.1-2.2
	c-0.4-0.2-0.9-1-0.9-1.4c0.5-3.5,1.4-6.8,3.5-10.4c2.1,2.5,4.5,4.4,5.5,6.9C79.2,90.4,78,93,77.4,95.1L77.4,95.1z M61.5,126.1
	c-3,0.7-6,1.3-8.8,2.4c-0.9,0.3-1.6,0.7-2.2,1c2.2,0.8,4.4,1.4,6.7,1.9c0.2-0.2,0.4-0.4,0.6-0.6c0.6-0.5,1.4-0.7,2.1-1
	c0.3,0.7,0.9,1.5,0.9,2.2c0,0,0,0.1,0,0.1c2.4,0.4,4.8,0.6,7.2,0.7c0-0.2-0.1-0.3-0.2-0.4c-0.7-1.3-1.5-2.6-2.3-4
	c-1.2,0.2-2.3,0-2.7-1.7C62.8,126.4,61.9,126,61.5,126.1L61.5,126.1z"/>
<radialGradient id="SVGID_4_" cx="96.2793" cy="82.305" r="17.4666" gradientUnits="userSpaceOnUse">
	<stop  offset="0" style="stop-color:#A71E27"/>
	<stop  offset="0.1817" style="stop-color:#A22228"/>
	<stop  offset="0.4224" style="stop-color:#932928"/>
	<stop  offset="0.6961" style="stop-color:#7B2E29"/>
	<stop  offset="0.9923" style="stop-color:#5D2F2A"/>
	<stop  offset="1" style="stop-color:#5C2F2A"/>
</radialGradient>
<path class="st5" d="M107,60.8c0,0-21.1,28-22.6,39.7c-1.5,11.7,16.7-10.2,18.1-16c1.4-5.8,7.7-23.7,5.2-23.8L107,60.8L107,60.8z"/>
<radialGradient id="SVGID_5_" cx="61.337" cy="70.1899" r="20.5903" gradientUnits="userSpaceOnUse">
	<stop  offset="0" style="stop-color:#A71E27"/>
	<stop  offset="0.1817" style="stop-color:#A22228"/>
	<stop  offset="0.4224" style="stop-color:#932928"/>
	<stop  offset="0.6961" style="stop-color:#7B2E29"/>
	<stop  offset="0.9923" style="stop-color:#5D2F2A"/>
	<stop  offset="1" style="stop-color:#5C2F2A"/>
</radialGradient>
<path class="st7" d="M77.5,65c-1.3-2.3-2.2-4.9-3.2-7.3c-0.3-0.6-0.6-1.2-1-1.9c-1.8,1.4-1.9,2.8-1.2,4.6c0.8,2.1,1.5,4.2,2.3,6.3
	c-0.2,0.1-0.3,0.2-0.5,0.3c-1.3-1.7-2.5-3.5-3.7-5.2c-3.2-4.6-7.3-7.1-12.4-7.8c-0.4-0.1-0.8-0.1-1.2-0.1c-0.6,0-1.2-0.1-1.7,0
	c-0.2,0-0.3,0-0.5,0c-1.5,0-2.8,0.4-3.9,1c-5.5,2.6-7.9,10.1-4.7,21.1c0.1,0.4,0.2,0.8,0.4,1.1c0.4,3.1,2,5.8,3.2,8.7
	c1.1,2.7,2.6,5.2,3.9,7.9c1.5-1.4,2.8-2.6,4.1-3.7c0.9-0.8,0.8-1.4,0-2.2c-1.9-2.1-3.7-4.3-5.5-6.5c0.8,0.3,1.6,0.6,2.3,1
	c2.1,1,4.1,2.2,6.2,3.2c0.5,0.2,1.6,0.1,2-0.3c2-1.7,3.8-3.5,5.7-5.3c1-1,0.6-1.8-0.2-2.7c-3.2-3.3-6.5-6.6-9.7-9.9
	c-0.5-0.5-0.9-1-1.4-1.5c0.1-0.1,0.2-0.3,0.3-0.4c6.2,2.7,10.8,7.8,16.4,12c1.2-2,2.3-4.1,3.7-5.9C78.9,69.3,78.8,67.4,77.5,65
	L77.5,65z M70.7,50.5c-0.9-1.2-1.7-2.6-2.5-3.9c-0.2,0-0.3,0.1-0.5,0.1c-0.4,2.1-0.9,4.2-1,6.3c0,0.8,0.9,1.8,1.6,2.5
	c0.2,0.2,1.3-0.5,1.9-1C72,53.4,71.8,52,70.7,50.5L70.7,50.5z"/>
</svg>
