<?xml version="1.0" encoding="utf-8"?>
<!-- Generator: Adobe Illustrator 21.1.0, SVG Export Plug-In . SVG Version: 6.00 Build 0)  -->
<svg version="1.1" id="Layer_1" xmlns="http://www.w3.org/2000/svg" xmlns:xlink="http://www.w3.org/1999/xlink" x="0px" y="0px"
	 viewBox="0 0 141.7 141.7" style="enable-background:new 0 0 141.7 141.7;" xml:space="preserve">
<style type="text/css">
	.st0{fill:#FFFFFF;}
	.st1{fill:#CFCBCB;}
	.st2{fill:url(#SVGID_1_);}
	.st3{fill:url(#SVGID_2_);}
	.st4{fill:url(#SVGID_3_);}
	.st5{fill:url(#SVGID_4_);}
	.st6{opacity:0.43;fill:#575454;}
	.st7{fill:url(#SVGID_5_);}
	.st8{fill:url(#SVGID_6_);}
	.st9{fill:url(#SVGID_7_);stroke:#FFFFFF;stroke-width:2;stroke-linecap:round;stroke-linejoin:round;stroke-miterlimit:10;}
	.st10{fill:url(#SVGID_8_);}
	.st11{fill:url(#SVGID_9_);}
	.st12{fill:url(#SVGID_10_);}
	.st13{fill:url(#SVGID_11_);}
	.st14{fill:url(#SVGID_12_);}
	.st15{fill:url(#SVGID_13_);}
	.st16{fill:url(#SVGID_14_);}
	.st17{fill:url(#SVGID_15_);}
	.st18{fill:url(#SVGID_16_);}
	.st19{fill:url(#SVGID_17_);}
	.st20{fill:url(#SVGID_18_);}
	.st21{fill:url(#SVGID_19_);}
	.st22{fill:url(#SVGID_20_);}
	.st23{fill:url(#SVGID_21_);}
	.st24{fill:url(#SVGID_22_);}
	.st25{fill:url(#SVGID_23_);}
	.st26{fill:url(#SVGID_24_);}
	.st27{fill:url(#SVGID_25_);}
	.st28{fill:#CECFE8;stroke:#FFFFFF;stroke-width:2;stroke-linecap:round;stroke-linejoin:round;stroke-miterlimit:10;}
	.st29{fill:url(#SVGID_26_);}
	.st30{fill:url(#SVGID_27_);}
	.st31{fill:url(#SVGID_28_);}
	.st32{fill:url(#SVGID_29_);}
	.st33{fill:url(#SVGID_30_);}
	.st34{fill:#D6DCF0;}
	.st35{fill:#B3C0E2;}
	.st36{fill:url(#SVGID_31_);stroke:#567EBF;stroke-width:1.8679;stroke-linejoin:round;stroke-miterlimit:10;}
	.st37{fill:#FFFFFF;stroke:#567EBF;stroke-width:1.8679;stroke-linejoin:round;stroke-miterlimit:10;}
	.st38{fill:url(#SVGID_32_);}
	.st39{fill:#FFFFFF;stroke:#FDDD10;stroke-width:2.802;stroke-linecap:round;stroke-linejoin:round;stroke-miterlimit:10;}
	.st40{fill:url(#SVGID_33_);}
	.st41{fill:url(#SVGID_34_);}
	.st42{fill:#FDDD10;}
	.st43{fill:url(#SVGID_35_);}
	.st44{fill:url(#SVGID_36_);}
	.st45{fill:none;stroke:#FDDD10;stroke-width:3.593;stroke-linecap:round;stroke-linejoin:round;stroke-miterlimit:10;}
	.st46{fill:url(#SVGID_37_);}
	.st47{fill:url(#SVGID_38_);}
	.st48{fill:#FFE885;}
	.st49{fill:#FEE258;}
	.st50{fill:#FFEEAC;}
	.st51{fill:url(#SVGID_39_);}
	.st52{fill:url(#SVGID_40_);}
	.st53{fill:url(#SVGID_41_);}
	.st54{fill:url(#SVGID_42_);}
	.st55{fill:url(#SVGID_43_);}
	.st56{fill:url(#SVGID_44_);}
	.st57{fill:url(#SVGID_45_);}
	.st58{fill:url(#SVGID_46_);}
	.st59{fill:url(#SVGID_47_);}
	.st60{fill:url(#SVGID_48_);}
	.st61{fill:url(#SVGID_49_);}
	.st62{fill:url(#SVGID_50_);}
	.st63{fill:url(#SVGID_51_);}
	.st64{fill:url(#SVGID_52_);}
	.st65{fill:url(#SVGID_53_);}
	.st66{fill:url(#SVGID_54_);}
	.st67{fill:url(#SVGID_55_);}
	.st68{fill:url(#SVGID_56_);}
	.st69{fill:url(#SVGID_57_);}
	.st70{fill:url(#SVGID_58_);}
	.st71{fill:url(#SVGID_59_);}
	.st72{fill:url(#SVGID_60_);}
	.st73{fill:url(#SVGID_61_);}
	.st74{fill:url(#SVGID_62_);}
	.st75{fill:url(#SVGID_63_);}
	.st76{fill:url(#SVGID_64_);}
	.st77{fill:url(#SVGID_65_);}
	.st78{fill:url(#SVGID_66_);}
	.st79{fill:url(#SVGID_67_);}
	.st80{fill:url(#SVGID_68_);}
	.st81{fill:url(#SVGID_69_);}
	.st82{fill:#CECFE8;}
	.st83{fill:url(#SVGID_70_);}
	.st84{fill:url(#SVGID_71_);}
	.st85{fill:url(#SVGID_72_);}
	.st86{fill:url(#SVGID_73_);}
	.st87{fill:url(#SVGID_74_);}
	.st88{fill:url(#SVGID_75_);}
	.st89{fill:url(#SVGID_76_);}
	.st90{fill:url(#SVGID_77_);}
	.st91{fill:url(#SVGID_78_);}
	.st92{fill:url(#SVGID_79_);}
	.st93{fill:url(#SVGID_80_);}
	.st94{fill:url(#SVGID_81_);}
	.st95{fill:url(#SVGID_82_);}
	.st96{fill:url(#SVGID_83_);}
	.st97{fill:url(#SVGID_84_);}
	.st98{fill:url(#SVGID_85_);}
	.st99{fill:url(#SVGID_86_);}
	.st100{fill:url(#SVGID_87_);}
	.st101{fill:url(#SVGID_88_);}
	.st102{fill:url(#SVGID_89_);}
	.st103{opacity:0.83;fill:#575454;}
</style>
<g>
	
		<linearGradient id="SVGID_1_" gradientUnits="userSpaceOnUse" x1="46.1092" y1="110.2319" x2="69.6824" y2="110.2319" gradientTransform="matrix(1 0 0 -1 0 144)">
		<stop  offset="0" style="stop-color:#71BF46"/>
		<stop  offset="1" style="stop-color:#8CC867"/>
	</linearGradient>
	<path class="st2" d="M69.7,42.2v-3.9L46.1,24.4v2.5l21.5,12.7c0.1,0,0.2,0.1,0.3,0.2c0,0,0,0,0,0c0.1,0.1,0.1,0.1,0.1,0.2
		c0,0.1,0,0.1,0,0.2c0,0,0,0.1,0,0.1v2.8L69.7,42.2z"/>
	
		<linearGradient id="SVGID_2_" gradientUnits="userSpaceOnUse" x1="71.1138" y1="110.2774" x2="94.8194" y2="110.2774" gradientTransform="matrix(1 0 0 -1 0 144)">
		<stop  offset="0" style="stop-color:#A9D48B"/>
		<stop  offset="1" style="stop-color:#8CC867"/>
	</linearGradient>
	<path class="st3" d="M73.4,39.6l21.4-12.6v-2.6l-23.7,14v3.8l1.8,1v-2.8c0-0.1,0-0.2,0.1-0.4c0,0,0-0.1,0-0.1c0,0,0.1-0.1,0.1-0.1
		c0,0,0,0,0,0c0,0,0.1-0.1,0.2-0.1C73.3,39.6,73.3,39.6,73.4,39.6"/>
	
		<linearGradient id="SVGID_3_" gradientUnits="userSpaceOnUse" x1="70.4419" y1="106.9672" x2="70.4419" y2="134.7042" gradientTransform="matrix(1 0 0 -1 0 144)">
		<stop  offset="0" style="stop-color:#E0EFD5"/>
		<stop  offset="1" style="stop-color:#C5E1B0"/>
	</linearGradient>
	<polygon class="st4" points="46.9,23.2 70.4,37 94,23.1 70.5,9.3 	"/>
	
		<linearGradient id="SVGID_4_" gradientUnits="userSpaceOnUse" x1="17.9178" y1="87.7544" x2="41.4909" y2="87.7544" gradientTransform="matrix(1 0 0 -1 0 144)">
		<stop  offset="0" style="stop-color:#71973E"/>
		<stop  offset="1" style="stop-color:#8AA55A"/>
	</linearGradient>
	<polygon class="st5" points="41.5,59.2 41.5,55.3 17.9,41.5 17.9,69 21.4,71 	"/>
	
		<linearGradient id="SVGID_5_" gradientUnits="userSpaceOnUse" x1="18.707" y1="103.7898" x2="65.7943" y2="103.7898" gradientTransform="matrix(1 0 0 -1 0 144)">
		<stop  offset="0" style="stop-color:#DDE1CC"/>
		<stop  offset="1" style="stop-color:#BECAA2"/>
	</linearGradient>
	<polygon class="st7" points="18.7,40.2 42.2,54.1 65.8,40.2 42.3,26.3 	"/>
	
		<linearGradient id="SVGID_6_" gradientUnits="userSpaceOnUse" x1="99.3051" y1="87.7538" x2="123.0107" y2="87.7538" gradientTransform="matrix(1 0 0 -1 0 144)">
		<stop  offset="0" style="stop-color:#A5B77F"/>
		<stop  offset="1" style="stop-color:#8AA55A"/>
	</linearGradient>
	<polygon class="st8" points="119.7,71.1 123,69.2 123,41.4 99.3,55.3 99.3,59.1 	"/>
	
		<linearGradient id="SVGID_7_" gradientUnits="userSpaceOnUse" x1="98.6333" y1="89.9213" x2="98.6333" y2="117.6583" gradientTransform="matrix(1 0 0 -1 0 144)">
		<stop  offset="0" style="stop-color:#DDE1CC"/>
		<stop  offset="1" style="stop-color:#BECAA2"/>
	</linearGradient>
	<polygon style="fill:url(#SVGID_7_);" points="75.1,40.2 98.6,54.1 122.2,40.2 98.7,26.3 	"/>
	
		<linearGradient id="SVGID_8_" gradientUnits="userSpaceOnUse" x1="74.3003" y1="93.1861" x2="97.8735" y2="93.1861" gradientTransform="matrix(1 0 0 -1 0 144)">
		<stop  offset="0" style="stop-color:#71973E"/>
		<stop  offset="1" style="stop-color:#8AA55A"/>
	</linearGradient>
	<path class="st10" d="M97.9,59.2v-3.9L74.3,41.5V44l21.5,12.7c0.1,0,0.2,0.1,0.3,0.2c0,0,0,0,0,0c0.1,0.1,0.1,0.1,0.1,0.2
		c0,0.1,0,0.1,0,0.2c0,0,0,0.1,0,0.1v2.8L97.9,59.2z"/>
	
		<linearGradient id="SVGID_9_" gradientUnits="userSpaceOnUse" x1="46.1092" y1="24.5994" x2="69.6824" y2="24.5994" gradientTransform="matrix(1 0 0 -1 0 144)">
		<stop  offset="0" style="stop-color:#3954A4"/>
		<stop  offset="1" style="stop-color:#5E6AB2"/>
	</linearGradient>
	<polygon class="st11" points="69.7,134 69.7,106.5 66.8,104.8 46.1,116.8 46.1,120.1 	"/>
	
		<linearGradient id="SVGID_10_" gradientUnits="userSpaceOnUse" x1="71.1138" y1="24.6692" x2="94.8194" y2="24.6692" gradientTransform="matrix(1 0 0 -1 0 144)">
		<stop  offset="0" style="stop-color:#7F85C1"/>
		<stop  offset="1" style="stop-color:#5E6AB2"/>
	</linearGradient>
	<polygon class="st12" points="74.2,104.7 71.1,106.5 71.1,134 94.8,120.3 94.8,116.8 	"/>
	
		<linearGradient id="SVGID_11_" gradientUnits="userSpaceOnUse" x1="70.4419" y1="72.8754" x2="70.4419" y2="100.6123" gradientTransform="matrix(1 0 0 -1 0 144)">
		<stop  offset="0" style="stop-color:#FFF6D4"/>
		<stop  offset="1" style="stop-color:#FFEEAD"/>
	</linearGradient>
	<polygon class="st13" points="46.9,57.3 70.4,71.1 94,57.2 70.5,43.4 	"/>
	
		<linearGradient id="SVGID_12_" gradientUnits="userSpaceOnUse" x1="46.1091" y1="64.7992" x2="69.6823" y2="64.7992" gradientTransform="matrix(1 0 0 -1 0 144)">
		<stop  offset="0" style="stop-color:#FCDD09"/>
		<stop  offset="1" style="stop-color:#FDE259"/>
	</linearGradient>
	<polygon class="st14" points="69.7,99.9 69.7,72.4 46.1,58.5 46.1,86 	"/>
	
		<linearGradient id="SVGID_13_" gradientUnits="userSpaceOnUse" x1="71.1135" y1="64.8321" x2="94.8191" y2="64.8321" gradientTransform="matrix(1 0 0 -1 0 144)">
		<stop  offset="0" style="stop-color:#FFE885"/>
		<stop  offset="1" style="stop-color:#FDE259"/>
	</linearGradient>
	<polygon class="st15" points="94.8,86.2 94.8,58.4 71.1,72.4 71.1,99.9 	"/>
	
		<linearGradient id="SVGID_14_" gradientUnits="userSpaceOnUse" x1="17.9178" y1="47.7532" x2="41.4909" y2="47.7532" gradientTransform="matrix(1 0 0 -1 0 144)">
		<stop  offset="0" style="stop-color:#567EC0"/>
		<stop  offset="1" style="stop-color:#7591CA"/>
	</linearGradient>
	<polygon class="st16" points="41.5,116.9 41.5,89.4 17.9,75.5 17.9,103.1 	"/>
	
		<linearGradient id="SVGID_15_" gradientUnits="userSpaceOnUse" x1="42.9224" y1="41.7152" x2="66.6281" y2="41.7152" gradientTransform="matrix(1 0 0 -1 0 144)">
		<stop  offset="0" style="stop-color:#92A7D6"/>
		<stop  offset="1" style="stop-color:#7591CA"/>
	</linearGradient>
	<polygon class="st17" points="46,87.6 42.9,89.4 42.9,117 66.6,103.3 66.6,99.8 	"/>
	
		<linearGradient id="SVGID_16_" gradientUnits="userSpaceOnUse" x1="31.7277" y1="55.8299" x2="31.7277" y2="83.5668" gradientTransform="matrix(1 0 0 -1 0 144)">
		<stop  offset="0" style="stop-color:#D7DCF0"/>
		<stop  offset="1" style="stop-color:#B3C0E3"/>
	</linearGradient>
	<path class="st18" d="M44.7,61.8l-2.4-1.4L18.7,74.3l23.5,13.8l2.5-1.5c0-0.1-0.1-0.2-0.1-0.4c0,0,0,0,0,0V61.8z"/>
	
		<linearGradient id="SVGID_17_" gradientUnits="userSpaceOnUse" x1="74.3004" y1="41.6504" x2="97.8736" y2="41.6504" gradientTransform="matrix(1 0 0 -1 0 144)">
		<stop  offset="0" style="stop-color:#567EC0"/>
		<stop  offset="1" style="stop-color:#7591CA"/>
	</linearGradient>
	<polygon class="st19" points="97.9,116.9 97.9,89.4 95,87.8 74.3,99.7 74.3,103.1 	"/>
	
		<linearGradient id="SVGID_18_" gradientUnits="userSpaceOnUse" x1="99.3048" y1="47.7862" x2="123.0104" y2="47.7862" gradientTransform="matrix(1 0 0 -1 0 144)">
		<stop  offset="0" style="stop-color:#92A7D6"/>
		<stop  offset="1" style="stop-color:#7591CA"/>
	</linearGradient>
	<polygon class="st20" points="123,103.3 123,75.5 99.3,89.4 99.3,117 	"/>
	
		<linearGradient id="SVGID_19_" gradientUnits="userSpaceOnUse" x1="109.1935" y1="55.83" x2="109.1935" y2="83.5669" gradientTransform="matrix(1 0 0 -1 0 144)">
		<stop  offset="0" style="stop-color:#D7DCF0"/>
		<stop  offset="1" style="stop-color:#B3C0E3"/>
	</linearGradient>
	<path class="st21" d="M122.2,74.3L98.7,60.4l-2.4,1.4v24.5c0,0.1,0,0.1,0,0.2c0,0.1,0,0.2,0,0.3l2.4,1.4L122.2,74.3z"/>
	
		<linearGradient id="SVGID_20_" gradientUnits="userSpaceOnUse" x1="42.9222" y1="93.2311" x2="66.6279" y2="93.2311" gradientTransform="matrix(1 0 0 -1 0 144)">
		<stop  offset="0" style="stop-color:#A5B77F"/>
		<stop  offset="1" style="stop-color:#8AA55A"/>
	</linearGradient>
	<path class="st22" d="M66.6,44v-2.6l-23.7,14v3.8l1.8,1v-2.8c0-0.1,0-0.2,0.1-0.4c0,0,0-0.1,0-0.1c0,0,0.1-0.1,0.1-0.1c0,0,0,0,0,0
		c0,0,0.1-0.1,0.2-0.1c0,0,0.1-0.1,0.1-0.1L66.6,44z"/>
	<path class="st82" d="M68,103.1c0,0.1,0,0.2,0,0.3l2.4,1.4l2.5-1.5c0-0.1-0.1-0.2-0.1-0.4c0,0,0,0,0,0v-2.8l-2,1.2c0,0,0,0,0,0
		c0,0-0.1,0-0.2,0.1c-0.1,0-0.1,0-0.2,0c0,0,0,0,0,0c0,0,0,0-0.1,0c0,0,0,0-0.1,0c0,0,0,0,0,0c0,0-0.1,0-0.1,0c0,0,0,0,0,0
		c0,0,0,0,0,0c-0.1,0-0.1,0-0.2-0.1l-1.9-1.1v2.8C68.1,103,68,103,68,103.1"/>
</g>
</svg>
