<?xml version="1.0" encoding="utf-8"?>
<!-- Generator: Adobe Illustrator 21.1.0, SVG Export Plug-In . SVG Version: 6.00 Build 0)  -->
<svg version="1.1" id="Layer_1" xmlns="http://www.w3.org/2000/svg" xmlns:xlink="http://www.w3.org/1999/xlink" x="0px" y="0px"
	 viewBox="0 0 141.7 141.7" style="enable-background:new 0 0 141.7 141.7;" xml:space="preserve">
<style type="text/css">
	.st0{fill:#FFFFFF;}
	.st1{fill:#CFCBCB;}
	.st2{fill:url(#SVGID_1_);}
	.st3{fill:url(#SVGID_2_);}
	.st4{fill:url(#SVGID_3_);}
	.st5{fill:url(#SVGID_4_);}
	.st6{opacity:0.43;fill:#575454;}
	.st7{fill:url(#SVGID_5_);}
	.st8{fill:url(#SVGID_6_);}
	.st9{fill:url(#SVGID_7_);stroke:#FFFFFF;stroke-width:2;stroke-linecap:round;stroke-linejoin:round;stroke-miterlimit:10;}
	.st10{fill:url(#SVGID_8_);}
	.st11{fill:url(#SVGID_9_);}
	.st12{fill:url(#SVGID_10_);}
	.st13{fill:url(#SVGID_11_);}
	.st14{fill:url(#SVGID_12_);}
	.st15{fill:url(#SVGID_13_);}
	.st16{fill:url(#SVGID_14_);}
	.st17{fill:url(#SVGID_15_);}
	.st18{fill:url(#SVGID_16_);}
	.st19{fill:url(#SVGID_17_);}
	.st20{fill:url(#SVGID_18_);}
	.st21{fill:url(#SVGID_19_);}
	.st22{fill:url(#SVGID_20_);}
	.st23{fill:url(#SVGID_21_);}
	.st24{fill:url(#SVGID_22_);}
	.st25{fill:url(#SVGID_23_);}
	.st26{fill:url(#SVGID_24_);}
	.st27{fill:url(#SVGID_25_);}
	.st28{fill:#CECFE8;stroke:#FFFFFF;stroke-width:2;stroke-linecap:round;stroke-linejoin:round;stroke-miterlimit:10;}
	.st29{fill:url(#SVGID_26_);}
	.st30{fill:url(#SVGID_27_);}
	.st31{fill:url(#SVGID_28_);}
	.st32{fill:url(#SVGID_29_);}
	.st33{fill:url(#SVGID_30_);}
	.st34{fill:#D6DCF0;}
	.st35{fill:#B3C0E2;}
	.st36{fill:url(#SVGID_31_);stroke:#567EBF;stroke-width:1.8679;stroke-linejoin:round;stroke-miterlimit:10;}
	.st37{fill:#FFFFFF;stroke:#567EBF;stroke-width:1.8679;stroke-linejoin:round;stroke-miterlimit:10;}
	.st38{fill:url(#SVGID_32_);}
	.st39{fill:#FFFFFF;stroke:#FDDD10;stroke-width:2.802;stroke-linecap:round;stroke-linejoin:round;stroke-miterlimit:10;}
	.st40{fill:url(#SVGID_33_);}
	.st41{fill:url(#SVGID_34_);}
	.st42{fill:#FDDD10;}
	.st43{fill:url(#SVGID_35_);}
	.st44{fill:url(#SVGID_36_);}
	.st45{fill:none;stroke:#FDDD10;stroke-width:3.593;stroke-linecap:round;stroke-linejoin:round;stroke-miterlimit:10;}
	.st46{fill:url(#SVGID_37_);}
	.st47{fill:url(#SVGID_38_);}
	.st48{fill:#FFE885;}
	.st49{fill:#FEE258;}
	.st50{fill:#FFEEAC;}
	.st51{fill:url(#SVGID_39_);}
	.st52{fill:url(#SVGID_40_);}
	.st53{fill:url(#SVGID_41_);}
	.st54{fill:url(#SVGID_42_);}
	.st55{fill:url(#SVGID_43_);}
	.st56{fill:url(#SVGID_44_);}
	.st57{fill:url(#SVGID_45_);}
	.st58{fill:url(#SVGID_46_);}
	.st59{fill:url(#SVGID_47_);}
	.st60{fill:url(#SVGID_48_);}
	.st61{fill:url(#SVGID_49_);}
	.st62{fill:url(#SVGID_50_);}
	.st63{fill:url(#SVGID_51_);}
	.st64{fill:url(#SVGID_52_);}
	.st65{fill:url(#SVGID_53_);}
	.st66{fill:url(#SVGID_54_);}
	.st67{fill:url(#SVGID_55_);}
	.st68{fill:url(#SVGID_56_);}
	.st69{fill:url(#SVGID_57_);}
	.st70{fill:url(#SVGID_58_);}
	.st71{fill:url(#SVGID_59_);}
	.st72{fill:url(#SVGID_60_);}
	.st73{fill:url(#SVGID_61_);}
	.st74{fill:url(#SVGID_62_);}
	.st75{fill:url(#SVGID_63_);}
	.st76{fill:url(#SVGID_64_);}
	.st77{fill:url(#SVGID_65_);}
	.st78{fill:url(#SVGID_66_);}
	.st79{fill:url(#SVGID_67_);}
	.st80{fill:url(#SVGID_68_);}
	.st81{fill:url(#SVGID_69_);}
	.st82{fill:#CECFE8;}
	.st83{fill:url(#SVGID_70_);}
	.st84{fill:url(#SVGID_71_);}
	.st85{fill:url(#SVGID_72_);}
	.st86{fill:url(#SVGID_73_);}
	.st87{fill:url(#SVGID_74_);}
	.st88{fill:url(#SVGID_75_);}
	.st89{fill:url(#SVGID_76_);}
	.st90{fill:url(#SVGID_77_);}
	.st91{fill:url(#SVGID_78_);}
	.st92{fill:url(#SVGID_79_);}
	.st93{fill:url(#SVGID_80_);}
	.st94{fill:url(#SVGID_81_);}
	.st95{fill:url(#SVGID_82_);}
	.st96{fill:url(#SVGID_83_);}
	.st97{fill:url(#SVGID_84_);}
	.st98{fill:url(#SVGID_85_);}
	.st99{fill:url(#SVGID_86_);}
	.st100{fill:url(#SVGID_87_);}
	.st101{fill:url(#SVGID_88_);}
	.st102{fill:url(#SVGID_89_);}
	.st103{opacity:0.83;fill:#575454;}
</style>
<g>
	<radialGradient id="SVGID_1_" cx="71.4082" cy="71.1131" r="62.7704" gradientUnits="userSpaceOnUse">
		<stop  offset="2.000000e-02" style="stop-color:#FFEEAC"/>
		<stop  offset="0.8" style="stop-color:#FEE258"/>
		<stop  offset="0.98" style="stop-color:#FDDD10"/>
	</radialGradient>
	<path class="st2" d="M71.4,8.3C36.7,8.3,8.6,36.4,8.6,71.1s28.1,62.8,62.8,62.8c34.7,0,62.8-28.1,62.8-62.8S106.1,8.3,71.4,8.3z"/>
	<path class="st0" d="M68.5,119.8c0-2.8,1.1-4.6,2.3-6.3c0.1,0,0.2,0.1,0.3,0.1c-0.2,2.8-0.3,5.6-0.5,8.3c0,0.4-0.4,1.1-0.6,1.2
		c-0.3,0-0.8-0.3-1-0.7C68.8,121.6,68.5,120.6,68.5,119.8 M72.9,113.6c0.1,0,0.2-0.1,0.3-0.1c1.4,1.9,2.6,4,2.2,7.2
		c0,0.3-0.1,0.7-0.2,0.9c-0.4,0.6-0.8,1-1.2,1.5c-0.3-0.6-0.7-1.2-0.8-1.9C73,118.7,73,116.1,72.9,113.6 M65.5,118.8
		c-0.7,2.2-0.5,3.7,0.8,5.1c1.6,1.9,3.6,2.6,6.4,2.8c0.7-0.3,2.2-0.6,3.6-1.5c3-1.9,3.5-4.6,1.4-8.3c-1.3-2.4-2.9-4.4-4.5-6.4
		c-1.3-1.6-0.9-1.4-2.2,0c-0.5,0.5-1,1.1-1.4,1.7C67.9,114.1,66.5,116.1,65.5,118.8 M55.6,53.2c0.1-0.1,0.1-0.3,0.2-0.4
		c-1.5-6.4-3.4-12.6-6.5-17.8c-2.6-4.3-9.5-11-11.2-11.1c0.3,1.2,0.7,2.6,1,4c0.8,3.3,1.4,6.6,2.2,9.8c1.2,4.8,3.4,8.3,6.5,10.5
		C50.4,50.1,53,51.6,55.6,53.2 M92.4,70.5c-2.4-9.3-6.4-17-11.1-24.1c-2.5-3.8-5.6-5.5-9.2-5.5c-3.3,0-6.4,1.2-8.8,4.8
		c-5.3,7.6-9.7,16-12,26.5c-0.4,1.6-0.5,3.1,0.1,4.8c2.5,7.3,6.2,12.7,11.4,15.6c0.3,0.2,0.6,0.3,1,0.5c-0.2-1.8-0.4-3.5-0.7-5.5
		c3.3,8.6,5.2,17,2.6,26.6c0.4-0.4,0.6-0.9,0.9-1.3c1.6-2,3.2-4,4.8-6c0.5-0.6,1-0.6,1.4,0c1.4,1.8,2.9,3.6,4.3,5.4
		c0.4,0.5,0.7,1.2,1.1,1.8c-0.6-4.5-1.5-8.9-0.8-13.5c0.7-4.5,2-8.5,3.5-12.5c-0.2,1.6-0.4,3.3-0.6,4.9c0.2,0,0.3,0,0.3,0
		c5.4-2.7,9.2-8,11.8-15.2c0.5-1.4,0.9-3,0.5-4.6C92.7,72.1,92.6,71.3,92.4,70.5 M106.1,23.9c-9.3,5.3-15.1,15-18,29.4
		c2.7-1.7,5.3-3.1,7.8-4.9c3.1-2.2,5.4-5.7,6.6-10.5c0.7-2.9,1.4-5.8,2-8.7C105,27.4,105,25.3,106.1,23.9"/>
	<path class="st45" d="M68.5,119.8c0-2.8,1.1-4.6,2.3-6.3c0.1,0,0.2,0.1,0.3,0.1c-0.2,2.8-0.3,5.6-0.5,8.3c0,0.4-0.4,1.1-0.6,1.2
		c-0.3,0-0.8-0.3-1-0.7C68.8,121.6,68.5,120.6,68.5,119.8z M72.9,113.6c0.1,0,0.2-0.1,0.3-0.1c1.4,1.9,2.6,4,2.2,7.2
		c0,0.3-0.1,0.7-0.2,0.9c-0.4,0.6-0.8,1-1.2,1.5c-0.3-0.6-0.7-1.2-0.8-1.9C73,118.7,73,116.1,72.9,113.6z M65.5,118.8
		c-0.7,2.2-0.5,3.7,0.8,5.1c1.6,1.9,3.6,2.6,6.4,2.8c0.7-0.3,2.2-0.6,3.6-1.5c3-1.9,3.5-4.6,1.4-8.3c-1.3-2.4-2.9-4.4-4.5-6.4
		c-1.3-1.6-0.9-1.4-2.2,0c-0.5,0.5-1,1.1-1.4,1.7C67.9,114.1,66.5,116.1,65.5,118.8z M55.6,53.2c0.1-0.1,0.1-0.3,0.2-0.4
		c-1.5-6.4-3.4-12.6-6.5-17.8c-2.6-4.3-9.5-11-11.2-11.1c0.3,1.2,0.7,2.6,1,4c0.8,3.3,1.4,6.6,2.2,9.8c1.2,4.8,3.4,8.3,6.5,10.5
		C50.4,50.1,53,51.6,55.6,53.2z M92.4,70.5c-2.4-9.3-6.4-17-11.1-24.1c-2.5-3.8-5.6-5.5-9.2-5.5c-3.3,0-6.4,1.2-8.8,4.8
		c-5.3,7.6-9.7,16-12,26.5c-0.4,1.6-0.5,3.1,0.1,4.8c2.5,7.3,6.2,12.7,11.4,15.6c0.3,0.2,0.6,0.3,1,0.5c-0.2-1.8-0.4-3.5-0.7-5.5
		c3.3,8.6,5.2,17,2.6,26.6c0.4-0.4,0.6-0.9,0.9-1.3c1.6-2,3.2-4,4.8-6c0.5-0.6,1-0.6,1.4,0c1.4,1.8,2.9,3.6,4.3,5.4
		c0.4,0.5,0.7,1.2,1.1,1.8c-0.6-4.5-1.5-8.9-0.8-13.5c0.7-4.5,2-8.5,3.5-12.5c-0.2,1.6-0.4,3.3-0.6,4.9c0.2,0,0.3,0,0.3,0
		c5.4-2.7,9.2-8,11.8-15.2c0.5-1.4,0.9-3,0.5-4.6C92.7,72.1,92.6,71.3,92.4,70.5z M106.1,23.9c-9.3,5.3-15.1,15-18,29.4
		c2.7-1.7,5.3-3.1,7.8-4.9c3.1-2.2,5.4-5.7,6.6-10.5c0.7-2.9,1.4-5.8,2-8.7C105,27.4,105,25.3,106.1,23.9z"/>
	<path class="st0" d="M68.5,119.8c0-2.8,1.1-4.6,2.3-6.3c0.1,0,0.2,0.1,0.3,0.1c-0.2,2.8-0.3,5.6-0.5,8.3c0,0.4-0.4,1.1-0.6,1.2
		c-0.3,0-0.8-0.3-1-0.7C68.8,121.6,68.5,120.6,68.5,119.8 M72.9,113.6c0.1,0,0.2-0.1,0.3-0.1c1.4,1.9,2.6,4,2.2,7.2
		c0,0.3-0.1,0.7-0.2,0.9c-0.4,0.6-0.8,1-1.2,1.5c-0.3-0.6-0.7-1.2-0.8-1.9C73,118.7,73,116.1,72.9,113.6 M65.5,118.8
		c-0.7,2.2-0.5,3.7,0.8,5.1c1.6,1.9,3.6,2.6,6.4,2.8c0.7-0.3,2.2-0.6,3.6-1.5c3-1.9,3.5-4.6,1.4-8.3c-1.3-2.4-2.9-4.4-4.5-6.4
		c-1.3-1.6-0.9-1.4-2.2,0c-0.5,0.5-1,1.1-1.4,1.7C67.9,114.1,66.5,116.1,65.5,118.8 M55.6,53.2c0.1-0.1,0.1-0.3,0.2-0.4
		c-1.5-6.4-3.4-12.6-6.5-17.8c-2.6-4.3-9.5-11-11.2-11.1c0.3,1.2,0.7,2.6,1,4c0.8,3.3,1.4,6.6,2.2,9.8c1.2,4.8,3.4,8.3,6.5,10.5
		C50.4,50.1,53,51.6,55.6,53.2 M92.4,70.5c-2.4-9.3-6.4-17-11.1-24.1c-2.5-3.8-5.6-5.5-9.2-5.5c-3.3,0-6.4,1.2-8.8,4.8
		c-5.3,7.6-9.7,16-12,26.5c-0.4,1.6-0.5,3.1,0.1,4.8c2.5,7.3,6.2,12.7,11.4,15.6c0.3,0.2,0.6,0.3,1,0.5c-0.2-1.8-0.4-3.5-0.7-5.5
		c3.3,8.6,5.2,17,2.6,26.6c0.4-0.4,0.6-0.9,0.9-1.3c1.6-2,3.2-4,4.8-6c0.5-0.6,1-0.6,1.4,0c1.4,1.8,2.9,3.6,4.3,5.4
		c0.4,0.5,0.7,1.2,1.1,1.8c-0.6-4.5-1.5-8.9-0.8-13.5c0.7-4.5,2-8.5,3.5-12.5c-0.2,1.6-0.4,3.3-0.6,4.9c0.2,0,0.3,0,0.3,0
		c5.4-2.7,9.2-8,11.8-15.2c0.5-1.4,0.9-3,0.5-4.6C92.7,72.1,92.6,71.3,92.4,70.5 M106.1,23.9c-9.3,5.3-15.1,15-18,29.4
		c2.7-1.7,5.3-3.1,7.8-4.9c3.1-2.2,5.4-5.7,6.6-10.5c0.7-2.9,1.4-5.8,2-8.7C105,27.4,105,25.3,106.1,23.9"/>
</g>
</svg>
