<?xml version="1.0" encoding="utf-8"?>
<!-- Generator: Adobe Illustrator 21.1.0, SVG Export Plug-In . SVG Version: 6.00 Build 0)  -->
<svg version="1.1" id="Layer_1" xmlns="http://www.w3.org/2000/svg" xmlns:xlink="http://www.w3.org/1999/xlink" x="0px" y="0px"
	 viewBox="0 0 141.7 141.7" style="enable-background:new 0 0 141.7 141.7;" xml:space="preserve">
<style type="text/css">
	.st0{fill:#FFFFFF;}
	.st1{fill:#CFCBCB;}
	.st2{fill:url(#SVGID_1_);}
	.st3{fill:url(#SVGID_2_);}
	.st4{fill:url(#SVGID_3_);}
	.st5{fill:url(#SVGID_4_);}
	.st6{opacity:0.43;fill:#575454;}
	.st7{fill:url(#SVGID_5_);}
	.st8{fill:url(#SVGID_6_);}
	.st9{fill:url(#SVGID_7_);stroke:#FFFFFF;stroke-width:2;stroke-linecap:round;stroke-linejoin:round;stroke-miterlimit:10;}
	.st10{fill:url(#SVGID_8_);}
	.st11{fill:url(#SVGID_9_);}
	.st12{fill:url(#SVGID_10_);}
	.st13{fill:url(#SVGID_11_);}
	.st14{fill:url(#SVGID_12_);}
	.st15{fill:url(#SVGID_13_);}
	.st16{fill:url(#SVGID_14_);}
	.st17{fill:url(#SVGID_15_);}
	.st18{fill:url(#SVGID_16_);}
	.st19{fill:url(#SVGID_17_);}
	.st20{fill:url(#SVGID_18_);}
	.st21{fill:url(#SVGID_19_);}
	.st22{fill:url(#SVGID_20_);}
	.st23{fill:url(#SVGID_21_);}
	.st24{fill:url(#SVGID_22_);}
	.st25{fill:url(#SVGID_23_);}
	.st26{fill:url(#SVGID_24_);}
	.st27{fill:url(#SVGID_25_);}
	.st28{fill:#CECFE8;stroke:#FFFFFF;stroke-width:2;stroke-linecap:round;stroke-linejoin:round;stroke-miterlimit:10;}
	.st29{fill:url(#SVGID_26_);}
	.st30{fill:url(#SVGID_27_);}
	.st31{fill:url(#SVGID_28_);}
	.st32{fill:url(#SVGID_29_);}
	.st33{fill:url(#SVGID_30_);}
	.st34{fill:#D6DCF0;}
	.st35{fill:#B3C0E2;}
	.st36{fill:url(#SVGID_31_);stroke:#567EBF;stroke-width:1.8679;stroke-linejoin:round;stroke-miterlimit:10;}
	.st37{fill:#FFFFFF;stroke:#567EBF;stroke-width:1.8679;stroke-linejoin:round;stroke-miterlimit:10;}
	.st38{fill:url(#SVGID_32_);}
	.st39{fill:#FFFFFF;stroke:#FDDD10;stroke-width:2.802;stroke-linecap:round;stroke-linejoin:round;stroke-miterlimit:10;}
	.st40{fill:url(#SVGID_33_);}
	.st41{fill:url(#SVGID_34_);}
	.st42{fill:#FDDD10;}
	.st43{fill:url(#SVGID_35_);}
	.st44{fill:url(#SVGID_36_);}
	.st45{fill:none;stroke:#FDDD10;stroke-width:3.593;stroke-linecap:round;stroke-linejoin:round;stroke-miterlimit:10;}
	.st46{fill:url(#SVGID_37_);}
	.st47{fill:url(#SVGID_38_);}
	.st48{fill:#FFE885;}
	.st49{fill:#FEE258;}
	.st50{fill:#FFEEAC;}
	.st51{fill:url(#SVGID_39_);}
	.st52{fill:url(#SVGID_40_);}
	.st53{fill:url(#SVGID_41_);}
	.st54{fill:url(#SVGID_42_);}
	.st55{fill:url(#SVGID_43_);}
	.st56{fill:url(#SVGID_44_);}
	.st57{fill:url(#SVGID_45_);}
	.st58{fill:url(#SVGID_46_);}
	.st59{fill:url(#SVGID_47_);}
	.st60{fill:url(#SVGID_48_);}
	.st61{fill:url(#SVGID_49_);}
	.st62{fill:url(#SVGID_50_);}
	.st63{fill:url(#SVGID_51_);}
	.st64{fill:url(#SVGID_52_);}
	.st65{fill:url(#SVGID_53_);}
	.st66{fill:url(#SVGID_54_);}
	.st67{fill:url(#SVGID_55_);}
	.st68{fill:url(#SVGID_56_);}
	.st69{fill:url(#SVGID_57_);}
	.st70{fill:url(#SVGID_58_);}
	.st71{fill:url(#SVGID_59_);}
	.st72{fill:url(#SVGID_60_);}
	.st73{fill:url(#SVGID_61_);}
	.st74{fill:url(#SVGID_62_);}
	.st75{fill:url(#SVGID_63_);}
	.st76{fill:url(#SVGID_64_);}
	.st77{fill:url(#SVGID_65_);}
	.st78{fill:url(#SVGID_66_);}
	.st79{fill:url(#SVGID_67_);}
	.st80{fill:url(#SVGID_68_);}
	.st81{fill:url(#SVGID_69_);}
	.st82{fill:#CECFE8;}
	.st83{fill:url(#SVGID_70_);}
	.st84{fill:url(#SVGID_71_);}
	.st85{fill:url(#SVGID_72_);}
	.st86{fill:url(#SVGID_73_);}
	.st87{fill:url(#SVGID_74_);}
	.st88{fill:url(#SVGID_75_);}
	.st89{fill:url(#SVGID_76_);}
	.st90{fill:url(#SVGID_77_);}
	.st91{fill:url(#SVGID_78_);}
	.st92{fill:url(#SVGID_79_);}
	.st93{fill:url(#SVGID_80_);}
	.st94{fill:url(#SVGID_81_);}
	.st95{fill:url(#SVGID_82_);}
	.st96{fill:url(#SVGID_83_);}
	.st97{fill:url(#SVGID_84_);}
	.st98{fill:url(#SVGID_85_);}
	.st99{fill:url(#SVGID_86_);}
	.st100{fill:url(#SVGID_87_);}
	.st101{fill:url(#SVGID_88_);}
	.st102{fill:url(#SVGID_89_);}
	.st103{opacity:0.83;fill:#575454;}
</style>
<g>
	<radialGradient id="SVGID_1_" cx="71.1893" cy="71.1891" r="62.7706" gradientUnits="userSpaceOnUse">
		<stop  offset="0" style="stop-color:#2B3336"/>
		<stop  offset="0.2649" style="stop-color:#242D30"/>
		<stop  offset="0.6654" style="stop-color:#101A1D"/>
		<stop  offset="1" style="stop-color:#000000"/>
	</radialGradient>
	<path class="st2" d="M71.2,134c34.7,0,62.8-28.1,62.8-62.8S105.9,8.4,71.2,8.4C36.5,8.4,8.4,36.5,8.4,71.2S36.5,134,71.2,134
		L71.2,134z"/>
	<path class="st48" d="M67.3,32.8c-0.4-0.1-0.9,0.2-0.9,0.7l-0.5,2.9c-0.1,0.4,0.2,0.9,0.7,0.9c11.2,2,21.5,7.9,28.7,17.4
		c7.2,9.5,10,21.1,8.8,32.4c0,0.4,0.3,0.8,0.7,0.9l3,0.3c0.4,0,0.9-0.3,0.9-0.7c1.4-12.5-1.7-25.2-9.6-35.7
		C91,41.4,79.6,35,67.3,32.8L67.3,32.8z"/>
	<path class="st42" d="M73.6,66.5c0,0-15.6-2.9-17.8,1c-2.2,3.9,8.9,14.8,8.9,14.8S73.9,75.2,73.6,66.5L73.6,66.5z M62.8,63.5
		c-3.9-2.5-8.6-3.9-13.6-3.9c-14.2,0-25.7,11.5-25.7,25.7c0,14.2,11.5,25.7,25.7,25.7c14.2,0,25.7-11.5,25.7-25.7
		c0-3.2-0.6-6.3-1.7-9.1c-3.5,5.8-8.5,9.6-8.5,9.6S50,71.4,52.9,66.2C54.1,64.1,58.3,63.5,62.8,63.5L62.8,63.5z M48.4,84.1
		c-1.2,1.6-3.7,1.9-5.6,0.5c-1.9-1.4-2.4-3.8-1.1-5.5c1.2-1.6,3.7-1.9,5.6-0.5C49.1,80,49.6,82.5,48.4,84.1L48.4,84.1z"/>
	<path class="st49" d="M65.2,44.7c-0.4-0.1-0.9,0.2-1,0.7l-0.3,1.9c-0.1,0.4,0.2,0.8,0.6,0.9c8.4,1.7,16.1,6.2,21.5,13.4
		c5.4,7.2,7.6,15.8,6.9,24.4c0,0.4,0.3,0.8,0.7,0.9l1.9,0.2c0.5,0,0.9-0.3,0.9-0.7c0.9-9.4-1.5-19-7.5-27
		C83.1,51.5,74.5,46.5,65.2,44.7L65.2,44.7z"/>
	<path class="st50" d="M109,44.4c-9.9-13.1-24.2-21.1-39.7-23.6c-0.4-0.1-0.9,0.2-0.9,0.7l-0.5,2.9c-0.1,0.4,0.2,0.9,0.7,0.9
		c14.3,2.4,27.5,9.8,36.7,21.9c9.2,12.2,12.6,26.9,10.9,41.3c-0.1,0.4,0.3,0.9,0.7,0.9l2.9,0.3c0.4,0,0.9-0.3,0.9-0.7
		C122.6,73.5,118.9,57.5,109,44.4L109,44.4z"/>
</g>
</svg>
