<?xml version="1.0" encoding="utf-8"?>
<!-- Generator: Adobe Illustrator 21.1.0, SVG Export Plug-In . SVG Version: 6.00 Build 0)  -->
<svg version="1.1" id="Layer_1" xmlns="http://www.w3.org/2000/svg" xmlns:xlink="http://www.w3.org/1999/xlink" x="0px" y="0px"
	 viewBox="0 0 212.7 212.7" style="enable-background:new 0 0 212.7 212.7;" xml:space="preserve">
<style type="text/css">
	.st0{fill:#FFFFFF;}
	.st1{display:none;}
	.st2{display:inline;fill:none;}
	.st3{display:inline;fill:#FFFFFF;}
	.st4{display:inline;}
	.st5{display:inline;fill:#6FBE46;}
	.st6{display:inline;fill:#FDDD10;}
	.st7{display:inline;fill:none;stroke:#6FBE46;stroke-width:1.477;}
	.st8{fill:none;}
	.st9{fill:#6FBE46;}
	.st10{fill:#FDDD10;}
	.st11{clip-path:url(#SVGID_2_);fill:url(#SVGID_3_);}
	.st12{clip-path:url(#SVGID_5_);fill:url(#SVGID_6_);}
	.st13{fill:none;stroke:#6FBE46;stroke-width:1.477;}
</style>
<circle class="st0" cx="106.9" cy="106.4" r="105.3"/>
<g id="Layer_1_1_" class="st1">
	<rect class="st2" width="212.7" height="212.7"/>
	<path class="st3" d="M106.4,212.7c58.7,0,106.3-47.6,106.3-106.3C212.7,47.6,165.1,0,106.4,0S0,47.6,0,106.4
		C0,165.1,47.6,212.7,106.4,212.7"/>
	<rect x="37.6" y="58.8" class="st4" width="137.5" height="43"/>
	<path class="st2" d="M18.3,106.4c0,10.6,1.9,20.7,5.3,30.1c0.2,0.5,0.4,1,0.5,1.5h0c12.7,33,44.7,56.5,82.2,56.5c0.8,0,1.5,0,2.3,0
		c0,0,0,0,0.1,0c0,0,0,0,0.1,0c36.5-1,67.4-24.1,79.8-56.5h0c0.9-2.4,1.7-4.8,2.5-7.3c0.8-3,1.5-5.9,2.1-8.9c0-0.2,0.1-0.3,0.1-0.5
		c0.2-1.1,0.3-2.2,0.5-3.3c0.1-0.5,0.1-1,0.2-1.5c0.1-0.6,0.1-1.2,0.2-1.8c0.1-0.8,0.1-1.6,0.2-2.4c-1.1-0.3-2.2-0.7-3.4-1
		c-34.4-9.9-54.7-5.1-74.3-0.6c-20,4.6-40.6,9.4-75.7-0.6c-8.6-2.5-15.9-5.2-22.4-8.2C18.3,103.3,18.3,104.8,18.3,106.4"/>
	<path class="st5" d="M15,97.6c0.8-8.6,2.9-17.2,6.3-25.6c19-47,72.4-69.6,119.4-50.7c37.4,15.1,59.4,52.1,57.2,90.2
		c3.7,1.3,7,2.6,10.2,4.1c4-43.7-20.7-86.7-63.5-104C92.3-9.5,32.7,15.8,11.6,68.1c-3.1,7.7-5.2,15.5-6.3,23.4
		C8.2,93.6,11.5,95.6,15,97.6"/>
	<path class="st2" d="M67.6,64.4v14.1h2.8c5.4,0,8.7-2.6,8.7-7.2c0-2.2-0.6-4.4-3.1-5.8c-1.8-1-3.8-1.1-5.7-1.1H67.6z M40.9,60.3
		h17.9v4.1H45.3V76h13.1v4.1H45.3v19.5h-4.4V60.3z M63.2,60.3h6.3c2.7,0,6.6,0.2,9.6,2.2c2.3,1.5,4.3,4.5,4.3,8.7
		c0,6-4,10.4-9.9,10.8L86,99.6h-5.3l-12-17.2h-1.1v17.2h-4.4V60.3z M90,60.3h20.4v4.1h-16v11.7h15.6v4.1H94.4v15.3h16v4.1H90V60.3z
		 M167.4,76.3v-16h4.4v39.3h-4.4V80.4h-20.2v19.2h-4.4V60.3h4.4v16H167.4z M132.9,88.4c0-1.8-0.5-3.3-1.9-4.6
		c-1.1-1.1-2.7-1.8-4.7-2.7l-3.5-1.7c-1.5-0.7-3.5-1.5-5.2-3.2c-1.7-1.7-2.7-3.5-2.7-6.4c0-6.1,4.7-10.1,11-10.1
		c2.4,0,4.4,0.5,6.3,1.8c1.6,1.1,2.9,2.7,3.8,4.4l-3.5,2.3c-0.5-1.1-1.4-2.2-2.3-2.9c-0.8-0.6-2.2-1.4-4.4-1.4
		c-3.9,0-6.6,2.4-6.6,6.1c0,1.5,0.4,2.4,1.5,3.4c1.2,1.2,2.7,1.8,4.1,2.5l3.8,1.7c2.3,1,4.4,2.1,6.1,3.7c2,2,2.8,4.3,2.8,7.1
		c0,7.3-5.4,12.1-12.4,12.1c-2.6,0-5.8-0.5-8.5-3.2c-1.9-1.9-3.1-4.6-3.7-7L117,89c0.3,2.1,1.2,3.8,2.4,5c1.7,1.7,3.7,2.2,5.7,2.2
		C130.4,96.2,132.9,92.4,132.9,88.4 M106.3,18.3C106.2,18.3,106.2,18.3,106.3,18.3c-38.2,0.1-70.6,24.4-82.8,58.3h0
		c-0.3,0.8-0.6,1.7-0.9,2.5c-2,6.3-3.4,12.8-4,19.6c6.6,3.1,14.1,6,23,8.5c34.4,9.9,54.7,5.1,74.3,0.6c20-4.6,40.6-9.4,75.7,0.6
		c0.9,0.3,1.8,0.6,2.7,0.8c0-0.6,0-1.1,0-1.7c0-0.6,0-1.2,0-1.8c0-0.9,0-1.8-0.1-2.7c0-0.6,0-1.1-0.1-1.7c0-0.8-0.1-1.5-0.2-2.3
		c-0.1-0.7-0.1-1.5-0.2-2.2c0-0.4-0.1-0.8-0.1-1.1c-0.8-6.6-2.3-13-4.5-19.1h0C177,42.6,144.5,18.3,106.3,18.3
		C106.3,18.3,106.3,18.3,106.3,18.3"/>
	<path class="st6" d="M197.7,114.4c-0.8,8.8-2.8,17.7-6.3,26.4c-19,47-72.4,69.6-119.4,50.7c-37.6-15.2-59.6-52.5-57.2-90.8
		c-3.6-2-6.9-4-10-6.1c-5.3,44.6,19.5,89,63.2,106.6c52.3,21.1,111.9-4.1,133-56.5c3.5-8.6,5.7-17.4,6.7-26.2
		C204.7,117,201.3,115.6,197.7,114.4"/>
	<path class="st7" d="M172.4,129.7l-0.4,2.6h0.6l0.2-1.4l0.6,1.4h0.3l0.6-1.4l0.2,1.4h0.6l-0.4-2.6h-0.6l-0.6,1.4l-0.6-1.4H172.4z
		 M171.9,129.7h-1.8v0.6h0.6v2h0.6v-2h0.6V129.7z M48.7,132.9c-0.5-0.5-0.8-1.1-0.8-2c0-0.9,0.4-1.7,0.9-2.3c1-1.1,2.4-1.2,3.5-1.2
		c1,0,3.4,0.2,6.1,2.6l3.8-6.1c-4.2-3.2-8.3-3.6-10.8-3.6c-3.4,0-6.4,0.7-9,3.3c-2.2,2.2-3.2,4.9-3.2,8.2c0,1.7,0.3,4.3,2.2,6.3
		c1.4,1.5,3.4,2.3,5.1,2.9l3,1c1,0.4,3.3,1.2,4.2,2c0.8,0.7,1.2,1.4,1.2,2.6c0,1.4-0.6,2.3-1.3,2.9c-1.2,1-2.7,1.2-3.8,1.2
		c-1.7,0-3.2-0.4-4.6-1.3c-1-0.6-2.4-1.8-3.4-2.8l-4.3,6c1.4,1.4,3.5,3,5.3,4c2.3,1.1,4.6,1.5,7.2,1.5c2.4,0,7.1-0.3,10.3-3.7
		c1.9-2,3.2-5.2,3.2-9c0-2.1-0.5-4.7-2.7-6.7c-1.4-1.4-3.4-2.2-4.9-2.8l-2.7-1C50.8,134.1,49.6,133.8,48.7,132.9z M80.6,128.2h7.9
		v-7.1H64.3v7.1h7.9v29.2h8.4V128.2z M107.7,144.1h-9l4.5-12.2L107.7,144.1z M112.7,157.4h8.7l-14.3-36.2h-7.7l-14.6,36.2h8.7
		l2.8-6.8h13.7L112.7,157.4z M140.3,132.5c0,1.8-0.8,2.9-1.4,3.5c-1.4,1.4-3.5,1.6-5,1.6H132v-9.9h2c1.1,0,3.3,0.1,4.6,1.1
		C139.3,129.4,140.3,130.4,140.3,132.5z M145.9,139.8c2.3-2.3,2.8-5.1,2.8-7.4c0-4-1.6-6.6-3.2-8.1c-1.7-1.6-4.6-3.2-9.2-3.2h-12.7
		v36.2h8.4v-14.3l9.8,14.3H152l-11.1-14.8C142.9,142.1,144.7,141,145.9,139.8z M167.1,128.2h7.9v-7.1h-24.1v7.1h7.9v29.2h8.4V128.2z
		"/>
	<path class="st3" d="M170.1,129.7v0.6h0.6v2h0.6v-2h0.6v-0.6H170.1z M174.1,129.7l-0.6,1.4l-0.6-1.4h-0.6l-0.4,2.6h0.6l0.2-1.4
		l0.6,1.4h0.3l0.6-1.4l0.2,1.4h0.6l-0.4-2.6H174.1z M64.3,121.2v7.1h7.9v29.2h8.4v-29.2h7.9v-7.1H64.3z M103.2,132l4.5,12.2h-9
		L103.2,132z M99.4,121.2l-14.6,36.2h8.7l2.8-6.8h13.7l2.7,6.8h8.7l-14.3-36.2H99.4z M132,127.7h2c1.1,0,3.3,0.1,4.6,1.1
		c0.7,0.5,1.7,1.6,1.7,3.7c0,1.8-0.8,2.9-1.4,3.5c-1.4,1.4-3.5,1.6-5,1.6H132V127.7z M123.6,121.2v36.2h8.4v-14.3l9.8,14.3H152
		l-11.1-14.8c2-0.5,3.8-1.6,5.1-2.8c2.3-2.3,2.8-5.1,2.8-7.4c0-4-1.6-6.6-3.2-8.1c-1.7-1.6-4.6-3.2-9.2-3.2H123.6z M150.9,121.2v7.1
		h7.9v29.2h8.4v-29.2h7.9v-7.1H150.9z M42.4,123.7c-2.2,2.2-3.2,4.9-3.2,8.2c0,1.7,0.3,4.3,2.2,6.3c1.4,1.5,3.4,2.3,5.1,2.9l3,1
		c1,0.4,3.3,1.2,4.2,2c0.8,0.7,1.2,1.4,1.2,2.6c0,1.4-0.6,2.3-1.3,2.9c-1.2,1-2.7,1.2-3.8,1.2c-1.7,0-3.2-0.4-4.6-1.3
		c-1-0.6-2.4-1.8-3.4-2.8l-4.3,6c1.4,1.4,3.5,3,5.3,4c2.3,1.1,4.6,1.5,7.2,1.5c2.4,0,7.1-0.3,10.3-3.7c1.9-2,3.2-5.2,3.2-9
		c0-2.1-0.5-4.7-2.7-6.7c-1.4-1.4-3.4-2.2-4.9-2.8l-2.7-1c-2.4-0.9-3.7-1.2-4.6-2.1c-0.5-0.5-0.8-1.1-0.8-2c0-0.9,0.4-1.7,0.9-2.3
		c1-1.1,2.4-1.3,3.5-1.3c1,0,3.4,0.2,6.1,2.6l3.8-6.1c-4.2-3.2-8.3-3.6-10.8-3.6C48,120.3,45,121,42.4,123.7"/>
</g>
<g id="Layer_2">
	<rect class="st8" width="212.7" height="212.7"/>
	<rect x="37.6" y="58.8" width="137.5" height="43"/>
	<path class="st8" d="M18.3,106.4c0,10.6,1.9,20.7,5.3,30.1c0.2,0.5,0.4,1,0.5,1.5h0c12.7,33,44.7,56.5,82.2,56.5c0.8,0,1.5,0,2.3,0
		c0,0,0,0,0.1,0c0,0,0,0,0.1,0c36.5-1,67.4-24.1,79.8-56.5h0c0.9-2.4,1.7-4.8,2.5-7.3c0.8-3,1.5-5.9,2.1-8.9c0-0.2,0.1-0.3,0.1-0.5
		c0.2-1.1,0.3-2.2,0.5-3.3c0.1-0.5,0.1-1,0.2-1.5c0.1-0.6,0.1-1.2,0.2-1.8c0.1-0.8,0.1-1.6,0.2-2.4c-1.1-0.3-2.2-0.7-3.4-1
		c-34.4-9.9-54.7-5.1-74.3-0.6c-20,4.6-40.6,9.4-75.7-0.6c-8.6-2.5-15.9-5.2-22.4-8.2C18.3,103.3,18.3,104.8,18.3,106.4"/>
	<path class="st9" d="M15,97.6c0.8-8.6,2.9-17.2,6.3-25.6c19-47,72.4-69.6,119.4-50.7c37.4,15.1,59.4,52.1,57.2,90.2
		c3.7,1.3,7,2.6,10.2,4.1c4-43.7-20.7-86.7-63.5-104C92.3-9.5,32.7,15.8,11.6,68.1c-3.1,7.7-5.2,15.5-6.3,23.4
		C8.2,93.6,11.5,95.6,15,97.6"/>
	<path class="st10" d="M197.7,114.4c-0.8,8.8-2.8,17.7-6.3,26.4c-19,47-72.4,69.6-119.4,50.7c-37.6-15.2-59.6-52.5-57.2-90.8
		c-3.6-2-6.9-4-10-6.1c-5.3,44.6,19.5,89,63.2,106.6c52.3,21.1,111.9-4.1,133-56.5c3.5-8.6,5.7-17.4,6.7-26.2
		C204.7,117,201.3,115.6,197.7,114.4"/>
	<g>
		<g>
			<defs>
				<path id="SVGID_1_" d="M18.3,106.4c0,10.6,1.9,20.7,5.3,30.1c0.2,0.5,0.4,1,0.5,1.5h0c12.7,33,44.7,56.5,82.2,56.5
					c0.8,0,1.5,0,2.3,0c0,0,0,0,0.1,0c0,0,0,0,0.1,0c36.5-1,67.4-24.1,79.8-56.5h0c0.9-2.4,1.7-4.8,2.5-7.3c0.8-3,1.5-5.9,2.1-8.9
					c0-0.2,0.1-0.3,0.1-0.5c0.2-1.1,0.3-2.2,0.5-3.3c0.1-0.5,0.1-1,0.2-1.5c0.1-0.6,0.1-1.2,0.2-1.8c0.1-0.8,0.1-1.6,0.2-2.4
					c-1.1-0.3-2.2-0.7-3.4-1c-34.4-9.9-54.7-5.1-74.3-0.6c-20,4.6-40.6,9.4-75.7-0.6c-8.6-2.5-15.9-5.2-22.4-8.2
					C18.3,103.3,18.3,104.8,18.3,106.4"/>
			</defs>
			<clipPath id="SVGID_2_">
				<use xlink:href="#SVGID_1_"  style="overflow:visible;"/>
			</clipPath>
			
				<radialGradient id="SVGID_3_" cx="106.227" cy="107.6485" r="88.0665" gradientTransform="matrix(1 0 0 -1 0 214)" gradientUnits="userSpaceOnUse">
				<stop  offset="2.000000e-02" style="stop-color:#A8D48B"/>
				<stop  offset="0.2418" style="stop-color:#A6D389"/>
				<stop  offset="0.4198" style="stop-color:#A1D182"/>
				<stop  offset="0.5828" style="stop-color:#98CD76"/>
				<stop  offset="0.7366" style="stop-color:#8AC864"/>
				<stop  offset="0.8829" style="stop-color:#79C14F"/>
				<stop  offset="0.95" style="stop-color:#6FBE46"/>
			</radialGradient>
			<circle class="st11" cx="106.2" cy="106.4" r="88.1"/>
		</g>
	</g>
	<g>
		<g>
			<defs>
				<path id="SVGID_4_" d="M67.6,64.4v14.1h2.8c5.4,0,8.7-2.6,8.7-7.2c0-2.2-0.6-4.4-3.1-5.8c-1.8-1-3.8-1.1-5.7-1.1H67.6z
					 M40.9,60.3h17.9v4.1H45.3V76h13.1v4.1H45.3v19.5h-4.4V60.3z M63.2,60.3h6.3c2.7,0,6.6,0.2,9.6,2.2c2.3,1.5,4.3,4.5,4.3,8.7
					c0,6-4,10.4-9.9,10.8L86,99.6h-5.3l-12-17.2h-1.1v17.2h-4.4V60.3z M90,60.3h20.4v4.1h-16v11.7h15.6v4.1H94.4v15.3h16v4.1H90
					V60.3z M167.4,76.3v-16h4.4v39.3h-4.4V80.4h-20.2v19.2h-4.4V60.3h4.4v16H167.4z M132.9,88.4c0-1.8-0.5-3.3-1.9-4.6
					c-1.1-1.1-2.7-1.8-4.7-2.7l-3.5-1.7c-1.5-0.7-3.5-1.5-5.2-3.2c-1.7-1.7-2.7-3.5-2.7-6.4c0-6.1,4.7-10.1,11-10.1
					c2.4,0,4.4,0.5,6.3,1.8c1.6,1.1,2.9,2.7,3.8,4.4l-3.5,2.3c-0.5-1.1-1.4-2.2-2.3-2.9c-0.8-0.6-2.2-1.4-4.4-1.4
					c-3.9,0-6.6,2.4-6.6,6.1c0,1.5,0.4,2.4,1.5,3.4c1.2,1.2,2.7,1.8,4.1,2.5l3.8,1.7c2.3,1,4.4,2.1,6.1,3.7c2,2,2.8,4.3,2.8,7.1
					c0,7.3-5.4,12.1-12.4,12.1c-2.6,0-5.8-0.5-8.5-3.2c-1.9-1.9-3.1-4.6-3.7-7L117,89c0.3,2.1,1.2,3.8,2.4,5
					c1.7,1.7,3.7,2.2,5.7,2.2C130.4,96.2,132.9,92.4,132.9,88.4 M106.3,18.3C106.2,18.3,106.2,18.3,106.3,18.3
					c-38.2,0.1-70.6,24.4-82.8,58.3h0c-0.3,0.8-0.6,1.7-0.9,2.5c-2,6.3-3.4,12.8-4,19.6c6.6,3.1,14.1,6,23,8.5
					c34.4,9.9,54.7,5.1,74.3,0.6c20-4.6,40.6-9.4,75.7,0.6c0.9,0.3,1.8,0.6,2.7,0.8c0-0.6,0-1.1,0-1.7c0-0.6,0-1.2,0-1.8
					c0-0.9,0-1.8-0.1-2.7c0-0.6,0-1.1-0.1-1.7c0-0.8-0.1-1.5-0.2-2.3c-0.1-0.7-0.1-1.5-0.2-2.2c0-0.4-0.1-0.8-0.1-1.1
					c-0.8-6.6-2.3-13-4.5-19.1h0C177,42.6,144.5,18.3,106.3,18.3C106.3,18.3,106.3,18.3,106.3,18.3"/>
			</defs>
			<clipPath id="SVGID_5_">
				<use xlink:href="#SVGID_4_"  style="overflow:visible;"/>
			</clipPath>
			
				<radialGradient id="SVGID_6_" cx="106.491" cy="107.6485" r="88.0665" gradientTransform="matrix(1 0 0 -1 0 214)" gradientUnits="userSpaceOnUse">
				<stop  offset="2.000000e-02" style="stop-color:#FFE885"/>
				<stop  offset="0.2436" style="stop-color:#FFE783"/>
				<stop  offset="0.4232" style="stop-color:#FEE67B"/>
				<stop  offset="0.5875" style="stop-color:#FEE46C"/>
				<stop  offset="0.7427" style="stop-color:#FEE253"/>
				<stop  offset="0.8902" style="stop-color:#FEDE2D"/>
				<stop  offset="0.95" style="stop-color:#FDDD10"/>
			</radialGradient>
			<circle class="st12" cx="106.5" cy="106.4" r="88.1"/>
		</g>
	</g>
	<path class="st13" d="M172.4,129.7l-0.4,2.6h0.6l0.2-1.4l0.6,1.4h0.3l0.6-1.4l0.2,1.4h0.6l-0.4-2.6h-0.6l-0.6,1.4l-0.6-1.4H172.4z
		 M171.9,129.7h-1.8v0.6h0.6v2h0.6v-2h0.6V129.7z M48.7,132.9c-0.5-0.5-0.8-1.1-0.8-2c0-0.9,0.4-1.7,0.9-2.3c1-1.1,2.4-1.2,3.5-1.2
		c1,0,3.4,0.2,6.1,2.6l3.8-6.1c-4.2-3.2-8.3-3.6-10.8-3.6c-3.4,0-6.4,0.7-9,3.3c-2.2,2.2-3.2,4.9-3.2,8.2c0,1.7,0.3,4.3,2.2,6.3
		c1.4,1.5,3.4,2.3,5.1,2.9l3,1c1,0.4,3.3,1.2,4.2,2c0.8,0.7,1.2,1.4,1.2,2.6c0,1.4-0.6,2.3-1.3,2.9c-1.2,1-2.7,1.2-3.8,1.2
		c-1.7,0-3.2-0.4-4.6-1.3c-1-0.6-2.4-1.8-3.4-2.8l-4.3,6c1.4,1.4,3.5,3,5.3,4c2.3,1.1,4.6,1.5,7.2,1.5c2.4,0,7.1-0.3,10.3-3.7
		c1.9-2,3.2-5.2,3.2-9c0-2.1-0.5-4.7-2.7-6.7c-1.4-1.4-3.4-2.2-4.9-2.8l-2.7-1C50.8,134.1,49.6,133.8,48.7,132.9z M80.6,128.2h7.9
		v-7.1H64.3v7.1h7.9v29.2h8.4V128.2z M107.7,144.1h-9l4.5-12.2L107.7,144.1z M112.7,157.4h8.7l-14.3-36.2h-7.7l-14.6,36.2h8.7
		l2.8-6.8h13.7L112.7,157.4z M140.3,132.5c0,1.8-0.8,2.9-1.4,3.5c-1.4,1.4-3.5,1.6-5,1.6H132v-9.9h2c1.1,0,3.3,0.1,4.6,1.1
		C139.3,129.4,140.3,130.4,140.3,132.5z M145.9,139.8c2.3-2.3,2.8-5.1,2.8-7.4c0-4-1.6-6.6-3.2-8.1c-1.7-1.6-4.6-3.2-9.2-3.2h-12.7
		v36.2h8.4v-14.3l9.8,14.3H152l-11.1-14.8C142.9,142.1,144.7,141,145.9,139.8z M167.1,128.2h7.9v-7.1h-24.1v7.1h7.9v29.2h8.4V128.2z
		"/>
	<path class="st0" d="M170.1,129.7v0.6h0.6v2h0.6v-2h0.6v-0.6H170.1z M174.1,129.7l-0.6,1.4l-0.6-1.4h-0.6l-0.4,2.6h0.6l0.2-1.4
		l0.6,1.4h0.3l0.6-1.4l0.2,1.4h0.6l-0.4-2.6H174.1z M64.3,121.2v7.1h7.9v29.2h8.4v-29.2h7.9v-7.1H64.3z M103.2,132l4.5,12.2h-9
		L103.2,132z M99.4,121.2l-14.6,36.2h8.7l2.8-6.8h13.7l2.7,6.8h8.7l-14.3-36.2H99.4z M132,127.7h2c1.1,0,3.3,0.1,4.6,1.1
		c0.7,0.5,1.7,1.6,1.7,3.7c0,1.8-0.8,2.9-1.4,3.5c-1.4,1.4-3.5,1.6-5,1.6H132V127.7z M123.6,121.2v36.2h8.4v-14.3l9.8,14.3H152
		l-11.1-14.8c2-0.5,3.8-1.6,5.1-2.8c2.3-2.3,2.8-5.1,2.8-7.4c0-4-1.6-6.6-3.2-8.1c-1.7-1.6-4.6-3.2-9.2-3.2H123.6z M150.9,121.2v7.1
		h7.9v29.2h8.4v-29.2h7.9v-7.1H150.9z M42.4,123.7c-2.2,2.2-3.2,4.9-3.2,8.2c0,1.7,0.3,4.3,2.2,6.3c1.4,1.5,3.4,2.3,5.1,2.9l3,1
		c1,0.4,3.3,1.2,4.2,2c0.8,0.7,1.2,1.4,1.2,2.6c0,1.4-0.6,2.3-1.3,2.9c-1.2,1-2.7,1.2-3.8,1.2c-1.7,0-3.2-0.4-4.6-1.3
		c-1-0.6-2.4-1.8-3.4-2.8l-4.3,6c1.4,1.4,3.5,3,5.3,4c2.3,1.1,4.6,1.5,7.2,1.5c2.4,0,7.1-0.3,10.3-3.7c1.9-2,3.2-5.2,3.2-9
		c0-2.1-0.5-4.7-2.7-6.7c-1.4-1.4-3.4-2.2-4.9-2.8l-2.7-1c-2.4-0.9-3.7-1.2-4.6-2.1c-0.5-0.5-0.8-1.1-0.8-2c0-0.9,0.4-1.7,0.9-2.3
		c1-1.1,2.4-1.3,3.5-1.3c1,0,3.4,0.2,6.1,2.6l3.8-6.1c-4.2-3.2-8.3-3.6-10.8-3.6C48,120.3,45,121,42.4,123.7"/>
</g>
</svg>
