<svg xmlns="http://www.w3.org/2000/svg" viewBox="0 0 196.00168 196.00001"><defs><style>.cls-1{fill:#fff;}.cls-2{fill:#d34836;}</style></defs><title>gPlus</title><g id="Layer_2" data-name="Layer 2"><g id="Layer_1-2" data-name="Layer 1"><path class="cls-1" d="M98.00084,0a98,98,0,1,1-98,98,98.00134,98.00134,0,0,1,98-98Zm0,0"/><path class="cls-1" d="M98,0A98,98,0,1,1,0,98,98.00134,98.00134,0,0,1,98,0Zm0,0"/><path class="cls-1" d="M98.00042,0c53.89989,0,98.00042,44.10053,98.00042,97.99957C196.00083,151.89947,151.90031,196,98.00042,196,44.10137,196,.00085,151.89947.00085,97.99958.00085,44.10053,44.10137,0,98.00042,0Zm0,0"/><path class="cls-2" d="M147.61371,81.46211V92.48765h11.02471v11.02472H147.61371v11.02469H136.58816V103.51237H125.56344V92.48765h11.02472V81.46211Zm0,0"/><path class="cls-2" d="M48.38794,125.56263c-14.70072-14.70159-14.70072-40.42451.61141-55.12525C60.02407,59.41268,75.951,56.96115,90.03778,62.47393l5.51194,3.06545,6.12672,4.28659-9.80275,9.80022L88.201,77.17552c-8.574-5.51278-20.82491-4.28745-28.78755,3.676-9.1888,9.18882-9.80018,25.72631,0,35.52566,9.188,9.79938,25.72546,9.79938,34.30032,0,2.4507-2.45066,4.90137-6.12669,5.51195-9.79935v-1.22537H77.17632V93.10157h34.9109l.61476,3.06211v8.574c-.61476,7.96348-3.676,15.92693-9.18878,21.43886-14.70074,14.0868-40.42367,14.0868-55.12526-.61392Zm0,0"/></g></g></svg>