<svg xmlns="http://www.w3.org/2000/svg" viewBox="0 0 195.99999 196"><defs><style>.cls-1{fill:#d34836;}.cls-2{fill:#fff;}</style></defs><title>gPlusHover</title><g id="Layer_2" data-name="Layer 2"><g id="Layer_1-2" data-name="Layer 1"><path class="cls-1" d="M97.99957,0C151.89946,0,196,44.10053,196,97.99957,196,151.89946,151.89946,196,97.99957,196,44.10053,196,0,151.89946,0,97.99957,0,44.10053,44.10053,0,97.99957,0Zm0,0"/><path class="cls-2" d="M147.61287,81.46211V92.48765h11.02471v11.02472H147.61287v11.02469H136.58731V103.51237H125.5626V92.48765h11.02472V81.46211Zm0,0"/><path class="cls-2" d="M48.38709,125.56262c-14.70072-14.70159-14.70072-40.42451.61141-55.12525,11.02472-11.02471,26.95164-13.47624,41.03843-7.96345l5.51194,3.06545L101.6756,69.826l-9.80275,9.80022-3.67265-2.45067c-8.574-5.51278-20.82491-4.28745-28.78755,3.676-9.1888,9.18882-9.80018,25.72631,0,35.52566,9.188,9.79938,25.72546,9.79938,34.30032,0,2.4507-2.45066,4.90137-6.12669,5.51195-9.79935v-1.22537H77.17548V93.10156h34.9109l.61476,3.06211v8.574c-.61476,7.96348-3.676,15.92693-9.18878,21.43886-14.70074,14.0868-40.42367,14.0868-55.12526-.61392Zm0,0"/></g></g></svg>