<?xml version="1.0" encoding="utf-8"?>
<!-- Generator: Adobe Illustrator 21.1.0, SVG Export Plug-In . SVG Version: 6.00 Build 0)  -->
<svg version="1.1" id="Layer_1" xmlns="http://www.w3.org/2000/svg" xmlns:xlink="http://www.w3.org/1999/xlink" x="0px" y="0px"
	 viewBox="0 0 196.000824 196" style="enable-background:new 0 0 196.000824 196;" xml:space="preserve">
<style type="text/css">
	.st0{fill:#FFFFFF;}
</style>
<title>iGramHover</title>
<path class="st0" d="M98,0c54.1239014,0,98,43.8760948,98,98s-43.8760986,98-98,98S0,152.1239014,0,98
	C0.0007429,43.8764,43.8764,0.0007454,98,0z"/>
<path d="M132.1892853,42.2699394H63.8069992c-11.8925133,0.0099678-21.5308189,9.6482582-21.5408096,21.5407715v68.3862305
	c0.0085373,11.8936615,9.6471519,21.5337524,21.5408096,21.5441284h68.3862381
	c11.8926849-0.0125275,21.5298767-9.6514435,21.5402832-21.5441284V63.8107109
	C153.7211761,51.9178352,144.0821686,42.280365,132.1892853,42.2699394z M138.3783722,55.1151505l2.4595947-0.0095215v18.8939972
	l-18.8338623,0.0631714l-0.0635986-18.8974609L138.3783722,55.1151505z M82.0946808,86.5606537
	c6.3350143-8.7691803,18.5793839-10.7424545,27.3485641-4.4074402s10.7424469,18.5793839,4.4074326,27.3485641
	s-18.5793839,10.7424545-27.3485565,4.4074402c-5.1077805-3.6899567-8.12854-9.611824-8.1172791-15.9130173
	C78.3936844,93.8899536,79.6912994,89.8900833,82.0946808,86.5606537z M142.865799,132.1969452
	c-0.0064087,5.895462-4.7867889,10.6716156-10.682251,10.6727905H63.803051
	c-5.8965378,0.0013733-10.6784515-4.7762604-10.6823692-10.6727905V86.564003h16.6394043
	c-6.3736839,15.5906525,1.0981445,33.3962631,16.688797,39.7699432s33.3962631-1.0981445,39.7699432-16.6887894
	c3.0238342-7.3966064,3.0238342-15.6845474,0-23.0811539h16.6470032L142.865799,132.1969452z"/>
</svg>
