<svg xmlns="http://www.w3.org/2000/svg" viewBox="0 0 196 196"><defs><style>.cls-1{fill:#fff;}.cls-2{fill:#1da1f2;}</style></defs><title>twitter</title><g id="Layer_2" data-name="Layer 2"><g id="Layer_1-2" data-name="Layer 1"><path class="cls-1" d="M98,0a98,98,0,1,0,98,98A98.004,98.004,0,0,0,98,0Z"/><path class="cls-2" d="M158.80852,63.53943a48.33989,48.33989,0,0,1-13.85632,3.7984A24.19059,24.19059,0,0,0,155.56181,53.9859,48.88313,48.88313,0,0,1,140.236,59.84052a24.15194,24.15194,0,0,0-41.122,22.002A68.48928,68.48928,0,0,1,49.37828,56.63306,24.16466,24.16466,0,0,0,56.85173,88.837a24.08247,24.08247,0,0,1-10.92737-3.02612v.3067a24.15257,24.15257,0,0,0,19.35541,23.65436,24.85689,24.85689,0,0,1-10.903.41681,24.17047,24.17047,0,0,0,22.54041,16.75751,48.41594,48.41594,0,0,1-29.96307,10.32538,49.58048,49.58048,0,0,1-5.757-.3421,68.26791,68.26791,0,0,0,36.98193,10.84119c44.38208,0,68.64795-36.74982,68.64795-68.64752l-.07269-3.12567A48.72149,48.72149,0,0,0,158.80852,63.53943Z"/></g></g></svg>