<svg xmlns="http://www.w3.org/2000/svg" viewBox="0 0 195.99999 196"><defs><style>.cls-1{fill:#cd201f;}.cls-2{fill-rule:evenodd;opacity:0.12;}.cls-3{fill:#fff;}</style></defs><title>yTubeHover</title><g id="Layer_2" data-name="Layer 2"><g id="Layer_1-2" data-name="Layer 1"><path class="cls-1" d="M97.99957,0C151.89946,0,196,44.10053,196,97.99957,196,151.89946,151.89946,196,97.99957,196,44.10053,196,0,151.89946,0,97.99957,0,44.10053,44.10053,0,97.99957,0Zm0,0"/><path id="The_Sharpness" data-name="The Sharpness" class="cls-2" d="M85.49874,79.69155l28.681,19.15194,4.02389-2.08849Z"/><g id="Lozenge"><path class="cls-3" d="M157.31027,73.80007s-1.18279-8.34081-4.81181-12.01385c-4.60247-4.82085-9.76175-4.84477-12.12756-5.12693-16.93757-1.2244-42.34448-1.2244-42.34448-1.2244h-.05278s-25.40646,0-42.34448,1.2244c-2.366.28217-7.52329.30609-12.12756,5.12693-3.629,3.673-4.81,12.01385-4.81,12.01385a183.05651,183.05651,0,0,0-1.21042,19.58959v9.18265a183.05443,183.05443,0,0,0,1.21042,19.58948s1.181,8.34093,4.81,12.014c4.60427,4.82085,10.65232,4.66839,13.34606,5.17365,9.68313.92854,41.15248,1.21587,41.15248,1.21587s25.43319-.0383,42.37076-1.26264c2.36581-.28222,7.52509-.306,12.12756-5.12688,3.629-3.673,4.81181-12.014,4.81181-12.014a183.32236,183.32236,0,0,0,1.20862-19.58948V93.38965A183.32444,183.32444,0,0,0,157.31027,73.80007ZM85.50422,113.7,85.4986,79.69157,118.20375,96.755Z"/></g></g></g></svg>