<svg xmlns="http://www.w3.org/2000/svg" xmlns:xlink="http://www.w3.org/1999/xlink" viewBox="0 0 195.99999 196"><defs><style>.cls-1{fill:#fff;}.cls-2{fill:#420000;fill-rule:evenodd;opacity:0.12;}.cls-3{fill:url(#linear-gradient);}</style><linearGradient id="linear-gradient" x1="98.00003" y1="55.43487" x2="98.00003" y2="140.56511" gradientUnits="userSpaceOnUse"><stop offset="0" stop-color="#e52d27"/><stop offset="1" stop-color="#bf171d"/></linearGradient></defs><title>yTube</title><g id="Layer_2" data-name="Layer 2"><g id="Layer_1-2" data-name="Layer 1"><path class="cls-1" d="M97.99957,0C151.89946,0,196,44.10053,196,97.99957,196,151.89946,151.89946,196,97.99957,196,44.10053,196,0,151.89946,0,97.99957,0,44.10053,44.10053,0,97.99957,0Zm0,0"/><path id="Triangle" class="cls-1" d="M85.49879,113.69984l32.7049-16.94493L85.49879,79.69149Z"/><path id="The_Sharpness" data-name="The Sharpness" class="cls-2" d="M85.49879,79.69149l28.681,19.15192,4.02389-2.08849Z"/><g id="Lozenge"><path class="cls-3" d="M157.31014,73.8s-1.18268-8.34081-4.81169-12.01385c-4.60258-4.82085-9.76175-4.84471-12.12756-5.12693-16.93757-1.22435-42.34448-1.22435-42.34448-1.22435h-.05267s-25.40658,0-42.34459,1.22435c-2.366.28222-7.52329.30609-12.12756,5.12693-3.629,3.673-4.8099,12.01385-4.8099,12.01385a183.0384,183.0384,0,0,0-1.21053,19.58959v9.18265a183.03736,183.03736,0,0,0,1.21053,19.58942s1.18088,8.34087,4.8099,12.01391c4.60427,4.82085,10.65232,4.66845,13.34606,5.17371,9.68325.92848,41.15248,1.21587,41.15248,1.21587s25.43319-.03835,42.37076-1.26264c2.36581-.28222,7.525-.30609,12.12756-5.12693,3.629-3.673,4.81169-12.01391,4.81169-12.01391a183.30524,183.30524,0,0,0,1.20874-19.58942V93.38959A183.30628,183.30628,0,0,0,157.31014,73.8ZM85.50432,113.69984l-.0055-34.00833,32.70492,17.06341Z"/></g></g></g></svg>