<?xml version="1.0" encoding="utf-8"?>
<!-- Generator: Adobe Illustrator 21.0.2, SVG Export Plug-In . SVG Version: 6.00 Build 0)  -->
<svg version="1.1" id="Layer_1" xmlns="http://www.w3.org/2000/svg" xmlns:xlink="http://www.w3.org/1999/xlink" x="0px" y="0px"
	 viewBox="0 0 144 144" style="enable-background:new 0 0 144 144;" xml:space="preserve">
<style type="text/css">
	.st0{clip-path:url(#SVGID_2_);}
	.st1{clip-path:url(#SVGID_6_);}
	.st2{clip-path:url(#SVGID_10_);}
	.st3{fill:#B54D41;}
	.st4{fill:#FFFFFF;}
	.st5{fill:#A71E27;}
	.st6{clip-path:url(#SVGID_14_);}
	.st7{clip-path:url(#SVGID_18_);}
	.st8{clip-path:url(#SVGID_22_);}
	.st9{clip-path:url(#SVGID_30_);}
	.st10{fill:none;stroke:#9C1B23;stroke-width:0.9231;stroke-linejoin:round;stroke-miterlimit:10;}
	.st11{clip-path:url(#SVGID_34_);}
	.st12{clip-path:url(#SVGID_38_);}
	.st13{clip-path:url(#SVGID_42_);}
	.st14{clip-path:url(#SVGID_46_);}
	.st15{fill:#A4B67E;}
	.st16{clip-path:url(#SVGID_50_);}
	.st17{fill:#8AA65A;}
	.st18{fill:#EEF6E9;}
	.st19{fill:#BECDA2;}
	.st20{clip-path:url(#SVGID_54_);}
	.st21{fill:none;stroke:#71973E;stroke-width:0.9231;stroke-linejoin:round;stroke-miterlimit:10;}
	.st22{clip-path:url(#SVGID_58_);}
	.st23{clip-path:url(#SVGID_62_);}
	.st24{clip-path:url(#SVGID_66_);}
	.st25{clip-path:url(#SVGID_70_);}
	.st26{clip-path:url(#SVGID_74_);}
	.st27{clip-path:url(#SVGID_78_);}
	.st28{clip-path:url(#SVGID_82_);}
	.st29{fill:#FFE885;}
	.st30{clip-path:url(#SVGID_86_);}
	.st31{clip-path:url(#SVGID_90_);}
	.st32{clip-path:url(#SVGID_94_);}
	.st33{clip-path:url(#SVGID_98_);}
	.st34{clip-path:url(#SVGID_102_);}
	.st35{clip-path:url(#SVGID_106_);}
	.st36{clip-path:url(#SVGID_110_);}
	.st37{clip-path:url(#SVGID_114_);}
	.st38{fill:#E0EFD5;}
	.st39{clip-path:url(#SVGID_118_);}
	.st40{clip-path:url(#SVGID_122_);}
	.st41{fill:none;stroke:#ABA6A6;stroke-width:3.8246;}
	.st42{fill:none;stroke:#706B6B;stroke-width:2.3904;}
	.st43{fill:#6FBE46;}
	.st44{fill:none;stroke:#000000;stroke-width:0.9562;}
	.st45{fill:none;stroke:#575454;stroke-width:0.9562;stroke-linejoin:round;}
	.st46{clip-path:url(#SVGID_126_);}
	.st47{clip-path:url(#SVGID_130_);}
	.st48{fill:#FDDD10;}
	.st49{clip-path:url(#SVGID_136_);}
	
		.st50{clip-path:url(#SVGID_140_);fill:none;stroke:#575454;stroke-width:1.0454;stroke-linecap:round;stroke-linejoin:round;stroke-miterlimit:10;}
	
		.st51{clip-path:url(#SVGID_140_);fill:none;stroke:#000000;stroke-width:4.1817;stroke-linecap:round;stroke-linejoin:round;stroke-miterlimit:10;}
	.st52{fill:none;stroke:#FFFFFF;stroke-width:1.7077;stroke-linecap:round;stroke-linejoin:round;stroke-miterlimit:10;}
	.st53{fill:none;stroke:#000000;stroke-width:4.1817;stroke-linecap:round;stroke-linejoin:round;stroke-miterlimit:10;}
	.st54{clip-path:url(#SVGID_142_);}
	.st55{clip-path:url(#SVGID_146_);}
	.st56{clip-path:url(#SVGID_150_);}
	.st57{clip-path:url(#SVGID_154_);}
	.st58{clip-path:url(#SVGID_158_);}
	.st59{clip-path:url(#SVGID_162_);}
	.st60{clip-path:url(#SVGID_166_);}
	.st61{clip-path:url(#SVGID_170_);}
	.st62{clip-path:url(#SVGID_176_);}
	.st63{clip-path:url(#SVGID_182_);}
	.st64{clip-path:url(#SVGID_186_);}
	.st65{clip-path:url(#SVGID_190_);}
	.st66{clip-path:url(#SVGID_194_);}
	.st67{clip-path:url(#SVGID_198_);}
	.st68{clip-path:url(#SVGID_202_);}
	.st69{clip-path:url(#SVGID_206_);}
	.st70{clip-path:url(#SVGID_210_);}
	.st71{clip-path:url(#SVGID_216_);}
	.st72{clip-path:url(#SVGID_220_);}
	.st73{clip-path:url(#SVGID_226_);}
	.st74{clip-path:url(#SVGID_230_);}
	.st75{clip-path:url(#SVGID_236_);}
	.st76{clip-path:url(#SVGID_240_);}
	.st77{clip-path:url(#SVGID_244_);}
	.st78{clip-path:url(#SVGID_248_);}
	.st79{clip-path:url(#SVGID_254_);}
	.st80{clip-path:url(#SVGID_258_);}
	.st81{clip-path:url(#SVGID_262_);}
	.st82{clip-path:url(#SVGID_266_);}
	.st83{clip-path:url(#SVGID_270_);}
	.st84{clip-path:url(#SVGID_274_);}
	.st85{clip-path:url(#SVGID_278_);}
	.st86{clip-path:url(#SVGID_282_);}
	.st87{clip-path:url(#SVGID_286_);}
	.st88{clip-path:url(#SVGID_290_);}
	.st89{clip-path:url(#SVGID_294_);}
	.st90{clip-path:url(#SVGID_298_);}
	.st91{clip-path:url(#SVGID_304_);}
	.st92{clip-path:url(#SVGID_308_);}
	.st93{clip-path:url(#SVGID_314_);}
	.st94{clip-path:url(#SVGID_320_);}
	.st95{clip-path:url(#SVGID_324_);}
	.st96{fill:#706B6B;}
	.st97{clip-path:url(#SVGID_328_);}
	.st98{clip-path:url(#SVGID_334_);}
	.st99{fill:#567EBF;}
</style>
<g>
	<polygon class="st48" points="71.9,9.1 132.3,30 120.2,92.7 71.9,134.6 23.6,92.7 11.6,30 71.9,9.1 	"/>
	<g>
		<defs>
			<path id="SVGID_135_" d="M132.3,30L71.9,9.1L11.6,30l12.1,62.7l48.3,41.8l48.3-41.8L132.3,30L132.3,30z M86.1,65.2l30.5,3.1
				l-30.5,3.1l19.1,23.3L78.5,79.1l-6.6,37.4l-6.6-37.4L38.6,94.8l19.1-23.3l-30.5-3.1l30.5-3.1L38.6,41.9l26.7,15.7l6.6-37.4
				l6.6,37.4l26.7-15.7L86.1,65.2L86.1,65.2z"/>
		</defs>
		<clipPath id="SVGID_2_">
			<use xlink:href="#SVGID_135_"  style="overflow:visible;"/>
		</clipPath>
		<g class="st0">
			<defs>
				<rect id="SVGID_137_" x="11.6" y="9.1" width="120.7" height="125.4"/>
			</defs>
			<clipPath id="SVGID_4_">
				<use xlink:href="#SVGID_137_"  style="overflow:visible;"/>
			</clipPath>
			<g style="clip-path:url(#SVGID_4_);">
				
					<image style="overflow:visible;" width="256" height="264" xlink:href="5A0CBFDB956F48F0.jpg"  transform="matrix(0.48 0 0 -0.48 10.9921 135.2753)">
				</image>
			</g>
		</g>
	</g>
	<g>
		<defs>
			<rect id="SVGID_139_" width="144" height="144"/>
		</defs>
		<clipPath id="SVGID_6_">
			<use xlink:href="#SVGID_139_"  style="overflow:visible;"/>
		</clipPath>
		
			<polygon style="clip-path:url(#SVGID_6_);fill:none;stroke:#575454;stroke-width:1.0454;stroke-linecap:round;stroke-linejoin:round;stroke-miterlimit:10;" points="
			71.9,6 135.3,27.9 122.6,93.8 71.9,137.7 21.2,93.8 8.5,27.9 71.9,6 		"/>
		
			<path style="clip-path:url(#SVGID_6_);fill:none;stroke:#000000;stroke-width:4.1817;stroke-linecap:round;stroke-linejoin:round;stroke-miterlimit:10;" d="
			M71.9,14l55.7,19.3l-11.1,57.9l-44.6,38.6L27.4,91.1L16.2,33.3L71.9,14L71.9,14z M39.4,84.2l-12.1,7l9.5,8.2 M27.4,91.1l-2.7-13.8
			 M32.3,27.7l-16.1,5.6l2.9,14.9 M16.2,33.3l9.6,5.6 M63,122l8.9,7.7l10.5-9 M71.9,120.7v9 M117.8,84.2l-1.3,7l-9.2-5.3
			 M109.9,96.8l6.6-5.7 M117.8,29.9l9.8,3.4l-2.3,12 M116.5,39.7l11.1-6.4 M82.4,17.6L71.9,14l-12.3,4.3 M71.9,14v9.7"/>
	</g>
	<path class="st52" d="M71.9,14l55.7,19.3l-11.1,57.9l-44.6,38.6L27.4,91.1L16.2,33.3L71.9,14L71.9,14z M39.4,84.2l-12.1,7l9.5,8.2
		 M27.4,91.1l-2.7-13.8 M32.3,27.7l-16.1,5.6l2.9,14.9 M16.2,33.3l9.6,5.6 M63,122l8.9,7.7l10.5-9 M71.9,120.7v9 M117.8,84.2l-1.3,7
		l-9.2-5.3 M109.9,96.8l6.6-5.7 M117.8,29.9l9.8,3.4l-2.3,12 M116.5,39.7l11.1-6.4 M82.4,17.6L71.9,14l-12.3,4.3 M71.9,14v9.7"/>
	<path class="st53" d="M78.3,61.9l-6.4,3.7v8.7 M71.9,65.7l-6.9-4"/>
	<path class="st52" d="M78.3,61.9l-6.4,3.7v8.7 M71.9,65.7l-6.9-4"/>
</g>
</svg>
