<?xml version="1.0" encoding="utf-8"?>
<!-- Generator: Adobe Illustrator 21.0.2, SVG Export Plug-In . SVG Version: 6.00 Build 0)  -->
<svg version="1.1" id="Layer_1" xmlns="http://www.w3.org/2000/svg" xmlns:xlink="http://www.w3.org/1999/xlink" x="0px" y="0px"
	 viewBox="0 0 144 144" style="enable-background:new 0 0 144 144;" xml:space="preserve">
<style type="text/css">
	.st0{clip-path:url(#SVGID_2_);}
	.st1{clip-path:url(#SVGID_6_);}
	.st2{clip-path:url(#SVGID_10_);}
	.st3{fill:#B54D41;}
	.st4{fill:#FFFFFF;}
	.st5{fill:#A71E27;}
	.st6{clip-path:url(#SVGID_14_);}
	.st7{clip-path:url(#SVGID_18_);}
	.st8{clip-path:url(#SVGID_22_);}
	.st9{clip-path:url(#SVGID_30_);}
	.st10{fill:none;stroke:#9C1B23;stroke-width:0.9231;stroke-linejoin:round;stroke-miterlimit:10;}
	.st11{clip-path:url(#SVGID_34_);}
	.st12{clip-path:url(#SVGID_38_);}
	.st13{clip-path:url(#SVGID_42_);}
	.st14{clip-path:url(#SVGID_46_);}
	.st15{fill:#A4B67E;}
	.st16{clip-path:url(#SVGID_50_);}
	.st17{fill:#8AA65A;}
	.st18{fill:#EEF6E9;}
	.st19{fill:#BECDA2;}
	.st20{clip-path:url(#SVGID_54_);}
	.st21{fill:none;stroke:#71973E;stroke-width:0.9231;stroke-linejoin:round;stroke-miterlimit:10;}
	.st22{clip-path:url(#SVGID_58_);}
	.st23{clip-path:url(#SVGID_62_);}
	.st24{clip-path:url(#SVGID_66_);}
	.st25{clip-path:url(#SVGID_70_);}
	.st26{clip-path:url(#SVGID_74_);}
	.st27{clip-path:url(#SVGID_78_);}
	.st28{clip-path:url(#SVGID_82_);}
	.st29{fill:#FFE885;}
	.st30{clip-path:url(#SVGID_86_);}
	.st31{clip-path:url(#SVGID_90_);}
	.st32{clip-path:url(#SVGID_94_);}
	.st33{clip-path:url(#SVGID_98_);}
	.st34{clip-path:url(#SVGID_102_);}
	.st35{clip-path:url(#SVGID_106_);}
	.st36{clip-path:url(#SVGID_110_);}
	.st37{clip-path:url(#SVGID_114_);}
	.st38{fill:#E0EFD5;}
	.st39{clip-path:url(#SVGID_118_);}
	.st40{clip-path:url(#SVGID_122_);}
	.st41{fill:none;stroke:#ABA6A6;stroke-width:3.8246;}
	.st42{fill:none;stroke:#706B6B;stroke-width:2.3904;}
	.st43{fill:#6FBE46;}
	.st44{fill:none;stroke:#000000;stroke-width:0.9562;}
	.st45{fill:none;stroke:#575454;stroke-width:0.9562;stroke-linejoin:round;}
	.st46{clip-path:url(#SVGID_126_);}
	.st47{clip-path:url(#SVGID_130_);}
	.st48{fill:#FDDD10;}
	.st49{clip-path:url(#SVGID_136_);}
	
		.st50{clip-path:url(#SVGID_140_);fill:none;stroke:#575454;stroke-width:1.0454;stroke-linecap:round;stroke-linejoin:round;stroke-miterlimit:10;}
	
		.st51{clip-path:url(#SVGID_140_);fill:none;stroke:#000000;stroke-width:4.1817;stroke-linecap:round;stroke-linejoin:round;stroke-miterlimit:10;}
	.st52{fill:none;stroke:#FFFFFF;stroke-width:1.7077;stroke-linecap:round;stroke-linejoin:round;stroke-miterlimit:10;}
	.st53{fill:none;stroke:#000000;stroke-width:4.1817;stroke-linecap:round;stroke-linejoin:round;stroke-miterlimit:10;}
	.st54{clip-path:url(#SVGID_142_);}
	.st55{clip-path:url(#SVGID_146_);}
	.st56{clip-path:url(#SVGID_150_);}
	.st57{clip-path:url(#SVGID_154_);}
	.st58{clip-path:url(#SVGID_158_);}
	.st59{clip-path:url(#SVGID_162_);}
	.st60{clip-path:url(#SVGID_166_);}
	.st61{clip-path:url(#SVGID_170_);}
	.st62{clip-path:url(#SVGID_176_);}
	.st63{clip-path:url(#SVGID_182_);}
	.st64{clip-path:url(#SVGID_186_);}
	.st65{clip-path:url(#SVGID_190_);}
	.st66{clip-path:url(#SVGID_194_);}
	.st67{clip-path:url(#SVGID_198_);}
	.st68{clip-path:url(#SVGID_202_);}
	.st69{clip-path:url(#SVGID_206_);}
	.st70{clip-path:url(#SVGID_210_);}
	.st71{clip-path:url(#SVGID_216_);}
	.st72{clip-path:url(#SVGID_220_);}
	.st73{clip-path:url(#SVGID_226_);}
	.st74{clip-path:url(#SVGID_230_);}
	.st75{clip-path:url(#SVGID_236_);}
	.st76{clip-path:url(#SVGID_240_);}
	.st77{clip-path:url(#SVGID_244_);}
	.st78{clip-path:url(#SVGID_248_);}
	.st79{clip-path:url(#SVGID_254_);}
	.st80{clip-path:url(#SVGID_258_);}
	.st81{clip-path:url(#SVGID_262_);}
	.st82{clip-path:url(#SVGID_266_);}
	.st83{clip-path:url(#SVGID_270_);}
	.st84{clip-path:url(#SVGID_274_);}
	.st85{clip-path:url(#SVGID_278_);}
	.st86{clip-path:url(#SVGID_282_);}
	.st87{clip-path:url(#SVGID_286_);}
	.st88{clip-path:url(#SVGID_290_);}
	.st89{clip-path:url(#SVGID_294_);}
	.st90{clip-path:url(#SVGID_298_);}
	.st91{clip-path:url(#SVGID_304_);}
	.st92{clip-path:url(#SVGID_308_);}
	.st93{clip-path:url(#SVGID_314_);}
	.st94{clip-path:url(#SVGID_320_);}
	.st95{clip-path:url(#SVGID_324_);}
	.st96{fill:#706B6B;}
	.st97{clip-path:url(#SVGID_328_);}
	.st98{clip-path:url(#SVGID_334_);}
	.st99{fill:#567EBF;}
</style>
<g>
	<g>
		<defs>
			<path id="SVGID_125_" d="M51.1,59.7c0.8-0.2,0.9-0.5,0.5-1.5c-0.8,0.6-1.5,1.2-2.3,1.8c0,0,0,0.1,0.1,0.1c0.3,0,0.6-0.1,0.8-0.2
				C50.5,60,50.8,59.8,51.1,59.7L51.1,59.7z M65.4,43.3c-1,0.9-1.4,2-1.4,3.4c0,0.2,0,0.5-0.1,0.7c-0.3,1.3-0.5,2.6-0.8,4.1
				c0.9-0.3,1.7-0.5,2.5-0.8c0.2-0.1,0.4-0.3,0.4-0.5c0.1-0.9,0.1-1.8,0.2-2.9c-0.2,0.2-0.3,0.3-0.5,0.5c0.9-1.5,1.3-5.3,0.8-5.9
				C66.1,42.3,65.8,42.9,65.4,43.3L65.4,43.3z M56.7,55.5c-1.3,0.6-2.5,1.2-3.6,1.8c-1,0.5-1,0.6-0.8,1.8
				C53.7,58.8,56.2,56.8,56.7,55.5L56.7,55.5z M58.8,52c0.4-1.3,0.7-2.5,1.1-3.9c-1,0.4-1.7,0.8-2.5,1c-0.6,0.1-0.8,0.5-1,1
				c-0.3,0.7-0.7,1.4-1.1,2.1c-0.6,1-1.4,1.9-1.9,2.6c1.6-0.7,3.4-1.5,5.2-2.3C58.6,52.2,58.8,52.1,58.8,52L58.8,52z M59.7,42.2
				c0.2-0.2,0.4-0.6,0.3-0.9c-0.2-0.9-0.5-1.8-0.8-2.8c-1.4,1.5-2,3.6-2.4,5.9C57.9,43.8,58.8,43.1,59.7,42.2L59.7,42.2z M59.7,38.7
				c0.3,0.9,0.5,1.8,0.8,2.6c1.2-1.2,2.6-3.8,2.9-5.2c0-0.1-0.1-0.2-0.1-0.2c-1.1,0.6-2.1,1.2-3.2,1.8
				C59.6,37.8,59.6,38.2,59.7,38.7L59.7,38.7z M61.7,54.6c-0.5,1.1-1.5,1.9-1.8,3.1C61.1,57.1,61.6,56,61.7,54.6L61.7,54.6z
				 M49.2,43.5c0.5-0.8,0.6-2.7-0.1-3.4c-0.4,1.5-0.9,3-1.3,4.6C48.4,44.8,48.6,44.6,49.2,43.5L49.2,43.5z M56.2,35.4
				c0.5-0.5,1.1-1.1,1.6-1.6c-0.9-0.2-1.7-0.5-2.5-0.4c-2.2,0.3-4.1,1.3-5.3,3.4c-0.5,0.8-0.8,1.6-0.2,2.6c0.7,1.2,0.7,2.7,0,4
				c-0.3,0.5-0.6,1-1,1.6c1.4,0.1,2.7,0.4,3.9,0.4c2.2-0.1,2,0,2.4-2.4c0,0,0-0.1,0-0.2c-1.1-0.3-2,0.2-2.8,0.9
				c0.6-0.9,1.3-1.4,2.3-1.5c0.5,0,0.7-0.3,0.8-0.8c0.4-2,1.2-3.7,2.6-5.2c1.7-1.9,3.8-2.8,6.2-3.4c0.2,0,0.4-0.3,0.5-0.5
				c0.1-0.5,0.1-1.1,0.2-1.8c-1.9,1.7-3.9,2.6-6.2,3c-0.2,0-0.4,0.2-0.6,0.4C57.6,34.7,57,35.2,56.2,35.4L56.2,35.4z M62.9,73.7
				c0.5-0.2,0.9-0.4,1.4-0.6c-0.1-0.4-0.1-0.9-0.2-1.5c-0.5,0.8-0.9,1.4-1.3,2C62.9,73.6,62.9,73.7,62.9,73.7L62.9,73.7z
				 M104.8,63.3c-0.8-2.2-1.9-4.1-3.1-6c0,1.2,0,2.2,0,3.3C101.7,62.3,103.1,63.5,104.8,63.3L104.8,63.3z M83.2,49.2
				c0,0,0.1-0.1,0.1-0.1c-0.7-1.1-1.4-2.1-2.2-3.3c0,1.1,0.1,1.9,0.1,2.8C81.9,48.7,82.5,49,83.2,49.2L83.2,49.2z M91.6,52.9
				c-1.2-0.4-2.1-1.1-2.7-2.3c-0.1-0.2-0.4-0.4-0.5-0.6c0.1,1.2,1.6,2.6,2.5,3.1c1.9,1,3.4,2.4,4.6,4.2c0.7,1.1,1.4,2.3,1.9,3.4
				c0.4-0.9,0.9-2,1.4-3c0.1-0.2,0.2-0.4,0.2-0.6c-1-4.8-5.4-7.2-9.5-6.6C89.8,51.7,90.7,52.4,91.6,52.9L91.6,52.9z M85.9,49.3
				c-0.7-0.5-1.6-0.9-2.5-1.4c0.4,0.7,0.6,1.5,1.1,1.9c0.7,0.6,1.5,1,2.4,1.5c-0.1-0.3-0.2-0.5-0.3-0.8
				C86.3,50.1,86.2,49.5,85.9,49.3L85.9,49.3z M82.7,37.1c0.8,3.8,2.9,6.3,6.2,7.7c1.3,0.6,2.6,1.2,3.9,1.8c0.5,0.2,1.1,0.8,1.6,0.7
				c4-0.2,7.8,0.6,11.4,2.2c0.4,0.2,0.9,0.4,1.4,0.6c-3-4.8-9.2-7.8-12.9-6.9c0.4,0.3,0.6,0.6,0.9,0.7c0.8,0.3,1.4,0.8,1.8,1.5
				c-0.8-0.3-1.6-0.7-2.4-1.1c-0.3-0.1-0.6-0.4-0.7-0.6c-0.2-0.5-0.5-0.5-0.8-0.5c-1.6,0-3.1-0.4-4.4-1.4c-2-1.5-3.2-3.6-4-6
				c-0.1-0.2-0.1-0.5-0.2-0.5c-0.7-0.4-1.5-0.7-2.4-1.2C82.3,35.2,82.4,36.1,82.7,37.1L82.7,37.1z M127.2,125.8V22.3
				c0-5.7-5-5.7-5-5.7H79.6c-0.1,1.7-0.1,3.4-0.1,5.1c0,1.1,0.5,2.2,0.9,3.2c0.7,1.9,1.7,3.7,3.1,5.1c2.2,2.2,4.8,3,7.8,2.5
				c2.7-0.4,5.4-0.2,8,0.5c3.9,1.1,7.4,3.1,10.5,5.9c1.9,1.7,3.6,3.7,5,6c0.1,0.1,0.1,0.3,0.2,0.4c0,0.1,0,0.1,0,0.3
				c-2.9-4-6.6-6.8-10.8-8.7c0.2,1.3,0.2,2.6,0.6,3.7c0.3,1.1,1,2.2,1.5,3.3c-1.2-1.3-1.9-2.6-2.2-4.3c-0.1-0.6-0.2-1.1-0.3-1.7
				c-0.2-0.9-0.6-1.5-1.5-1.8c-2.1-0.7-4.3-1.2-6.5-1.2c-0.1,0-0.1,0-0.2,0.1c0.6,1.4,1.4,2.7,2.7,3.5c-1-0.4-1.8-1.1-2.3-2
				c-0.8-1.5-1.1-1.6-2.7-1.4c-1.6,0.3-3.3,0.6-4.9,0.9c0.5,2.4,2.5,4.4,4.7,4.6c1.2,0.1,2.4,0.2,3.6,0.4c3.4,0.7,6.2,2.7,8.6,5.5
				c0.8,1,1.5,2.1,2.1,3.2c0.3,0.5,0.7,0.8,1.2,1.1c5.6,3.3,10.2,7.8,13.4,13.9c0,0.1,0,0.1,0.1,0.2c-1.1-1.5-2.1-3-3.3-4.3
				c-1.2-1.4-2.5-2.6-3.9-3.8c-1.4-1.2-2.9-2.2-4.4-3.1c-1.5-0.9-3.1-1.6-4.7-2.4c-0.8,2.3,0.1,4.8,2.1,5.7c2.3,1.1,3.7,3,4.7,5.5
				c0.1,0.3,0.2,0.7,0.4,1.2c-0.7-1.3-1.3-2.4-2.1-3.5c-0.8-1.1-1.7-1.9-2.9-2.4c-0.3,1.4-0.3,2.7,0.3,3.9c-0.8-0.8-1-1.9-0.9-3
				c0.1-0.6,0-1.1-0.6-1.5c-1.9-1.3-2.4-3.2-2.1-5.5c0-0.5,0-0.7-0.5-0.8c-1.2-0.3-2.4-0.6-3.7-0.8c-0.8-0.1-1.6-0.1-2.4-0.2
				c1.2,1.3,2,2.7,2.8,4.2c0.2,0.4,0.5,0.6,1.1,0.7c1.7,0.1,2.9,0.9,3.5,2.7c0.3,0.9,0.6,1.9,1.1,2.6c0.4,0.7,1.2,1.2,1.7,1.8
				c0.5,0.4,1,0.9,1.6,1.4c-1.6-0.7-2.9-1.6-3.8-3.1c-0.5-0.8-0.8-1.6-1.1-2.5c-0.5-1.4-1.6-2.1-3.1-2.1c0.3,0.5,0.6,1,0.8,1.5
				c0.8,1.8,1.6,3.6,2.4,5.4c0.2,0.5,0.4,0.7,0.9,0.7c1.9,0.2,3.5,1.1,4.7,2.7c-1.5-1.4-3.1-2.3-5.1-2.1c0.3,1.8,0.6,3.6,0.9,5.3
				c0,0,0,0-0.1,0c-0.4-1.5-0.8-3.1-1.1-4.6c-0.1-0.5-0.3-0.6-0.8-0.6c-0.8,0-1.6-0.2-2.4-0.4c1.9,6.2,5.4,11,10.8,14.2
				c-5.2-1.2-13.1-8.8-13.7-18.6c-0.1,0-0.1-0.1-0.2-0.1c-0.2,0.6-0.5,1.2-0.6,1.8c-0.3,1.3,0.1,2.4,0.8,3.5
				c1.8,2.7,1.9,5.7,1.3,8.8c0,0.1-0.1,0.1-0.1,0.2c0.6-3.3,0.1-6.2-1.9-9c0.1,0.9,0.1,1.7,0.2,2.5c-0.4-1.4-0.7-2.8-1.2-4.1
				c-0.5-1.4-1.2-2.7-2-3.9c-0.8-1.2-1.8-2.2-2.9-3.1c-1.1-0.9-2.3-1.4-3.5-2.1c0.6,1.4,1.2,2.8,1.7,4.2c0.2,0.7,0.4,1.4,0.4,2.1
				c0,0.7,0.3,1,0.9,1.1c1.3,0.3,2.2,1.1,2.8,2.4c-0.5-0.5-1-1-1.6-1.3c-0.6-0.3-1.2-0.4-2-0.6c0.5,5.1,2.4,9.3,5.2,13
				c2.8,3.7,6.2,6.5,10.3,8.2c-0.4-0.1-0.8-0.2-1.3-0.4c-0.4-0.2-0.8-0.3-1.2-0.5c-5-2.4-9-6.2-12-11.2c-1.7-2.9-2.8-6.2-3.2-9.7
				c-0.2-1.9-0.7-3.2-1.8-4.8c-1.1,1.5-1.9,3.1-1.6,5.1c-0.4-1.1-0.4-2.2-0.1-3.3c0.2-0.7,0.6-1.5,0.8-2.2c0.1-0.3,0-0.7-0.1-0.9
				c-0.4-0.5-0.9-0.8-1.5-1.3c-0.2,1-0.3,1.8-0.5,2.6c0,0-0.1,0-0.1,0c0.1-0.8,0.2-1.5,0.2-2.3c0-0.2-0.1-0.6-0.3-0.7
				c-1.1-0.5-2.2-1-3.3-1.4c-0.4,0.7-0.2,1.1,0.2,1.5c1.6,1.4,2.4,3.3,1.9,5.6c0,0.1,0,0.3-0.1,0.3c-0.7,1-0.3,1.8,0.3,2.6
				c0.5,0.7,1.1,1.4,1.5,2.2c-0.8-1-1.6-1.9-2.4-2.9c-0.7,1.4-0.5,3.2,0.6,7c-0.3-0.5-0.5-0.9-0.8-1.4c-0.2-0.5-0.4-1.1-0.7-1.6
				c-0.1,1.9-0.2,3.8-0.3,5.8c8.4,1.7,14.6,7.1,19.4,14.7c2.2,3.6,4,7.4,4.6,11.7c-2.1-6.8-6-12.2-11.1-16.7
				c-0.6,1.5-0.2,2.9,0.4,4.1c-1-1.1-1.3-2.4-1.1-3.8c0.1-0.5,0-0.9-0.4-1.2c-3.2-2.4-6.7-4.1-10.6-4.7c0,0-0.1,0-0.1,0
				c-0.2,1.7,1.1,4.4,3.1,4.6c2.8,0.4,5,2,6.6,4.4c0.1,0.1,0.2,0.3,0.3,0.5c-0.9-0.9-1.6-1.7-2.5-2.5c-1.1-1-2.4-1.6-3.8-1.7
				c-2-0.2-3.5-1.2-4.2-3.3c0-0.1-0.1-0.2-0.1-0.3c-0.2,0.7-0.2,0.7,0.6,2.6c-0.7-0.5-1.2-1.7-1.2-2.9c0-0.3,0-0.6,0-0.9
				c0.1-0.7-0.1-1-0.8-1c-0.6-0.1-1.2-0.2-1.8-0.4c-0.3-0.1-0.4-0.2-0.7,0.3c-0.4,0.6-1.1,1-1.8,1c-1.5,0.1-2,0.8-1.5,2.4
				c0.4,1.2,0.8,2.4,1.2,3.6c-1-1.3-1.6-2.9-1.8-4.7c-0.4,0.3-0.7,2.2-0.9,4.2c-0.2,1.5,0.2,2.9,0.3,4.4c-0.2-0.5-0.3-1-0.5-1.5
				c0,0-0.1,0-0.1,0c-0.2,1.2-0.5,2.5-0.7,3.7c-0.4,2.2-0.9,4.3-1.4,6.5c-0.1,0.6,0,1,0.3,1.5c1.7,2.5,1.8,6.9,1.1,8.9
				c0-1.3,0.1-2.9,0-4.4c-0.1-1.6-0.7-3-1.7-4.3c-0.8,2.8-1.6,5.4-2.4,8.1c-0.9,2.6-1.9,5.2-3,7.7c1.7-5.7,2.8-11.6,3.6-17.5
				c-1.5,0.3-2.9,1.9-3,3.5c-0.1,1.3-0.1,2.7-0.4,4c-0.4,2-1.4,3.6-2.8,4.9c0.5-0.8,0.9-1.5,1.4-2.3c0.9-1.6,1.3-3.4,1.2-5.3
				c-0.3-3.1,1.2-5,3.5-6c0.2-0.1,0.4-0.3,0.4-0.5c0.2-1.9,0.4-3.9,0.5-5.8c0-0.1,0-0.2,0-0.4c-1.6-0.1-3.5,1.5-3.7,3.2
				c-0.3,2-0.8,3.8-2,5.4c-0.7,1-1.6,1.9-2.6,2.6c0.8-0.9,1.6-1.8,2.2-2.7c1-1.4,1.5-3.1,1.7-4.9c0.2-2.6,1.9-4,3.6-4.4
				c0.7-0.2,1-0.5,1-1.3c0-3.5,0-6.9,0-10.6c-1.2,1.9-1.2,3.8-1.2,5.8c-0.5-2.4,0-4.7,1-6.9c-0.3,0.2-0.5,0.4-0.8,0.5
				c-0.9,0.2-1.7,0.4-2.6,0.5c-0.5,0.1-0.8,0.1-1,0.7c-0.2,0.7-0.6,1.3-1,1.9c-2,2.3-2.6,5.2-2.4,8.3c0,0.2,0,0.5,0,0.7
				c-0.7-2.7-0.3-5.2,0.8-7.7c0.3-0.6,0.7-1.1,1.1-1.7c0.3-0.6,0.7-1.1,0.9-1.8c-0.9,0.2-1.9,0.3-2.4,1.2c-3,5.8-4.7,12-4.4,18.8
				c0,0.1,0,0.2-0.1,0.4c-0.4-1.9-0.4-3.8-0.2-5.8c0.2-1.9,0.4-3.9,0.8-5.8c0.4-1.9,1-3.7,1.5-5.7c-0.4,0.5-0.7,0.8-1,1.2
				c0,0,0,0-0.1,0c1-1.7,1.9-3.3,2.9-5c-0.1-0.1-0.1-0.1-0.2-0.2c-0.8,0.2-1.4,0.6-2,1.3c-0.7,0.8-0.8,1.8-1.1,2.8
				c-0.6,2.9-2.3,4.9-4.6,6.5c-0.2,0.2-0.5,0.3-0.7,0.3c0.5-0.4,0.9-0.7,1.4-1.1c1.9-1.7,3.2-3.8,3.5-6.6c0.2-2.1,1.4-3.5,3.2-4.1
				c0.7-0.2,1.2-0.6,1.6-1.3c1.4-2.5,3.2-4.8,5.2-6.7c0.1-0.1,0.3-0.5,0.2-0.6c-0.9-2.5-1.3-5.1-1.7-7.8c-0.1-1.1-0.6-1.6-1.6-1.5
				c0,0-0.1,0-0.1,0c-1.5,0.1-1.5,0.1-1.7,1.7c-0.1,0.8-0.5,1.5-1.1,2.1c0.3-0.6,0.5-1.2,0.8-1.9c-0.7,0.7-1.4,1.4-2,2
				c-0.1,0.1-0.1,0.3-0.1,0.4c0.3,2.2-0.6,3.9-2,5.4c-2.7,2.9-3.7,6.3-3.2,10.4c0,0.2,0,0.4,0,0.6c-0.7-2.5-0.6-5,0.2-7.5
				c0.5-1.6,1.4-3,2.4-4.3c1.1-1.3,1.7-2.7,1.2-4.7c-0.4,0.3-0.6,0.5-0.9,0.7c-1.1,0.7-2.1,1.5-3.2,2.2c-0.4,0.2-0.5,0.5-0.5,0.9
				c-0.2,2.6-1,4.8-2.8,6.7c1.1,0.8,1,2,0.8,3.2c-0.2,1.1,0.2,2,0.7,3c-0.9-1-1.3-2.1-1.2-3.5c0-0.4-0.1-0.9-0.3-1.3
				c-0.3-0.7-0.7-0.7-1.3-0.3c-1.2,0.6-2.4,1.1-3.6,1.6c-3.1,1.3-5.3,3.6-7.2,6.5c-1.5,2.3-2.5,4.8-3,7.6c0,0.1,0,0.2-0.2,0.3
				c0.2-1,0.2-2,0.5-3c1.1-4.2,3-7.8,6-10.6c1.4-1.3,2.9-2.3,4.6-2.9c2.7-1,4.5-3.8,4.5-7c-0.9,0.2-1.9,0.3-2.8,0.5
				c-1.2,0.3-2.4,0.7-3.6,1.1c-0.3,0.1-0.6,0.4-0.8,0.7c-1,1.7-2,3.4-2.9,5.1c-0.1,0.1-0.1,0.2-0.2,0.3c0.4-1.9,1.3-3.6,2.1-5.3
				c-8.1,4.6-13.7,11.7-16.5,21.3c1-5.7,3.5-10.5,6.7-15c-1-0.4-2.9,0.3-3.6,1.5c-0.4,0.8-0.8,1.6-1.2,2.4c-1.2,2.2-3.1,3.4-5.3,4.2
				c-0.4,0.1-0.8,0.2-1.2,0.3c0,0-0.1,0-0.1,0c0.9-0.4,2-0.8,2.9-1.4c1.9-1.2,3.2-2.9,4-5.1c0.8-2.1,2.4-3,4.4-3
				c0.7,0,1.2-0.3,1.7-0.8c1.6-1.6,3.2-3.3,4.8-4.9c-0.7-1-1.9-1.4-3.2-1.4c1.2-0.2,2.2,0,3.2,0.9c0.4,0.4,0.6,0.3,1.1,0.1
				c1.5-0.9,3.1-1.7,4.7-2.6c0.2-0.1,0.4-0.2,0.6-0.4c1.4-1.5,2.9-3.1,4.2-4.5c-0.5,0.2-1.1,0.5-1.8,0.6c-1,0.2-2.1,0.2-3.2,0.3
				c-0.4,0.1-0.8,0.3-1.2,0.5c-0.4,0.2-0.8,0.6-1.2,0.7c-1.3,0.1-2.2,0.7-3.1,1.7c0.1-0.2,0.1-0.3,0.2-0.5c0.6-1,1.5-1.7,2.6-1.9
				c0.4-0.1,0.7-0.4,1-0.7c-3.3-0.9-6.4-0.2-9.4,1.3c-3,1.4-5.5,3.6-7.7,6.3c0.2-0.3,0.3-0.7,0.5-1c2.6-4,6-6.8,10.1-8.5
				c2.3-1,4.8-1.2,7.2-1c2,0.2,3.8-0.3,5.3-1.7c0.9-0.8,1.6-1.8,2-3c-1.6-0.4-3.1-0.9-4.9-1.3c0,1.2-0.1,2.3-0.1,3.4c0,0,0,0-0.1,0
				c0-1.1,0-2.3,0-3.4c-0.9-0.6-1-0.6-1.7,0.2c-2,2.4-4.4,4.3-7.3,5.3c-0.3,0.1-0.7,0.2-1,0.2c1.8-1,3.5-2,4.9-3.6
				c0.8-0.7,1.5-1.5,2-2.6c-0.7,0.8-1.4,1.7-2.1,2.5c-0.9,0.4-1.8,0.8-2.8,1.2c-0.2,0.1-0.5,0.1-0.8,0.1c2.3-0.5,4-1.9,5.2-4.2
				c-0.2,0-0.5-0.1-0.8-0.1c-2.8-0.2-5.5,0.1-8.1,0.9c-0.4,0.1-0.8,0.8-1,1.3c-0.3,0.9-0.5,1.8-0.8,2.7c-0.9,2.6-2.6,4.4-4.8,5.6
				c0.2-0.2,0.5-0.3,0.7-0.5c0.2-0.2,0.5-0.4,0.7-0.6c1.8-1.7,3.1-3.8,3.3-6.5c0-0.5,0.2-1,0.4-1.6c-5.6,1.9-10.5,4.9-14.3,9.7
				c0-0.1-0.1-0.1-0.1-0.2c0.9-1.1,1.7-2.3,2.7-3.4c3.3-3.7,7.3-6.4,11.6-8.2c1.9-0.8,3.9-1.2,5.8-1.8c0.2-0.1,0.5-0.2,0.7-0.3
				c0.3,0,0.6,0.1,0.9,0.1c1.6-0.1,3.3-0.2,4.9-0.2c0.8,0,0.9,0,1-1c-0.7,0-1.5,0.1-2.2,0c-1.5-0.3-2.9-0.1-4.2,0.8
				c0.6-0.4,1.2-1,1.9-1.2c0.8-0.2,1.7-0.2,2.5-0.1c1.5,0.2,2.6-0.7,2.8-2.4c0.2-1.2,0.3-2.5,0.6-3.7c0.5-1.8,1.6-3.2,3.1-4.4
				c-2-0.4-3.7,0.1-5.5,0.3c-0.2,1-0.3,2-0.6,3c-0.2,0.9-0.8,1.5-1.5,1.8c-0.5,0.3-0.8,0.7-0.8,1.3c0,0.9-0.3,1.7-0.7,2.2
				c0.2-0.9,0.3-1.9,0.5-2.9c-0.1,0-0.2-0.1-0.2-0.1c-2.1,0.8-3.5,2.5-4.5,4.6c0.5-1.5,1.2-2.8,2.3-3.7c0.7-0.6,1.5-1.1,2.3-1.4
				c1.7-0.7,2.6-2.4,2.2-4.5c-5.6,1.6-10.3,4.6-14.2,9.3c0.6-0.8,1.2-1.7,1.8-2.5c3-3.6,6.6-6.1,10.7-7.8c3.9-1.6,7.8-2.1,11.9-1.3
				c4,0.8,7.2-0.8,9.6-4.3c1.1-1.6,1.9-3.5,2.3-5.5c0.2-0.8,0.1-1.6,0.1-2.4c0-0.6,0.1-1.3,0.1-1.9H18.3c-1.5,0.3-4.1,1.3-4.1,5
				v102.3c0,0,0,5.1,5.1,5.1h103.2C122.5,129,126.1,129,127.2,125.8L127.2,125.8z M73,60.1c1.4-1.2,2.5-2.6,3.3-4.4
				c-1.3-0.2-2.2,0.6-3.1,1.4c0.5-1.1,1.4-1.8,2.6-2.1c-0.6-0.1-1.1-0.2-1.6-0.4c-0.5-0.2-0.9-0.5-1.4-0.8
				C72.4,55.3,72.5,59.2,73,60.1L73,60.1z M76.3,52.2c-0.8-1.1-1.6-2.2-2.5-3.5c-0.2,0.9-0.4,1.5-0.6,2.2c-0.3,1.6-0.1,2.2,1.3,2.9
				c0.5,0.2,1,0.3,1.6,0.4c0.1-0.5,0.3-0.9,0.3-1.3C76.4,52.7,76.4,52.3,76.3,52.2L76.3,52.2z M76.1,42.3c-0.6,1.6-1.1,3-1.6,4.4
				c0.9,1.3,1.9,2.7,2.9,4.1C77.6,47.8,77.1,45,76.1,42.3L76.1,42.3z M81.5,59.8C81.5,59.8,81.5,59.8,81.5,59.8
				C81.4,59.8,81.4,59.8,81.5,59.8C81.5,59.8,81.5,59.8,81.5,59.8L81.5,59.8z M81.4,59.8C81.4,59.8,81.4,59.8,81.4,59.8
				c-0.3-0.5-0.6-0.9-1.1-1.5c0.3,1.2,0.5,2.3,0.7,3.3c0,0,0.1,0,0.1,0C81.3,61,81.4,60.4,81.4,59.8L81.4,59.8z M80.2,57.5
				c0.4,0.8,0.8,1.5,1.2,2.3c0.1-0.2,0.3-0.3,0.2-0.5c-0.2-1-0.3-1.9-0.6-2.8c-0.2-0.5-0.6-0.9-1-1.3C79.6,56.1,79.9,56.8,80.2,57.5
				L80.2,57.5z M77.2,74.2c-1-0.5-1.9-1-2.7-1.4c0,1,0.1,2,0.1,3.2C75.2,75,76.6,75.5,77.2,74.2L77.2,74.2z M74,73.8
				c-0.1,0-0.1,0-0.2,0c-0.1,1-0.2,1.9-0.3,2.9c0.1,0,0.2,0,0.3,0C73.9,75.8,74,74.8,74,73.8L74,73.8z M73.5,63.7
				c0,0.7,0,1.4,0.7,1.8c0.3,0.2,0.4,0.6,0.6,0.9c0.2,0.4,0.3,0.9,0.6,1.2c1,0.9,2,1.7,3,2.5c0.8,0.5,1.7,0.8,2.6,1.2
				c0.3-4.9-0.5-9.3-2-13.6c-0.7,0.7-0.8,1.4-0.5,2.3c0.3,1.2,0.3,2.5-0.1,3.7c0-1.5,0.2-3-0.4-4.4c-0.3,0.4-0.6,0.7-0.9,1
				c0.6,0.8,0.8,1.6,0.5,2.6c-0.2,0.8-0.2,1.6,0.4,2.3c0.1,0.3,0.2,0.6,0.2,0.8c-0.9-0.9-1.3-2-1.1-3.4c0.1-0.7,0-1.3-0.6-1.6
				c-1,0.7-1.9,1.5-2.8,2.2C73.6,63.4,73.5,63.6,73.5,63.7L73.5,63.7z M69.1,70.7c0-1.3-0.3-2.6-0.5-3.9c-0.1,0-0.1-0.1-0.2-0.1
				c-1.2,1.3-2.4,2.6-3.5,4c-0.1,0.1-0.1,0.2-0.1,0.3c0.1,0.6,0.3,1.3,0.5,2.1c0.8-0.2,1.6-0.3,2.3-0.7
				C68.3,72.1,69.1,71.6,69.1,70.7L69.1,70.7z"/>
		</defs>
		<clipPath id="SVGID_2_">
			<use xlink:href="#SVGID_125_"  style="overflow:visible;"/>
		</clipPath>
		<g class="st0">
			<defs>
				<rect id="SVGID_127_" x="14.2" y="16.6" width="113.1" height="112.4"/>
			</defs>
			<clipPath id="SVGID_4_">
				<use xlink:href="#SVGID_127_"  style="overflow:visible;"/>
			</clipPath>
			<g style="clip-path:url(#SVGID_4_);">
				
					<image style="overflow:visible;" width="240" height="237" xlink:href="5A0454CEDB60F4A9.jpg"  transform="matrix(0.48 0 0 -0.48 13.6501 129.4751)">
				</image>
			</g>
		</g>
	</g>
	<g>
		<defs>
			<path id="SVGID_129_" d="M135.7,132.2V13.3c0,0,0-5.3-5.3-5.3H11.3c0,0-5.3,0-5.3,5.3v118.9c0,0,0,5.3,5.3,5.3h119.1
				C130.4,137.5,135.7,137.5,135.7,132.2L135.7,132.2z M129.9,126c0,5.3-5.3,5.3-5.3,5.3H17.1c-5.3,0-5.3-5.3-5.3-5.3V19.5
				c0-5.3,5.3-5.3,5.3-5.3h107.5c5.3,0,5.3,5.3,5.3,5.3V126L129.9,126z"/>
		</defs>
		<clipPath id="SVGID_6_">
			<use xlink:href="#SVGID_129_"  style="overflow:visible;"/>
		</clipPath>
		<g class="st1">
			<defs>
				<rect id="SVGID_131_" x="6" y="8" width="129.7" height="129.5"/>
			</defs>
			<clipPath id="SVGID_8_">
				<use xlink:href="#SVGID_131_"  style="overflow:visible;"/>
			</clipPath>
			<g style="clip-path:url(#SVGID_8_);">
				
					<image style="overflow:visible;" width="276" height="273" xlink:href="5A0454CEDB60F4AB.jpg"  transform="matrix(0.48 0 0 -0.48 5.0959 138.0934)">
				</image>
			</g>
		</g>
	</g>
	<g>
		<defs>
			<path id="SVGID_133_" d="M64.9,112.3c-0.1,0-0.1,0-0.2,0c-0.3-0.1-0.4-0.4-0.3-0.6c1.5-5.2,2.6-10.7,3.4-16.7
				c-1,0.5-1.8,1.6-1.9,2.8c0,0.4-0.1,0.8-0.1,1.2c-0.1,1-0.1,1.9-0.3,2.9c-0.4,1.9-1.4,3.7-2.9,5.2c-0.2,0.2-0.5,0.2-0.7,0
				c-0.2-0.2-0.2-0.4-0.1-0.7c0.1-0.2,0.3-0.5,0.4-0.7c0.3-0.5,0.6-1,0.9-1.5c0.9-1.6,1.3-3.3,1.1-5c-0.3-3,1-5.3,3.8-6.5
				c0,0,0.1-0.1,0.1-0.1c0.2-1.6,0.3-3.3,0.5-4.9l0-0.5c-1.2,0.2-2.6,1.5-2.7,2.7c-0.3,2.4-1,4.2-2.1,5.6c-0.7,0.9-1.5,1.9-2.8,2.7
				c-0.2,0.1-0.5,0.1-0.6-0.1c-0.2-0.2-0.2-0.5,0-0.7c0.2-0.3,0.5-0.6,0.7-0.9c0.5-0.6,1-1.2,1.5-1.8c0.9-1.3,1.4-2.8,1.6-4.7
				c0.2-2.9,2.2-4.4,4-4.8c0.5-0.1,0.6-0.2,0.6-0.8c0-2.5,0-5.1,0-7.7v-0.2c-0.2,1-0.2,2.1-0.2,3.2c0,0.3-0.2,0.5-0.4,0.5
				c-0.3,0-0.5-0.1-0.5-0.4c-0.4-2-0.2-3.9,0.5-6c-0.8,0.2-1.5,0.4-2.3,0.5c-0.4,0-0.5,0.1-0.6,0.4c-0.3,0.8-0.7,1.5-1.1,2
				c-1.8,2-2.5,4.6-2.3,7.9l0,0.1c0,0.2,0,0.4,0,0.6c0,0.2-0.2,0.5-0.4,0.5c-0.2,0-0.5-0.1-0.5-0.4c-0.7-2.7-0.4-5.4,0.8-8
				c0.2-0.4,0.4-0.8,0.7-1.1c0.1-0.2,0.3-0.4,0.4-0.6c0.2-0.3,0.3-0.5,0.5-0.8c-0.5,0.1-0.9,0.3-1.1,0.8c-3.2,6.2-4.6,12.3-4.4,18.5
				c0,0.2,0,0.4-0.1,0.6c-0.1,0.2-0.3,0.3-0.5,0.3c-0.2,0-0.4-0.2-0.4-0.4c-0.4-1.9-0.4-3.9-0.3-5.9c0.2-1.7,0.4-3.8,0.8-5.9
				c0.3-1.3,0.6-2.6,1-3.9c-0.1,0-0.2,0-0.3-0.1c0,0,0,0,0,0c-0.8,2.1-2.2,3.9-4.4,5.4c-0.3,0.2-0.6,0.3-0.9,0.4
				c-0.2,0-0.5-0.1-0.5-0.3s0-0.5,0.1-0.6l0.4-0.3c0.3-0.2,0.6-0.5,0.9-0.7c1.9-1.7,3-3.8,3.3-6.3c0.3-2.2,1.5-3.8,3.6-4.5
				c0.6-0.2,1-0.5,1.3-1.1c1.4-2.5,3.1-4.8,5.3-6.8c0,0,0.1-0.2,0.1-0.2c-1-2.6-1.4-5.4-1.7-7.8c-0.1-1-0.4-1.1-1.1-1.1
				c0,0-0.1,0-0.1,0c-1.1,0.1-1.1,0.1-1.2,1.3c-0.1,0.9-0.6,1.7-1.3,2.4c-0.2,0.2-0.4,0.2-0.6,0c-0.1-0.1-0.2-0.2-0.2-0.3
				c-0.1,0.1-0.2,0.2-0.4,0.4c0,0,0,0,0,0.1c0.2,2.1-0.5,4-2.1,5.8c-2.5,2.7-3.6,6-3,10c0,0.2,0,0.4,0,0.7c0,0.2-0.2,0.4-0.5,0.4
				c-0.2,0-0.4-0.1-0.5-0.4c-0.7-2.5-0.6-5.2,0.2-7.8c0.5-1.6,1.4-3.1,2.5-4.5c1-1.1,1.4-2.2,1.3-3.5c-0.1,0.1-0.2,0.1-0.3,0.2
				l-0.7,0.5c-0.8,0.6-1.7,1.1-2.5,1.7c-0.2,0.1-0.3,0.2-0.3,0.5c-0.2,2.7-1.1,4.9-2.6,6.7c0.9,1,0.8,2.2,0.6,3.3
				c-0.1,1,0.2,1.9,0.7,2.6c0.1,0.2,0.1,0.5-0.1,0.6c-0.2,0.1-0.5,0.1-0.7-0.1c-1-1.1-1.5-2.4-1.4-3.9c0-0.4-0.1-0.8-0.2-1.1
				c-0.1-0.2-0.2-0.3-0.2-0.3c0,0-0.1,0-0.4,0.1c-1.1,0.5-2.2,1-3.6,1.6c-2.7,1.1-5,3.2-7,6.3C38.3,81,37.4,83.4,37,86
				c0,0.1-0.1,0.5-0.5,0.7c-0.2,0.1-0.4,0.1-0.5,0c-0.2-0.1-0.2-0.3-0.2-0.5c0-0.3,0.1-0.6,0.1-0.9c0.1-0.7,0.2-1.4,0.4-2.1
				c1.2-4.4,3.2-8.1,6.1-10.8c1.4-1.4,3-2.4,4.7-3c2.4-0.9,4-3.2,4.2-6c-0.1,0-0.2,0-0.3,0c-0.7,0.1-1.3,0.2-1.9,0.4
				c-1.2,0.3-2.4,0.7-3.5,1.1c-0.1,0-0.3,0.2-0.5,0.5c-0.7,1.3-1.5,2.5-2.2,3.8l-0.7,1.3c-0.1,0.1-0.2,0.3-0.4,0.4
				c-0.2,0.1-0.4,0.1-0.6,0c-0.2-0.1-0.2-0.3-0.2-0.5c0.3-1.4,0.9-2.7,1.4-4C35.2,71,30.2,77.8,27.6,86.6c-0.1,0.3-0.3,0.4-0.6,0.3
				c-0.3-0.1-0.4-0.3-0.4-0.6c0.8-4.9,2.8-9.6,6.3-14.6c-0.8,0.1-1.8,0.6-2.3,1.4c-0.2,0.4-0.4,0.8-0.6,1.2
				c-0.2,0.4-0.4,0.8-0.6,1.2c-1.2,2-2.9,3.5-5.5,4.4c-0.3,0.1-0.6,0.2-0.9,0.3l-0.3,0.1c-0.2,0.1-0.5,0-0.6-0.2
				C22,80,22,79.8,22,79.7c0-0.1,0.1-0.3,0.3-0.3c0.3-0.1,0.6-0.3,0.9-0.4c0.6-0.3,1.3-0.6,1.9-1c1.7-1.1,3-2.7,3.8-4.9
				c0.8-2.2,2.5-3.3,4.9-3.3c0.6,0,0.9-0.2,1.3-0.7c1.1-1.2,2.3-2.4,3.4-3.5l1-1.1c-0.6-0.6-1.4-0.9-2.5-0.9c0,0,0,0,0,0
				c-0.3,0-0.5-0.2-0.5-0.5c0-0.3,0.2-0.5,0.4-0.5c1.4-0.3,2.6,0.1,3.6,1c0.2,0.2,0.2,0.2,0.5,0c1.1-0.6,2.2-1.2,3.3-1.8
				c0.5-0.3,1-0.5,1.4-0.8c0.2-0.1,0.4-0.2,0.5-0.3c1-1,1.9-2.1,2.9-3c0,0-0.1,0-0.1,0c-0.6,0.1-1.2,0.1-1.8,0.2
				c-0.5,0-1,0.1-1.4,0.1c-0.3,0-0.5,0.2-0.8,0.3l-0.2,0.1c-0.1,0.1-0.3,0.2-0.4,0.2c-0.3,0.2-0.6,0.4-1,0.5
				c-1.1,0.1-1.9,0.6-2.7,1.6c-0.2,0.2-0.4,0.2-0.6,0.1c-0.2-0.1-0.3-0.4-0.2-0.6l0-0.1c0-0.1,0.1-0.3,0.2-0.4
				c0.7-1.1,1.6-1.9,2.8-2.1c-2.5-0.4-5.1,0.1-8,1.5c-2.9,1.4-5.4,3.5-7.5,6.2c-0.2,0.2-0.4,0.3-0.7,0.1c-0.2-0.1-0.3-0.4-0.2-0.7
				l0.1-0.3c0.1-0.2,0.2-0.5,0.4-0.7c2.6-4,6.1-6.9,10.4-8.7c2.3-0.9,4.8-1.3,7.5-1c2,0.2,3.6-0.3,4.9-1.6c0.7-0.7,1.3-1.5,1.7-2.3
				l-3.7-1l-0.1,2.8c0,0.3-0.3,0.5-0.5,0.5c-0.3,0-0.6-0.2-0.6-0.5v-3.2c-0.1-0.1-0.3-0.2-0.4-0.2c-0.1,0-0.4,0.4-0.5,0.5
				c-2.2,2.6-4.7,4.4-7.5,5.5c-0.3,0.1-0.7,0.2-1.2,0.2c-0.2,0-0.4-0.1-0.5-0.4c-0.1-0.2,0-0.5,0.2-0.6c0.9-0.5,1.8-1,2.7-1.6
				c-0.1,0-0.1,0-0.2,0.1c-0.4,0.2-0.8,0.2-1,0.1c-0.2,0-0.4-0.2-0.5-0.5c0-0.2,0.1-0.5,0.4-0.5c2-0.4,3.5-1.5,4.5-3.3c0,0,0,0,0,0
				c-2.7-0.2-5.4,0.1-7.9,0.9c-0.1,0-0.5,0.4-0.7,1c-0.2,0.4-0.3,0.9-0.4,1.4c-0.1,0.4-0.2,0.9-0.3,1.3c-0.8,2.5-2.5,4.4-5.1,5.9
				c-0.2,0.1-0.5,0.1-0.7-0.2c-0.1-0.2-0.1-0.5,0.1-0.7l0.2-0.2c0.2-0.1,0.3-0.2,0.5-0.3c0.2-0.2,0.4-0.4,0.6-0.6
				c2-1.8,3-3.8,3.2-6.2c0-0.3,0.1-0.5,0.2-0.8c-5.5,2.1-9.9,5.1-13.2,9.3c-0.1,0.1-0.2,0.2-0.4,0.2c-0.1,0-0.3-0.1-0.4-0.2
				l-0.1-0.2c-0.2-0.2-0.2-0.5,0-0.7c0.3-0.3,0.6-0.7,0.8-1.1c0.6-0.8,1.2-1.6,1.9-2.3c3.2-3.6,7.2-6.4,11.8-8.4
				c1.3-0.5,2.7-0.9,4-1.3c0.6-0.2,1.3-0.4,1.9-0.5c0.2,0,0.3-0.1,0.4-0.2l0.2-0.1c0.1,0,0.1,0,0.2,0c0-0.1,0.1-0.2,0.2-0.2
				c0.1,0,0.1-0.1,0.2-0.1c0.1-0.1,0.3-0.2,0.4-0.3c0.5-0.3,0.9-0.7,1.5-0.8c0.7-0.2,1.6-0.2,2.7-0.1c1.3,0.1,2.1-0.5,2.2-1.9l0-0.4
				c0.2-1.1,0.3-2.3,0.6-3.4c0.4-1.4,1.2-2.7,2.4-3.9c-1.1,0-2.2,0.1-3.2,0.3c-0.2,0-0.4,0.1-0.6,0.1c0,0.2-0.1,0.4-0.1,0.6
				c-0.1,0.7-0.2,1.4-0.4,2c-0.3,0.9-0.9,1.7-1.8,2.1c-0.4,0.2-0.5,0.4-0.5,0.9c0,1-0.3,1.9-0.8,2.5c-0.1,0.2-0.4,0.2-0.6,0.1
				c-0.2-0.1-0.3-0.3-0.3-0.5l0.4-2.2c-1.5,0.7-2.6,2-3.7,4.1c-0.1,0.2-0.4,0.3-0.6,0.2c-0.2-0.1-0.4-0.4-0.3-0.6
				c0.5-1.7,1.3-3,2.4-4c0.7-0.6,1.5-1.1,2.4-1.5c1.3-0.6,2.1-1.8,2-3.4c-5.3,1.6-9.7,4.5-13.4,9c-0.2,0.2-0.5,0.2-0.7,0.1
				c-0.2-0.2-0.3-0.5-0.1-0.7c0.2-0.3,0.4-0.5,0.6-0.8c0.4-0.6,0.8-1.2,1.3-1.7c3-3.5,6.6-6.2,10.9-8c4-1.7,8.1-2.1,12.2-1.3
				c3.7,0.7,6.7-0.6,9.1-4.1c1.1-1.6,1.9-3.4,2.3-5.3c0.1-0.5,0.1-1,0.1-1.5c0-0.3,0-0.6,0-0.8l0.1-2l1,0l-0.1,2c0,0.3,0,0.5,0,0.8
				c0,0.6,0,1.1-0.1,1.7c-0.4,2-1.2,3.9-2.4,5.6c-2.7,3.8-6.1,5.3-10.1,4.5c-3.9-0.7-7.8-0.3-11.6,1.2c-1.7,0.7-3.4,1.6-4.9,2.6
				c1.9-1.1,4-1.9,6.2-2.5c0.1,0,0.3,0,0.4,0.1c0.1,0.1,0.2,0.1,0.2,0.2c0,0,0-0.1,0-0.1c0-0.2,0.2-0.4,0.4-0.4c0.3,0,0.6-0.1,1-0.1
				c1.5-0.2,3-0.5,4.7-0.2c0.2,0,0.3,0.2,0.4,0.4c0,0.2,0,0.4-0.2,0.5c-1.6,1.3-2.5,2.6-2.9,4.1c-0.3,1-0.4,2.2-0.6,3.2l0,0.4
				c-0.1,1-0.6,1.8-1.2,2.3c0.1,0,0.2,0.1,0.3,0.2c0.1,0.1,0.1,0.2,0.1,0.4c-0.1,1.2-0.5,1.4-1.5,1.4c-1,0-2.1,0.1-3.1,0.1
				c-0.6,0-1.2,0.1-1.8,0.1c-0.2,0-0.5,0-0.7-0.1c0,0-0.1,0-0.1,0l-0.1,0c-0.2,0.1-0.4,0.2-0.6,0.2c-0.6,0.2-1.3,0.4-1.9,0.6
				c-1.3,0.4-2.6,0.7-3.9,1.3c-3.1,1.3-5.9,3-8.4,5.1c2.4-1.6,5.1-3,8.2-4c0.2-0.1,0.4,0,0.5,0.1c0.1,0.1,0.1,0.1,0.1,0.2
				c0.2-0.3,0.5-0.6,0.8-0.7c2.7-0.8,5.5-1.1,8.3-0.9c0.2,0,0.4,0,0.6,0.1l0.2,0c0.2,0,0.3,0.1,0.4,0.3c0,0.1,0,0.1,0.1,0.2
				c0.1,0,0.2,0,0.2,0.1c0.2,0.1,0.3,0.4,0.2,0.6c-0.5,1.1-1.3,2-2.1,2.7c-0.1,0.1-0.3,0.3-0.4,0.4c1.1-0.8,2.1-1.8,3.1-3
				c0.8-1,1.2-1.1,2.2-0.4c0.1,0,0.1,0,0.2,0l4.9,1.3c0.1,0,0.2,0.1,0.3,0.2c0.1,0.1,0.1,0.3,0,0.4c-0.4,1.2-1.1,2.3-2.1,3.2
				c-1.5,1.5-3.4,2.1-5.7,1.9c-2.5-0.2-4.9,0.1-7,1c-2.3,1-4.4,2.3-6.2,3.9c0.9-0.6,1.9-1.2,2.9-1.7c3.5-1.7,6.7-2.1,9.7-1.3
				c0.2,0,0.3,0.2,0.4,0.3c0,0.1,0,0.2,0,0.3l0,0c0.3-0.2,0.7-0.4,1.2-0.4c0.5-0.1,1-0.1,1.5-0.1c0.6,0,1.1-0.1,1.7-0.2
				c0.5-0.1,0.9-0.3,1.3-0.4c0.2-0.1,0.3-0.1,0.5-0.2c0.2-0.1,0.5,0,0.6,0.2c0.1,0.2,0.1,0.4-0.1,0.6l-1,1c-1,1.1-2.1,2.3-3.2,3.4
				c-0.2,0.2-0.5,0.4-0.7,0.5c-0.6,0.3-1,0.6-1.5,0.8c-1.1,0.6-2.2,1.2-3.2,1.8c-0.3,0.2-0.5,0.3-0.9,0.3c0,0.1-0.1,0.1-0.1,0.1
				l-1.4,1.4c-1.2,1.2-2.3,2.3-3.4,3.5c-0.6,0.6-1.1,1-2,1c-0.1,0-0.2,0-0.3,0c0.2,0,0.4,0.1,0.5,0.1c0.1,0.1,0.3,0.2,0.3,0.3
				c0,0.1,0,0.3-0.1,0.4c-0.7,1-1.4,2.1-2,3.1c2.9-4.1,6.7-7.5,11.2-10.1c0.2-0.1,0.4-0.1,0.6,0.1c0.1,0.1,0.1,0.2,0.1,0.3
				c0-0.1,0.1-0.1,0.1-0.2c0.1-0.2,0.5-0.8,1-1c1.2-0.4,2.4-0.8,3.6-1.1c0.7-0.2,1.3-0.3,2-0.4c0.3,0,0.6-0.1,0.9-0.2
				c0.1,0,0.3,0,0.4,0.1c0.1,0.1,0.2,0.2,0.2,0.4c0,3.4-1.9,6.4-4.9,7.5c-1.6,0.6-3.1,1.5-4.4,2.8c-0.8,0.7-1.5,1.5-2.1,2.4
				c1.6-1.9,3.4-3.2,5.5-4c1.4-0.6,2.5-1.1,3.5-1.6c0.3-0.2,0.7-0.3,1.1-0.2c-0.1-0.1-0.1-0.2-0.1-0.3c0-0.1,0-0.3,0.1-0.4
				c1.6-1.7,2.5-3.8,2.7-6.4c0.1-0.6,0.3-1,0.8-1.3c0.8-0.5,1.7-1.1,2.5-1.6l0.7-0.5c0.2-0.1,0.4-0.3,0.6-0.4l0.3-0.3
				c0.1-0.1,0.3-0.1,0.5-0.1c0.2,0.1,0.3,0.2,0.3,0.4c0.3,1.4,0.2,2.7-0.5,4c0.7-1.1,1-2.3,0.8-3.6c0-0.2,0-0.6,0.2-0.8
				c0.5-0.5,1-1,1.6-1.5l0.5-0.5c0.1-0.1,0.1-0.1,0.2-0.1c0.2-1.6,0.4-1.8,2.1-2l0.2,0.5l0-0.5c1.3-0.1,2,0.5,2.1,1.9
				c0.3,2.3,0.7,5,1.6,7.7c0.1,0.4-0.1,0.9-0.4,1.2c-2.1,2-3.8,4.2-5.1,6.6c-0.4,0.7-0.9,1.2-1.7,1.5c0.1,0,0.2,0.1,0.3,0.1l0.2,0.2
				c0.2,0.2,0.2,0.4,0.1,0.6L59.8,77c0.1,0.1,0.1,0.3,0.1,0.4c-0.2,0.6-0.3,1.2-0.5,1.8c-0.2,0.7-0.4,1.3-0.5,2c0.7-2,1.5-4,2.6-6
				c0.6-1.1,1.6-1.3,2.4-1.4l0.3-0.1c0.2,0,0.4,0,0.5,0.2c0.3-0.5,0.7-0.5,1.2-0.6c0.8-0.1,1.7-0.3,2.5-0.5c0.1,0,0.2-0.1,0.4-0.2
				c0.1-0.1,0.2-0.1,0.3-0.2c0.2-0.1,0.4-0.1,0.6,0.1c0.2,0.1,0.2,0.4,0.1,0.6c-0.1,0.1-0.1,0.2-0.2,0.4c0,0,0,0,0,0
				c0.2,0.1,0.4,0.3,0.4,0.5l0,2.9c0,2.6,0,5.1,0,7.7c0,0.9-0.3,1.4-1.1,1.7c0.1,0,0.3,0,0.4,0c0.3,0,0.5,0.2,0.5,0.5
				c0,0.2,0,0.3,0,0.4l-0.1,0.8c-0.1,1.7-0.3,3.4-0.5,5c0,0.4-0.4,0.7-0.7,0.9c-0.2,0.1-0.5,0.2-0.7,0.4c0.2-0.1,0.4-0.1,0.6-0.2
				c0.2,0,0.3,0,0.4,0.1c0.1,0.1,0.2,0.3,0.2,0.4c-0.4,3.4-1,6.6-1.6,9.7c0,0,0-0.1,0-0.1c0.6-1.8,1.1-3.6,1.7-5.5
				c0.2-0.8,0.5-1.7,0.7-2.5c0.1-0.2,0.2-0.3,0.4-0.3c0,0,0,0,0,0c-0.1-0.3-0.2-0.8-0.1-1.3c0.4-1.7,0.8-3.5,1.1-5.2l0.3-1.2
				c0.2-0.8,0.3-1.7,0.5-2.5l0.2-1.2c0-0.2,0.2-0.4,0.4-0.4c-0.1-0.8-0.1-1.6,0-2.4c0.4-3.7,0.8-4.3,1.1-4.5
				c0.1-0.1,0.2-0.1,0.3-0.1c0.1-0.2,0.1-0.3,0.2-0.4c0.4-0.5,1-0.8,1.8-0.8c0.6,0,1.1-0.3,1.4-0.8c0.4-0.6,0.8-0.6,1.2-0.5
				c0.3,0.1,0.4,0.1,0.6,0.1c0.4,0.1,0.8,0.2,1.2,0.2c0.4,0,0.8,0.2,1,0.5c0.2,0.3,0.3,0.6,0.3,1.1c0,0.2,0,0.4,0,0.6c0,0,0,0,0,0
				c0.1,0,0.3,0,0.4,0.1c-0.1-0.5-0.1-1-0.1-1.5c0-0.2,0.2-0.4,0.4-0.4c0.1,0,0.2,0,0.3,0c3.6,0.5,7.1,2.1,10.8,4.8
				c0.3,0.2,0.5,0.5,0.6,0.8c0,0,0.1,0,0.1,0c0.2,0,0.3,0,0.5,0.1c3,2.7,5.5,5.5,7.4,8.6c-0.5-1-1.1-2-1.7-3
				c-5.1-8.2-11.3-12.9-19-14.5c-0.2,0-0.4-0.3-0.4-0.5l0.3-5.8c0-0.2,0.2-0.4,0.4-0.5c0,0,0.1,0,0.1,0c-0.3-1.7-0.2-2.8,0.3-3.7
				c0.1-0.1,0.1-0.2,0.3-0.2c-0.1-0.5,0-1.1,0.4-1.8c0,0,0-0.2,0-0.2c0.4-2-0.2-3.7-1.7-5.1c-0.5-0.4-0.9-1-0.3-2.1
				c0.1-0.2,0.4-0.3,0.6-0.2l0.8,0.3c0.8,0.3,1.7,0.7,2.5,1.1c0.1,0.1,0.2,0.2,0.3,0.3c0.2,0,0.3,0,0.5,0.1c0.2,0.1,0.3,0.3,0.4,0.4
				c0.4,0.3,0.7,0.6,1.1,1C87,55,87.1,55.6,87,56c0.1-0.1,0.2-0.2,0.4-0.2c0.2,0,0.3,0.1,0.4,0.2c1.1,1.7,1.6,3.1,1.9,5
				c0.5,3.5,1.5,6.7,3.2,9.5c1.4,2.3,3,4.4,4.8,6.2c-0.5-0.5-0.9-1.1-1.4-1.7c-3.1-4-4.9-8.4-5.3-13.3c0-0.2,0-0.3,0.2-0.4
				c0,0,0,0,0.1-0.1c-0.2-0.3-0.4-0.6-0.4-1.1c-0.1-0.8-0.2-1.4-0.4-2c-0.3-1-0.7-1.9-1.1-2.9c-0.2-0.4-0.3-0.8-0.5-1.2
				c-0.1-0.2,0-0.4,0.1-0.6c0.2-0.1,0.4-0.2,0.6-0.1c0.3,0.2,0.7,0.4,1.1,0.6c0.8,0.4,1.7,0.9,2.5,1.5c1.1,0.9,2.1,2,3,3.2
				c0.7,1,1.3,2.1,1.8,3.5c0-0.4,0-0.9,0.1-1.3c0.1-0.5,0.3-0.9,0.4-1.3c0.1-0.2,0.1-0.4,0.2-0.5c0-0.1,0.1-0.2,0.3-0.3
				c0.1-0.1,0.3-0.1,0.4,0l0.2,0.1c0.2,0.1,0.3,0.2,0.3,0.4c0.4,6.7,4.4,12.5,8.5,15.7c-3-2.9-5.2-6.6-6.5-11.1c0-0.2,0-0.3,0.1-0.5
				s0.3-0.2,0.5-0.2c0.3,0,0.5,0.1,0.8,0.1c0.5,0.1,1.1,0.2,1.6,0.2c0.3,0,0.5,0,0.7,0.1c0,0,0,0,0,0c-0.3-0.2-0.4-0.5-0.6-0.8
				c-0.8-1.9-1.6-3.8-2.4-5.4c-0.1-0.3-0.3-0.6-0.5-1c-0.1-0.2-0.2-0.3-0.3-0.5c-0.1-0.2-0.1-0.3,0-0.5c0-0.1,0.1-0.1,0.1-0.2
				c-0.6-0.1-1-0.4-1.2-0.9c-0.7-1.5-1.6-2.9-2.7-4.1c-0.1-0.2-0.2-0.4-0.1-0.6c0.1-0.2,0.3-0.3,0.5-0.3c0.2,0,0.5,0,0.7,0
				c0.6,0,1.1,0.1,1.7,0.2c0.7,0.1,1.5,0.3,2.2,0.5c0.5,0.1,1,0.2,1.4,0.3c0.9,0.2,0.9,0.9,0.9,1.2c0-0.2,0.1-0.3,0.1-0.5
				c0-0.1,0.2-0.2,0.3-0.3c0.1-0.1,0.3,0,0.4,0c0.5,0.2,1,0.5,1.4,0.7c1.1,0.5,2.2,1.1,3.3,1.7c1.6,1,3.1,2,4.5,3.2
				c0.1,0.1,0.3,0.2,0.4,0.3c-2.1-2.1-4.5-3.9-7.3-5.5c-0.6-0.3-1-0.8-1.3-1.3c-0.6-1-1.3-2.1-2.1-3.1c-2.5-2.9-5.2-4.7-8.3-5.3
				c-0.8-0.2-1.5-0.2-2.3-0.3c-0.4,0-0.8-0.1-1.2-0.1c-2.4-0.3-4.6-2.4-5.2-5c0-0.1,0-0.3,0.1-0.4c0.1-0.1,0.2-0.2,0.3-0.2l1.5-0.3
				c1.1-0.2,2.3-0.4,3.4-0.7c0.9-0.2,1.5-0.2,2,0.1c0.1-0.1,0.2-0.2,0.3-0.2c0.1,0,0.2-0.1,0.3-0.1c2.1,0,4.2,0.4,6.6,1.2
				c0.5,0.2,1,0.5,1.3,0.9c0,0,0.1-0.1,0.1-0.1c0.1-0.1,0.3-0.1,0.5-0.1c1.8,0.8,3.4,1.7,4.9,2.8c-3.1-2.7-6.6-4.6-10.2-5.7
				c-2.7-0.7-5.3-0.9-7.8-0.5c-3.2,0.5-6-0.4-8.2-2.7c-1.3-1.3-2.3-3-3.2-5.3l-0.2-0.4c-0.4-1-0.8-1.9-0.7-2.9
				c0-1.7,0.1-3.4,0.1-5.2l1,0C80,18.3,80,20,80,21.7c0,0.8,0.3,1.7,0.7,2.6l0.2,0.4c0.8,2.2,1.8,3.7,3,4.9c2,2,4.4,2.8,7.3,2.4
				c2.7-0.4,5.4-0.2,8.2,0.6c3.9,1.1,7.5,3.1,10.7,6c2.1,1.9,3.8,3.8,5.1,6.1c0.1,0.1,0.2,0.3,0.2,0.5c0.1,0.1,0,0.3,0,0.4l0,0.1
				c0,0.2-0.1,0.4-0.3,0.5c-0.2,0.1-0.4,0-0.6-0.2c-2.5-3.5-5.8-6.2-9.8-8.2c0,0.1,0,0.2,0,0.3c0.1,0.9,0.2,1.7,0.4,2.5
				c0.2,0.7,0.6,1.5,1,2.2c0.2,0.3,0.4,0.7,0.5,1.1c0.1,0.2,0,0.5-0.2,0.6c-0.2,0.1-0.5,0.1-0.6-0.1c-1.3-1.4-2.1-2.9-2.3-4.6
				l-0.1-0.6c-0.1-0.4-0.1-0.7-0.2-1.1c-0.1-0.8-0.5-1.2-1.1-1.4c-2.1-0.7-4-1.1-5.8-1.1c0.5,1,1.2,2,2.2,2.6
				c0.2,0.1,0.3,0.4,0.2,0.6c-0.1,0.2-0.4,0.3-0.6,0.3c-1.1-0.4-2-1.2-2.6-2.3c-0.7-1.3-0.9-1.3-2.1-1.1c-1.1,0.2-2.3,0.4-3.4,0.7
				l-0.9,0.2c0.6,2,2.3,3.5,4.2,3.7c0.4,0,0.8,0.1,1.2,0.1c0.8,0.1,1.6,0.1,2.5,0.3c3.3,0.7,6.2,2.5,8.9,5.6c0.9,1,1.6,2.2,2.2,3.2
				c0.2,0.4,0.5,0.7,1,1c6.1,3.6,10.5,8.2,13.6,14.1c0,0.1,0.1,0.1,0.1,0.2c0.1,0.2,0,0.5-0.2,0.6c-0.2,0.1-0.5,0.1-0.6-0.1
				c-0.3-0.5-0.7-0.9-1-1.4c-0.7-1-1.5-2-2.3-2.9c-1.2-1.3-2.5-2.6-3.8-3.7c-1.3-1.1-2.8-2.1-4.4-3.1c-1-0.6-2.1-1.1-3.2-1.7
				c-0.3-0.1-0.6-0.3-0.9-0.4c-0.4,1.9,0.4,3.8,2,4.6c2.2,1.1,3.8,2.9,4.9,5.7c0.1,0.2,0.2,0.5,0.3,0.8l0.2,0.5
				c0.1,0.2,0,0.5-0.3,0.6c-0.2,0.1-0.5,0-0.6-0.2c-0.2-0.4-0.5-0.8-0.7-1.2c-0.5-0.8-0.9-1.6-1.4-2.3c-0.6-0.9-1.3-1.5-2.2-2
				c-0.2,1.2,0,2.1,0.4,2.9c0,0,0,0.1,0.1,0.2l1.5,1.3c0.2,0.2,0.2,0.4,0.1,0.6c-0.1,0.2-0.4,0.3-0.6,0.2c-1.8-0.8-3.1-1.9-4-3.3
				c-0.5-0.8-0.8-1.7-1.2-2.5c-0.4-0.9-0.9-1.5-1.7-1.7c0.1,0.2,0.3,0.5,0.4,0.7c0.7,1.6,1.6,3.5,2.4,5.4c0.1,0.3,0.2,0.4,0.5,0.4
				c2,0.2,3.7,1.2,5,2.9c0.2,0.2,0.1,0.5-0.1,0.7c-0.2,0.2-0.5,0.2-0.7,0c-1.4-1.3-2.7-2-4.1-2l0.8,4.7c0,0.1,0,0.3-0.1,0.4
				s-0.2,0.2-0.4,0.2c-0.2,0-0.5-0.1-0.6-0.4l-0.3-1.3c-0.3-1.1-0.5-2.2-0.8-3.3c0-0.2-0.1-0.2-0.1-0.2c0,0-0.1,0-0.2,0
				c0,0,0,0-0.1,0c-0.6,0-1.1-0.1-1.6-0.2c1.9,5.8,5.4,10.2,10.3,13.1c0.2,0.1,0.3,0.4,0.2,0.6c-0.1,0.2-0.3,0.4-0.6,0.3
				c-3.7-0.9-8.6-4.8-11.6-10.3c0.3,1.6,0.2,3.4-0.1,5.4c0,0.2-0.2,0.4-0.3,0.5c-0.2,0.1-0.4,0.2-0.6,0c-0.2-0.1-0.3-0.3-0.2-0.5
				c0.4-2.6,0.2-4.8-0.7-6.8l0,0.3c0,0.3-0.2,0.5-0.4,0.5c-0.3,0-0.5-0.1-0.6-0.4c-0.1-0.4-0.2-0.8-0.3-1.3
				c-0.2-0.9-0.5-1.9-0.8-2.8c-0.6-1.5-1.2-2.8-2-3.8c-0.8-1.2-1.7-2.2-2.8-3c-0.7-0.5-1.4-1-2.2-1.4c0.4,1,0.8,1.9,1.1,2.9
				c0.2,0.7,0.4,1.4,0.4,2.3c0,0.5,0.2,0.6,0.5,0.6c1.4,0.3,2.4,1.2,3.2,2.7c0.1,0.2,0,0.5-0.1,0.6c-0.2,0.1-0.5,0.1-0.6,0
				c-0.2-0.1-0.3-0.3-0.5-0.5c-0.3-0.3-0.7-0.6-1-0.8c-0.3-0.2-0.7-0.3-1.2-0.4c0,0,0,0,0,0c0.6,4.4,2.2,8.3,5.1,12
				c2.9,3.8,6.2,6.4,10.1,8.1c0.2,0.1,0.4,0.4,0.3,0.6c-0.1,0.2-0.4,0.4-0.6,0.3l-0.4-0.1c-0.3-0.1-0.6-0.2-0.9-0.3
				c-0.4-0.1-0.9-0.3-1.3-0.5C99.2,80,95,76.2,92,71.1c-1.7-2.9-2.8-6.2-3.3-9.9c-0.2-1.5-0.6-2.7-1.4-4c-0.9,1.4-1.2,2.7-1,4.2
				c0,0.3-0.1,0.5-0.4,0.6c-0.3,0.1-0.5-0.1-0.6-0.3c-0.4-1.2-0.5-2.4-0.1-3.6c0.1-0.4,0.2-0.7,0.4-1.1c0.1-0.4,0.3-0.7,0.4-1.1
				c0-0.1,0-0.3,0-0.4c-0.2-0.2-0.5-0.5-0.7-0.7l-0.3,1.8c0,0.1-0.1,0.3-0.2,0.3c-0.1,0.1-0.3,0.1-0.4,0.1l-0.1,0
				c-0.2-0.1-0.4-0.3-0.4-0.5l0.1-0.6c0.1-0.5,0.1-1.1,0.1-1.6c0,0,0-0.2-0.1-0.2c-0.8-0.4-1.6-0.7-2.4-1l-0.3-0.1
				c0,0.2,0.1,0.3,0.3,0.4c1.8,1.6,2.5,3.7,2,6c0,0.2-0.1,0.4-0.2,0.5c-0.4,0.6-0.3,1.2,0.3,2.1l0.3,0.4c0.4,0.6,0.9,1.1,1.2,1.8
				c0.1,0.2,0,0.5-0.2,0.6c-0.2,0.1-0.5,0.1-0.7-0.1l-1.9-2.2c-0.3,1.2,0,2.9,0.9,5.8c0.1,0.2,0,0.5-0.3,0.6c-0.2,0.1-0.5,0-0.6-0.2
				l-0.2-0.4c-0.1-0.2-0.2-0.4-0.4-0.6l-0.1,3.2c7.8,1.7,14.1,6.6,19.3,14.8c2.5,4.1,4.1,8,4.7,11.9c0,0.3-0.1,0.5-0.4,0.6
				c-0.3,0.1-0.5-0.1-0.6-0.3c-1.9-6.1-5.3-11.3-10.4-15.9c-0.2,0.9,0,1.9,0.6,3c0.1,0.2,0.1,0.5-0.2,0.6c-0.2,0.1-0.5,0.1-0.7-0.1
				c-1.1-1.2-1.5-2.6-1.3-4.3c0.1-0.4,0-0.5-0.2-0.7c-3.4-2.5-6.6-4-9.9-4.6c0.1,1.4,1.1,3.4,2.7,3.6c2.8,0.4,5.2,1.9,7,4.6
				c0.1,0.1,0.1,0.2,0.2,0.4l0.1,0.2c0.1,0.2,0.1,0.5-0.1,0.6c-0.2,0.1-0.5,0.1-0.7,0c-0.3-0.3-0.5-0.5-0.8-0.8
				c-0.6-0.6-1.1-1.1-1.7-1.6c-1.1-0.9-2.3-1.4-3.6-1.6c-1.3-0.1-2.4-0.5-3.2-1.3c0,0.1-0.1,0.2-0.2,0.3c-0.2,0.1-0.4,0.1-0.6,0
				c-0.8-0.6-1.4-2-1.4-3.3c0-0.3,0-0.6,0-0.9c0-0.3,0-0.4,0-0.4c0,0-0.1-0.1-0.3-0.1c-0.5,0-0.9-0.2-1.4-0.3
				c-0.2,0-0.3-0.1-0.5-0.1c0,0-0.1,0-0.1,0c0,0,0,0,0,0c0,0,0,0,0,0.1c-0.5,0.8-1.3,1.2-2.2,1.3c-0.5,0-0.9,0.1-1.1,0.4
				c-0.2,0.3-0.2,0.7,0,1.4c0.3,0.8,0.6,1.7,0.8,2.5c0.1,0.4,0.3,0.7,0.4,1.1c0.1,0.2,0,0.5-0.2,0.6c-0.2,0.1-0.5,0.1-0.6-0.1
				c-0.7-0.9-1.1-1.9-1.5-3c-0.1,0.5-0.2,1.3-0.3,2.2c-0.1,1,0,2,0.2,3.1c0,0.4,0.1,0.8,0.1,1.2c0,0.3-0.1,0.5-0.4,0.5
				c-0.2,0.1-0.5-0.1-0.6-0.3c-0.1,0.7-0.3,1.4-0.4,2.1l-0.3,1.2c-0.4,1.7-0.7,3.5-1.1,5.3c-0.1,0.5,0,0.7,0.2,1.1
				c1.9,2.7,1.9,7.3,1.1,9.4c-0.1,0.2-0.3,0.4-0.6,0.3c-0.2,0-0.4-0.3-0.4-0.5c0-0.4,0-0.8,0-1.2c0-1,0-2.1,0-3.2
				c-0.1-1.1-0.4-2.1-1-3.2c-0.1,0.5-0.3,1-0.4,1.5c-0.6,1.9-1.1,3.7-1.7,5.6c-0.9,2.7-2,5.3-3,7.8
				C65.2,112.2,65.1,112.3,64.9,112.3z M60.3,74.2c-0.3,0.2-0.6,0.4-0.8,0.7c-0.5,0.6-0.7,1.4-0.9,2.2L60.3,74.2z M98.9,61.2
				c-0.2,0.9,0,1.9,0.7,2.9C99.3,63.1,99,62.1,98.9,61.2z M105.8,57.1c0,0.1,0.1,0.2,0.1,0.3l0.1,0.4c0.2,0.7,0.5,1.3,0.8,1.9
				c0-0.3,0-0.6,0-1c0.1-0.6,0-0.8-0.3-1.1C106.3,57.5,106,57.3,105.8,57.1z M60.7,58.8C60.7,58.8,60.7,58.8,60.7,58.8
				C60.7,58.8,60.7,58.8,60.7,58.8z M99.2,50.5c0.8,1,1.5,2.2,2.1,3.4c0.1,0.2,0.2,0.4,0.6,0.4c1.1,0.1,1.9,0.4,2.6,1
				c-0.4-1-0.6-2.2-0.4-3.7c0-0.1,0-0.2,0-0.2c0,0,0,0-0.1,0c-0.5-0.1-1-0.2-1.5-0.3c-0.7-0.2-1.4-0.3-2.2-0.5
				C100,50.6,99.6,50.6,99.2,50.5z M84,53.9C84,53.9,84,53.9,84,53.9C84,53.9,84,53.9,84,53.9z M42.8,43.8c-0.5,0-1.1,0.1-1.6,0.3
				c0.3,0,0.6,0,0.9,0c0.7,0,1.3-0.1,2-0.1c0,0-0.1,0-0.1,0C43.6,43.8,43.2,43.8,42.8,43.8z"/>
		</defs>
		<clipPath id="SVGID_10_">
			<use xlink:href="#SVGID_133_"  style="overflow:visible;"/>
		</clipPath>
		<g class="st2">
			
				<image style="overflow:visible;" width="232" height="212" xlink:href="5A0454CEDB60F4AE.jpg"  transform="matrix(0.48 0 0 -0.48 15.3578 114.9342)">
			</image>
		</g>
	</g>
	<path class="st4" d="M122,65c0-0.1,0-0.1-0.1-0.2c-3.2-6.2-7.8-10.6-13.4-13.9c-0.5-0.3-0.8-0.6-1.2-1.1c-0.6-1.1-1.3-2.2-2.1-3.2
		c-2.3-2.8-5.1-4.8-8.6-5.5c-1.2-0.2-2.4-0.3-3.6-0.4c-2.2-0.3-4.2-2.2-4.7-4.6c1.6-0.3,3.3-0.6,4.9-0.9c1.5-0.3,1.8-0.1,2.7,1.4
		c0.5,1,1.3,1.7,2.3,2c-1.3-0.8-2-2.1-2.7-3.5c0.1,0,0.1-0.1,0.2-0.1c2.2,0,4.4,0.5,6.5,1.2c0.9,0.3,1.3,0.9,1.5,1.8
		c0.1,0.6,0.2,1.1,0.3,1.7c0.3,1.7,1.1,3.1,2.2,4.3c-0.6-1.2-1.2-2.2-1.5-3.3c-0.4-1.2-0.4-2.5-0.6-3.7c4.3,1.9,7.9,4.7,10.8,8.7
		c0-0.2,0-0.2,0-0.3c-0.1-0.1-0.1-0.3-0.2-0.4c-1.4-2.3-3.1-4.2-5-6c-3.1-2.8-6.6-4.8-10.5-5.9c-2.6-0.7-5.3-1-8-0.5
		c-2.9,0.5-5.6-0.3-7.8-2.5c-1.4-1.4-2.3-3.2-3.1-5.1c-0.4-1-0.9-2.1-0.9-3.2c0-1.7,0.1-3.4,0.1-5.1H66.8c0,0.6-0.1,1.3-0.1,1.9
		c0,0.8,0,1.6-0.1,2.4c-0.4,2-1.2,3.8-2.3,5.5c-2.5,3.5-5.6,5.1-9.6,4.3c-4.1-0.8-8.1-0.3-11.9,1.3c-4.1,1.7-7.7,4.3-10.7,7.8
		c-0.7,0.8-1.2,1.7-1.8,2.5c3.9-4.7,8.6-7.7,14.2-9.3c0.3,2.2-0.6,3.8-2.2,4.5c-0.8,0.3-1.6,0.8-2.3,1.4c-1.1,1-1.8,2.3-2.3,3.7
		c1-2.1,2.4-3.9,4.5-4.6c0.1,0,0.2,0.1,0.2,0.1c-0.2,1-0.4,2-0.5,2.9c0.4-0.5,0.7-1.3,0.7-2.2c0-0.6,0.2-1,0.8-1.3
		c0.7-0.4,1.3-1,1.5-1.8c0.3-0.9,0.4-1.9,0.6-3c1.7-0.2,3.5-0.6,5.5-0.3c-1.5,1.2-2.6,2.5-3.1,4.4c-0.3,1.2-0.5,2.4-0.6,3.7
		c-0.2,1.7-1.3,2.5-2.8,2.4c-0.8-0.1-1.7-0.1-2.5,0.1c-0.7,0.2-1.3,0.8-1.9,1.2c1.3-0.9,2.7-1.1,4.2-0.8c0.7,0.1,1.5,0,2.2,0
		c-0.1,0.9-0.2,1-1,1c-1.6,0-3.3,0.1-4.9,0.2c-0.3,0-0.6-0.1-0.9-0.1c-0.2,0.1-0.5,0.2-0.7,0.3c-1.9,0.6-3.9,1.1-5.8,1.8
		c-4.4,1.8-8.3,4.5-11.6,8.2c-0.9,1.1-1.8,2.2-2.7,3.4c0,0.1,0.1,0.1,0.1,0.2c3.9-4.8,8.7-7.8,14.3-9.7c-0.2,0.7-0.3,1.1-0.4,1.6
		c-0.3,2.7-1.5,4.8-3.3,6.5c-0.2,0.2-0.5,0.4-0.7,0.6c-0.2,0.2-0.5,0.3-0.7,0.5c2.2-1.2,4-3,4.8-5.6c0.3-0.9,0.4-1.9,0.8-2.7
		c0.2-0.5,0.6-1.2,1-1.3c2.6-0.8,5.4-1.1,8.1-0.9c0.3,0,0.5,0.1,0.8,0.1c-1.1,2.4-2.9,3.7-5.2,4.2c0.3,0,0.6,0,0.8-0.1
		c0.9-0.4,1.8-0.8,2.8-1.2c0.7-0.8,1.4-1.7,2.1-2.5c-0.5,1-1.2,1.9-2,2.6C40.4,52,38.7,53,36.9,54c0.4,0,0.7-0.1,1-0.2
		c2.9-1,5.3-2.9,7.3-5.3c0.7-0.8,0.8-0.8,1.7-0.2c0,1.2,0,2.3,0,3.4c0,0,0,0,0.1,0c0-1.1,0.1-2.3,0.1-3.4c1.7,0.5,3.3,0.9,4.9,1.3
		c-0.4,1.2-1.1,2.2-2,3c-1.5,1.5-3.3,1.9-5.3,1.7c-2.5-0.2-4.9,0-7.2,1c-4.2,1.7-7.6,4.5-10.1,8.5c-0.2,0.3-0.3,0.6-0.5,1
		c2.1-2.7,4.7-4.9,7.7-6.3c3-1.4,6.1-2.1,9.4-1.3c-0.3,0.3-0.6,0.6-1,0.7c-1.1,0.2-2,0.9-2.6,1.9c-0.1,0.1-0.1,0.3-0.2,0.5
		c0.8-1,1.8-1.6,3.1-1.7c0.4,0,0.8-0.4,1.2-0.7c0.4-0.2,0.8-0.4,1.2-0.5c1.1-0.1,2.1-0.1,3.2-0.3c0.7-0.1,1.4-0.4,1.8-0.6
		c-1.3,1.4-2.7,2.9-4.2,4.5c-0.2,0.2-0.4,0.3-0.6,0.4c-1.6,0.9-3.1,1.7-4.7,2.6c-0.4,0.3-0.7,0.3-1.1-0.1c-0.9-0.8-2-1.1-3.2-0.9
		c1.3,0,2.4,0.4,3.2,1.4c-1.6,1.7-3.2,3.3-4.8,4.9c-0.5,0.5-0.9,0.8-1.7,0.8c-2,0-3.6,0.9-4.4,3c-0.8,2.2-2.1,3.9-4,5.1
		c-0.9,0.6-1.9,1-2.9,1.4c0,0,0,0,0.1,0c0.4-0.1,0.8-0.2,1.2-0.3c2.1-0.8,4-2,5.3-4.2c0.4-0.8,0.8-1.6,1.2-2.4
		c0.7-1.2,2.6-1.9,3.6-1.5c-3.2,4.5-5.7,9.3-6.7,15c2.9-9.6,8.4-16.7,16.5-21.3c-0.8,1.7-1.7,3.4-2.1,5.3c0.1-0.1,0.2-0.2,0.2-0.3
		c1-1.7,1.9-3.4,2.9-5.1c0.2-0.3,0.5-0.6,0.8-0.7c1.2-0.4,2.4-0.8,3.6-1.1c0.9-0.2,1.9-0.4,2.8-0.5c0,3.2-1.8,6-4.5,7
		c-1.7,0.6-3.2,1.6-4.6,2.9c-3,2.8-4.9,6.4-6,10.6c-0.3,1-0.3,2-0.5,3c0.2-0.1,0.2-0.2,0.2-0.3c0.4-2.8,1.5-5.3,3-7.6
		c1.8-2.9,4.1-5.2,7.2-6.5c1.2-0.5,2.4-1,3.6-1.6c0.6-0.3,1-0.3,1.3,0.3c0.2,0.4,0.3,0.9,0.3,1.3c-0.1,1.4,0.3,2.5,1.2,3.5
		c-0.5-0.9-0.9-1.9-0.7-3c0.2-1.2,0.3-2.4-0.8-3.2c1.8-1.9,2.6-4.2,2.8-6.7c0-0.4,0.2-0.7,0.5-0.9c1.1-0.7,2.2-1.4,3.2-2.2
		c0.3-0.2,0.6-0.4,0.9-0.7c0.5,2-0.2,3.4-1.2,4.7c-1.1,1.3-1.9,2.7-2.4,4.3c-0.8,2.5-0.9,5-0.2,7.5c0-0.2,0-0.4,0-0.6
		c-0.5-4.1,0.5-7.5,3.2-10.4c1.4-1.5,2.2-3.1,2-5.3c0-0.1,0-0.3,0.1-0.4c0.6-0.7,1.3-1.3,2-2c-0.3,0.7-0.5,1.3-0.8,1.9
		c0.6-0.6,1-1.3,1.1-2.1c0.2-1.6,0.2-1.6,1.7-1.7c0,0,0.1,0,0.1,0c1-0.1,1.5,0.4,1.6,1.5c0.3,2.6,0.8,5.3,1.7,7.8
		c0.1,0.2-0.1,0.5-0.2,0.6c-2,2-3.8,4.2-5.2,6.7c-0.4,0.7-0.9,1.1-1.6,1.3c-1.8,0.6-3,2-3.2,4.1c-0.3,2.8-1.6,4.9-3.5,6.6
		c-0.4,0.4-0.9,0.7-1.4,1.1c0.3,0,0.5-0.2,0.7-0.3c2.2-1.5,3.9-3.5,4.6-6.5c0.2-1,0.4-2,1.1-2.8c0.6-0.6,1.2-1.1,2-1.3
		c0.1,0.1,0.1,0.1,0.2,0.2c-1,1.7-1.9,3.3-2.9,5c0,0,0,0,0.1,0c0.3-0.4,0.6-0.8,1-1.2c-0.5,2-1.1,3.8-1.5,5.7
		c-0.4,1.9-0.6,3.9-0.8,5.8c-0.2,1.9-0.1,3.9,0.2,5.8c0.1-0.1,0.1-0.2,0.1-0.4c-0.3-6.8,1.4-13,4.4-18.8c0.5-1,1.5-1.1,2.4-1.2
		c-0.3,0.7-0.6,1.2-0.9,1.8c-0.3,0.6-0.8,1.1-1.1,1.7c-1.1,2.4-1.5,5-0.8,7.7c0-0.2,0-0.5,0-0.7c-0.2-3.1,0.3-5.9,2.4-8.3
		c0.4-0.5,0.8-1.2,1-1.9c0.2-0.6,0.5-0.7,1-0.7c0.9-0.1,1.7-0.3,2.6-0.5c0.3-0.1,0.5-0.3,0.8-0.5c-1.1,2.2-1.6,4.5-1,6.9
		c0-2,0-4,1.2-5.8c0,3.6,0,7.1,0,10.6c0,0.8-0.3,1.1-1,1.3c-1.7,0.4-3.4,1.8-3.6,4.4c-0.1,1.8-0.6,3.5-1.7,4.9
		c-0.7,0.9-1.5,1.8-2.2,2.7c1.1-0.7,1.9-1.6,2.6-2.6c1.2-1.6,1.7-3.4,2-5.4c0.2-1.7,2.1-3.3,3.7-3.2c0,0.1,0,0.2,0,0.4
		c-0.2,1.9-0.3,3.9-0.5,5.8c0,0.2-0.2,0.4-0.4,0.5c-2.2,1-3.8,2.9-3.5,6c0.2,1.9-0.2,3.7-1.2,5.3c-0.4,0.8-0.9,1.5-1.4,2.3
		c1.4-1.3,2.4-3,2.8-4.9c0.3-1.3,0.3-2.7,0.4-4c0.1-1.6,1.5-3.2,3-3.5c-0.8,6-1.9,11.8-3.6,17.5c1.1-2.5,2.1-5.1,3-7.7
		c0.9-2.6,1.6-5.3,2.4-8.1c1,1.3,1.6,2.7,1.7,4.3c0.1,1.5,0,3.1,0,4.4c0.8-2,0.7-6.4-1.1-8.9c-0.3-0.4-0.5-0.8-0.3-1.5
		c0.5-2.1,0.9-4.3,1.4-6.5c0.3-1.2,0.5-2.5,0.7-3.7c0,0,0.1,0,0.1,0c0.2,0.5,0.3,1,0.5,1.5c-0.1-1.5-0.5-2.9-0.3-4.4
		c0.2-2,0.5-3.9,0.9-4.2c0.2,1.8,0.8,3.4,1.8,4.7c-0.4-1.2-0.9-2.3-1.2-3.6c-0.5-1.6,0-2.3,1.5-2.4c0.8,0,1.5-0.4,1.8-1
		c0.3-0.4,0.4-0.3,0.7-0.3c0.6,0.1,1.2,0.3,1.8,0.4c0.6,0.1,0.8,0.4,0.8,1c0,0.3,0,0.6,0,0.9c0,1.2,0.5,2.4,1.2,2.9
		c-0.8-1.9-0.8-1.9-0.6-2.6c0.1,0.1,0.1,0.2,0.1,0.3c0.8,2.1,2.2,3.1,4.2,3.3c1.4,0.1,2.7,0.7,3.8,1.7c0.9,0.7,1.7,1.6,2.5,2.5
		c-0.1-0.2-0.2-0.4-0.3-0.5c-1.7-2.5-3.8-4-6.6-4.4c-2.1-0.3-3.4-2.9-3.1-4.6c0,0,0.1,0,0.1,0c3.9,0.6,7.3,2.4,10.6,4.7
		c0.4,0.3,0.5,0.6,0.4,1.2c-0.2,1.5,0.1,2.8,1.1,3.8c-0.7-1.3-1-2.6-0.4-4.1c5.1,4.5,9,9.9,11.1,16.7c-0.7-4.3-2.4-8.2-4.6-11.7
		c-4.8-7.6-11-13-19.4-14.7c0.1-2,0.2-3.9,0.3-5.8c0.2,0.5,0.4,1.1,0.7,1.6c0.2,0.5,0.5,0.9,0.8,1.4c-1.1-3.7-1.3-5.6-0.6-7
		c0.8,0.9,1.6,1.9,2.4,2.9c-0.4-0.8-1-1.5-1.5-2.2c-0.6-0.8-1-1.6-0.3-2.6c0.1-0.1,0.1-0.2,0.1-0.3c0.5-2.3-0.3-4.1-1.9-5.6
		c-0.4-0.4-0.6-0.7-0.2-1.5c1.1,0.5,2.2,0.9,3.3,1.4c0.1,0.1,0.3,0.4,0.3,0.7c0,0.8-0.1,1.5-0.2,2.3c0,0,0.1,0,0.1,0
		c0.1-0.8,0.3-1.7,0.5-2.6c0.5,0.5,1,0.8,1.5,1.3c0.2,0.2,0.2,0.6,0.1,0.9c-0.2,0.7-0.6,1.5-0.8,2.2c-0.3,1.1-0.3,2.2,0.1,3.3
		c-0.3-2,0.4-3.7,1.6-5.1c1.1,1.7,1.6,3,1.8,4.8c0.5,3.5,1.5,6.7,3.2,9.7c3,5,7,8.8,12,11.2c0.4,0.2,0.8,0.4,1.3,0.5
		c0.4,0.1,0.8,0.3,1.3,0.4c-4.1-1.7-7.5-4.5-10.3-8.2c-2.8-3.7-4.7-7.9-5.2-13c0.8,0.2,1.4,0.3,2,0.6c0.6,0.3,1.1,0.9,1.6,1.3
		c-0.6-1.3-1.5-2.1-2.8-2.4c-0.6-0.1-0.9-0.4-0.9-1.1c-0.1-0.7-0.2-1.5-0.4-2.1c-0.5-1.4-1.1-2.8-1.7-4.2c1.2,0.7,2.4,1.2,3.5,2.1
		c1.1,0.9,2.1,1.9,2.9,3.1c0.8,1.2,1.5,2.6,2,3.9c0.5,1.3,0.8,2.7,1.2,4.1c-0.1-0.8-0.1-1.6-0.2-2.5c2,2.7,2.4,5.7,1.9,9
		c0.1-0.1,0.1-0.1,0.1-0.2c0.6-3.1,0.5-6.1-1.3-8.8c-0.7-1.1-1.1-2.2-0.8-3.5c0.1-0.6,0.4-1.2,0.6-1.8c0.1,0,0.1,0.1,0.2,0.1
		c0.6,9.8,8.5,17.4,13.7,18.6c-5.3-3.2-8.9-8-10.8-14.2c0.8,0.1,1.6,0.4,2.4,0.4c0.5,0,0.7,0.1,0.8,0.6c0.4,1.5,0.8,3.1,1.1,4.6
		c0,0,0,0,0.1,0c-0.3-1.7-0.6-3.5-0.9-5.3c2-0.2,3.6,0.7,5.1,2.1c-1.2-1.6-2.8-2.5-4.7-2.7c-0.5,0-0.7-0.2-0.9-0.7
		c-0.8-1.8-1.6-3.6-2.4-5.4c-0.2-0.5-0.5-1-0.8-1.5c1.5-0.1,2.5,0.7,3.1,2.1c0.3,0.8,0.7,1.7,1.1,2.5c0.9,1.5,2.2,2.4,3.8,3.1
		c-0.6-0.5-1.1-0.9-1.6-1.4c-0.6-0.6-1.3-1.1-1.7-1.8c-0.5-0.8-0.8-1.7-1.1-2.6c-0.6-1.8-1.9-2.6-3.5-2.7c-0.5,0-0.9-0.2-1.1-0.7
		c-0.7-1.5-1.6-2.9-2.8-4.2c0.8,0.1,1.6,0.1,2.4,0.2c1.2,0.2,2.4,0.5,3.7,0.8c0.4,0.1,0.5,0.3,0.5,0.8c-0.2,2.3,0.3,4.2,2.1,5.5
		c0.5,0.4,0.6,0.9,0.6,1.5c-0.1,1.1,0.1,2.2,0.9,3c-0.7-1.2-0.7-2.5-0.3-3.9c1.2,0.5,2.2,1.3,2.9,2.4c0.7,1,1.3,2.2,2.1,3.5
		c-0.2-0.5-0.3-0.9-0.4-1.2c-1-2.4-2.4-4.4-4.7-5.5c-1.9-0.9-2.9-3.4-2.1-5.7c1.6,0.8,3.2,1.5,4.7,2.4c1.5,0.9,3,2,4.4,3.1
		c1.4,1.1,2.7,2.4,3.9,3.8C119.9,62,121,63.5,122,65L122,65z M101.6,57.2c1.3,1.9,2.4,3.9,3.1,6c-1.6,0.3-3.1-1-3.1-2.7
		C101.6,59.5,101.6,58.4,101.6,57.2L101.6,57.2z M51.1,59.7c-0.3,0.1-0.6,0.2-0.9,0.3c-0.3,0.1-0.6,0.1-0.8,0.2c0,0,0-0.1-0.1-0.1
		c0.8-0.6,1.5-1.2,2.3-1.8C52,59.3,51.9,59.5,51.1,59.7L51.1,59.7z M60.5,41.3c-0.3-0.9-0.5-1.7-0.8-2.6c-0.1-0.4-0.1-0.8,0.3-1.1
		c1.1-0.6,2.1-1.2,3.2-1.8c0,0.1,0.1,0.2,0.1,0.2C63.1,37.5,61.7,40.1,60.5,41.3L60.5,41.3z M60,41.3c0.1,0.2-0.1,0.7-0.3,0.9
		c-0.8,0.9-1.8,1.6-3,2.2c0.4-2.3,1-4.4,2.4-5.9C59.4,39.5,59.8,40.4,60,41.3L60,41.3z M60,57.8c0.3-1.2,1.3-2,1.8-3.1
		C61.6,56,61.1,57.1,60,57.8L60,57.8z M53.3,54.6c0.5-0.7,1.2-1.6,1.9-2.6c0.4-0.6,0.8-1.4,1.1-2.1c0.2-0.5,0.5-0.8,1-1
		c0.8-0.2,1.5-0.6,2.5-1c-0.4,1.4-0.7,2.7-1.1,3.9c0,0.1-0.2,0.2-0.3,0.3C56.7,53.1,54.9,53.9,53.3,54.6L53.3,54.6z M53.1,57.4
		c1.1-0.6,2.3-1.2,3.6-1.8c-0.5,1.3-3,3.2-4.4,3.7C52.1,57.9,52.1,57.9,53.1,57.4L53.1,57.4z M49.2,40.1c0.6,0.7,0.5,2.6,0.1,3.4
		c-0.7,1.1-0.9,1.3-1.4,1.2C48.3,43.1,48.7,41.6,49.2,40.1L49.2,40.1z M64.9,30.5c-0.1,0.7-0.1,1.3-0.2,1.8c0,0.2-0.3,0.4-0.5,0.5
		c-2.3,0.6-4.4,1.5-6.2,3.4c-1.3,1.5-2.2,3.2-2.6,5.2c-0.1,0.6-0.3,0.8-0.8,0.8c-1,0.1-1.7,0.6-2.3,1.5c0.8-0.7,1.7-1.2,2.8-0.9
		c0,0.1,0,0.1,0,0.2c-0.4,2.4-0.2,2.3-2.4,2.4c-1.3,0.1-2.5-0.2-3.9-0.4c0.4-0.6,0.8-1.1,1-1.6c0.7-1.3,0.6-2.8,0-4
		c-0.6-1-0.3-1.8,0.2-2.6c1.2-2.1,3.1-3.1,5.3-3.4c0.8-0.1,1.6,0.1,2.5,0.4c-0.6,0.5-1.1,1.1-1.6,1.6c0.8-0.2,1.4-0.8,2-1.5
		c0.1-0.2,0.4-0.4,0.6-0.4C61,33.1,63,32.2,64.9,30.5L64.9,30.5z M65.6,47.8c0.2-0.2,0.3-0.3,0.5-0.5c-0.1,1-0.1,1.9-0.2,2.9
		c0,0.2-0.2,0.4-0.4,0.5c-0.8,0.3-1.6,0.5-2.5,0.8c0.3-1.5,0.6-2.8,0.8-4.1c0-0.2,0.1-0.5,0.1-0.7c0-1.3,0.4-2.5,1.4-3.4
		c0.4-0.4,0.7-0.9,1.1-1.4C67,42.4,66.5,46.2,65.6,47.8L65.6,47.8z M64.4,73.1c-0.5,0.2-1,0.4-1.4,0.6c0,0-0.1-0.1-0.1-0.1
		c0.4-0.6,0.8-1.2,1.3-2C64.2,72.2,64.3,72.7,64.4,73.1L64.4,73.1z M69.1,70.7c0,0.9-0.8,1.3-1.5,1.6c-0.7,0.3-1.6,0.4-2.3,0.7
		c-0.2-0.8-0.4-1.4-0.5-2.1c0-0.1,0-0.2,0.1-0.3c1.2-1.3,2.4-2.6,3.5-4c0.1,0,0.1,0.1,0.2,0.1C68.8,68.1,69.1,69.4,69.1,70.7
		L69.1,70.7z M74.4,72.7c0.8,0.4,1.8,0.9,2.7,1.4c-0.6,1.3-2,0.8-2.6,1.7C74.5,74.8,74.5,73.8,74.4,72.7L74.4,72.7z M73.5,76.7
		c0.1-1,0.2-1.9,0.3-2.9c0.1,0,0.1,0,0.2,0c-0.1,1-0.1,1.9-0.2,2.9C73.8,76.7,73.7,76.7,73.5,76.7L73.5,76.7z M72.7,53.8
		c0.5,0.3,0.9,0.6,1.4,0.8c0.5,0.2,1,0.3,1.6,0.4c-1.1,0.3-2,1-2.6,2.1c0.9-0.8,1.7-1.5,3.1-1.4c-0.8,1.8-1.9,3.2-3.3,4.4
		C72.5,59.2,72.4,55.3,72.7,53.8L72.7,53.8z M73.7,48.7c0.9,1.3,1.8,2.3,2.5,3.5c0.1,0.2,0.1,0.5,0.1,0.8c-0.1,0.4-0.2,0.8-0.3,1.3
		c-0.5-0.1-1.1-0.2-1.6-0.4c-1.3-0.6-1.6-1.3-1.3-2.9C73.3,50.3,73.5,49.6,73.7,48.7L73.7,48.7z M77.4,50.7c-1-1.4-2-2.7-2.9-4.1
		c0.5-1.4,1-2.8,1.6-4.4C77.1,45,77.6,47.8,77.4,50.7L77.4,50.7z M81,71.2c-0.9-0.4-1.9-0.7-2.6-1.2c-1.1-0.7-2.1-1.6-3-2.5
		c-0.3-0.3-0.4-0.8-0.6-1.2c-0.2-0.3-0.3-0.8-0.6-0.9c-0.6-0.5-0.6-1.1-0.7-1.8c0-0.1,0.1-0.3,0.2-0.4c0.9-0.7,1.9-1.5,2.8-2.2
		c0.5,0.4,0.6,1,0.6,1.6c-0.1,1.3,0.3,2.4,1.1,3.4c-0.1-0.3-0.2-0.6-0.2-0.8c-0.5-0.7-0.5-1.5-0.4-2.3c0.2-1,0.1-1.8-0.5-2.6
		c0.3-0.3,0.5-0.7,0.9-1.1c0.6,1.5,0.4,3,0.4,4.4c0.5-1.2,0.4-2.5,0.1-3.7c-0.2-0.9-0.2-1.7,0.5-2.3C80.6,62,81.4,66.4,81,71.2
		L81,71.2z M81.1,56.5c0.3,0.9,0.4,1.9,0.6,2.8c0,0.1-0.1,0.3-0.2,0.5c0,0,0,0,0,0c0,0,0,0,0,0c0,0,0,0,0,0
		c-0.1,0.6-0.1,1.2-0.2,1.8c0,0-0.1,0-0.1,0c-0.2-1.1-0.5-2.1-0.7-3.3c0.4,0.6,0.7,1.1,1.1,1.5c0,0,0,0,0,0
		c-0.4-0.8-0.8-1.5-1.2-2.3c-0.4-0.7-0.7-1.4-0.1-2.3C80.5,55.6,80.9,56,81.1,56.5L81.1,56.5z M88.4,50.1c0.2,0.2,0.4,0.4,0.5,0.6
		c0.6,1.2,1.5,1.9,2.7,2.3c-0.9-0.6-1.8-1.2-2.2-2.5c4.1-0.6,8.5,1.8,9.5,6.6c0,0.2-0.1,0.4-0.2,0.6c-0.5,1-0.9,2.1-1.4,3
		c-0.6-1-1.2-2.3-1.9-3.4c-1.2-1.8-2.8-3.3-4.6-4.2C89.9,52.6,88.4,51.2,88.4,50.1L88.4,50.1z M83.4,47.9c0.9,0.5,1.8,0.9,2.5,1.4
		c0.3,0.2,0.4,0.8,0.6,1.2c0.1,0.2,0.2,0.5,0.3,0.8c-0.8-0.5-1.7-0.9-2.4-1.5C84,49.4,83.8,48.7,83.4,47.9L83.4,47.9z M81.1,45.7
		c0.8,1.2,1.5,2.3,2.2,3.3c0,0-0.1,0.1-0.1,0.1c-0.7-0.2-1.3-0.4-2-0.7C81.2,47.7,81.1,46.8,81.1,45.7L81.1,45.7z M107.3,50.1
		c-0.6-0.2-1-0.4-1.4-0.6c-3.7-1.7-7.5-2.4-11.4-2.2c-0.5,0-1.1-0.5-1.6-0.7c-1.3-0.6-2.6-1.2-3.9-1.8c-3.3-1.4-5.4-3.9-6.2-7.7
		c-0.2-0.9-0.3-1.9-0.5-3c0.9,0.4,1.7,0.8,2.4,1.2c0.1,0.1,0.2,0.3,0.2,0.5c0.8,2.4,2,4.6,4,6c1.3,1,2.8,1.4,4.4,1.4
		c0.4,0,0.7,0,0.8,0.5c0.1,0.3,0.4,0.5,0.7,0.6c0.8,0.4,1.6,0.7,2.4,1.1c-0.4-0.7-1-1.2-1.8-1.5c-0.3-0.1-0.5-0.4-0.9-0.7
		C98.1,42.3,104.3,45.3,107.3,50.1L107.3,50.1z"/>
</g>
</svg>
