<?xml version="1.0" encoding="utf-8"?>
<!-- Generator: Adobe Illustrator 21.0.2, SVG Export Plug-In . SVG Version: 6.00 Build 0)  -->
<svg version="1.1" id="Layer_1" xmlns="http://www.w3.org/2000/svg" xmlns:xlink="http://www.w3.org/1999/xlink" x="0px" y="0px"
	 viewBox="0 0 144 144" style="enable-background:new 0 0 144 144;" xml:space="preserve">
<style type="text/css">
	.st0{clip-path:url(#SVGID_2_);}
	.st1{clip-path:url(#SVGID_6_);}
	.st2{clip-path:url(#SVGID_10_);}
	.st3{fill:#B54D41;}
	.st4{fill:#FFFFFF;}
	.st5{fill:#A71E27;}
	.st6{clip-path:url(#SVGID_14_);}
	.st7{clip-path:url(#SVGID_18_);}
	.st8{clip-path:url(#SVGID_22_);}
	.st9{clip-path:url(#SVGID_30_);}
	.st10{fill:none;stroke:#9C1B23;stroke-width:0.9231;stroke-linejoin:round;stroke-miterlimit:10;}
	.st11{clip-path:url(#SVGID_34_);}
	.st12{clip-path:url(#SVGID_38_);}
	.st13{clip-path:url(#SVGID_42_);}
	.st14{clip-path:url(#SVGID_46_);}
	.st15{fill:#A4B67E;}
	.st16{clip-path:url(#SVGID_50_);}
	.st17{fill:#8AA65A;}
	.st18{fill:#EEF6E9;}
	.st19{fill:#BECDA2;}
	.st20{clip-path:url(#SVGID_54_);}
	.st21{fill:none;stroke:#71973E;stroke-width:0.9231;stroke-linejoin:round;stroke-miterlimit:10;}
	.st22{clip-path:url(#SVGID_58_);}
	.st23{clip-path:url(#SVGID_62_);}
	.st24{clip-path:url(#SVGID_66_);}
	.st25{clip-path:url(#SVGID_70_);}
	.st26{clip-path:url(#SVGID_74_);}
	.st27{clip-path:url(#SVGID_78_);}
	.st28{clip-path:url(#SVGID_82_);}
	.st29{fill:#FFE885;}
	.st30{clip-path:url(#SVGID_86_);}
	.st31{clip-path:url(#SVGID_90_);}
	.st32{clip-path:url(#SVGID_94_);}
	.st33{clip-path:url(#SVGID_98_);}
	.st34{clip-path:url(#SVGID_102_);}
	.st35{clip-path:url(#SVGID_106_);}
	.st36{clip-path:url(#SVGID_110_);}
	.st37{clip-path:url(#SVGID_114_);}
	.st38{fill:#E0EFD5;}
	.st39{clip-path:url(#SVGID_118_);}
	.st40{clip-path:url(#SVGID_122_);}
	.st41{fill:none;stroke:#ABA6A6;stroke-width:3.8246;}
	.st42{fill:none;stroke:#706B6B;stroke-width:2.3904;}
	.st43{fill:#6FBE46;}
	.st44{fill:none;stroke:#000000;stroke-width:0.9562;}
	.st45{fill:none;stroke:#575454;stroke-width:0.9562;stroke-linejoin:round;}
	.st46{clip-path:url(#SVGID_126_);}
	.st47{clip-path:url(#SVGID_130_);}
	.st48{fill:#FDDD10;}
	.st49{clip-path:url(#SVGID_136_);}
	
		.st50{clip-path:url(#SVGID_140_);fill:none;stroke:#575454;stroke-width:1.0454;stroke-linecap:round;stroke-linejoin:round;stroke-miterlimit:10;}
	
		.st51{clip-path:url(#SVGID_140_);fill:none;stroke:#000000;stroke-width:4.1817;stroke-linecap:round;stroke-linejoin:round;stroke-miterlimit:10;}
	.st52{fill:none;stroke:#FFFFFF;stroke-width:1.7077;stroke-linecap:round;stroke-linejoin:round;stroke-miterlimit:10;}
	.st53{fill:none;stroke:#000000;stroke-width:4.1817;stroke-linecap:round;stroke-linejoin:round;stroke-miterlimit:10;}
	.st54{clip-path:url(#SVGID_142_);}
	.st55{clip-path:url(#SVGID_146_);}
	.st56{clip-path:url(#SVGID_150_);}
	.st57{clip-path:url(#SVGID_154_);}
	.st58{clip-path:url(#SVGID_158_);}
	.st59{clip-path:url(#SVGID_162_);}
	.st60{clip-path:url(#SVGID_166_);}
	.st61{clip-path:url(#SVGID_170_);}
	.st62{clip-path:url(#SVGID_176_);}
	.st63{clip-path:url(#SVGID_182_);}
	.st64{clip-path:url(#SVGID_186_);}
	.st65{clip-path:url(#SVGID_190_);}
	.st66{clip-path:url(#SVGID_194_);}
	.st67{clip-path:url(#SVGID_198_);}
	.st68{clip-path:url(#SVGID_202_);}
	.st69{clip-path:url(#SVGID_206_);}
	.st70{clip-path:url(#SVGID_210_);}
	.st71{clip-path:url(#SVGID_216_);}
	.st72{clip-path:url(#SVGID_220_);}
	.st73{clip-path:url(#SVGID_226_);}
	.st74{clip-path:url(#SVGID_230_);}
	.st75{clip-path:url(#SVGID_236_);}
	.st76{clip-path:url(#SVGID_240_);}
	.st77{clip-path:url(#SVGID_244_);}
	.st78{clip-path:url(#SVGID_248_);}
	.st79{clip-path:url(#SVGID_254_);}
	.st80{clip-path:url(#SVGID_258_);}
	.st81{clip-path:url(#SVGID_262_);}
	.st82{clip-path:url(#SVGID_266_);}
	.st83{clip-path:url(#SVGID_270_);}
	.st84{clip-path:url(#SVGID_274_);}
	.st85{clip-path:url(#SVGID_278_);}
	.st86{clip-path:url(#SVGID_282_);}
	.st87{clip-path:url(#SVGID_286_);}
	.st88{clip-path:url(#SVGID_290_);}
	.st89{clip-path:url(#SVGID_294_);}
	.st90{clip-path:url(#SVGID_298_);}
	.st91{clip-path:url(#SVGID_304_);}
	.st92{clip-path:url(#SVGID_308_);}
	.st93{clip-path:url(#SVGID_314_);}
	.st94{clip-path:url(#SVGID_320_);}
	.st95{clip-path:url(#SVGID_324_);}
	.st96{fill:#706B6B;}
	.st97{clip-path:url(#SVGID_328_);}
	.st98{clip-path:url(#SVGID_334_);}
	.st99{fill:#567EBF;}
</style>
<g>
	<g>
		<defs>
			<path id="SVGID_77_" d="M135.7,132.2V13.3c0,0,0-5.3-5.3-5.3H11.3c0,0-5.3,0-5.3,5.3v118.9c0,0,0,5.3,5.3,5.3h119.1
				C130.4,137.5,135.7,137.5,135.7,132.2L135.7,132.2z M129.9,126c0,5.3-5.3,5.3-5.3,5.3H17.1c-5.3,0-5.3-5.3-5.3-5.3V19.5
				c0-5.3,5.3-5.3,5.3-5.3h107.5c5.3,0,5.3,5.3,5.3,5.3V126L129.9,126z"/>
		</defs>
		<clipPath id="SVGID_2_">
			<use xlink:href="#SVGID_77_"  style="overflow:visible;"/>
		</clipPath>
		<g class="st0">
			<defs>
				<rect id="SVGID_79_" x="6" y="8" width="129.7" height="129.5"/>
			</defs>
			<clipPath id="SVGID_4_">
				<use xlink:href="#SVGID_79_"  style="overflow:visible;"/>
			</clipPath>
			<g style="clip-path:url(#SVGID_4_);">
				
					<image style="overflow:visible;" width="276" height="273" xlink:href="59F37EB567444C17.jpg"  transform="matrix(0.48 0 0 -0.48 5.0959 138.0923)">
				</image>
			</g>
		</g>
	</g>
	<g>
		<defs>
			<path id="SVGID_81_" d="M127.2,125.8V22.3c0-5.7-5-5.7-5-5.7h-104c-1.5,0.3-4.1,1.3-4.1,5v102.3c0,0,0,5.1,5.1,5.1h103.2
				C122.5,129,126.1,129,127.2,125.8L127.2,125.8z M103.6,98.8l6-10.5l6.7,10.9L103.6,98.8L103.6,98.8z M86.2,111.7l10.5-6l0.4,12.8
				L86.2,111.7L86.2,111.7z M64.6,114.3h12.1l-6,11.3L64.6,114.3L64.6,114.3z M44.3,118.5l0.4-12.8l10.5,6L44.3,118.5L44.3,118.5z
				 M25,99.2l6.7-10.9l6,10.5L25,99.2L25,99.2z M29.2,66.7v12.1l-11.3-6L29.2,66.7L29.2,66.7z M37.8,46.8l-6,10.5L25,46.4L37.8,46.8
				L37.8,46.8z M70,34.2c21.1,0,38.1,17.1,38.1,38.1c0,21.1-17.1,38.1-38.1,38.1c-21.1,0-38.1-17.1-38.1-38.1
				C31.9,51.3,49,34.2,70,34.2L70,34.2z M55.2,33.8l-10.5,6l-0.4-12.8L55.2,33.8L55.2,33.8z M76.7,31.3H64.6l6-11.3L76.7,31.3
				L76.7,31.3z M97.1,27.1l-0.4,12.8l-10.5-6L97.1,27.1L97.1,27.1z M116.4,46.4l-6.7,10.9l-6-10.5L116.4,46.4L116.4,46.4z
				 M123.4,72.8l-11.3,6V66.7L123.4,72.8L123.4,72.8z M70,36.4c-19.8,0-35.9,16.1-35.9,35.9c0,19.8,16.1,35.9,35.9,35.9
				c19.8,0,35.9-16.1,35.9-35.9C105.9,52.5,89.8,36.4,70,36.4L70,36.4z M69.5,75.1c1.7-2.1,3.6-4,5.6-5.8c0.9-0.8,2-1.4,3-2.2
				c3.3-2.5,6.1-5.4,8-9.2c1.3-2.7,1.3-5.5,0.8-8.4c-0.2-1.2-0.4-2.5-0.6-3.7c0.1,0,0.2-0.1,0.4-0.1c1.3,3.3,2.6,6.5,3.7,9.9
				c1.9,5.8,2.9,11.8,2.6,18C92.5,79.9,90.7,85.5,86,90c-3.8,3.6-8.5,5.4-13.6,6.4c-0.7,0.1-1.4,0.5-1.9,1c-2.1,1.7-4.1,3.4-6.2,5.1
				c-0.6,0.5-1.4,1.1-2,0.4c-0.5-0.5-0.9-1.4-0.9-2c0.7-8.5-2.1-16-6.8-22.9c-0.2-0.3-0.4-0.5-0.5-0.9c4,4.4,6.8,9.5,8.4,15.3
				c1.1-2.7,1.5-5.4,1-8.2c-0.8-5.1-4.2-8.2-8.5-10.5c-1.3-0.7-2.7-1.2-4.2-1.9c0.3,1.4,0.8,2.6,0.9,3.9c0.2,3,0.1,6,0.1,9
				c0,2.8,0.5,5.5,2.5,7.6c1,1,2.4,1.8,3.6,2.7c-0.3-0.1-0.7-0.1-1-0.3c-4-1.5-5.7-4.7-6.2-8.7c-0.3-2.5-0.2-4.9-0.3-7.4
				c-0.1-1.4-0.3-2.8-0.7-4.1c-0.6-2.4-2-4.1-4.3-5c-0.6-0.3-1.2-0.5-1.8-1c2.1,0.4,4.3,0.7,6.4,1.2c4.1,1,7.9,2.7,11.1,5.5
				c5.4,4.7,5.6,12.9,3,17.8c-0.5,0.9-0.6,1.8-0.3,2.8c0.2,0.9,0.3,1.8,0.5,3c10.5-7.2,16.8-17.1,20.7-28.9c0.3,1.5-2.1,8.1-4.6,13
				c-2.1,4.1-4.8,7.9-8,11.3c1.7,0,5.7-1.3,7.9-2.5c6.3-3.4,9.5-9,10.4-15.9c0.8-6.2-0.1-12.2-1.7-18.2c0-0.1-0.1-0.3-0.2-0.5
				c-0.1,0.2-0.3,0.3-0.3,0.4c-1.4,3.7-3.9,6.7-6.9,9.1c-2,1.6-4.3,2.9-6.3,4.4c-4.8,3.6-9.5,9.4-8.1,16.8c0.3,1.4,0.8,2.7,1.1,3.8
				C64.9,86.6,65.9,79.6,69.5,75.1L69.5,75.1z"/>
		</defs>
		<clipPath id="SVGID_6_">
			<use xlink:href="#SVGID_81_"  style="overflow:visible;"/>
		</clipPath>
		<g class="st1">
			<defs>
				<rect id="SVGID_83_" x="14.2" y="16.6" width="113.1" height="112.4"/>
			</defs>
			<clipPath id="SVGID_8_">
				<use xlink:href="#SVGID_83_"  style="overflow:visible;"/>
			</clipPath>
			<g style="clip-path:url(#SVGID_8_);">
				
					<image style="overflow:visible;" width="240" height="237" xlink:href="59F37EB567444C15.jpg"  transform="matrix(0.48 0 0 -0.48 13.6501 129.4737)">
				</image>
			</g>
		</g>
	</g>
	<g>
		<defs>
			<path id="SVGID_85_" d="M70,71.4c0.3-3.5-0.7-6.7-2.5-9.7c-1.9-3.2-4.4-5.9-7.1-8.3c-0.5-0.5-1.1-0.9-1.7-1.4
				c-0.1-0.1-0.2-0.1-0.3-0.2c2.3,3.2,2.3,6.7,1.6,10.4c-0.4,2.2-1.1,4.3-1.7,6.4c-0.1,0.4-0.2,0.8-0.3,1.2c0.5,0.3,1,0.6,1.4,1
				c0,0,0.1,0,0.1,0.1c0.5,0.4,1,0.7,1.4,1.1c0.1,0.1,0.2,0.2,0.3,0.3c0.1,0,0.1,0.1,0.2,0.1c0,0,0,0,0,0c0.1,0,0.1,0.1,0.2,0.1
				c0,0,0,0,0,0c0.1,0,0.1,0.1,0.2,0.1c0,0,0,0,0,0c0.1,0.1,0.2,0.1,0.2,0.2c0,0,0,0,0,0c0.1,0.1,0.2,0.1,0.3,0.2c0,0,0,0,0,0
				c0.9,0.8,2,2.3,2.6,4.8c0,0.1,0.1,0.1,0.1,0.2c0.4-3.9,0-7.8-0.9-11.8c-0.4-1.6-0.9-3.1-1.2-4.6c2.4,4.8,3.7,9.9,3.7,15.3
				c0.1-0.3,0.2-0.6,0.3-1c0-0.1,0.1-0.2,0.1-0.3c0.1-0.3,0.3-0.7,0.4-1c0.1-0.1,0.1-0.2,0.2-0.3c0.2-0.3,0.3-0.6,0.5-0.9
				c0.1-0.1,0.1-0.2,0.2-0.3c0.3-0.4,0.5-0.8,0.8-1.1C69.6,71.8,69.8,71.6,70,71.4L70,71.4z"/>
		</defs>
		<clipPath id="SVGID_10_">
			<use xlink:href="#SVGID_85_"  style="overflow:visible;"/>
		</clipPath>
		<g class="st2">
			<defs>
				<rect id="SVGID_87_" x="58.1" y="51.8" width="12.2" height="26.3"/>
			</defs>
			<clipPath id="SVGID_12_">
				<use xlink:href="#SVGID_87_"  style="overflow:visible;"/>
			</clipPath>
			<g style="clip-path:url(#SVGID_12_);">
				
					<image style="overflow:visible;" width="32" height="59" xlink:href="59F37EB567444C1B.jpg"  transform="matrix(0.48 0 0 -0.48 56.8439 79.3161)">
				</image>
			</g>
		</g>
	</g>
	<g>
		<defs>
			<path id="SVGID_89_" d="M57.8,94.9c1.2,0.5,2.5,0.8,3.6,0.3c-0.6-6.2-3.1-11.9-6.8-17.2c-0.2-0.3-0.4-0.5-0.5-0.9
				c4,4.4,6.8,9.5,8.4,15.3c1.1-2.7,1.5-5.4,1-8.2c-0.8-5.1-4.2-8.2-8.5-10.5c-1.3-0.7-2.7-1.2-4.2-1.9c0.3,1.4,0.8,2.6,0.9,3.9
				c0.2,3,0.1,6,0.1,9c0,2.8,0.5,5.5,2.5,7.6C55.4,93.3,56.6,94,57.8,94.9L57.8,94.9z"/>
		</defs>
		<clipPath id="SVGID_14_">
			<use xlink:href="#SVGID_89_"  style="overflow:visible;"/>
		</clipPath>
		<g class="st6">
			<defs>
				<rect id="SVGID_91_" x="50.9" y="71.8" width="13.2" height="23.8"/>
			</defs>
			<clipPath id="SVGID_16_">
				<use xlink:href="#SVGID_91_"  style="overflow:visible;"/>
			</clipPath>
			<g style="clip-path:url(#SVGID_16_);">
				
					<image style="overflow:visible;" width="36" height="53" xlink:href="59F37EB567444C1D.jpg"  transform="matrix(0.48 0 0 -0.48 49.489 96.7593)">
				</image>
			</g>
		</g>
	</g>
	<g>
		<defs>
			<path id="SVGID_93_" d="M68,91.4c0.5,1.1,1,2.2,1.6,3c7.3-6.7,12.1-15,15.2-24.6c0.3,1.5-2.1,8.1-4.6,13c-2.1,4.1-4.8,7.9-8,11.3
				c1.7,0,5.7-1.3,7.9-2.5c6.3-3.4,9.5-9,10.4-15.9c0.8-6.2-0.1-12.2-1.7-18.2c0-0.1-0.1-0.3-0.2-0.5c-0.1,0.2-0.3,0.3-0.3,0.4
				c-1.4,3.7-3.9,6.7-6.9,9.1c-2,1.6-4.3,2.9-6.3,4.4c-4.8,3.6-9.5,9.4-8.1,16.8C67.2,89.1,67.7,90.3,68,91.4L68,91.4z"/>
		</defs>
		<clipPath id="SVGID_18_">
			<use xlink:href="#SVGID_93_"  style="overflow:visible;"/>
		</clipPath>
		<g class="st7">
			<defs>
				<rect id="SVGID_95_" x="65.6" y="57" width="25.7" height="37.4"/>
			</defs>
			<clipPath id="SVGID_20_">
				<use xlink:href="#SVGID_95_"  style="overflow:visible;"/>
			</clipPath>
			<g style="clip-path:url(#SVGID_20_);">
				
					<image style="overflow:visible;" width="60" height="82" xlink:href="59F37EB567444C1F.jpg"  transform="matrix(0.48 0 0 -0.48 64.2312 95.4828)">
				</image>
			</g>
		</g>
	</g>
	<path class="st4" d="M71.8,69.3c-0.2-2.9-1.3-5.7-3-8.2c-1.9-3-4.5-5.5-7.3-7.6c-1.2-0.9-2.5-1.7-4-2.7c0.4,0.9,0.8,1.6,1,2.3
		c0.2,0.7,0.4,1.5,0.5,2.3c0.3,3.2-0.5,6.2-1.5,9.2c-0.5,1.4-0.9,2.7-1.1,4.1c0.6,0.3,1.2,0.6,1.7,1c0.1-0.4,0.2-0.8,0.3-1.2
		c0.5-2.2,1.2-4.3,1.7-6.4c0.7-3.6,0.6-7.2-1.7-10.4c0.7,0.5,1.3,1.1,2,1.6c2.8,2.4,5.3,5.1,7.1,8.3c1.8,3,2.8,6.2,2.5,9.7
		C70.6,70.6,71.2,69.9,71.8,69.3L71.8,69.3z M66.9,76.9C66.9,76.9,66.9,76.8,66.9,76.9c0-5.4-1.3-10.5-3.7-15.3
		c0.4,1.5,0.9,3.1,1.2,4.6c0.9,4,1.3,7.9,0.9,11.8c0.2,0.4,0.4,0.7,0.6,1.1C66.2,78.3,66.5,77.6,66.9,76.9L66.9,76.9z"/>
</g>
</svg>
