<?xml version="1.0" encoding="utf-8"?>
<!-- Generator: Adobe Illustrator 21.0.2, SVG Export Plug-In . SVG Version: 6.00 Build 0)  -->
<svg version="1.1" id="Layer_1" xmlns="http://www.w3.org/2000/svg" xmlns:xlink="http://www.w3.org/1999/xlink" x="0px" y="0px"
	 viewBox="0 0 144 144" style="enable-background:new 0 0 144 144;" xml:space="preserve">
<style type="text/css">
	.st0{clip-path:url(#SVGID_2_);}
	.st1{clip-path:url(#SVGID_6_);}
	.st2{clip-path:url(#SVGID_10_);}
	.st3{fill:#B54D41;}
	.st4{fill:#FFFFFF;}
	.st5{fill:#A71E27;}
	.st6{clip-path:url(#SVGID_14_);}
	.st7{clip-path:url(#SVGID_18_);}
	.st8{clip-path:url(#SVGID_22_);}
	.st9{clip-path:url(#SVGID_30_);}
	.st10{fill:none;stroke:#9C1B23;stroke-width:0.9231;stroke-linejoin:round;stroke-miterlimit:10;}
	.st11{clip-path:url(#SVGID_34_);}
	.st12{clip-path:url(#SVGID_38_);}
	.st13{clip-path:url(#SVGID_42_);}
	.st14{clip-path:url(#SVGID_46_);}
	.st15{fill:#A4B67E;}
	.st16{clip-path:url(#SVGID_50_);}
	.st17{fill:#8AA65A;}
	.st18{fill:#EEF6E9;}
	.st19{fill:#BECDA2;}
	.st20{clip-path:url(#SVGID_54_);}
	.st21{fill:none;stroke:#71973E;stroke-width:0.9231;stroke-linejoin:round;stroke-miterlimit:10;}
	.st22{clip-path:url(#SVGID_58_);}
	.st23{clip-path:url(#SVGID_62_);}
	.st24{clip-path:url(#SVGID_66_);}
	.st25{clip-path:url(#SVGID_70_);}
	.st26{clip-path:url(#SVGID_74_);}
	.st27{clip-path:url(#SVGID_78_);}
	.st28{clip-path:url(#SVGID_82_);}
	.st29{fill:#FFE885;}
	.st30{clip-path:url(#SVGID_86_);}
	.st31{clip-path:url(#SVGID_90_);}
	.st32{clip-path:url(#SVGID_94_);}
	.st33{clip-path:url(#SVGID_98_);}
	.st34{clip-path:url(#SVGID_102_);}
	.st35{clip-path:url(#SVGID_106_);}
	.st36{clip-path:url(#SVGID_110_);}
	.st37{clip-path:url(#SVGID_114_);}
	.st38{fill:#E0EFD5;}
	.st39{clip-path:url(#SVGID_118_);}
	.st40{clip-path:url(#SVGID_122_);}
	.st41{fill:none;stroke:#ABA6A6;stroke-width:3.8246;}
	.st42{fill:none;stroke:#706B6B;stroke-width:2.3904;}
	.st43{fill:#6FBE46;}
	.st44{fill:none;stroke:#000000;stroke-width:0.9562;}
	.st45{fill:none;stroke:#575454;stroke-width:0.9562;stroke-linejoin:round;}
	.st46{clip-path:url(#SVGID_126_);}
	.st47{clip-path:url(#SVGID_130_);}
	.st48{fill:#FDDD10;}
	.st49{clip-path:url(#SVGID_136_);}
	
		.st50{clip-path:url(#SVGID_140_);fill:none;stroke:#575454;stroke-width:1.0454;stroke-linecap:round;stroke-linejoin:round;stroke-miterlimit:10;}
	
		.st51{clip-path:url(#SVGID_140_);fill:none;stroke:#000000;stroke-width:4.1817;stroke-linecap:round;stroke-linejoin:round;stroke-miterlimit:10;}
	.st52{fill:none;stroke:#FFFFFF;stroke-width:1.7077;stroke-linecap:round;stroke-linejoin:round;stroke-miterlimit:10;}
	.st53{fill:none;stroke:#000000;stroke-width:4.1817;stroke-linecap:round;stroke-linejoin:round;stroke-miterlimit:10;}
	.st54{clip-path:url(#SVGID_142_);}
	.st55{clip-path:url(#SVGID_146_);}
	.st56{clip-path:url(#SVGID_150_);}
	.st57{clip-path:url(#SVGID_154_);}
	.st58{clip-path:url(#SVGID_158_);}
	.st59{clip-path:url(#SVGID_162_);}
	.st60{clip-path:url(#SVGID_166_);}
	.st61{clip-path:url(#SVGID_170_);}
	.st62{clip-path:url(#SVGID_176_);}
	.st63{clip-path:url(#SVGID_182_);}
	.st64{clip-path:url(#SVGID_186_);}
	.st65{clip-path:url(#SVGID_190_);}
	.st66{clip-path:url(#SVGID_194_);}
	.st67{clip-path:url(#SVGID_198_);}
	.st68{clip-path:url(#SVGID_202_);}
	.st69{clip-path:url(#SVGID_206_);}
	.st70{clip-path:url(#SVGID_210_);}
	.st71{clip-path:url(#SVGID_216_);}
	.st72{clip-path:url(#SVGID_220_);}
	.st73{clip-path:url(#SVGID_226_);}
	.st74{clip-path:url(#SVGID_230_);}
	.st75{clip-path:url(#SVGID_236_);}
	.st76{clip-path:url(#SVGID_240_);}
	.st77{clip-path:url(#SVGID_244_);}
	.st78{clip-path:url(#SVGID_248_);}
	.st79{clip-path:url(#SVGID_254_);}
	.st80{clip-path:url(#SVGID_258_);}
	.st81{clip-path:url(#SVGID_262_);}
	.st82{clip-path:url(#SVGID_266_);}
	.st83{clip-path:url(#SVGID_270_);}
	.st84{clip-path:url(#SVGID_274_);}
	.st85{clip-path:url(#SVGID_278_);}
	.st86{clip-path:url(#SVGID_282_);}
	.st87{clip-path:url(#SVGID_286_);}
	.st88{clip-path:url(#SVGID_290_);}
	.st89{clip-path:url(#SVGID_294_);}
	.st90{clip-path:url(#SVGID_298_);}
	.st91{clip-path:url(#SVGID_304_);}
	.st92{clip-path:url(#SVGID_308_);}
	.st93{clip-path:url(#SVGID_314_);}
	.st94{clip-path:url(#SVGID_320_);}
	.st95{clip-path:url(#SVGID_324_);}
	.st96{fill:#706B6B;}
	.st97{clip-path:url(#SVGID_328_);}
	.st98{clip-path:url(#SVGID_334_);}
	.st99{fill:#567EBF;}
</style>
<g>
	<g>
		<defs>
			<path id="SVGID_1_" d="M122.7,127.5H20.4c-5.1,0-5.1-5.1-5.1-5.1V20.2l0-0.1L122.7,127.5 M34.1,41.9
				c-6.9,8.6-10.8,19.4-10.8,30.5c0,26.8,21.8,48.6,48.6,48.6c11.1,0,21.9-3.8,30.5-10.8c0.2-0.2,0.3-0.4,0.3-0.7l0,0
				c0-0.2-0.1-0.5-0.3-0.7l0,0l-67-67l0,0l0,0c-0.2-0.2-0.4-0.3-0.7-0.3l0,0l0,0v0C34.5,41.5,34.3,41.7,34.1,41.9L34.1,41.9"/>
		</defs>
		<clipPath id="SVGID_2_">
			<use xlink:href="#SVGID_1_"  style="overflow:visible;"/>
		</clipPath>
		<g class="st0">
			<defs>
				<rect id="SVGID_3_" x="15.3" y="20.1" width="107.4" height="107.4"/>
			</defs>
			<clipPath id="SVGID_4_">
				<use xlink:href="#SVGID_3_"  style="overflow:visible;"/>
			</clipPath>
			<g style="clip-path:url(#SVGID_4_);">
				
					<image style="overflow:visible;" width="228" height="226" xlink:href="59EB13A8AD35F7CC.jpg"  transform="matrix(0.48 0 0 -0.48 14.7083 128.0469)">
				</image>
			</g>
		</g>
	</g>
	<g>
		<defs>
			<path id="SVGID_5_" d="M128.3,122.5L21.1,15.2h3.2h99.1c0,0,5,0,5,5.7V122.5 M72.8,22.9c-11.1,0-21.6,3.7-30.3,10.7
				c-0.2,0.2-0.3,0.4-0.3,0.7l0,0c0,0.2,0.1,0.5,0.3,0.7l0,0l67,67c0.2,0.2,0.4,0.3,0.7,0.3l0,0v0l0,0c0.3,0,0.5-0.1,0.7-0.3l0,0
				c7-8.7,10.7-19.2,10.7-30.4C121.4,44.7,99.6,22.9,72.8,22.9C72.8,22.9,72.8,22.9,72.8,22.9"/>
		</defs>
		<clipPath id="SVGID_6_">
			<use xlink:href="#SVGID_5_"  style="overflow:visible;"/>
		</clipPath>
		<g class="st1">
			<defs>
				<rect id="SVGID_7_" x="21.1" y="15.2" width="107.3" height="107.3"/>
			</defs>
			<clipPath id="SVGID_8_">
				<use xlink:href="#SVGID_7_"  style="overflow:visible;"/>
			</clipPath>
			<g style="clip-path:url(#SVGID_8_);">
				
					<image style="overflow:visible;" width="228" height="226" xlink:href="59EB13A8AD35F7CD.jpg"  transform="matrix(0.48 0 0 -0.48 20.544 123.0481)">
				</image>
			</g>
		</g>
	</g>
	<g>
		<defs>
			<path id="SVGID_9_" d="M136.7,12.3v118.9c0,0,0,5.3-5.3,5.3H12.3c0,0-5.3,0-5.3-5.3V12.3c0,0,0-5.3,5.3-5.3h119.1
				C131.4,7,136.7,7,136.7,12.3L136.7,12.3z M130.9,18.5c0-5.3-5.3-5.3-5.3-5.3H18.1c-5.3,0-5.3,5.3-5.3,5.3V125
				c0,5.3,5.3,5.3,5.3,5.3h107.5c5.3,0,5.3-5.3,5.3-5.3V18.5L130.9,18.5z"/>
		</defs>
		<clipPath id="SVGID_10_">
			<use xlink:href="#SVGID_9_"  style="overflow:visible;"/>
		</clipPath>
		<g class="st2">
			<defs>
				<rect id="SVGID_11_" x="7" y="7" width="129.7" height="129.5"/>
			</defs>
			<clipPath id="SVGID_12_">
				<use xlink:href="#SVGID_11_"  style="overflow:visible;"/>
			</clipPath>
			<g style="clip-path:url(#SVGID_12_);">
				
					<image style="overflow:visible;" width="276" height="272" xlink:href="59EB13A8AD35F7CB.jpg"  transform="matrix(0.48 0 0 -0.48 6.0963 137.0426)">
				</image>
			</g>
		</g>
	</g>
	<path class="st3" d="M110.4,101.5c6.9-8.6,10.6-19,10.6-30.1c0-26.5-21.6-48.1-48.1-48.1c-11,0-21.4,3.7-30.1,10.6
		c-0.1,0.1-0.2,0.2-0.2,0.3c0,0.1,0,0.3,0.1,0.4l67,67c0.1,0.1,0.2,0.1,0.4,0.1C110.2,101.7,110.3,101.6,110.4,101.5"/>
	<path class="st4" d="M110.4,101.5l0.4,0.3c7-8.7,10.7-19.2,10.7-30.4c0-26.8-21.8-48.6-48.6-48.6c-11.1,0-21.7,3.7-30.4,10.7
		c-0.2,0.2-0.3,0.4-0.3,0.7l0,0c0,0.2,0.1,0.5,0.3,0.7l0,0l67,67c0.2,0.2,0.4,0.3,0.7,0.3l0,0v-0.3l0,0.3l0,0v-0.3l0,0.3l0.1,0
		c0.3,0,0.5-0.1,0.7-0.3L110.4,101.5l-0.4-0.3l0,0l0,0.5l0.1-0.5l-0.1,0h0l0,0l-67-67l-0.3,0.3l0.3-0.3l0,0l0,0l0,0l0,0l0,0l0,0
		h-0.5l0.5,0l0,0l0,0v0l0,0l0,0c8.5-6.8,18.8-10.5,29.8-10.5c13.1,0,25,5.3,33.7,14c8.6,8.6,14,20.5,14,33.7
		c0,10.9-3.6,21.2-10.5,29.8L110.4,101.5"/>
	<path class="st3" d="M110,101.2c6.5-8.2,10.5-18.5,10.5-29.8c0-26.3-21.3-47.6-47.6-47.6c-11.3,0-21.6,3.9-29.8,10.5L110,101.2"/>
	<path class="st5" d="M110,101.2c6.5-8.2,10.5-18.5,10.5-29.8c0-26.3-21.3-47.6-47.6-47.6c-11.3,0-21.6,3.9-29.8,10.5l2.6,2.6
		c7.5-5.9,16.9-9.4,27.2-9.4c24.3,0,44,19.7,44,44c0,10.3-3.5,19.7-9.4,27.2L110,101.2"/>
	<g>
		<defs>
			<path id="SVGID_13_" d="M69.6,60.8L49.7,40.9c1.5-1.1,2.9-2.1,4.3-2.9c2.5-1.5,4.9-2.4,6.9-3.1c1.6-0.5,3-0.8,4-0.9
				c0.3,0,0.5,0,0.8,0c0.4,0,0.8,0,1.1,0.1c2.6,0.6,2.6,3.4,2.6,3.4s0.5,19.9,0.6,21.7c0,0,0,0.1,0,0.1c0,0.1,0,0.1,0,0.2
				C70,60.1,69.8,60.5,69.6,60.8"/>
		</defs>
		<clipPath id="SVGID_14_">
			<use xlink:href="#SVGID_13_"  style="overflow:visible;"/>
		</clipPath>
		<g class="st6">
			<defs>
				<rect id="SVGID_15_" x="49.7" y="34" width="20.3" height="26.8"/>
			</defs>
			<clipPath id="SVGID_16_">
				<use xlink:href="#SVGID_15_"  style="overflow:visible;"/>
			</clipPath>
			<g transform="matrix(1 0 0 1 0 3.814697e-06)" style="clip-path:url(#SVGID_16_);">
				
					<image style="overflow:visible;" width="48" height="60" xlink:href="59EB13A8AD35F7D4.jpg"  transform="matrix(0.48 0 0 -0.48 48.3239 61.9786)">
				</image>
			</g>
		</g>
	</g>
	<g>
		<defs>
			<path id="SVGID_17_" d="M102.6,93.7c0,0-0.1,0-0.1,0l0,0L84,75.2c-0.5-1.2-0.7-2.2-0.5-2.7c0,0,0,0,0,0c0.4-0.9,3.9-0.8,4.6-1.4
				c0,0,0,0,0,0c0.1-0.1,0.2-0.3,0.2-0.4c0-0.9-1.1-2.8-1.3-3.6l0,0c-0.3-1,0.1-2,0.5-3.7l0,0c0-0.2,0.1-0.4,0.1-0.6
				c0-1.4-1.2-2.2-1.9-2.9c-0.7-0.7-0.3-2.3-0.7-2.8c0,0-0.1,0-0.1,0h0l0,0l0,0c-0.8,0-5.2,3.6-5.2,3.6c0,0-0.1,0-0.1,0c0,0,0,0,0,0
				c0,0,0,0,0,0c-0.4,0.2-0.7,0.2-0.9,0.2c0,0,0,0-0.1,0c-0.1,0-0.1,0-0.2,0c-1.7-0.2-1.1-3.7-0.9-4.4l0,0c0,0,0,0,0,0c0,0,0,0,0,0
				l0,0c0,0,0,0,0,0c0.2-0.8,1.4-18.7,3.9-21.1c0.3-0.3,0.9-0.5,1.7-0.5c2.9,0,8.6,2.3,14.1,6.9c3.8,3.2,7.5,7.4,10.1,12.7
				c3,6,4.1,11.4,4.2,16.3c0.1,7.1-2,13-3.7,17.8C106.3,92.7,104.3,93.7,102.6,93.7"/>
		</defs>
		<clipPath id="SVGID_18_">
			<use xlink:href="#SVGID_17_"  style="overflow:visible;"/>
		</clipPath>
		<g class="st7">
			<defs>
				<rect id="SVGID_19_" x="76.5" y="35" width="35" height="58.8"/>
			</defs>
			<clipPath id="SVGID_20_">
				<use xlink:href="#SVGID_19_"  style="overflow:visible;"/>
			</clipPath>
			<g style="clip-path:url(#SVGID_20_);">
				
					<image style="overflow:visible;" width="80" height="126" xlink:href="59EB13A8AD35F7D7.jpg"  transform="matrix(0.48 0 0 -0.48 75.2272 94.7904)">
				</image>
			</g>
		</g>
	</g>
	<g>
		<defs>
			<path id="SVGID_21_" d="M107.4,98.6l-4.9-4.9l0,0c0,0,0.1,0,0.1,0c1.7,0,3.7-1,5.1-5.1c1.7-4.8,3.8-10.7,3.7-17.8
				c-0.1-4.8-1.2-10.2-4.2-16.3c-2.6-5.3-6.3-9.6-10.1-12.7C91.6,37.3,85.9,35,83,35c-0.8,0-1.4,0.2-1.7,0.5
				c-2.5,2.4-3.7,20.3-3.9,21.1c0,0,0,0,0,0l0,0c0,0,0,0,0,0c0,0,0,0,0,0l0,0c-0.2,0.8-0.8,4.2,0.9,4.4c0.1,0,0.1,0,0.2,0h0l0,0
				c0,0,0,0,0.1,0c0.3,0,0.6-0.1,0.9-0.2c0,0,0,0,0,0c0,0,0,0,0,0c0,0,0.1,0,0.1,0c0,0,4.4-3.6,5.2-3.6h0c0,0,0.1,0,0.1,0
				c0.4,0.5,0,2,0.7,2.8c0.7,0.7,1.9,1.5,1.9,2.9c0,0.2,0,0.4-0.1,0.6l0,0c-0.4,1.7-0.7,2.7-0.5,3.7l0,0c0.2,0.8,1.3,2.6,1.3,3.6
				c0,0.2,0,0.3-0.2,0.4c0,0,0,0,0,0c-0.7,0.5-4.2,0.5-4.6,1.4c0,0,0,0,0,0c-0.2,0.5,0,1.5,0.5,2.7L69.6,60.8
				c0.2-0.3,0.4-0.7,0.4-1.3c0-0.1,0-0.1,0-0.2c0,0,0-0.1,0-0.1c-0.1-1.9-0.6-21.7-0.6-21.7s0-2.8-2.6-3.4C66.4,34,66.1,34,65.6,34
				c-0.2,0-0.5,0-0.8,0c-1,0.1-2.4,0.4-4,0.9c-2,0.6-4.3,1.6-6.9,3.1c-1.4,0.8-2.8,1.8-4.3,2.9l0,0l0,0l-4-4
				c7.5-5.9,16.9-9.4,27.2-9.4c24.3,0,44,19.7,44,44C116.8,81.7,113.3,91.1,107.4,98.6L107.4,98.6L107.4,98.6"/>
		</defs>
		<clipPath id="SVGID_22_">
			<use xlink:href="#SVGID_21_"  style="overflow:visible;"/>
		</clipPath>
		<g class="st8">
			<defs>
				<rect id="SVGID_23_" x="45.6" y="27.5" width="71.2" height="71.2"/>
			</defs>
			<clipPath id="SVGID_24_">
				<use xlink:href="#SVGID_23_"  style="overflow:visible;"/>
			</clipPath>
			<g style="clip-path:url(#SVGID_24_);">
				
					<image style="overflow:visible;" width="156" height="152" xlink:href="59EB13A8AD35F7D5.jpg"  transform="matrix(0.48 0 0 -0.48 44.5655 99.874)">
				</image>
			</g>
		</g>
	</g>
	<g>
		<defs>
			<path id="SVGID_25_" d="M70,59.6c0-0.1,0-0.1,0-0.2c0,0,0-0.1,0-0.1c0,0,0,0.1,0,0.1C70,59.4,70,59.5,70,59.6 M49.7,40.9
				L49.7,40.9c1.5-1.1,2.9-2.1,4.3-2.9C52.6,38.8,51.1,39.8,49.7,40.9 M60.9,34.9c1.6-0.5,3-0.8,4-0.9c0.3,0,0.5,0,0.8,0
				c0.4,0,0.8,0,1.1,0.1C66.4,34,66.1,34,65.6,34c-0.2,0-0.5,0-0.8,0C63.8,34.1,62.5,34.4,60.9,34.9"/>
		</defs>
		<clipPath id="SVGID_26_">
			<use xlink:href="#SVGID_25_"  style="overflow:visible;"/>
		</clipPath>
		<g style="clip-path:url(#SVGID_26_);">
			
				<image style="overflow:visible;" width="88" height="110" xlink:href="59EB13A8AD35F7DB.jpg"  transform="matrix(0.2405 0 0 0.2404 49.2723 33.5996)">
			</image>
		</g>
	</g>
	<g>
		<defs>
			<path id="SVGID_27_" d="M102.6,93.7c0,0-0.1,0-0.1,0C102.5,93.7,102.6,93.7,102.6,93.7c1.7,0,3.7-1,5.1-5.1
				c1.7-4.8,3.8-10.7,3.7-17.8c0.1,7.1-2,13-3.7,17.8C106.3,92.7,104.3,93.7,102.6,93.7 M83.5,72.5C83.5,72.5,83.5,72.5,83.5,72.5
				c0.4-0.9,3.9-0.8,4.6-1.4c0,0,0,0,0,0c0,0,0,0,0,0C87.4,71.7,83.9,71.7,83.5,72.5C83.5,72.5,83.5,72.5,83.5,72.5 M88.3,70.7
				c0-0.9-1.1-2.8-1.3-3.6C87.2,67.9,88.3,69.7,88.3,70.7 M87.4,63.4L87.4,63.4c0-0.2,0.1-0.4,0.1-0.6C87.5,63,87.5,63.2,87.4,63.4
				L87.4,63.4 M78.4,61c-0.1,0-0.1,0-0.2,0C78.3,61,78.4,61,78.4,61L78.4,61 M78.5,61c0.3,0,0.6-0.1,0.9-0.2
				C79.1,60.9,78.7,61,78.5,61 M79.4,60.8C79.4,60.8,79.4,60.8,79.4,60.8C79.4,60.8,79.4,60.8,79.4,60.8 M84.8,57.1L84.8,57.1
				L84.8,57.1L84.8,57.1 M77.3,56.6L77.3,56.6L77.3,56.6 M77.3,56.6C77.3,56.6,77.3,56.6,77.3,56.6C77.3,56.6,77.3,56.6,77.3,56.6
				 M77.4,56.6C77.4,56.6,77.4,56.6,77.4,56.6c0.2-0.9,1.4-18.7,3.9-21.1c0.3-0.3,0.9-0.5,1.7-0.5c2.9,0,8.6,2.3,14.1,6.9
				C91.6,37.3,85.9,35,83,35c-0.8,0-1.4,0.2-1.7,0.5C78.8,37.9,77.6,55.7,77.4,56.6C77.4,56.6,77.4,56.6,77.4,56.6"/>
		</defs>
		<clipPath id="SVGID_28_">
			<use xlink:href="#SVGID_27_"  style="overflow:visible;"/>
		</clipPath>
		<g style="clip-path:url(#SVGID_28_);">
			
				<image style="overflow:visible;" width="146" height="248" xlink:href="59EB13A8AD35F7DC.jpg"  transform="matrix(0.2403 0 0 0.2402 76.8723 34.5596)">
			</image>
		</g>
	</g>
	<g>
		<defs>
			<path id="SVGID_29_" d="M107.4,98.6c5.9-7.5,9.4-16.9,9.4-27.2c0-24.3-19.7-44-44-44c-10.3,0-19.7,3.5-27.2,9.4l4,4
				C56,36,62,34.4,64.8,34c4.5-0.5,4.5,3.5,4.5,3.5s0.5,20.7,0.6,21.8c0,0.6-0.1,1.1-0.4,1.4L84,75.2c-0.5-1.2-0.7-2.2-0.5-2.7
				c0.4-0.9,3.9-0.8,4.6-1.4c0.7-0.5-0.9-3-1.1-4.1c-0.3-1,0.1-2,0.5-3.7c0.4-1.7-1.1-2.7-1.8-3.4c-0.7-0.7-0.3-2.3-0.7-2.8
				c-0.4-0.5-5.3,3.6-5.3,3.6c-3.2,1.5-2.4-3.3-2.2-4.2c0.2-0.8,1.4-18.7,3.9-21.1c2.5-2.4,18.5,4.2,25.9,19.1
				c7.4,14.9,3.4,26,0.5,34.1c-1.5,4.2-3.5,5.1-5.2,5.1L107.4,98.6L107.4,98.6z"/>
		</defs>
		<clipPath id="SVGID_30_">
			<use xlink:href="#SVGID_29_"  style="overflow:visible;"/>
		</clipPath>
		<g class="st9">
			<defs>
				<rect id="SVGID_31_" x="45.6" y="27.5" width="71.2" height="71.2"/>
			</defs>
			<clipPath id="SVGID_32_">
				<use xlink:href="#SVGID_31_"  style="overflow:visible;"/>
			</clipPath>
			<g style="clip-path:url(#SVGID_32_);">
				
					<image style="overflow:visible;" width="156" height="152" xlink:href="59EB13A8AD35F7DF.jpg"  transform="matrix(0.48 0 0 -0.48 44.5655 99.874)">
				</image>
			</g>
		</g>
	</g>
	<path class="st4" d="M64.5,54.5c0,0,3.7-10.1-2.1-9.9C56.5,44.7,61.5,53.4,64.5,54.5L64.5,54.5z"/>
	<path class="st10" d="M64.5,54.5c0,0,3.7-10.1-2.1-9.9C56.5,44.7,61.5,53.4,64.5,54.5L64.5,54.5z"/>
	<path class="st4" d="M87.6,57.8c0,0-0.9-9.6,4.4-8.7C97.2,50,93.3,56.3,87.6,57.8L87.6,57.8z"/>
	<path class="st10" d="M87.6,57.8c0,0-0.9-9.6,4.4-8.7C97.2,50,93.3,56.3,87.6,57.8L87.6,57.8z"/>
	<path class="st4" d="M91.4,64.8c0,0,5.5-8.7,9.4-4.1C104.6,65.3,94.5,66.6,91.4,64.8L91.4,64.8z"/>
	<path class="st10" d="M91.4,64.8c0,0,5.5-8.7,9.4-4.1C104.6,65.3,94.5,66.6,91.4,64.8L91.4,64.8z"/>
	<path class="st4" d="M92.7,71.6c0,0,9.5-3.1,9.4,2.4C102,79.5,94.6,76.1,92.7,71.6L92.7,71.6z"/>
	<path class="st10" d="M92.7,71.6c0,0,9.5-3.1,9.4,2.4C102,79.5,94.6,76.1,92.7,71.6L92.7,71.6z"/>
	<g>
		<defs>
			<path id="SVGID_33_" d="M64.5,54.5c0,0,3.7-10.1-2.1-9.9S61.5,53.4,64.5,54.5L64.5,54.5z"/>
		</defs>
		<clipPath id="SVGID_34_">
			<use xlink:href="#SVGID_33_"  style="overflow:visible;"/>
		</clipPath>
		<g class="st11">
			<defs>
				<rect id="SVGID_35_" x="56.5" y="44.4" width="11.7" height="10.1"/>
			</defs>
			<clipPath id="SVGID_36_">
				<use xlink:href="#SVGID_35_"  style="overflow:visible;"/>
			</clipPath>
			<g style="clip-path:url(#SVGID_36_);">
				
					<image style="overflow:visible;" width="32" height="25" xlink:href="FEF9D76108CCD0DB.jpg"  transform="matrix(0.48 0 0 -0.48 55.402 55.8415)">
				</image>
			</g>
		</g>
	</g>
	<g>
		<defs>
			<path id="SVGID_37_" d="M87.6,57.8c0,0-0.9-9.6,4.4-8.7C97.2,50,93.3,56.3,87.6,57.8L87.6,57.8z"/>
		</defs>
		<clipPath id="SVGID_38_">
			<use xlink:href="#SVGID_37_"  style="overflow:visible;"/>
		</clipPath>
		<g class="st12">
			<defs>
				<rect id="SVGID_39_" x="86.6" y="48.3" width="10.6" height="9.6"/>
			</defs>
			<clipPath id="SVGID_40_">
				<use xlink:href="#SVGID_39_"  style="overflow:visible;"/>
			</clipPath>
			<g style="clip-path:url(#SVGID_40_);">
				
					<image style="overflow:visible;" width="28" height="24" xlink:href="FEF9D76108CCD0D9.jpg"  transform="matrix(0.48 0 0 -0.48 85.6565 59.1596)">
				</image>
			</g>
		</g>
	</g>
	<g>
		<defs>
			<path id="SVGID_41_" d="M91.4,64.8c0,0,5.5-8.7,9.4-4.1C104.6,65.3,94.5,66.6,91.4,64.8L91.4,64.8z"/>
		</defs>
		<clipPath id="SVGID_42_">
			<use xlink:href="#SVGID_41_"  style="overflow:visible;"/>
		</clipPath>
		<g class="st13">
			<defs>
				<rect id="SVGID_43_" x="91.4" y="56.1" width="13.3" height="10.5"/>
			</defs>
			<clipPath id="SVGID_44_">
				<use xlink:href="#SVGID_43_"  style="overflow:visible;"/>
			</clipPath>
			<g style="clip-path:url(#SVGID_44_);">
				
					<image style="overflow:visible;" width="32" height="26" xlink:href="FEF9D76108CCD0DF.jpg"  transform="matrix(0.48 0 0 -0.48 90.2559 67.798)">
				</image>
			</g>
		</g>
	</g>
	<g>
		<defs>
			<path id="SVGID_45_" d="M92.7,71.6c0,0,9.5-3.1,9.4,2.4C102,79.5,94.6,76.1,92.7,71.6L92.7,71.6z"/>
		</defs>
		<clipPath id="SVGID_46_">
			<use xlink:href="#SVGID_45_"  style="overflow:visible;"/>
		</clipPath>
		<g class="st14">
			<defs>
				<rect id="SVGID_47_" x="92.7" y="68.5" width="9.5" height="11.1"/>
			</defs>
			<clipPath id="SVGID_48_">
				<use xlink:href="#SVGID_47_"  style="overflow:visible;"/>
			</clipPath>
			<g style="clip-path:url(#SVGID_48_);">
				
					<image style="overflow:visible;" width="28" height="27" xlink:href="FEF9D76108CCD0DA.jpg"  transform="matrix(0.48 0 0 -0.48 91.3753 80.6198)">
				</image>
			</g>
		</g>
	</g>
	<path class="st15" d="M34.5,42.2c-6.9,8.5-10.7,19.2-10.7,30.2c0,26.5,21.6,48.1,48.1,48.1c11,0,21.7-3.8,30.2-10.7
		c0.1-0.1,0.2-0.2,0.2-0.3c0-0.1,0-0.3-0.1-0.4l-67-67C35,42,34.9,42,34.8,42C34.7,42,34.5,42.1,34.5,42.2"/>
	<path class="st4" d="M34.5,42.2l-0.4-0.3c-6.9,8.6-10.8,19.4-10.8,30.5c0,26.8,21.8,48.6,48.6,48.6c11.1,0,21.9-3.8,30.5-10.8
		c0.2-0.2,0.3-0.4,0.3-0.7l0,0c0-0.2-0.1-0.5-0.3-0.7l0,0l-67-67l0,0c-0.2-0.2-0.4-0.3-0.7-0.3l0,0l-0.1,0l0.1,0.4l0-0.5
		c-0.3,0-0.5,0.1-0.7,0.3L34.5,42.2l0.4,0.3l0,0v0h0l0,0v0l0.1,0L34.8,42l0,0.4l0.1,0L34.8,42l0,0.4l0-0.1v0.1l0,0l0-0.1v0.1v0l0,0
		h0v0l0,0l0,0l67,67l0,0l0,0l0,0l0,0l0,0l0,0l0,0h0.5l-0.5,0h0v0l0,0h0v0c-8.4,6.8-19.1,10.6-29.9,10.6c-13.1,0-25-5.3-33.7-14
		c-8.6-8.6-14-20.5-14-33.7c0-10.9,3.8-21.5,10.6-29.9L34.5,42.2"/>
	<g>
		<defs>
			<path id="SVGID_49_" d="M63.9,119.3c-21.2-3.6-37.6-21.2-39.4-42.9C26.2,98.2,42.7,115.7,63.9,119.3 M73.2,110.9
				c-2.7,0-5.7-0.3-9-0.9c-17-3.4-22.8-14.5-22.7-16.6c0.1-2.2,4.3-4.3,12.7-8.5c7-3.5,9.7-4.2,11-4.2c0.3,0,0.5,0,0.7,0.1
				c1.2,0.2,0,2.4,0,2.4s0,0-1.3,1.6c-1.3,1.6,0.5,1.6,2,1.6c1.6,0,2.7,0.8,3.5,1.8c0.7,0.8,2,1.6,3.2,1.6c0.3,0,0.5,0,0.8-0.1
				c0.5-0.1,1-0.2,1.5-0.2c0.5,0,1,0,1.5,0.1c0.5,0,0.9,0.1,1.2,0.1c0,0,0,0,0.1,0c0.9,0-0.1-2-0.3-3.7l9.7,9.7
				c1.8,2.5,3.3,4.5,3.6,4.8c0.8,0.8,0,3.6-0.9,4.9C90,106.2,84.3,110.9,73.2,110.9 M38.2,81.6c-1.8,0-2.9-0.8-3.3-1.4
				c-0.6-0.7-6.2-11.5,3-26.3c1.1-1.8,2.3-3.4,3.5-4.9l15,15c-0.2,0.4-0.3,0.9-0.5,1.6c-0.3,1.1-1.2,2.6-2.2,3.1
				c-0.9,0.5,1.6,1.7,4.3,2.9c2.7,1.1,0.2,1.9,0.2,1.9s-15,7-18.1,7.8C39.5,81.5,38.8,81.6,38.2,81.6"/>
		</defs>
		<clipPath id="SVGID_50_">
			<use xlink:href="#SVGID_49_"  style="overflow:visible;"/>
		</clipPath>
		<g class="st16">
			<defs>
				<rect id="SVGID_51_" x="24.4" y="49.1" width="67.9" height="70.3"/>
			</defs>
			<clipPath id="SVGID_52_">
				<use xlink:href="#SVGID_51_"  style="overflow:visible;"/>
			</clipPath>
			<g style="clip-path:url(#SVGID_52_);">
				
					<image style="overflow:visible;" width="148" height="149" xlink:href="FEF9D76108CCD0C5.jpg"  transform="matrix(0.48 0 0 -0.48 23.5505 120.0011)">
				</image>
			</g>
		</g>
	</g>
	<path class="st17" d="M34.8,42.5C28.2,50.6,24.2,61,24.2,72.4c0,26.3,21.3,47.6,47.6,47.6c11.3,0,21.7-4,29.9-10.6l-2.6-2.6
		c-7.5,6-17,9.5-27.3,9.5c-24.3,0-44-19.7-44-44c0-10.3,3.6-19.8,9.5-27.3L34.8,42.5"/>
	<polyline class="st18" points="99.2,106.8 87.9,95.5 87.9,95.5 99.2,106.8 99.2,106.8 	"/>
	<polyline class="st19" points="61.8,69.5 56.4,64.1 56.4,64.1 58.8,66.4 61.8,69.5 	"/>
	<polyline class="st18" points="78.2,85.9 61.8,69.5 58.8,66.4 78.2,85.9 78.2,85.9 	"/>
	<polyline class="st19" points="41.4,49.1 37.4,45.1 37.4,45.1 41.4,49.1 41.4,49.1 	"/>
	<g>
		<defs>
			<path id="SVGID_53_" d="M71.9,116.4c-24.3,0-44-19.7-44-44c0-10.3,3.6-19.8,9.5-27.3l4,4c-1.2,1.5-2.4,3.1-3.5,4.9
				c-9.3,14.8-3.7,25.5-3,26.3c0.5,0.5,1.5,1.4,3.3,1.4c0.6,0,1.3-0.1,2-0.3c3-0.9,18.1-7.8,18.1-7.8s2.5-0.7-0.2-1.9
				c-2.7-1.1-5.3-2.3-4.3-2.9c0.9-0.5,1.9-1.9,2.2-3.1c0.2-0.7,0.3-1.2,0.5-1.6l5.4,5.4l16.4,16.4c0.2,1.7,1.2,3.7,0.3,3.7
				c0,0,0,0-0.1,0c-0.3,0-0.8,0-1.2-0.1c-0.5,0-1-0.1-1.5-0.1c-0.5,0-1,0-1.5,0.2c-0.3,0.1-0.5,0.1-0.8,0.1c-1.3,0-2.6-0.7-3.2-1.6
				c-0.8-1-1.9-1.8-3.5-1.8c-1.6,0-3.3-0.1-2-1.6c1.3-1.6,1.3-1.6,1.3-1.6s1.2-2.2,0-2.4c-0.2,0-0.4-0.1-0.7-0.1
				c-1.4,0-4,0.7-11,4.2c-8.4,4.2-12.6,6.3-12.7,8.5c-0.1,2.2,5.7,13.3,22.7,16.6c3.3,0.7,6.3,0.9,9,0.9c11.1,0,16.8-4.6,17.4-5.7
				c0.8-1.3,1.7-4.2,0.9-4.9c-0.3-0.3-1.8-2.3-3.6-4.8l11.3,11.3C91.7,112.8,82.2,116.4,71.9,116.4"/>
		</defs>
		<clipPath id="SVGID_54_">
			<use xlink:href="#SVGID_53_"  style="overflow:visible;"/>
		</clipPath>
		<g class="st20">
			<defs>
				<rect id="SVGID_55_" x="27.9" y="45.1" width="71.3" height="71.3"/>
			</defs>
			<clipPath id="SVGID_56_">
				<use xlink:href="#SVGID_55_"  style="overflow:visible;"/>
			</clipPath>
			<g style="clip-path:url(#SVGID_56_);">
				
					<image style="overflow:visible;" width="152" height="152" xlink:href="FEF9D76108CCD0C6.jpg"  transform="matrix(0.48 0 0 -0.48 27.2155 117.2232)">
				</image>
			</g>
		</g>
	</g>
	<path class="st4" d="M53.2,66.2c0,0-10.7-6-10.1-0.1C43.7,72.1,50.1,68.2,53.2,66.2L53.2,66.2z"/>
	<path class="st21" d="M53.2,66.2c0,0-10.7-6-10.1-0.1C43.7,72.1,50.1,68.2,53.2,66.2L53.2,66.2z"/>
	<path class="st4" d="M76.7,91.8c0,0,8.5,4.7,5.2,8C78.6,103.1,76,99.7,76.7,91.8L76.7,91.8z"/>
	<path class="st21" d="M76.7,91.8c0,0,8.5,4.7,5.2,8C78.6,103.1,76,99.7,76.7,91.8L76.7,91.8z"/>
	<path class="st4" d="M68.6,91.6c0,0,5.1,9-1.2,10.4C61.2,103.5,67.1,91.2,68.6,91.6L68.6,91.6z"/>
	<path class="st21" d="M68.6,91.6c0,0,5.1,9-1.2,10.4C61.2,103.5,67.1,91.2,68.6,91.6L68.6,91.6z"/>
	<path class="st4" d="M62.1,89.1c0,0-4.8,10.4-7.3,7.2C52.4,93,56.9,88.8,62.1,89.1L62.1,89.1z"/>
	<path class="st21" d="M62.1,89.1c0,0-4.8,10.4-7.3,7.2C52.4,93,56.9,88.8,62.1,89.1L62.1,89.1z"/>
	<g>
		<defs>
			<path id="SVGID_57_" d="M53.2,66.2c0,0-10.7-6-10.1-0.1C43.7,72.1,50.1,68.2,53.2,66.2L53.2,66.2z"/>
		</defs>
		<clipPath id="SVGID_58_">
			<use xlink:href="#SVGID_57_"  style="overflow:visible;"/>
		</clipPath>
		<g class="st22">
			<defs>
				<rect id="SVGID_59_" x="42.5" y="60.3" width="10.7" height="11.8"/>
			</defs>
			<clipPath id="SVGID_60_">
				<use xlink:href="#SVGID_59_"  style="overflow:visible;"/>
			</clipPath>
			<g style="clip-path:url(#SVGID_60_);">
				
					<image style="overflow:visible;" width="28" height="28" xlink:href="FEF9D76108CCD0C7.jpg"  transform="matrix(0.48 0 0 -0.48 41.1244 73.1831)">
				</image>
			</g>
		</g>
	</g>
	<g>
		<defs>
			<path id="SVGID_61_" d="M76.7,91.8c0,0,8.5,4.7,5.2,8C78.6,103.1,76,99.7,76.7,91.8L76.7,91.8z"/>
		</defs>
		<clipPath id="SVGID_62_">
			<use xlink:href="#SVGID_61_"  style="overflow:visible;"/>
		</clipPath>
		<g class="st23">
			<defs>
				<rect id="SVGID_63_" x="76" y="91.8" width="9.2" height="11.2"/>
			</defs>
			<clipPath id="SVGID_64_">
				<use xlink:href="#SVGID_63_"  style="overflow:visible;"/>
			</clipPath>
			<g style="clip-path:url(#SVGID_64_);">
				
					<image style="overflow:visible;" width="24" height="28" xlink:href="FEF9D76108CCD0C9.jpg"  transform="matrix(0.48 0 0 -0.48 74.954 104.3376)">
				</image>
			</g>
		</g>
	</g>
	<g>
		<defs>
			<path id="SVGID_65_" d="M68.6,91.6c0,0,5.1,9-1.2,10.4C61.2,103.5,67.1,91.2,68.6,91.6L68.6,91.6z"/>
		</defs>
		<clipPath id="SVGID_66_">
			<use xlink:href="#SVGID_65_"  style="overflow:visible;"/>
		</clipPath>
		<g class="st24">
			<defs>
				<rect id="SVGID_67_" x="61.2" y="91.2" width="12.6" height="12.2"/>
			</defs>
			<clipPath id="SVGID_68_">
				<use xlink:href="#SVGID_67_"  style="overflow:visible;"/>
			</clipPath>
			<g style="clip-path:url(#SVGID_68_);">
				
					<image style="overflow:visible;" width="32" height="30" xlink:href="FEF9D76108CCD0CB.jpg"  transform="matrix(0.48 0 0 -0.48 59.9688 104.7494)">
				</image>
			</g>
		</g>
	</g>
	<g>
		<defs>
			<path id="SVGID_69_" d="M62.1,89.1c0,0-4.8,10.4-7.3,7.2C52.4,93,56.9,88.8,62.1,89.1L62.1,89.1z"/>
		</defs>
		<clipPath id="SVGID_70_">
			<use xlink:href="#SVGID_69_"  style="overflow:visible;"/>
		</clipPath>
		<g class="st25">
			<defs>
				<rect id="SVGID_71_" x="52.4" y="88.8" width="9.8" height="10.8"/>
			</defs>
			<clipPath id="SVGID_72_">
				<use xlink:href="#SVGID_71_"  style="overflow:visible;"/>
			</clipPath>
			<g style="clip-path:url(#SVGID_72_);">
				
					<image style="overflow:visible;" width="28" height="26" xlink:href="FEF9D76108CCD0CE.jpg"  transform="matrix(0.48 0 0 -0.48 51.2978 100.7079)">
				</image>
			</g>
		</g>
	</g>
	<g>
		<defs>
			<path id="SVGID_73_" d="M37.4,45.1c-6,7.5-9.5,17-9.5,27.3c0,24.3,19.7,44,44,44c10.3,0,19.8-3.6,27.3-9.5L87.9,95.5
				c1.8,2.5,3.3,4.5,3.6,4.8c0.8,0.8,0,3.6-0.9,4.9c-0.8,1.3-9.4,8.1-26.4,4.7c-17-3.4-22.8-14.5-22.7-16.6
				c0.1-2.2,4.3-4.3,12.7-8.5c8.4-4.2,10.5-4.3,11.7-4.1c1.2,0.2,0,2.4,0,2.4s0,0-1.3,1.6c-1.3,1.6,0.5,1.6,2,1.6
				c1.6,0,2.7,0.8,3.5,1.8c0.8,1,2.6,1.9,4.1,1.5c1.5-0.4,3.3,0,4.3,0c0.9,0-0.1-2-0.3-3.7L56.4,64.1c-0.2,0.4-0.3,0.9-0.5,1.6
				c-0.3,1.1-1.2,2.6-2.2,3.1c-0.9,0.5,1.6,1.7,4.3,2.9c2.7,1.1,0.2,1.9,0.2,1.9s-15,7-18.1,7.8c-3,0.9-4.7-0.3-5.3-1.1
				c-0.6-0.7-6.2-11.5,3-26.3c1.1-1.8,2.3-3.4,3.5-4.9L37.4,45.1L37.4,45.1z"/>
		</defs>
		<clipPath id="SVGID_74_">
			<use xlink:href="#SVGID_73_"  style="overflow:visible;"/>
		</clipPath>
		<g class="st26">
			<defs>
				<rect id="SVGID_75_" x="27.9" y="45.1" width="71.3" height="71.3"/>
			</defs>
			<clipPath id="SVGID_76_">
				<use xlink:href="#SVGID_75_"  style="overflow:visible;"/>
			</clipPath>
			<g style="clip-path:url(#SVGID_76_);">
				
					<image style="overflow:visible;" width="152" height="152" xlink:href="FEF9D76108CCD0E2.jpg"  transform="matrix(0.48 0 0 -0.48 27.2155 117.2232)">
				</image>
			</g>
		</g>
	</g>
</g>
</svg>
