<?xml version="1.0" encoding="utf-8"?>
<!-- Generator: Adobe Illustrator 21.0.2, SVG Export Plug-In . SVG Version: 6.00 Build 0)  -->
<svg version="1.1" id="Layer_1" xmlns="http://www.w3.org/2000/svg" xmlns:xlink="http://www.w3.org/1999/xlink" x="0px" y="0px"
	 viewBox="0 0 144 144" style="enable-background:new 0 0 144 144;" xml:space="preserve">
<style type="text/css">
	.st0{clip-path:url(#SVGID_2_);}
	.st1{clip-path:url(#SVGID_6_);}
	.st2{clip-path:url(#SVGID_10_);}
	.st3{fill:#B54D41;}
	.st4{fill:#FFFFFF;}
	.st5{fill:#A71E27;}
	.st6{clip-path:url(#SVGID_14_);}
	.st7{clip-path:url(#SVGID_18_);}
	.st8{clip-path:url(#SVGID_22_);}
	.st9{clip-path:url(#SVGID_30_);}
	.st10{fill:none;stroke:#9C1B23;stroke-width:0.9231;stroke-linejoin:round;stroke-miterlimit:10;}
	.st11{clip-path:url(#SVGID_34_);}
	.st12{clip-path:url(#SVGID_38_);}
	.st13{clip-path:url(#SVGID_42_);}
	.st14{clip-path:url(#SVGID_46_);}
	.st15{fill:#A4B67E;}
	.st16{clip-path:url(#SVGID_50_);}
	.st17{fill:#8AA65A;}
	.st18{fill:#EEF6E9;}
	.st19{fill:#BECDA2;}
	.st20{clip-path:url(#SVGID_54_);}
	.st21{fill:none;stroke:#71973E;stroke-width:0.9231;stroke-linejoin:round;stroke-miterlimit:10;}
	.st22{clip-path:url(#SVGID_58_);}
	.st23{clip-path:url(#SVGID_62_);}
	.st24{clip-path:url(#SVGID_66_);}
	.st25{clip-path:url(#SVGID_70_);}
	.st26{clip-path:url(#SVGID_74_);}
	.st27{clip-path:url(#SVGID_78_);}
	.st28{clip-path:url(#SVGID_82_);}
	.st29{fill:#FFE885;}
	.st30{clip-path:url(#SVGID_86_);}
	.st31{clip-path:url(#SVGID_90_);}
	.st32{clip-path:url(#SVGID_94_);}
	.st33{clip-path:url(#SVGID_98_);}
	.st34{clip-path:url(#SVGID_102_);}
	.st35{clip-path:url(#SVGID_106_);}
	.st36{clip-path:url(#SVGID_110_);}
	.st37{clip-path:url(#SVGID_114_);}
	.st38{fill:#E0EFD5;}
	.st39{clip-path:url(#SVGID_118_);}
	.st40{clip-path:url(#SVGID_122_);}
	.st41{fill:none;stroke:#ABA6A6;stroke-width:3.8246;}
	.st42{fill:none;stroke:#706B6B;stroke-width:2.3904;}
	.st43{fill:#6FBE46;}
	.st44{fill:none;stroke:#000000;stroke-width:0.9562;}
	.st45{fill:none;stroke:#575454;stroke-width:0.9562;stroke-linejoin:round;}
	.st46{clip-path:url(#SVGID_126_);}
	.st47{clip-path:url(#SVGID_130_);}
	.st48{fill:#FDDD10;}
	.st49{clip-path:url(#SVGID_136_);}
	
		.st50{clip-path:url(#SVGID_140_);fill:none;stroke:#575454;stroke-width:1.0454;stroke-linecap:round;stroke-linejoin:round;stroke-miterlimit:10;}
	
		.st51{clip-path:url(#SVGID_140_);fill:none;stroke:#000000;stroke-width:4.1817;stroke-linecap:round;stroke-linejoin:round;stroke-miterlimit:10;}
	.st52{fill:none;stroke:#FFFFFF;stroke-width:1.7077;stroke-linecap:round;stroke-linejoin:round;stroke-miterlimit:10;}
	.st53{fill:none;stroke:#000000;stroke-width:4.1817;stroke-linecap:round;stroke-linejoin:round;stroke-miterlimit:10;}
	.st54{clip-path:url(#SVGID_142_);}
	.st55{clip-path:url(#SVGID_146_);}
	.st56{clip-path:url(#SVGID_150_);}
	.st57{clip-path:url(#SVGID_154_);}
	.st58{clip-path:url(#SVGID_158_);}
	.st59{clip-path:url(#SVGID_162_);}
	.st60{clip-path:url(#SVGID_166_);}
	.st61{clip-path:url(#SVGID_170_);}
	.st62{clip-path:url(#SVGID_176_);}
	.st63{clip-path:url(#SVGID_182_);}
	.st64{clip-path:url(#SVGID_186_);}
	.st65{clip-path:url(#SVGID_190_);}
	.st66{clip-path:url(#SVGID_194_);}
	.st67{clip-path:url(#SVGID_198_);}
	.st68{clip-path:url(#SVGID_202_);}
	.st69{clip-path:url(#SVGID_206_);}
	.st70{clip-path:url(#SVGID_210_);}
	.st71{clip-path:url(#SVGID_216_);}
	.st72{clip-path:url(#SVGID_220_);}
	.st73{clip-path:url(#SVGID_226_);}
	.st74{clip-path:url(#SVGID_230_);}
	.st75{clip-path:url(#SVGID_236_);}
	.st76{clip-path:url(#SVGID_240_);}
	.st77{clip-path:url(#SVGID_244_);}
	.st78{clip-path:url(#SVGID_248_);}
	.st79{clip-path:url(#SVGID_254_);}
	.st80{clip-path:url(#SVGID_258_);}
	.st81{clip-path:url(#SVGID_262_);}
	.st82{clip-path:url(#SVGID_266_);}
	.st83{clip-path:url(#SVGID_270_);}
	.st84{clip-path:url(#SVGID_274_);}
	.st85{clip-path:url(#SVGID_278_);}
	.st86{clip-path:url(#SVGID_282_);}
	.st87{clip-path:url(#SVGID_286_);}
	.st88{clip-path:url(#SVGID_290_);}
	.st89{clip-path:url(#SVGID_294_);}
	.st90{clip-path:url(#SVGID_298_);}
	.st91{clip-path:url(#SVGID_304_);}
	.st92{clip-path:url(#SVGID_308_);}
	.st93{clip-path:url(#SVGID_314_);}
	.st94{clip-path:url(#SVGID_320_);}
	.st95{clip-path:url(#SVGID_324_);}
	.st96{fill:#706B6B;}
	.st97{clip-path:url(#SVGID_328_);}
	.st98{clip-path:url(#SVGID_334_);}
	.st99{fill:#567EBF;}
</style>
<g>
	<path class="st38" d="M127.4,125.8v-5.3V61.9v-5.8V22.3c0-5.7-5-5.7-5-5.7h-104c-1.5,0.3-4.1,1.3-4.1,5v102.3c0,0,0,5.1,5.1,5.1
		h98.9h4.4C122.6,128.9,126.3,128.9,127.4,125.8L127.4,125.8z M81.1,124.4c0-1.5,1.2-2.7,2.7-2.7c1.5,0,2.7,1.2,2.7,2.7
		c0,1.5-1.2,2.7-2.7,2.7C82.3,127,81.1,125.9,81.1,124.4L81.1,124.4z M56.5,109.1c0.7,1.7,1.6,3.2,2.7,4.5c-0.3,0.2-0.7,0.3-1.1,0.4
		c-1.5,0.1-2.7-1-2.9-2.4C55.2,110.6,55.7,109.6,56.5,109.1L56.5,109.1z M56.2,87.6c-0.6-0.5-0.9-1.2-0.9-2c0-0.8,0.3-1.4,0.8-1.9
		c0,0.3,0.1,0.6,0.1,0.9C56.3,85.3,56.3,86.4,56.2,87.6L56.2,87.6z M21.7,59.8c0,1.5-1.2,2.7-2.7,2.7s-2.7-1.2-2.7-2.7
		c0-1.5,1.2-2.7,2.7-2.7S21.7,58.4,21.7,59.8L21.7,59.8z M21.7,72.7c0,1.5-1.2,2.7-2.7,2.7s-2.7-1.2-2.7-2.7c0-1.5,1.2-2.7,2.7-2.7
		S21.7,71.3,21.7,72.7L21.7,72.7z M21.7,85.7c0,1.5-1.2,2.7-2.7,2.7s-2.7-1.2-2.7-2.7c0-1.5,1.2-2.7,2.7-2.7S21.7,84.2,21.7,85.7
		L21.7,85.7z M34.7,46.9c0,1.5-1.2,2.7-2.7,2.7c-1.5,0-2.7-1.2-2.7-2.7s1.2-2.7,2.7-2.7C33.5,44.3,34.7,45.5,34.7,46.9L34.7,46.9z
		 M34.7,59.8c0,1.5-1.2,2.7-2.7,2.7c-1.5,0-2.7-1.2-2.7-2.7c0-1.5,1.2-2.7,2.7-2.7C33.5,57.2,34.7,58.4,34.7,59.8L34.7,59.8z
		 M34.7,72.7c0,1.5-1.2,2.7-2.7,2.7c-1.5,0-2.7-1.2-2.7-2.7c0-1.5,1.2-2.7,2.7-2.7C33.5,70.1,34.7,71.3,34.7,72.7L34.7,72.7z
		 M34.7,85.7c0,1.5-1.2,2.7-2.7,2.7c-1.5,0-2.7-1.2-2.7-2.7c0-1.5,1.2-2.7,2.7-2.7C33.5,83,34.7,84.2,34.7,85.7L34.7,85.7z
		 M34.7,98.6c0,1.5-1.2,2.7-2.7,2.7c-1.5,0-2.7-1.2-2.7-2.7c0-1.5,1.2-2.7,2.7-2.7C33.5,95.9,34.7,97.1,34.7,98.6L34.7,98.6z
		 M47.6,34c0,1.5-1.2,2.7-2.7,2.7c-1.5,0-2.7-1.2-2.7-2.7c0-1.5,1.2-2.7,2.7-2.7C46.4,31.4,47.6,32.5,47.6,34L47.6,34z M47.6,46.9
		c0,1.5-1.2,2.7-2.7,2.7c-1.5,0-2.7-1.2-2.7-2.7s1.2-2.7,2.7-2.7C46.4,44.3,47.6,45.5,47.6,46.9L47.6,46.9z M47.6,59.8
		c0,1.5-1.2,2.7-2.7,2.7c-1.5,0-2.7-1.2-2.7-2.7c0-1.5,1.2-2.7,2.7-2.7C46.4,57.2,47.6,58.4,47.6,59.8L47.6,59.8z M47.6,72.7
		c0,1.5-1.2,2.7-2.7,2.7c-1.5,0-2.7-1.2-2.7-2.7c0-1.5,1.2-2.7,2.7-2.7C46.4,70.1,47.6,71.3,47.6,72.7L47.6,72.7z M47.6,85.7
		c0,1.5-1.2,2.7-2.7,2.7c-1.5,0-2.7-1.2-2.7-2.7c0-1.5,1.2-2.7,2.7-2.7C46.4,83,47.6,84.2,47.6,85.7L47.6,85.7z M47.6,98.6
		c0,1.5-1.2,2.7-2.7,2.7c-1.5,0-2.7-1.2-2.7-2.7c0-1.5,1.2-2.7,2.7-2.7C46.4,95.9,47.6,97.1,47.6,98.6L47.6,98.6z M47.6,111.5
		c0,1.5-1.2,2.7-2.7,2.7c-1.5,0-2.7-1.2-2.7-2.7c0-1.5,1.2-2.7,2.7-2.7C46.4,108.8,47.6,110,47.6,111.5L47.6,111.5z M55.2,33.9
		c0.1-1.5,1.4-2.6,2.8-2.5c0.6,0,1.1,0.3,1.6,0.7c-1.2,1.2-2.3,2.6-3.4,4.1C55.6,35.6,55.2,34.8,55.2,33.9L55.2,33.9z M60.6,21.1
		c0,1.5-1.2,2.7-2.7,2.7c-1.5,0-2.7-1.2-2.7-2.7c0-1.5,1.2-2.7,2.7-2.7C59.4,18.4,60.6,19.6,60.6,21.1L60.6,21.1z M60.6,124.4
		c0,1.5-1.2,2.7-2.7,2.7c-1.5,0-2.7-1.2-2.7-2.7c0-1.5,1.2-2.7,2.7-2.7C59.4,121.7,60.6,122.9,60.6,124.4L60.6,124.4z M73.5,21.1
		c0,1.5-1.2,2.7-2.7,2.7c-1.5,0-2.7-1.2-2.7-2.7c0-1.5,1.2-2.7,2.7-2.7C72.3,18.4,73.5,19.6,73.5,21.1L73.5,21.1z M73.5,124.4
		c0,1.5-1.2,2.7-2.7,2.7c-1.5,0-2.7-1.2-2.7-2.7c0-1.5,1.2-2.7,2.7-2.7C72.3,121.7,73.5,122.9,73.5,124.4L73.5,124.4z M86.5,21.1
		c0,1.5-1.2,2.7-2.7,2.7c-1.5,0-2.7-1.2-2.7-2.7c0-1.5,1.2-2.7,2.7-2.7C85.3,18.4,86.5,19.6,86.5,21.1L86.5,21.1z M86.5,33.9
		c0,0.4-0.1,0.8-0.2,1.2c-0.8-1.3-1.7-2.6-2.8-3.6c0.1,0,0.1,0,0.1,0C85.1,31.3,86.4,32.4,86.5,33.9L86.5,33.9z M86.5,85.7
		c0,1.1-0.6,2-1.6,2.4c-0.1-1.9-0.3-3.3-0.3-5C85.7,83.4,86.5,84.5,86.5,85.7L86.5,85.7z M86.5,111.6c-0.2,1.5-1.5,2.5-3,2.3
		c0,0-0.1,0-0.1,0c1.2-1.1,2-2.5,2.7-3.9C86.4,110.5,86.6,111,86.5,111.6L86.5,111.6z M99.4,34c0,1.5-1.2,2.7-2.7,2.7
		c-1.5,0-2.7-1.2-2.7-2.7c0-1.5,1.2-2.7,2.7-2.7C98.2,31.4,99.4,32.5,99.4,34L99.4,34z M99.4,46.9c0,1.5-1.2,2.7-2.7,2.7
		c-1.5,0-2.7-1.2-2.7-2.7s1.2-2.7,2.7-2.7C98.2,44.3,99.4,45.5,99.4,46.9L99.4,46.9z M99.4,59.8c0,1.5-1.2,2.7-2.7,2.7
		c-1.5,0-2.7-1.2-2.7-2.7c0-1.5,1.2-2.7,2.7-2.7C98.2,57.2,99.4,58.4,99.4,59.8L99.4,59.8z M99.4,72.7c0,1.5-1.2,2.7-2.7,2.7
		c-1.5,0-2.7-1.2-2.7-2.7c0-1.5,1.2-2.7,2.7-2.7C98.2,70.1,99.4,71.3,99.4,72.7L99.4,72.7z M99.4,85.7c0,1.5-1.2,2.7-2.7,2.7
		c-1.5,0-2.7-1.2-2.7-2.7c0-1.5,1.2-2.7,2.7-2.7C98.2,83,99.4,84.2,99.4,85.7L99.4,85.7z M99.4,98.6c0,1.5-1.2,2.7-2.7,2.7
		c-1.5,0-2.7-1.2-2.7-2.7c0-1.5,1.2-2.7,2.7-2.7C98.2,95.9,99.4,97.1,99.4,98.6L99.4,98.6z M99.4,111.5c0,1.5-1.2,2.7-2.7,2.7
		c-1.5,0-2.7-1.2-2.7-2.7c0-1.5,1.2-2.7,2.7-2.7C98.2,108.8,99.4,110,99.4,111.5L99.4,111.5z M112.4,46.9c0,1.5-1.2,2.7-2.7,2.7
		c-1.5,0-2.7-1.2-2.7-2.7s1.2-2.7,2.7-2.7C111.2,44.3,112.4,45.5,112.4,46.9L112.4,46.9z M112.4,59.8c0,1.5-1.2,2.7-2.7,2.7
		c-1.5,0-2.7-1.2-2.7-2.7c0-1.5,1.2-2.7,2.7-2.7C111.2,57.2,112.4,58.4,112.4,59.8L112.4,59.8z M112.4,72.7c0,1.5-1.2,2.7-2.7,2.7
		c-1.5,0-2.7-1.2-2.7-2.7c0-1.5,1.2-2.7,2.7-2.7C111.2,70.1,112.4,71.3,112.4,72.7L112.4,72.7z M112.4,85.7c0,1.5-1.2,2.7-2.7,2.7
		c-1.5,0-2.7-1.2-2.7-2.7c0-1.5,1.2-2.7,2.7-2.7C111.2,83,112.4,84.2,112.4,85.7L112.4,85.7z M112.4,98.6c0,1.5-1.2,2.7-2.7,2.7
		c-1.5,0-2.7-1.2-2.7-2.7c0-1.5,1.2-2.7,2.7-2.7C111.2,95.9,112.4,97.1,112.4,98.6L112.4,98.6z M125.3,59.8c0,1.5-1.2,2.7-2.7,2.7
		s-2.7-1.2-2.7-2.7c0-1.5,1.2-2.7,2.7-2.7S125.3,58.4,125.3,59.8L125.3,59.8z M125.3,72.7c0,1.5-1.2,2.7-2.7,2.7s-2.7-1.2-2.7-2.7
		c0-1.5,1.2-2.7,2.7-2.7S125.3,71.3,125.3,72.7L125.3,72.7z M125.3,85.7c0,1.5-1.2,2.7-2.7,2.7s-2.7-1.2-2.7-2.7
		c0-1.5,1.2-2.7,2.7-2.7S125.3,84.2,125.3,85.7L125.3,85.7z"/>
	<g>
		<defs>
			<path id="SVGID_117_" d="M135.7,132.2V13.3c0,0,0-5.3-5.3-5.3H11.3c0,0-5.3,0-5.3,5.3v118.9c0,0,0,5.3,5.3,5.3h119.1
				C130.4,137.5,135.7,137.5,135.7,132.2L135.7,132.2z M129.9,126c0,5.3-5.3,5.3-5.3,5.3H17.1c-5.3,0-5.3-5.3-5.3-5.3V19.5
				c0-5.3,5.3-5.3,5.3-5.3h107.5c5.3,0,5.3,5.3,5.3,5.3V126L129.9,126z"/>
		</defs>
		<clipPath id="SVGID_2_">
			<use xlink:href="#SVGID_117_"  style="overflow:visible;"/>
		</clipPath>
		<g class="st0">
			<defs>
				<rect id="SVGID_119_" x="6" y="8" width="129.7" height="129.5"/>
			</defs>
			<clipPath id="SVGID_4_">
				<use xlink:href="#SVGID_119_"  style="overflow:visible;"/>
			</clipPath>
			<g style="clip-path:url(#SVGID_4_);">
				
					<image style="overflow:visible;" width="276" height="272" xlink:href="59FBE9C22152A05E.jpg"  transform="matrix(0.48 0 0 -0.48 5.0959 138.0338)">
				</image>
			</g>
		</g>
	</g>
	<g>
		<defs>
			<path id="SVGID_121_" d="M127.4,125.8v-5.3V61.9v-5.8V22.3c0-5.7-5-5.7-5-5.7h-3.9v1.1l-0.1,0.2l-0.8-1.3h-0.8l1.1,1.7l-2.2,3.3
				l-2.2-3.3l1.1-1.7h-0.9l-0.8,1.3l-0.8-1.3h-0.8l1.1,1.7l-2.2,3.3l-2.2-3.3l1.1-1.7h-0.8l-0.8,1.3l-0.8-1.3h-0.8l1.1,1.7l-2.2,3.3
				l-2.2-3.3l1.1-1.7h-0.8l-0.8,1.3l-0.1-0.2v-1.1H40.4v1.1l-0.1,0.2l-0.8-1.3h-0.8l1.1,1.7l-2.2,3.3l-2.2-3.3l1.1-1.7h-0.8
				l-0.8,1.3l-0.8-1.3h-0.8l1.1,1.7L32,21.5l-2.2-3.3l1.1-1.7h-0.8l-0.8,1.3l-0.8-1.3h-0.8l1.1,1.7l-2.2,3.3l-2.2-3.3l1.1-1.7h-0.8
				l-0.8,1.3l-0.1-0.2v-1.1h-5.1c-1.5,0.3-4.1,1.3-4.1,5v102.3c0,0,0,5.1,5.1,5.1h4.3l0,0l0,0h0.8l-0.3-0.4l2.2-3.3l2.2,3.3
				l-0.3,0.4h0.8l0,0l0,0h0.8l-0.3-0.4l2.2-3.3l2.2,3.3l-0.3,0.4h0.8l0,0l0,0h0.8l-0.3-0.4l2.2-3.3l2.2,3.3l-0.3,0.4h0.8l0,0l0,0
				h61.6l0,0l0,0h0.8l-0.3-0.4l2.2-3.3l2.2,3.3l-0.3,0.4h0.9l0,0l0,0h0.9l-0.3-0.4l2.2-3.3l2.2,3.3l-0.3,0.4h0.8l0,0l0,0h0.8
				l-0.3-0.4l2.2-3.3l2.2,3.3l-0.3,0.4h0.7h0.1l0,0l0,0h4.2C122.6,128.9,126.3,128.9,127.4,125.8L127.4,125.8z M21.7,59.8
				c0,1.5-1.2,2.7-2.7,2.7s-2.7-1.2-2.7-2.7c0-1.5,1.2-2.7,2.7-2.7S21.7,58.4,21.7,59.8L21.7,59.8z M21.7,72.7
				c0,1.5-1.2,2.7-2.7,2.7s-2.7-1.2-2.7-2.7c0-1.5,1.2-2.7,2.7-2.7S21.7,71.3,21.7,72.7L21.7,72.7z M21.7,85.7
				c0,1.5-1.2,2.7-2.7,2.7s-2.7-1.2-2.7-2.7c0-1.5,1.2-2.7,2.7-2.7S21.7,84.2,21.7,85.7L21.7,85.7z M81.1,124.4
				c0-1.5,1.2-2.7,2.7-2.7c1.5,0,2.7,1.2,2.7,2.7c0,1.5-1.2,2.7-2.7,2.7C82.3,127,81.1,125.9,81.1,124.4L81.1,124.4z M68.2,124.4
				c0-1.5,1.2-2.7,2.7-2.7c1.5,0,2.7,1.2,2.7,2.7c0,1.5-1.2,2.7-2.7,2.7C69.4,127,68.2,125.9,68.2,124.4L68.2,124.4z M55.3,124.4
				c0-1.5,1.2-2.7,2.7-2.7c1.5,0,2.7,1.2,2.7,2.7c0,1.5-1.2,2.7-2.7,2.7C56.4,127,55.3,125.9,55.3,124.4L55.3,124.4z M37.5,124.5
				l-2.2-3.3l2.2-3.3l2.2,3.3L37.5,124.5L37.5,124.5z M32,37l2.2,3.3L32,43.6l-2.2-3.3L32,37L32,37z M29.2,39.9l-2.2-3.3l2.2-3.3
				l2.2,3.3L29.2,39.9L29.2,39.9z M32.6,36.6l2.2-3.3l2.2,3.3l-2.2,3.3L32.6,36.6L32.6,36.6z M34.7,40.7l2.2,3.3l-2.2,3.3l-0.1-0.1
				c-0.1,1-0.7,1.9-1.7,2.3l-1,1.5l-1-1.6c-0.9-0.4-1.5-1.3-1.6-2.3l-0.2,0.2l-2.2-3.3l2.2-3.3l2.2,3.3L31,44.5
				c0.3-0.1,0.6-0.2,1-0.2c0.3,0,0.6,0.1,0.9,0.2l-0.3-0.5L34.7,40.7L34.7,40.7z M29.2,48l2.2,3.3l-2.2,3.3l-2.2-3.3L29.2,48
				L29.2,48z M34.7,48l2.2,3.3l-2.2,3.3l-2.2-3.3L34.7,48L34.7,48z M34.7,55.4l2.2,3.3l-2.2,3.3l-0.5-0.7c-0.1,0.2-0.3,0.4-0.5,0.6
				l0.4,0.5L32,65.6l-2.2-3.3l0.4-0.6c-0.2-0.2-0.3-0.4-0.5-0.6l-0.5,0.8l-2.2-3.3l2.2-3.3l1.4,2.2c0.2-0.1,0.4-0.2,0.7-0.3L29.8,55
				l2.2-3.3l2.2,3.3l-1.5,2.3c0.2,0.1,0.5,0.2,0.7,0.3L34.7,55.4L34.7,55.4z M29.2,62.7l2.2,3.3l-2.2,3.3L27.1,66L29.2,62.7
				L29.2,62.7z M34.7,62.7l2.2,3.3l-2.2,3.3L32.6,66L34.7,62.7L34.7,62.7z M34.7,70.1l2.2,3.3l-2.2,3.3l-1.2-1.8
				c-0.2,0.1-0.4,0.3-0.6,0.3l1.2,1.8L32,80.3L29.8,77l1.2-1.8c-0.2-0.1-0.4-0.2-0.6-0.4l-1.2,1.8l-2.2-3.3l2.2-3.3l0.7,1.1
				c0.1-0.2,0.3-0.4,0.5-0.5l-0.6-0.9l2.2-3.3l2.2,3.3l-0.6,0.9c0.2,0.1,0.4,0.3,0.5,0.5L34.7,70.1L34.7,70.1z M29.2,77.4l2.2,3.3
				L29.2,84l-2.2-3.3L29.2,77.4L29.2,77.4z M34.7,77.4l2.2,3.3L34.7,84l-2.2-3.3L34.7,77.4L34.7,77.4z M34.7,84.8l2.2,3.3l-2.2,3.3
				l-2.1-3.1c-0.2,0.1-0.4,0.1-0.7,0.1c-0.3,0-0.5,0-0.7-0.1l-2.1,3.2l-2.2-3.3l2.2-3.3l0.2,0.3c0.1-0.6,0.5-1.1,0.9-1.5l1.7-2.5
				l1.6,2.4c0.5,0.4,0.9,0.9,1,1.5L34.7,84.8L34.7,84.8z M32,88.5l2.2,3.3L32,95l-2.2-3.3L32,88.5L32,88.5z M34.7,92.1l2.2,3.3
				l-2.2,3.3l-0.1-0.1c0,1.2-0.8,2.1-1.8,2.5l-0.9,1.3l-0.9-1.4c-1-0.4-1.7-1.3-1.7-2.5c0,0,0,0,0-0.1l-0.1,0.2l-2.2-3.3l2.2-3.3
				l2.2,3.3l-0.5,0.7c0.3-0.1,0.6-0.2,1-0.2l0.1-0.1l0.1,0.1c0.3,0,0.7,0.1,1,0.2l-0.4-0.7L34.7,92.1L34.7,92.1z M31.4,110.1
				l-2.2,3.3l-2.2-3.3l2.2-3.3L31.4,110.1L31.4,110.1z M29.8,106.5l2.2-3.3l2.2,3.3l-2.2,3.3L29.8,106.5L29.8,106.5z M29.2,106.1
				l-2.2-3.3l2.2-3.3l2.2,3.3L29.2,106.1L29.2,106.1z M34.7,99.5l2.2,3.3l-2.2,3.3l-2.2-3.3L34.7,99.5L34.7,99.5z M34.7,106.8
				l2.2,3.3l-2.2,3.3l-2.2-3.3L34.7,106.8L34.7,106.8z M34.7,114.2l2.2,3.3l-2.2,3.3l-2.2-3.3L34.7,114.2L34.7,114.2z M32,117.1
				l-2.2-3.3l2.2-3.3l2.2,3.3L32,117.1L32,117.1z M31.4,117.5l-2.2,3.3l-2.2-3.3l2.2-3.3L31.4,117.5L31.4,117.5z M26.5,117.1
				l-2.2-3.3l2.2-3.3l2.2,3.3L26.5,117.1L26.5,117.1z M26.5,109.8l-2.2-3.3l2.2-3.3l2.2,3.3L26.5,109.8L26.5,109.8z M26.5,102.4
				l-2.2-3.3l2.2-3.3l2.2,3.3L26.5,102.4L26.5,102.4z M26.5,95l-2.2-3.3l2.2-3.3l2.2,3.3L26.5,95L26.5,95z M26.5,87.7l-2.2-3.3
				l2.2-3.3l2.2,3.3L26.5,87.7L26.5,87.7z M26.5,80.3L24.3,77l2.2-3.3l2.2,3.3L26.5,80.3L26.5,80.3z M26.5,73l-2.2-3.3l2.2-3.3
				l2.2,3.3L26.5,73L26.5,73z M26.5,65.6l-2.2-3.3l2.2-3.3l2.2,3.3L26.5,65.6L26.5,65.6z M26.5,58.3L24.3,55l2.2-3.3l2.2,3.3
				L26.5,58.3L26.5,58.3z M26.5,50.9l-2.2-3.3l2.2-3.3l2.2,3.3L26.5,50.9L26.5,50.9z M26.5,43.6l-2.2-3.3l2.2-3.3l2.2,3.3L26.5,43.6
				L26.5,43.6z M26.5,36.2l-2.2-3.3l2.2-3.3l2.2,3.3L26.5,36.2L26.5,36.2z M27.1,29.2l2.2-3.3l2.2,3.3l-2.2,3.3L27.1,29.2L27.1,29.2
				z M32,29.6l2.2,3.3L32,36.2l-2.2-3.3L32,29.6L32,29.6z M32.6,29.2l2.2-3.3l2.2,3.3l-2.2,3.3L32.6,29.2L32.6,29.2z M37.5,29.6
				l2.2,3.3l-2.2,3.3l-2.2-3.3L37.5,29.6L37.5,29.6z M37.5,37l2.2,3.3l-2.2,3.3l-2.2-3.3L37.5,37L37.5,37z M37.5,44.3l2.2,3.3
				l-2.2,3.3l-2.2-3.3L37.5,44.3L37.5,44.3z M37.5,51.7l2.2,3.3l-2.2,3.3L35.3,55L37.5,51.7L37.5,51.7z M37.5,59l2.2,3.3l-2.2,3.3
				l-2.2-3.3L37.5,59L37.5,59z M37.5,66.4l2.2,3.3L37.5,73l-2.2-3.3L37.5,66.4L37.5,66.4z M37.5,73.7l2.2,3.3l-2.2,3.3L35.3,77
				L37.5,73.7L37.5,73.7z M37.5,81.1l2.2,3.3l-2.2,3.3l-2.2-3.3L37.5,81.1L37.5,81.1z M37.5,88.5l2.2,3.3L37.5,95l-2.2-3.3
				L37.5,88.5L37.5,88.5z M37.5,95.8l2.2,3.3l-2.2,3.3l-2.2-3.3L37.5,95.8L37.5,95.8z M37.5,103.2l2.2,3.3l-2.2,3.3l-2.2-3.3
				L37.5,103.2L37.5,103.2z M37.5,110.5l2.2,3.3l-2.2,3.3l-2.2-3.3L37.5,110.5L37.5,110.5z M32.6,124.8l2.2-3.3l2.2,3.3l-2.2,3.3
				L32.6,124.8L32.6,124.8z M32,124.5l-2.2-3.3l2.2-3.3l2.2,3.3L32,124.5L32,124.5z M27.1,124.8l2.2-3.3l2.2,3.3l-2.2,3.3
				L27.1,124.8L27.1,124.8z M26.5,124.5l-2.2-3.3l2.2-3.3l2.2,3.3L26.5,124.5L26.5,124.5z M23.6,121.8l0.1-0.2l2.2,3.3l-2.2,3.3
				l-0.1-0.2V121.8L23.6,121.8z M23.6,114.4l0.1-0.2l2.2,3.3l-2.2,3.3l-0.1-0.2V114.4L23.6,114.4z M23.6,107l0.1-0.2l2.2,3.3
				l-2.2,3.3l-0.1-0.2V107L23.6,107z M23.6,99.7l0.1-0.2l2.2,3.3l-2.2,3.3l-0.1-0.2V99.7L23.6,99.7z M23.6,92.3l0.1-0.2l2.2,3.3
				l-2.2,3.3l-0.1-0.2V92.3L23.6,92.3z M23.6,85l0.1-0.2l2.2,3.3l-2.2,3.3l-0.1-0.2V85L23.6,85z M23.6,77.6l0.1-0.2l2.2,3.3L23.7,84
				l-0.1-0.2V77.6L23.6,77.6z M23.6,70.3l0.1-0.2l2.2,3.3l-2.2,3.3l-0.1-0.2V70.3L23.6,70.3z M23.6,62.9l0.1-0.2l2.2,3.3l-2.2,3.3
				l-0.1-0.2V62.9L23.6,62.9z M23.6,55.6l0.1-0.2l2.2,3.3l-2.2,3.3l-0.1-0.2V55.6L23.6,55.6z M23.6,48.2l0.1-0.2l2.2,3.3l-2.2,3.3
				l-0.1-0.2V48.2L23.6,48.2z M23.6,40.9l0.1-0.2l2.2,3.3l-2.2,3.3L23.6,47V40.9L23.6,40.9z M23.6,33.5l0.1-0.2l2.2,3.3l-2.2,3.3
				l-0.1-0.2V33.5L23.6,33.5z M23.6,26.1l0.1-0.2l2.2,3.3l-2.2,3.3l-0.1-0.2V26.1L23.6,26.1z M25.9,21.9l-2.2,3.3L23.6,25v-6.2
				l0.1-0.2L25.9,21.9L25.9,21.9z M26.5,22.3l2.2,3.3l-2.2,3.3l-2.2-3.3L26.5,22.3L26.5,22.3z M31.4,21.9l-2.2,3.3l-2.2-3.3l2.2-3.3
				L31.4,21.9L31.4,21.9z M32,22.3l2.2,3.3L32,28.9l-2.2-3.3L32,22.3L32,22.3z M36.9,21.9l-2.2,3.3l-2.2-3.3l2.2-3.3L36.9,21.9
				L36.9,21.9z M37.5,22.3l2.2,3.3l-2.2,3.3l-2.2-3.3L37.5,22.3L37.5,22.3z M40.4,25l-0.1,0.2l-2.2-3.3l2.2-3.3l0.1,0.2V25L40.4,25z
				 M40.4,32.3l-0.1,0.2l-2.2-3.3l2.2-3.3l0.1,0.2V32.3L40.4,32.3z M40.4,39.7l-0.1,0.2l-2.2-3.3l2.2-3.3l0.1,0.2V39.7L40.4,39.7z
				 M40.4,47l-0.1,0.2l-2.2-3.3l2.2-3.3l0.1,0.2V47L40.4,47z M40.4,54.4l-0.1,0.2l-2.2-3.3l2.2-3.3l0.1,0.2V54.4L40.4,54.4z
				 M40.4,61.7l-0.1,0.2l-2.2-3.3l2.2-3.3l0.1,0.2V61.7L40.4,61.7z M40.4,69.1l-0.1,0.2L38.1,66l2.2-3.3l0.1,0.2V69.1L40.4,69.1z
				 M40.4,76.5l-0.1,0.2l-2.2-3.3l2.2-3.3l0.1,0.2V76.5L40.4,76.5z M40.4,83.8L40.3,84l-2.2-3.3l2.2-3.3l0.1,0.2V83.8L40.4,83.8z
				 M40.4,91.2l-0.1,0.2l-2.2-3.3l2.2-3.3l0.1,0.2V91.2L40.4,91.2z M40.4,98.5l-0.1,0.2l-2.2-3.3l2.2-3.3l0.1,0.2V98.5L40.4,98.5z
				 M40.4,105.9l-0.1,0.2l-2.2-3.3l2.2-3.3l0.1,0.2V105.9L40.4,105.9z M40.4,113.2l-0.1,0.2l-2.2-3.3l2.2-3.3l0.1,0.2V113.2
				L40.4,113.2z M40.4,120.6l-0.1,0.2l-2.2-3.3l2.2-3.3l0.1,0.2V120.6L40.4,120.6z M40.4,127.9l-0.1,0.2l-2.2-3.3l2.2-3.3l0.1,0.2
				V127.9L40.4,127.9z M47.6,34c0,1.5-1.2,2.7-2.7,2.7c-1.5,0-2.7-1.2-2.7-2.7c0-1.5,1.2-2.7,2.7-2.7C46.4,31.4,47.6,32.5,47.6,34
				L47.6,34z M47.6,46.9c0,1.5-1.2,2.7-2.7,2.7c-1.5,0-2.7-1.2-2.7-2.7s1.2-2.7,2.7-2.7C46.4,44.3,47.6,45.5,47.6,46.9L47.6,46.9z
				 M47.6,59.8c0,1.5-1.2,2.7-2.7,2.7c-1.5,0-2.7-1.2-2.7-2.7c0-1.5,1.2-2.7,2.7-2.7C46.4,57.2,47.6,58.4,47.6,59.8L47.6,59.8z
				 M47.6,72.7c0,1.5-1.2,2.7-2.7,2.7c-1.5,0-2.7-1.2-2.7-2.7c0-1.5,1.2-2.7,2.7-2.7C46.4,70.1,47.6,71.3,47.6,72.7L47.6,72.7z
				 M47.6,85.7c0,1.5-1.2,2.7-2.7,2.7c-1.5,0-2.7-1.2-2.7-2.7c0-1.5,1.2-2.7,2.7-2.7C46.4,83,47.6,84.2,47.6,85.7L47.6,85.7z
				 M47.6,98.6c0,1.5-1.2,2.7-2.7,2.7c-1.5,0-2.7-1.2-2.7-2.7c0-1.5,1.2-2.7,2.7-2.7C46.4,95.9,47.6,97.1,47.6,98.6L47.6,98.6z
				 M47.6,111.5c0,1.5-1.2,2.7-2.7,2.7c-1.5,0-2.7-1.2-2.7-2.7c0-1.5,1.2-2.7,2.7-2.7C46.4,108.8,47.6,110,47.6,111.5L47.6,111.5z
				 M60.6,21.1c0,1.5-1.2,2.7-2.7,2.7c-1.5,0-2.7-1.2-2.7-2.7c0-1.5,1.2-2.7,2.7-2.7C59.4,18.4,60.6,19.6,60.6,21.1L60.6,21.1z
				 M73.5,21.1c0,1.5-1.2,2.7-2.7,2.7c-1.5,0-2.7-1.2-2.7-2.7c0-1.5,1.2-2.7,2.7-2.7C72.3,18.4,73.5,19.6,73.5,21.1L73.5,21.1z
				 M86.5,21.1c0,1.5-1.2,2.7-2.7,2.7c-1.5,0-2.7-1.2-2.7-2.7c0-1.5,1.2-2.7,2.7-2.7C85.3,18.4,86.5,19.6,86.5,21.1L86.5,21.1z
				 M99.4,34c0,1.5-1.2,2.7-2.7,2.7c-1.5,0-2.7-1.2-2.7-2.7c0-1.5,1.2-2.7,2.7-2.7C98.2,31.4,99.4,32.5,99.4,34L99.4,34z M99.4,46.9
				c0,1.5-1.2,2.7-2.7,2.7c-1.5,0-2.7-1.2-2.7-2.7s1.2-2.7,2.7-2.7C98.2,44.3,99.4,45.5,99.4,46.9L99.4,46.9z M99.4,59.8
				c0,1.5-1.2,2.7-2.7,2.7c-1.5,0-2.7-1.2-2.7-2.7c0-1.5,1.2-2.7,2.7-2.7C98.2,57.2,99.4,58.4,99.4,59.8L99.4,59.8z M99.4,72.7
				c0,1.5-1.2,2.7-2.7,2.7c-1.5,0-2.7-1.2-2.7-2.7c0-1.5,1.2-2.7,2.7-2.7C98.2,70.1,99.4,71.3,99.4,72.7L99.4,72.7z M99.4,85.7
				c0,1.5-1.2,2.7-2.7,2.7c-1.5,0-2.7-1.2-2.7-2.7c0-1.5,1.2-2.7,2.7-2.7C98.2,83,99.4,84.2,99.4,85.7L99.4,85.7z M99.4,98.6
				c0,1.5-1.2,2.7-2.7,2.7c-1.5,0-2.7-1.2-2.7-2.7c0-1.5,1.2-2.7,2.7-2.7C98.2,95.9,99.4,97.1,99.4,98.6L99.4,98.6z M99.4,111.5
				c0,1.5-1.2,2.7-2.7,2.7c-1.5,0-2.7-1.2-2.7-2.7c0-1.5,1.2-2.7,2.7-2.7C98.2,108.8,99.4,110,99.4,111.5L99.4,111.5z M115.6,124.5
				l-2.2-3.3l2.2-3.3l2.2,3.3L115.6,124.5L115.6,124.5z M110.1,37l2.2,3.3l-2.2,3.3l-2.2-3.3L110.1,37L110.1,37z M107.4,39.9
				l-2.2-3.3l2.2-3.3l2.2,3.3L107.4,39.9L107.4,39.9z M110.7,36.6l2.2-3.3l2.2,3.3l-2.2,3.3L110.7,36.6L110.7,36.6z M112.9,40.7
				l2.2,3.3l-2.2,3.3l-0.6-0.9c0,0.2,0.1,0.4,0.1,0.6c0,0.2,0,0.5-0.1,0.7l0,0l-0.1,0.1c-0.1,0.5-0.4,0.9-0.8,1.2l-1.3,2l-0.9-1.4
				c-0.5-0.1-0.9-0.3-1.3-0.6l1.6,2.4l-2.2,3.3l-2.2-3.3l2.1-3.2c-0.2-0.4-0.3-0.7-0.3-1.2c0,0,0-0.1,0-0.1l-1.9-2.8l2.2-3.3
				l2.2,3.3l-0.2,0.4c0.1,0,0.3,0,0.4,0c0.6,0,1.1,0.2,1.6,0.5l-0.6-0.9L112.9,40.7L112.9,40.7z M112.9,48l2.2,3.3l-2.2,3.3
				l-2.2-3.3L112.9,48L112.9,48z M112.9,55.4l2.2,3.3l-2.2,3.3l-0.7-1.1c-0.1,0.2-0.2,0.5-0.4,0.7l0.5,0.8l-2.2,3.3l-2.2-3.3
				l0.2-0.3c-0.2-0.1-0.4-0.3-0.5-0.5l-0.3,0.4l-2.2-3.3l2.2-3.3l1.3,2c0.2-0.1,0.5-0.1,0.7-0.2L108,55l2.2-3.3l2.2,3.3l-1.6,2.4
				c0.2,0.1,0.4,0.2,0.6,0.4L112.9,55.4L112.9,55.4z M107.4,62.7l2.2,3.3l-2.2,3.3l-2.2-3.3L107.4,62.7L107.4,62.7z M112.9,62.7
				L115,66l-2.2,3.3l-2.2-3.3L112.9,62.7L112.9,62.7z M112.9,70.1l2.2,3.3l-2.2,3.3l-1.3-2c-0.2,0.2-0.4,0.3-0.6,0.4l1.3,2l-2.2,3.3
				L108,77l1.1-1.7c-0.2-0.1-0.5-0.2-0.7-0.3l-1.1,1.6l-2.2-3.3l2.2-3.3l0.5,0.8c0.2-0.2,0.4-0.3,0.6-0.4l-0.5-0.7l2.2-3.3l2.2,3.3
				l-0.8,1.1c0.2,0.2,0.3,0.4,0.5,0.6L112.9,70.1L112.9,70.1z M107.4,77.4l2.2,3.3l-2.2,3.3l-2.2-3.3L107.4,77.4L107.4,77.4z
				 M112.9,77.4l2.2,3.3l-2.2,3.3l-2.2-3.3L112.9,77.4L112.9,77.4z M112.9,84.8l2.2,3.3l-2.2,3.3l-2.1-3.3c-0.3,0.1-0.7,0.2-1,0.2
				c-0.1,0-0.2,0-0.3,0l-2,3.1l-2.2-3.3l1.9-2.9c0.2-0.9,0.8-1.7,1.7-2l1.4-2.1l2.2,3.3l-0.1,0.2c0.1,0.3,0.2,0.6,0.2,1L112.9,84.8
				L112.9,84.8z M110.1,88.5l2.2,3.3l-2.2,3.3l-2.2-3.3L110.1,88.5L110.1,88.5z M112.9,92.1l2.2,3.3l-2.2,3.3l-0.7-1.1
				c0.1,0.3,0.2,0.6,0.2,0.9c0,0.9-0.5,1.7-1.2,2.2l-1.1,1.6l-0.8-1.2c-0.4-0.1-0.8-0.2-1.1-0.4l1.3,2l-2.2,3.3l-2.2-3.3l2.1-3.2
				c-0.1-0.3-0.2-0.7-0.2-1.1c0-0.1,0-0.2,0-0.3l-1.9-2.9l2.2-3.3l2.2,3.3l-0.4,0.5c0.2,0,0.3-0.1,0.5-0.1c0.1,0,0.2,0,0.3,0
				l0.1-0.1l0.1,0.2c0.5,0.1,0.9,0.3,1.3,0.7l-0.8-1.2L112.9,92.1L112.9,92.1z M109.5,110.1l-2.2,3.3l-2.2-3.3l2.2-3.3L109.5,110.1
				L109.5,110.1z M108,106.5l2.2-3.3l2.2,3.3l-2.2,3.3L108,106.5L108,106.5z M112.9,99.5l2.2,3.3l-2.2,3.3l-2.2-3.3L112.9,99.5
				L112.9,99.5z M112.9,106.8l2.2,3.3l-2.2,3.3l-2.2-3.3L112.9,106.8L112.9,106.8z M112.9,114.2l2.2,3.3l-2.2,3.3l-2.2-3.3
				L112.9,114.2L112.9,114.2z M110.1,117.1l-2.2-3.3l2.2-3.3l2.2,3.3L110.1,117.1L110.1,117.1z M109.5,117.5l-2.2,3.3l-2.2-3.3
				l2.2-3.3L109.5,117.5L109.5,117.5z M104.6,117.1l-2.2-3.3l2.2-3.3l2.2,3.3L104.6,117.1L104.6,117.1z M104.6,109.8l-2.2-3.3
				l2.2-3.3l2.2,3.3L104.6,109.8L104.6,109.8z M104.6,102.4l-2.2-3.3l2.2-3.3l2.2,3.3L104.6,102.4L104.6,102.4z M104.6,95l-2.2-3.3
				l2.2-3.3l2.2,3.3L104.6,95L104.6,95z M104.6,87.7l-2.2-3.3l2.2-3.3l2.2,3.3L104.6,87.7L104.6,87.7z M104.6,80.3l-2.2-3.3l2.2-3.3
				l2.2,3.3L104.6,80.3L104.6,80.3z M104.6,73l-2.2-3.3l2.2-3.3l2.2,3.3L104.6,73L104.6,73z M104.6,65.6l-2.2-3.3l2.2-3.3l2.2,3.3
				L104.6,65.6L104.6,65.6z M104.6,58.3l-2.2-3.3l2.2-3.3l2.2,3.3L104.6,58.3L104.6,58.3z M104.6,50.9l-2.2-3.3l2.2-3.3l2.2,3.3
				L104.6,50.9L104.6,50.9z M104.6,43.6l-2.2-3.3l2.2-3.3l2.2,3.3L104.6,43.6L104.6,43.6z M104.6,36.2l-2.2-3.3l2.2-3.3l2.2,3.3
				L104.6,36.2L104.6,36.2z M105.2,29.2l2.2-3.3l2.2,3.3l-2.2,3.3L105.2,29.2L105.2,29.2z M110.1,29.6l2.2,3.3l-2.2,3.3l-2.2-3.3
				L110.1,29.6L110.1,29.6z M110.7,29.2l2.2-3.3l2.2,3.3l-2.2,3.3L110.7,29.2L110.7,29.2z M115.6,29.6l2.2,3.3l-2.2,3.3l-2.2-3.3
				L115.6,29.6L115.6,29.6z M115.6,37l2.2,3.3l-2.2,3.3l-2.2-3.3L115.6,37L115.6,37z M115.6,44.3l2.2,3.3l-2.2,3.3l-2.2-3.3
				L115.6,44.3L115.6,44.3z M115.6,51.7l2.2,3.3l-2.2,3.3l-2.2-3.3L115.6,51.7L115.6,51.7z M115.6,59l2.2,3.3l-2.2,3.3l-2.2-3.3
				L115.6,59L115.6,59z M115.6,66.4l2.2,3.3l-2.2,3.3l-2.2-3.3L115.6,66.4L115.6,66.4z M115.6,73.7l2.2,3.3l-2.2,3.3l-2.2-3.3
				L115.6,73.7L115.6,73.7z M115.6,81.1l2.2,3.3l-2.2,3.3l-2.2-3.3L115.6,81.1L115.6,81.1z M115.6,88.5l2.2,3.3l-2.2,3.3l-2.2-3.3
				L115.6,88.5L115.6,88.5z M115.6,95.8l2.2,3.3l-2.2,3.3l-2.2-3.3L115.6,95.8L115.6,95.8z M115.6,103.2l2.2,3.3l-2.2,3.3l-2.2-3.3
				L115.6,103.2L115.6,103.2z M115.6,110.5l2.2,3.3l-2.2,3.3l-2.2-3.3L115.6,110.5L115.6,110.5z M110.7,124.8l2.2-3.3l2.2,3.3
				l-2.2,3.3L110.7,124.8L110.7,124.8z M110.1,124.5l-2.2-3.3l2.2-3.3l2.2,3.3L110.1,124.5L110.1,124.5z M105.2,124.8l2.2-3.3
				l2.2,3.3l-2.2,3.3L105.2,124.8L105.2,124.8z M104.6,124.5l-2.2-3.3l2.2-3.3l2.2,3.3L104.6,124.5L104.6,124.5z M101.7,121.8
				l0.1-0.2l2.2,3.3l-2.2,3.3l-0.1-0.2V121.8L101.7,121.8z M101.7,114.4l0.1-0.2l2.2,3.3l-2.2,3.3l-0.1-0.2V114.4L101.7,114.4z
				 M101.7,107l0.1-0.2l2.2,3.3l-2.2,3.3l-0.1-0.2V107L101.7,107z M101.7,99.7l0.1-0.2l2.2,3.3l-2.2,3.3l-0.1-0.2V99.7L101.7,99.7z
				 M101.7,92.3l0.1-0.2l2.2,3.3l-2.2,3.3l-0.1-0.2V92.3L101.7,92.3z M101.7,85l0.1-0.2l2.2,3.3l-2.2,3.3l-0.1-0.2V85L101.7,85z
				 M101.7,77.6l0.1-0.2l2.2,3.3l-2.2,3.3l-0.1-0.2V77.6L101.7,77.6z M101.7,70.3l0.1-0.2l2.2,3.3l-2.2,3.3l-0.1-0.2V70.3
				L101.7,70.3z M101.7,62.9l0.1-0.2L104,66l-2.2,3.3l-0.1-0.2V62.9L101.7,62.9z M101.7,55.6l0.1-0.2l2.2,3.3l-2.2,3.3l-0.1-0.2
				V55.6L101.7,55.6z M101.7,48.2l0.1-0.2l2.2,3.3l-2.2,3.3l-0.1-0.2V48.2L101.7,48.2z M101.7,40.9l0.1-0.2l2.2,3.3l-2.2,3.3
				l-0.1-0.2V40.9L101.7,40.9z M101.7,33.5l0.1-0.2l2.2,3.3l-2.2,3.3l-0.1-0.2V33.5L101.7,33.5z M101.7,26.1l0.1-0.2l2.2,3.3
				l-2.2,3.3l-0.1-0.2V26.1L101.7,26.1z M104,21.9l-2.2,3.3l-0.1-0.2v-6.2l0.1-0.2L104,21.9L104,21.9z M104.6,22.3l2.2,3.3l-2.2,3.3
				l-2.2-3.3L104.6,22.3L104.6,22.3z M109.5,21.9l-2.2,3.3l-2.2-3.3l2.2-3.3L109.5,21.9L109.5,21.9z M110.1,22.3l2.2,3.3l-2.2,3.3
				l-2.2-3.3L110.1,22.3L110.1,22.3z M115,21.9l-2.2,3.3l-2.2-3.3l2.2-3.3L115,21.9L115,21.9z M115.6,22.3l2.2,3.3l-2.2,3.3
				l-2.2-3.3L115.6,22.3L115.6,22.3z M118.5,25l-0.1,0.2l-2.2-3.3l2.2-3.3l0.1,0.2V25L118.5,25z M118.5,32.3l-0.1,0.2l-2.2-3.3
				l2.2-3.3l0.1,0.2V32.3L118.5,32.3z M118.5,39.7l-0.1,0.2l-2.2-3.3l2.2-3.3l0.1,0.2V39.7L118.5,39.7z M118.5,47l-0.1,0.2l-2.2-3.3
				l2.2-3.3l0.1,0.2V47L118.5,47z M118.5,54.4l-0.1,0.2l-2.2-3.3l2.2-3.3l0.1,0.2V54.4L118.5,54.4z M118.5,61.7l-0.1,0.2l-2.2-3.3
				l2.2-3.3l0.1,0.2V61.7L118.5,61.7z M118.5,69.1l-0.1,0.2l-2.2-3.3l2.2-3.3l0.1,0.2V69.1L118.5,69.1z M118.5,76.5l-0.1,0.2
				l-2.2-3.3l2.2-3.3l0.1,0.2V76.5L118.5,76.5z M118.5,83.8l-0.1,0.2l-2.2-3.3l2.2-3.3l0.1,0.2V83.8L118.5,83.8z M118.5,91.2
				l-0.1,0.2l-2.2-3.3l2.2-3.3l0.1,0.2V91.2L118.5,91.2z M118.5,98.5l-0.1,0.2l-2.2-3.3l2.2-3.3l0.1,0.2V98.5L118.5,98.5z
				 M118.5,105.9l-0.1,0.2l-2.2-3.3l2.2-3.3l0.1,0.2V105.9L118.5,105.9z M118.5,113.2l-0.1,0.2l-2.2-3.3l2.2-3.3l0.1,0.2V113.2
				L118.5,113.2z M118.5,120.6l-0.1,0.2l-2.2-3.3l2.2-3.3l0.1,0.2V120.6L118.5,120.6z M118.5,127.9l-0.1,0.2l-2.2-3.3l2.2-3.3
				l0.1,0.2V127.9L118.5,127.9z M125.3,59.8c0,1.5-1.2,2.7-2.7,2.7c-1.5,0-2.7-1.2-2.7-2.7c0-1.5,1.2-2.7,2.7-2.7
				C124.1,57.2,125.3,58.4,125.3,59.8L125.3,59.8z M125.3,72.7c0,1.5-1.2,2.7-2.7,2.7c-1.5,0-2.7-1.2-2.7-2.7c0-1.5,1.2-2.7,2.7-2.7
				C124.1,70.1,125.3,71.3,125.3,72.7L125.3,72.7z M125.3,85.7c0,1.5-1.2,2.7-2.7,2.7c-1.5,0-2.7-1.2-2.7-2.7c0-1.5,1.2-2.7,2.7-2.7
				C124.1,83,125.3,84.2,125.3,85.7L125.3,85.7z"/>
		</defs>
		<clipPath id="SVGID_6_">
			<use xlink:href="#SVGID_121_"  style="overflow:visible;"/>
		</clipPath>
		<g class="st1">
			<defs>
				<rect id="SVGID_123_" x="14.3" y="16.6" width="113.1" height="112.4"/>
			</defs>
			<clipPath id="SVGID_8_">
				<use xlink:href="#SVGID_123_"  style="overflow:visible;"/>
			</clipPath>
			<g style="clip-path:url(#SVGID_8_);">
				
					<image style="overflow:visible;" width="240" height="238" xlink:href="59FBE9C22152A062.jpg"  transform="matrix(0.48 0 0 -0.48 13.7359 129.8738)">
				</image>
			</g>
		</g>
	</g>
	<path class="st41" d="M52.8,76.3c0.7,2.2,1.6,5.4,2,8.3c0.1,0.9,0,2.8-0.2,5c-0.6,7.5-1.6,18.9,4.5,25.3c2.9,3.1,7.1,4.6,12.4,4.5
		c5.9-0.1,10.4-2,13.2-5.5c5.4-6.7,3.2-17.5,2.1-23.2c-0.2-1.1-0.5-2.3-0.5-2.7c0-1.1-0.1-2-0.2-2.9c-0.2-2.2-0.4-3.7,0.9-7.1
		c0.3-0.8,0.6-1.6,1-2.4c2-4.9,4.7-11.5,3.7-22.5C90,35.7,83,26.1,71.8,26.1C66,26,60.9,28.9,57,34.3C49.6,44.5,47.9,61.4,52.8,76.3
		L52.8,76.3L52.8,76.3z"/>
	<path class="st42" d="M53.5,76.1c0.7,2.2,1.7,5.5,2,8.4c0.1,1,0,2.9-0.2,5.1c-0.6,7.4-1.6,18.6,4.3,24.8c2.8,2.9,6.7,4.4,11.8,4.3
		c5.7-0.1,10-1.9,12.6-5.2c5.2-6.5,3.1-17,1.9-22.7c-0.3-1.3-0.5-2.4-0.5-2.8c0-1.1-0.1-1.9-0.2-2.8c-0.2-2.2-0.4-3.9,0.9-7.4
		c0.3-0.8,0.6-1.6,1-2.5c1.9-4.8,4.6-11.4,3.7-22.2c-1.5-17.2-8.1-26.4-19-26.4c-5.5,0-10.4,2.7-14.2,8
		C50.3,44.7,48.7,61.3,53.5,76.1L53.5,76.1L53.5,76.1z"/>
	<path class="st43" d="M54.6,75.7c0.6,1.9,1.7,5.4,2.1,8.7c0.7,5.8-6.7,33.6,14.6,33.1c22-0.5,13-25.7,12.9-29.5
		c-0.1-3.8-1.1-5.5,0.8-10.6c1.9-5.1,5.7-11.7,4.6-24.1C88.7,42.5,85,28,71.7,28C56,27.9,47.1,52.9,54.6,75.7L54.6,75.7z"/>
	<path class="st44" d="M54.6,75.7c0.6,1.9,1.7,5.4,2.1,8.7c0.7,5.8-6.7,33.6,14.6,33.1c22-0.5,13-25.7,12.9-29.5
		c-0.1-3.8-1.1-5.5,0.8-10.6c1.9-5.1,5.7-11.7,4.6-24.1C88.7,42.5,85,28,71.7,28C56,27.9,47.1,52.9,54.6,75.7L54.6,75.7z"/>
	<path class="st4" d="M65.8,88.2c-1.4-2.3-1.5-5,0.2-7.2c1.4-1.8,5-2.7,7-0.9c1.3,1.1,1.9,3,1.3,4.5c-0.6,1.5-2.2,2.5-3.7,2.2
		c-1.5-0.3-2.5-1.8-2.1-3.3c0.4-1.4,2.1-2,3.2-1.1c0.5,0.4,0.7,0.9,0.5,1.6c-0.2,0.7-0.9,1.1-1.6,0.9c-0.4-0.1-0.7-0.4-0.7-0.9
		c0-0.4,0.2-0.7,0.5-0.8c0.4-0.2,0.9,0.1,0.9,0.5c0,0.3-0.2,0.4-0.4,0.5c-0.2,0-0.3-0.1-0.4-0.3c0-0.1,0-0.2,0.1-0.3
		c0.1,0,0.1,0,0.2,0c0.1,0.1,0.1,0.2,0,0.3c0.2,0,0.2-0.1,0.1-0.2c0-0.1-0.1-0.2-0.2-0.2c-0.1,0-0.3,0-0.3,0.2
		c-0.1,0.2-0.1,0.3,0,0.5c0.1,0.2,0.3,0.3,0.5,0.3c0.3,0,0.5-0.1,0.6-0.4c0.2-0.3,0.1-0.6,0-0.8c-0.3-0.5-1.1-0.6-1.6-0.2
		c-0.4,0.4-0.6,0.9-0.4,1.5c0.3,0.8,1.1,1.2,1.9,1.1c1-0.2,1.7-1,1.7-2.1c0-1.7-1.6-2.9-3.3-2.6c-2,0.4-3.1,2.4-2.6,4.4
		c0.6,2.2,2.9,3.5,5.2,3c3.3-0.8,5-3.8,4-7.1c-0.8-2.7-2.7-4.4-5.4-4.8c-2.1-0.3-4,0.5-5.5,2.1c-2.9,3-2.6,7.9,0.7,10.4
		c0.1,0,0.1,0.1,0.2,0.1c0,0,0,0,0,0C66.2,88.8,66,88.5,65.8,88.2L65.8,88.2z"/>
	<path class="st45" d="M65.8,88.2c-1.4-2.3-1.5-5,0.2-7.2c1.4-1.8,5-2.7,7-0.9c1.3,1.1,1.9,3,1.3,4.5c-0.6,1.5-2.2,2.5-3.7,2.2
		c-1.5-0.3-2.5-1.8-2.1-3.3c0.4-1.4,2.1-2,3.2-1.1c0.5,0.4,0.7,0.9,0.5,1.6c-0.2,0.7-0.9,1.1-1.6,0.9c-0.4-0.1-0.7-0.4-0.7-0.9
		c0-0.4,0.2-0.7,0.5-0.8c0.4-0.2,0.9,0.1,0.9,0.5c0,0.3-0.2,0.4-0.4,0.5c-0.2,0-0.3-0.1-0.4-0.3c0-0.1,0-0.2,0.1-0.3
		c0.1,0,0.1,0,0.2,0c0.1,0.1,0.1,0.2,0,0.3c0.2,0,0.2-0.1,0.1-0.2c0-0.1-0.1-0.2-0.2-0.2c-0.1,0-0.3,0-0.3,0.2
		c-0.1,0.2-0.1,0.3,0,0.5c0.1,0.2,0.3,0.3,0.5,0.3c0.3,0,0.5-0.1,0.6-0.4c0.2-0.3,0.1-0.6,0-0.8c-0.3-0.5-1.1-0.6-1.6-0.2
		c-0.4,0.4-0.6,0.9-0.4,1.5c0.3,0.8,1.1,1.2,1.9,1.1c1-0.2,1.7-1,1.7-2.1c0-1.7-1.6-2.9-3.3-2.6c-2,0.4-3.1,2.4-2.6,4.4
		c0.6,2.2,2.9,3.5,5.2,3c3.3-0.8,5-3.8,4-7.1c-0.8-2.7-2.7-4.4-5.4-4.8c-2.1-0.3-4,0.5-5.5,2.1c-2.9,3-2.6,7.9,0.7,10.4
		c0.1,0,0.1,0.1,0.2,0.1c0,0,0,0,0,0C66.2,88.8,66,88.5,65.8,88.2L65.8,88.2z"/>
	<path class="st38" d="M87.5,64.7c-2.2-0.3-7.1-0.8-7.3-0.9c-0.5-0.1-0.8,0-1,0.5c-0.3,1-0.7,2-1.1,3c-0.1,0.3-0.1,0.5,0.3,0.6
		c2.4,0.7,4.8,1.4,7.3,2.2c0.3,0.1,0.4,0,0.5-0.2c0.4-1.6,0.9-3.1,1.3-4.7C87.5,65.1,87.5,64.9,87.5,64.7L87.5,64.7z"/>
	<path class="st38" d="M55.4,73.9c0.4,1.5,0.7,3,1.1,4.4c0.2,0.6,0.7,0.8,1.3,0.4c1.8-1,3.6-2,5.4-3c0.1-0.1,0.3-0.2,0.4-0.2
		c0.8-0.3,0.8-0.3,0.5-1.1c-0.2-0.6-0.4-1.2-0.6-1.8c-0.1-0.4-0.2-0.7-0.2-1.1c0-0.3-0.2-0.5-0.5-0.4c-1.9,0.5-3.9,0.8-5.7,1.6
		c-0.3,0.1-0.6,0.2-1,0.3C55.5,73.3,55.4,73.3,55.4,73.9L55.4,73.9z"/>
	<path class="st38" d="M85,73c-2.6-1-5.2-2.1-7.8-3.1c-0.6,1.3-1.2,2.5-1.7,3.7c-0.1,0.1,0.1,0.4,0.2,0.5c2.3,1.2,4.7,2.5,7,3.7
		c0,0,0.1,0,0.1,0C83.6,76.3,84.3,74.7,85,73L85,73z"/>
	<path class="st38" d="M80.4,57.1c0,0.6,0,1.1-0.1,1.7c-0.1,0.7-0.2,1.4-0.3,2.1c-0.1,0.3-0.1,0.6,0.4,0.6c2.5,0.5,5,0.7,7.6,0.5
		c0,0,0.1,0,0.2-0.1c0-1.8,0-3.6,0.1-5.4C85.6,56.7,83.1,56.9,80.4,57.1L80.4,57.1z"/>
	<path class="st38" d="M57.7,92.2c0,1.5,0,2.8,0.1,4.1c0,0.4,0.3,0.6,0.7,0.6c2.1-0.2,4.3-0.3,6.4-0.5c0.6-0.1,0.7-0.2,0.7-0.8
		c0-1.2,0-2.4,0-3.6c0-0.3-0.1-0.4-0.4-0.4c-2.3,0.1-4.5,0.2-6.8,0.2C58,91.7,57.7,91.9,57.7,92.2L57.7,92.2z"/>
	<path class="st38" d="M85.9,54.1c0.5-0.1,0.9-0.1,1.4-0.2c0.7-0.1,1.1-0.4,0.9-1.1c-0.2-1.1-0.5-2.2-0.7-3.3
		c-0.2-0.7-0.8-0.9-1.7-0.6c-1.4,0.5-2.9,0.9-4.3,1.3c-0.4,0.1-0.9,0.2-1.3,0.2c-0.3,0.1-0.4,0.2-0.4,0.5c0.1,1,0.2,2,0.3,3
		c0,0.4,0.2,0.7,0.7,0.7C81.5,54.6,84.9,54.3,85.9,54.1L85.9,54.1z"/>
	<path class="st38" d="M54.8,69.7c0.5-0.1,1.1-0.1,1.6-0.2c1.5-0.4,3-0.7,4.6-0.7c0.7,0,1.2-0.5,1.2-1.1c0-0.9-0.1-1.7-0.1-2.6
		c0-0.4-0.2-0.7-0.7-0.7c-1.6,0.1-3.3,0.1-4.9,0.2c-0.6,0-1.1,0.1-1.7,0c-0.7-0.1-1.2,0.3-1,1C54,66.7,54.8,69.7,54.8,69.7
		L54.8,69.7z"/>
	<path class="st38" d="M86.6,45.6c-0.3-0.9-0.6-1.7-0.8-2.5c-0.2-0.5-0.3-1-0.5-1.5c-0.1-0.3-0.3-0.5-0.6-0.4
		c-0.4,0.1-0.8,0.1-1.1,0.3c-1.6,0.7-3.3,1.4-4.9,2.1c-0.8,0.3-0.8,0.4-0.4,1.2c0.3,0.7,0.5,1.5,0.6,2.2c0.1,0.7,0.4,0.9,1.1,0.7
		c1.2-0.3,2.5-0.6,3.7-1c0.9-0.2,1.7-0.6,2.6-0.6C86.4,46,86.5,45.7,86.6,45.6L86.6,45.6z"/>
	<path class="st38" d="M82.5,90.4c-0.7,0.1-1.4,0.2-2.2,0.2c-0.8,0-1.6,0-2.4,0c-0.5,0-1,0.1-1.5,0.3C76,91,76,91.4,76,91.8
		c0,0.9,0,1.9,0.1,2.8c0,0.3,0,0.6,0.1,0.9c1.1,0,2.1,0.1,3.1,0.1c1.3,0,2.6,0.1,3.9,0.1c0.5,0,0.6-0.2,0.6-0.6
		c0-0.2-0.1-0.4-0.1-0.6c-0.1-0.4-0.2-0.9-0.3-1.3c-0.1-0.5-0.3-0.9-0.4-1.4C82.8,91.5,82.6,91,82.5,90.4L82.5,90.4z"/>
	<path class="st38" d="M54.9,50.3c-0.1,0-0.3,0.3-0.3,0.5c-0.2,1.1-0.3,2.2-0.5,3.3c-0.1,0.5,0.3,0.9,1,1c1.6,0.2,6,1.2,6.3,1.1
		c0.2-0.1,0.4-0.3,0.4-0.5c0.1-0.6,0.1-1.1,0.1-1.7c0-0.4,0.1-0.8,0.1-1.2c0-0.2-0.1-0.6-0.3-0.7C60.6,51.4,55.5,50.3,54.9,50.3
		L54.9,50.3z"/>
	<path class="st38" d="M56.1,46.9c0.1,0.1,0.3,0.3,0.5,0.4c1.3,0.5,2.6,1,4,1.5c0.5,0.2,1,0.4,1.5,0.7c0.4,0.3,0.7,0.2,0.9-0.3
		c0.2-0.7,0.4-1.4,0.6-2c0.1-0.3,0.3-0.7,0.5-1c0.3-0.5,0.2-0.7-0.3-1c-1.8-0.8-3.6-1.7-5.4-2.5c-0.3-0.2-0.6-0.2-0.8,0.1
		c-0.5,1.3-0.9,2.5-1.4,3.8C56.1,46.6,56.1,46.7,56.1,46.9L56.1,46.9z"/>
	<path class="st38" d="M56.9,62.3c0.7,0,3.3-0.2,3.9-0.1c0.7,0,0.9-0.2,0.9-0.9c0-0.8-0.1-1.6-0.1-2.4c0-0.3-0.1-0.5-0.4-0.5
		c-1.5-0.3-5.4-0.8-5.7-0.9c-1.1-0.4-1.7,0-1.7,1.1c0,0.8-0.1,1.6-0.1,2.4c0,0.3,0.1,0.6,0.2,0.9c0.1,0.2,0.4,0.4,0.6,0.4
		C55.3,62.3,56.9,62.3,56.9,62.3L56.9,62.3z"/>
	<path class="st38" d="M66,99.9c0-0.3,0-0.9-0.1-1.4c0-0.3-0.3-0.5-0.7-0.4c-1.7,0.3-3.3,0.5-5,0.7c-0.6,0.1-1.3,0.1-1.9,0.1
		c-0.4,0-0.7,0.2-0.6,0.7c0.1,0.6,0.1,1.2,0.2,1.8c0.1,0.6,0.4,0.9,1.1,0.9c0.7,0,1.3-0.1,2-0.2c1.3-0.2,2.6-0.4,3.9-0.6
		C65.8,101.2,65.9,101.1,66,99.9L66,99.9z"/>
	<path class="st38" d="M80.6,101c0.9,0.1,1.9,0.2,3,0.2c0.5,0,0.7-0.1,0.7-0.6c0-0.6-0.1-1.3-0.2-1.9c-0.1-0.7-0.3-1-1-1
		c-1.2,0-2.5,0-3.7,0c-0.7,0-1.5,0.1-2.2,0.1c-0.7,0-0.9,0.2-0.9,0.8c-0.2,1.9,0.1,2.3,2.2,2.3C79,100.9,79.7,101,80.6,101L80.6,101
		z"/>
	<path class="st38" d="M66.2,104.9c0-0.4,0-0.8,0-1.2c0-0.3-0.6-0.6-1.1-0.5c-1.2,0.2-2.3,0.4-3.4,0.7c-0.9,0.2-1.8,0.3-2.7,0.5
		c-0.6,0.1-0.9,0.4-0.7,1c0.2,0.9,0.4,1.9,1,2.6c0.2,0.3,0.4,0.3,0.7,0.1c1.2-0.6,2.3-1.2,3.5-1.8c0.6-0.3,1.2-0.5,1.8-0.7
		C65.7,105.6,66.2,105.4,66.2,104.9L66.2,104.9z"/>
	<path class="st38" d="M80.4,103c-1.2-0.1-2.4-0.2-3.5-0.3c-0.2,0-0.5,0.2-0.6,0.4c-0.2,0.5-0.2,1-0.2,1.4c0,0.2,0.3,0.4,0.4,0.5
		c1.8,0.6,3.6,1.2,5.3,1.8c0.5,0.2,0.9,0.3,1.4,0.5c0.1,0,0.4-0.1,0.4-0.2c0.1-1.1,0.2-2.2,0.3-3.4c0-0.4-0.2-0.5-0.6-0.5
		C82.3,103.2,80.4,103,80.4,103L80.4,103z"/>
	<path class="st38" d="M65.2,43.1c1.6-1.3,2.2-3.2,4.3-3.9c3.8-1.3,4.2,1.8,7,2.2c1.1,0.2,6.5-1.7,7.1-2.7c1-2-3.1-5.4-4.4-6.4
		c-5.5-4.1-11.3-3.2-16.3,1.2c-1.2,1.1-4.6,4.2-4,6C59.3,40.9,63.9,42.7,65.2,43.1C65.4,43,65,43,65.2,43.1L65.2,43.1z"/>
	<path class="st38" d="M68.8,115.4c0.3,0.1,0.7,0.1,1.3,0.1c3.9,0,12.8-1.5,12.5-5.6c-0.1-0.7-5.2-3-6.1-3c-1.7,0-2,1.2-3.6,1.4
		c-4.6,0.7-5.3-2.5-9.8,0.3c-2.9,1.8-3.5,0.8-1.3,3.6C63.4,114.5,68.1,115.3,68.8,115.4L68.8,115.4z"/>
	<path class="st4" d="M63.7,59.4c0,0.5,0,1,0,1.5c0,0.2,0.1,0.5,0.3,0.5c0.2,0.1,0.5,0,0.6-0.1c1.7-1.1,3.4-2.3,5.1-3.4
		c0.2-0.1,0.3-0.5,0.4-0.7c0.1-0.7,0.1-1.5,0.2-2.2c0-0.1-0.1-0.4-0.2-0.4c-0.2-0.1-0.5-0.1-0.7,0c-1.7,0.9-3.3,1.8-4.9,2.6
		c-0.6,0.3-0.7,0.5-0.7,1C63.7,58.6,63.7,59,63.7,59.4C63.7,59.4,63.7,59.4,63.7,59.4L63.7,59.4z"/>
	<path class="st4" d="M69.8,62.8c0-0.4,0-0.8,0-1.2c0-0.5-0.2-0.6-0.7-0.4c-1.4,0.7-2.7,1.4-4.1,2c-0.9,0.5-1.5,1.1-1.2,2.2
		c0.1,0.6,0.2,1.1,0.3,1.7c0,0.3,0.3,0.4,0.5,0.4c0.5-0.1,0.9-0.2,1.3-0.5c1.2-0.7,2.3-1.5,3.5-2.2c0.4-0.2,0.6-0.5,0.5-1
		C69.8,63.5,69.8,63.2,69.8,62.8C69.8,62.8,69.8,62.8,69.8,62.8L69.8,62.8z"/>
	<path class="st4" d="M77.8,53.2c0.1-0.9-0.3-1.6-1.2-2.1c-1.2-0.9-2.4-1.8-3.6-2.8c-0.1-0.1-0.4-0.2-0.5-0.1
		c-0.1,0-0.2,0.3-0.2,0.4c-0.1,0.8-0.1,1.7-0.2,2.5c0,0.5,0.1,0.9,0.6,1.2c1.5,1.1,2.9,2.2,4.4,3.3c0.1,0.1,0.2,0.2,0.4,0.2
		c0.3,0.2,0.5,0.1,0.4-0.2C77.9,55.1,77.8,53.5,77.8,53.2L77.8,53.2z"/>
	<path class="st4" d="M72.3,59c1.5,1.1,3,2.1,4.5,3.1c0.6,0.4,0.8,0.3,0.9-0.4c0.1-0.7,0.2-1.4,0.3-2c0-0.3,0-0.5-0.3-0.6
		c-1.7-1.3-3.3-2.5-5-3.8c-0.2-0.1-0.8,0.2-0.8,0.4c0,0.8-0.1,1.6-0.1,2.5C71.8,58.1,72.1,58.8,72.3,59L72.3,59z"/>
	<path class="st4" d="M64.2,53.9c0,0.2,0,0.4,0.1,0.5c0.1,0.1,0.4,0.1,0.5,0.1c0.9-0.5,1.8-0.9,2.8-1.4c0.8-0.4,1.7-0.9,2.5-1.3
		c0.2-0.1,0.3-0.3,0.3-0.5c0.1-1,0.1-2,0.1-2.9c0-0.3-0.1-0.4-0.4-0.3c-0.2,0-0.4,0.1-0.5,0.2c-0.7,0.4-1.5,0.8-2.2,1.2
		c-0.4,0.2-1,0.3-1.4,0.5c-0.1,0-0.2,0.1-0.2,0.1C65,50.9,64.2,53.6,64.2,53.9L64.2,53.9z"/>
	<path class="st4" d="M76.9,65.1c-0.1-0.2-0.2-0.4-0.4-0.6c-1.3-1-2.6-2-3.9-3c-0.6-0.4-0.9-0.3-1,0.4c-0.1,0.8-0.1,1.6,0,2.4
		c0,0.2,0.2,0.5,0.4,0.6c1.1,0.9,2.3,1.8,3.5,2.7c0.6,0.4,0.8,0.4,1-0.3C76.5,66.6,76.7,65.9,76.9,65.1L76.9,65.1z"/>
	<path class="st4" d="M69.7,69.4c0-0.3,0-0.7,0-1c0-0.2-0.1-0.6-0.3-0.6c-0.2-0.1-0.5,0.1-0.7,0.2c-0.9,0.7-2.9,2.2-3,2.2
		c-0.8,0.3-0.7,0.9-0.6,1.5c0.1,0.5,0.2,1,0.3,1.5c0.1,0.6,0.4,0.7,1,0.3c0.6-0.4,1.1-0.9,1.7-1.3c0.4-0.3,0.8-0.6,1.2-0.9
		c0.3-0.2,0.5-0.5,0.4-0.9C69.7,70.1,69.7,69.7,69.7,69.4C69.7,69.4,69.7,69.4,69.7,69.4L69.7,69.4z"/>
	<path class="st4" d="M73.8,72.9c0.5-0.5,0.9-1.7,1.3-2.6c0.1-0.3,0.1-0.5-0.3-0.7c-0.9-0.5-1.8-1-2.7-1.5c-0.5-0.3-0.7-0.2-0.8,0.3
		c-0.1,0.7-0.1,1.5-0.1,2.2c0,0.1,0.1,0.3,0.2,0.4C72.2,71.7,73.4,73.4,73.8,72.9L73.8,72.9z"/>
	<path class="st4" d="M72.6,43.1c-0.7,0.9-0.5,1.9,0.5,2.4c0.9,0.5,1.5,1.1,2.1,1.8c0.2,0.2,0.4,0.4,0.7,0.6c0.1,0.1,0.4,0.1,0.5,0
		c0.1-0.1,0.2-0.3,0.1-0.4c-0.1-0.4-0.2-0.8-0.4-1.2c-0.6-1.3-1.1-2.6-2.6-3.3C73.4,43,72.7,43,72.6,43.1L72.6,43.1z"/>
	<path class="st4" d="M69.9,42.6c-0.1,0-0.2,0.1-0.3,0.2c-1.5,1-2.5,2.4-3.1,4c-0.1,0.1,0.4,0.4,0.5,0.3c0.4-0.3,0.8-0.6,1.2-0.9
		c0.6-0.5,1.3-1,2.1-1.2c0.3-0.1,0.4-0.2,0.3-0.5c0-0.5,0-1,0-1.5C70.5,42.7,70.4,42.6,69.9,42.6L69.9,42.6z"/>
	<path class="st4" d="M71.9,94.1c0,0.6,0,1.1,0.1,1.7c0,0.1,0.2,0.2,0.4,0.2c0.8-0.1,2-0.7,2.1-1.7c0.1-0.5,0.1-1,0-1.4
		c-0.1-0.7-0.7-0.8-1.2-0.4c-0.3,0.2-0.6,0.5-0.9,0.7C72.1,93.5,71.9,94.1,71.9,94.1L71.9,94.1z"/>
	<path class="st4" d="M67.4,95.2c0.4,0.3,0.9,0.6,1.5,0.8c0.5,0.2,0.9,0,1-0.5c0.1-0.6,0.1-1.1,0-1.7c0-0.2-0.3-0.4-0.5-0.4
		c-0.5-0.1-0.9-0.4-1.3-0.7c-0.4-0.3-0.6-0.2-0.6,0.3c0,0.5,0,0.9,0,1.4C67.5,94.6,67.4,94.8,67.4,95.2L67.4,95.2z"/>
	<path class="st4" d="M72.1,99.4c0,0.9,0.2,1.1,1.1,0.7c0.3-0.1,0.7-0.3,1-0.5c0.6-0.4,0.7-1.5,0.2-2c-0.3-0.2-0.6-0.3-0.9,0
		c-0.3,0.3-0.7,0.5-0.9,0.8C72.3,98.7,72.2,99.1,72.1,99.4L72.1,99.4z"/>
	<path class="st4" d="M72.4,103.9c0,0.3,0,0.5,0,0.8c0.1,0.4,0.4,0.5,0.7,0.2c0.7-0.6,1.2-1.2,1.4-2c0.1-0.2-0.1-0.6-0.3-0.8
		c-0.1-0.1-0.5,0-0.7,0.1C72.7,102.5,72.4,103.1,72.4,103.9L72.4,103.9z"/>
	<path class="st4" d="M68.1,102.2c0.2,0.8,0.3,1.5,0.5,2.2c0,0.1,0.1,0.2,0.2,0.3c0.3,0.2,1.1,0,1.2-0.3c0.2-1.1-0.5-1.7-1.3-2.3
		c-0.1-0.1-0.3-0.1-0.5-0.1C68.2,102,68.1,102.2,68.1,102.2L68.1,102.2z"/>
	<path class="st4" d="M67.8,98.8c-0.3,0.7,0.3,0.9,0.8,1.2c0.2,0.1,0.4,0.1,0.6,0.2c0.8,0.3,1.1,0.1,1-0.7c0-0.3-0.1-0.7-0.3-0.8
		c-0.5-0.3-1.1-0.5-1.7-0.7c0,0-0.2,0.2-0.3,0.3C67.8,98.5,67.8,98.6,67.8,98.8L67.8,98.8z"/>
	<path class="st4" d="M65.8,88.2c-1.4-2.3-1.5-5,0.2-7.2c1.4-1.8,5-2.7,7-0.9c1.3,1.1,1.9,3,1.3,4.5c-0.6,1.5-2.2,2.5-3.7,2.2
		c-1.5-0.3-2.5-1.8-2.1-3.3c0.4-1.4,2.1-2,3.2-1.1c0.5,0.4,0.7,0.9,0.5,1.6c-0.2,0.7-0.9,1.1-1.6,0.9c-0.4-0.1-0.7-0.4-0.7-0.9
		c0-0.4,0.2-0.7,0.5-0.8c0.4-0.2,0.9,0.1,0.9,0.5c0,0.3-0.2,0.4-0.4,0.5c-0.2,0-0.3-0.1-0.4-0.3c0-0.1,0-0.2,0.1-0.3
		c0.1,0,0.1,0,0.2,0c0.1,0.1,0.1,0.2,0,0.3c0.2,0,0.2-0.1,0.1-0.2c0-0.1-0.1-0.2-0.2-0.2c-0.1,0-0.3,0-0.3,0.2
		c-0.1,0.2-0.1,0.3,0,0.5c0.1,0.2,0.3,0.3,0.5,0.3c0.3,0,0.5-0.1,0.6-0.4c0.2-0.3,0.1-0.6,0-0.8c-0.3-0.5-1.1-0.6-1.6-0.2
		c-0.4,0.4-0.6,0.9-0.4,1.5c0.3,0.8,1.1,1.2,1.9,1.1c1-0.2,1.7-1,1.7-2.1c0-1.7-1.6-2.9-3.3-2.6c-2,0.4-3.1,2.4-2.6,4.4
		c0.6,2.2,2.9,3.5,5.2,3c3.3-0.8,5-3.8,4-7.1c-0.8-2.7-2.7-4.4-5.4-4.8c-2.1-0.3-4,0.5-5.5,2.1c-2.9,3-2.6,7.9,0.7,10.4
		c0.1,0,0.1,0.1,0.2,0.1c0,0,0,0,0,0C66.2,88.8,66,88.5,65.8,88.2L65.8,88.2z"/>
</g>
</svg>
