<?xml version="1.0" encoding="utf-8"?>
<!-- Generator: Adobe Illustrator 21.0.2, SVG Export Plug-In . SVG Version: 6.00 Build 0)  -->
<svg version="1.1" id="Layer_1" xmlns="http://www.w3.org/2000/svg" xmlns:xlink="http://www.w3.org/1999/xlink" x="0px" y="0px"
	 viewBox="0 0 144 144" style="enable-background:new 0 0 144 144;" xml:space="preserve">
<style type="text/css">
	.st0{clip-path:url(#SVGID_2_);}
	.st1{clip-path:url(#SVGID_6_);}
	.st2{clip-path:url(#SVGID_10_);}
	.st3{fill:#B54D41;}
	.st4{fill:#FFFFFF;}
	.st5{fill:#A71E27;}
	.st6{clip-path:url(#SVGID_14_);}
	.st7{clip-path:url(#SVGID_18_);}
	.st8{clip-path:url(#SVGID_22_);}
	.st9{clip-path:url(#SVGID_30_);}
	.st10{fill:none;stroke:#9C1B23;stroke-width:0.9231;stroke-linejoin:round;stroke-miterlimit:10;}
	.st11{clip-path:url(#SVGID_34_);}
	.st12{clip-path:url(#SVGID_38_);}
	.st13{clip-path:url(#SVGID_42_);}
	.st14{clip-path:url(#SVGID_46_);}
	.st15{fill:#A4B67E;}
	.st16{clip-path:url(#SVGID_50_);}
	.st17{fill:#8AA65A;}
	.st18{fill:#EEF6E9;}
	.st19{fill:#BECDA2;}
	.st20{clip-path:url(#SVGID_54_);}
	.st21{fill:none;stroke:#71973E;stroke-width:0.9231;stroke-linejoin:round;stroke-miterlimit:10;}
	.st22{clip-path:url(#SVGID_58_);}
	.st23{clip-path:url(#SVGID_62_);}
	.st24{clip-path:url(#SVGID_66_);}
	.st25{clip-path:url(#SVGID_70_);}
	.st26{clip-path:url(#SVGID_74_);}
	.st27{clip-path:url(#SVGID_78_);}
	.st28{clip-path:url(#SVGID_82_);}
	.st29{fill:#FFE885;}
	.st30{clip-path:url(#SVGID_86_);}
	.st31{clip-path:url(#SVGID_90_);}
	.st32{clip-path:url(#SVGID_94_);}
	.st33{clip-path:url(#SVGID_98_);}
	.st34{clip-path:url(#SVGID_102_);}
	.st35{clip-path:url(#SVGID_106_);}
	.st36{clip-path:url(#SVGID_110_);}
	.st37{clip-path:url(#SVGID_114_);}
	.st38{fill:#E0EFD5;}
	.st39{clip-path:url(#SVGID_118_);}
	.st40{clip-path:url(#SVGID_122_);}
	.st41{fill:none;stroke:#ABA6A6;stroke-width:3.8246;}
	.st42{fill:none;stroke:#706B6B;stroke-width:2.3904;}
	.st43{fill:#6FBE46;}
	.st44{fill:none;stroke:#000000;stroke-width:0.9562;}
	.st45{fill:none;stroke:#575454;stroke-width:0.9562;stroke-linejoin:round;}
	.st46{clip-path:url(#SVGID_126_);}
	.st47{clip-path:url(#SVGID_130_);}
	.st48{fill:#FDDD10;}
	.st49{clip-path:url(#SVGID_136_);}
	
		.st50{clip-path:url(#SVGID_140_);fill:none;stroke:#575454;stroke-width:1.0454;stroke-linecap:round;stroke-linejoin:round;stroke-miterlimit:10;}
	
		.st51{clip-path:url(#SVGID_140_);fill:none;stroke:#000000;stroke-width:4.1817;stroke-linecap:round;stroke-linejoin:round;stroke-miterlimit:10;}
	.st52{fill:none;stroke:#FFFFFF;stroke-width:1.7077;stroke-linecap:round;stroke-linejoin:round;stroke-miterlimit:10;}
	.st53{fill:none;stroke:#000000;stroke-width:4.1817;stroke-linecap:round;stroke-linejoin:round;stroke-miterlimit:10;}
	.st54{clip-path:url(#SVGID_142_);}
	.st55{clip-path:url(#SVGID_146_);}
	.st56{clip-path:url(#SVGID_150_);}
	.st57{clip-path:url(#SVGID_154_);}
	.st58{clip-path:url(#SVGID_158_);}
	.st59{clip-path:url(#SVGID_162_);}
	.st60{clip-path:url(#SVGID_166_);}
	.st61{clip-path:url(#SVGID_170_);}
	.st62{clip-path:url(#SVGID_176_);}
	.st63{clip-path:url(#SVGID_182_);}
	.st64{clip-path:url(#SVGID_186_);}
	.st65{clip-path:url(#SVGID_190_);}
	.st66{clip-path:url(#SVGID_194_);}
	.st67{clip-path:url(#SVGID_198_);}
	.st68{clip-path:url(#SVGID_202_);}
	.st69{clip-path:url(#SVGID_206_);}
	.st70{clip-path:url(#SVGID_210_);}
	.st71{clip-path:url(#SVGID_216_);}
	.st72{clip-path:url(#SVGID_220_);}
	.st73{clip-path:url(#SVGID_226_);}
	.st74{clip-path:url(#SVGID_230_);}
	.st75{clip-path:url(#SVGID_236_);}
	.st76{clip-path:url(#SVGID_240_);}
	.st77{clip-path:url(#SVGID_244_);}
	.st78{clip-path:url(#SVGID_248_);}
	.st79{clip-path:url(#SVGID_254_);}
	.st80{clip-path:url(#SVGID_258_);}
	.st81{clip-path:url(#SVGID_262_);}
	.st82{clip-path:url(#SVGID_266_);}
	.st83{clip-path:url(#SVGID_270_);}
	.st84{clip-path:url(#SVGID_274_);}
	.st85{clip-path:url(#SVGID_278_);}
	.st86{clip-path:url(#SVGID_282_);}
	.st87{clip-path:url(#SVGID_286_);}
	.st88{clip-path:url(#SVGID_290_);}
	.st89{clip-path:url(#SVGID_294_);}
	.st90{clip-path:url(#SVGID_298_);}
	.st91{clip-path:url(#SVGID_304_);}
	.st92{clip-path:url(#SVGID_308_);}
	.st93{clip-path:url(#SVGID_314_);}
	.st94{clip-path:url(#SVGID_320_);}
	.st95{clip-path:url(#SVGID_324_);}
	.st96{fill:#706B6B;}
	.st97{clip-path:url(#SVGID_328_);}
	.st98{clip-path:url(#SVGID_334_);}
	.st99{fill:#567EBF;}
</style>
<g>
	<g>
		<defs>
			<path id="SVGID_141_" d="M127.4,125.8V22.3c0-5.7-5-5.7-5-5.7h-104c-1.5,0.3-4.1,1.3-4.1,5v102.3c0,0,0,5.1,5.1,5.1h103.2
				C122.6,128.9,126.3,128.9,127.4,125.8L127.4,125.8z M86.6,69.3l33.9,3.5l-33.9,3.5l21.3,25.9L78.2,84.6l-7.3,41.5l-7.3-41.5
				l-29.7,17.4l21.3-25.9l-33.9-3.5l33.9-3.5L33.9,43.4l29.7,17.4l7.3-41.5l7.3,41.5l29.7-17.4L86.6,69.3L86.6,69.3z"/>
		</defs>
		<clipPath id="SVGID_2_">
			<use xlink:href="#SVGID_141_"  style="overflow:visible;"/>
		</clipPath>
		<g class="st0">
			<defs>
				<rect id="SVGID_143_" x="14.3" y="16.6" width="113.1" height="112.4"/>
			</defs>
			<clipPath id="SVGID_4_">
				<use xlink:href="#SVGID_143_"  style="overflow:visible;"/>
			</clipPath>
			<g style="clip-path:url(#SVGID_4_);">
				
					<image style="overflow:visible;" width="240" height="237" xlink:href="5A152AE84F7D9D3B.jpg"  transform="matrix(0.48 0 0 -0.48 13.7369 129.4552)">
				</image>
			</g>
		</g>
	</g>
	<g>
		<defs>
			<path id="SVGID_145_" d="M77.1,23.9c0-2.1,1.7-3.7,3.7-3.7c2.1,0,3.7,1.7,3.7,3.7c0,2.1-1.7,3.7-3.7,3.7
				C78.8,27.6,77.1,26,77.1,23.9L77.1,23.9z"/>
		</defs>
		<clipPath id="SVGID_6_">
			<use xlink:href="#SVGID_145_"  style="overflow:visible;"/>
		</clipPath>
		<g class="st1">
			<defs>
				<rect id="SVGID_147_" x="77.1" y="20.2" width="7.4" height="7.4"/>
			</defs>
			<clipPath id="SVGID_8_">
				<use xlink:href="#SVGID_147_"  style="overflow:visible;"/>
			</clipPath>
			<g style="clip-path:url(#SVGID_8_);">
				
					<image style="overflow:visible;" width="20" height="19" xlink:href="5A152AE84F7D9D39.jpg"  transform="matrix(0.48 0 0 -0.48 76.0467 28.7057)">
				</image>
			</g>
		</g>
	</g>
	<g>
		<defs>
			<path id="SVGID_149_" d="M25.7,119.4c0-2.4-1.9-4.3-4.3-4.3c-2.4,0-4.3,1.9-4.3,4.3c0,2.4,1.9,4.3,4.3,4.3
				C23.8,123.6,25.7,121.7,25.7,119.4L25.7,119.4z"/>
		</defs>
		<clipPath id="SVGID_10_">
			<use xlink:href="#SVGID_149_"  style="overflow:visible;"/>
		</clipPath>
		<g class="st2">
			<defs>
				<rect id="SVGID_151_" x="17.2" y="115.1" width="8.5" height="8.5"/>
			</defs>
			<clipPath id="SVGID_12_">
				<use xlink:href="#SVGID_151_"  style="overflow:visible;"/>
			</clipPath>
			<g style="clip-path:url(#SVGID_12_);">
				
					<image style="overflow:visible;" width="24" height="22" xlink:href="5A152AE84F7D9D3F.jpg"  transform="matrix(0.48 0 0 -0.48 15.8964 124.8983)">
				</image>
			</g>
		</g>
	</g>
	<g>
		<defs>
			<path id="SVGID_153_" d="M42.3,25.6c1.1,0,2.1-0.9,2.1-2.1c0-1.1-0.9-2.1-2.1-2.1c-1.1,0-2.1,0.9-2.1,2.1
				C40.3,24.7,41.2,25.6,42.3,25.6L42.3,25.6z"/>
		</defs>
		<clipPath id="SVGID_14_">
			<use xlink:href="#SVGID_153_"  style="overflow:visible;"/>
		</clipPath>
		<g class="st6">
			<defs>
				<rect id="SVGID_155_" x="40.3" y="21.5" width="4.1" height="4.1"/>
			</defs>
			<clipPath id="SVGID_16_">
				<use xlink:href="#SVGID_155_"  style="overflow:visible;"/>
			</clipPath>
			<g style="clip-path:url(#SVGID_16_);">
				
					<image style="overflow:visible;" width="16" height="12" xlink:href="5A152AE84F7D9D38.jpg"  transform="matrix(0.48 0 0 -0.48 39.2166 26.6046)">
				</image>
			</g>
		</g>
	</g>
	<g>
		<defs>
			<path id="SVGID_157_" d="M44.2,108.7c0,1.3,1,2.3,2.3,2.3s2.3-1,2.3-2.3c0-1.3-1-2.3-2.3-2.3S44.2,107.5,44.2,108.7L44.2,108.7z"
				/>
		</defs>
		<clipPath id="SVGID_18_">
			<use xlink:href="#SVGID_157_"  style="overflow:visible;"/>
		</clipPath>
		<g class="st7">
			<defs>
				<rect id="SVGID_159_" x="44.2" y="106.4" width="4.5" height="4.5"/>
			</defs>
			<clipPath id="SVGID_20_">
				<use xlink:href="#SVGID_159_"  style="overflow:visible;"/>
			</clipPath>
			<g style="clip-path:url(#SVGID_20_);">
				
					<image style="overflow:visible;" width="16" height="13" xlink:href="5A152AE84F7D9D36.jpg"  transform="matrix(0.48 0 0 -0.48 42.831 112.1608)">
				</image>
			</g>
		</g>
	</g>
	<g>
		<defs>
			<path id="SVGID_161_" d="M119.4,126c2.3,0,4.1-1.8,4.1-4.1c0-2.3-1.8-4.1-4.1-4.1c-2.3,0-4.1,1.8-4.1,4.1
				C115.3,124.1,117.1,126,119.4,126L119.4,126z"/>
		</defs>
		<clipPath id="SVGID_22_">
			<use xlink:href="#SVGID_161_"  style="overflow:visible;"/>
		</clipPath>
		<g class="st8">
			<defs>
				<rect id="SVGID_163_" x="115.3" y="117.7" width="8.3" height="8.3"/>
			</defs>
			<clipPath id="SVGID_24_">
				<use xlink:href="#SVGID_163_"  style="overflow:visible;"/>
			</clipPath>
			<g style="clip-path:url(#SVGID_24_);">
				
					<image style="overflow:visible;" width="24" height="21" xlink:href="5A152AE84F7D9D37.jpg"  transform="matrix(0.48 0 0 -0.48 113.8727 127.1469)">
				</image>
			</g>
		</g>
	</g>
	<g>
		<defs>
			<path id="SVGID_165_" d="M117.9,36.7c2.3,0,4.1-1.8,4.1-4.1c0-2.3-1.8-4.1-4.1-4.1c-2.3,0-4.1,1.8-4.1,4.1
				C113.8,34.9,115.6,36.7,117.9,36.7L117.9,36.7z"/>
		</defs>
		<clipPath id="SVGID_26_">
			<use xlink:href="#SVGID_165_"  style="overflow:visible;"/>
		</clipPath>
		<g style="clip-path:url(#SVGID_26_);">
			<defs>
				<rect id="SVGID_167_" x="113.8" y="28.5" width="8.3" height="8.3"/>
			</defs>
			<clipPath id="SVGID_28_">
				<use xlink:href="#SVGID_167_"  style="overflow:visible;"/>
			</clipPath>
			<g style="clip-path:url(#SVGID_28_);">
				
					<image style="overflow:visible;" width="24" height="21" xlink:href="5A152AE84F7D9D47.jpg"  transform="matrix(0.48 0 0 -0.48 112.5934 38.012)">
				</image>
			</g>
		</g>
	</g>
	<g>
		<defs>
			<path id="SVGID_169_" d="M121.9,88.8c-2.1,0-3.7,1.7-3.7,3.7c0,2.1,1.7,3.7,3.7,3.7c2.1,0,3.7-1.7,3.7-3.7
				C125.6,90.5,124,88.8,121.9,88.8L121.9,88.8z"/>
		</defs>
		<clipPath id="SVGID_30_">
			<use xlink:href="#SVGID_169_"  style="overflow:visible;"/>
		</clipPath>
		<g class="st9">
			<defs>
				<rect id="SVGID_171_" x="118.2" y="88.8" width="7.4" height="7.4"/>
			</defs>
			<clipPath id="SVGID_32_">
				<use xlink:href="#SVGID_171_"  style="overflow:visible;"/>
			</clipPath>
			<g style="clip-path:url(#SVGID_32_);">
				
					<image style="overflow:visible;" width="20" height="20" xlink:href="5A152AE84F7D9D49.jpg"  transform="matrix(0.48 0 0 -0.48 117.0952 97.5059)">
				</image>
			</g>
		</g>
		<g class="st9">
			<defs>
				<rect id="SVGID_173_" x="118.2" y="88.8" width="7.4" height="7.4"/>
			</defs>
			<clipPath id="SVGID_34_">
				<use xlink:href="#SVGID_173_"  style="overflow:visible;"/>
			</clipPath>
			<g class="st11">
				
					<image style="overflow:visible;" width="20" height="20" xlink:href="5A152AE84F7D9D4B.jpg"  transform="matrix(0.48 0 0 -0.48 117.0952 97.5059)">
				</image>
			</g>
		</g>
	</g>
	<g>
		<defs>
			<path id="SVGID_175_" d="M120.3,51.8c0,1.1-0.9,2.1-2.1,2.1s-2.1-0.9-2.1-2.1c0-1.1,0.9-2.1,2.1-2.1S120.3,50.7,120.3,51.8
				L120.3,51.8z"/>
		</defs>
		<clipPath id="SVGID_36_">
			<use xlink:href="#SVGID_175_"  style="overflow:visible;"/>
		</clipPath>
		<g style="clip-path:url(#SVGID_36_);">
			<defs>
				<rect id="SVGID_177_" x="116.1" y="49.8" width="4.1" height="4.1"/>
			</defs>
			<clipPath id="SVGID_38_">
				<use xlink:href="#SVGID_177_"  style="overflow:visible;"/>
			</clipPath>
			<g class="st12">
				
					<image style="overflow:visible;" width="16" height="13" xlink:href="50F33937D27B998.jpg"  transform="matrix(0.48 0 0 -0.48 115.1627 55.2258)">
				</image>
			</g>
		</g>
		<g style="clip-path:url(#SVGID_36_);">
			<defs>
				<rect id="SVGID_179_" x="116.1" y="49.8" width="4.1" height="4.1"/>
			</defs>
			<clipPath id="SVGID_40_">
				<use xlink:href="#SVGID_179_"  style="overflow:visible;"/>
			</clipPath>
			<g style="clip-path:url(#SVGID_40_);">
				
					<image style="overflow:visible;" width="16" height="13" xlink:href="50F33937D27B99F.jpg"  transform="matrix(0.48 0 0 -0.48 115.1627 55.2258)">
				</image>
			</g>
		</g>
	</g>
	<g>
		<defs>
			<path id="SVGID_181_" d="M84.6,95.8c1.3,0,2.3,1,2.3,2.3c0,1.3-1,2.3-2.3,2.3c-1.3,0-2.3-1-2.3-2.3
				C82.3,96.8,83.3,95.8,84.6,95.8L84.6,95.8z"/>
		</defs>
		<clipPath id="SVGID_42_">
			<use xlink:href="#SVGID_181_"  style="overflow:visible;"/>
		</clipPath>
		<g class="st13">
			<defs>
				<rect id="SVGID_183_" x="82.3" y="95.8" width="4.5" height="4.5"/>
			</defs>
			<clipPath id="SVGID_44_">
				<use xlink:href="#SVGID_183_"  style="overflow:visible;"/>
			</clipPath>
			<g style="clip-path:url(#SVGID_44_);">
				
					<image style="overflow:visible;" width="16" height="13" xlink:href="50F33937D27B999.jpg"  transform="matrix(0.48 0 0 -0.48 80.8591 101.3419)">
				</image>
			</g>
		</g>
	</g>
	<g>
		<defs>
			<path id="SVGID_185_" d="M24.1,45.3c0,2.3-1.8,4.1-4.1,4.1c-2.3,0-4.1-1.8-4.1-4.1c0-2.3,1.8-4.1,4.1-4.1
				C22.2,41.2,24.1,43,24.1,45.3L24.1,45.3z"/>
		</defs>
		<clipPath id="SVGID_46_">
			<use xlink:href="#SVGID_185_"  style="overflow:visible;"/>
		</clipPath>
		<g class="st14">
			<defs>
				<rect id="SVGID_187_" x="15.8" y="41.2" width="8.3" height="8.3"/>
			</defs>
			<clipPath id="SVGID_48_">
				<use xlink:href="#SVGID_187_"  style="overflow:visible;"/>
			</clipPath>
			<g style="clip-path:url(#SVGID_48_);">
				
					<image style="overflow:visible;" width="24" height="21" xlink:href="50F33937D27B99B.jpg"  transform="matrix(0.48 0 0 -0.48 14.6143 50.3748)">
				</image>
			</g>
		</g>
	</g>
	<g>
		<defs>
			<path id="SVGID_189_" d="M118.2,23.1c1.1,0,2.1-0.9,2.1-2.1c0-1.1-0.9-2.1-2.1-2.1s-2.1,0.9-2.1,2.1
				C116.1,22.2,117.1,23.1,118.2,23.1L118.2,23.1z"/>
		</defs>
		<clipPath id="SVGID_50_">
			<use xlink:href="#SVGID_189_"  style="overflow:visible;"/>
		</clipPath>
		<g class="st16">
			<defs>
				<rect id="SVGID_191_" x="116.1" y="19" width="4.1" height="4.1"/>
			</defs>
			<clipPath id="SVGID_52_">
				<use xlink:href="#SVGID_191_"  style="overflow:visible;"/>
			</clipPath>
			<g style="clip-path:url(#SVGID_52_);">
				
					<image style="overflow:visible;" width="16" height="13" xlink:href="50F33937D27B986.jpg"  transform="matrix(0.48 0 0 -0.48 115.1627 24.3227)">
				</image>
			</g>
		</g>
	</g>
	<g>
		<defs>
			<path id="SVGID_193_" d="M114.4,83.2c-1.9,0-3.4,1.5-3.4,3.4c0,1.9,1.5,3.4,3.4,3.4c1.9,0,3.4-1.5,3.4-3.4
				C117.8,84.7,116.3,83.2,114.4,83.2L114.4,83.2z"/>
		</defs>
		<clipPath id="SVGID_54_">
			<use xlink:href="#SVGID_193_"  style="overflow:visible;"/>
		</clipPath>
		<g class="st20">
			<defs>
				<rect id="SVGID_195_" x="111" y="83.2" width="6.8" height="6.8"/>
			</defs>
			<clipPath id="SVGID_56_">
				<use xlink:href="#SVGID_195_"  style="overflow:visible;"/>
			</clipPath>
			<g style="clip-path:url(#SVGID_56_);">
				
					<image style="overflow:visible;" width="20" height="18" xlink:href="50F33937D27B987.jpg"  transform="matrix(0.48 0 0 -0.48 109.8272 91.0739)">
				</image>
			</g>
		</g>
	</g>
	<g>
		<defs>
			<path id="SVGID_197_" d="M25.7,35c1.3,0,2.3-1,2.3-2.3s-1-2.3-2.3-2.3c-1.3,0-2.3,1-2.3,2.3S24.5,35,25.7,35L25.7,35z"/>
		</defs>
		<clipPath id="SVGID_58_">
			<use xlink:href="#SVGID_197_"  style="overflow:visible;"/>
		</clipPath>
		<g class="st22">
			<defs>
				<rect id="SVGID_199_" x="23.5" y="30.4" width="4.5" height="4.5"/>
			</defs>
			<clipPath id="SVGID_60_">
				<use xlink:href="#SVGID_199_"  style="overflow:visible;"/>
			</clipPath>
			<g style="clip-path:url(#SVGID_60_);">
				
					<image style="overflow:visible;" width="16" height="13" xlink:href="50F33937D27B988.jpg"  transform="matrix(0.48 0 0 -0.48 22.4306 36.1462)">
				</image>
			</g>
		</g>
	</g>
	<g>
		<defs>
			<path id="SVGID_201_" d="M16.6,23.3c0-2.4,1.9-4.3,4.3-4.3c2.4,0,4.3,1.9,4.3,4.3c0,2.4-1.9,4.3-4.3,4.3
				C18.5,27.6,16.6,25.7,16.6,23.3L16.6,23.3z"/>
		</defs>
		<clipPath id="SVGID_62_">
			<use xlink:href="#SVGID_201_"  style="overflow:visible;"/>
		</clipPath>
		<g class="st23">
			<defs>
				<rect id="SVGID_203_" x="16.6" y="19.1" width="8.5" height="8.5"/>
			</defs>
			<clipPath id="SVGID_64_">
				<use xlink:href="#SVGID_203_"  style="overflow:visible;"/>
			</clipPath>
			<g style="clip-path:url(#SVGID_64_);">
				
					<image style="overflow:visible;" width="24" height="22" xlink:href="50F33937D27B98B.jpg"  transform="matrix(0.48 0 0 -0.48 15.5982 28.8871)">
				</image>
			</g>
		</g>
	</g>
	<g>
		<defs>
			<path id="SVGID_205_" d="M62.3,94.5c0-2-1.6-3.5-3.5-3.5c-2,0-3.5,1.6-3.5,3.5c0,2,1.6,3.5,3.5,3.5
				C60.7,98.1,62.3,96.5,62.3,94.5L62.3,94.5z"/>
		</defs>
		<clipPath id="SVGID_66_">
			<use xlink:href="#SVGID_205_"  style="overflow:visible;"/>
		</clipPath>
		<g class="st24">
			<defs>
				<rect id="SVGID_207_" x="55.2" y="91" width="7.1" height="7.1"/>
			</defs>
			<clipPath id="SVGID_68_">
				<use xlink:href="#SVGID_207_"  style="overflow:visible;"/>
			</clipPath>
			<g style="clip-path:url(#SVGID_68_);">
				
					<image style="overflow:visible;" width="20" height="19" xlink:href="50F33937D27B989.jpg"  transform="matrix(0.48 0 0 -0.48 54.0181 99.4967)">
				</image>
			</g>
		</g>
	</g>
	<g>
		<defs>
			<path id="SVGID_209_" d="M121.7,104.7c1.3,0,2.3-1,2.3-2.3c0-1.3-1-2.3-2.3-2.3c-1.3,0-2.3,1-2.3,2.3
				C119.4,103.6,120.4,104.7,121.7,104.7L121.7,104.7z"/>
		</defs>
		<clipPath id="SVGID_70_">
			<use xlink:href="#SVGID_209_"  style="overflow:visible;"/>
		</clipPath>
		<g class="st25">
			<defs>
				<rect id="SVGID_211_" x="119.4" y="100.1" width="4.5" height="4.5"/>
			</defs>
			<clipPath id="SVGID_72_">
				<use xlink:href="#SVGID_211_"  style="overflow:visible;"/>
			</clipPath>
			<g style="clip-path:url(#SVGID_72_);">
				
					<image style="overflow:visible;" width="16" height="14" xlink:href="50F33937D27B98F.jpg"  transform="matrix(0.48 0 0 -0.48 118.4136 105.987)">
				</image>
			</g>
		</g>
		<g class="st25">
			<defs>
				<rect id="SVGID_213_" x="119.4" y="100.1" width="4.5" height="4.5"/>
			</defs>
			<clipPath id="SVGID_74_">
				<use xlink:href="#SVGID_213_"  style="overflow:visible;"/>
			</clipPath>
			<g class="st26">
				
					<image style="overflow:visible;" width="16" height="14" xlink:href="50F33937D27B9A3.jpg"  transform="matrix(0.48 0 0 -0.48 118.4136 105.987)">
				</image>
			</g>
		</g>
	</g>
	<g>
		<defs>
			<path id="SVGID_215_" d="M37.4,118.4c2.3,0,4.1,1.8,4.1,4.1c0,2.3-1.8,4.1-4.1,4.1c-2.3,0-4.1-1.8-4.1-4.1
				C33.2,120.3,35.1,118.4,37.4,118.4L37.4,118.4z"/>
		</defs>
		<clipPath id="SVGID_76_">
			<use xlink:href="#SVGID_215_"  style="overflow:visible;"/>
		</clipPath>
		<g style="clip-path:url(#SVGID_76_);">
			<defs>
				<rect id="SVGID_217_" x="33.2" y="118.4" width="8.3" height="8.3"/>
			</defs>
			<clipPath id="SVGID_78_">
				<use xlink:href="#SVGID_217_"  style="overflow:visible;"/>
			</clipPath>
			<g class="st27">
				
					<image style="overflow:visible;" width="24" height="21" xlink:href="50F33937D27B9AD.jpg"  transform="matrix(0.48 0 0 -0.48 31.8382 127.9872)">
				</image>
			</g>
		</g>
	</g>
	<g>
		<defs>
			<path id="SVGID_219_" d="M108.8,95.7c0,1.9,1.5,3.4,3.4,3.4c1.9,0,3.4-1.5,3.4-3.4c0-1.9-1.5-3.4-3.4-3.4
				C110.3,92.3,108.8,93.8,108.8,95.7L108.8,95.7z"/>
		</defs>
		<clipPath id="SVGID_80_">
			<use xlink:href="#SVGID_219_"  style="overflow:visible;"/>
		</clipPath>
		<g style="clip-path:url(#SVGID_80_);">
			<defs>
				<rect id="SVGID_221_" x="108.8" y="92.3" width="6.8" height="6.8"/>
			</defs>
			<clipPath id="SVGID_82_">
				<use xlink:href="#SVGID_221_"  style="overflow:visible;"/>
			</clipPath>
			<g class="st28">
				
					<image style="overflow:visible;" width="20" height="18" xlink:href="50F33937D27B9AF.jpg"  transform="matrix(0.48 0 0 -0.48 107.7039 100.125)">
				</image>
			</g>
		</g>
		<g style="clip-path:url(#SVGID_80_);">
			<defs>
				<rect id="SVGID_223_" x="108.8" y="92.3" width="6.8" height="6.8"/>
			</defs>
			<clipPath id="SVGID_84_">
				<use xlink:href="#SVGID_223_"  style="overflow:visible;"/>
			</clipPath>
			<g style="clip-path:url(#SVGID_84_);">
				
					<image style="overflow:visible;" width="20" height="18" xlink:href="50F33937D27B9A2.jpg"  transform="matrix(0.48 0 0 -0.48 107.7039 100.125)">
				</image>
			</g>
		</g>
	</g>
	<g>
		<defs>
			<path id="SVGID_225_" d="M88.6,123.7c0-1.3-1-2.3-2.3-2.3c-1.3,0-2.3,1-2.3,2.3c0,1.3,1,2.3,2.3,2.3
				C87.6,126,88.6,125,88.6,123.7L88.6,123.7z"/>
		</defs>
		<clipPath id="SVGID_86_">
			<use xlink:href="#SVGID_225_"  style="overflow:visible;"/>
		</clipPath>
		<g class="st30">
			<defs>
				<rect id="SVGID_227_" x="84.1" y="121.4" width="4.5" height="4.5"/>
			</defs>
			<clipPath id="SVGID_88_">
				<use xlink:href="#SVGID_227_"  style="overflow:visible;"/>
			</clipPath>
			<g transform="matrix(1 0 0 1 0 -7.629395e-06)" style="clip-path:url(#SVGID_88_);">
				
					<image style="overflow:visible;" width="16" height="13" xlink:href="50F33937D27B9A1.jpg"  transform="matrix(0.48 0 0 -0.48 82.7587 127.153)">
				</image>
			</g>
		</g>
	</g>
	<g>
		<defs>
			<path id="SVGID_229_" d="M55.5,121.6c-1.3,0-2.3-1-2.3-2.3s1-2.3,2.3-2.3c1.3,0,2.3,1,2.3,2.3S56.8,121.6,55.5,121.6L55.5,121.6z
				"/>
		</defs>
		<clipPath id="SVGID_90_">
			<use xlink:href="#SVGID_229_"  style="overflow:visible;"/>
		</clipPath>
		<g class="st31">
			<defs>
				<rect id="SVGID_231_" x="53.2" y="117.1" width="4.5" height="4.5"/>
			</defs>
			<clipPath id="SVGID_92_">
				<use xlink:href="#SVGID_231_"  style="overflow:visible;"/>
			</clipPath>
			<g style="clip-path:url(#SVGID_92_);">
				
					<image style="overflow:visible;" width="16" height="14" xlink:href="50F33937D27B9A5.jpg"  transform="matrix(0.48 0 0 -0.48 51.8405 122.9783)">
				</image>
			</g>
		</g>
		<g class="st31">
			<defs>
				<rect id="SVGID_233_" x="53.2" y="117.1" width="4.5" height="4.5"/>
			</defs>
			<clipPath id="SVGID_94_">
				<use xlink:href="#SVGID_233_"  style="overflow:visible;"/>
			</clipPath>
			<g class="st32">
				
					<image style="overflow:visible;" width="16" height="14" xlink:href="50F33937D27B9A7.jpg"  transform="matrix(0.48 0 0 -0.48 51.8405 122.9783)">
				</image>
			</g>
		</g>
	</g>
	<g>
		<defs>
			<path id="SVGID_235_" d="M89.1,103.1c-3.1,0-5.6,2.5-5.6,5.6c0,3.1,2.5,5.6,5.6,5.6c3.1,0,5.6-2.5,5.6-5.6
				C94.7,105.6,92.2,103.1,89.1,103.1L89.1,103.1z"/>
		</defs>
		<clipPath id="SVGID_96_">
			<use xlink:href="#SVGID_235_"  style="overflow:visible;"/>
		</clipPath>
		<g style="clip-path:url(#SVGID_96_);">
			<defs>
				<rect id="SVGID_237_" x="83.6" y="103.1" width="11.1" height="11.1"/>
			</defs>
			<clipPath id="SVGID_98_">
				<use xlink:href="#SVGID_237_"  style="overflow:visible;"/>
			</clipPath>
			<g class="st33">
				
					<image style="overflow:visible;" width="28" height="27" xlink:href="50F33937D27B9A0.jpg"  transform="matrix(0.48 0 0 -0.48 82.2793 115.4915)">
				</image>
			</g>
		</g>
	</g>
	<g>
		<defs>
			<path id="SVGID_239_" d="M115.2,60.4c0,1.9,1.5,3.4,3.4,3.4c1.9,0,3.4-1.5,3.4-3.4c0-1.9-1.5-3.4-3.4-3.4
				C116.7,57,115.2,58.5,115.2,60.4L115.2,60.4z"/>
		</defs>
		<clipPath id="SVGID_100_">
			<use xlink:href="#SVGID_239_"  style="overflow:visible;"/>
		</clipPath>
		<g style="clip-path:url(#SVGID_100_);">
			<defs>
				<rect id="SVGID_241_" x="115.2" y="57" width="6.8" height="6.8"/>
			</defs>
			<clipPath id="SVGID_102_">
				<use xlink:href="#SVGID_241_"  style="overflow:visible;"/>
			</clipPath>
			<g class="st34">
				
					<image style="overflow:visible;" width="20" height="18" xlink:href="50F33937D27B99E.jpg"  transform="matrix(0.48 0 0 -0.48 113.9291 64.9397)">
				</image>
			</g>
		</g>
	</g>
	<g>
		<defs>
			<path id="SVGID_243_" d="M95,19.4c-1.1,0-2.1,0.9-2.1,2.1c0,1.1,0.9,2.1,2.1,2.1s2.1-0.9,2.1-2.1C97.1,20.4,96.2,19.4,95,19.4
				L95,19.4z"/>
		</defs>
		<clipPath id="SVGID_104_">
			<use xlink:href="#SVGID_243_"  style="overflow:visible;"/>
		</clipPath>
		<g style="clip-path:url(#SVGID_104_);">
			<defs>
				<rect id="SVGID_245_" x="93" y="19.4" width="4.1" height="4.1"/>
			</defs>
			<clipPath id="SVGID_106_">
				<use xlink:href="#SVGID_245_"  style="overflow:visible;"/>
			</clipPath>
			<g class="st35">
				
					<image style="overflow:visible;" width="16" height="12" xlink:href="50F33937D27B9DD.jpg"  transform="matrix(0.48 0 0 -0.48 91.5967 24.571)">
				</image>
			</g>
		</g>
	</g>
	<g>
		<defs>
			<path id="SVGID_247_" d="M103.8,80.4c0-1.3-1-2.3-2.3-2.3c-1.3,0-2.3,1-2.3,2.3c0,1.3,1,2.3,2.3,2.3
				C102.7,82.7,103.8,81.7,103.8,80.4L103.8,80.4z"/>
		</defs>
		<clipPath id="SVGID_108_">
			<use xlink:href="#SVGID_247_"  style="overflow:visible;"/>
		</clipPath>
		<g style="clip-path:url(#SVGID_108_);">
			<defs>
				<rect id="SVGID_249_" x="99.2" y="78.1" width="4.5" height="4.5"/>
			</defs>
			<clipPath id="SVGID_110_">
				<use xlink:href="#SVGID_249_"  style="overflow:visible;"/>
			</clipPath>
			<g class="st36">
				
					<image style="overflow:visible;" width="16" height="14" xlink:href="50F33937D27B9C2.jpg"  transform="matrix(0.48 0 0 -0.48 97.8228 84.0017)">
				</image>
			</g>
		</g>
		<g style="clip-path:url(#SVGID_108_);">
			<defs>
				<rect id="SVGID_251_" x="99.2" y="78.1" width="4.5" height="4.5"/>
			</defs>
			<clipPath id="SVGID_112_">
				<use xlink:href="#SVGID_251_"  style="overflow:visible;"/>
			</clipPath>
			<g style="clip-path:url(#SVGID_112_);">
				
					<image style="overflow:visible;" width="16" height="14" xlink:href="50F33937D27B9FD.jpg"  transform="matrix(0.48 0 0 -0.48 97.8228 84.0017)">
				</image>
			</g>
		</g>
	</g>
	<g>
		<defs>
			<path id="SVGID_253_" d="M31.1,76.3c-2.3,0-4.1,1.8-4.1,4.1c0,2.3,1.8,4.1,4.1,4.1c2.3,0,4.1-1.8,4.1-4.1
				C35.3,78.1,33.4,76.3,31.1,76.3L31.1,76.3z"/>
		</defs>
		<clipPath id="SVGID_114_">
			<use xlink:href="#SVGID_253_"  style="overflow:visible;"/>
		</clipPath>
		<g class="st37">
			<defs>
				<rect id="SVGID_255_" x="27" y="76.3" width="8.3" height="8.3"/>
			</defs>
			<clipPath id="SVGID_116_">
				<use xlink:href="#SVGID_255_"  style="overflow:visible;"/>
			</clipPath>
			<g style="clip-path:url(#SVGID_116_);">
				
					<image style="overflow:visible;" width="24" height="22" xlink:href="50F33937D27B9FE.jpg"  transform="matrix(0.48 0 0 -0.48 25.7279 85.9217)">
				</image>
			</g>
		</g>
	</g>
	<g>
		<defs>
			<path id="SVGID_257_" d="M33.3,20.5c-1.7,0-3.1,1.4-3.1,3.1c0,1.7,1.4,3.1,3.1,3.1c1.7,0,3.1-1.4,3.1-3.1
				C36.4,21.9,35,20.5,33.3,20.5L33.3,20.5z"/>
		</defs>
		<clipPath id="SVGID_118_">
			<use xlink:href="#SVGID_257_"  style="overflow:visible;"/>
		</clipPath>
		<g class="st39">
			<defs>
				<rect id="SVGID_259_" x="30.2" y="20.5" width="6.2" height="6.2"/>
			</defs>
			<clipPath id="SVGID_120_">
				<use xlink:href="#SVGID_259_"  style="overflow:visible;"/>
			</clipPath>
			<g style="clip-path:url(#SVGID_120_);">
				
					<image style="overflow:visible;" width="20" height="17" xlink:href="50F33937D27B9FC.jpg"  transform="matrix(0.48 0 0 -0.48 28.755 28.0446)">
				</image>
			</g>
		</g>
	</g>
	<g>
		<defs>
			<path id="SVGID_261_" d="M44.3,38.6c2.3,0,4.1-1.8,4.1-4.1c0-2.3-1.8-4.1-4.1-4.1c-2.3,0-4.1,1.8-4.1,4.1
				C40.3,36.8,42.1,38.6,44.3,38.6L44.3,38.6z"/>
		</defs>
		<clipPath id="SVGID_122_">
			<use xlink:href="#SVGID_261_"  style="overflow:visible;"/>
		</clipPath>
		<g class="st40">
			<defs>
				<rect id="SVGID_263_" x="40.3" y="30.4" width="8.2" height="8.2"/>
			</defs>
			<clipPath id="SVGID_124_">
				<use xlink:href="#SVGID_263_"  style="overflow:visible;"/>
			</clipPath>
			<g style="clip-path:url(#SVGID_124_);">
				
					<image style="overflow:visible;" width="24" height="21" xlink:href="50F33937D27B9C3.jpg"  transform="matrix(0.48 0 0 -0.48 38.8287 39.9709)">
				</image>
			</g>
		</g>
	</g>
	<g>
		<defs>
			<path id="SVGID_265_" d="M40,93.2c-1.3,0-2.3-1-2.3-2.3c0-1.3,1-2.3,2.3-2.3c1.3,0,2.3,1,2.3,2.3C42.3,92.2,41.3,93.2,40,93.2
				L40,93.2z"/>
		</defs>
		<clipPath id="SVGID_126_">
			<use xlink:href="#SVGID_265_"  style="overflow:visible;"/>
		</clipPath>
		<g class="st46">
			<defs>
				<rect id="SVGID_267_" x="37.8" y="88.7" width="4.5" height="4.5"/>
			</defs>
			<clipPath id="SVGID_128_">
				<use xlink:href="#SVGID_267_"  style="overflow:visible;"/>
			</clipPath>
			<g style="clip-path:url(#SVGID_128_);">
				
					<image style="overflow:visible;" width="16" height="13" xlink:href="50F33937D27B9C5.jpg"  transform="matrix(0.48 0 0 -0.48 36.5957 94.2915)">
				</image>
			</g>
		</g>
	</g>
	<g>
		<defs>
			<path id="SVGID_269_" d="M53.9,43.4c0-1.7,1.4-3.1,3.1-3.1c1.7,0,3.1,1.4,3.1,3.1s-1.4,3.1-3.1,3.1
				C55.3,46.5,53.9,45.1,53.9,43.4L53.9,43.4z"/>
		</defs>
		<clipPath id="SVGID_130_">
			<use xlink:href="#SVGID_269_"  style="overflow:visible;"/>
		</clipPath>
		<g class="st47">
			<defs>
				<rect id="SVGID_271_" x="53.9" y="40.3" width="6.2" height="6.2"/>
			</defs>
			<clipPath id="SVGID_132_">
				<use xlink:href="#SVGID_271_"  style="overflow:visible;"/>
			</clipPath>
			<g style="clip-path:url(#SVGID_132_);">
				
					<image style="overflow:visible;" width="20" height="16" xlink:href="50F33937D27B9C6.jpg"  transform="matrix(0.48 0 0 -0.48 52.5933 47.463)">
				</image>
			</g>
		</g>
	</g>
	<g>
		<defs>
			<path id="SVGID_273_" d="M105.3,26.2c0,2.3-1.8,4.1-4.1,4.1c-2.3,0-4.1-1.8-4.1-4.1c0-2.3,1.8-4.1,4.1-4.1
				C103.5,22.1,105.3,23.9,105.3,26.2L105.3,26.2z"/>
		</defs>
		<clipPath id="SVGID_134_">
			<use xlink:href="#SVGID_273_"  style="overflow:visible;"/>
		</clipPath>
		<g style="clip-path:url(#SVGID_134_);">
			<defs>
				<rect id="SVGID_275_" x="97.1" y="22.1" width="8.2" height="8.2"/>
			</defs>
			<clipPath id="SVGID_136_">
				<use xlink:href="#SVGID_275_"  style="overflow:visible;"/>
			</clipPath>
			<g transform="matrix(1 0 0 1 0 -1.907349e-06)" class="st49">
				
					<image style="overflow:visible;" width="24" height="21" xlink:href="50F33937D27B9C4.jpg"  transform="matrix(0.48 0 0 -0.48 95.7558 31.3239)">
				</image>
			</g>
		</g>
	</g>
	<g>
		<defs>
			<path id="SVGID_277_" d="M107.9,56.2c-1.1,0-2.1,0.9-2.1,2.1c0,1.1,0.9,2.1,2.1,2.1c1.1,0,2.1-0.9,2.1-2.1
				C109.9,57.2,109,56.2,107.9,56.2L107.9,56.2z"/>
		</defs>
		<clipPath id="SVGID_138_">
			<use xlink:href="#SVGID_277_"  style="overflow:visible;"/>
		</clipPath>
		<g style="clip-path:url(#SVGID_138_);">
			<defs>
				<rect id="SVGID_279_" x="105.8" y="56.2" width="4.1" height="4.1"/>
			</defs>
			<clipPath id="SVGID_140_">
				<use xlink:href="#SVGID_279_"  style="overflow:visible;"/>
			</clipPath>
			<g style="clip-path:url(#SVGID_140_);">
				
					<image style="overflow:visible;" width="16" height="12" xlink:href="50F33937D27B9CC.jpg"  transform="matrix(0.48 0 0 -0.48 104.5111 61.4662)">
				</image>
			</g>
		</g>
	</g>
	<g>
		<defs>
			<path id="SVGID_281_" d="M107.3,112.1c1.9,0,3.4-1.5,3.4-3.4s-1.5-3.4-3.4-3.4c-1.9,0-3.4,1.5-3.4,3.4S105.4,112.1,107.3,112.1
				L107.3,112.1z"/>
		</defs>
		<clipPath id="SVGID_142_">
			<use xlink:href="#SVGID_281_"  style="overflow:visible;"/>
		</clipPath>
		<g class="st54">
			<defs>
				<rect id="SVGID_283_" x="103.9" y="105.3" width="6.8" height="6.8"/>
			</defs>
			<clipPath id="SVGID_144_">
				<use xlink:href="#SVGID_283_"  style="overflow:visible;"/>
			</clipPath>
			<g style="clip-path:url(#SVGID_144_);">
				
					<image style="overflow:visible;" width="20" height="18" xlink:href="50F33937D27B9CD.jpg"  transform="matrix(0.48 0 0 -0.48 102.7565 113.0925)">
				</image>
			</g>
		</g>
	</g>
	<g>
		<defs>
			<path id="SVGID_285_" d="M19.5,66.6c-1.3,0-2.3,1-2.3,2.3c0,1.3,1,2.3,2.3,2.3c1.3,0,2.3-1,2.3-2.3
				C21.8,67.7,20.7,66.6,19.5,66.6L19.5,66.6z"/>
		</defs>
		<clipPath id="SVGID_146_">
			<use xlink:href="#SVGID_285_"  style="overflow:visible;"/>
		</clipPath>
		<g class="st55">
			<defs>
				<rect id="SVGID_287_" x="17.2" y="66.6" width="4.5" height="4.5"/>
			</defs>
			<clipPath id="SVGID_148_">
				<use xlink:href="#SVGID_287_"  style="overflow:visible;"/>
			</clipPath>
			<g transform="matrix(1 0 0 1 9.536743e-07 0)" style="clip-path:url(#SVGID_148_);">
				
					<image style="overflow:visible;" width="16" height="13" xlink:href="50F33937D27BA29.jpg"  transform="matrix(0.48 0 0 -0.48 15.823 72.2596)">
				</image>
			</g>
		</g>
	</g>
	<g>
		<defs>
			<path id="SVGID_289_" d="M123.5,43.9c0,1.3-1,2.3-2.3,2.3c-1.3,0-2.3-1-2.3-2.3c0-1.3,1-2.3,2.3-2.3
				C122.5,41.6,123.5,42.6,123.5,43.9L123.5,43.9z"/>
		</defs>
		<clipPath id="SVGID_150_">
			<use xlink:href="#SVGID_289_"  style="overflow:visible;"/>
		</clipPath>
		<g class="st56">
			<defs>
				<rect id="SVGID_291_" x="119" y="41.6" width="4.5" height="4.5"/>
			</defs>
			<clipPath id="SVGID_152_">
				<use xlink:href="#SVGID_291_"  style="overflow:visible;"/>
			</clipPath>
			<g style="clip-path:url(#SVGID_152_);">
				
					<image style="overflow:visible;" width="16" height="13" xlink:href="50F33937D27BA2B.jpg"  transform="matrix(0.48 0 0 -0.48 117.6902 47.2391)">
				</image>
			</g>
		</g>
	</g>
	<g>
		<defs>
			<path id="SVGID_293_" d="M100.4,121.4c0,1.1,0.9,2.1,2.1,2.1c1.1,0,2.1-0.9,2.1-2.1c0-1.1-0.9-2.1-2.1-2.1
				C101.3,119.4,100.4,120.3,100.4,121.4L100.4,121.4z"/>
		</defs>
		<clipPath id="SVGID_154_">
			<use xlink:href="#SVGID_293_"  style="overflow:visible;"/>
		</clipPath>
		<g class="st57">
			<defs>
				<rect id="SVGID_295_" x="100.4" y="119.4" width="4.1" height="4.1"/>
			</defs>
			<clipPath id="SVGID_156_">
				<use xlink:href="#SVGID_295_"  style="overflow:visible;"/>
			</clipPath>
			<g transform="matrix(1 0 0 1 0 -7.629395e-06)" style="clip-path:url(#SVGID_156_);">
				
					<image style="overflow:visible;" width="16" height="12" xlink:href="50F33937D27BA28.jpg"  transform="matrix(0.48 0 0 -0.48 99.2693 124.5318)">
				</image>
			</g>
		</g>
	</g>
	<g>
		<defs>
			<path id="SVGID_297_" d="M21.5,88c-1.3,0-2.3,1-2.3,2.3c0,1.3,1,2.3,2.3,2.3c1.3,0,2.3-1,2.3-2.3C23.7,89,22.7,88,21.5,88
				L21.5,88z"/>
		</defs>
		<clipPath id="SVGID_158_">
			<use xlink:href="#SVGID_297_"  style="overflow:visible;"/>
		</clipPath>
		<g class="st58">
			<defs>
				<rect id="SVGID_299_" x="19.2" y="88" width="4.5" height="4.5"/>
			</defs>
			<clipPath id="SVGID_160_">
				<use xlink:href="#SVGID_299_"  style="overflow:visible;"/>
			</clipPath>
			<g style="clip-path:url(#SVGID_160_);">
				
					<image style="overflow:visible;" width="16" height="14" xlink:href="50F33937D27BA2F.jpg"  transform="matrix(0.48 0 0 -0.48 17.8164 93.9056)">
				</image>
			</g>
		</g>
		<g class="st58">
			<defs>
				<rect id="SVGID_301_" x="19.2" y="88" width="4.5" height="4.5"/>
			</defs>
			<clipPath id="SVGID_162_">
				<use xlink:href="#SVGID_301_"  style="overflow:visible;"/>
			</clipPath>
			<g class="st59">
				
					<image style="overflow:visible;" width="16" height="14" xlink:href="50F33937D27BA2A.jpg"  transform="matrix(0.48 0 0 -0.48 17.8164 93.9056)">
				</image>
			</g>
		</g>
	</g>
	<g>
		<defs>
			<path id="SVGID_303_" d="M109.6,41.9c-2.3,0-4.1-1.8-4.1-4.1c0-2.3,1.8-4.1,4.1-4.1s4.1,1.8,4.1,4.1
				C113.8,40.1,111.9,41.9,109.6,41.9L109.6,41.9z"/>
		</defs>
		<clipPath id="SVGID_164_">
			<use xlink:href="#SVGID_303_"  style="overflow:visible;"/>
		</clipPath>
		<g style="clip-path:url(#SVGID_164_);">
			<defs>
				<rect id="SVGID_305_" x="105.5" y="33.7" width="8.3" height="8.3"/>
			</defs>
			<clipPath id="SVGID_166_">
				<use xlink:href="#SVGID_305_"  style="overflow:visible;"/>
			</clipPath>
			<g class="st60">
				
					<image style="overflow:visible;" width="24" height="21" xlink:href="50F33937D27BA36.jpg"  transform="matrix(0.48 0 0 -0.48 104.4592 43.1264)">
				</image>
			</g>
		</g>
	</g>
	<g>
		<defs>
			<path id="SVGID_307_" d="M30.8,105.3c0-1.9-1.5-3.4-3.4-3.4s-3.4,1.5-3.4,3.4c0,1.9,1.5,3.4,3.4,3.4S30.8,107.2,30.8,105.3
				L30.8,105.3z"/>
		</defs>
		<clipPath id="SVGID_168_">
			<use xlink:href="#SVGID_307_"  style="overflow:visible;"/>
		</clipPath>
		<g style="clip-path:url(#SVGID_168_);">
			<defs>
				<rect id="SVGID_309_" x="23.9" y="101.9" width="6.8" height="6.8"/>
			</defs>
			<clipPath id="SVGID_170_">
				<use xlink:href="#SVGID_309_"  style="overflow:visible;"/>
			</clipPath>
			<g class="st61">
				
					<image style="overflow:visible;" width="20" height="18" xlink:href="50F33937D27BA37.jpg"  transform="matrix(0.48 0 0 -0.48 22.7925 109.9095)">
				</image>
			</g>
		</g>
		<g style="clip-path:url(#SVGID_168_);">
			<defs>
				<rect id="SVGID_311_" x="23.9" y="101.9" width="6.8" height="6.8"/>
			</defs>
			<clipPath id="SVGID_172_">
				<use xlink:href="#SVGID_311_"  style="overflow:visible;"/>
			</clipPath>
			<g style="clip-path:url(#SVGID_172_);">
				
					<image style="overflow:visible;" width="20" height="18" xlink:href="50F33937D27BA27.jpg"  transform="matrix(0.48 0 0 -0.48 22.7925 109.9095)">
				</image>
			</g>
		</g>
	</g>
	<g>
		<defs>
			<path id="SVGID_313_" d="M95.3,35.5c1.3,0,2.3,1,2.3,2.3s-1,2.3-2.3,2.3c-1.3,0-2.3-1-2.3-2.3S94,35.5,95.3,35.5L95.3,35.5z"/>
		</defs>
		<clipPath id="SVGID_174_">
			<use xlink:href="#SVGID_313_"  style="overflow:visible;"/>
		</clipPath>
		<g style="clip-path:url(#SVGID_174_);">
			<defs>
				<rect id="SVGID_315_" x="93" y="35.5" width="4.5" height="4.5"/>
			</defs>
			<clipPath id="SVGID_176_">
				<use xlink:href="#SVGID_315_"  style="overflow:visible;"/>
			</clipPath>
			<g class="st62">
				
					<image style="overflow:visible;" width="16" height="13" xlink:href="50F33937D27BA39.jpg"  transform="matrix(0.48 0 0 -0.48 91.7041 41.2064)">
				</image>
			</g>
		</g>
		<g style="clip-path:url(#SVGID_174_);">
			<defs>
				<rect id="SVGID_317_" x="93" y="35.5" width="4.5" height="4.5"/>
			</defs>
			<clipPath id="SVGID_178_">
				<use xlink:href="#SVGID_317_"  style="overflow:visible;"/>
			</clipPath>
			<g style="clip-path:url(#SVGID_178_);">
				
					<image style="overflow:visible;" width="16" height="13" xlink:href="50F33937D27BA3B.jpg"  transform="matrix(0.48 0 0 -0.48 91.7041 41.2064)">
				</image>
			</g>
		</g>
	</g>
	<g>
		<defs>
			<path id="SVGID_319_" d="M84.6,34.9c1.7,0,3.1-1.4,3.1-3.1c0-1.7-1.4-3.1-3.1-3.1c-1.7,0-3.1,1.4-3.1,3.1
				C81.4,33.5,82.8,34.9,84.6,34.9L84.6,34.9z"/>
		</defs>
		<clipPath id="SVGID_180_">
			<use xlink:href="#SVGID_319_"  style="overflow:visible;"/>
		</clipPath>
		<g style="clip-path:url(#SVGID_180_);">
			<defs>
				<rect id="SVGID_321_" x="81.4" y="28.6" width="6.3" height="6.3"/>
			</defs>
			<clipPath id="SVGID_182_">
				<use xlink:href="#SVGID_321_"  style="overflow:visible;"/>
			</clipPath>
			<g class="st63">
				
					<image style="overflow:visible;" width="20" height="17" xlink:href="50F33937D27BA14.jpg"  transform="matrix(0.48 0 0 -0.48 80.3791 36.1453)">
				</image>
			</g>
		</g>
	</g>
	<g>
		<defs>
			<path id="SVGID_323_" d="M6,110.1h5.8V37.9H6V110.1L6,110.1z M129.9,110.1h5.8V37.9h-5.8V110.1L129.9,110.1z"/>
		</defs>
		<clipPath id="SVGID_184_">
			<use xlink:href="#SVGID_323_"  style="overflow:visible;"/>
		</clipPath>
		<g style="clip-path:url(#SVGID_184_);">
			<defs>
				<rect id="SVGID_325_" x="6" y="37.9" width="129.7" height="72.2"/>
			</defs>
			<clipPath id="SVGID_186_">
				<use xlink:href="#SVGID_325_"  style="overflow:visible;"/>
			</clipPath>
			<g class="st64">
				
					<image style="overflow:visible;" width="276" height="154" xlink:href="50F33937D27BA13.jpg"  transform="matrix(0.48 0 0 -0.48 5.0968 110.9212)">
				</image>
			</g>
		</g>
	</g>
	<path class="st96" d="M107,14.2V8H34.7v6.2H107L107,14.2z M31.8,8L31.8,8l0,6.2h0V8L31.8,8z"/>
	<path class="st96" d="M34.7,137.5H105c0,0,2,0,2-2v-2.2c0,0,0-2-2-2H36.7c0,0-2,0-2,2V137.5L34.7,137.5z"/>
	<path class="st48" d="M135.7,132.2v-19.1h-5.8v13c0,5.3-5.3,5.3-5.3,5.3h-14.7v6.2h20.5C130.4,137.5,135.7,137.5,135.7,132.2
		L135.7,132.2z M129.9,35h5.8V13.3c0,0,0-5.3-5.3-5.3h-20.5v6.2h14.7c5.3,0,5.3,5.3,5.3,5.3V35L129.9,35z M11.3,137.5h20.5v-6.2
		H17.1c-5.3,0-5.3-5.3-5.3-5.3v-13H6v19.1C6,132.2,6,137.5,11.3,137.5L11.3,137.5z M17.1,14.2h14.7V8H11.3c0,0-5.3,0-5.3,5.3V35h5.8
		V19.5C11.8,14.2,17.1,14.2,17.1,14.2L17.1,14.2z"/>
	<g>
		<defs>
			<path id="SVGID_327_" d="M59.1,102.5c-1.6,0-2.8,1.3-2.8,2.8c0,1.6,1.3,2.8,2.8,2.8c1.6,0,2.8-1.3,2.8-2.8
				C61.9,103.7,60.6,102.5,59.1,102.5L59.1,102.5z"/>
		</defs>
		<clipPath id="SVGID_188_">
			<use xlink:href="#SVGID_327_"  style="overflow:visible;"/>
		</clipPath>
		<g style="clip-path:url(#SVGID_188_);">
			<defs>
				<rect id="SVGID_329_" x="56.2" y="102.5" width="5.7" height="5.7"/>
			</defs>
			<clipPath id="SVGID_190_">
				<use xlink:href="#SVGID_329_"  style="overflow:visible;"/>
			</clipPath>
			<g class="st65">
				
					<image style="overflow:visible;" width="20" height="16" xlink:href="50F33937D27BA1C.jpg"  transform="matrix(0.48 0 0 -0.48 55.1322 109.4295)">
				</image>
			</g>
		</g>
		<g style="clip-path:url(#SVGID_188_);">
			<defs>
				<rect id="SVGID_331_" x="56.2" y="102.5" width="5.7" height="5.7"/>
			</defs>
			<clipPath id="SVGID_192_">
				<use xlink:href="#SVGID_331_"  style="overflow:visible;"/>
			</clipPath>
			<g style="clip-path:url(#SVGID_192_);">
				
					<image style="overflow:visible;" width="20" height="16" xlink:href="50F33937D27BA1F.jpg"  transform="matrix(0.48 0 0 -0.48 55.1322 109.4295)">
				</image>
			</g>
		</g>
	</g>
	<g>
		<defs>
			<path id="SVGID_333_" d="M23.9,49.8c2.3,0,4.1,1.8,4.1,4.1c0,2.3-1.8,4.1-4.1,4.1c-2.3,0-4.1-1.8-4.1-4.1
				C19.7,51.6,21.6,49.8,23.9,49.8L23.9,49.8z"/>
		</defs>
		<clipPath id="SVGID_194_">
			<use xlink:href="#SVGID_333_"  style="overflow:visible;"/>
		</clipPath>
		<g class="st66">
			<defs>
				<rect id="SVGID_335_" x="19.7" y="49.8" width="8.3" height="8.3"/>
			</defs>
			<clipPath id="SVGID_196_">
				<use xlink:href="#SVGID_335_"  style="overflow:visible;"/>
			</clipPath>
			<g style="clip-path:url(#SVGID_196_);">
				
					<image style="overflow:visible;" width="24" height="21" xlink:href="50F33937D27BA1D.jpg"  transform="matrix(0.48 0 0 -0.48 18.5844 59.1793)">
				</image>
			</g>
		</g>
	</g>
	<path class="st99" d="M86.6,69.3l21.3-25.9L78.2,60.8l-7.3-41.5l-7.3,41.5L33.9,43.4l21.3,25.9l-33.9,3.5l33.9,3.5l-21.3,25.9
		l29.7-17.4l7.3,41.5l7.3-41.5l29.7,17.4L86.6,76.2l33.9-3.5L86.6,69.3L86.6,69.3z M81.8,70.3l23.6,2.4l-23.6,2.4l14.8,18L75.9,81
		l-5.1,28.9L65.8,81L45.1,93.2l14.8-18l-23.6-2.4l23.6-2.4l-14.8-18l20.7,12.1l5.1-28.9l5.1,28.9l20.7-12.1L81.8,70.3L81.8,70.3z"/>
	<polygon class="st48" points="70.9,48.5 74.2,67.3 87.7,59.4 78,71.2 93.4,72.7 78,74.3 87.7,86.1 74.2,78.2 70.9,97 67.5,78.2 
		54,86.1 63.7,74.3 48.3,72.7 63.7,71.2 54,59.4 67.5,67.3 70.9,48.5 	"/>
</g>
</svg>
